<svg id="Layer_1" viewBox="0 0 24 24" xmlns="http://www.w3.org/2000/svg" data-name="Layer 1"><path d="m5.003 12.001c.51 0 1.02-.17 1.499-.45-.92-1.099-1.499-2.419-1.499-3.549 0-1.649 1.349-2.999 2.999-2.999s2.999 1.349 2.999 2.999c0 1.14-.58 2.449-1.499 3.549.48.28.99.45 1.499.45.12 0 .64-.03 1.169-.27-.1-.36-.16-.76-.16-1.229 0-.83.67-1.499 1.499-1.499s1.499.67 1.499 1.499h-.01c0 1.539-1.02 2.929-2.509 3.309-.44.11-.94.19-1.489.19-1.05 0-2.089-.41-2.999-1.05-.91.64-1.949 1.05-2.999 1.05v-1.999zm1.999-3.998c0 .63.39 1.479 1 2.239.61-.76 1-1.609 1-2.239 0-.55-.45-1-1-1s-1 .45-1 1zm-5.002 7.998v-14.001h12v5.05c.778.112 1.476.469 2 1.005v-8.055h-16v21c0 1.654 1.346 3 3 3h6v-2h-6c-.551 0-1-.448-1-1v-3h7.93l2-2h-9.93zm21.121.121-7.878 7.879h-4.243v-4.242l7.879-7.879c1.133-1.133 3.109-1.133 4.243 0 1.169 1.17 1.169 3.072 0 4.242zm-1.414-2.828c-.378-.379-1.037-.379-1.414 0l-7.293 7.293v1.414h1.415l7.292-7.293c.39-.39.39-1.024 0-1.414z"/></svg>