<svg id="Layer_1" viewBox="0 0 24 24" xmlns="http://www.w3.org/2000/svg" data-name="Layer 1"><path d="m9.995 5.985h7.997v1.995h-4.998l1.999 1.995h9.007l-.011-4.985c0-1.014-.693-1.897-1.679-2.141l-10.393-2.773c-1.294-.333-2.611.453-2.929 1.748l-.339 1.437 1.346.359zm10.996 0c.552 0 1 .447 1 .997s-.448.997-1 .997-1-.447-1-.997.448-.997 1-.997zm-15.869 1.995-4.459 4.448c-.884.885-.884 2.327 0 3.214l8.377 8.358 8.634-8.616-7.421-7.405h-5.132zm3.919 13.199-6.962-6.946c-.108-.11-.108-.287 0-.395l3.568-3.56 2.196 2.191 2.042-2.038 4.965 4.954-5.807 5.795z"/></svg>