<svg id="Layer_1" viewBox="0 0 24 24" xmlns="http://www.w3.org/2000/svg" data-name="Layer 1"><path d="m14.982 19.6h1v-1.6h-1v-1h-1.6v1h-1.801v-1h-1.582v1h-1v1.6h1v1.801h-1v1.6h1v1h1.582v-1h1.801v.982h1.6v-.982h1.018v-1.6h-1.018zm-1.599 1.8h-1.801v-1.801h1.801z"/><path d="m16.901 18.952 1.149 1.113.35-.379v4.314h1.6v-7h-1.226z"/><path d="m21.942 7.714c-.672-.572-1.56-.815-2.439-.674-.571.093-1.08.365-1.492.749-.533-.485-1.234-.789-2.01-.789-.771 0-1.468.301-2 .78-.532-.48-1.229-.78-2-.78v-4c0-1.657-1.343-3-3-3s-3 1.343-3 3v8.774c-.045.04-4.121 4.244-4.121 4.244-.698.698-1.011 1.682-.827 2.686.114.626.46 1.188.91 1.638l3.657 3.657h2.805l-5.13-5.153c-.39-.39-.39-1.024.013-1.427l3.982-4.131c.39-.391 1.024-.391 1.414 0 .391.39.391 1.024-.015 1.431l-3.256 3.408 1.445 1.381 3.24-3.392c.384-.384.629-.85.76-1.34.347.141.725.222 1.122.222.771 0 1.468-.301 2-.78.532.48 1.229.78 2 .78s1.468-.301 2-.78c.532.48 1.229.78 2 .78.351 0 .687-.061 1-.171v9.171h2v-14c0-.882-.386-1.715-1.058-2.286zm-11.942.066c-.609.549-1 1.337-1 2.22v1.181c-.323-.114-.66-.181-1-.181v-8c-.011-.605.575-1.103 1.175-.985.463.075.825.555.825 1.093v4.673zm3 4.22c0 .552-.448 1-1 1s-1-.448-1-1v-2c0-.552.448-1 1-1s1 .448 1 1zm4 0c0 .552-.448 1-1 1s-1-.448-1-1v-2c0-.552.448-1 1-1s1 .448 1 1zm4 0c0 .552-.448 1-1 1s-1-.448-1-1v-1.893c.002-.607.446-1.121 1-1.107.537-.012 1.011.463 1 1z"/></svg>