<svg id="Layer_1" viewBox="0 0 24 24" xmlns="http://www.w3.org/2000/svg" data-name="Layer 1"><path d="m22.749 2.642-4-2.308c-.771-.444-1.727-.444-2.498 0l-4.251 2.452-4.251-2.452c-.771-.444-1.727-.444-2.498 0l-3.999 2.307c-.772.445-1.252 1.274-1.252 2.166v4.797c0 .891.479 1.72 1.251 2.166l4.249 2.451v4.973c0 .89.479 1.72 1.251 2.166l4 2.307c.386.223.817.333 1.249.333s.863-.111 1.249-.333l4-2.307c.771-.446 1.251-1.276 1.251-2.166v-4.973l4.249-2.451c.771-.445 1.251-1.275 1.251-2.166v-4.797c0-.892-.479-1.721-1.251-2.166zm-20.749 6.962v-4.797c0-.178.096-.344.251-.433l4-2.307c.076-.044.163-.066.249-.066s.173.022.249.066l4.251 2.451v5.375l-4.5 2.596-4.249-2.451c-.155-.089-.251-.255-.251-.433zm14.249 10.023-4 2.307c-.152.088-.346.088-.498 0l-4-2.307c-.154-.089-.251-.256-.251-.434v-4.973l4.5-2.595 4.5 2.595v4.973c0 .178-.097.345-.251.434zm5.751-10.023c0 .178-.096.344-.251.433l-4.249 2.451-4.5-2.596v-5.374l4.251-2.451c.152-.089.346-.089.498 0l4.001 2.308c.154.089.25.254.25.433v4.797z"/></svg>