<?xml version="1.0" encoding="UTF-8"?>
<svg xmlns="http://www.w3.org/2000/svg" id="Layer_1" data-name="Layer 1" viewBox="0 0 24 24">
  <path d="M9.5,5H3c-1.654,0-3,1.346-3,3v4c0,1.167,.676,2.169,1.651,2.665l3.699,8.335h2.323c1.988,.063,3.47-2.185,2.634-3.982l-1.675-4.018h.869c3.747,0,4.5,1.531,4.5,4h2V1h-2c0,2.469-.753,4-4.5,4Zm-1.036,14.797c.172,.747-.038,1.065-.792,1.203h-1.022l-2.662-6h2.477l1.999,4.797Zm1.036-6.797H3c-.551,0-1-.449-1-1v-4c0-.551,.449-1,1-1h6.5c1.953,0,3.432-.414,4.5-1.207V14.207c-1.068-.792-2.547-1.207-4.5-1.207Zm14.5-3c0,2.156-.84,4.183-2.364,5.707l-1.393-1.464c2.339-2.339,2.339-6.146,0-8.485l1.393-1.464c1.524,1.524,2.364,3.551,2.364,5.707Zm-5.165-2.835c1.563,1.563,1.563,4.107,0,5.671l-1.414-1.414c.783-.784,.783-2.059,0-2.843l1.414-1.414Z"/>
</svg>
