<svg id="Layer_1" viewBox="0 0 24 24" xmlns="http://www.w3.org/2000/svg" data-name="Layer 1"><path d="m17 10c-3.86 0-7 3.141-7 7s3.14 7 7 7 7-3.141 7-7-3.14-7-7-7zm0 12c-2.757 0-5-2.243-5-5s2.243-5 5-5 5 2.243 5 5-2.243 5-5 5zm3.992-5.882-3.457 3.399c-.308.309-.727.482-1.172.482s-.864-.173-1.179-.488l-1.846-1.789 1.393-1.436 1.63 1.58 3.229-3.175 1.402 1.426zm-9.643 7.882h-11.349v-21c0-1.654 1.346-3 3-3h12c1.654 0 3 1.346 3 3v5.059c-.329-.036-.662-.059-1-.059s-.671.022-1 .059v-5.059c0-.551-.449-1-1-1h-12c-.551 0-1 .449-1 1v19h7.518c.506.756 1.125 1.429 1.831 2zm-3.29-8c-.036.329-.059.662-.059 1s.022.671.059 1h-4.059v-2zm5.887-7.457c.02-.181.055-.357.055-.543 0-2.761-2.239-5-5-5s-5 2.239-5 5c0 2.744 2.212 4.967 4.949 4.995 1.026-2.058 2.813-3.663 4.996-4.452zm-4.945-3.543c.828 0 1.5.672 1.5 1.5s-.672 1.5-1.5 1.5-1.5-.672-1.5-1.5.672-1.5 1.5-1.5zm-2.594 4.48c.274-.293.661-.48 1.094-.48h3c.433 0 .82.186 1.094.479-.518.903-1.48 1.521-2.594 1.521s-2.076-.617-2.594-1.52z"/></svg>