<svg id="Layer_1" viewBox="0 0 24 24" xmlns="http://www.w3.org/2000/svg" data-name="Layer 1"><path d="m21.743 11-.639-7.35c-.104-1.198-.916-2.217-2.065-2.595-1.463-.481-3.872-1.055-7.038-1.055s-5.577.573-7.039 1.055c-1.151.379-1.962 1.397-2.065 2.595l-.637 7.35h-2.26v2c0 1.105.895 2 2 2v9h5v-2h10v2h5v-4l-.002-5h.003c1.105 0 2-.895 2-2v-2h-2.257zm-16.156-8.045c1.323-.436 3.51-.955 6.413-.955s5.089.52 6.413.955c.39.128.663.469.698.868l.801 9.177h-15.821l.798-9.178c.034-.398.309-.739.698-.867zm-1.588 17.045-.003-5h2.003v1c0 .553.447 1 1 1s1-.447 1-1v-1h8v1c0 .553.447 1 1 1s1-.447 1-1v-1h2v5z"/></svg>