<?xml version="1.0" encoding="UTF-8"?>
<svg xmlns="http://www.w3.org/2000/svg" id="Layer_1" data-name="Layer 1" viewBox="0 0 24 24">
  <path d="M24,11.487c0-1.028-1.181-2.867-2-3.487-.231-2.769-2.85-4.857-3-5-.262-1.356-.535-2.012-.91-2.012-.029,0-.06,.004-.09,.012-.664,.175-1,1.5-1,3-.011,1.06-.451,1-1,1-.927,0-2-1.5-2-1.5l.147-.44c.193-.578-.135-1.2-.721-1.367l-2.426-.693-2,2c-1.084,0-2.136,.382-2.965,1.08-.91,.643-1.508,1.719-2.005,2.69-1.484,.502-2.957,1.188-4.03,2.292v1.652s.246,1.401,.462,1.927c.523,1.102,1.538,2.357,1.538,3.857,0,1,.7,1.502,1.419,1.502,.433,0,.873-.182,1.17-.548,.035,0,.068,0,.102,0,2.809,0,2.845-1.953,5.809-1.953,2.253,0,3,1,3,1,.008,.006,.969-.776,1.346-.474,.333,.308,.154,1.474,.154,1.474,0,0,1.5,1,2.5,1.5,.48-.008,3.5-.5,3.5-.5,1.01-2.494,3-4,3-7.013Zm-4.359,5.204c-.671,.105-1.315,.2-1.735,.257-.284-.161-.59-.345-.872-.521-.062-.686-.288-1.371-.831-1.872-.421-.388-.978-.602-1.568-.602-.351,0-.696,.077-1.019,.196-.725-.355-1.741-.65-3.115-.65-2.109,0-3.262,.771-4.104,1.333-.739,.613-1.556,.673-2.501,.607-.228-1.165-.784-2.141-1.216-2.899-.464-.728-.696-1.568-.68-2.579,.653-.489,1.522-.909,2.671-1.298l.739-.25c.55-.923,.997-2.173,1.914-2.806,.661-.615,1.649-.645,2.504-.609l1.754-1.754,.36,.103-.162,.485,.593,.829c.501,.738,2.032,2.464,3.816,2.338,1.195,0,2.078-.546,2.511-1.491,.774,.896,1.238,1.826,1.307,2.656l.074,.889,.712,.539c.414,.313,1.148,1.493,1.207,1.893,0,1.371-.581,2.291-1.386,3.564-.315,.498-.657,1.039-.974,1.641Zm1.359,3.309s.023,.679,0,.963c-.071,.68-.282,2.037-1.154,2.037-1.346,0-1.692-1.654-1.846-2.5l3-.5Z"/>
</svg>
