<svg id="Layer_1" viewBox="0 0 24 24" xmlns="http://www.w3.org/2000/svg" data-name="Layer 1"><path d="m10.642 12.854c-1.043.963-1.642 2.488-1.642 4.184v6.962h-2v-6.962c0-2.251.833-4.312 2.284-5.653.578-.534.823-1.294.672-2.085-.167-.882-.906-1.607-1.795-1.763-.984-.169-1.926.29-2.393 1.179l-.439.836-.86-.391c-.428-.195-.875-.211-1.328-.051-1.112.367-1.507 1.881-.745 2.741 1.034 1.244 1.603 2.823 1.603 4.445v7.704h-1.999v-7.704c0-1.156-.405-2.281-1.142-3.167-.743-.896-1.021-2.072-.763-3.229.273-1.224 1.183-2.249 2.375-2.674.663-.236 1.342-.288 1.998-.155.961-1.182 2.496-1.773 4.039-1.504 1.719.301 3.091 1.651 3.415 3.359.278 1.462-.2 2.931-1.28 3.928zm9.858-12.854c-1.042 0-1.944.159-3.017.532-2.045.713-4.206.713-6.253 0-.985-.343-2.132-.532-3.23-.532-1.719 0-4.814 1.12-5.396 5.128.365-.075.733-.124 1.101-.127.369-.315.774-.581 1.201-.8.857-2.073 2.805-2.195 3.096-2.2.879 0 1.791.149 2.57.421 2.477.863 5.095.863 7.569 0 .858-.299 1.542-.421 2.358-.421.953 0 1.5.547 1.5 1.5v15c0 1.962-1.537 3.5-3.5 3.5v-.016c-.716-.116-1.375-.48-1.856-1.037l-5.17-5.9c-.296.555-.474 1.242-.474 1.989v.53l4.127 4.684c.867 1.001 2.074 1.621 3.373 1.748 3.032 0 5.5-2.467 5.5-5.5v-14.999c0-2.061-1.439-3.5-3.5-3.5z"/></svg>