<svg id="Layer_1" viewBox="0 0 24 24" xmlns="http://www.w3.org/2000/svg" data-name="Layer 1"><path d="m8 9c-.321 0-1 .946-1 2h-2c0-1.892 1.232-4 3-4s3 2.108 3 4h-2c0-1.054-.679-2-1-2zm9 2h2c0-1.892-1.232-4-3-4s-3 2.108-3 4h2c0-1.054.68-2 1-2s1 .946 1 2zm-5-9c3.962 0 7.319 2.564 8.521 6.12l1.508-1.616c-1.723-3.828-5.566-6.505-10.029-6.505-4.333.001-8.078 2.526-9.87 6.176l1.481 1.586c1.302-3.368 4.562-5.76 8.389-5.76zm0 18c-.437 0-.864-.042-1.285-.102.172.524.285 1.062.285 1.602 0 .153-.03.298-.045.447.344.033.692.053 1.045.053 3.078 0 5.862-1.275 7.86-3.32-.646-.254-1.203-.664-1.659-1.168-1.615 1.538-3.795 2.488-6.201 2.488zm-7-6c0-1.987-2.5-4.5-2.5-4.5s-2.5 2.462-2.5 4.5c0 1.381 1.119 2.5 2.5 2.5s2.5-1.119 2.5-2.5zm-1 7.5c0 1.381 1.119 2.5 2.5 2.5s2.5-1.119 2.5-2.5c0-1.987-2.5-4.5-2.5-4.5s-2.5 2.462-2.5 4.5zm17.5-11.5s-2.5 2.462-2.5 4.5c0 1.381 1.119 2.5 2.5 2.5s2.5-1.119 2.5-2.5c0-1.987-2.5-4.5-2.5-4.5zm-9.5 3c-2.209 0-4 1.791-4 4h8c0-2.209-1.791-4-4-4z"/></svg>