<svg id="Layer_1" viewBox="0 0 24 24" xmlns="http://www.w3.org/2000/svg" data-name="Layer 1"><path d="m17.959 9.677c1.231.301 2.705.655 4.041.95v-3.193l-1.805-1.083c-.497-.713-.887-1.382-1.265-2.029-1.352-2.319-2.519-4.321-6.931-4.321s-5.578 2.001-6.93 4.32c-.378.647-.768 1.316-1.265 2.029l-1.805 1.083v3.202c1.232-.357 3.064-.896 4.026-1.123.087 1.028.433 1.982.974 2.797v3.69h-3.999v2h4.333l1.667 4h-4v-2h-2v4h18v-4h-2v2h-4l1.667-4h4.333v-2h-4v-3.69c.512-.772.85-1.668.959-2.633zm-6.959 5.233v1.997c-.8-.131-1.526-.375-2-.563v-2.155c.608.353 1.282.6 2 .721zm2 0c.718-.121 1.392-.369 2-.721v2.155c-.474.188-1.2.432-2 .563zm-6.203-9.582c1.292-2.216 1.941-3.328 5.203-3.328s3.911 1.112 5.203 3.328c.41.704.875 1.501 1.483 2.353l.099.138c-2.117-.513-3.581-.818-6.785-.818s-4.423.063-6.641.617c.586-.828 1.038-1.603 1.438-2.289zm5.203 3.672c1.734 0 2.898.095 3.973.269-.141 2.079-1.859 3.731-3.973 3.731-2.157 0-3.909-1.719-3.986-3.858 1.047-.124 2.167-.142 3.986-.142zm-.833 13-1.377-3.305c.673.171 1.435.305 2.21.305s1.537-.133 2.21-.305l-1.377 3.305h-1.667zm.833-17.5c0-.828.672-1.5 1.5-1.5s1.5.672 1.5 1.5-.672 1.5-1.5 1.5-1.5-.672-1.5-1.5z"/></svg>