<?xml version="1.0" encoding="UTF-8"?>
<svg xmlns="http://www.w3.org/2000/svg" id="Layer_1" data-name="Layer 1" viewBox="0 0 24 24">
  <path d="M7.695,20.916c.306,.677,.65,1.296,1.026,1.852-.809,.785-1.728,1.232-2.721,1.232-3.42,0-6-5.159-6-12S2.58,0,6,0c.993,0,1.912,.446,2.721,1.232-.376,.557-.72,1.175-1.026,1.852-.543-.693-1.129-1.084-1.695-1.084-1.888,0-4,4.276-4,10s2.112,10,4,10c.566,0,1.152-.391,1.695-1.084Zm6.305,1.084c-1.888,0-4-4.276-4-10S12.112,2,14,2c.783,0,1.601,.743,2.294,2.01,.975,.368,1.901,.83,2.767,1.383-1.047-3.292-2.881-5.393-5.062-5.393-2.101,0-3.882,1.951-4.945,5.039h-3.63c-.264,.503-.531,1.174-.768,2h3.847c-.199,.924-.34,1.917-.42,2.961h-3.977c-.062,.628-.106,1.285-.106,2h4c0,1.807,.184,3.492,.512,5h-3.845c.24,.828,.511,1.501,.776,2h3.625c1.065,3.064,2.839,5,4.931,5,1.589,0,2.991-1.123,4.043-3h-2.418c-.524,.638-1.083,1-1.625,1Zm10-4v1H13.444c-.265-.499-.536-1.172-.776-2h9.288c-.167-1.836-.794-3.538-1.757-5H12c0-.715,.044-1.372,.106-2,.106-1.078,.299-2.03,.52-2.834-.002,0-.004,0-.007-.001,.121-.398,.248-.784,.379-1.165h.004c.104-.272,.209-.529,.315-.748,6.062,1.082,10.682,6.38,10.682,12.748Zm-5.495-8c-1.262-1.175-2.799-2.052-4.505-2.532v2.532h4.505Z"/>
</svg>
