<svg id="Layer_1" viewBox="0 0 24 24" xmlns="http://www.w3.org/2000/svg" data-name="Layer 1"><path d="m10.992 17 .508 7h-1.604l-.319-4.402-1.577 3.469-1.577-3.468-.319 4.402h-1.604l.508-7c.043-.705.472-1 .988-1 .342 0 .66.242.841.64l1.164 2.56 1.164-2.56c.181-.398.499-.64.841-.64.516 0 .945.295.988 1zm5.967.627 1.296 6.373h-1.579l-.285-1.4h-2.302l-.299 1.4h-1.533l1.321-6.418c.163-.855.826-1.578 1.686-1.581.881.01 1.511.697 1.697 1.627zm-.895 3.373-.621-3.044c-.045-.231-.14-.334-.162-.349l-.016-.006c-.069.042-.142.146-.171.296l-.664 3.104h1.634zm6.868-.457c.024-.014.036-.023.055-.035-.018.012-.018.012-.042.029l1.054 3.462h-1.744l-.872-3h-.784v3h-1.6v-8h2.5c1.381 0 2.5 1.119 2.5 2.5 0 .846-.423 1.592-1.067 2.044zm-.533-2.044c0-.496-.404-.9-.9-.9h-.9v1.8h.9c.496 0 .9-.404.9-.9zm1.6-13.5v9.975c-.572-.456-1.252-.779-2-.909v-4.065h-19.999v12h.704l-.148 2h-2.556v-19c0-1.654 1.346-3 3-3h3v-2h2v2h8v-2h2v2h3c1.654 0 3 1.346 3 3zm-2 3v-3c0-.551-.448-1-1-1h-17.999c-.552 0-1 .449-1 1v3h20z"/></svg>