<svg id="Layer_1" viewBox="0 0 24 24" xmlns="http://www.w3.org/2000/svg" data-name="Layer 1"><path d="m21 0h-18c-1.654 0-3 1.346-3 3v21h24v-21c0-1.654-1.346-3-3-3zm1 3v3h-14v-4h13c.551 0 1 .449 1 1zm-14.537 8.313 1.387-1.441 1.244 1.145 2.307-2.395 1.398 1.43-2.299 2.388-.004.004c-.744.744-2.058.746-2.823-.019l-1.209-1.112zm-4.463-9.313h3v4h-4v-3c0-.551.449-1 1-1zm-1 6h4v14h-4zm18.5 12.44-.004.004c-.744.744-2.058.746-2.823-.019l-1.209-1.112 1.387-1.441 1.244 1.145 2.307-2.395 1.398 1.43-2.299 2.388zm-5.5-5.44v7h-7v-7h7v-7h7v7z"/></svg>