<?xml version="1.0" encoding="UTF-8"?>
<svg xmlns="http://www.w3.org/2000/svg" id="Layer_1" data-name="Layer 1" viewBox="0 0 24 24">
  <path d="M16.4,14v-2h-1.601c-.993,0-1.8-.807-1.8-1.8V6h1.6v4.2c0,.11,.09,.2,.2,.2h1.601V6h1.6V14h-1.6Zm5.1-2.9h.9v.4c0,.496-.404,.9-.9,.9s-.9-.404-.9-.9v-3c0-.496,.404-.9,.9-.9s.9,.404,.9,.9h1.6c0-1.381-1.119-2.5-2.5-2.5s-2.5,1.119-2.5,2.5v3c0,1.381,1.119,2.5,2.5,2.5s2.5-1.119,2.5-2.5v-2h-2.5v1.6Zm-15.5,4.9h14v5c0,1.654-1.346,3-3,3H7c-1.654,0-3-1.346-3-3V0H20V3.992h-2v-1.992H6v14Zm0,2v3c0,.552,.449,1,1,1h10c.551,0,1-.448,1-1v-3H6Zm8,1h-4v2h4v-2Z"/>
</svg>
