<svg id="Layer_1" viewBox="0 0 24 24" xmlns="http://www.w3.org/2000/svg" data-name="Layer 1"><path d="m14.5 0c-2.813 0-4.732 1.248-6.426 2.35-1.362.886-2.538 1.65-3.968 1.65-.609 0-1.105-.496-1.105-1.105v-2.895h-2.001v2.895c0 1.712 1.393 3.105 3.105 3.105 1.9 0 2.895 1.761 2.895 3.5v4c0 1.596-.502 3.499-2.896 3.5-1.67-.033-3.14 1.438-3.104 3.108l.005 3.893 2-.002-.005-3.893c-.013-.595.512-1.118 1.106-1.106 1.249 0 2.14.804 3.268 1.822 1.568 1.416 3.521 3.178 7.125 3.178 2.25 0 4.363-.793 5.949-2.233 1.646-1.495 2.552-3.543 2.551-5.767v-8c0-4.486-3.734-8-8.5-8zm-5.336 4.026c1.603-1.042 3.116-2.026 5.336-2.026 3.645 0 6.5 2.636 6.5 6v4.937c-.678.386-2.048 1.063-3.346 1.063-.93 0-1.697-.224-2.509-.46-.911-.266-1.853-.54-3.068-.54-1.162 0-2.255.259-3.079.526.006-.034 0-3.993.002-4.026 0-1.79-.7-3.309-1.808-4.3.688-.345 1.336-.76 1.972-1.174zm9.94 16.26c-1.217 1.105-2.852 1.714-4.604 1.714-2.835 0-4.335-1.354-5.785-2.662-.508-.459-1.026-.92-1.59-1.313.692-.543 1.22-1.288 1.532-2.228.495-.223 1.908-.796 3.42-.796.93 0 1.697.224 2.508.46.911.266 1.853.54 3.068.54 1.223 0 2.432-.407 3.346-.82v.82c0 1.652-.673 3.175-1.896 4.286zm-5.104-12.286h-2.375l2.845-2.78c.293-.293.768-.293 1.061 0l2.845 2.78h-2.375v3h-2v-3z"/></svg>