<svg id="Layer_1" viewBox="0 0 24 24" xmlns="http://www.w3.org/2000/svg" data-name="Layer 1"><path d="m4 18v-4h2v4zm6 0v-7h-2v7zm11.167 1.753 2.792 2.792-1.414 1.414-2.792-2.792c-.791.524-1.736.833-2.753.833-2.757 0-5-2.243-5-5s2.243-5 5-5 5 2.243 5 5c0 1.017-.309 1.962-.833 2.753zm-1.167-2.753c0-1.654-1.346-3-3-3s-3 1.346-3 3 1.346 3 3 3 3-1.346 3-3zm-15.5-14c-.828 0-1.5.672-1.5 1.5s.672 1.5 1.5 1.5 1.5-.672 1.5-1.5-.672-1.5-1.5-1.5zm4 0c-.828 0-1.5.672-1.5 1.5s.672 1.5 1.5 1.5 1.5-.672 1.5-1.5-.672-1.5-1.5-1.5zm15.5 0v14c0-1.906-.764-3.632-2-4.894v-3.106h-20v11h8.683c.356.749.837 1.426 1.423 2h-12.106v-19c0-1.654 1.346-3 3-3h18c1.654 0 3 1.346 3 3zm-2 4v-4c0-.551-.448-1-1-1h-18c-.551 0-1 .449-1 1v4z"/></svg>