<?xml version="1.0" encoding="UTF-8"?>
<svg xmlns="http://www.w3.org/2000/svg" id="Layer_1" data-name="Layer 1" viewBox="0 0 24 24">
  <path d="M11.033,4h-2V0h2V4Zm4,0h-2V0h2V4Zm-8,0h-2V0h2V4ZM.008,22H20.008v2H.008v-2Zm-.008-8c3.563,.057,4.953,2.466,5.495,4.213,.515-1.417,1.705-3.169,4.477-3.213,.229,4.089-2.72,4.844-4.133,4.973,.05,.024-.756,.032-.733,.006-1.626-.116-5.39-.923-5.106-5.979Zm20.008-5h-2.008v-3H2v6.26c.721,.18,1.391,.451,2,.815v-5.075h12v8c0,1.103-.897,2-2,2h-2.453c-.288,.795-.702,1.46-1.216,2h3.669c2.206,0,4-1.794,4-4h2.008c2.168,0,4-1.767,4-3.857,0-1.938-1.533-3.143-4-3.143Zm0,5h-2.008v-3h2.008c1.327,0,2,.385,2,1.143,0,.989-.935,1.857-2,1.857Z"/>
</svg>
