<?xml version="1.0" encoding="UTF-8"?>
<svg xmlns="http://www.w3.org/2000/svg" id="Layer_1" data-name="Layer 1" viewBox="0 0 24 24">
  <path d="m16,14.001c0,.999-1.6,2.999-3.995,2.999s-4.005-2-4.005-2.999c0-.002,8,0,8,0Zm8-3.048c0,6.462-6.056,13.047-12,13.047S0,17.415,0,10.953C0,4.606,5.047,0,12,0s12,4.606,12,10.952Zm-2.392,2.601l-3.107-1.554,3.466-1.733c-.205-2.927-1.711-5.304-4.094-6.745l-2.836,2.478v-3.641c-.944-.233-1.96-.359-3.036-.359s-2.092.126-3.036.359v3.641l-2.836-2.478c-2.383,1.441-3.889,3.819-4.094,6.745l3.467,1.733-3.108,1.554c.697,2.434,2.278,4.729,4.244,6.31l2.364-2.364v3.814c.981.432,1.995.686,3,.686s2.019-.254,3-.686v-3.813l2.364,2.364c1.965-1.582,3.547-3.876,4.243-6.31Zm-10.607-3.554c0-1.105-1.119-2-2.5-2s-2.5.895-2.5,2,1.119,2,2.5,2,2.5-.895,2.5-2Zm4.5-2c-1.381,0-2.5.895-2.5,2s1.119,2,2.5,2,2.5-.895,2.5-2-1.119-2-2.5-2Z"/>
</svg>
