<svg id="Layer_1" viewBox="0 0 24 24" xmlns="http://www.w3.org/2000/svg" data-name="Layer 1"><path d="m5.178 18.179c1.525.943 2.988 1.667 5.969 1.798.063.317.154.623.257.924-.172.332-.292.69-.351 1.073-3.901-.176-5.675-1.296-7.541-2.48-.234-.148-.481-.3-.727-.451-.445.101-.785.481-.785.957v4h-2v-4c0-1.581 1.234-2.867 2.787-2.978.307-.085 3.213-.95 3.213-3.022v-9h-1c-1.654 0-3-1.346-3-3v-2h2v2c0 .551.449 1 1 1h7c3.86 0 7 3.14 7 7v1.025c-.166-.011-.331-.025-.5-.025-.514 0-1.015.052-1.5.151v-1.151c0-2.757-2.243-5-5-5h-4v6.424c.479.24 1.334.576 2.387.576.815 0 1.341-.201 1.949-.434.233-.089.485-.178.75-.263-1.068.474-1.846 1.465-2.031 2.657-.21.022-.427.04-.667.04-.931 0-1.739-.189-2.387-.415v.415c0 2.147-1.504 3.448-2.822 4.179zm17.18-.679h1.642v2h-1.642c-.094.363-.238.704-.425 1.019l.495.495c.408-.02.821.114 1.133.425.586.586.586 1.536 0 2.121-.586.586-1.536.586-2.121 0-.312-.312-.445-.725-.425-1.133l-.495-.495c-.316.186-.656.33-1.019.425v1.642h-2v-1.642c-.363-.094-.704-.238-1.019-.425l-.495.495c.02.408-.114.821-.425 1.133-.586.586-1.536.586-2.121 0-.586-.586-.586-1.536 0-2.121.312-.312.725-.445 1.133-.425l.495-.495c-.186-.316-.33-.656-.425-1.019h-1.642v-2h1.642c.094-.363.238-.704.425-1.019l-.495-.495c-.408.02-.821-.114-1.133-.425-.586-.586-.586-1.536 0-2.121s1.536-.586 2.121 0c.312.312.445.725.425 1.133l.495.495c.316-.186.656-.33 1.019-.425v-1.642h2v1.642c.363.094.704.238 1.019.425l.495-.495c-.02-.408.114-.821.425-1.133.586-.586 1.536-.586 2.121 0s.586 1.536 0 2.121c-.312.312-.725.445-1.133.425l-.495.495c.186.316.33.656.425 1.019zm-1.858 1c0-1.103-.897-2-2-2s-2 .897-2 2 .897 2 2 2 2-.897 2-2z"/></svg>