<svg id="Layer_1" viewBox="0 0 24 24" xmlns="http://www.w3.org/2000/svg" data-name="Layer 1"><path d="m13 2.051v-2.051h-2v2.051c-5.598.507-10 5.221-10 10.949 0 2.88 1.121 5.496 2.938 7.459l-1.928 2.118 1.479 1.346 1.935-2.126c1.837 1.377 4.109 2.203 6.576 2.203s4.739-.826 6.576-2.203l1.935 2.126 1.479-1.346-1.928-2.118c1.817-1.963 2.938-4.579 2.938-7.459 0-5.728-4.402-10.442-10-10.949zm-10 10.949c0-4.962 4.038-9 9-9s9 4.038 9 9-4.038 9-9 9-9-4.038-9-9zm-1.32-7.88-1.663-1.109c1.202-1.592 2.709-2.943 4.439-3.955l1.067 1.689c-1.493.863-2.798 2.014-3.843 3.375zm16.797-3.375 1.067-1.689c1.73 1.012 3.238 2.363 4.439 3.955l-1.663 1.109c-1.045-1.361-2.35-2.513-3.843-3.375zm-.979 9.652c.03 1.042-.432 2.242-1.498 3.419v4.183h-2v-10.999c0-1 .75-1.186 1.218-.841.816.585 2.176 2.101 2.28 4.238zm-8.498-4.397c-1.656 0-3 2.723-3 4.5 0 1.38.802 2.448 2 2.834v4.666h2v-4.666c1.198-.386 2-1.454 2-2.834 0-1.777-1.344-4.5-3-4.5zm0 5.5c-.626 0-1-.374-1-1 0-.945.615-2.091 1-2.436.385.344 1 1.491 1 2.436 0 .626-.374 1-1 1z"/></svg>