<svg id="Layer_1" viewBox="0 0 24 24" xmlns="http://www.w3.org/2000/svg" data-name="Layer 1"><path d="m14 16h-12v-14h9.079c.437-.754.992-1.428 1.642-2h-12.721v21c0 1.654 1.346 3 3 3h10c1.654 0 3-1.346 3-3v-7.262c-.71-.183-1.381-.458-2-.817zm0 5c0 .552-.448 1-1 1h-10c-.551 0-1-.448-1-1v-3h12zm4-21c-3.309 0-6 2.691-6 6s2.691 6 6 6 6-2.691 6-6-2.691-6-6-6zm0 10c-2.206 0-4-1.794-4-4s1.794-4 4-4 4 1.794 4 4-1.794 4-4 4zm1.687-6.339 1.4 1.428-2.511 2.464c-.298.298-.691.447-1.087.447s-.795-.151-1.098-.454l-1.521-1.474 1.393-1.436 1.222 1.185 2.201-2.16zm-9.687 17.339h-4v-2h4zm-4-7 1.359-3h-1.709l-1.546-1.833c-.297-.52.078-1.167.677-1.167.207 0 .405.082.551.228l.924.772h1.12l-1.376-3h1.096c.407 0 .781.222.975.579l1.929 2.421h.75c.802 0 1.25.448 1.25 1v1h-2l-1.911 2.421c-.195.357-.569.579-.975.579h-1.113z"/></svg>