<svg id="Layer_1" viewBox="0 0 24 24" xmlns="http://www.w3.org/2000/svg" data-name="Layer 1"><path d="m11.596 13.96c1.666 0 3.461-.809 4.446-1.795.904-.904 1.167-1.911.828-3.006l5.068-5.93-3.232-3.229-6.066 5.028c-1.042-.275-2.003-.001-2.869.866-1.571 1.57-2.693 5.195-.808 7.079.701.702 1.644.987 2.633.987zm6.985-11.246.622.623-3.407 3.987c-.173-.205-.352-.411-.562-.622-.237-.237-.47-.444-.701-.634zm-7.389 4.601c.186-.186.394-.394.734-.394.394 0 .965.281 1.888 1.203 1.715 1.715 1.213 2.217.808 2.621-1.044 1.043-3.411 1.635-4.238.808s-.233-3.196.808-4.238zm9.57 8.944 2.695 3.367-1.568 1.256-2.643-3.301c-.632.474-1.331.907-2.106 1.272l1.335 3.906-1.901.649-1.321-3.866c-.702.192-1.449.327-2.249.389v4.071h-2.009v-4.071c-.799-.062-1.547-.197-2.249-.389l-1.321 3.866-1.901-.649 1.335-3.905c-.775-.365-1.474-.798-2.106-1.272l-2.643 3.301-1.568-1.256 2.695-3.366c-1.705-1.728-2.698-3.593-3.112-4.498l1.827-.836c.756 1.653 3.716 7.046 10.049 7.046s9.292-5.393 10.049-7.045l1.827.836c-.414.905-1.407 2.77-3.113 4.495z"/></svg>