<?xml version="1.0" encoding="UTF-8"?>
<svg xmlns="http://www.w3.org/2000/svg" id="Layer_1" data-name="Layer 1" viewBox="0 0 24 24">
  <path d="m3,19.5c0,.828-.672,1.5-1.5,1.5s-1.5-.672-1.5-1.5.672-1.5,1.5-1.5,1.5.672,1.5,1.5Zm3.5,1.5c-.828,0-1.5.672-1.5,1.5s.672,1.5,1.5,1.5,1.5-.672,1.5-1.5-.672-1.5-1.5-1.5Zm11,0c-.828,0-1.5.672-1.5,1.5s.672,1.5,1.5,1.5,1.5-.672,1.5-1.5-.672-1.5-1.5-1.5Zm-5.5-3c-.828,0-1.5.672-1.5,1.5s.672,1.5,1.5,1.5,1.5-.672,1.5-1.5-.672-1.5-1.5-1.5Zm10.5,0c-.828,0-1.5.672-1.5,1.5s.672,1.5,1.5,1.5,1.5-.672,1.5-1.5-.672-1.5-1.5-1.5Zm-14.5-10c0-2.206,1.794-4,4-4s4,1.794,4,4-1.794,4-4,4-4-1.794-4-4Zm2,0c0,1.103.897,2,2,2s2-.897,2-2-.897-2-2-2-2,.897-2,2Zm9.73-2.545c-.351-.648-.658-1.209-.801-1.456-1.427-2.467-4.083-3.999-6.929-3.999s-5.502,1.532-6.929,3.999c-.143.247-.45.809-.801,1.456-.851,1.57-2.487,2.545-4.27,2.545v2c2.518,0,4.828-1.376,6.029-3.593.338-.625.635-1.167.773-1.406,1.071-1.851,3.062-3.001,5.198-3.001s4.127,1.15,5.198,3.001c.138.238.435.78.773,1.406,1.201,2.216,3.511,3.592,6.029,3.592v-2c-1.783,0-3.419-.975-4.27-2.545Zm-.502,8.134c-.707.537-1.749.537-2.455,0-1.027-.781-2.519-.781-3.545,0-.707.537-1.749.537-2.455,0-1.027-.781-2.519-.781-3.545,0-.707.537-1.749.537-2.455,0-1.027-.781-2.519-.781-3.545,0-.354.269-.778.411-1.228.411v2c.891,0,1.734-.283,2.439-.819.314-.24.807-.24,1.123,0,1.408,1.072,3.468,1.072,4.877,0,.314-.24.807-.24,1.123,0,1.408,1.072,3.468,1.072,4.877,0,.314-.24.807-.24,1.123,0,1.408,1.072,3.468,1.072,4.877,0,.314-.24.807-.24,1.123,0,.704.536,1.547.819,2.438.819v-2c-.45,0-.874-.143-1.227-.411-1.027-.781-2.519-.781-3.545,0Z"/>
</svg>
