<svg id="Layer_1" viewBox="0 0 24 24" xmlns="http://www.w3.org/2000/svg" data-name="Layer 1"><path d="m12.407 24h-.832l-2.284-1h-3.286l-.717-2.535.689-1.985-1.506-.357-1.98-3.498.813-1.18-.324-.798.406-4.027 1.415-.331.847-5.289h2.433l.628-.639.323-2.361h1.172l1.596 1h2.201v.966l2.715-.709 3.285 2.779v2.129l1.532 2.036-.83 1.878.793 1.921h-1.995l-1.5 2h-1.859l.933 1.695 2.86 2.212-1.934 2.44v2.652h-2.372l-1.756.459-.865-.138c-.116.175-.6.679-.6.679zm-4.89-3h2.192l1.868.818c.014-.024.378-.69.378-.69l1.816.29 1.728-.418h.5v-1.348l1.11-1.4-1.588-1.228-1.522-2.767v-2.257h3l2.228-3.534-1.228-1.631v-1.871l-1.784-1.509-2.216.545h-2v-1h-.799l-.515-.338-.086.628-1.681 1.71h-1.567l-.789 4.93-1.331.312-.213 2.112.543 1.337-.728 1.057c.26.473.638 1.157.907 1.62l2.851.676-1.209 3.482.134.474z"/></svg>