<svg id="Layer_1" viewBox="0 0 24 24" xmlns="http://www.w3.org/2000/svg" data-name="Layer 1"><path d="m16.233 4.086-4.48 4.481 1.702 1.702c-.349.75-.775 1.37-1.294 1.882-.511.504-1.136.931-1.899 1.296l-1.695-1.695-4.48 4.481 2.104 2.104c.748.75 1.758 1.163 2.845 1.163 2.249 0 4.796-1.269 6.988-3.482 2.177-2.197 3.477-4.808 3.477-6.983 0-1.084-.412-2.094-1.161-2.844l-2.105-2.105zm-1.63 10.524c-1.793 1.81-3.875 2.89-5.568 2.89-.552 0-1.059-.204-1.43-.576l-.691-.691 1.652-1.653 1.23 1.231c1.424-.523 2.84-1.282 3.77-2.237.998-.949 1.74-2.348 2.235-3.787l-1.221-1.221 1.652-1.653.69.69c.372.372.576.88.576 1.43 0 1.636-1.11 3.772-2.896 5.576zm6.397-14.61h-18c-1.654 0-3 1.346-3 3v21h24v-21c0-1.654-1.346-3-3-3zm1 22h-20v-19c0-.551.448-1 1-1h18c.552 0 1 .449 1 1z"/></svg>