<svg id="Layer_1" viewBox="0 0 24 24" xmlns="http://www.w3.org/2000/svg" data-name="Layer 1"><path d="m11.606 13c.807.116 1.383.58 1.415.607l.479.402-.805.957-.476-.399c-.025-.021-.633-.495-1.29-.299-.293.088-.351.282-.362.361-.008.059-.013.206.13.302.016 0 .614.263 1.272.506 1.223.451 1.529 1.336 1.408 2.014-.158.888-.998 1.533-2.002 1.549-.834.011-1.634-.321-2.168-.911v-.003l-.42-.462.926-.84.42.463c.286.315.736.504 1.204.504.448 0 .764-.265.81-.521.062-.345-.451-.562-.61-.621-.752-.277-1.43-.58-1.43-.58-.6-.382-.864-.969-.777-1.579.094-.649.568-1.178 1.239-1.38.248-.096.776-.067 1.037-.07zm-5.367 0 .006 6h1.255c-.001-1.325-.004-4.281-.006-6zm8.261 4.033-.008-2.066c0-1.086.881-1.967 1.967-1.967 1.109 0 2.012.891 2.012 1.985v.015l.008 2v.015c0 1.094-.902 1.985-2.012 1.985-1.086 0-1.967-.881-1.967-1.967zm1.247-2.045c0 .095.008 1.886.008 2.024 0 .403.322.729.724.736.408-.007.75-.338.75-.733l-.008-2.015v-.015c0-.394-.342-.726-.75-.733-.402.007-.725.333-.724.736zm6.253-7.402v16.414h-20v-21c0-1.654 1.346-3 3-3h9.414zm-7-.586h3.586l-3.586-3.586zm5 2h-7v-7h-8c-.551 0-1 .449-1 1v19h16z"/></svg>