<svg id="Layer_1" viewBox="0 0 24 24" xmlns="http://www.w3.org/2000/svg" data-name="Layer 1"><path d="m24 4.5c0-2.481-2.019-4.5-4.5-4.5h-15c-2.481 0-4.5 2.019-4.5 4.5 0 2.31 1.756 4.197 4 4.449v13.051h-2v2h20v-2h-2v-13.051c2.244-.252 4-2.139 4-4.449zm-6 17.5h-3v-11h-2v11h-2v-11h-2v11h-3v-13h12zm1.5-15c-1.378 0-2.5-1.122-2.5-2.5 0-.171.018-.338.051-.5h-2c-.019.166-.051.329-.051.5 0 .925.282 1.784.762 2.5h-7.524c.48-.716.762-1.575.762-2.5 0-.171-.032-.334-.051-.5h-2c.033.162.051.329.051.5 0 1.378-1.122 2.5-2.5 2.5s-2.5-1.122-2.5-2.5 1.122-2.5 2.5-2.5h15c1.378 0 2.5 1.122 2.5 2.5s-1.122 2.5-2.5 2.5z"/></svg>