<?xml version="1.0" encoding="UTF-8"?>
<svg xmlns="http://www.w3.org/2000/svg" id="Layer_1" data-name="Layer 1" viewBox="0 0 24 24">
  <path d="M2.5,2.5C2.5,1.119,3.619,0,5,0s2.5,1.119,2.5,2.5-1.119,2.5-2.5,2.5-2.5-1.119-2.5-2.5Zm16.5,2.5c1.381,0,2.5-1.119,2.5-2.5S20.38,0,19,0s-2.5,1.119-2.5,2.5,1.119,2.5,2.5,2.5Zm5,4c0-1.654-1.346-3-3-3h-1s-1.487,0-1.487,0c.277,.612,.44,1.286,.467,2h2.019s0,0,0,0c.552,0,1,.448,1,1v6h-6v-1.289c-.745,.681-1.474,1.214-2,1.566v1.723h2s0,0,0,0v7h2v-7h2v7h2v-7h2V9Zm-11.471,4.849l-.529,.33-.529-.33c-.458-.286-4.471-2.87-4.471-5.648,0-1.765,1.346-3.2,3-3.2,.752,0,1.461,.311,2,.806,.539-.495,1.248-.806,2-.806,1.654,0,3,1.436,3,3.2,0,2.778-4.013,5.362-4.471,5.648Zm2.471-5.648c0-.662-.448-1.2-1-1.2s-1,.547-1,1h-2c0-.453-.446-1-1-1s-1,.538-1,1.2c0,1.062,1.613,2.617,3,3.598,1.387-.98,3-2.536,3-3.598Zm-7,6.8H2v-6c0-.552,.448-1,1-1h0s2.019,0,2.019,0c.027-.714,.19-1.388,.467-2h-1.486s-1,0-1,0c-1.654,0-3,1.346-3,3v8H2v7h2v-7h2v7h2v-7h2v-1.722c-.527-.352-1.255-.885-2-1.566v1.289Z"/>
</svg>
