<svg id="Layer_1" viewBox="0 0 24 24" xmlns="http://www.w3.org/2000/svg" data-name="Layer 1"><path d="m10.101 22c.152.743.482 1.416.924 2h-11.025v-21c0-1.654 1.346-3 3-3h10c1.654 0 3 1.346 3 3v4.35c-.746.265-1.422.672-2 1.19v-5.54c0-.552-.448-1-1-1h-10c-.552 0-1 .448-1 1v19zm13.899-8v7c0 1.654-1.346 3-3 3h-6c-1.654 0-3-1.346-3-3v-7h2v-1c0-2.206 1.794-4 4-4s4 1.794 4 4v1zm-8 0h4v-1c0-1.103-.897-2-2-2s-2 .897-2 2zm6 2h-8v5c0 .552.448 1 1 1h6c.552 0 1-.448 1-1zm-3 2h-2v2h2zm-12-5h-3v2h3zm-3 6h3v-2h-3zm3-14h-3v2h3zm5 0h-3v2h3zm-5 4h-3v2h3zm2 2h3v-2h-3z"/></svg>