<svg id="Layer_1" viewBox="0 0 24 24" xmlns="http://www.w3.org/2000/svg" data-name="Layer 1"><path d="m22.333 22h1.667v2h-24v-2h13.012c-9.796-4.91-10.011-17.173-10.012-17.327v-2.673h-3v-2h5v4.667c.006.701.342 17.333 17.333 17.333zm-1.205-7c-.3 0-.581-.117-.793-.329l-7.008-7.008c-.211-.211-.328-.493-.328-.792v-2.871h-2v2.871c0 .834.325 1.618.915 2.207l7.007 7.007c.589.59 1.373.915 2.208.915h2.871v-2h-2.871zm-9.568-3.439c.586-.586.586-1.536 0-2.121-.586-.586-1.536-.586-2.121 0s-.586 1.536 0 2.121c.586.586 1.536.586 2.121 0zm7 7c.586-.586.586-1.536 0-2.121-.586-.586-1.536-.586-2.121 0s-.586 1.536 0 2.121c.586.586 1.536.586 2.121 0z"/></svg>