<?xml version="1.0" encoding="UTF-8"?>
<svg xmlns="http://www.w3.org/2000/svg" id="Layer_1" data-name="Layer 1" viewBox="0 0 24 24">
  <path d="M20.541,9.867l-5.541-4.354V0h-3.443L0,11.586v12.414H2V12.414L13,1.388V6.486l2.842,2.233-4.11,5.044-2.025-1.764H4v2h4.959l3.444,3H7.007l-3.368,4.392,1.588,1.217,2.767-3.608h5.521c.957,0,1.98-.537,2.76-1.459l3.958-4.85c.05,.124,.097,.25,.13,.381l.638,2.552v4.877h2v-5l-.697-2.913c-.268-1.071-.894-2.037-1.762-2.72Zm-5.867,6.458l-1.432-1.247,4.174-5.123,1.504,1.182s-4.226,5.166-4.246,5.188ZM23.981,5.519c0,1.381-1.119,2.5-2.5,2.5s-2.5-1.119-2.5-2.5,1.119-2.5,2.5-2.5,2.5,1.119,2.5,2.5Z"/>
</svg>
