<svg id="Layer_1" viewBox="0 0 24 24" xmlns="http://www.w3.org/2000/svg" data-name="Layer 1"><path d="m14 14h-1.5v-.4c0-1.67-1.129-3.19-2.765-3.525-2.25-.46-4.235 1.255-4.235 3.425v.5h-1.5v6c0 1.105.895 2 2 2h4.851l3.149-5.398zm-6.5-.5c0-.827.674-1.5 1.5-1.5s1.5.673 1.5 1.5v.5h-3zm4.5 6.5h-6v-4h6zm9-20h-18c-1.654 0-3 1.346-3 3v19h2v-13h20v7.602l2 3.429v-17.031c0-1.654-1.346-3-3-3zm1 7h-20v-4c0-.552.449-1 1-1h18c.551 0 1 .448 1 1zm-12-2.5c0 .828-.672 1.5-1.5 1.5s-1.5-.672-1.5-1.5.672-1.5 1.5-1.5 1.5.672 1.5 1.5zm2 19.5h12l-6-10.286zm7-1h-2v-2h2zm0-3h-2v-3h2zm-13-15.5c0 .828-.672 1.5-1.5 1.5s-1.5-.672-1.5-1.5.672-1.5 1.5-1.5 1.5.672 1.5 1.5zm4 14.5h-2v-2h2z"/></svg>