<svg id="Layer_1" viewBox="0 0 24 24" xmlns="http://www.w3.org/2000/svg" data-name="Layer 1"><path d="m5.691 10.661-.145-.873 2.361 2.361.512 3.851h1.632c-.033-.162-.05-.329-.05-.5v-1.257l3.757 3.757h-7.091zm18.309 1.339c0 6.617-5.383 12-12 12s-12-5.383-12-12 5.383-12 12-12 12 5.383 12 12zm-5.676 7.738-14.062-14.062c-1.412 1.725-2.262 3.927-2.262 6.324 0 5.514 4.486 10 10 10 2.398 0 4.6-.85 6.324-2.262zm-6.047-8.876.108-.863h-.971zm4.709 4.709c.004-.024.014-.046.014-.071v-2c0-.276-.224-.5-.5-.5h-2.086l2.571 2.571zm5.014-3.571c0-5.514-4.486-10-10-10-2.398 0-4.6.85-6.324 2.262l3.738 3.738h.328l.375-3h3.883v2h-2.117l-.125 1h1.575c.746 0 1.3.699 1.139 1.435l-.197 1.565h2.225c1.381 0 2.5 1.119 2.5 2.5v2c0 .585-.22 1.105-.558 1.528l1.296 1.296c1.412-1.725 2.262-3.927 2.262-6.324z"/></svg>