<svg id="Layer_1" viewBox="0 0 24 24" xmlns="http://www.w3.org/2000/svg" data-name="Layer 1"><path d="m21 0h-18c-1.654 0-3 1.346-3 3v17h6.44l4.088 3.44c.42.374.949.56 1.473.56.515 0 1.026-.18 1.427-.536l4.194-3.464h6.378v-17c0-1.654-1.346-3-3-3zm1 18h-5.098l-4.776 3.949c-.077.069-.193.067-.289-.018l-4.667-3.932h-5.17v-14.999c0-.552.449-1 1-1h18c.551 0 1 .448 1 1zm-8.5-8c0 .828-.672 1.5-1.5 1.5s-1.5-.672-1.5-1.5.672-1.5 1.5-1.5 1.5.672 1.5 1.5zm-3.622-2.121c-.566.566-.878 1.319-.878 2.121s.312 1.555.878 2.121l-1.414 1.414c-.944-.944-1.464-2.199-1.464-3.535s.52-2.591 1.464-3.535zm7.122 2.121c0 1.336-.52 2.591-1.464 3.535l-1.414-1.414c.566-.566.878-1.319.878-2.121s-.312-1.555-.878-2.121l1.414-1.414c.944.944 1.464 2.199 1.464 3.535zm-12 0c0 1.87.728 3.628 2.05 4.95l-1.414 1.414c-1.7-1.699-2.636-3.96-2.636-6.364s.936-4.664 2.636-6.364l1.414 1.414c-1.322 1.322-2.05 3.081-2.05 4.95zm13.364-6.364c1.7 1.7 2.636 3.961 2.636 6.364s-.936 4.665-2.636 6.364l-1.414-1.414c1.322-1.322 2.05-3.08 2.05-4.95s-.728-3.628-2.05-4.95z"/></svg>