<svg id="Layer_1" viewBox="0 0 24 24" xmlns="http://www.w3.org/2000/svg" data-name="Layer 1"><path d="m17 10c-3.86 0-7 3.141-7 7s3.14 7 7 7 7-3.141 7-7-3.14-7-7-7zm0 12c-2.757 0-5-2.243-5-5s2.243-5 5-5 5 2.243 5 5-2.243 5-5 5zm3.431-5h-2.431v3h-2v-3h-2.454l2.687-2.687c.417-.417 1.093-.417 1.51 0zm-12.431 3c-.551 0-1-.448-1-1s.449-1 1-1h.059c-.036-.329-.059-.662-.059-1 0-.324.022-.642.056-.956.188-1.768.884-3.383 1.944-4.695v-.349c0-2.757-2.243-5-5-5h-.368c.323-.407.821-.736 1.558-1h8.626c.691.249 1.203.573 1.554 1h-.369c-2.495 0-4.551 1.843-4.923 4.235 1.583-1.388 3.652-2.235 5.923-2.235h1.984c0-1.196-.295-2.199-.869-3.012 1.6-.062 2.885-1.373 2.885-2.988v-2h-2v2c0 .552-.449 1-1 1h-15.001c-.551 0-1-.448-1-1v-2h-2v2c0 1.617 1.289 2.931 2.892 2.989-.935 1.376-.887 2.923-.892 4.194l3.271 8.586c-.17.376-.271.791-.271 1.23 0 1.654 1.346 3 3 3h1.518c-.412-.616-.743-1.289-.995-2h-.523zm-3.975-12h.975c.364 0 .709.075 1.032.194-.021.099-.032.201-.032.306 0 .828.672 1.5 1.5 1.5.105 0 .207-.011.306-.032.119.323.194.668.194 1.032v5c-.416 0-.812.085-1.172.239l-2.828-7.422c.001-.29.01-.559.024-.817z"/></svg>