<svg id="Layer_1" viewBox="0 0 24 24" xmlns="http://www.w3.org/2000/svg" data-name="Layer 1"><path d="m7 7c.828 0 1.5.672 1.5 1.5s-.672 1.5-1.5 1.5-1.5-.672-1.5-1.5.672-1.5 1.5-1.5zm7 0c-.828 0-1.5.672-1.5 1.5s.672 1.5 1.5 1.5 1.5-.672 1.5-1.5-.672-1.5-1.5-1.5zm10 10c0 3.859-3.14 7-7 7s-7-3.141-7-7c0-1.297.361-2.509.979-3.552-.15.032-.309.052-.479.052-1.289 0-2-1.025-2-1.55s.711-.95 2-.95c1.078 0 1.745.299 1.937.704 1.227-1.058 2.82-1.704 4.563-1.704 3.86 0 7 3.141 7 7zm-2 0c0-2.757-2.243-5-5-5s-5 2.243-5 5 2.243 5 5 5 5-2.243 5-5zm-4-3h-2v3h-2.454l2.687 2.687c.417.417 1.093.417 1.51 0l2.688-2.687h-2.431zm-16-.552v-3.539l1.548-2.627c-.599-.799-1.515-2.24-1.548-3.115 0-1.195.972-2.167 2.167-2.167.722 0 1.457.471 1.873 1.198l.443.776.821-.354c1.91-.822 4.483-.822 6.394 0l.821.354.443-.776c.416-.728 1.151-1.198 1.873-1.198 1.195 0 2.167.972 2.167 2.167-.029.866-.941 2.305-1.548 3.114l.455.773c.951.096 1.882.345 2.753.731l-.837-1.42.149-.254c.663-1.131 1.028-2.177 1.028-2.945 0-2.298-1.869-4.167-4.167-4.167-1.176 0-2.309.557-3.109 1.494-2.001-.656-4.447-.656-6.448 0-.801-.938-1.933-1.494-3.109-1.494-2.3.001-4.169 1.87-4.169 4.168 0 1.114.708 2.439 1.179 3.196l-1.179 2.001v4.634c1.989 3.671 7.145 6.507 9.219 7.511-.502-.864-.865-1.815-1.057-2.83-2.106-1.207-4.766-3.033-6.162-5.231z"/></svg>