<svg id="Layer_1" viewBox="0 0 24 24" xmlns="http://www.w3.org/2000/svg" data-name="Layer 1"><path d="m24 2.5v11.5h-7v-2h5v-9.5c0-.275-.225-.5-.5-.5h-19c-.276 0-.5.225-.5.5v9.5h5v2h-7v-11.5c0-1.379 1.122-2.5 2.5-2.5h19c1.379 0 2.5 1.121 2.5 2.5zm-17 1.5h-3v2h3zm5 0h-3v2h3zm8 0h-6v2h6zm0 6v-2h-2v2zm-16 0h2v-2h-2zm11 2.107c0-1.516-1.076-2.835-2.503-3.067-1.776-.334-3.538 1.157-3.497 2.96v6.688l-.438-.356-.003.004c-1.21-1.08-3.071-1.007-4.183.184-1.13 1.208-1.066 3.11.13 4.23l1.381 1.251h2.881l-2.885-2.7c-.403-.378-.424-1.013-.046-1.416.375-.402 1.008-.421 1.41-.048.068.064 3.685 3.008 3.752 3.066v-10.903c-.01-.605.573-1.104 1.175-.985.462.075.825.555.825 1.093v6.048l8 3v2.845h2v-4.231l-8-3v-4.661z"/></svg>