<svg id="Layer_1" viewBox="0 0 24 24" xmlns="http://www.w3.org/2000/svg" data-name="Layer 1"><path d="m17.816 19c-.302.847-.971 1.519-1.816 1.822v3.178h-2v-3h-8v3h-2v-3.184c-1.161-.414-2-1.514-2-2.816v-12c0-1.302.839-2.402 2-2.816v-3.184h2v3h8v-3h2v3.178c.844.303 1.514.974 1.816 1.822h-12.816c-.551 0-1 .448-1 1v12c0 .552.449 1 1 1zm3.893-3.481c-.248.306-.617.481-1.012.481h-1.981c-.123.844-.843 1.494-1.722 1.494s-1.598-.65-1.722-1.494h-1.971c-.395 0-.764-.175-1.012-.48-.247-.304-.343-.698-.263-1.082.152-.731.508-2.441.798-3.798.497-2.312 2.018-3.64 4.175-3.64 2.137 0 3.698 1.362 4.176 3.645l.795 3.79c.081.385-.015.78-.262 1.084zm-1.873-1.519-.619-2.945c-.43-2.055-1.775-2.055-2.218-2.055-.439 0-1.777 0-2.219 2.06-.206.961-.444 2.1-.62 2.94z"/></svg>