<?xml version="1.0" encoding="UTF-8"?>
<svg xmlns="http://www.w3.org/2000/svg" id="Layer_1" data-name="Layer 1" viewBox="0 0 24 24">
  <path d="M18,2.5c0-1.381,1.119-2.5,2.5-2.5s2.5,1.119,2.5,2.5-1.119,2.5-2.5,2.5-2.5-1.119-2.5-2.5Zm2.062,10.472l-2.122,4.195,3.694,2.271-2.307,4.562h-2.241l1.933-3.823-4.749-2.922c-1.195-.896-1.58-2.379-1.016-3.658l2.104-4.032-4.319,2.777-1.081-1.683,5.615-3.61c1.068-.686,2.303-1.049,3.571-1.049h.354c.878,0,1.611,.344,2.064,.968,.479,.66,.572,1.544,.263,2.49l-.86,1.726,2.967,1.765-1.022,1.719-2.849-1.695Zm-3.832,3.145l3.716-7.346c.096-.329,.064-.539,0-.628-.064-.089-.23-.142-.445-.142,0,0-.856,.026-1.103,.067l-3.34,6.396c-.159,.367-.031,.861,.341,1.143l.833,.511Zm-6.23,4.913c0,.9-.255,1.61-.759,2.11-.79,.784-1.964,.862-3.238,.862-.159,0-1.524-.002-1.524-.002-1.455,.013-2.832,.022-3.72-.86-.503-.5-.759-1.21-.759-2.11,0-2.333,3.32-6.64,6.066-7.754-.76-.76-1.437-2.017-2.066-3.276l4.5-1c.711,1.777,.601,3.549-.016,4.428,1.378,1.151,1.516,4.46,1.516,7.602Zm-2,0c0-5.071-.618-5.916-.807-6.053-1.438,.026-5.193,4.307-5.193,6.053,0,.239,.029,.553,.168,.691,.297,.295,1.359,.285,2.296,.28h1.072c.935,.006,1.999,.015,2.296-.28,.139-.138,.168-.452,.168-.691Zm2.949,2.97h2.236l1.948-3.935-1.726-1.02-2.458,4.955Z"/>
</svg>
