<?xml version="1.0" encoding="UTF-8"?>
<svg xmlns="http://www.w3.org/2000/svg" id="Layer_1" data-name="Layer 1" viewBox="0 0 24 24">
  <path d="M20,10.685v-3.685h-2v3.08c-.328-.047-.66-.08-1-.08-3.859,0-7,3.141-7,7,0,.34,.033,.672,.08,1h-3.08v2h3.685c1.126,2.361,3.53,4,6.315,4,3.859,0,7-3.141,7-7,0-2.785-1.639-5.188-4-6.315Zm-3,11.315c-2.757,0-5-2.243-5-5s2.243-5,5-5,5,2.243,5,5-2.243,5-5,5Zm1-6h2v2h-2v2h-2v-2h-2v-2h2v-2h2v2ZM3,0h2V2H3c-.552,0-1,.449-1,1v2H0V3C0,1.346,1.346,0,3,0Zm-1,13H0V7H2v6Zm0,5h3v2H0v-5H2v3ZM17,2h-2V0h2c1.654,0,3,1.346,3,3v2h-2V3c0-.551-.448-1-1-1Zm-4,0H7V0h6V2Z"/>
</svg>
