<?xml version="1.0" encoding="UTF-8"?>
<svg xmlns="http://www.w3.org/2000/svg" id="Layer_1" data-name="Layer 1" viewBox="0 0 24 24">
  <path d="M20.764,13.911c1.572-.763,2.235-2.662,1.479-4.239l-.954-1.987c.161,.122,.31,.229,.42,.296,.712,.432,1.64,.206,2.072-.506,.432-.712,.206-1.64-.506-2.072-.565-.343-1.224-.423-1.855-.38,.421-.549,.752-1.21,.752-1.938,0-.833-.675-1.508-1.508-1.508s-1.508,.675-1.508,1.508c0,.049,.002,.105,.005,.166l-.694-1.446C17.748,.239,15.748-.462,14.199,.325l-2.417,1.236,6.529,13.604,2.452-1.254ZM15.087,2.117c.565-.286,1.315-.025,1.577,.554l3.775,7.867c.281,.587,.033,1.294-.554,1.577l-.658,.336L14.429,2.454l.658-.337Zm-3.087,5.883l-2.25,2.455-2.25-2.455-2.25,2.455-2.25-2.455v5H0v11H15V13h-3v-5ZM2,15H6.5v7H2v-7Zm11,7h-4.5v-7h4.5v7Zm11-2l-2,1-1,2-1-2-2-1,2-1,1-2,1,2,2,1ZM8.667,5.333l-1.667-.833,1.667-.833,.833-1.667,.833,1.667,1.667,.833-1.667,.833-.833,1.667-.833-1.667ZM1.667,3.333l-1.667-.833,1.667-.833,.833-1.667,.833,1.667,1.667,.833-1.667,.833-.833,1.667-.833-1.667Z"/>
</svg>
