<?xml version="1.0" encoding="UTF-8"?>
<svg xmlns="http://www.w3.org/2000/svg" id="Layer_1" data-name="Layer 1" viewBox="0 0 24 24">
  <path d="m5,14c1.379,0,2.5,1.121,2.5,2.5s-1.121,2.5-2.5,2.5-2.5-1.121-2.5-2.5,1.121-2.5,2.5-2.5Zm2,6H3c-1.654,0-3,1.346-3,3v1h2v-1c0-.552.448-1,1-1h4c.552,0,1,.448,1,1v1h2v-1c0-1.654-1.346-3-3-3Zm12-6c-1.379,0-2.5,1.121-2.5,2.5s1.121,2.5,2.5,2.5,2.5-1.121,2.5-2.5-1.121-2.5-2.5-2.5Zm2,6h-4c-1.654,0-3,1.346-3,3v1h2v-1c0-.552.448-1,1-1h4c.552,0,1,.448,1,1v1h2v-1c0-1.654-1.346-3-3-3Zm-9.068-9c1.379,0,2.5-1.121,2.5-2.5s-1.121-2.5-2.5-2.5-2.5,1.121-2.5,2.5,1.121,2.5,2.5,2.5Zm8.068-2.001c.51,0,1.019-.193,1.406-.581l2.507-2.507-1.414-1.414-1.499,1.509V0h-2v5.995l-1.498-1.498-1.414,1.414,2.507,2.507c.388.388.896.581,1.405.581Zm-16,0c.51,0,1.019-.193,1.406-.581l2.507-2.507-1.414-1.414-1.499,1.509V0h-2v5.995l-1.498-1.498L.088,5.911l2.507,2.507c.388.388.896.581,1.405.581Zm10.924,5.621c.297-.642.743-1.193,1.29-1.628-.549-.605-1.334-.992-2.213-.992h-4c-.879,0-1.664.387-2.213.992.547.435.993.986,1.29,1.628.15-.363.506-.62.923-.62h4c.417,0,.773.257.923.62Z"/>
</svg>
