<?xml version="1.0" encoding="UTF-8"?>
<svg xmlns="http://www.w3.org/2000/svg" id="Layer_1" data-name="Layer 1" viewBox="0 0 24 24">
  <path d="M6.482,10.432l1.769-1.769,2.334,2.328,2.424,4.106,3.096-3.096-4.081-2.398-2.359-2.353,1.767-1.767L6.682,.732C5.707-.243,4.121-.242,3.146,.732l-1.414,1.414c-.975,.975-.975,2.561,0,3.536l4.75,4.75ZM3.146,3.561l1.414-1.414c.195-.195,.512-.195,.708,0l3.335,3.336-2.121,2.121-3.336-3.335c-.195-.195-.195-.512,0-.708Zm20.854,13.939c0,2.481-2.019,4.5-4.5,4.5-3.028,0-6.421-1.236-9.414-2.327-2.362-.86-4.593-1.673-6.086-1.673-1.103,0-2,.897-2,2s.897,2,2,2h1v2h-1c-2.206,0-4-1.794-4-4s1.794-4,4-4c1.847,0,4.239,.872,6.771,1.794,2.837,1.034,6.053,2.206,8.729,2.206,1.379,0,2.5-1.122,2.5-2.5s-1.121-2.5-2.5-2.5h-3.566l2-2h1.566c2.481,0,4.5,2.019,4.5,4.5Z"/>
</svg>
