<svg id="Layer_1" viewBox="0 0 24 24" xmlns="http://www.w3.org/2000/svg" data-name="Layer 1"><path d="m22 18v-12h-5.408c-.477-1.098-1.335-2.02-2.5-2.551-.662-.302-1.073-.907-1.073-1.58v-1.869h-2v1.869c0 1.444.88 2.778 2.243 3.399.388.177.714.432.983.732h-5.226l-2-2v2h-5.019v12h-2v3c0 1.654 1.346 3 3 3h18c1.654 0 3-1.346 3-3v-3zm-18-10h11.007c0 .237-.015.478-.071.72-.244 1.07-1.127 1.954-2.196 2.198-.241.055-.483.083-.721.083-.552 0-1 .448-1 1s.448 1 1 1 0 0 0 0c.387 0 .779-.044 1.165-.132 1.831-.418 3.284-1.872 3.702-3.703.089-.392.116-.78.116-1.165h2.997v10h-4.914l-1 1h-4.172l-1-1h-4.913zm18 13c0 .551-.449 1-1 1h-18c-.551 0-1-.449-1-1v-1h6.086l1 1h5.828l1-1h6.086z"/></svg>