<svg id="Layer_1" viewBox="0 0 24 24" xmlns="http://www.w3.org/2000/svg" data-name="Layer 1"><path d="m19.707 18.293c-.776-.776-.742-3.782-.717-5.978.005-.447-.005-1.315-.005-1.315-.034-2.487-1.223-5.11-3.549-7.436-4.281-4.28-9.572-4.743-13.165-1.151l-.003.004c-2.964 3.1-2.976 7.41-.224 11.234.43-.521.965-.947 1.585-1.232-.096-.137-.188-.277-.277-.418h6.648v4.877c-.004.015-.004.023-.007.037-.058.699-.299 1.289-.64 1.86.552.118 1.103.2 1.647.208 0 0 1.072-.006 1.592-.012 2.419-.032 4.924-.04 5.701.737l4.308 4.308 1.414-1.414-4.308-4.308zm-2.825-8.293h-4.882v-2h4.206c.313.644.547 1.316.676 2zm-1.949-4h-2.933v-2.644c.737.469 1.423 1.024 2.021 1.622.318.318.624.661.912 1.021zm-8.933-3.669v3.669h-3.67c.275-.77.736-1.525 1.431-2.241.715-.696 1.469-1.153 2.238-1.428zm2-.317c.676.018 1.347.148 2 .369v3.617h-2zm-5.985 5.986h3.985v2h-3.617c-.221-.653-.352-1.324-.368-2zm5.985 2v-2h2v2zm8.931 2c-.17 1.114-.694 2.216-1.69 3.238-1.025.995-2.128 1.515-3.241 1.685v-4.923zm-8.931 4.5c0 1.381-1.119 2.5-2.5 2.5s-2.5-1.119-2.5-2.5 1.119-2.5 2.5-2.5 2.5 1.119 2.5 2.5z"/></svg>