<svg id="Layer_1" viewBox="0 0 24 24" xmlns="http://www.w3.org/2000/svg" data-name="Layer 1"><path d="m19.5 0c-2.481 0-4.5 2.019-4.5 4.5 0 .313.033.618.094.912-1.105.603-2.047.917-3.094 1.031v-1.443c0-1.103-.897-2-2-2h-2c-1.103 0-2 .897-2 2v3.525c-3.49 1.24-6 4.566-6 8.475-.002 2.683 1.2 5.297 3.183 7h11.635c1.982-1.703 3.185-4.318 3.183-7 0-3.909-2.51-7.235-6-8.475v-.073c1.353-.119 2.576-.501 3.942-1.228.823 1.072 2.104 1.776 3.558 1.776 2.481 0 4.5-2.019 4.5-4.5s-2.02-4.5-4.501-4.5zm-11.5 5h2v3.059c-.329-.037-.662-.059-1-.059s-.671.022-1 .059zm8 12c0 1.86-.735 3.701-1.982 5h-10.036c-1.247-1.299-1.982-3.14-1.982-5 0-3.86 3.141-7 7-7s7 3.14 7 7zm3.5-10c-1.379 0-2.5-1.122-2.5-2.5s1.121-2.5 2.5-2.5 2.5 1.122 2.5 2.5-1.121 2.5-2.5 2.5z"/></svg>