<?xml version="1.0" encoding="UTF-8"?>
<svg xmlns="http://www.w3.org/2000/svg" id="Layer_1" data-name="Layer 1" viewBox="0 0 24 24">
  <path d="M8.027,4C8.027,1.794,6.233,0,4.027,0S.027,1.794,.027,4v3C.027,9.206,1.822,11,4.027,11s4-1.794,4-4v-3Zm-2,3c0,1.103-.897,2-2,2s-2-.897-2-2v-3c0-1.103,.897-2,2-2s2,.897,2,2v3Zm-1,6v11H3.027v-7.629l-1.583,1.626L.011,16.602l3.507-3.602h1.509ZM11.417,4.998l-1.433-1.396L13.491,0h1.509V11h-2V3.371l-1.583,1.626Zm12.542,17.547l-2.792-2.792c.524-.791,.833-1.736,.833-2.753,0-2.757-2.243-5-5-5s-5,2.243-5,5,2.243,5,5,5c1.017,0,1.962-.309,2.753-.833l2.792,2.792,1.414-1.414Zm-6.959-2.545c-1.654,0-3-1.346-3-3s1.346-3,3-3,3,1.346,3,3-1.346,3-3,3Zm-4.905,1.99c.585,.575,1.271,1.044,2.028,1.386-.617,.389-1.341,.623-2.123,.623-2.206,0-4-1.794-4-4v-3c0-1.931,1.376-3.547,3.199-3.919-.757,1.118-1.199,2.467-1.199,3.919v3c0,1.103,.897,2,2,2,.033,0,.063-.008,.095-.01Z"/>
</svg>
