<?xml version="1.0" encoding="UTF-8"?>
<svg xmlns="http://www.w3.org/2000/svg" id="Layer_1" data-name="Layer 1" viewBox="0 0 24 24">
  <path d="M9,8.792c0,.437-.534,1.208-1.5,1.208s-1.5-.771-1.5-1.208,.534-.792,1.5-.792,1.5,.354,1.5,.792Zm7.5,10.208c.966,0,1.5-.771,1.5-1.208s-.534-.792-1.5-.792-1.5,.354-1.5,.792,.534,1.208,1.5,1.208ZM7.826,15h-.651c-4.425,0-7.174-1.951-7.174-5.092,0-.756,.389-1.706,1.036-2.612-.623-.264-1.036-.812-1.036-1.796C0,4,3.222,0,4.462,0c.909,0,1.511,.366,2.412,1.032,.203-.017,.409-.032,.627-.032s.424,.015,.627,.032c.9-.666,1.503-1.032,2.412-1.032,1.239,0,4.462,4,4.462,5.5,0,.984-.413,1.532-1.036,1.796,.646,.906,1.036,1.855,1.036,2.612,0,3.141-2.749,5.092-7.174,5.092Zm5.174-5.092c0-.297-.326-1.236-1.332-2.242l-.285-.284-.008-.402c-.011-.404-.219-3.979-3.875-3.979s-3.864,3.575-3.875,3.983l-.011,.397-.281,.285c-1.006,1.006-1.332,1.945-1.332,2.242,0,2.869,3.96,3.092,5.174,3.092h.651c1.214,0,5.174-.223,5.174-3.092Zm10.404,.896l-.414-2.276-2.938,2.01c-.95-.55-1.985-.858-3.06-.934,.001,.039,.008,.08,.008,.118,0,.661-.092,1.281-.25,1.867,1.348,.086,2.401,.696,2.937,1.109,.467,.284,2.312,1.602,2.312,4.66,0,2.56-2.083,4.643-4.643,4.643h-1.714c-2.56,0-4.643-2.083-4.643-4.643,0-.256,.006-.5,.011-.745-.633,.155-1.293,.28-2.008,.336-.001,.136-.004,.27-.004,.409,0,3.663,2.98,6.643,6.643,6.643h1.714c3.663,0,6.643-2.979,6.643-6.643,0-3.241-.571-6.421-.596-6.554Z"/>
</svg>
