<svg id="Layer_1" viewBox="0 0 24 24" xmlns="http://www.w3.org/2000/svg" data-name="Layer 1"><path d="m22.562 16.722c.564-1.299 1.033-2.652 1.177-3.162.15-.534.208-.874.226-.991.256-1.688-.909-3.272-2.598-3.528-1.682-.261-3.263.898-3.507 2.487-.032.12-.266.904-.583 1.775-.298-.269-.585-.535-.866-.802 1.25-3.576 1.589-6.912 1.589-8.235 0-.638-.041-1.043-.059-1.189-.238-1.916-1.993-3.29-3.908-3.048-1.928.237-3.257 1.94-3.032 3.802 0 .012 0 .665-.099 1.54-.255-.479-.45-.867-.764-1.567-1.029-2.3-2.691-3.783-5.024-3.798-1.556 0-3.062.756-4.04 2.031-.998 1.301-1.322 2.922-.881 4.468 1.156 3.745 3.442 7.17 6.797 10.204-2.041.291-3.376.281-3.483.303h-.013c-1.926.097-3.247 1.25-3.466 3.027-.236 1.916 1.13 3.666 3.047 3.901.145.019.552.06 1.185.06 1.817 0 5.975-.568 10.203-2.12 1.361.721 2.576 1.262 3.454 1.654.448.2 1.131.466 1.894.466 1.517 0 2.908-.828 3.63-2.162.586-1.081.718-2.311.36-3.376-.234-.699-.656-1.289-1.24-1.741zm-.879 4.164c-.373.688-1.09 1.115-1.872 1.115-.29 0-.633-.093-1.139-.319-.913-.398-2.643-1.197-4.062-1.995-3.929 1.597-8.715 2.347-10.35 2.314-.517 0-.836-.031-.941-.044-.821-.102-1.407-.852-1.306-1.673.037-.299.15-1.209 1.588-1.282.531-.003 6.368-.095 11.25-2.512-.551-.491-1.081-.978-1.583-1.467-1.236.541-2.529.93-3.755 1.216-1.999-1.625-3.632-3.376-4.907-5.232 1.045-.243 2.434-.719 3.925-1.653l-1.061-1.695c-1.65 1.033-3.131 1.396-3.978 1.526-.568-1.054-1.039-2.135-1.382-3.246-.259-.91-.058-1.888.551-2.683.61-.795 1.5-1.248 2.464-1.248 1.453.003 2.517.965 3.1 2.38.753 1.828 2.128 4.061 3.526 5.635l.577-1.735c.684-2.054.686-4.458.666-4.618-.099-.828.465-1.555 1.284-1.657.829-.089 1.577.487 1.679 1.308.013.106.044.427.044.945.066.909-.509 5.433-1.915 8.76 1.191 1.202 2.599 2.44 3.956 3.582.6-1.14 1.766-4.346 1.777-4.688.094-.598.642-.995 1.247-.903.599.092 1.012.653.922 1.247-.014.087-.061.347-.175.756-.131.566-1.145 3.2-1.822 4.476.088.053.825.513.898.541.517.235.859.593 1.017 1.062.181.541.1 1.193-.223 1.788z"/></svg>