<?xml version="1.0" encoding="UTF-8"?>
<svg xmlns="http://www.w3.org/2000/svg" id="Layer_1" data-name="Layer 1" viewBox="0 0 24 24">
  <path d="M9.074,5.036l-1.452-1.376L10.444,.683c.765-.854,2.331-.873,3.131,.021l2.844,2.888-1.426,1.403-1.98-1.981-.014,5.988-2-.005,.014-6.008-1.94,2.047Zm12.926,8.964c0,5.514-4.486,10-10,10S2,19.514,2,14c0-3.692,2.016-6.915,5-8.647v2.412c-.711,.571-1.318,1.263-1.801,2.04l5.225,1.045c.996,.191,2.04,.203,3.036,0l5.329-1.066c-.48-.769-1.084-1.453-1.789-2.019v-2.412c2.984,1.732,5,4.955,5,8.647Zm-13,7.411v-1.991c0-.376-.095-.751-.274-1.083l-.511-.943c-.323-.596-.889-1.014-1.553-1.147l-2.462-.492c.579,2.574,2.399,4.68,4.8,5.656Zm3,.589c.339,0,.672-.028,1-.069v-2.511c0-.708,.178-1.411,.515-2.034l.511-.944c.607-1.12,1.671-1.906,2.919-2.156l3.036-.607c-.028-.703-.147-1.38-.346-2.025l-5.783,1.156c-1.254,.252-2.563,.252-3.82,0l-5.674-1.135c-.195,.638-.312,1.308-.339,2.003l3.036,.607c1.249,.25,2.312,1.036,2.919,2.156l.511,.943c.337,.623,.515,1.327,.515,2.034v2.511c.328,.041,.661,.069,1,.069Zm7.8-6.245l-2.462,.492c-.665,.133-1.23,.551-1.553,1.147l-.511,.943c-.179,.331-.274,.706-.274,1.082v1.991c2.4-.975,4.22-3.082,4.8-5.656Z"/>
</svg>
