<?xml version="1.0" encoding="UTF-8"?>
<svg xmlns="http://www.w3.org/2000/svg" id="Layer_1" data-name="Layer 1" viewBox="0 0 24 24">
  <path d="M19.092,13.863l-3.362-2.154,2.244-.664c-.15-.539-.35-1.056-.634-1.525,.47-.555,.855-1.182,1.135-1.865,.651,.825,1.121,1.787,1.416,2.822l2.185-.647-1.667,3.643c-.236,.496-.85,.678-1.317,.39Zm-7.33,5.125l.438-2.564-3.627,2.193c-.494,.31-.608,.981-.246,1.438l2.689,3.296,.409-2.393c.19,.019,.379,.042,.574,.042,.691,0,1.358-.095,2-.255v-2.079c-.629,.213-1.3,.334-2,.334-.08,0-.159-.008-.238-.012ZM5.041,8.863l-3.502,2.218,2.277,.678c-.04,.326-.066,.655-.066,.992,0,.439,.044,.866,.111,1.286,.9,.082,1.711,.451,2.339,1.029-.287-.717-.45-1.497-.45-2.315,0-.138,.026-.27,.035-.406l2.317,.69-1.699-3.765c-.243-.514-.878-.703-1.362-.405Zm-1.541,11.137c1.105,0,2-.895,2-2s-.895-2-2-2-2,.895-2,2,.895,2,2,2Zm1.5,1H2c-1.103,0-2,.897-2,2v1H2v-1h3v1h2v-1c0-1.103-.897-2-2-2Zm19-3v6h-8v-6c0-1.103,.897-2,2-2h4c1.103,0,2,.897,2,2Zm-2,0h-1v2h-2v-2h-1v4h4v-4ZM14.849,7.8c-.5,.509-1.138,.873-1.849,1.058v1.142h-2v-1.142c-.711-.185-1.349-.549-1.849-1.058l-.981,.566-1-1.732,.991-.572c-.094-.34-.161-.692-.161-1.062s.067-.721,.161-1.062l-.991-.572,1-1.732,.981,.566c.5-.509,1.138-.873,1.849-1.058V0h2V1.142c.711,.185,1.349,.549,1.849,1.058l.981-.566,1,1.732-.991,.572c.094,.34,.161,.692,.161,1.062s-.067,.721-.161,1.062l.991,.572-1,1.732-.981-.566Zm-.849-2.8c0-1.103-.897-2-2-2s-2,.897-2,2,.897,2,2,2,2-.897,2-2Z"/>
</svg>
