<svg id="Layer_1" viewBox="0 0 24 24" xmlns="http://www.w3.org/2000/svg" data-name="Layer 1"><path d="m4 4h7v2h-7zm0 5h7v-2h-7zm20-1.5h-4v2.5h-3.538l-3.6 3h-3.149l-.588 5h.875c1.654 0 3 1.346 3 3v3h-13v-3c0-1.56 1.201-2.831 2.725-2.972l.6-5.096c-1.884-.323-3.325-1.957-3.325-3.932v-5c0-2.124 1.71-4 4-4h8.862l3.6 3h3.538v2.5h4zm-14 12.5h-7c-.551 0-1 .448-1 1v1h9v-1c0-.552-.449-1-1-1zm-2.301-7h-2.368l-.588 5h2.368zm6.301-3.552v-5.896l-1.862-1.552h-8.138c-1.077 0-2 .875-2 2v5c0 1.103.897 2 2 2h8.138zm4-4.448h-2v3h2z"/></svg>