<svg id="Layer_1" viewBox="0 0 24 24" xmlns="http://www.w3.org/2000/svg" data-name="Layer 1"><path d="m24 13.529v-1.529h-7.5v2h4.776c-.162.43-.276.934-.276 1.5s.117 1.07.279 1.5h-17.779c-.827 0-1.5-.673-1.5-1.5s.673-1.5 1.5-1.5h4v-2h-4c-1.93 0-3.5 1.57-3.5 3.5 0 .98.407 1.864 1.058 2.5-.651.636-1.058 1.52-1.058 2.5 0 1.93 1.57 3.5 3.5 3.5h20.5l-.007-1.525c-1.244-.813-1.254-3.147.007-3.946l-.007-1.054c-1.244-.813-1.254-3.147.007-3.946zm-20.5 8.471c-.827 0-1.5-.673-1.5-1.5s.673-1.5 1.5-1.5h17.779c-.162.43-.279.932-.279 1.5s.114 1.07.276 1.5zm5.533-10.81c.284.161.467.517.467.908v1.902h5v-1.922c0-.378.178-.724.454-.88 1.879-1.062 3.046-3.054 3.046-5.198 0-1.817-.811-3.517-2.223-4.663-1.413-1.145-3.263-1.582-5.073-1.2-2.307.487-4.153 2.376-4.593 4.701-.488 2.572.66 5.065 2.923 6.353zm-.958-5.98c.292-1.542 1.515-2.794 3.042-3.116 1.237-.263 2.444.021 3.4.797.942.764 1.483 1.897 1.483 3.109 0 1.424-.778 2.749-2.03 3.457-.401.226-.722.558-.97.943v-3.677c.595-.346 1-.984 1-1.723h-4c0 .738.405 1.376 1 1.723v3.684c-.249-.39-.574-.725-.979-.955-1.508-.858-2.272-2.522-1.946-4.242z"/></svg>