<?xml version="1.0" encoding="UTF-8"?>
<svg xmlns="http://www.w3.org/2000/svg" id="Layer_1" data-name="Layer 1" viewBox="0 0 24 24">
  <path d="m24,6.076c0-1.453-.613-2.817-1.684-3.743-1.229-1.064-3.235-2.333-5.816-2.333H7.5C4.919,0,2.912,1.269,1.684,2.333c-1.07.926-1.684,2.291-1.684,3.743v14.924h4v3h16v-3h4V6.076Zm-12,1.424l-2.357-5.5h4.714l-2.357,5.5Zm-6,9.5h3v-2h-3v-7h-2v11h-2V6.076c0-.872.361-1.685.992-2.231.972-.841,2.543-1.844,4.508-1.844h.429l-1.429,2,4.5,4.909v13.091h-5v-5Zm16,2h-2v-11h-2v7h-3v2h3v5h-5v-13.091l4.5-4.909-1.429-2h.429c1.965,0,3.536,1.003,4.508,1.844.631.546.992,1.359.992,2.231v12.924Z"/>
</svg>
