<svg id="Layer_1" viewBox="0 0 24 24" xmlns="http://www.w3.org/2000/svg" data-name="Layer 1"><path d="m8 19v-2h-2v-2h2v-2h2v2h2v2h-2v2zm16-2.5c0 .935-.364 1.814-1.025 2.475l-4 4c-.661.661-1.54 1.025-2.475 1.025s-1.813-.364-2.475-1.025c-.661-.661-1.025-1.54-1.025-2.475s.364-1.814 1.025-2.475l4-4c1.322-1.322 3.627-1.322 4.949 0 .661.661 1.025 1.54 1.025 2.475zm-6.439 5.061 1.349-1.349-2.121-2.121-1.349 1.349c-.283.283-.439.66-.439 1.061s.156.777.439 1.06c.584.585 1.537.585 2.121 0zm4.439-5.061c0-.4-.156-.777-.439-1.06-.292-.292-.677-.439-1.061-.439s-.769.146-1.061.438l-1.237 1.237 2.121 2.121 1.237-1.237c.283-.283.439-.66.439-1.061zm-10.62 5.5c.221.723.591 1.402 1.115 2h-12.495v-13c0-1.654 1.346-3 3-3h2v-2h-2v-3c0-1.654 1.346-3 3-3h6c1.654 0 3 1.346 3 3v3h-2.029l.02 2h2.01c1.654 0 3 1.346 3 3v.631c-.497.254-.973.565-1.389.98l-.611.611v-2.223c0-.551-.448-1-1-1h-3.99l-.01-4h-4v4h-4.001c-.551 0-1 .449-1 1v11h9.38zm-6.38-18h8v-1c0-.551-.449-1-1-1h-6c-.551 0-1 .449-1 1z"/></svg>