<svg id="Layer_1" viewBox="0 0 24 24" xmlns="http://www.w3.org/2000/svg" data-name="Layer 1"><path d="m14.5 13.001c-.828 0-1.5-.672-1.5-1.5s.672-1.5 1.5-1.5 1.5.672 1.5 1.5-.672 1.5-1.5 1.5zm7.35-4.725c-.823-4.763-4.945-8.276-9.85-8.276-4.666.001-8.773 3.309-9.774 7.904l-.725 4.097h1.499c1.882 0 3.622-.47 5.184-1.205-.113.211-.184.449-.184.705 0 .828.672 1.5 1.5 1.5s1.5-.672 1.5-1.5c0-.783-.602-1.418-1.366-1.487 2.378-1.47 4.213-3.509 5.288-5.25-.579-.324-1.217-.552-1.893-.669-1.538 2.284-4.811 5.469-9.135 5.864l.295-1.669c.794-3.645 4.08-6.29 7.812-6.29 4.104 0 7.523 3.074 7.953 7.15l.079.745.738.134c.712.129 1.23.748 1.23 1.471 0 .827-.673 1.5-1.5 1.5-.182 0-.897-.145-1.088-.171l-.281.795c-.917 2.597-4.001 5.377-7.131 5.377-3.026 0-6.023-2.62-7.041-5.154-.675.099-1.373.158-2.08.152.769 2.355 2.624 4.597 5.12 5.944v4.056h2v-3.268c.649.169 1.318.269 2 .269.683 0 1.352-.096 2-.264v3.263h2v-4.047c2.123-1.127 3.841-3.019 4.732-4.961 1.822-.12 3.268-1.64 3.268-3.492 0-1.434-.87-2.692-2.15-3.225zm-9.85 8.724c1.352 0 2.509-.826 2.999-2h-5.998c.49 1.174 1.648 2 2.999 2z"/></svg>