<svg id="Layer_1" viewBox="0 0 24 24" xmlns="http://www.w3.org/2000/svg" data-name="Layer 1"><path d="m11.184 19h-2.119v-2h1.936v.411c0 .559.068 1.088.184 1.589zm1.451 3h-10.635v-19c0-.552.449-1 1-1h10c.551 0 1 .448 1 1v4h.026v2.612l2-.664v-2.948h-.026v-3c0-1.654-1.346-3-3-3h-10c-1.654 0-3 1.346-3 3v21h14.641c-.685-.535-1.394-1.2-2.006-2zm-1.635-8.5c0-.17.019-.335.04-.5h-2.04v2h2zm-4-.5h-3v2h3zm-3 6h3v-2h-3zm3-14h-3v2h3zm5 0h-3v2h3zm-5 4h-3v2h3zm5 0h-3v2h3zm12 4.5v3.911c0 4.029-3.763 5.857-4.917 6.322l-.627.252-.604-.302c-1.138-.568-4.853-2.701-4.853-6.272v-3.911c0-.862.55-1.624 1.37-1.896l4.13-1.37 4.13 1.37c.819.271 1.37 1.033 1.37 1.896zm-2 0-3.5-1.158-3.501 1.161v3.908c0 2.281 2.63 3.889 3.545 4.379 1.031-.454 3.455-1.798 3.455-4.379v-3.911z"/></svg>