<svg id="Layer_1" viewBox="0 0 24 24" xmlns="http://www.w3.org/2000/svg" data-name="Layer 1"><path d="m14.263 8.616-1-1.732-1.413.816c-.5-.509-1.139-.872-1.849-1.058v-1.642h-2v1.642c-.711.185-1.349.549-1.849 1.058l-1.413-.816-1 1.732 1.424.822c-.094.34-.161.692-.161 1.061s.063.723.159 1.063l-1.421.821 1 1.732 1.428-.825c.5.503 1.126.882 1.835 1.066v1.28l2.13-2.015c1.098-1.038 2.074-2.192 2.846-3.348-.021-.285-.063-.569-.137-.837l1.424-.822zm-5.263 3.884c-1.105 0-2-.895-2-2s.895-2 2-2 2 .895 2 2-.895 2-2 2zm5 8.156c.629.344 1.28.66 1.938.95-.281 1.364-1.492 2.393-2.938 2.393h-10c-1.654 0-3-1.346-3-3v-20.999h16v7.825c-.43-1.124-1.12-2.115-2-2.904v-2.921h-12v14h5.882l2.264 2h-8.146v3c0 .552.448 1 1 1h10c.552 0 1-.448 1-1zm7.628-8.491-.907-.488 2.685-5.754-1.812-.846-2.637 5.65-.774-.417c-1.195-.646-2.658-.268-3.407.879-.873 1.345-2.004 2.688-3.271 3.887l-.795.752c2.24 2.146 5.65 4.172 9.162 5.068l.42-.533c.946-1.199 2.175-3.104 2.653-5.371.236-1.122-.306-2.285-1.316-2.827zm-.641 2.414c-.334 1.581-1.127 2.978-1.854 3.996-.358-.123-.719-.271-1.08-.419.263-.818.446-1.717.446-2.656-.678.848-1.411 1.459-2.087 1.905-.985-.506-1.922-1.076-2.726-1.677 1.055-1.092 1.999-2.269 2.764-3.447.178-.271.506-.358.783-.21l3.447 1.855c.23.124.359.398.306.652zm-14.987 6.421v-2h4v2z"/></svg>