<svg id="Layer_1" viewBox="0 0 24 24" xmlns="http://www.w3.org/2000/svg" data-name="Layer 1"><path d="m10.78 9.648c.259.406.291.909.088 1.344l-2.565 4.503-1.736-.991 1.999-3.504h-2.164c-.489 0-.936-.249-1.192-.666-.257-.416-.279-.926-.06-1.363l2.56-4.468 1.734.994-2.007 3.503h2.162c.481 0 .923.243 1.182.648zm13.22-2.648v4c0 1.302-.839 2.402-2 2.816v7.184c0 1.654-1.346 3-3 3h-19v-21c0-1.654 1.346-3 3-3h10c1.654 0 3 1.346 3 3v19h3c.552 0 1-.449 1-1v-7.184c-1.161-.414-2-1.514-2-2.816v-4h1v-2h4v2zm-10-4c0-.551-.448-1-1-1h-10c-.552 0-1 .449-1 1v19h12zm8 6h-2v2c0 .551.448 1 1 1s1-.449 1-1zm-16 11h3.999v-2h-3.999z"/></svg>