<?xml version="1.0" encoding="UTF-8"?>
<svg xmlns="http://www.w3.org/2000/svg" id="Layer_1" data-name="Layer 1" viewBox="0 0 24 24">
  <path d="M24,7v14.855c0,.794-.435,1.52-1.135,1.894-.318,.17-.666,.254-1.013,.254-.417,0-.832-.121-1.192-.361l-2.922-1.642H6v-3.853l-2.726,1.53c-.318,.214-.708,.325-1.108,.325-.349,0-.706-.084-1.031-.258-.7-.375-1.135-1.1-1.135-1.894V4C0,2.346,1.346,1,3,1H7.607c-.313,.61-.517,1.285-.582,2H3c-.551,0-1,.449-1,1v13.85c0,.022,0,.089,.078,.13s.133,.005,.151-.007l3.509-1.973h12.262v2H8v2h10.262l3.444,1.938c.083,.052,.138,.088,.216,.047,.078-.042,.078-.108,.078-.13V7c0-.551-.449-1-1-1h-1v-2h1c1.654,0,3,1.346,3,3Zm-15-3v-.5c0-1.93,1.57-3.5,3.5-3.5s3.5,1.57,3.5,3.5v.5h2v7c0,1.654-1.346,3-3,3h-5c-1.654,0-3-1.346-3-3V4h2Zm7,2h-7v5c0,.551,.449,1,1,1h5c.551,0,1-.449,1-1V6Zm-5-2h3v-.5c0-.827-.673-1.5-1.5-1.5s-1.5,.673-1.5,1.5v.5Zm2.5,4h-2v2h2v-2Z"/>
</svg>
