<svg id="Layer_1" viewBox="0 0 24 24" xmlns="http://www.w3.org/2000/svg" data-name="Layer 1"><path d="m21 19v5h-2v-5c0-1.654-1.346-3-3-3h-8c-1.654 0-3 1.346-3 3v5h-2v-5c0-2.757 2.243-5 5-5h8c2.757 0 5 2.243 5 5zm-6.5-1h-.5l-.5-1h-3l-.5 1h-.5c-.828 0-1.499.672-1.499 1.5v4.5s7.999 0 7.999 0v-4.5c0-.828-.672-1.5-1.5-1.5zm-2.5 4.5c-.828 0-1.5-.672-1.5-1.5s.672-1.5 1.5-1.5 1.5.672 1.5 1.5-.672 1.5-1.5 1.5zm5.78-18.5-.432-1.729c-.334-1.337-1.531-2.271-2.91-2.271h-4.877c-1.379 0-2.576.935-2.91 2.272l-.432 1.728h-2.22v2h2c0 3.309 2.691 6 6 6s6-2.691 6-6h2v-2h-2.22zm-9.19-1.242c.112-.446.511-.758.971-.758h4.877c.46 0 .858.312.971.757l.311 1.243h-7.44l.311-1.242zm3.409 7.242c-2.206 0-4-1.794-4-4h8c0 2.206-1.794 4-4 4z"/></svg>