<?xml version="1.0" encoding="UTF-8"?>
<svg xmlns="http://www.w3.org/2000/svg" id="Layer_1" data-name="Layer 1" viewBox="0 0 24 24">
  <path d="M18,12c3.309,0,6-2.691,6-6S21.309,0,18,0s-6,2.691-6,6,2.691,6,6,6Zm0-10c2.206,0,4,1.794,4,4s-1.794,4-4,4-4-1.794-4-4,1.794-4,4-4Zm-1,5h-2v-2h2V3h2v2h2v2h-2v2h-2v-2Zm5,5.921c.754-.437,1.428-.992,2-1.642v12.721H0V6c0-1.654,1.346-3,3-3h7.587c-.256,.631-.431,1.301-.518,2H3c-.552,0-1,.449-1,1v.242l7.878,7.879c1.134,1.133,3.109,1.133,4.243,0l.755-.755c.703,.298,1.457,.497,2.246,.583l-1.586,1.586c-.945,.944-2.201,1.464-3.536,1.464s-2.591-.52-3.536-1.464L2,9.071v12.929H22V12.921Z"/>
</svg>
