<svg id="Layer_1" viewBox="0 0 24 24" xmlns="http://www.w3.org/2000/svg" data-name="Layer 1"><path d="m17 14c3.866 0 7-3.134 7-7s-3.134-7-7-7-7 3.134-7 7 3.134 7 7 7zm1.479-5.74-3.286-.548c-1.27-.211-2.192-1.3-2.192-2.588 0-1.447 1.177-2.624 2.624-2.624h.376v-1h2v1c1.654 0 3 1.346 3 3h-2c0-.551-.448-1-1-1h-2.376c-.344 0-.624.28-.624.624 0 .307.219.565.521.616l3.286.548c1.271.211 2.193 1.3 2.193 2.588 0 1.447-1.177 2.624-2.624 2.624h-.376v1h-2v-1c-1.654 0-3-1.346-3-3h2c0 .551.449 1 1 1h2.376c.344 0 .624-.28.624-.624 0-.307-.22-.565-.521-.616zm-9.407 3c-.047.24-.072.487-.072.74 0 2.206 1.794 4 4 4 .567 0 1.104-.122 1.593-.335.767.213 1.572.335 2.407.335.158 0 .311-.016.467-.024-1.099 1.235-2.688 2.024-4.467 2.024-3.309 0-6-2.691-6-6 0-1.304.427-2.504 1.137-3.487.166.978.481 1.904.935 2.747zm14.928 1.391v9.349h-2v2h-2v-2h-16v2h-2v-2h-2v-17c0-1.654 1.346-3 3-3h6.518c-.412.616-.743 1.289-.995 2h-5.523c-.552 0-1 .448-1 1v2h2v2h-2v6h2v2h-2v3h20v-5.518c.756-.506 1.429-1.125 2-1.831z"/></svg>