<svg id="Layer_1" viewBox="0 0 24 24" xmlns="http://www.w3.org/2000/svg" data-name="Layer 1"><path d="m22 7.117c.223-.223.417-.48.566-.772.654-1.288 1.434-3.434 1.434-6.344h-2c0 2.515-.662 4.345-1.217 5.438-.176.347-.521.562-.9.562h-6.882v2h3v3.5c0 .276-.224.5-.5.5h-2c-.276 0-.5-.224-.5-.5v-3.5h-2v3.5c0 .276-.224.5-.5.5h-2c-.276 0-.5-.224-.5-.5v-3.5h3v-2h-6.8c-.363 0-.692-.186-.858-.485-.612-1.101-1.343-2.95-1.343-5.515h-2c0 2.993.868 5.18 1.596 6.487.111.199.253.373.404.538v10.818c-.213.684-1 3.394-1 6.156h2c.044-3.003.905-5.553 1-5.838v-10.162c.035.035 1.898 0 2 0v13.5c0 1.378 1.122 2.5 2.5 2.5h2c.565 0 1.081-.195 1.5-.513.419.317.935.513 1.5.513h2c1.378 0 2.5-1.122 2.5-2.5v-13.5c.113-.007 1.897.014 2-.008v10.17c.101.303.952 2.823 1 5.838h2c0-2.762-.787-5.472-1-6.156zm-14 6.833c.162.033.329.051.5.051h2c.171 0 .338-.018.5-.051v2.551c0 .276-.224.5-.5.5h-2c-.276 0-.5-.224-.5-.5zm2.5 8.051h-2c-.276 0-.5-.224-.5-.5v-2.551c.162.033.329.051.5.051h2c.171 0 .338-.018.5-.051v2.551c0 .276-.224.5-.5.5zm5 0h-2c-.276 0-.5-.224-.5-.5v-2.551c.162.033.329.051.5.051h2c.171 0 .338-.018.5-.051v2.551c0 .276-.224.5-.5.5zm.5-5.5c0 .276-.224.5-.5.5h-2c-.276 0-.5-.224-.5-.5v-2.551c.162.033.329.051.5.051h2c.171 0 .338-.018.5-.051zm-11-14.001c0-.828.672-1.5 1.5-1.5s1.5.672 1.5 1.5-.672 1.5-1.5 1.5-1.5-.672-1.5-1.5zm11 0c0-.828.672-1.5 1.5-1.5s1.5.672 1.5 1.5-.672 1.5-1.5 1.5-1.5-.672-1.5-1.5z"/></svg>