<?xml version="1.0" encoding="UTF-8"?>
<svg xmlns="http://www.w3.org/2000/svg" id="Layer_1" data-name="Layer 1" viewBox="0 0 24 24">
  <path d="M3,3c0,.551,.448,1,1,1H24V20H14.668c-.151-.688-.359-1.354-.607-2h7.939V6H4c-.352,0-.686-.072-1-.184v3.344c-.655-.094-1.319-.16-2-.16V3C1,1.346,2.346,0,4,0H24V2H4c-.552,0-1,.449-1,1ZM20,12c0-.828-.672-1.5-1.5-1.5s-1.5,.672-1.5,1.5,.672,1.5,1.5,1.5,1.5-.672,1.5-1.5ZM1.5,21c-.828,0-1.5,.672-1.5,1.5s.672,1.5,1.5,1.5,1.5-.672,1.5-1.5-.672-1.5-1.5-1.5Zm-.5-5v2c2.757,0,5,2.243,5,5h2c0-3.86-3.141-7-7-7Zm0-5v2c5.514,0,10,4.486,10,10h2c0-6.617-5.383-12-12-12Z"/>
</svg>
