<svg id="Layer_1" viewBox="0 0 24 24" xmlns="http://www.w3.org/2000/svg" data-name="Layer 1"><path d="m19.072 2.93c-1.889-1.89-4.401-2.93-7.072-2.93s-5.183 1.041-7.073 2.93c-3.9 3.902-3.9 10.249.008 14.158l7.065 6.911 7.072-6.919c1.89-1.89 2.93-4.403 2.93-7.075s-1.04-5.186-2.93-7.075zm-1.408 12.719-5.664 5.54-5.657-5.532c-3.119-3.119-3.119-8.195 0-11.314 1.512-1.511 3.521-2.343 5.657-2.343s4.146.832 5.656 2.343c1.512 1.511 2.344 3.521 2.344 5.657s-.832 4.146-2.336 5.649zm-1.099-9.26-1.18 1.18c-.245.245-.386.585-.386.932v2.5h-1v-3.5c0-.827-.673-1.5-1.5-1.5h-3c-.827 0-1.5.673-1.5 1.5v6.5h6v-1h1c1.103 0 2-.897 2-2v-2.218l.979-.979-1.414-1.414zm-6.565 5.611v-2h2v2z"/></svg>