<svg id="Layer_1" viewBox="0 0 24 24" xmlns="http://www.w3.org/2000/svg" data-name="Layer 1"><path d="m24 4.5h-2.465l-1-1.5h-2.035l-1.5-2h-2v-1h-2.333l-2.667 2v1l-1.333 1h-.972l-1.639-1.363-1.718 2.369-4.338 1.24v2.167l1.98.66 2.275 2.1 1.968 2.625-1.077 5.049-1.146 1.186v1.722l4.225 1.207 2.635.039 3.366.961 1.495.039 1-3h1.145l3.586.988 2.377-3.021-1.828-1.874v-.709l1.009-1.124-.805-2.883-.776-.138.544-1.238h2.012l-1.146-2.031 1.162-2.768v-1.701zm-5.428 9.262 2.044.364.172.615-.788.876v2.291l1.172 1.201-.471.599-2.436-.707h-2.986l-.969 2.906-3.036-.867-2.635-.039-2.189-.625.53-.548.826-3.826h1.193v-1.833l-3.2-4.267-2.034-1.9h3.234v-2h2.333l2.667-2v-1l1-.75v.75h3l1.5 2h1.965l1 1.5h1.241l-3.134 7.262z"/></svg>