<?xml version="1.0" encoding="UTF-8"?>
<svg xmlns="http://www.w3.org/2000/svg" id="Layer_1" data-name="Layer 1" viewBox="0 0 24 24">
  <path d="M3,7h-.5c-1.379,0-2.5-1.122-2.5-2.5V0H2V4.5c0,.276,.225,.5,.5,.5h.5V0h2V5h.5c.275,0,.5-.224,.5-.5V0h2V4.5c0,1.378-1.121,2.5-2.5,2.5h-.5v5H3V7ZM22.782,.186c-.816,.683-2.176,2.451-2.28,4.944-.032,1.289,.361,2.712,1.498,4.122v2.749h2V.597c-.004-.51-.75-.813-1.218-.411Zm-.782,17.536l-2.394-2.493c-.751-.781-1.802-1.229-2.885-1.229h-6.451c-1.077,0-2.124,.444-2.872,1.217l-2.398,2.476v-3.693H3v7h1.581l3.419-3.53v6.53h2v-7.972c.09-.013,.179-.028,.271-.028h6.451c.094,0,.186,.015,.278,.029v7.971h2v-6.515l3.375,3.515h1.625v-7h-2v3.722ZM9,7.5c0-2.481,2.019-4.5,4.5-4.5s4.5,2.019,4.5,4.5-2.019,4.5-4.5,4.5-4.5-2.019-4.5-4.5Zm2,0c0,1.378,1.121,2.5,2.5,2.5s2.5-1.122,2.5-2.5-1.121-2.5-2.5-2.5-2.5,1.122-2.5,2.5Z"/>
</svg>
