<?xml version="1.0" encoding="UTF-8"?>
<svg xmlns="http://www.w3.org/2000/svg" id="Layer_1" data-name="Layer 1" viewBox="0 0 24 24">
  <path d="m24,10c0-2.757-2.243-5-5-5h-2v-1c0-1.654-1.346-3-3-3H3C1.346,1,0,2.346,0,4v15h2.041c-.024.165-.041.331-.041.5,0,1.93,1.57,3.5,3.5,3.5s3.5-1.57,3.5-3.5c0-.169-.017-.335-.041-.5h6.082c-.024.165-.041.331-.041.5,0,1.93,1.57,3.5,3.5,3.5s3.5-1.57,3.5-3.5c0-.169-.017-.335-.041-.5h2.041v-9Zm-5-3c1.654,0,3,1.346,3,3v1h-5v-4h2Zm-12,12.5c0,.827-.673,1.5-1.5,1.5s-1.5-.673-1.5-1.5c0-.189.039-.356.093-.5h2.815c.054.144.093.311.093.5Zm8-2.5H2V4c0-.551.449-1,1-1h11c.551,0,1,.449,1,1v13Zm5,2.5c0,.827-.673,1.5-1.5,1.5s-1.5-.673-1.5-1.5c0-.189.039-.356.093-.5h2.815c.054.144.093.311.093.5Zm-3-2.5v-4h5v4h-5ZM8.5,5.628l-2.48,2.427c-.658.657-1.02,1.533-1.02,2.469s.365,1.815,1.024,2.474c.636.637,1.537,1.002,2.473,1.002h.001c.937,0,1.839-.365,2.475-1.001.662-.661,1.026-1.54,1.026-2.475s-.364-1.813-1.033-2.482l-2.467-2.414Zm1.061,5.956c-.265.264-.651.416-1.061.416h0c-.409,0-.795-.151-1.06-.417-.283-.282-.438-.658-.438-1.059s.154-.775.425-1.046l1.075-1.052,1.061,1.038c.283.284.439.66.439,1.061s-.156.777-.439,1.06Z"/>
</svg>
