<?xml version="1.0" encoding="UTF-8"?>
<svg xmlns="http://www.w3.org/2000/svg" id="Layer_1" data-name="Layer 1" viewBox="0 0 24 24">
  <path d="M18,3h-2.551c-.245-1.692-1.691-3-3.449-3s-3.204,1.308-3.449,3h-2.551C3.244,3,1,5.243,1,8v9c0,2.757,2.243,5,5,5h3v2h2v-2h2v2h2v-2h3c2.757,0,5-2.243,5-5V8c0-2.757-2.243-5-5-5Zm-6-1c.827,0,1.5,.673,1.5,1.5s-.673,1.5-1.5,1.5-1.5-.673-1.5-1.5,.673-1.5,1.5-1.5Zm6,18H6c-1.654,0-3-1.346-3-3v-7H15v-2H3c0-1.654,1.346-3,3-3h2.851c.564,1.178,1.758,2,3.149,2s2.584-.822,3.148-2h2.851c1.654,0,3,1.346,3,3h-4v2h4v2h-4v2h4v2h-4v2h3.816c-.414,1.161-1.514,2-2.816,2Z"/>
</svg>
