<?xml version="1.0" encoding="UTF-8"?>
<svg xmlns="http://www.w3.org/2000/svg" id="Layer_1" data-name="Layer 1" viewBox="0 0 24 24">
  <path d="M10.734,17.655l.786,2.297-.521,.372c-1.533-1.105-3.375-2.398-6.069-5.129C1.659,11.812,0,8.719,0,6,0,2.691,2.691,0,6,0c1.491,0,3.01,.67,4.168,1.839,.314,.317,.589,.661,.826,1.022,1.12-1.666,3.026-2.86,5.005-2.86,3.309,0,6,2.691,6,6,0,1.869-.807,3.77-1.971,5.547l-1.948-.666c1.166-1.674,1.918-3.357,1.918-4.881,0-2.206-1.794-4-4-4-1.992,0-4.022,2.019-4.022,4h0s0,.006,0,.009c-.498-.006-1.502-.011-2-.009,0-.003,0-.006,0-.009h0c.066-1.914-2.049-4.058-3.978-3.991-2.206,0-4,1.794-4,4-.45,3.246,5.708,9.627,8.734,11.655Zm8.121-.214l5.101,5.101-1.414,1.414-5.102-5.102-2.422,5.144-4.671-13.65,13.652,4.671-5.144,2.422Zm-2.465-1.051l2.29-1.078-5.119-1.751,1.751,5.119,1.078-2.29Z"/>
</svg>
