<svg id="Layer_1" viewBox="0 0 24 24" xmlns="http://www.w3.org/2000/svg" data-name="Layer 1"><path d="m6 3.5c0-1.381 1.119-2.5 2.5-2.5s2.5 1.119 2.5 2.5-1.119 2.5-2.5 2.5-2.5-1.119-2.5-2.5zm15 5.792v1.708l-6.282-.041-2.599-.764 1.881 5.643v8.162h-2v-7h-2.682l-3.885 7h-2.348l4.709-8.458-1.751-5.88c-.21-.776.018-1.571.586-2.101.569-.529 1.376-.701 2.111-.443l6.404 1.882h3.547l-2.975-6.832-1.826.775-.781-1.842 2.325-.986c.723-.305 1.571.026 1.893.742zm-11.218.216-1.653-.486-.137.004 1.739 5.975h1.882l-1.831-5.492z"/></svg>