<svg id="Layer_1" viewBox="0 0 24 24" xmlns="http://www.w3.org/2000/svg" data-name="Layer 1"><path d="m21 19v5h-2v-5c0-1.51-1.121-2.762-2.573-2.97l-4.403 5.022-4.427-5.022c-1.454.207-2.575 1.46-2.575 2.97v5h-2.001v-5c0-2.757 2.243-5 5-5h.452l3.546 4.023 3.527-4.023h.453c2.757 0 5 2.243 5 5zm-15-13c0-3.309 2.691-6 6-6s6 2.691 6 6-2.691 6-6 6-6-2.691-6-6zm10 0c0-1.092-.442-2.081-1.153-2.803-1.123 2.288-3.443 3.803-6.061 3.803-.221 0-.44-.03-.66-.051.429 1.747 1.997 3.051 3.874 3.051 2.206 0 4-1.794 4-4zm-7.843-1.049c.208.028.418.049.628.049 1.897 0 3.58-1.125 4.344-2.818-.361-.107-.735-.182-1.13-.182-1.84 0-3.379 1.256-3.843 2.951z"/></svg>