<?xml version="1.0" encoding="UTF-8"?>
<svg xmlns="http://www.w3.org/2000/svg" id="Layer_1" data-name="Layer 1" viewBox="0 0 24 24">
  <path d="M23.276,11.141c-1.18-2.706-2.294-5.262-3.476-6.722C17.362,1.163,13.489-.448,9.453,.106,4.457,.792,.501,4.946,.046,9.983c-.265,2.936,.622,5.793,2.497,8.045,.295,.354,.457,.802,.457,1.263v4.709h13v-3h2.247c1.5,0,2.778-1.121,2.974-2.606l.449-3.394h2.33v-2.212l-.724-1.647Zm-3.358,1.859l-.68,5.132c-.065,.495-.491,.868-.991,.868h-4.247v3H5v-2.709c0-.927-.327-1.831-.92-2.543-1.534-1.842-2.26-4.181-2.042-6.585,.372-4.118,3.604-7.514,7.687-8.075,3.311-.454,6.479,.865,8.498,3.559,1.034,1.279,2.146,3.828,3.221,6.293l.465,1.06h-1.99Zm-3.913-4.5c0-.827-.673-1.5-1.5-1.5H6.005v6H14.505c.827,0,1.5-.673,1.5-1.5v-.5h1v-2h-1v-.5Zm-2,2.5h-5v-2h5v2Z"/>
</svg>
