<svg id="Layer_1" viewBox="0 0 24 24" xmlns="http://www.w3.org/2000/svg" data-name="Layer 1"><path d="m19 2c0-1.105.895-2 2-2s2 .895 2 2-.895 2-2 2-2-.895-2-2zm-5 4c0 1.105.895 2 2 2s2-.895 2-2-.895-2-2-2-2 .895-2 2zm1 3c-1.103 0-2 .897-2 2v1h2v-1h2v1h2v-1c0-1.103-.897-2-2-2zm7.5-4h-2.641c.083.321.141.653.141 1s-.051.681-.137 1h2.137v1h2v-1.5c0-.828-.672-1.5-1.5-1.5zm-4.766 11.32 6.223 6.223-1.414 1.414-6.224-6.224c-1.723 1.413-3.921 2.267-6.319 2.267-5.514 0-10-4.486-10-10s4.486-10 10-10c2.243 0 4.308.751 5.978 2.002-.913.005-1.743.326-2.414.846-.788-.395-1.65-.663-2.558-.78v8.352l-5.896 5.897c1.354 1.051 3.048 1.683 4.891 1.683 2.953 0 5.532-1.613 6.918-4h2.242c-.368.84-.852 1.618-1.425 2.32zm-14.04-1.415 5.312-5.313v-7.523c-3.943.492-7.006 3.858-7.006 7.931 0 1.849.636 3.548 1.694 4.905z"/></svg>