<?xml version="1.0" encoding="UTF-8"?>
<svg xmlns="http://www.w3.org/2000/svg" id="Layer_1" data-name="Layer 1" viewBox="0 0 24 24">
  <path d="M14.666,20h-5.333l-.298-.331c-.667-.741-1.035-1.688-1.035-2.669,0-2.206,1.794-4,4-4s4,1.794,4,4c0,.98-.368,1.929-1.036,2.67l-.298,.33Zm-4.388-2h3.444c.181-.305,.278-.649,.278-1,0-1.103-.897-2-2-2s-2,.897-2,2c0,.351,.097,.695,.278,1Zm7.379,6H6.343l-.283-.249c-1.945-1.712-3.06-4.173-3.06-6.751,0-1.661,.453-3.266,1.315-4.676-1.557-3.288-2.315-5.523-2.315-6.824C2,3.446,3.299,0,12,0s10,3.446,10,5.5c0,1.299-.758,3.535-2.315,6.824,.862,1.411,1.315,3.016,1.315,4.676,0,2.577-1.115,5.038-3.06,6.751l-.283,.249Zm-10.544-2h9.774c1.347-1.316,2.113-3.118,2.113-5,.018-1.649-.61-3.207-1.617-4.503,1.832-3.525,2.788-6.881,2.617-6.997,0-3.159-5.595-3.5-8-3.5s-8,.341-8,3.5c0,.5,.788,3.484,2.617,6.997-1.006,1.296-1.635,2.854-1.617,4.503,0,1.882,.766,3.684,2.113,5ZM15.853,11.08c-2.406-1.402-5.3-1.402-7.706,0-1.204-2.497-2.018-4.643-2.253-5.834,1.453-1.554,10.605-1.644,12.203-.006-.223,1.179-1.044,3.356-2.244,5.84Zm-7.553-4.706c.173,.484,.44,1.167,.851,2.094,1.84-.622,3.858-.622,5.7,0,.41-.927,.676-1.61,.847-2.095-.687-.182-1.848-.373-3.697-.373s-3.013,.191-3.701,.374Z"/>
</svg>
