<svg id="Layer_1" viewBox="0 0 24 24" xmlns="http://www.w3.org/2000/svg" data-name="Layer 1"><path d="m8.347 8.659 1.663 4.02v6.32c0 2.757-2.243 5-5 5s-5-2.244-5-5.001v-13.499h2v13.499c0 1.654 1.346 3 3 3s3-1.346 3-3v-11.432c.084.367.19.733.337 1.093zm-2.337-5.659c0-.551.449-1 1-1s1 .449 1 1v1.439c.257-1.115.783-2.154 1.536-3.024-.531-.846-1.466-1.414-2.536-1.414-1.654 0-3 1.346-3 3v14.999h2zm7.679.224c1.533-.624 3.287.112 3.911 1.641l4.537 11.187 1.854-.752-4.538-11.189c-1.042-2.552-3.967-3.782-6.52-2.739-2.552 1.042-3.78 3.967-2.737 6.523l5.889 14.236c.578 1.506 2.431 2.283 3.912 1.643 1.531-.625 2.268-2.38 1.641-3.916l-5.512-13.315-1.848.765 5.51 13.311c.208.511-.037 1.096-.547 1.304-.496.214-1.112-.045-1.306-.552l-5.889-14.236c-.625-1.531.112-3.286 1.643-3.911z"/></svg>