<?xml version="1.0" encoding="UTF-8"?>
<svg xmlns="http://www.w3.org/2000/svg" id="Layer_1" data-name="Layer 1" viewBox="0 0 24 24">
  <path d="M23.018,8.785c-1.179-1.114-3.189-1.021-4.254,.199l-3.217,3.534c-.551-.909-1.551-1.519-2.689-1.519H3c-1.654,0-3,1.346-3,3v7c0,1.654,1.346,3,3,3H13.448l9.787-10.984c1.094-1.227,.996-3.124-.218-4.23Zm-1.275,2.899l-9.19,10.315H3c-.552,0-1-.448-1-1v-7c0-.552,.448-1,1-1H12.857c.63,0,1.143,.513,1.143,1.143,0,.564-.421,1.051-.98,1.13l-5.161,.737,.283,1.98,5.161-.737c1.175-.168,2.129-.988,2.514-2.059l4.426-4.864c.358-.408,1.034-.444,1.428-.066,.408,.371,.44,1.009,.072,1.421ZM3.5,9c-.522,0-1.022,.082-1.5,.219v-2.219c0-1.657,1.343-3,3-3h.899c-.662-.39-1.165-.75-1.179-.76-.795-.596-.956-1.725-.36-2.52,.596-.795,1.725-.956,2.52-.36,1.096,.821,1.507,2.267,1.62,2.913,.113-.646,.524-2.091,1.62-2.913,.795-.596,1.924-.435,2.52,.36,.596,.795,.435,1.924-.36,2.52-.013,.01-.517,.37-1.179,.76h.899c1.657,0,3,1.343,3,3v2.66c-.609-.324-1.285-.538-2-.62v-2.04c0-.552-.448-1-1-1h-2.5v3h-2v-3h-2.5c-.552,0-1,.448-1,1v2h-.5Z"/>
</svg>
