<svg id="Layer_1" viewBox="0 0 24 24" xmlns="http://www.w3.org/2000/svg" data-name="Layer 1"><path d="m21 5.5 3 2.5-4 3h-1v-3.243l-1.414 1.329-1.336-1.488 2.251-2.082-2.268-2.083 1.328-1.494 1.438 1.345v-3.284h1l4 3-3 2.5zm-.153 8.126 3.052 1.755-2.991 5.201-3.051-1.754c-.84.72-1.811 1.268-2.856 1.638v3.534h-6v-3.534c-1.046-.37-2.017-.918-2.857-1.638l-3.05 1.754-2.992-5.201 3.052-1.756c-.102-.544-.153-1.088-.153-1.625s.051-1.081.153-1.625l-3.052-1.756 2.991-5.201 3.05 1.754c.841-.721 1.81-1.279 2.857-1.649v-3.523h6v5.7c-.596-.305-1.346-.503-2-.662v-3.038h-2v3.036c-1.776.333-3.373 1.254-4.542 2.624l-2.629-1.512-.997 1.734 2.631 1.513c-.243.827-.482 1.766-.463 2.604-.019.838.221 1.778.463 2.604l-2.631 1.513.997 1.734 2.629-1.512c.722.788 1.561 1.522 2.542 1.961v-2.321c-1.246-.939-2-2.416-2-3.979 0-2.757 2.243-5 5-5s5 2.243 5 5c0 1.563-.754 3.04-2 3.979v2.321c.98-.438 1.82-1.173 2.542-1.961l2.629 1.512.997-1.734-2.632-1.514c.133-.479.322-1.117.384-1.604h2.015c-.024.208-.049.417-.088.626zm-7.35.955c.941-.548 1.503-1.513 1.503-2.581 0-1.302-.839-2.402-2-2.816v2.316c0 .552-.448 1-1 1s-1-.448-1-1v-2.316c-1.161.414-2 1.514-2 2.816-.03 1.293.858 2.332 2 2.87v7.13h2v-7.13z"/></svg>