<svg id="Layer_1" viewBox="0 0 24 24" xmlns="http://www.w3.org/2000/svg" data-name="Layer 1"><path d="m24 6c0-2.206-1.794-4-4-4-1.266 0-2.317.602-3.246 1.132-.781.446-1.52.868-2.254.868-1.524 0-2.517-.697-3.772-1.58-1.535-1.078-3.443-2.42-6.728-2.42h-4v2h2v20h-2v2h13v-2h-2.433c8.373-7.078 13.433-13.924 13.433-16zm-2-.011c-.034.42-.689 1.644-2 3.418v-5.407c1.103 0 2 .897 2 1.989zm-4.254-1.121c.086-.049.169-.094.254-.142v7.181c-.598.701-1.262 1.445-2 2.23v-8.425c.632-.224 1.213-.539 1.746-.844zm-3.746 11.312c-.628.618-1.294 1.251-2 1.899v-12.586c.596.249 1.253.423 2 .479v10.209zm-4-11.829v15.503c-.639.551-1.306 1.11-2 1.674v-18.5c.55.311 1.06.664 1.577 1.027.14.098.281.197.423.295zm-6-2.351c.76 0 1.411.089 2 .231v19.769h-2z"/></svg>