<?xml version="1.0" encoding="UTF-8"?>
<svg xmlns="http://www.w3.org/2000/svg" id="Layer_1" data-name="Layer 1" viewBox="0 0 24 24">
  <path d="M5.5,3.5c0-1.379,1.121-2.5,2.5-2.5s2.5,1.121,2.5,2.5-1.121,2.5-2.5,2.5-2.5-1.121-2.5-2.5Zm2,18.5c-3.033,0-5.5-2.467-5.5-5.5,0-2.132,1.222-3.981,3-4.893v-2.17c-2.908,1.033-5,3.804-5,7.062,0,4.136,3.364,7.5,7.5,7.5,3.258,0,6.03-2.092,7.062-5h-2.17c-.912,1.778-2.761,3-4.893,3ZM18,7h-2.086l2.086-2.086v-1.914h-5v2h2.086l-2.086,2.086v1.914h5v-2ZM24,0h-5V2h2.086l-2.086,2.086v1.914h5v-2h-2.086l2.086-2.086V0Zm-6.719,15h-7.281c-.551,0-1-.449-1-1v-1h6v-2h-6v-3h-2v6c0,1.654,1.346,3,3,3h5.719l1.5,6h3.781v-2h-2.219l-1.5-6Z"/>
</svg>
