<?xml version="1.0" encoding="UTF-8"?>
<svg xmlns="http://www.w3.org/2000/svg" id="Layer_1" data-name="Layer 1" viewBox="0 0 24 24">
  <path d="M18,18h6v2h-6v-2ZM8.25,6c-.69,0-1.25,.56-1.25,1.25s.56,1.25,1.25,1.25,1.25-.56,1.25-1.25-.56-1.25-1.25-1.25Zm-2.25,1.25c0-.69-.56-1.25-1.25-1.25s-1.25,.56-1.25,1.25,.56,1.25,1.25,1.25,1.25-.56,1.25-1.25Zm8,10.75H0v2H14v2h2v-6h-2v2Zm5.25-12c-.69,0-1.25,.56-1.25,1.25s.56,1.25,1.25,1.25,1.25-.56,1.25-1.25-.56-1.25-1.25-1.25Zm-2.25,1.25c0-.69-.56-1.25-1.25-1.25s-1.25,.56-1.25,1.25,.56,1.25,1.25,1.25,1.25-.56,1.25-1.25Zm.5,7.75c-2.317,0-4.349-1.222-5.5-3.052-1.151,1.83-3.183,3.052-5.5,3.052-3.584,0-6.5-2.916-6.5-6.5S2.916,2,6.5,2c2.317,0,4.349,1.222,5.5,3.052,1.151-1.83,3.183-3.052,5.5-3.052,3.584,0,6.5,2.916,6.5,6.5s-2.916,6.5-6.5,6.5Zm-6.5-6.5c0-2.481-2.019-4.5-4.5-4.5S2,6.019,2,8.5s2.019,4.5,4.5,4.5,4.5-2.019,4.5-4.5Zm11,0c0-2.481-2.019-4.5-4.5-4.5s-4.5,2.019-4.5,4.5,2.019,4.5,4.5,4.5,4.5-2.019,4.5-4.5Zm-5.561,1.061l-1.414,1.414c.683,.683,1.578,1.023,2.475,1.023s1.792-.341,2.475-1.023l-1.414-1.414c-.584,.584-1.537,.584-2.121,0Zm-12.415,.465l1.415,1.414c.565-.566,1.555-.566,2.12,0l1.415-1.414c-1.321-1.322-3.629-1.322-4.95,0Z"/>
</svg>
