<?xml version="1.0" encoding="UTF-8"?>
<svg xmlns="http://www.w3.org/2000/svg" id="Layer_1" data-name="Layer 1" viewBox="0 0 24 24">
  <path d="M11.631,17.716c.088-.55-.602-.873-.817-.959-.915-.371-1.751-.78-1.753-.78-.692-.484-1.027-1.231-.921-2.049,.111-.845,.674-1.534,1.471-1.796,1.324-.437,2.462,.317,2.863,.686l-.859,1.113c-.219-.166-.881-.602-1.611-.367-.412,.136-.517,.447-.515,.577,.005,.442,.335,.57,.433,.615,.282,.128,.806,.368,1.366,.595,1.461,.591,1.828,1.745,1.685,2.627-.191,1.175-1.215,2.028-2.436,2.028-.965,0-1.873-.413-2.506-1.136l1.009-1.006c.373,.406,.925,.646,1.497,.646,.604,0,1.031-.404,1.096-.795Zm10.236,.692v-6.401h-1.6v8h3.733v-1.599c-1.105,0-2.133,0-2.133,0Zm-2.867-.901c0,.398-.101,.769-.267,1.102l.998,.998-1.131,1.131-.998-.998c-.334,.165-.705,.267-1.102,.267-1.381,0-2.5-1.119-2.5-2.5v-3c0-1.381,1.119-2.5,2.5-2.5s2.5,1.119,2.5,2.5v3Zm-1.6-3c0-.496-.404-.9-.9-.9s-.9,.404-.9,.9v3c0,.496,.404,.9,.9,.9s.9-.404,.9-.9v-3ZM12.414,0l7.586,7.586v2.414h-2v-1h-7V2H3c-.552,0-1,.449-1,1V22H20v2H0V3C0,1.346,1.346,0,3,0H12.414Zm.586,7h3.586l-3.586-3.586v3.586Z"/>
</svg>
