<svg id="Layer_1" viewBox="0 0 24 24" xmlns="http://www.w3.org/2000/svg" data-name="Layer 1"><path d="m24 8.569v15.431h-24v-18c0-1.654 1.346-3 3-3h7.055c-.033.253-.055.51-.055.772 0 .419.06.827.147 1.228h-7.147c-.551 0-1 .448-1 1v.242l7.878 7.879c1.134 1.133 3.109 1.133 4.243 0l1.965-1.965c.117.077 1.733 1.095 1.733 1.095l-2.284 2.284c-.945.944-2.201 1.464-3.536 1.464s-2.591-.52-3.536-1.464l-6.464-6.466v12.929h20v-11.413c.673-.575 1.373-1.253 2-2.018zm-12-4.797c0-2.08 1.57-3.772 3.5-3.772.915 0 1.833.341 2.5 1.064.667-.724 1.585-1.064 2.5-1.064 1.93 0 3.5 1.692 3.5 3.772 0 3.359-4.908 6.543-5.468 6.895l-.532.335-.532-.335c-.56-.352-5.468-3.535-5.468-6.895zm2 0c0 1.681 2.573 3.839 4.002 4.846 1.73-1.206 3.998-3.304 3.998-4.846 0-.978-.673-1.772-1.5-1.772-.953 0-1.5.729-1.5 2h-2c0-1.271-.547-2-1.5-2-.827 0-1.5.795-1.5 1.772z"/></svg>