<?xml version="1.0" encoding="UTF-8"?>
<svg xmlns="http://www.w3.org/2000/svg" id="Layer_1" data-name="Layer 1" viewBox="0 0 24 24">
  <path d="M19,12v-1h5v-2h-5v-2h3V3c0-1.654-1.346-3-3-3H3C1.346,0,0,1.346,0,3V24H22v-2h-5c2.206,0,4-1.794,4-4v-4H11v4c0,2.206,1.794,4,4,4h-6V7h4v5h6Zm-6,6v-2h6v2c0,1.103-.897,2-2,2h-2c-1.103,0-2-.897-2-2Zm4-8h-2v-3h2v3ZM7,5V22H2V3c0-.551,.449-1,1-1H19c.551,0,1,.449,1,1v2H7Zm-1,1.5c0,.828-.672,1.5-1.5,1.5s-1.5-.672-1.5-1.5,.672-1.5,1.5-1.5,1.5,.672,1.5,1.5Z"/>
</svg>
