<?xml version="1.0" encoding="UTF-8"?>
<svg xmlns="http://www.w3.org/2000/svg" id="Layer_1" data-name="Layer 1" viewBox="0 0 24 24">
  <path d="M20.004,10.365l2.996-3.495v-1.87h-2.735L14,1.42V0h-2V1.42l-6.265,3.58h-1.735c-1.654,0-3,1.346-3,3v7H3v-7c0-.551,.449-1,1-1h1.131l1.869,7.131v1.719l-1.956,6.356-.044,1.794H21v-1.5l-2-6.65v-1.719l1.004-3.766ZM13,3.152l3.234,1.848h-6.469l3.234-1.848Zm-3.383,18.848h-2.417l1.761-6h1.406l-.75,6Zm-.617-8l-1.834-7h2.439l.778,7h-1.383Zm2.633,8l.75-6h1.234l.75,6h-2.735Zm1.972-8h-1.21l-.778-7h2.766l-.778,7Zm2.778,8l-.75-6h1.367l1.8,6h-2.417Zm.647-8h-1.413l.778-7h2.437l-1.802,7Z"/>
</svg>
