<?xml version="1.0" encoding="UTF-8"?>
<svg xmlns="http://www.w3.org/2000/svg" id="Layer_1" data-name="Layer 1" viewBox="0 0 24 24">
  <path d="M21.5,9.5h2.5v2c0,1.381-1.119,2.5-2.5,2.5s-2.5-1.119-2.5-2.5v-3c0-1.381,1.119-2.5,2.5-2.5s2.5,1.119,2.5,2.5h-1.6c0-.496-.404-.9-.9-.9s-.9,.404-.9,.9v3c0,.496,.404,.9,.9,.9s.9-.404,.9-.9v-.4h-.9v-1.6Zm-5.5,2.9h-2.5v1.6h2.5c1.381,0,2.5-1.119,2.5-2.5s-1.119-2.5-2.5-2.5h-.9v-1.4h2.9v-1.6h-4.5v4.6h2.5c.496,0,.9,.404,.9,.9s-.404,.9-.9,.9Zm-10.001,3.608h14v5c0,1.654-1.346,3-3,3H6.999c-1.654,0-3-1.346-3-3V.008H19.999v3.992h-2v-1.992H5.999v14Zm0,2v3c0,.552,.449,1,1,1h10c.552,0,1-.448,1-1v-3H5.999Zm8,1h-4v2h4v-2Z"/>
</svg>
