<svg id="Layer_1" viewBox="0 0 24 24" xmlns="http://www.w3.org/2000/svg" data-name="Layer 1"><path d="m9 22c-3.86 0-7-3.141-7-7v-4c0-.552.449-1 1-1h12c.551 0 1 .448 1 1v.14c.544-.082 1.096-.136 1.657-.136.115 0 .228.013.343.017v-.021c0-1.302-.839-2.402-2-2.816v-8.184h-14v8.184c-1.161.414-2 1.514-2 2.816v4c0 4.963 4.038 9 9 9 1.925 0 3.707-.613 5.172-1.646.013-.299.067-.585.15-.86l-.999-.999c-1.192.94-2.691 1.505-4.323 1.505zm5-20v6h-10v-6zm3.657 15c1.335 0 2.591.521 3.535 1.465l-1.414 1.414c-1.134-1.134-3.109-1.132-4.243 0l-1.414-1.414c.944-.944 2.2-1.465 3.536-1.465zm6.363-1.364-1.414 1.414c-2.729-2.729-7.17-2.729-9.899 0l-1.414-1.414c3.509-3.51 9.219-3.51 12.728 0zm-4.864 6.864c0 .828-.672 1.5-1.5 1.5s-1.5-.672-1.5-1.5.672-1.5 1.5-1.5 1.5.672 1.5 1.5zm-11.156-16.5h-2v-2h2zm4 0h-2v-2h2z"/></svg>