<svg id="Layer_1" viewBox="0 0 24 24" xmlns="http://www.w3.org/2000/svg" data-name="Layer 1"><path d="m22.641 3.885c.219.32.359.698.359 1.115 0 .872-.564 1.607-1.344 1.88.217.32.344.705.344 1.12 0 1.103-.897 2-2 2h-5.745c.747-.649 1.372-1.324 1.887-2h2.521c.386-.63.732-1.314 1.029-2h-2.322c.41-.773.706-1.47.903-2h2.165c.257-.811.426-1.512.507-2h-3.443c-.43 0-.752.248-.886.679-.135.919-1.857 4.805-4.614 6.604-2.76-1.803-4.476-5.679-4.614-6.603-.134-.433-.457-.68-.886-.68h-3.445c.081.488.249 1.189.507 2h2.165c.197.53.493 1.227.903 2h-2.322c.297.686.642 1.37 1.029 2h2.521c.514.676 1.14 1.351 1.887 2h-5.747c-1.103 0-2-.897-2-2 0-.414.127-.8.344-1.12-.78-.273-1.344-1.008-1.344-1.88 0-.417.14-.795.359-1.115-.788-.269-1.359-1.008-1.359-1.885 0-1.103.897-2 2-2h4.5c1.307 0 2.405.82 2.797 2.089.226.73.871 2.812 2.703 4.58 1.833-1.768 2.477-3.849 2.704-4.581.392-1.269 1.489-2.088 2.796-2.088h4.5c1.103 0 2 .897 2 2 0 .878-.572 1.617-1.359 1.885zm-3.641 11.115v9h-14v-9c0-1.654 1.346-3 3-3h8c1.654 0 3 1.346 3 3zm-2 0c0-.552-.449-1-1-1h-8c-.551 0-1 .448-1 1v7h10zm-7 3h4v-2h-4z"/></svg>