<?xml version="1.0" encoding="UTF-8"?>
<svg xmlns="http://www.w3.org/2000/svg" id="Layer_1" data-name="Layer 1" viewBox="0 0 24 24">
  <path d="M21.637,17.663l-5.996-5.997-.53,.53-1.697-1.697,1.735-1.736,.53,.53,5.958-5.958-2.475-2.475-2.774,2.774L12-.02,7.612,3.637,4.837,.863,2.363,3.337l5.958,5.958,.53-.53,1.735,1.736-1.697,1.697-.53-.53-5.996,5.997,1.133,1.133-.623,5.204H21.127l-.623-5.204,1.133-1.133ZM10.265,7.351l.53-.53-1.763-1.763,2.968-2.473,2.968,2.473-1.763,1.763,.53,.53-1.735,1.736-1.735-1.736Zm3.735,14.649v-3c0-1.105-.895-2-2-2s-2,.895-2,2v3H5.127l.292-2.444,5.414-5.414-.53-.53,1.697-1.697,1.697,1.697-.53,.53,5.414,5.414,.292,2.444h-4.873Zm3.477-11.674l1.799-1.799,.536,4.482-2.288-2.289-.047-.394Zm-10.953,0l-.047,.394-2.288,2.289,.536-4.482,1.799,1.799Z"/>
</svg>
