<?xml version="1.0" encoding="UTF-8"?>
<svg xmlns="http://www.w3.org/2000/svg" id="Layer_1" data-name="Layer 1" viewBox="0 0 24 24">
  <path d="M24.009,22.632c-.759,.87-1.855,1.368-3.009,1.368-1.193,0-2.267-.525-3-1.357-.733,.832-1.807,1.357-3,1.357s-2.267-.525-3-1.357c-.733,.832-1.807,1.357-3,1.357s-2.267-.525-3-1.357c-.733,.832-1.807,1.357-3,1.357-1.153,0-2.25-.499-3.009-1.368l1.506-1.315c.38,.435,.928,.684,1.503,.684,1.103,0,2-.897,2-2h2c0,1.103,.897,2,2,2s2-.897,2-2h2c0,1.103,.897,2,2,2s2-.897,2-2h2c0,1.103,.897,2,2,2,.575,0,1.123-.249,1.503-.684l1.506,1.315ZM2.329,18c-.207-.801-.329-1.635-.329-2.5v-1.5h2.701L7.202,3h2.798v-1c0-1.105,.895-2,2-2s2,.895,2,2v1h2.798l2.501,11h2.701v1.5c0,.865-.122,1.699-.329,2.5h-2.047s.324-1.51,.358-2H4.017c.034,.49,.361,2,.361,2H2.329Zm12.426-4l-2.755-3.061-2.755,3.061h5.51Zm.879-7.099l-2.289,2.543,3.835,4.261-1.546-6.804Zm-.979-1.901h-5.31l2.655,2.95,2.655-2.95ZM6.82,13.705l3.835-4.261-2.289-2.543-1.546,6.804Z"/>
</svg>
