<?xml version="1.0" encoding="UTF-8"?>
<svg xmlns="http://www.w3.org/2000/svg" id="Layer_1" data-name="Layer 1" viewBox="0 0 24 24">
  <path d="M16,14h-3.729l-1.714-1h-2.556c-1.103,0-2,.897-2,2v9h12v-8c0-1.103-.897-2-2-2Zm-8,8v-5h8v5H8Zm5.949-10c.033-.162,.051-.329,.051-.5,0-1.378-1.122-2.5-2.5-2.5-.674,0-1.305,.279-1.764,.736l1.264,1.264h-3.429c-.316,0-.571-.256-.571-.571v-3.429l1.325,1.325c.827-.823,1.962-1.325,3.175-1.325,2.481,0,4.5,2.019,4.5,4.5,0,.171-.032,.334-.051,.5h-2Zm10.051,.5c0,2.872-1.624,5.369-4,6.628v-2.389c1.221-1.01,2-2.535,2-4.239,.024-3.294-2.817-5.719-6.042-5.52-.586-2.82-3.032-5.002-5.958-4.98-3.309,0-6,2.691-6,6-.028,1.024,.33,2.039,.711,2.972-1.491,.59-2.756,1.832-2.711,3.528,0,1.519,.839,2.802,2,3.285v2.104c-2.279-.511-4-2.733-4-5.389,0-1.786,.85-3.425,2.266-4.45-.177-.666-.266-1.352-.266-2.05C2,3.589,5.589,0,10,0c3.281,0,6.246,2.048,7.44,5.059,3.73,.459,6.56,3.604,6.56,7.441Z"/>
</svg>
