<?xml version="1.0" encoding="UTF-8"?>
<svg xmlns="http://www.w3.org/2000/svg" id="Layer_1" data-name="Layer 1" viewBox="0 0 24 24">
  <path d="m24,15.612v2.388h-2.18l-.518,2.588c-.279,1.397-1.517,2.412-2.942,2.412h-1.36v1h-2v-3h3.36c.475,0,.888-.338.981-.804l.839-4.196h1.805l-.44-1.005c-.869-1.994-1.766-4.055-2.593-5.077-1.651-2.204-4.336-3.269-7.037-2.81-2.79.475-5.092,2.647-5.73,5.405-.5,2.165.059,4.286,1.533,5.819.827.859,1.282,2.046,1.282,3.341v2.327h-2v-2.327c0-.764-.264-1.477-.723-1.954-1.952-2.03-2.696-4.821-2.04-7.657.817-3.534,3.769-6.317,7.343-6.926,3.44-.587,6.87.776,8.95,3.553.974,1.203,1.885,3.293,2.849,5.506l.622,1.416Zm-8-.612c1.105,0,2-.895,2-2s-.895-2-2-2c0-.828-.672-1.5-1.5-1.5-.269,0-.517.076-.735.2-.266-.42-.731-.7-1.265-.7-.693,0-1.27.472-1.442,1.11-.173-.069-.36-.11-.558-.11-.828,0-1.5.672-1.5,1.5,0,.123.019.24.047.355-.628.399-1.047,1.096-1.047,1.895,0,1.243,1.007,2.25,2.25,2.25h.75v5h2v-6h3Zm-3.538-12.032L12.045-.003l-1.98.277.417,2.971,1.98-.277Zm-4.897,1.417l-1.707-2.467-1.645,1.138,1.707,2.468,1.645-1.139ZM.278,8.071l2.622,1.458.973-1.748-2.623-1.458-.972,1.748ZM18.473,1.075l-1.893-.646-.97,2.839,1.893.646.97-2.839Zm5.146,3.748l-1.412-1.416-2.124,2.118,1.412,1.416,2.124-2.118Z"/>
</svg>
