<svg id="Layer_1" viewBox="0 0 24 24" xmlns="http://www.w3.org/2000/svg" data-name="Layer 1"><path d="m15 8c0-.552.448-1 1-1s1 .448 1 1-.448 1-1 1-1-.448-1-1zm-1-4c-.552 0-1 .448-1 1s.448 1 1 1 1-.448 1-1-.448-1-1-1zm-8.194 8.256c-.513-.973-.806-2.08-.806-3.256 0-3.866 3.134-7 7-7s7 3.134 7 7c0 1.179-.294 2.288-.809 3.262l2.48-.884c.208-.759.329-1.554.329-2.378 0-4.963-4.038-9-9-9s-9 4.037-9 9c0 .824.121 1.619.329 2.378zm18.194.744c-2.966 1.055-5.236 4.277-5.698 7.391-.082.548-.146 1.083-.202 1.609h-1.934c.544-3.04 1.53-5.562 3.335-8-2.872 1.024-5.019 4.477-5.361 7.508-.02.173-.03.326-.046.492h-2.057c.178-2.991 1.16-5.296 2.963-8-2.25.802-4.05 3.095-4.89 5.507-.776-2.385-2.488-4.751-4.61-5.507 1.575 2.521 2.716 5.304 2.95 8h-2.55c-.057-.526-.121-1.061-.202-1.609-.463-3.114-2.733-6.335-5.698-7.391 2.701 2.701 3.732 5.967 3.949 9h-3.949v2h24v-2h-3.952c.232-3.506 1.667-6.258 3.952-9zm-13-5c0 .552.448 1 1 1s1-.448 1-1-.448-1-1-1-1 .448-1 1z"/></svg>