<svg id="Layer_1" viewBox="0 0 24 24" xmlns="http://www.w3.org/2000/svg" data-name="Layer 1"><path d="m6.5 14.3v3.4c0 1.269 1.031 2.3 2.3 2.3s2.3-1.031 2.3-2.3v-3.4c0-1.269-1.031-2.3-2.3-2.3s-2.3 1.031-2.3 2.3zm3 0v3.4c0 .386-.314.7-.7.7s-.7-.314-.7-.7v-3.4c0-.386.314-.7.7-.7s.7.314.7.7zm5.263-2.3h-2.263v8h2.588c1.319 0 2.388-1.069 2.388-2.388 0-.715-.32-1.349-.818-1.786.305-.401.493-.895.493-1.438 0-1.319-1.069-2.388-2.388-2.388zm-.671 1.592h.671c.44 0 .796.356.796.796s-.356.796-.796.796h-.671zm.996 4.816h-.996v-1.592h.996c.44 0 .796.356.796.796s-.356.796-.796.796zm7.912-6.408v5.7c0 1.269-1.031 2.3-2.3 2.3s-2.3-1.031-2.3-2.3v-.7h1.6v.7c0 .386.314.7.7.7s.7-.314.7-.7v-5.7zm-20-9c0-.551.449-1 1-1h8v7h7v1h2v-2.414l-7.586-7.586h-9.414c-1.654 0-3 1.346-3 3v21h20v-2h-18zm11 .414 3.586 3.586h-3.586z"/></svg>