<?xml version="1.0" encoding="UTF-8"?>
<svg xmlns="http://www.w3.org/2000/svg" id="Layer_1" data-name="Layer 1" viewBox="0 0 24 24">
  <path d="M3.5,2.5c0-1.381,1.119-2.5,2.5-2.5s2.5,1.119,2.5,2.5-1.119,2.5-2.5,2.5-2.5-1.119-2.5-2.5Zm14.5,2.5c1.381,0,2.5-1.119,2.5-2.5s-1.119-2.5-2.5-2.5-2.5,1.119-2.5,2.5,1.119,2.5,2.5,2.5Zm-5.471,8.849l-.529,.33-.529-.33c-.458-.286-4.471-2.87-4.471-5.648,0-1.765,1.346-3.2,3-3.2,.752,0,1.461,.311,2,.806,.539-.495,1.248-.806,2-.806,1.654,0,3,1.436,3,3.2,0,2.778-4.013,5.362-4.471,5.648Zm2.471-5.648c0-.662-.448-1.2-1-1.2s-1,.547-1,1h-2c0-.453-.446-1-1-1s-1,.538-1,1.2c0,1.062,1.613,2.617,3,3.598,1.387-.98,3-2.536,3-3.598Zm8.133,11.8l-1.421-11.372h0s0,0,0,0c-.175-1.408-1.32-2.478-2.711-2.603v-.025h-.487c.283,.626,.451,1.315,.472,2.047,.386,.102,.69,.418,.742,.829,0,.001,0,.002,.001,.003l1.139,9.121h-5.734l.495-3.959c-.829,.711-1.604,1.232-2.04,1.505l-.178,.111-.543,4.343h2.133v4h2v-4h2v4h2v-4h2.133Zm-12.72-4.454c-.436-.272-1.211-.794-2.04-1.505l.495,3.959H3.133l1.14-9.122s0-.001,0-.002c.052-.412,.356-.727,.742-.829,.021-.731,.188-1.421,.472-2.047h-.487v.025c-1.39,.125-2.536,1.195-2.711,2.603h0s0,0,0,0L.867,20H3v4h2v-4h2v4h2v-4h2.133l-.543-4.343-.178-.111Z"/>
</svg>
