<svg id="Layer_1" viewBox="0 0 24 24" xmlns="http://www.w3.org/2000/svg" data-name="Layer 1"><path d="m24 12.849c0-.705-.146-1.389-.431-2.03l-3.128-7.037c-.481-1.082-1.558-1.781-2.741-1.781h-7.7v2h2v6h-6v2h15.862c.082.275.138.557.138.849v4.151h-20v-3h-2v5h2v.5c0 1.93 1.57 3.5 3.5 3.5s3.5-1.57 3.5-3.5v-.5h6v.5c0 1.93 1.57 3.5 3.5 3.5s3.5-1.57 3.5-3.5v-.5h2v-6.151zm-17 6.651c0 .827-.673 1.5-1.5 1.5s-1.5-.673-1.5-1.5v-.5h3zm13 0c0 .827-.673 1.5-1.5 1.5s-1.5-.673-1.5-1.5v-.5h3zm-6-15.5h3.7c.395 0 .754.233.914.594l2.403 5.406h-7.017zm-6 0h-8v-2h8zm-2 4h-6v-2h6zm-2 4h-4v-2h4z"/></svg>