<svg id="Layer_1" viewBox="0 0 24 24" xmlns="http://www.w3.org/2000/svg" data-name="Layer 1"><path d="m18.563 13h-2.981l.973-4h-1.927c-1.252.036-2.237-1.292-1.84-2.479l2.635-6.521h6.547l-1.4 3h1.523c1.473-.048 2.442 1.757 1.588 2.958zm.536-6-.68 2.797 3.522-4.846-4.512.049 1.4-3h-2.059l-2.037 5.031zm1.336 6.826c-1.139 3.072-2.752 6.107-4.003 8.174h-1.432v-7c0-1.654-1.346-3-3-3s-3 1.346-3 3v7h-1.432c-2.654-4.481-5.568-10.251-5.568-16 0-.163.045-4 4-4 1.509 0 2.449.272 3.358.536.787.228 1.601.464 2.642.464.019 0 .036-.003.055-.003l.843-2.085c-.286.052-.575.088-.897.088-.757 0-1.343-.17-2.085-.385-.945-.274-2.122-.615-3.915-.615-4.747 0-6.001 3.925-6.001 6 .021 6.697 3.431 13.022 6.434 18h4.566v-9c0-.552.449-1 1-1s1 .448 1 1v9h4.566c2.231-3.538 5.342-9.51 6.174-14.723z"/></svg>