<svg id="Layer_1" viewBox="0 0 24 24" xmlns="http://www.w3.org/2000/svg" data-name="Layer 1"><path d="m3 22c-.551 0-1-.448-1-1s.449-1 1-1h7.262c-.165-.64-.262-1.308-.262-2h-4v-16h12v8c.692 0 1.36.097 2 .262v-8.262c0-1.103-.897-2-2-2h-15c-1.654 0-3 1.346-3 3v18c0 1.654 1.346 3 3 3h9.721c-.65-.572-1.205-1.246-1.642-2zm0-20h1v16h-1c-.352 0-.686.072-1 .184v-15.184c0-.551.449-1 1-1zm15 10c-3.314 0-6 2.686-6 6s2.686 6 6 6 6-2.686 6-6-2.686-6-6-6zm3.94 6.6h-6.254c.268 1.032 1.2 1.8 2.315 1.8.306 0 1.538.008 3.162.018-.726.958-1.865 1.582-3.162 1.582-2.209 0-4-1.791-4-4s1.791-4 4-4c1.862 0 3.413 1.278 3.859 3 .141.507.185 1.075.081 1.6zm-1.765-1.6h-4.35c.381-.824 1.209-1.4 2.175-1.4s1.794.576 2.175 1.4z"/></svg>