<?xml version="1.0" encoding="UTF-8"?>
<svg xmlns="http://www.w3.org/2000/svg" id="Layer_1" data-name="Layer 1" viewBox="0 0 24 24">
  <path d="M11,14h2v3h-2v-3Zm10.5-1.819c0,5.18-6.855,10.018-8.957,11.377l-.542,.351-.543-.35c-2.693-1.738-8.958-6.324-8.958-11.377,0-2.638,1.963-4.806,4.5-5.174v-2.007C7,2.243,9.243,0,12,0s5,2.243,5,5v2.007c2.537,.368,4.5,2.536,4.5,5.174ZM9,7.089c1.205,.308,2.272,1.044,3,2.016,.728-.971,1.795-1.707,3-2.016v-2.089c0-1.654-1.346-3-3-3s-3,1.346-3,3v2.089Zm10.5,5.091c0-1.792-1.458-3.25-3.25-3.25-1.83,0-3.25,1.65-3.25,3.069h-2c0-1.419-1.42-3.069-3.25-3.069-1.792,0-3.25,1.458-3.25,3.25,0,3.17,3.777,6.831,7.499,9.339,3.723-2.514,7.501-6.179,7.501-9.339Z"/>
</svg>
