<svg id="Layer_1" viewBox="0 0 24 24" xmlns="http://www.w3.org/2000/svg" data-name="Layer 1"><path d="m13 6c-2.206 0-4 1.794-4 4v3.983c0 2.206 1.794 4 4 4s4-1.794 4-4v-3.983c0-2.206-1.794-4-4-4zm2 7.983c0 1.103-.897 2-2 2s-2-.897-2-2v-3.983c0-1.103.897-2 2-2s2 .897 2 2zm8.971 1.989c-.191 1.175-1.215 2.028-2.436 2.028-.965 0-1.873-.413-2.506-1.136l1.009-1.006c.373.406.925.646 1.497.646.604 0 1.031-.404 1.096-.795.088-.55-.602-.873-.817-.959-.915-.371-1.751-.78-1.753-.78-.692-.484-1.027-1.231-.921-2.049.111-.845.674-1.534 1.471-1.796 1.324-.437 2.462.317 2.863.686l-.859 1.113c-.219-.166-.881-.602-1.611-.367-.412.136-.517.447-.515.577.005.442.335.57.433.615.282.128.806.368 1.366.595 1.461.591 1.828 1.745 1.685 2.627zm-4.471-6.972h-1.5v-3h2zm-15.5-3c-2.206 0-4 1.794-4 4s1.794 4 4 4c.732 0 1.409-.212 2-.556v.556c0 1.103-.897 2-2 2h-3v2h3c2.206 0 4-1.794 4-4v-4c0-2.206-1.794-4-4-4zm0 6c-1.103 0-2-.897-2-2s.897-2 2-2 2 .897 2 2-.897 2-2 2z"/></svg>