<svg id="Layer_1" viewBox="0 0 24 24" xmlns="http://www.w3.org/2000/svg" data-name="Layer 1"><path d="m13 22h7v2h-16v-2h7v-8h2zm11-8.169v.669c0 2.481-2.019 4.5-4.5 4.5s-4.5-2.019-4.5-4.5v-.67l3.791-10.83h1.445l3.765 10.831zm-6.591-.831h4.184l-2.085-5.999zm4.54 2h-4.899c.232 1.14 1.242 2 2.449 2s2.217-.86 2.449-2zm-17.449 4c-2.481 0-4.5-2.019-4.5-4.5v-.67l3.791-10.83h1.445l3.765 10.831v.669c0 2.481-2.019 4.5-4.5 4.5zm-2.091-6h4.184l-2.085-5.999zm2.091 4c1.207 0 2.217-.86 2.449-2h-4.898c.232 1.14 1.242 2 2.449 2zm8.5-8h-2c-.551 0-1-.449-1-1h-2c0 1.654 1.346 3 3 3v1h2v-1c1.654 0 3-1.346 3-3 0-1.36-.974-2.51-2.315-2.733l-3.042-.507c-.373-.062-.644-.382-.644-.76 0-.551.449-1 1-1h2c.551 0 1 .449 1 1h2c0-1.654-1.346-3-3-3v-1h-2v1c-1.654 0-3 1.346-3 3 0 1.36.974 2.51 2.315 2.733l3.042.507c.373.062.644.382.644.76 0 .551-.449 1-1 1z"/></svg>