<?xml version="1.0" encoding="UTF-8"?>
<svg xmlns="http://www.w3.org/2000/svg" id="Layer_1" data-name="Layer 1" viewBox="0 0 24 24">
  <path d="M23.756,14.394l.264-.791c-.422-.226-.684-.397-1.208-.633,2.178-2.522,.81-6.805,.547-7.917-.285,.108-1.044,.361-1.333,.5-.045-3.207-4.25-5.113-5.251-5.513l-.38,.985c-.063,.165-1.412,3.803,.794,7.418,.138,.917,.199,1.803,.188,2.65-.001,.004-.003,.008-.004,.012h.004c-.035,2.619-.771,4.861-2.155,6.47-1.083,1.259-2.312,1.832-3.212,1.987-.9-.155-2.129-.728-3.212-1.987-1.384-1.608-2.119-3.851-2.155-6.468h.004c-.001-.005-.003-.009-.004-.013-.011-.846,.05-1.731,.187-2.648,2.208-3.616,.858-7.255,.795-7.42L7.247,.04C6.259,.428,2.03,2.357,1.996,5.553c-.284-.137-1.055-.395-1.334-.5-.262,1.094-1.627,5.397,.542,7.91-.538,.241-.794,.409-1.224,.64l.264,.791c.032,.095,.665,1.915,2.693,3.221-1.051,.978-.887,.956-1.417,1.71,.883,.846,1.222,1.68,4.093,2.596-.231,.526-.39,1.076-.556,1.545,1.602,.469,4.829,.916,6.954-.041,2.128,.957,5.35,.511,6.954,.041-.169-.474-.323-1.013-.556-1.545,2.874-.918,3.206-1.747,4.093-2.596-.533-.758-.366-.733-1.426-1.718,2.018-1.305,2.649-3.118,2.68-3.213Zm-4.432-2.371c.013-.188,.033-.373,.04-.564,.597-1.847,1.721-2.953,2.567-3.551,.108,.934,.14,2.209-.26,3.247-.167,.436-.725,.828-1.257,1.037-.343-.073-.709-.128-1.089-.169Zm-1.336-9.103c.676,.459,1.496,1.153,1.91,2.02,.404,.844-.23,2.057-.773,2.823-1.263-1.81-1.296-3.677-1.137-4.843ZM4.123,4.94c.417-.872,1.236-1.565,1.91-2.022,.161,1.167,.127,3.034-1.136,4.845-.543-.767-1.178-1.979-.774-2.823Zm-1.771,6.216c-.399-1.038-.369-2.312-.261-3.246,.846,.599,1.972,1.706,2.568,3.55,.006,.19,.026,.374,.039,.56-.383,.041-.752,.096-1.097,.169-.53-.21-1.083-.6-1.249-1.034Zm.227,3.404c.593-.221,1.438-.462,2.384-.556,.152,.714,.368,1.387,.628,2.03-.267,.107-.517,.217-.751,.334-1.165-.5-1.867-1.242-2.261-1.808Zm1.653,4.569c.456-.401,1.205-.906,2.267-1.303,.275,.418,.566,.824,.909,1.185-.297,.363-.557,.719-.782,1.062-1.005-.128-1.847-.561-2.394-.944Zm3.59,2.826c.253-.466,.616-1.034,1.08-1.61,.812,.572,1.679,.963,2.542,1.144-1.062,.531-2.522,.565-3.622,.467Zm4.758-.467c.863-.181,1.731-.572,2.543-1.144,.464,.576,.826,1.145,1.08,1.61-1.102,.098-2.561,.064-3.622-.467Zm4.818-1.416c-.225-.343-.485-.699-.782-1.062,.343-.361,.634-.766,.909-1.185,1.062,.397,1.811,.902,2.267,1.302-.547,.384-1.389,.816-2.394,.944Zm1.777-3.71c-.232-.115-.478-.224-.742-.329,.26-.642,.475-1.315,.627-2.028,.937,.096,1.774,.335,2.362,.554-.393,.565-1.092,1.304-2.248,1.803ZM10,8c0-1.103,.897-2,2-2s2,.897,2,2-.897,2-2,2-2-.897-2-2Zm.5,7h-2v-1.5c0-1.378,1.122-2.5,2.5-2.5h2c1.379,0,2.5,1.122,2.5,2.5v1.5h-2v-1.5c0-.276-.225-.5-.5-.5h-2c-.276,0-.5,.224-.5,.5v1.5Z"/>
</svg>
