<svg id="Layer_1" viewBox="0 0 24 24" xmlns="http://www.w3.org/2000/svg" data-name="Layer 1"><path d="m18.5 13c.561 0 1.106-.066 1.632-.183-.638 1.46-1.592 2.84-2.783 3.924-.001.001-.003.001-.004.003-1.334 1.213-2.819 1.947-4.344 2.174v5.083h-2v-5.078c-4.511-.665-8-5.7-8-9.922-1.654 0-3-1.346-3-3v-6.001h1.999v6c0 .552.449 1 1 1h.332c.737-2.123 2.748-3.42 6.041-3.843.58-.084 1.442-.126 2.055-.138-.223.637-.362 1.311-.405 2.013-.451.008-.952.05-1.396.109-4.627.594-4.627 2.882-4.627 3.858 0 3.526 3.296 8 7 8 1.726 0 3.128-.945 4.001-1.738 0 0 .001-.002.002-.003.715-.65 1.33-1.444 1.819-2.294.224.02.449.034.678.034zm3.858-8.5h1.642v2h-1.642c-.094.363-.238.704-.425 1.019l.489.489c.852-.065 1.582.643 1.578 1.492 0 .828-.672 1.5-1.5 1.5-.849.004-1.557-.726-1.492-1.578l-.489-.489c-.316.186-.656.33-1.019.425v1.642h-2v-1.642c-.363-.094-.704-.238-1.019-.425l-.489.489c.065.852-.643 1.582-1.492 1.578-.828 0-1.5-.672-1.5-1.5-.004-.849.726-1.557 1.578-1.492l.489-.489c-.186-.316-.33-.656-.425-1.019h-1.642v-2h1.642c.094-.363.238-.704.425-1.019l-.489-.489c-.852.065-1.582-.643-1.578-1.492 0-.828.672-1.5 1.5-1.5.849-.004 1.557.726 1.492 1.578l.489.489c.316-.186.656-.33 1.019-.425v-1.642h2v1.642c.363.094.704.238 1.019.425l.489-.489c-.065-.852.643-1.582 1.492-1.578.828 0 1.5.672 1.5 1.5.004.849-.726 1.557-1.578 1.492l-.489.489c.186.316.33.656.425 1.019zm-1.858 1c0-1.103-.897-2-2-2s-2 .897-2 2 .897 2 2 2 2-.897 2-2z"/></svg>