<svg id="Layer_1" viewBox="0 0 24 24" xmlns="http://www.w3.org/2000/svg" data-name="Layer 1"><path d="m2 19v-16c0-.552.449-1 1-1h2v6h11v-5.086l3 3v2.316c.7.16 1.37.4 2 .72v-3.864l-5.086-5.086h-12.914c-1.654 0-3 1.346-3 3v18h8.95c-.31-.63-.56-1.3-.72-2zm5-13v-4h7v4zm10.5 5c-3.59 0-6.5 2.91-6.5 6.5s2.91 6.5 6.5 6.5 6.5-2.91 6.5-6.5-2.91-6.5-6.5-6.5zm0 11c-1.37 0-2.581-.627-3.402-1.598l-1.098 1.098v-3c0-.276.224-.5.5-.5h3l-1 1h.013c.457.603 1.174 1 1.987 1s1.531-.397 1.987-1h2.236c-.621 1.742-2.271 3-4.224 3zm4.5-5.5c0 .276-.224.5-.5.5h-3l1-1h-.013c-.457-.603-1.174-1-1.987-1s-1.531.397-1.987 1h-2.236c.621-1.742 2.271-3 4.224-3 1.37 0 2.581.627 3.402 1.598l1.098-1.098v3zm-12.958.173c-1.202-.554-2.042-1.762-2.042-3.173 0-1.933 1.567-3.5 3.5-3.5.746 0 1.434.237 2.002.635-1.91 1.393-3.221 3.556-3.46 6.038z"/></svg>