<svg id="Layer_1" viewBox="0 0 24 24" xmlns="http://www.w3.org/2000/svg" data-name="Layer 1"><path d="m19 22h2v2h-2zm3-1h2v-2h-2zm-3 0h2v-2h-2zm-6-8h5v5h-5zm2 3h1v-1h-1zm-2 3h5v5h-5zm2 3h1v-1h-1zm9-9v5h-5v-5zm-2 2h-1v1h1zm-11-11v1.137c1.747.441 3.049 1.993 3.1 3.863h.9v2h-10v-2h.9c.051-1.87 1.353-3.422 3.1-3.863v-1.137zm-1 3c-1.127 0-2.051.887-2.108 2h4.217c-.058-1.113-.981-2-2.108-2zm10 4v-9c0-1.103-.897-2-2-2h-15c-1.654 0-3 1.346-3 3v18c0 1.654 1.346 3 3 3h8v-2h-8c-.552 0-1-.449-1-1s.448-1 1-1h8v-2h-8c-.352 0-.686.072-1 .184v-15.184c0-.551.448-1 1-1h15v9z"/></svg>