<svg id="Layer_1" viewBox="0 0 24 24" xmlns="http://www.w3.org/2000/svg" data-name="Layer 1"><path d="m5.057 17.069c.107.65.273 1.27.474 1.863-3.274-1.644-5.531-5.026-5.531-8.932 0-5.514 4.486-10 10-10s10 4.486 10 10c0 .746-.089 1.471-.244 2.171-.375-.101-.759-.169-1.156-.169h-.863c.166-.641.264-1.31.264-2.002 0-4.411-3.589-8-8-8s-8.001 3.589-8.001 8c0 2.526 1.179 4.778 3.013 6.245-.008.274-.001.55.044.825zm18.943 2.645c0 1.781-1.557 3.286-3.4 3.286h-2.733c-.574.669-.555.622-.931 1h-5.718c-.461-.495-3.385-2.967-4.188-7.255-.109-.668.084-1.353.53-1.878.468-.552 1.149-.867 1.87-.867l9.168.002c.733 0 1.424.324 1.895.89.441.53.624 1.214.502 1.875-.016.086-.039.17-.057.255 1.892.11 3.061 1.113 3.061 2.692zm-4.971-3.311c.038-.218-.225-.407-.43-.401l-9.168-.002c-.221.007-.452.164-.427.421.432 2.623 2.322 4.833 3.026 5.579h4.058c.682-.769 2.457-2.975 2.941-5.597zm2.971 3.311c0-.474-.471-.714-1.4-.714h-.277c-.303.734-.658 1.406-1.02 2h1.298c.746 0 1.4-.601 1.4-1.286zm-11-15.714h-2v5h-3v2h5z"/></svg>