<svg id="Layer_1" viewBox="0 0 24 24" xmlns="http://www.w3.org/2000/svg" data-name="Layer 1"><path d="m20.207 12.793 2.5 2.5-1.414 1.414-2.5-2.5zm-4.207 5.207h2v-3h-2zm5-8v2h3v-2zm-2.732 2.268c-.976.976-2.559.976-3.536 0-.059-.059-.093-.117-.14-.175l-2.861 2.861-4.109-6.162-2.622 2.622v10.586h3v2h-8v-2h3v-11.414l3.529-3.529c-.925-1.853-.594-4.133.9-5.627 1.64-1.639 4.229-1.895 6.158-.61l7.367 4.911-2.862 2.862c.058.047.116.081.175.14.976.976.976 2.559 0 3.536zm-6.226-.453 5.773-5.774-5.336-3.558c-.485-.323-1.041-.481-1.594-.481-.745 0-1.485.287-2.041.842-.968.968-1.119 2.496-.36 3.635l3.558 5.337z"/></svg>