<svg id="Layer_1" viewBox="0 0 24 24" xmlns="http://www.w3.org/2000/svg" data-name="Layer 1"><path d="m22.523 23.938-7.378-7.378c-2.136 2.358-4.071 5.441-4.071 5.441s-.66-4.197 1.98-7.531l-.762-.762 1.414-1.414.762.762c3.333-2.64 7.53-1.98 7.53-1.98.051.068-3.072 1.948-5.438 4.073l7.376 7.376-1.414 1.414zm-20.523-6.479v2.327c0 .751 2.294 2.214 6.5 2.214.197 0 .369-.018.558-.024.019.189.036.307.041.337l.264 1.666c-.287.013-.575.022-.863.022-4.224 0-8.5-1.447-8.5-4.214v-15.787c0-2.5 4.165-4 8.5-4 4.846 0 8.5 1.935 8.5 4.5v5.049c-.654.194-1.328.469-2 .813v-2.903c-1.535.954-3.835 1.541-6.5 1.541s-4.965-.588-6.5-1.541v2.041c0 1.02 2.532 2.5 6.5 2.5 1.119 0 2.118-.12 2.984-.312l-2.285 2.285c-.233.01-.46.028-.699.028-2.665 0-4.965-.588-6.5-1.541v2.041c0 1.02 2.532 2.5 6.5 2.5.368 0 .719-.017 1.061-.04-.213.71-.352 1.393-.435 2.023-.208.007-.413.017-.626.017-2.665 0-4.965-.588-6.5-1.541zm0-12.959c0 1.02 2.532 2.5 6.5 2.5s6.5-1.48 6.5-2.5-2.532-2.5-6.5-2.5-6.5 1.48-6.5 2.5z"/></svg>