<svg id="Layer_1" viewBox="0 0 24 24" xmlns="http://www.w3.org/2000/svg" data-name="Layer 1"><path d="m15 20v4h-2v-4c0-1.103-.897-2-2-2h-7c-1.103 0-2 .897-2 2v4h-2v-4c0-2.206 1.794-4 4-4h7c2.206 0 4 1.794 4 4zm5.133-19.546c-.292-.292-.681-.454-1.095-.454-.414 0-.802.162-1.094.454l-3.339 3.339 1.414 1.414 1.984-1.984v5.777h2v-5.849l2.056 2.056 1.414-1.414zm-18.133 8.046c0-3.033 2.467-5.5 5.5-5.5s5.5 2.467 5.5 5.5-2.467 5.5-5.5 5.5-5.5-2.467-5.5-5.5zm2 0c0 1.93 1.57 3.5 3.5 3.5s3.5-1.57 3.5-3.5-1.57-3.5-3.5-3.5-3.5 1.57-3.5 3.5z"/></svg>