<svg id="Layer_1" viewBox="0 0 24 24" xmlns="http://www.w3.org/2000/svg" data-name="Layer 1"><path d="m18 7.5c-.828 0-1.5-.672-1.5-1.5s.672-1.5 1.5-1.5 1.5.672 1.5 1.5-.672 1.5-1.5 1.5zm-1 5.5h2v-4h-2zm-2-1.812v-2.568c-.615-.703-1-1.613-1-2.62 0-2.209 1.791-4 4-4s4 1.791 4 4c0 1.008-.385 1.917-1 2.62v2.568c1.79-1.039 3-2.973 3-5.188 0-3.309-2.691-6-6-6s-6 2.691-6 6c0 2.215 1.21 4.149 3 5.188zm7 8.961-9 1.636v-9.545c-.811-.651-1.493-1.454-2-2.37v11.915l-9-1.636v-15.149c0-.407.226-.656.359-.768.134-.112.413-.291.819-.216l6.18 1.124c.244.044.47.133.672.255.052-.699.195-1.372.415-2.01-.233-.091-.475-.166-.73-.213l-6.179-1.123c-.881-.16-1.774.077-2.458.648-.686.572-1.078 1.411-1.078 2.303v16.818l12 2.182 12-2.182v-10.539c-.572.65-1.246 1.205-2 1.642z"/></svg>