<svg id="Layer_1" viewBox="0 0 24 24" xmlns="http://www.w3.org/2000/svg" data-name="Layer 1"><path d="m22 0-6.001.002c-1.103 0-1.999.898-1.999 2.001l.002 7.908c0 .393.182.731.498.928.325.183.856.158 1.168-.046l2.477-1.793h5.855v-7c0-1.103-.897-2-2-2zm0 7h-4.51l-1.49 1.089v-6.089h6zm-12 9v-1.5c0-.276-.224-.5-.5-.5h-3c-.276 0-.5.224-.5.5v1.5h-2v-1.5c0-1.378 1.122-2.5 2.5-2.5h3c1.378 0 2.5 1.122 2.5 2.5v1.5zm-4-6.997c0-1.105.895-2 2-2s2 .895 2 2-.895 2-2 2-2-.895-2-2zm18 13v1.997h-2v-1.997c0-.551-.448-1-1-1h-4c-.552 0-1 .449-1 1v1.997h-2v-1.997c0-1.654 1.346-3 3-3h4c1.654 0 3 1.346 3 3zm-1.5-7.5c0-1.93-1.57-3.503-3.5-3.503s-3.5 1.573-3.5 3.503 1.57 3.497 3.5 3.497 3.5-1.567 3.5-3.497zm-5 0c0-.827.673-1.5 1.5-1.5s1.5.673 1.5 1.5-.673 1.5-1.5 1.5-1.5-.673-1.5-1.5zm-3.466 3.497c-.695.516-1.257 1.199-1.609 2h-.425v4h-6v-2h4v-2h-10v-15.5c0-1.378 1.122-2.5 2.5-2.5h9.5v2h-9.5c-.276 0-.5.224-.5.5v13.5z"/></svg>