<svg id="Layer_1" viewBox="0 0 24 24" xmlns="http://www.w3.org/2000/svg" data-name="Layer 1"><path d="m24 16c0 4.411-3.589 8-8 8h-8c-4.411 0-8-3.589-8-8 0-3.659 2.472-6.744 5.831-7.693.353.657.81 1.247 1.345 1.757-2.919.404-5.175 2.908-5.175 5.937 0 3.309 2.691 6 6 6h8c3.309 0 6-2.691 6-6 0-3.028-2.257-5.533-5.175-5.937.535-.51.992-1.1 1.345-1.757 3.359.949 5.831 4.035 5.831 7.693zm-12 0c0 2.205 1.795 4 4 4s4-1.795 4-4-1.795-4-4-4-4 1.795-4 4zm-4.859-9.455 1.443-.799c-.053-.241-.084-.49-.084-.747s.032-.506.084-.747l-1.443-.798.968-1.75 1.445.799c.4-.392.897-.675 1.446-.841v-1.662h2v1.663c.549.165 1.047.449 1.446.841l1.445-.799.968 1.75-1.443.798c.053.241.084.49.084.747s-.032.506-.084.747l1.443.798-.968 1.75-1.445-.799c-.4.392-.897.675-1.446.841v1.663h-2v-1.663c-.549-.165-1.047-.449-1.446-.841l-1.445.799zm3.359-1.545c0 .827.673 1.5 1.5 1.5s1.5-.673 1.5-1.5-.673-1.5-1.5-1.5-1.5.673-1.5 1.5z"/></svg>