<svg id="Layer_1" viewBox="0 0 24 24" xmlns="http://www.w3.org/2000/svg" data-name="Layer 1"><path d="m12 13.001c-2.206 0-4 1.794-4 4 0 1.255.593 2.363 1.5 3.097v3.903l2.5-2.5 2.5 2.5v-3.903c.907-.734 1.5-1.842 1.5-3.097 0-2.205-1.794-4-4-4zm0 5.999c-1.103 0-2-.897-2-2s.897-2 2-2 2 .897 2 2-.897 2-2 2zm10.814-6.27c-.033.006-1.675.314-3.814.625v-5.364l4.884-2.49-9.854-5.024c-1.254-.637-2.874-.636-4.125.001l-9.853 5.023 4.948 2.523v5.332c-3.329-.504-3.297-.536-5-.85v8.99c1.837-.334 2.653-.549 7.038-1.123-.39-.573-.678-1.219-.851-1.911-1.666.216-3.19.462-4.187.633v-4.188c.997.171 2.52.417 4.187.633.167-.666.445-1.286.813-1.843v-4.653l2.905 1.481c.626.319 1.345.479 2.062.479s1.438-.16 2.064-.48l2.969-1.513v4.687c.368.557.646 1.177.813 1.843 1.666-.216 3.19-.462 4.187-.633v4.188c-.997-.171-2.52-.417-4.187-.633-.174.692-.461 1.338-.851 1.911 4.392.575 5.194.788 7.038 1.123v-8.992zm-9.692-3.988c-.68.348-1.629.347-2.309 0l-6.357-3.242 6.357-3.24c.68-.346 1.631-.347 2.311 0l6.357 3.241-6.358 3.241z"/></svg>