<svg id="Layer_1" viewBox="0 0 24 24" xmlns="http://www.w3.org/2000/svg" data-name="Layer 1"><path d="m24 3.5v8.5h-24v-8.5c0-1.93 1.57-3.5 3.5-3.5h17c1.93 0 3.5 1.57 3.5 3.5zm-22 1.5h20v-1.5c0-.827-.673-1.5-1.5-1.5h-5.277c-.346.595-.984 1-1.723 1h-3c-.738 0-1.376-.405-1.723-1h-5.277c-.827 0-1.5.673-1.5 1.5zm20 2h-6.777c-.346.595-.984 1-1.723 1h-3c-.738 0-1.376-.405-1.723-1h-6.777v3h20zm-6 7h-5.004c-1.58 0-2.864 1.224-2.978 2.775l-3.436-2.342c-.686-.42-1.492-.547-2.276-.361-.782.188-1.444.67-1.865 1.356-.856 1.4-.422 3.25.941 4.103l4.123 2.786c1.755 1.102 3.774 1.683 5.84 1.683h4.655v-2h-4.605c-1.675.039-3.378-.468-4.8-1.357l-4.123-2.787c-.468-.292-.613-.913-.326-1.383.142-.23.363-.393.626-.455.264-.062.535-.021.724.095l4.418 3.012c.834.568 1.808.869 2.815.869l5.271.007v-2h-5.006c-.552 0-.998-.455-.998-1.007s.448-1 1-1h5.004c3.309 0 6 2.691 6 6v2h2v-2c0-4.411-3.589-7.993-8-7.993z"/></svg>