<?xml version="1.0" encoding="UTF-8"?>
<svg xmlns="http://www.w3.org/2000/svg" id="Layer_1" data-name="Layer 1" viewBox="0 0 24 24">
  <path d="M4.418,5.907l-1.918-3.866L4.541,0l1.21,2.501,1.45-1.45c.343-.343,.928-.166,1.024,.309l.775,5.329-.446,.446-1.694-2.541-1.459,1.459c-.294,.294-.787,.221-.983-.146Zm12.682-1.401l1.432,1.432c.288,.288,.772,.216,.965-.143l1.882-3.793-2.002-2.002-1.187,2.454-1.422-1.422c-.336-.336-.911-.163-1.005,.303l-.76,5.228,.438,.438,1.662-2.493Zm-2.099,8.493h-2c0,2.206,1.794,4,4,4v-2c-1.103,0-2-.897-2-2Zm8,3c0,2.757-2.243,5-5,5h-7v3h-2v-1.78c-.826,.503-1.779,.773-2.75,.78-2.895,0-5.25-2.355-5.25-5.25,0-1.694,.834-3.293,2.205-4.272,.588-2.229,2.443-3.938,4.72-4.355,.93-1.32,2.449-2.122,4.076-2.122s3.139,.804,4.071,2.128c1.331,.261,2.504,.993,3.316,2.069,2.117,.61,3.613,2.566,3.613,4.803Zm-2,0c.013-1.602-1.267-2.866-2.829-3.022-.647-1.241-1.918-1.968-3.318-1.989-.517-1.138-1.583-2.011-2.854-1.988-1.283-.022-2.347,.851-2.862,1.993-2.138,0-3.954,1.602-4.146,3.729-1.165,.567-2.009,1.711-1.992,3.028,0,1.792,1.458,3.25,3.25,3.25,1.739-.003,3.27-1.48,3.25-3.25,0-.534-.132-1.063-.381-1.528l1.763-.945c.405,.755,.619,1.61,.619,2.474,0,.433-.068,.847-.167,1.25h6.667c1.654,0,3-1.346,3-3Z"/>
</svg>
