<?xml version="1.0" encoding="UTF-8"?>
<svg xmlns="http://www.w3.org/2000/svg" id="Layer_1" data-name="Layer 1" viewBox="0 0 24 24">
  <path d="M21,6v-1l-1.899-.875-3.642,.167-.52-1.01s-3.169-.85-4.438-1.096c-.213,.379-1,1-1,1l-4.5-1-1.5-1-1,1.5L0,3.678l.5,3.007,2,1,2.5-.5,.816,1.048-1.816,1.952v2l-1,.5,1.5,3-1,3,3.5,3.5,2.5-2.185h4l1.5-1.5,1.5-.5,1.951-3.002-1.384-1.652,2.033-3.403,2.4-.442,2.5-1.5v-2h-3Zm-2,1.927l-1.153,.212-3.226,5.401,1.347,1.608-.764,1.175-1.285,.428-1.248,1.248h-3.922l-1.657,1.449-1.304-1.304,.871-2.613-.976-1.952,.317-.158v-2.45l2.441-2.624-2.623-3.366-3.038,.608-.475-.237-.068-.411,1.58-.628,.237-.355,5.959,1.369s1.015-.806,1.168-.942c.761,.182,1.676,.416,2.385,.602l.701,1.361,4.438-.203,.294,.136v1.647Zm2,7.258l2.917,2.363-3,2.5-2.049-2.102,2.132-2.761Zm-3,5l.524,1.159-1.524,1.341-1-1,2-1.5Zm4.5-8.5l1.5,1.59-.5,.91-2-1,1-1.5Z"/>
</svg>
