<?xml version="1.0" encoding="UTF-8"?>
<svg xmlns="http://www.w3.org/2000/svg" id="Layer_1" data-name="Layer 1" viewBox="0 0 24 24">
  <path d="m0,1c0,5.338,1.805,15.954,2,17.087v2.913c0,1.654,1.346,3,3,3h4c1.654,0,3-1.346,3-3v-2.913c.195-1.132,2-11.748,2-17.087V0H0v1Zm10,20c0,.551-.448,1-1,1h-4c-.552,0-1-.449-1-1v-2h6v2Zm1.98-19c-.17,4.697-1.405,12.463-1.826,15H3.846c-.421-2.537-1.656-10.303-1.826-15h9.961Zm8.929,8c-.065.386-.161.761-.296,1.118l2.662,1.55-1.006,1.729-2.671-1.555c-.235.281-.492.544-.775.778l1.547,2.66-1.729,1.005-1.551-2.667c-.351.131-.714.235-1.092.299v3.083h-1.956c.154-.911.458-2.758.784-5h.172c2.206,0,4-1.794,4-4,0-1.937-1.384-3.555-3.215-3.921.06-.691.111-1.361.147-2,.408.064.797.179,1.174.321l1.558-2.68,1.729,1.006-1.556,2.675c.277.231.53.487.762.764l2.666-1.552,1.006,1.729-2.656,1.546c.134.355.229.728.294,1.111h3.092v2h-3.091Z"/>
</svg>
