<?xml version="1.0" encoding="UTF-8"?>
<svg xmlns="http://www.w3.org/2000/svg" id="Layer_1" data-name="Layer 1" viewBox="0 0 24 24">
  <path d="M23,0H1V2h1.093l1.894,19.293c.151,1.543,1.435,2.707,2.986,2.707h10.054c1.551,0,2.834-1.164,2.986-2.707l1.894-19.293h1.093V0ZM13.7,2l-1.674,1.674-1.674-1.674h3.348Zm-6.176,0l3.088,3.088-1.977,1.977L4.161,2.592l-.058-.592h3.422Zm10.913,14.868l-1.586-1.586,1.931-1.931-.345,3.517Zm.653-6.653l-.262,.262-1.997-1.997,2.694-2.694-.435,4.429Zm-1.676,1.676l-1.977,1.977-1.997-1.997,1.977-1.977,1.997,1.997ZM4.469,5.728l2.752,2.752-1.997,1.997-.32-.32-.435-4.429Zm.745,7.587l.01-.01,1.978,1.978-1.634,1.634-.354-3.602Zm1.424-1.424l1.997-1.997,1.978,1.978-1.997,1.997-1.978-1.978Zm5.389,1.394l1.997,1.997-1.997,1.997-1.997-1.997,1.997-1.997Zm0-2.828l-1.978-1.978,1.977-1.977,1.978,1.978-1.977,1.977Zm-6.049,10.641l-.158-1.606,2.795-2.795,1.997,1.997-3.306,3.306h-.333c-.517,0-.945-.388-.996-.902Zm6.049-.99l1.892,1.892h-3.785l1.892-1.892Zm5.001,1.892h-.28l-3.306-3.306,1.997-1.997,2.747,2.747-.162,1.654c-.051,.514-.479,.902-.996,.902ZM19.833,2.65l-4.415,4.415-1.978-1.978,3.088-3.088h3.369l-.064,.65Z"/>
</svg>
