<svg id="Layer_1" viewBox="0 0 24 24" xmlns="http://www.w3.org/2000/svg" data-name="Layer 1"><path d="m10 9.5c0 .828-.672 1.5-1.5 1.5s-1.5-.672-1.5-1.5.672-1.5 1.5-1.5 1.5.672 1.5 1.5zm8.5-6.5c.828 0 1.5-.672 1.5-1.5s-.672-1.5-1.5-1.5-1.5.672-1.5 1.5.672 1.5 1.5 1.5zm3 5c.828 0 1.5-.672 1.5-1.5s-.672-1.5-1.5-1.5-1.5.672-1.5 1.5.672 1.5 1.5 1.5zm-13 5c-.828 0-1.5.672-1.5 1.5s.672 1.5 1.5 1.5 1.5-.672 1.5-1.5-.672-1.5-1.5-1.5zm15.5 1v7c0 1.654-1.346 3-3 3h-6c-1.654 0-3-1.346-3-3v-7h2v-1c0-2.206 1.794-4 4-4s4 1.794 4 4v1zm-8 0h4v-1c0-1.103-.897-2-2-2s-2 .897-2 2zm6 2h-8v5c0 .552.449 1 1 1h6c.551 0 1-.448 1-1zm-3 2h-2v2h2zm-17-6c-.006-5.584 4.589-10.095 10.17-10 .376 2.219 1.354 4.225 2.76 5.849.614-.367 1.298-.626 2.028-.754-1.61-1.598-2.679-3.741-2.91-6.137l-.078-.824c-.618-.056-.97-.134-1.97-.134-6.627 0-12 5.373-12 12 0 6.284 4.833 11.431 10.983 11.949-.457-.621-.771-1.345-.901-2.137-4.605-.895-8.082-4.945-8.082-9.812z"/></svg>