<?xml version="1.0" encoding="UTF-8"?>
<svg xmlns="http://www.w3.org/2000/svg" id="Layer_1" data-name="Layer 1" viewBox="0 0 24 24">
  <path d="M19.878,13.465c-.944-.944-2.2-1.465-3.535-1.465H6.038l-3.078-2.365,2.427-2.864c.171,.136,.378,.23,.613,.23h1.424c.774,1.763,2.531,3,4.576,3s3.802-1.237,4.576-3h1.424c.552,0,1-.448,1-1v-2c0-.552-.448-1-1-1h-1.424c-.774-1.763-2.531-3-4.576-3s-3.802,1.237-4.576,3h-1.424c-.552,0-1,.448-1,1v.134L.078,9.941l5.922,4.551v5.507h2v-6h8v6h2v-5.498c.166,.11,.322,.235,.464,.377l3.536,3.535v5.586h2v-6.414l-4.122-4.121ZM12,2c1.654,0,3,1.346,3,3s-1.346,3-3,3-3-1.346-3-3,1.346-3,3-3ZM0,22H20v2H0v-2Z"/>
</svg>
