<svg id="Layer_1" viewBox="0 0 24 24" xmlns="http://www.w3.org/2000/svg" data-name="Layer 1"><path d="m12 10c1.105 0 2 .895 2 2s-.895 2-2 2-2-.895-2-2 .895-2 2-2zm-3.5 2.008c.004-.536-.202-1.04-.582-1.422l-3.536-3.536-1.414 1.414 2.545 2.536h-5.513v2h5.492l-2.526 2.536 1.418 1.412 3.535-3.551c.37-.372.577-.865.581-1.39zm3.51-3.507c.527 0 1.032-.209 1.404-.583l3.536-3.536-1.414-1.414-2.536 2.545v-5.513h-2v5.492l-2.537-2.526-1.41 1.417 3.549 3.533c.372.373.882.583 1.408.583zm-1.414 7.58-3.552 3.536 1.41 1.418 2.54-2.54.006 5.506 2-.002-.006-5.501 2.534 2.534 1.414-1.414-3.537-3.538c-.752-.748-2.057-.748-2.809 0zm13.405-3.08-.002-2-5.501.007 2.534-2.534-1.414-1.414-3.537 3.537c-.375.375-.581.875-.581 1.405s.206 1.028.58 1.404l3.536 3.552 1.418-1.41-2.54-2.54 5.507-.006z"/></svg>