<svg id="Layer_1" viewBox="0 0 24 24" xmlns="http://www.w3.org/2000/svg" data-name="Layer 1"><path d="m14.5 13.001c-.828 0-1.5-.672-1.5-1.5s.672-1.5 1.5-1.5 1.5.672 1.5 1.5-.672 1.5-1.5 1.5zm8.821 9.745c-.617.797-1.55 1.255-2.559 1.255h-6.763v-3.263c-.648.168-1.317.264-1.999.264-.683 0-1.352-.099-2-.268v3.266l-6.763-.003c-.976 0-1.89-.435-2.507-1.19-.617-.755-.859-1.736-.665-2.691l1.082-6.115c.089 0 2 .005 2.033-.011l-1.15 6.499c-.079.391.014.766.249 1.054.236.289.585.458.958.458h4.762v-2.064c-1.3-.692-2.454-1.658-3.352-2.761l.51-2.879c1.165 2.383 3.981 4.705 6.842 4.705 3.13 0 6.214-2.781 7.131-5.378l.281-.795c.191.027.906.172 1.088.171.827 0 1.5-.673 1.5-1.5 0-.723-.518-1.341-1.23-1.471l-.738-.134-.079-.745c-.43-4.076-3.849-7.15-7.953-7.15-3.732 0-7.018 2.646-7.812 6.29l-.295 1.669c4.324-.396 7.597-3.58 9.135-5.864.676.117 1.314.345 1.893.669-1.074 1.741-2.91 3.78-5.288 5.25.765.069 1.366.704 1.366 1.487 0 .828-.672 1.5-1.5 1.5s-1.5-.672-1.5-1.5c0-.256.07-.494.184-.705-1.561.735-3.302 1.205-5.184 1.205h-1.497l.725-4.097c1.001-4.595 5.108-7.903 9.774-7.903 4.905 0 9.027 3.512 9.85 8.275 1.28.533 2.15 1.791 2.15 3.225 0 1.019-.447 1.928-1.145 2.568l1.057 5.959c.236.901.027 1.92-.591 2.718zm-1.362-2.292-.979-5.501c-.084.012-.163.035-.249.041-.891 1.942-2.609 3.834-4.732 4.961v2.046h4.762c.386 0 .742-.174.978-.479s.316-.694.219-1.068zm-9.96-3.454c1.352 0 2.509-.826 2.999-2h-5.998c.49 1.174 1.648 2 2.999 2z"/></svg>