<?xml version="1.0" encoding="UTF-8"?>
<svg xmlns="http://www.w3.org/2000/svg" id="Layer_1" data-name="Layer 1" viewBox="0 0 24 24">
  <path d="m20.885,19.471c.699-.981,1.115-2.177,1.115-3.471,0-3.308-2.692-6-6-6s-6,2.692-6,6,2.692,6,6,6c1.294,0,2.49-.416,3.471-1.115l2.668,2.668,1.414-1.414-2.668-2.668Zm-4.885-.471c-2.772,0-4.117-2.225-4.5-3,.385-.777,1.728-3,4.5-3s4.115,2.223,4.5,3c-.385.777-1.728,3-4.5,3Z"/>
  <path d="m12.414,0H3C1.346,0,0,1.346,0,3v21h14v-.274c-1.232-.318-2.352-.91-3.279-1.726H2V3c0-.552.449-1,1-1h8v7h9v-1.414L12.414,0Zm.586,7v-3.586l3.586,3.586h-3.586Z"/>
  <circle cx="16" cy="16" r="1.5"/>
</svg>
