<svg id="Layer_1" viewBox="0 0 24 24" xmlns="http://www.w3.org/2000/svg" data-name="Layer 1"><path d="m13 8c0 2.682-1.386 4.497-3.804 4.98l-.393-1.961c.543-.109 2.196-.439 2.196-3.02 0-.552.448-1 1-1s1 .448 1 1zm-.805 4.737 1.38 1.448c.793-.756 1.396-1.605 1.793-2.525l-1.837-.792c-.293.681-.73 1.292-1.336 1.869zm1.805-4.727c.006.562-.009 1.231-.167 1.927l1.95.442c.205-.902.223-1.751.217-2.379 0-.61-.135-1.196-.4-1.744l-1.8.873c.133.273.2.566.2.881zm-4-.01c0-1.103.897-2 2-2 .436 0 .851.139 1.199.401l1.202-1.599c-.698-.525-1.528-.802-2.401-.802-2.206 0-4 1.794-4 4v1h2zm10-8v21c0 1.654-1.346 3-3 3h-10c-1.654 0-3-1.346-3-3v-21zm-14 2v14h12v-14zm12 19v-3h-12v3c0 .551.449 1 1 1h10c.551 0 1-.449 1-1zm-8 0h4v-2h-4z"/></svg>