<svg id="Layer_1" viewBox="0 0 24 24" xmlns="http://www.w3.org/2000/svg" data-name="Layer 1"><path d="m19 22h2v2h-2zm3-1h2v-2h-2zm-3 0h2v-2h-2zm-6-8h5v5h-5zm2 3h1v-1h-1zm-2 3h5v5h-5zm2 3h1v-1h-1zm9-9v5h-5v-5zm-2 2h-1v1h1zm-17.657.657c-3.119-3.119-3.119-8.194 0-11.313 1.511-1.511 3.52-2.343 5.657-2.343s4.146.832 5.657 2.343 2.343 3.52 2.343 5.657c0 .338-.028.67-.069 1h2.02c.033-.33.049-.664.049-1 0-2.671-1.04-5.182-2.929-7.071s-4.4-2.929-7.071-2.929-5.183 1.039-7.071 2.928c-3.899 3.899-3.899 10.243.008 14.149l7.063 6.909 1-.979v-.811l-6.657-6.541zm9.515-4.657c.084-.322.142-.653.142-1 0-2.206-1.794-4-4-4s-4 1.794-4 4 1.794 4 4 4c.347 0 .678-.058 1-.142v-2.136c-.295.172-.634.278-1 .278-1.103 0-2-.897-2-2s.897-2 2-2 2 .897 2 2c0 .366-.106.705-.278 1z"/></svg>