<svg id="Layer_1" viewBox="0 0 24 24" xmlns="http://www.w3.org/2000/svg" data-name="Layer 1"><path d="m24 9.5c0 3.067-1.495 5.962-3.998 7.742-.999.711-1.835 1.799-2.632 3.426-.458.934-1.17 1.743-2.061 2.34-.984.658-2.144.985-3.303.985-1.266 0-2.531-.39-3.569-1.163-1.552-1.157-2.437-2.92-2.426-4.837l2 .012c-.007 1.274.584 2.448 1.622 3.222 1.32.983 3.197 1.032 4.564.119.605-.406 1.069-.931 1.376-1.558.949-1.938 1.988-3.265 3.269-4.175 1.978-1.407 3.158-3.692 3.158-6.113 0-2.132-.913-4.171-2.504-5.594-1.614-1.442-3.693-2.1-5.87-1.857-2.468.278-4.613 1.822-5.751 3.951h-2.203c1.273-3.173 4.251-5.547 7.731-5.938 2.707-.308 5.412.554 7.426 2.353 2.015 1.801 3.171 4.384 3.171 7.085zm-4 .5v-.5c0-3.033-2.468-5.5-5.5-5.5s-5.5 2.467-5.5 5.5v1.5h2c.551 0 1 .449 1 1s-.449 1-1 1v2c1.654 0 3-1.346 3-3 0-1.642-1.327-2.98-2.964-3 .243-1.694 1.704-3 3.464-3 1.93 0 3.5 1.57 3.5 3.5v.5zm-13.407 5.957 1.414-1.414-2.543-2.543 2.543-2.543-1.414-1.414-2.543 2.543-2.543-2.543-1.414 1.414 2.543 2.543-2.543 2.543 1.414 1.414 2.543-2.543z"/></svg>