<svg id="Layer_1" viewBox="0 0 24 24" xmlns="http://www.w3.org/2000/svg" data-name="Layer 1"><path d="m16.898 2.495c-3.002-1.18-6.991-2.495-9.898-2.495-3.86 0-7 3.14-7 6.999 0 2.678 1.513 5.006 3.727 6.183l3.541 8.661c.687 1.751 2.855 2.644 4.577 1.885 1.752-.687 2.645-2.855 1.885-4.577l-2.451-5.882c1.66-.474 3.529-1.158 5.612-1.987l7.109 2.046v-12.609l-7.102 1.775zm-5.014 17.425c.326.738-.057 1.667-.808 1.962-.734.325-1.667-.057-1.958-.802l-2.916-7.13c.262.03.528.049.798.049.707 0 1.481-.092 2.312-.252l2.572 6.174zm4.116-10.434c-3.366 1.335-6.724 2.512-9 2.512-2.757 0-5-2.243-5-5s2.243-4.998 5-4.998c2.058 0 5.16.789 9 2.287zm6 1.184-4-1.151v-5.239l4-1z"/></svg>