<svg id="Layer_1" viewBox="0 0 24 24" xmlns="http://www.w3.org/2000/svg" data-name="Layer 1"><path d="m5 20.5 2-2v2c-.031 1.906-1.556 3.507-3.5 3.5-1.93 0-3.5-1.57-3.5-3.5v-20.5h2v20.5c0 .827.673 1.5 1.5 1.5s1.5-.673 1.5-1.5zm18.232-7.5c1.367 1.367.615 3.075 0 3.69-.369.369-.799.431-1.167.063l-2.38-2.38c-.451.462-1.029.994-1.704 1.508l1.019 1.019-1.199.866c-.491.355-1.168.301-1.596-.128l-.415-.415c-1.003.464-2.111.776-3.29.776-5.278-.282-7.983-4.655-8.748-5.5.775-.876 3.134-4.71 8.085-5.459l1.593-1.676c.332-.332.818-.447 1.265-.307.893.28 2.425.924 3.804 2.303 0 0-.549.57-1.213 1.261 1.279.852 2.28 1.848 2.881 2.52l1.896-1.896c.369-.369.799-.306 1.167.063.615.615 1.367 2.323 0 3.69zm-14.386 1.729c.085-.584.155-1.33.155-2.229 0-.908-.071-1.651-.158-2.227-1.117.743-2.017 1.644-2.539 2.227.522.584 1.423 1.486 2.541 2.229zm9.851-2.229c-1.02-1.138-3.464-3.5-6.196-3.5-.617 0-1.216.133-1.791.332.146.732.291 1.798.291 3.168 0 1.356-.141 2.427-.285 3.169.573.199 1.17.331 1.785.331 2.733 0 5.177-2.361 6.196-3.5zm-.696-8.5c1.105 0 2-.895 2-2s-.895-2-2-2-2 .895-2 2 .895 2 2 2zm-8.5 1c.828 0 1.5-.672 1.5-1.5s-.672-1.5-1.5-1.5-1.5.672-1.5 1.5.672 1.5 1.5 1.5z"/></svg>