<?xml version="1.0" encoding="UTF-8"?>
<svg xmlns="http://www.w3.org/2000/svg" id="Layer_1" data-name="Layer 1" viewBox="0 0 24 24">
  <path d="M4.227,8.677l11.096,11.096c-.338,.472-.942,1.055-1.359,1.469l-4.896-4.896L1.707,23.707l-1.414-1.414,7.361-7.361L2.758,10.036c.417-.419,.995-1.019,1.469-1.359Zm18.366,15.392L-.007,1.47,1.407,.056l6.984,6.984c1.225-.144,2.507,.141,3.695,.46l2.086-2.086-.293-.293c-.623-.622-.94-1.483-.869-2.362,.07-.88,.525-1.683,1.248-2.203,1.176-.845,2.868-.671,3.939,.399l4.924,4.924c1.305,1.244,1.112,3.546-.379,4.565-1.176,.845-2.869,.671-3.939-.399l-.217-.217-2.086,2.086c.319,1.188,.605,2.459,.46,3.695l7.047,7.047-1.414,1.414ZM10.534,9.182l4.286,4.286c-.012-.077-.515-2.096-.53-2.171l4.297-4.297,1.631,1.631c.38,.38,.977,.465,1.356,.19,.506-.343,.571-1.108,.134-1.528l-4.924-4.924c-.381-.38-.978-.465-1.356-.19-.506,.343-.571,1.108-.134,1.528l1.707,1.707-4.297,4.297c-.093-.02-2.075-.514-2.17-.529Z"/>
</svg>
