<svg id="Layer_1" viewBox="0 0 24 24" xmlns="http://www.w3.org/2000/svg" data-name="Layer 1"><path d="m13 2.5c0-1.381 1.119-2.5 2.5-2.5s2.5 1.119 2.5 2.5-1.119 2.5-2.5 2.5-2.5-1.119-2.5-2.5zm1.033 11.5h3.704c1.29 0 2.242 1.203 1.947 2.458l-1.711 7.271-1.947-.458 1.711-7.271h-6.736c-1.878.052-3.427-1.896-2.906-3.711l1.749-4.949c.31-1.55 1.951-2.627 3.499-2.295.787.153 1.467.603 1.916 1.267.005.021 5.001 6.033 5.011 6.05l-1.539 1.276-3.335-4.023zm-.271-5.865c.082-.507-.304-1.023-.8-1.126-.522-.116-1.081.263-1.172.791-.016.136-1.742 4.933-1.781 5.073.013.73.245 1.018.992 1.127h.938zm-8.762 8.865h11v1c0 1.729-1.045 5-5 5h-1v1h-7v-16h2zm8.846 2h-8.846v3h3.257c.312-.568.902-1 1.743-1h1c1.88 0 2.584-1.11 2.846-2z"/></svg>