<svg id="Layer_1" viewBox="0 0 24 24" xmlns="http://www.w3.org/2000/svg" data-name="Layer 1"><path d="m10.204 2.14c-.194-.04-1.937-.373-3.368.149-.766.28-1.435.855-2.082 1.411-.524.451-1.066.917-1.499 1.065-1.163.334-2.225.207-3.255.235v1.344l2.822 7.549c.929.089 1.622.379 3.604-.218.742-.271 1.434-.79 2.104-1.291.554-.415 1.126-.843 1.59-1.013.529-.193 1.25-.176 1.762-.122l4.057 11.207 1.881-.681-7.067-19.523zm-.77 7.353c-.742.271-1.434.79-2.104 1.291-.554.415-1.126.843-1.59 1.013-.515.188-1.075.231-1.479.231h-.002l-1.896-5.073c.499-.044 1.048-.13 1.536-.296.799-.272 1.49-.866 2.158-1.441.512-.439 1.04-.894 1.464-1.049.527-.193 1.235-.188 1.746-.142l1.877 5.186c-.545.007-1.151.077-1.71.28zm14.565-4.495v1.346l-2.822 7.549c-.747.135-2.742.371-4.279-.539l-1.176-3.249c.322.213.637.446.947.678.964.801 1.962 1.308 3.071 1.243l1.896-5.073c-.504-.044-1.051-.13-1.536-.296-.799-.272-1.49-.866-2.158-1.441-.512-.439-1.04-.894-1.464-1.049-.526-.192-1.233-.187-1.746-.142l-.605 1.672-1.064-2.939.184-.507c.888-.137 1.939-.546 3.917.037.766.28 1.435.855 2.082 1.411.524.451 1.066.917 1.499 1.065 1.229.347 2.209.203 3.255.233zm-13.463 8.408.401 1.108-2.875 7.942-1.881-.681 2.566-7.088c.346-.232 1.54-1.118 1.789-1.281z"/></svg>