<svg id="Layer_1" viewBox="0 0 24 24" xmlns="http://www.w3.org/2000/svg" data-name="Layer 1"><path d="m20.047 13.815c-.697-.584-1.362-1.25-1.97-1.866l-.679 1.001c-.688 1.015-.941 2.06-1.144 2.899-.077.317-.196.81-.308 1.031-.292-.601-.497-2.292-.633-2.979l-1.369 1.413c-.967.997-1.945 2.927-1.945 4.685 0 1.538.586 2.937 1.54 4h8.919c.954-1.063 1.54-2.462 1.54-4 0-2.742-2.285-4.732-3.953-6.185zm-.409 9.825c.544-.78.472-1.859-.224-2.556l-1.414-1.415-1.415 1.415c-.696.696-.768 1.775-.223 2.556-1.389-.628-2.362-2.02-2.362-3.641 0-.558.167-1.186.415-1.763.312.446.738.763 1.32.763 1.815 0 2.189-1.549 2.463-2.68.095-.39.19-.786.328-1.177.068.06.137.12.207.181 1.531 1.333 3.267 2.844 3.267 4.676 0 1.621-.973 3.013-2.362 3.641zm-17.97-8.326 1.332-1.373v4.696c-.311-.062-.566-.223-.772-.446-.14.384-.228.782-.228 1.143 0 .906.388 1.719 1 2.297v2.377c-1.766-.822-3-2.601-3-4.674 0-1.51.839-3.166 1.668-4.02zm15.913-11.487s-.007-.004-.01-.007c.43-.964 1.512-2.116 2.438-2.874.446.743.931 1.542 1.471 2.276 1.061 1.5 2.427 3.462 2.497 5.609l-2.59-2.027c-.42-.835-.994-1.656-1.539-2.427-.053-.075-.105-.149-.157-.223-.194.299-.358.609-.518.917l-1.59-1.245zm6.419 9.024v2.058c-.635-.776-1.342-1.451-2-2.039.006-.316-.134-.612-.384-.806l-6.5-5.087c-.363-.284-.869-.284-1.232 0l-6.5 5.087c-.244.191-.384.478-.384.787v9.149h3.263c.184.71.46 1.381.819 2h-6.082v-11.149c0-.929.42-1.79 1.151-2.362l6.5-5.087c1.088-.852 2.609-.852 3.697 0l6.5 5.087c.731.572 1.151 1.434 1.151 2.362zm-22-4.851c0 1.192.535 2.253 1.365 2.986-.235.584-.365 1.213-.365 1.865v.337c-1.79-1.039-3-2.973-3-5.188 0-2.829 2.193-4.842 3.795-6.313.566-.505 1.22-1.168 1.743-1.692.898 1.145 1.675 2.781 1.879 3.851.28-.603.488-2.31.623-2.991l1.376 1.46c.51.542 1.03 1.209 1.471 1.928 0 0-1.221.963-1.59 1.244s-1.028.513-1.682.513c-1.681 0-2.013-1.195-2.232-1.986-.072-.258-.148-.533-.262-.829-1.469 1.349-3.121 2.877-3.121 4.815z"/></svg>