<svg id="Layer_1" viewBox="0 0 24 24" xmlns="http://www.w3.org/2000/svg" data-name="Layer 1"><path d="m24 6h-5.778l1.985 1.984-1.414 1.414-3.34-3.339c-.604-.603-.604-1.585 0-2.189l3.341-3.34 1.414 1.414-2.056 2.056h5.849v2zm-13 10h-7c-2.206 0-4 1.794-4 4v4h2v-4c0-1.103.897-2 2-2h7c1.103 0 2 .897 2 2v4h2v-4c0-2.206-1.794-4-4-4zm-9-7.5c0-3.033 2.468-5.5 5.5-5.5s5.5 2.467 5.5 5.5-2.468 5.5-5.5 5.5-5.5-2.467-5.5-5.5zm2 0c0 1.93 1.57 3.5 3.5 3.5s3.5-1.57 3.5-3.5-1.57-3.5-3.5-3.5-3.5 1.57-3.5 3.5z"/></svg>