<svg id="Layer_1" viewBox="0 0 24 24" xmlns="http://www.w3.org/2000/svg" data-name="Layer 1"><path d="m23.579 7.492c.261.445.421.956.421 1.508v15h-24v-15c0-1.654 1.346-3 3-3h7.929l-1.929 1.929v.071h-6c-.551 0-1 .449-1 1v2h7v2h-7v9h20v-9h-3.929l2-2h1.929v-1.929zm-8.336 5.508h-4.243v-4.243l7.879-7.878c1.133-1.134 3.109-1.134 4.243 0 1.164 1.117 1.163 3.126 0 4.243l-7.878 7.878zm-.828-2 7.292-7.293c.388-.372.388-1.042 0-1.414-.378-.379-1.037-.378-1.414 0l-7.293 7.292v1.415zm-10.415 7.5c0 .828.672 1.5 1.5 1.5s1.5-.672 1.5-1.5-.672-1.5-1.5-1.5-1.5.672-1.5 1.5z"/></svg>