<svg id="Layer_1" viewBox="0 0 24 24" xmlns="http://www.w3.org/2000/svg" data-name="Layer 1"><path d="m23.989 10.567-.6-.582c-.142-.139-1.417-1.327-3.241-1.372 1.231-1.322 1.298-3.045 1.301-3.241l.015-.839c-.74-.133-.75-.18-1.759-.284-.103-1.015-.148-1.028-.281-1.771l-.842.015c-.079.002-1.902.048-3.247 1.328-.066-1.838-1.303-3.149-1.357-3.206l-.585-.611c-.616.432-.66.411-1.443 1.053-.781-.64-.829-.622-1.443-1.053l-.586.611c-.055.057-1.311 1.388-1.359 3.248-1.341-1.25-3.136-1.297-3.214-1.299l-.842-.016c-.133.746-.177.754-.281 1.771-1.006.104-1.021.151-1.759.282l.015.841c.004.198.071 1.946 1.331 3.273-1.801.062-3.058 1.231-3.199 1.368l-.602.585c.43.622.401.655 1.045 1.451-.642.792-.617.832-1.046 1.45l.6.582c.142.139 1.417 1.327 3.241 1.372-1.231 1.323-1.298 3.045-1.301 3.241l-.015.839c.74.133.75.18 1.759.284.103 1.015.148 1.028.281 1.771l.842-.015c.077-.002 1.832-.047 3.168-1.256.147 1.728 1.293 2.942 1.345 2.997l.586.611c.616-.433.659-.411 1.442-1.053.781.641.829.622 1.443 1.053l.586-.611c.054-.057 1.289-1.365 1.358-3.2 1.35 1.337 3.227 1.386 3.307 1.388l.842.016c.133-.746.177-.754.281-1.771 1.007-.104 1.021-.151 1.759-.284l-.015-.839c-.003-.198-.07-1.946-1.331-3.273 1.801-.062 3.058-1.231 3.199-1.368l.6-.583c-.43-.622-.401-.655-1.045-1.451.642-.792.617-.832 1.046-1.45zm-18.797-4.298.961-.02c.009-.362.015-1.159.042-1.503.349.119.741.315 1.063.64.538.529 1.455 1.917 2.306 3.463-.314.243-.596.525-.826.849-1.559-.87-2.904-1.772-3.442-2.322-.327-.328-.523-.729-.642-1.085.165-.011.346-.02.537-.023zm-1.234 7.256c-.459 0-.878-.144-1.209-.309.221-.263.781-.834 1.029-1.097-.251-.266-.806-.832-1.03-1.098.331-.165.749-.308 1.21-.308.752-.01 2.415.329 4.09.815-.019.157-.048.31-.048.472 0 .241.03.474.071.703-1.698.493-3.354.831-4.113.822zm3.372 5.299c-.322.324-.715.521-1.062.64-.028-.341-.033-1.146-.042-1.505-.359-.009-1.156-.014-1.498-.042.119-.354.315-.757.641-1.085.522-.544 1.996-1.522 3.511-2.36.237.299.507.568.819.789-.711 1.295-1.84 3.079-2.368 3.563zm3.534-16.064c.255.219.831.789 1.086 1.033.258-.248.828-.811 1.086-1.033.164.334.304.755.304 1.215.008.763-.315 2.38-.799 4.08-.179-.024-.356-.055-.541-.055-.219 0-.429.031-.638.065-.492-1.727-.808-3.318-.802-4.09 0-.461.141-.881.304-1.215zm2.182 18.48c-.255-.219-.831-.789-1.086-1.033-.258.247-.827.812-1.086 1.032-.164-.333-.304-.754-.304-1.214-.034-.694.408-2.72.795-4.09.208.034.418.064.635.064.188 0 .369-.03.55-.056.502 1.774.801 3.294.799 4.081 0 .461-.141.881-.304 1.215zm-1.045-7.24c-1.103 0-2-.897-2-2s.897-2 2-2 2 .897 2 2-.897 2-2 2zm4.67-8.687c.322-.324.715-.521 1.062-.64.028.341.033 1.146.042 1.505.36.009 1.158.014 1.499.042-.118.354-.314.755-.643 1.085-.53.544-1.899 1.461-3.434 2.316-.238-.319-.519-.6-.839-.836.864-1.568 1.767-2.933 2.311-3.473zm2.138 12.555-.962.019c-.009.363-.015 1.16-.042 1.504-.349-.119-.741-.315-1.062-.64-.563-.564-1.462-1.922-2.359-3.557.304-.227.572-.496.801-.799 1.539.852 2.989 1.816 3.519 2.365.327.328.523.73.642 1.085-.165.012-.345.02-.536.023zm1.233-4.445c-.751.011-2.432-.333-4.103-.818.03-.199.061-.397.061-.604 0-.195-.03-.382-.058-.57 1.703-.493 3.34-.826 4.1-.818.459 0 .878.144 1.209.309-.221.263-.781.834-1.029 1.097.251.266.806.832 1.03 1.098-.331.165-.749.308-1.21.308z"/></svg>