<svg id="Layer_1" viewBox="0 0 24 24" xmlns="http://www.w3.org/2000/svg" data-name="Layer 1"><path d="m1.578 8.008c-.852-.065-1.582.643-1.578 1.492 0 .828.672 1.5 1.5 1.5.849.004 1.557-.726 1.492-1.578l.489-.489c.316.186.656.33 1.019.425v1.642h2v-1.642c.363-.094.704-.238 1.019-.425l.489.489c-.065.852.643 1.582 1.492 1.578.828 0 1.5-.672 1.5-1.5.004-.849-.726-1.557-1.578-1.492l-.489-.489c.186-.316.33-.656.425-1.019h1.642v-2h-1.642c-.094-.363-.238-.704-.425-1.019l.489-.489c.852.065 1.582-.643 1.578-1.492 0-.828-.672-1.5-1.5-1.5-.849-.004-1.557.726-1.492 1.578l-.489.489c-.316-.186-.656-.33-1.019-.425v-1.642h-2v1.642c-.363.094-.704.238-1.019.425l-.489-.489c.065-.852-.643-1.581-1.492-1.578-.828 0-1.5.672-1.5 1.5-.004.849.726 1.557 1.578 1.492l.489.489c-.186.316-.33.656-.425 1.019h-1.642v2h1.642c.094.363.238.704.425 1.019zm3.922-4.508c1.103 0 2 .897 2 2s-.897 2-2 2-2-.897-2-2 .897-2 2-2zm11.83 18.5h3.67v2h-16v-2h3.67c-1.779-.855-3.282-2.231-4.307-4h-4.363v-2h11v2h-4.224c1.501 1.872 3.761 3 6.224 3 4.411 0 8-3.589 8-8 0-1.404-.367-2.742-1.048-3.937l-6.652 6.652-2.858-2.859c.683-.192 1.275-.581 1.721-1.108l1.138 1.138 7.786-7.786-2.121-2.122-6.016 6.015c-.107-.734-.433-1.394-.922-1.906l6.937-6.936 1.768 1.768 1.67-1.67 1.414 1.414-1.67 1.67 1.768 1.768-2.498 2.498c1.038 1.61 1.584 3.459 1.584 5.401 0 3.962-2.321 7.382-5.67 9z"/></svg>