<?xml version="1.0" encoding="UTF-8"?>
<svg xmlns="http://www.w3.org/2000/svg" id="Layer_1" data-name="Layer 1" viewBox="0 0 24 24">
  <path d="M18,8.402c1.273,1.368,2,3.17,2,5.098v2.5h2v-2.5c0-3.103-1.493-5.94-4-7.724v-1.776c0-2.206-1.794-4-4-4h-4c-2.206,0-4,1.794-4,4v1.776c-2.507,1.784-4,4.621-4,7.724v10.5h2V13.5c0-1.928,.727-3.73,2-5.098v4.598c0,2.757,2.243,5,5,5h2c2.757,0,5-2.243,5-5v-4.598Zm-2,4.598c0,.891-.398,1.683-1.017,2.233-.793-.71-1.835-1.145-2.983-1.145s-2.19,.436-2.983,1.145c-.619-.55-1.017-1.342-1.017-2.233V4c0-1.103,.897-2,2-2h4c1.103,0,2,.897,2,2V13Zm8,8l-2,1-1,2-1-2-2-1,2-1,1-2,1,2,2,1ZM2.5,5l-.833-1.667-1.667-.833,1.667-.833,.833-1.667,.833,1.667,1.667,.833-1.667,.833-.833,1.667Z"/>
</svg>
