<svg id="Layer_1" viewBox="0 0 24 24" xmlns="http://www.w3.org/2000/svg" data-name="Layer 1"><path d="m11.923 12c3.309 0 6-2.691 6-6s-2.692-6-6-6-6 2.691-6 6 2.691 6 6 6zm0-2c-1.877 0-3.445-1.304-3.874-3.051.22.022.438.051.66.051 2.619 0 4.939-1.515 6.061-3.803.711.722 1.153 1.711 1.153 2.803 0 2.206-1.794 4-4 4zm0-8c.395 0 .769.075 1.13.182-.764 1.692-2.447 2.818-4.344 2.818-.21 0-.42-.021-.628-.049.464-1.695 2.003-2.951 3.843-2.951zm9 17v5h-2v-5c0-1.654-1.346-3-3-3h-2l-1.333 2 1.333 6h-4l1.333-6-1.333-2h-2c-1.654 0-3 1.346-3 3v5h-2v-5c0-2.757 2.243-5 5-5h8c2.757 0 5 2.243 5 5z"/></svg>