<svg id="Layer_1" viewBox="0 0 24 24" xmlns="http://www.w3.org/2000/svg" data-name="Layer 1"><path d="m23.818 13.366-.899-2.875-1.247.407-.244-.761-6.996 2.243.256.8-5.518 1.803 1.786-5.624.748.24 2.242-7-.766-.246.405-1.275-2.866-.897c-2.103-.655-4.351.52-5.007 2.616l-5.036 15.653c-.42.578-.676 1.282-.676 2.05 0 1.93 1.569 3.5 3.498 3.5s3.498-1.57 3.498-3.5-1.569-3.5-3.498-3.5c-.09 0-.175.02-.264.027l4.383-13.625c.328-1.052 1.45-1.643 2.505-1.312l.949.297-4.34 13.67c.52.379.948.863 1.307 1.397l13.578-4.434.294.941c.329 1.054-.26 2.178-1.328 2.512l-11.595 3.848c.042.778-.119 1.553-.394 2.238l12.602-4.183c2.104-.657 3.281-2.905 2.623-5.012zm-18.821 7.134c0 .827-.673 1.5-1.499 1.5s-1.499-.673-1.499-1.5.673-1.5 1.499-1.5 1.499.673 1.499 1.5z"/></svg>