<svg id="Layer_1" viewBox="0 0 24 24" xmlns="http://www.w3.org/2000/svg" data-name="Layer 1"><path d="m19 20h-2v-2h2zm-9 1c0 1.106.373 2.12.983 2.948-6.142-.519-10.983-5.675-10.983-11.948 0-6.617 5.383-12 12-12s11.97 5.356 11.997 11.95c-.307-1.733-1.451-3.206-2.904-4.083-1.225-2.677-3.594-4.725-6.482-5.508.936 1.162 2.003 2.807 2.78 4.675-1.465.163-2.877.885-3.854 1.967h-5.565c-.292.953-.472 1.961-.472 3s.181 2.048.472 3h2.028v2h-1.224c.375.762.796 1.471 1.224 2.099v1.901zm1.998-18.583c-.813.863-2.197 2.503-3.22 4.583h6.433c-1.024-2.09-2.405-3.722-3.213-4.583zm-8.645 4.583h3.225c.787-1.875 1.87-3.475 2.81-4.642-2.569.697-4.728 2.39-6.035 4.642zm2.542 8c-.246-.955-.396-1.959-.396-3s.157-2.044.403-3h-3.441c-.299.948-.461 1.955-.461 3s.169 2.052.469 3h3.427zm3.493 6.642c-.94-1.166-2.018-2.769-2.805-4.642h-3.229c1.309 2.248 3.466 3.945 6.034 4.642zm14.612-7.642v7c0 1.654-1.346 3-3 3h-6c-1.654 0-3-1.346-3-3v-7h2v-1c0-2.206 1.794-4 4-4s4 1.794 4 4v1zm-8 0h4v-1c0-1.103-.897-2-2-2s-2 .897-2 2zm6 2h-8v5c0 .551.448 1 1 1h6c.552 0 1-.449 1-1z"/></svg>