<?xml version="1.0" encoding="UTF-8"?>
<svg xmlns="http://www.w3.org/2000/svg" id="Layer_1" data-name="Layer 1" viewBox="0 0 24 24">
  <path d="M24,4.12s-.671-1.68-1-2.12c-.012,.004-.988-.004-1,0-.041,.337,.023,1.662,0,2-.044,.628-.381,.956-1,1,0,0-1.347,2.076-1.875,2.636-.172,.182-.554,.364-.825,.364-.172,0-.3-.074-.3-.268v-2.732s-2.529-.706-4-1c-2.5-.5-7.5-1-9-1H2v1H1S0,7.344,0,9.263v1.256c0,2.038,1,4.481,2,5.981,.362-.241,.99-.5,1.5-.5,1.577,.179,3.492,1.104,4,2,.254,.448,.5,1,.5,1,.471,0,1.756,.051,2,.538,.5,1,2,2.462,2,2.462,0,0,1.4-3.566,2-4h2s0-1,1-1c.617,0,2,0,2,1,0,.656,.613,1.587,1,2l1.23,.004c.185-.718,.019-1.295-.276-1.847-.335-.625-.658-1.234-.915-1.89-.084-.216-.095-.512-.039-.767,.022-.099,.054-.191,.095-.27,.351-.669,.977-1.402,1.355-2.059,.21-.365,.55-.67,.55-1.17,0-1,.009-1.925,0-2.5-.007-.463,2-4.5,2-4.5v-.88Zm-4.806,8.831c-.303,.427-.616,.868-.869,1.349-.123,.234-.216,.493-.277,.768-.315-.044-.663-.067-1.047-.067-1,0-1.764,.407-2.27,1h-1.378l-.525,.38c-.23,.167-.624,.452-1.328,1.807-.478-.6-1.224-.976-2.229-1.122-.01-.017-.019-.034-.029-.052-.935-1.649-3.539-2.777-5.514-3.001-.271-.031-.552-.028-.817,.005-.514-1.118-.908-2.429-.908-3.498v-1.256c0-.852,.272-2.188,.534-3.263h1.466v-1h1c1.363,0,6.224,.484,8.608,.961,.677,.135,1.612,.369,2.392,.572v1.199c0,1.272,1.01,2.268,2.3,2.268,.565,0,1.186-.197,1.7-.521,0,.017,0,2.257,0,2.257-.289,.418-.463,.755-.807,1.214Z"/>
</svg>
