<svg id="Layer_1" viewBox="0 0 24 24" xmlns="http://www.w3.org/2000/svg" data-name="Layer 1"><path d="m12.6 12v6.4h1.65v1.6h-3.25v-8zm11.4 1.599v-1.6h-4v8h1.6v-3h2.4v-1.6h-2.4v-1.801h2.4zm-6.75 6.4v-6.4h1.75v-1.6h-5v1.6h1.65v6.4zm-9.75-6.399c.496 0 .9.404.9.9h1.6c0-1.381-1.119-2.5-2.5-2.5s-2.5 1.119-2.5 2.5v3c0 1.381 1.119 2.5 2.5 2.5s2.5-1.119 2.5-2.5v-2h-2.5v1.6h.9v.4c0 .496-.404.9-.9.9s-.9-.404-.9-.9v-3c0-.496.404-.9.9-.9zm-5.5 8.4h18v2h-20v-21c0-1.654 1.346-3 3-3h9.414l7.586 7.586v2.414h-2v-1h-7v-7h-8c-.551 0-1 .448-1 1zm11-15h3.586l-3.586-3.586z"/></svg>