<svg id="Layer_1" viewBox="0 0 24 24" xmlns="http://www.w3.org/2000/svg" data-name="Layer 1"><path d="m6 11.231v-4.231l1.793 1.793 2.793-2.793-2.793-2.793-1.793 1.793v-4.231c0-.425.344-.769.769-.769h4.231l-1.793 1.793 2.793 2.793 2.793-2.793-1.793-1.793h4.231c.425 0 .769.344.769.769v4.231l-1.793-1.793-2.793 2.793 2.793 2.793 1.793-1.793v4.231c0 .425-.344.769-.769.769h-4.231l1.793-1.793-2.793-2.793-2.793 2.793 1.793 1.793h-4.231c-.425 0-.769-.344-.769-.769zm18 8.769v-15c0-1.654-1.346-3-3-3h-1v2h1c.552 0 1 .449 1 1v13h-20v-13c0-.551.448-1 1-1h1v-2h-1c-1.654 0-3 1.346-3 3v15h11v2h-5v2h12v-2h-5v-2z"/></svg>