<svg id="Layer_1" viewBox="0 0 24 24" xmlns="http://www.w3.org/2000/svg" data-name="Layer 1"><path d="m24 14.535v9.465h-2v-9.465c0-.347-.225-.656-.513-.703-.474-.044-.707.23-.737.616v2.575h-2v-5.498c0-.347-.225-.656-.513-.703-.472-.046-.708.231-.737.616v5.585h-2v-6.311c0-.347-.225-.656-.513-.703-.473-.045-.708.23-.737.616v6.398h-2v-4.113c0-.348-.225-.656-.513-.703-.474-.043-.707.23-.737.616v8.398l-2.403-2.403c-.341-.342-.876-.418-1.215-.174-.521.434-.478.949-.12 1.365h-.001s.006.005.009.007l3.899 3.983h-2.799l-2.529-2.584c-1.244-1.208-1.065-3.41.373-4.395.808-.581 1.87-.666 2.788-.29v-3.909c0-.771.337-1.5.925-2 .642-.542 1.546-.771 2.361-.529.083-.645.387-1.242.889-1.669.587-.5 1.364-.714 2.134-.589.679.111 1.261.507 1.657 1.054.487-.24 1.04-.332 1.593-.241 1.249.203 2.191 1.354 2.191 2.676v.383c.342-.084.701-.106 1.059-.049 1.249.203 2.191 1.354 2.191 2.676zm-1.5-11.535c.828 0 1.5-.672 1.5-1.5s-.672-1.5-1.5-1.5c-3.442 0-3.5 4-3.5 4s.5-1 3.5-1zm-4.243 3.793s1.061-.354 3.182 1.768c.586.586 1.536.586 2.121 0 .586-.586.586-1.536 0-2.121-2.434-2.434-5.303.354-5.303.354zm-15.009 8.757c.201.341.431.661.673.971-.442.614-.732 1.325-.853 2.08-1.895-1.977-3.068-4.653-3.068-7.601 0-6.065 4.935-11 11-11 2.353 0 4.531.748 6.32 2.012-.256.82-.331 1.561-.326 2.329-.656-.597-1.389-1.112-2.204-1.492.698 1.081 1.257 2.236 1.684 3.441-.269-.101-.548-.18-.838-.228-.471-.077-.94-.056-1.401.008-.633-1.465-1.504-2.829-2.599-4.039-.211-.015-.422-.032-.637-.032-1.057 0-2.068.193-3.011.529 1.609 1.333 2.784 3.097 3.428 5.061-.189.216-.353.446-.498.69-.435.068-.857.188-1.256.375-.137-.506-.313-1.001-.536-1.474-2.912 2.006-4.979 4.953-5.878 8.368zm4.84-10.083c-.583-.749-1.296-1.398-2.101-1.937-2.402 1.618-3.986 4.362-3.986 7.47 0 .547.057 1.081.151 1.602 1.254-2.877 3.296-5.343 5.937-7.134z"/></svg>