<?xml version="1.0" encoding="UTF-8"?>
<svg xmlns="http://www.w3.org/2000/svg" id="Layer_1" data-name="Layer 1" viewBox="0 0 24 24">
  <path d="M10,10.816v9.184h-3.008c0,.05,.008,.099,.008,.149v1.851h3v2H5v-3.851c0-1.666-.757-3.288-2.132-4.567C.719,13.583-.298,10.754,.075,7.822,.59,3.782,3.904,.517,7.956,.059c2.565-.289,5.129,.522,7.039,2.227,1.91,1.707,3.006,4.154,3.006,6.714h-2c0-1.991-.853-3.895-2.338-5.222-1.506-1.345-3.453-1.959-5.481-1.731-3.147,.355-5.721,2.891-6.121,6.029-.292,2.285,.5,4.488,2.17,6.043,1.2,1.116,2.027,2.451,2.448,3.881h1.322v-7.184c-1.161-.414-2-1.514-2-2.816h2c0,.551,.449,1,1,1s1-.449,1-1h2c0,1.302-.839,2.402-2,2.816Zm14,2.686l-.002,9.41c.007,.747-.701,1.184-1.394,1.088l-2.985-2.003h-7.619V13.5c0-1.378,1.122-2.5,2.5-2.5h7c1.378,.002,2.5,1.124,2.5,2.502Zm-2,0c0-.271-.229-.5-.5-.5h-7c-.276-.001-.5,.223-.5,.499v6.497h6.228l1.771,1.188v-7.684Z"/>
</svg>
