<?xml version="1.0" encoding="UTF-8"?>
<svg xmlns="http://www.w3.org/2000/svg" id="Layer_1" data-name="Layer 1" viewBox="0 0 24 24">
  <path d="M20.5,0H8.5c-1.93,0-3.5,1.57-3.5,3.5v13.5H0v3.5c0,1.93,1.57,3.5,3.5,3.5h5.949c.15-.664,.275-1.209,.507-2h-3.307c.219-.456,.351-.961,.351-1.5V3.5c0-.827,.673-1.5,1.5-1.5s1.5,.673,1.5,1.5v3.5h9v3.571c.704-.208,1.381-.347,2-.432v-3.138h3V3.5c0-1.93-1.57-3.5-3.5-3.5ZM2,20.5v-1.5h3v1.5c0,.827-.673,1.5-1.5,1.5s-1.5-.673-1.5-1.5ZM22,5H12v-1.5c0-.536-.122-1.045-.338-1.5h8.838c.827,0,1.5,.673,1.5,1.5v1.5Zm2,7.06s-.597,4.644-4.143,7.508c-1.132,.914-2.295,1.47-3.357,1.807,0,0,1-3.375,4.066-6.941-3.103,1.718-5.314,4.825-6.277,7.412-.276,.704-.476,1.452-.648,2.155h-2.141c.203-.892,.46-1.864,.831-2.805,.166-1.36,.992-4.675,3.755-6.906,3.546-2.864,7.914-2.23,7.914-2.23Zm-7-.06H9v-2h8v2Zm-8,2h4.506c-.581,.65-1.06,1.329-1.449,2h-3.057v-2Z"/>
</svg>
