<svg id="Layer_1" viewBox="0 0 24 24" xmlns="http://www.w3.org/2000/svg" data-name="Layer 1"><path d="m22 14v-1c0-2.206-1.794-4-4-4s-4 1.794-4 4v1h-2v2c-1.105 0-2 .895-2 2s.895 2 2 2v1c0 1.654 1.346 3 3 3h6c1.654 0 3-1.346 3-3v-7zm-6-1c0-1.103.897-2 2-2s2 .897 2 2v1h-4zm6 8c0 .551-.448 1-1 1h-6c-.552 0-1-.449-1-1v-5h8zm-3-1h-2v-2h2zm-7-16c-3.739 0-7.255 1.457-9.899 4.101l-1.414-1.414c3.021-3.022 7.04-4.687 11.313-4.687s8.292 1.665 11.313 4.687l-1.414 1.414c-2.645-2.644-6.16-4.101-9.899-4.101zm0 7c-1.87 0-3.627.728-4.95 2.05l-1.414-1.414c1.7-1.7 3.96-2.636 6.364-2.636.557 0 1.105.056 1.642.154-.426.554-.747 1.189-.938 1.881-.232-.023-.467-.035-.703-.035z"/></svg>