<?xml version="1.0" encoding="UTF-8"?>
<svg xmlns="http://www.w3.org/2000/svg" id="Layer_1" data-name="Layer 1" viewBox="0 0 24 24">
  <path d="M9.234,5.428c-.311-1.853-2.97-1.844-3.303-.04l-1.29,5.612h1.583l.24-.994h2.148l.221,.994h1.667l-1.266-5.572Zm-2.385,2.978l.646-2.678c.019-.068,.05-.122,.097-.122,.014,.01,.057,.063,.082,.176l.583,2.624h-1.407Zm6.15-.406h-2v-1.6h2v1.6Zm5.55,3h-4.55v-1.715l2.562-3.686h-2.562v-1.6h4.55v1.715l-2.562,3.686h2.562v1.6Zm-4.866,11h10.316v2H0v-2H10.316c-.307-.89-1.126-2-3.316-2H0v-2H7c2.85,0,4.321,1.404,5,2.858,.679-1.454,2.15-2.858,5-2.858h7v2h-7c-2.191,0-3.009,1.11-3.316,2Zm-1.684-4.72l2.851-2.28h8.149V3c0-1.654-1.346-3-3-3H4C2.346,0,1,1.346,1,3V15H9.149l2.851,2.28ZM3,3c0-.552,.449-1,1-1H20c.551,0,1,.448,1,1V13h-6.851l-2.149,1.72-2.149-1.72H3V3Z"/>
</svg>
