<svg id="Layer_1" viewBox="0 0 24 24" xmlns="http://www.w3.org/2000/svg" data-name="Layer 1"><path d="m24 10.04v.966l-11.323-8.771c-.398-.312-.952-.313-1.351-.002l-8.905 6.976c-.264.207-.421.53-.421.865v11.926h8.101c.152.743.482 1.416.924 2h-11.025v-13.926c0-.958.433-1.847 1.187-2.439l8.905-6.976c1.123-.881 2.693-.881 3.816 0l8.904 6.942c.754.591 1.188 1.479 1.188 2.439zm-8 3.96h8v7c0 1.654-1.346 3-3 3h-6c-1.654 0-3-1.346-3-3v-7h2v-1c0-2.206 1.794-4 4-4 1.859 0 3.411 1.28 3.858 3h-2.136c-.347-.595-.985-1-1.722-1-1.103 0-2 .897-2 2zm-2 2v5c0 .552.448 1 1 1h6c.552 0 1-.448 1-1v-5zm5 2h-2v2h2z"/></svg>