<svg id="Layer_1" viewBox="0 0 24 24" xmlns="http://www.w3.org/2000/svg" data-name="Layer 1"><path d="m23.277 11.142c-1.183-2.712-2.283-5.233-3.5-6.752-1.9-2.52-4.693-4.056-7.777-4.332v2c2.481.265 4.693 1.56 6.229 3.585.46.57.931 1.404 1.412 2.357h-3.641v2h4.588c.287.637.573 1.291.856 1.941l.464 1.059h-1.99l-.68 5.132c-.065.495-.491.868-.991.868h-3.247v3h-2v-14h-3v-6h-4.184c-.414-1.161-1.514-2-2.816-2-1.654 0-3 1.346-3 3s1.346 3 3 3c1.302 0 2.402-.839 2.816-2h2.184v6h3v12h-4v-4.414l-3-3v-.77c1.161-.414 2-1.514 2-2.816 0-1.654-1.346-3-3-3s-3 1.346-3 3c0 1.302.839 2.402 2 2.816v1.598l3 3v5.586h12v-3h1.247c1.5 0 2.778-1.121 2.974-2.606l.449-3.394h2.33v-2.212zm-20.277-7.142c-.552 0-1-.448-1-1s.448-1 1-1 1 .448 1 1-.448 1-1 1zm0 8c-.552 0-1-.448-1-1s.448-1 1-1 1 .448 1 1-.448 1-1 1z"/></svg>