<svg id="Layer_1" viewBox="0 0 24 24" xmlns="http://www.w3.org/2000/svg" data-name="Layer 1"><path d="m2.037 10.185c-.12 1.329.058 2.634.493 3.849-.676.115-1.3.417-1.812.863-.466-1.229-.715-2.537-.718-3.876-.008-1.178.198-2.384.574-3.484l1.625 1.622c-.071.337-.131.678-.162 1.026zm.251-6.584c-.382-.38-.364-1.01.039-1.368.388-.347.986-.315 1.334.074l4.052 4.547c.584-.397 1.259-.66 1.983-.781 0 0-4.616-5.175-4.655-5.214-.565-.563-1.354-.859-2.041-.859s-1.536.277-2.121.861c-1.148 1.149-1.148 3.009 0 4.157l4.795 4.787c.172-.703.496-1.341.932-1.892l-4.317-4.311zm2.572 14.035 1.339 6.362h-1.632l-.295-1.397h-2.378l-.309 1.397h-1.585l1.365-6.408c.168-.863.87-1.58 1.742-1.579.894.006 1.563.689 1.753 1.624zm-.924 3.368-.641-3.039c-.047-.23-.093-.354-.185-.354s-.15.153-.189.354l-.673 3.04h1.688zm3.464 2.994h1.6v-7.987h-1.6zm15.873-12.845c-1.179-2.699-2.292-5.248-3.473-6.705-2.125-2.83-5.336-4.41-8.8-4.41-2 0-2.871.358-3.499.569l1.473 1.652c.246-.056 1.026-.26 2.026-.26 2.835 0 5.464 1.335 7.222 3.676 1.17 1.421 2.584 4.827 3.684 7.324h-1.99l-.679 5.141c-.065.494-.492.867-.991.867h-4.246v2.995h-3v1.997h4.999v-3h2.247c1.499 0 2.777-1.114 2.974-2.598l.449-3.402h2.33v-2.194s-.513-1.163-.727-1.651zm-12.754-3.167c-1.657 0-3 1.341-3 2.995s1.343 2.995 3 2.995h5s-1-5.991-5-5.991z"/></svg>