<?xml version="1.0" encoding="UTF-8"?>
<svg xmlns="http://www.w3.org/2000/svg" id="Layer_1" data-name="Layer 1" viewBox="0 0 24 24">
  <path d="m24,10.074v13.926h-2v-13.926c0-.335-.157-.658-.421-.865L12.674,2.233c-.397-.311-.951-.312-1.349,0L2.421,9.209c-.268.209-.421.524-.421.865v13.926H0v-13.926c0-.959.433-1.849,1.188-2.439L10.092.659c1.124-.881,2.691-.881,3.816,0l8.905,6.977c.754.592,1.187,1.48,1.187,2.439Zm-4,2.926v11h-2v-1H6v1h-2v-14h2v4h5v-1c0-1.654,1.346-3,3-3h3c1.654,0,3,1.346,3,3Zm-7,1h5v-1c0-.551-.448-1-1-1h-3c-.552,0-1,.449-1,1v1Zm-7,7h5v-1c0-1.654,1.346-3,3-3h4v-1H6v5Zm12,0v-2h-4c-.552,0-1,.449-1,1v1h5Zm-8-9.5c0-.828-.672-1.5-1.5-1.5s-1.5.672-1.5,1.5.672,1.5,1.5,1.5,1.5-.672,1.5-1.5Zm-1.5,5.5c-.828,0-1.5.672-1.5,1.5s.672,1.5,1.5,1.5,1.5-.672,1.5-1.5-.672-1.5-1.5-1.5Z"/>
</svg>
