<svg id="Layer_1" viewBox="0 0 24 24" xmlns="http://www.w3.org/2000/svg" data-name="Layer 1"><path d="m22 11h-8c-1.103 0-2 .897-2 2v7h5v2h-2v2h6v-2h-2v-2h5v-7c0-1.103-.897-2-2-2zm0 7h-8l-.002-5h8.002zm-15-9h5v-7c0-1.103-.897-2-2-2h-8c-1.103 0-2 .897-2 2v7h5v2h-2v2h6v-2h-2zm-5.002-7h8.002v5h-8zm6.421 16.594c.774.775.774 2.037 0 2.812l-2.508 2.507-1.414-1.414 1.499-1.498h-2.997c-1.654 0-3-1.346-3-3v-3h2v3c0 .552.448 1 1 1h3.006l-1.508-1.498 1.414-1.414 2.507 2.506zm15.581-12.594v3h-2v-3c0-.552-.448-1-1-1h-3.006l1.508 1.498-1.414 1.414-2.507-2.506c-.774-.775-.774-2.037 0-2.812l2.507-2.506 1.414 1.414-1.499 1.498h2.997c1.654 0 3 1.346 3 3z"/></svg>