<svg id="Layer_1" viewBox="0 0 24 24" xmlns="http://www.w3.org/2000/svg" data-name="Layer 1"><path d="m8.981 15.297-5-.909v-2.033l5 .909zm0-6.033-5-.909v2.033l5 .909zm0-4-5-.909v2.033l5 .909zm11 1.124v-2.033l-5 .909v2.033zm-16 12 3 .545v-2.033l-3-.545zm9-13.267c0-.967.691-1.794 1.642-1.968l6.18-1.123c.397-.071.685.104.818.216.134.112.359.36.359.768v12.847l2 .8v-13.647c0-.893-.393-1.732-1.078-2.304s-1.583-.807-2.458-.648l-6.179 1.123c-.916.167-1.706.642-2.285 1.3-.578-.659-1.368-1.134-2.285-1.3l-6.177-1.123c-.881-.159-1.774.077-2.458.647-.686.572-1.079 1.412-1.079 2.305v18.82l7.34 1.335 4.039.734-.18-.174c-.587-.587-.952-1.316-1.097-2.092l-2.404-.437-5.698-1.036v-17.15c0-.408.225-.656.359-.768s.417-.288.819-.216l6.179 1.123c.952.173 1.643 1.001 1.643 1.968v13.207c.197-.225.417-.431.665-.61.4-.289.857-.479 1.334-.585v-12.012zm6.019 11.702v-3.323c0-.827-.673-1.5-1.5-1.5s-1.5.673-1.5 1.5v6.75l-.622-.626c-.677-.678-1.772-.851-2.562-.285-.997.718-1.08 2.118-.249 2.949l1.777 1.711h3.656v-5.423l4 1.6v3.823h2v-5.177l-5-2z"/></svg>