<svg id="Layer_1" viewBox="0 0 24 24" xmlns="http://www.w3.org/2000/svg" data-name="Layer 1"><path d="m21 3h-18c-1.654 0-3 1.346-3 3v2.555c.59-.344 1.268-.555 2-.555v-2c0-.551.449-1 1-1h18c.551 0 1 .449 1 1v13h-20v-3c-.732 0-1.41-.211-2-.555v5.555h24v-15c0-1.654-1.346-3-3-3z"/><circle cx="2" cy="12" r="2"/><path d="m10 10.5c0-1.381-1.119-2.5-2.5-2.5h-2.5v8h1.6v-3h.784l.872 3h1.744l-1.054-3.468c.635-.453 1.054-1.192 1.054-2.032zm-2.5.9h-.9v-1.8h.9c.496 0 .9.404.9.9s-.404.9-.9.9z"/><path d="m20.1 10.5v-.2c0-1.269-1.031-2.3-2.3-2.3s-2.3 1.031-2.3 2.3v3.4c0 1.269 1.031 2.3 2.3 2.3s2.3-1.031 2.3-2.3v-.2h-1.6v.2c0 .386-.314.7-.7.7s-.7-.314-.7-.7v-3.4c0-.386.314-.7.7-.7s.7.314.7.7v.2z"/><path d="m14.5 9.6v-1.6h-3.5v8h3.5v-1.6h-1.9v-1.55h1.9v-1.6h-1.9v-1.65z"/></svg>