<svg id="Layer_1" viewBox="0 0 24 24" xmlns="http://www.w3.org/2000/svg" data-name="Layer 1"><path d="m13 4h-2v-4h2zm4-4h-2v4h2zm-8 0h-2v4h2zm15 17.987c0 3.309-2.691 6-6 6s-6-2.691-6-6c0-1.758.979-3.688 1.945-4.685l1.369-1.413c.137.695.34 2.371.633 2.979.447-1.574.889-3.466 2.13-4.931.61.617 1.27 1.279 1.969 1.864 1.669 1.453 3.954 3.443 3.954 6.186zm-2 0c.004-1.912-1.911-3.493-3.474-4.857-.138.391-.233.787-.328 1.177-.273 1.131-.647 2.68-2.463 2.68-.582 0-1.009-.317-1.32-.763-.248.577-.415 1.205-.415 1.763 0 1.525.867 2.837 2.125 3.512-.257-.708-.107-1.53.46-2.097l1.415-1.415 1.414 1.415c.567.568.717 1.39.46 2.098 1.258-.675 2.126-1.987 2.126-3.512zm-22-11.987v1c0 6.001 4.126 9.152 6.168 10.347l-.835 1.67c-1.302.087-2.333 1.16-2.333 2.483 0 1.381 1.119 2.5 2.5 2.5s2.5-1.119 2.5-2.5c0-.709-.298-1.345-.772-1.8l.85-1.7h1.923s0-.008 0-.013c0-.674.106-1.342.275-1.987h-2.391c-.92-.434-5.325-2.773-5.836-8h19.903c-.084.858-.282 1.629-.543 2.336.486.424 1.033.904 1.576 1.447.61-1.341 1.015-2.921 1.015-4.783v-1z"/></svg>