<?xml version="1.0" encoding="UTF-8"?>
<svg xmlns="http://www.w3.org/2000/svg" id="Layer_1" data-name="Layer 1" viewBox="0 0 24 24">
  <path d="M21,2H12.236L8.236,0H3C1.346,0,0,1.346,0,3V22H10.05c-.019-.166-.05-.329-.05-.5,0-.529,.108-1.029,.276-1.5H2V8H22v2c.713,.004,1.399,.176,2,.521V5c0-1.654-1.346-3-3-3ZM2,6V3c0-.551,.449-1,1-1H7.764l4,2h9.236c.551,0,1,.449,1,1v1H2Zm21.311,6.464c.438,.38,.689,.93,.689,1.51v7.025c-.232,1.141-1.291,2-2.5,2-1.381,0-2.5-1.119-2.5-2.5s1.119-2.5,2.5-2.5c.171,0,.338,.018,.5,.05v-4.076l-5,.715v7.311c-.232,1.141-1.291,2-2.5,2-1.381,0-2.5-1.119-2.5-2.5s1.119-2.5,2.5-2.5c.171,0,.338,.018,.5,.05v-4.361c0-.989,.738-1.84,1.717-1.98l5-.714c.576-.083,1.156,.089,1.594,.469Z"/>
</svg>
