<svg id="Layer_1" viewBox="0 0 24 24" xmlns="http://www.w3.org/2000/svg" data-name="Layer 1"><path d="m1.464 4.708-1.414-1.416c2.124-2.123 4.948-3.292 7.95-3.292s5.826 1.169 7.95 3.292l-1.414 1.415c-1.746-1.746-4.067-2.708-6.536-2.708s-4.79.962-6.536 2.709zm2.208 2.085 1.414 1.414c1.607-1.606 4.221-1.606 5.828 0l1.414-1.414c-2.387-2.387-6.27-2.387-8.656 0zm20.328 7.207v7c0 1.654-1.346 3-3 3h-6c-1.654 0-3-1.346-3-3v-7h2v-1c0-2.206 1.794-4 4-4s4 1.794 4 4v1zm-8 0h4v-1c0-1.103-.897-2-2-2s-2 .897-2 2zm6 2h-8v5c0 .551.448 1 1 1h6c.552 0 1-.449 1-1zm-3 2h-2v2h2zm-17 4v-4c0-.551.448-1 1-1h7v-2h-1v-5h-2v5h-4c-1.654 0-3 1.346-3 3v6h11.026c-.442-.584-.773-1.257-.924-2z"/></svg>