<?xml version="1.0" encoding="UTF-8"?>
<svg xmlns="http://www.w3.org/2000/svg" id="Layer_1" data-name="Layer 1" viewBox="0 0 24 24">
  <path d="M1.567,3.5c0-1.381,1.119-2.5,2.5-2.5s2.5,1.119,2.5,2.5-1.119,2.5-2.5,2.5S1.567,4.881,1.567,3.5Zm1.5,13.5v3l-.998,4H0l1.099-4.383-.018-2.617h-.014v-7c0-1.654,1.346-3,3-3h5.12l3.099-2.86c.785-2.4,3.042-4.14,5.701-4.14,3.309,0,6,2.691,6,6s-2.691,6-6,6c-2.951,0-5.405-2.143-5.902-4.953l-2.116,1.953h-2.901v6h4v3.727l-2,1.388v-3.114H3.067ZM13.986,6c0,2.206,1.794,4,4,4s4-1.794,4-4-1.794-4-4-4-4,1.794-4,4Zm-8.92,3h-1c-.552,0-1,.448-1,1v5h2v-6Zm1.909,15h3.267l13.825-9.593v-2.267L6.975,24Z"/>
</svg>
