<?xml version="1.0" encoding="UTF-8"?>
<svg xmlns="http://www.w3.org/2000/svg" id="Layer_1" data-name="Layer 1" viewBox="0 0 24 24">
  <path d="M20,2h-1.375c.332,.627,.575,1.298,.718,2h.658c.551,0,1,.448,1,1v14H8.225l-4.994,2.979c-.051,.079-.269-.04-.23-.124V5c0-.552,.449-1,1-1h.668c.142-.707,.378-1.379,.706-2h-1.373c-1.654,0-3,1.346-3,3V21.854c-.059,1.636,1.957,2.747,3.297,1.815l4.479-2.67h14.225V5c0-1.654-1.346-3-3-3ZM6.565,4.642C6.907,2.404,8.615,.589,10.815,.125c1.658-.353,3.353,.052,4.647,1.102,1.295,1.05,2.038,2.607,2.038,4.273,0,1.898-.967,3.636-2.588,4.646-.254,.158-.412,.468-.412,.808v2.046h-5v-2.045c0-.341-.153-.647-.399-.8-1.874-1.163-2.869-3.326-2.535-5.514Zm3.588,3.813c.347,.215,.624,.52,.846,.863v-2.596c-.595-.346-1-.984-1-1.723h4c0,.738-.405,1.376-1,1.723v2.6c.224-.346,.502-.654,.853-.873,1.032-.644,1.647-1.746,1.647-2.95,0-1.06-.473-2.052-1.297-2.72-.836-.68-1.894-.928-2.975-.698-1.368,.288-2.472,1.465-2.685,2.861-.216,1.416,.401,2.761,1.611,3.512Z"/>
</svg>
