<svg id="Layer_1" viewBox="0 0 24 24" xmlns="http://www.w3.org/2000/svg" data-name="Layer 1"><path d="m3 2.5c0-1.381 1.119-2.5 2.5-2.5s2.5 1.119 2.5 2.5-1.119 2.5-2.5 2.5-2.5-1.119-2.5-2.5zm.892 11.836 3.108 1.325v3.339h2v-4.661l-4.296-1.83c-.486-.226-.704-.92-.704-1.509v-2.352c0-.322.2-.648.583-.648.285 0 .493.122 1.078.49l2.566 1.51h3.772v-2h-3.228l-2.071-1.218c-.666-.419-1.24-.782-2.118-.782-1.448 0-2.583 1.163-2.583 2.648v2.352c0 1.189.489 2.687 1.892 3.336zm13.077-1.336h-2.969v-8h2.969l2.5 3h4.531v2h-4.531zm-.938-2 1.667-2-1.698-2v4zm6.472 10.316c-.38.435-.928.684-1.503.684-1.103 0-2-.897-2-2h-2c0 1.103-.897 2-2 2s-2-.897-2-2h-2c0 1.103-.897 2-2 2s-2-.897-2-2h-2c0 1.103-.897 2-2 2-.575 0-1.123-.249-1.503-.684l-1.506 1.316c.759.87 1.855 1.368 3.009 1.368 1.201 0 2.266-.542 3-1.382.734.84 1.799 1.382 3 1.382s2.266-.542 3-1.382c.734.84 1.799 1.382 3 1.382s2.266-.542 3-1.382c.734.84 1.799 1.382 3 1.382 1.153 0 2.25-.499 3.009-1.368l-1.506-1.315z"/></svg>