<svg id="Layer_1" viewBox="0 0 24 24" xmlns="http://www.w3.org/2000/svg" data-name="Layer 1"><path d="m24.009 22.632c-.759.87-1.855 1.368-3.009 1.368-1.201 0-2.266-.542-3-1.382-.734.84-1.799 1.382-3 1.382s-2.266-.542-3-1.382c-.734.84-1.8 1.382-3 1.382s-2.266-.542-3-1.382c-.734.84-1.8 1.382-3 1.382-1.152 0-2.249-.499-3.009-1.368l1.506-1.316c.38.435.928.684 1.503.684 1.103 0 2-.897 2-2h2c0 1.103.897 2 2 2s2-.897 2-2h2c0 1.103.897 2 2 2s2-.897 2-2h2c0 1.103.897 2 2 2 .575 0 1.123-.249 1.503-.684l1.506 1.315zm-24.009-10.632c0-.705.19-1.393.545-2-.355-.607-.545-1.295-.545-2 0-1.458.802-2.775 2.036-3.472-.024-.175-.036-.352-.036-.528 0-2.206 1.794-4 4-4s4 1.794 4 4c0 .177-.012.353-.036.528.805.454 1.421 1.176 1.756 2.026l1.504-1.177c1.045-.818 2.506-.818 3.553 0l6.281 4.916c.599.468.942 1.172.942 1.933v5.774h-2v-5.774c0-.139-.065-.272-.174-.357l-6.282-4.917c-.32-.25-.767-.251-1.088 0l-6.118 4.788c-.215.168-.338.421-.338.695v5.565h-2v-2.556c-.591.345-1.268.556-2 .556-2.206 0-4-1.794-4-4zm3.124-2-.602.669c-.238.265-.521.71-.521 1.331 0 1.103.897 2 2 2s2.049-.897 2.049-2c.109-.721.471-1.377 1.057-1.835l2.886-2.259c-.041-.854-.632-1.597-1.473-1.825l-1.085-.294.418-1.043c.098-.245.148-.495.148-.744 0-1.103-.897-2-2-2s-2 .897-2 2c0 .249.05.499.148.744l.418 1.043-1.085.294c-.872.236-1.481 1.025-1.481 1.919 0 .621.284 1.066.521 1.331zm8.876 2h6v6h-6zm2 4h2v-2h-2z"/></svg>