<?xml version="1.0" encoding="UTF-8"?>
<svg xmlns="http://www.w3.org/2000/svg" id="Layer_1" data-name="Layer 1" viewBox="0 0 24 24">
  <path d="M23.554,.45c-.386-.388-.954-.543-1.481-.396-2.544,.688-4.835,1.736-6.811,3.114-1.343,.938-4.43,3.836-6.094,5.5l-3.683,3.681c-.96-1.242-1.486-2.754-1.486-4.349H2c0,2.44,.95,4.734,2.676,6.461l1.724,1.724-3.208,3.208-1.793-1.793L-.015,19.015l5,5,1.414-1.414-1.793-1.793,3.208-3.208,1.725,1.725c1.726,1.726,4.021,2.676,6.46,2.676v-2c-1.6,0-3.116-.529-4.36-1.494l3.684-3.682c1.701-1.7,4.643-4.83,5.556-6.146,1.349-1.942,2.38-4.213,3.064-6.745,.145-.527-.005-1.096-.391-1.482Zm-4.316,7.088c-.796,1.147-3.655,4.201-5.327,5.872l-3.73,3.727-3.328-3.328,3.73-3.727c1.635-1.635,4.65-4.454,5.824-5.273,1.573-1.098,3.377-1.967,5.372-2.587-.615,1.985-1.468,3.771-2.542,5.316Z"/>
</svg>
