<svg id="Layer_1" viewBox="0 0 24 24" xmlns="http://www.w3.org/2000/svg" data-name="Layer 1"><path d="m24 10c0 2.294-1.052 4.481-2.78 5.999-.814.716-1.22 1.833-1.22 3.064v2.937h-5.761c.325-.629.554-1.302.669-2h3.092v-.937c0-.362-.025-.716.031-1.063h-3.031v-8s.5 0 1 0 1-.449 1-1h2c0 1.3-.84 2.411-2 2.826l-.01 4.174h1.716c.312-.569.713-1.079 1.195-1.503 1.295-1.139 2.1-2.778 2.1-4.497 0-2.467-1.542-4.655-3.832-5.572-.741-.297-1.52-.428-2.332-.427-.284.005-.562.039-.836.085.008-.707-.094-1.384-.278-1.98.354-.059.714-.099 1.081-.105 1.071-.011 2.12.174 3.109.57 3.053 1.223 5.088 4.139 5.088 7.428zm-11-6v15c0 2.57-2.43 5-5 5-2.411 0-4.311-1.285-5.389-3.631-1.579-.778-2.611-2.405-2.611-4.179 0-.901.258-1.769.741-2.516-.521-.806-.741-1.72-.741-2.674 0-1.085.327-2.574 2.043-3.747v-.492c0-1.821 1.314-3.209 3.233-3.542.372-1.864 1.852-3.219 3.673-3.219 2.013 0 4.051 1.374 4.051 4zm-2 0c0-1.477-1.105-2-2.051-2-1.145 0-1.762 1.104-1.762 2.143v1h-1c-1.032 0-2.143.507-2.143 1.619v1.632l-.51.287c-1.42.799-1.533 1.706-1.533 2.319 0 .652.167 1.278.582 1.815l.87.798-.707.737c-.481.501-.746 1.155-.746 1.84 0 1.112.678 2.088 1.728 2.485l.41.155.164.406c.749 1.859 1.958 2.763 3.699 2.763 1.486 0 3-1.514 3-3v-14.999z"/></svg>