<svg id="Layer_1" viewBox="0 0 24 24" xmlns="http://www.w3.org/2000/svg" data-name="Layer 1"><path d="m22 14.41-9.145-10.06c.039-.769.193-3.636.205-4.35h-1.519l-.299.357c-.058.067-1.435 1.643-4.216 1.643s-4.159-1.575-4.211-1.636l-.318-.364h-1.524l.979 19.163c.129 2.712 2.357 4.837 5.073 4.837s4.943-2.125 5.072-4.834l.153-2.994 4.185 3.804c1.557 1.415 3.944 1.362 5.436-.13 1.489-1.489 1.546-3.877.129-5.436zm-11.9 4.657c-.078 1.645-1.429 2.933-3.075 2.933s-2.997-1.288-3.075-2.936l-.818-16.003c.941.5 2.238.939 3.894.939s2.953-.439 3.893-.939l-.818 16.007zm10.357-.635c-.733.734-1.91.762-2.676.063l-5.398-4.907.328-6.423 7.81 8.591c.697.768.669 1.942-.063 2.676zm-11.932-9.932c0 .828-.672 1.5-1.5 1.5s-1.5-.672-1.5-1.5.672-1.5 1.5-1.5 1.5.672 1.5 1.5z"/></svg>