<svg id="Layer_1" viewBox="0 0 24 24" xmlns="http://www.w3.org/2000/svg" data-name="Layer 1"><path d="m10.205 7.979-2.255 2.255 2.257 2.241-1.414 1.414-2.257-2.257c-.775-.775-.775-2.036 0-2.812l2.255-2.255zm5.002 5.91 2.257-2.257c.775-.775.775-2.036 0-2.812l-2.255-2.255-1.414 1.414 2.255 2.239-2.257 2.257zm7.914 2.232-7.878 7.879h-4.243v-4.242l7.879-7.879c1.133-1.134 3.109-1.134 4.243 0 1.169 1.17 1.169 3.072 0 4.242zm-1.414-2.828c-.378-.379-1.037-.379-1.414 0l-7.293 7.293v1.414h1.415l7.292-7.293c.39-.39.39-1.024 0-1.414zm-11.793 2.707-1-1h-4.914v-10h16v1.181h-.013l.004 2.95c.33-.066.667-.102 1.009-.102.335 0 .667.033.991.097l-.003-2.049h.012v-4.077h-20v12h-2v3c0 1.654 1.346 3 3 3h6v-2h-6c-.551 0-1-.448-1-1v-1h6.086l1 1h.844l2-2z"/></svg>