<svg id="Layer_1" viewBox="0 0 24 24" xmlns="http://www.w3.org/2000/svg" data-name="Layer 1"><path d="m21.889 13.199c.065-.223.111-.455.111-.699 0-1.381-1.119-2.5-2.5-2.5s-2.5 1.119-2.5 2.5 1.119 2.5 2.5 2.5c.398 0 .77-.102 1.104-.268l1.396 1.222v6.046h-4v-3c0-2.757-2.243-5-5-5h-8c-2.757 0-5 2.243-5 5v5h24v-8.954zm-5.889 8.801h-14v-3c0-1.654 1.346-3 3-3h8c1.654 0 3 1.346 3 3zm-13.004-9.691c.278-1.182.549-2.33.791-3.35 1.033 1.813 2.981 3.041 5.213 3.041 1.347 0 2.592-.446 3.594-1.198-.192-.814-.371-1.569-.529-2.234-.734.875-1.836 1.433-3.065 1.433-1.861 0-3.417-1.284-3.861-3.009 1.299.053 2.585-.314 3.713-1.011 1.227-.765 2.147-1.881 2.674-3.198.818.555 1.454 1.371 1.767 2.368.09.302.864 3.566 1.704 7.131.008.002.016.006.023.008.055-1.171.544-2.226 1.326-2.996-.107-.452-.209-.884-.309-1.301.533-.022.961-.454.961-.992v-2c0-.552-.448-1-1-1h-1.02c-1.001-2.41-3.324-4.001-5.978-4.001-2.599.016-4.988 1.575-5.98 4h-1.02c-.552 0-1 .448-1 1v2c0 .538.428.97.961.992-.407 1.713-.896 3.788-1.316 5.576.688-.559 1.483-.991 2.351-1.259zm6.661-10.257c-.371.917-1.007 1.697-1.863 2.23-.806.502-1.723.745-2.651.714.448-1.719 2-2.997 3.857-2.997.223 0 .441.021.657.052z"/></svg>