<svg id="Layer_1" viewBox="0 0 24 24" xmlns="http://www.w3.org/2000/svg" data-name="Layer 1"><path d="m21.999 0h-7c-1.1 0-2 .9-1.999 2l.002 7.911c0 .858.949 1.378 1.672.915l2.826-1.827h6.5v-6.999c0-1.105-.896-2-2.001-2zm-1.999 6.999h-3c-1.105 0-2-.895-2-2h2l1.5 1 1.5-1h2c0 1.105-.895 2-2 2zm-5-3c0-1.105.895-2 2-2h3c1.105 0 2 .895 2 2zm-.801 12.263c-2.96-1.282-5.079-3.407-6.453-6.468l3.406-3.406-6.265-6.266-3.171 3.17c-1.106 1.105-1.716 2.599-1.716 4.208 0 7.248 9.252 16.5 16.5 16.5 1.608 0 3.103-.609 4.207-1.715l3.171-3.171-6.265-6.265-3.414 3.414zm5.093 4.609c-.727.728-1.718 1.129-2.792 1.129-6.233 0-14.5-8.266-14.5-14.5 0-1.074.401-2.066 1.129-2.793l1.757-1.757 3.437 3.437-2.936 2.936.246.613c1.641 4.085 4.482 6.924 8.447 8.437l.605.231 2.927-2.927 3.437 3.437-1.758 1.758z"/></svg>