<svg id="Layer_1" viewBox="0 0 24 24" xmlns="http://www.w3.org/2000/svg" data-name="Layer 1"><path d="m8.5 14h-2v-3h2zm3.5-8h3v10c0 1.654-1.346 3-3 3h-9c-1.654 0-3-1.346-3-3v-10h3v-1.5c0-2.481 2.019-4.5 4.5-4.5s4.5 2.019 4.5 4.5zm-7 0h5v-1.5c0-1.378-1.122-2.5-2.5-2.5s-2.5 1.122-2.5 2.5zm8 2h-11v8c0 .551.449 1 1 1h9c.551 0 1-.449 1-1zm10-4.277c.595-.346 1-.984 1-1.723 0-1.105-.895-2-2-2s-2 .895-2 2c0 .738.405 1.376 1 1.723v2.277h-4v2h6zm0 16.554v-4.277h-6v2h4v2.277c-.595.346-1 .984-1 1.723 0 1.105.895 2 2 2s2-.895 2-2c0-.738-.405-1.376-1-1.723zm-1-10.277c-.738 0-1.376.405-1.723 1h-3.277v2h3.277c.346.595.984 1 1.723 1 1.105 0 2-.895 2-2s-.895-2-2-2z"/></svg>