<svg id="Layer_1" viewBox="0 0 24 24" xmlns="http://www.w3.org/2000/svg" data-name="Layer 1"><path d="m7 6h-3v-2h3zm1 4h8v-2h-8zm-4 0h2v-2h-2zm7.184 8.34c-.321-.232-.696-.34-1.074-.34-.541 0-1.087.223-1.488.624l-.622.626v-6.75c0-.827-.673-1.5-1.5-1.5s-1.5.673-1.5 1.5v3.323l-5 2v6.177h2v-4.823l4-1.6v6.423h2.618l2.815-2.711c.831-.831.748-2.231-.249-2.949zm8.816-14.34h-6v2h6zm-11 0v2h3v-2zm12.5-4h-19c-1.379 0-2.5 1.121-2.5 2.5v11.5h3v-2h-1v-9.5c0-.275.225-.5.5-.5h19c.275 0 .5.225.5.5v9.5h-1v2h3v-11.5c0-1.379-1.121-2.5-2.5-2.5zm-2.5 12.5c0-.827-.673-1.5-1.5-1.5s-1.5.673-1.5 1.5v6.75l-.622-.626c-.401-.402-.947-.624-1.488-.624-.377 0-.752.108-1.074.34-.997.718-1.08 2.118-.249 2.949l2.815 2.711h2.618v-6.423l4 1.6v4.823h2v-6.177l-5-2zm1-2.5v-2h-2v2zm-6 4v-2h-4v2z"/></svg>