<svg id="Layer_1" viewBox="0 0 24 24" xmlns="http://www.w3.org/2000/svg" data-name="Layer 1"><path d="m24 6v12.231c0 .742-.273 1.455-.772 2.01l-3.391 3.759h-2.693l4.599-5.098c.166-.185.258-.423.258-.671v-12.231c0-.551-.448-1-1-1s-1 .449-1 1v8h-.008c0 .684-.228 1.369-.693 1.922l-2.578 2.685-1.441-1.387 2.533-2.634c.13-.157.192-.369.188-.586 0-.238-.085-.477-.254-.668-.349-.407-1.016-.446-1.407-.078l-2.909 2.677c.366.508.57 1.122.57 1.755v6.314h-2v-6.314c0-.278-.118-.547-.323-.736l-4.025-3.704c-.384-.356-1.055-.318-1.396.086-.329.367-.339.928-.022 1.306l2.571 2.67-1.441 1.387-2.616-2.721c-.488-.58-.727-1.28-.732-1.973h-.014v-8.001c0-.551-.448-1-1-1s-1 .449-1 1v12.231c0 .248.092.486.258.671l4.599 5.098h-2.693l-3.391-3.759c-.499-.555-.772-1.268-.772-2.01v-12.231c0-1.654 1.346-3 3-3s3 1.346 3 3v5.184c.266-.094.542-.164.832-.18.789-.047 1.566.226 2.163.76l3.005 2.765 2.995-2.755c.605-.542 1.38-.811 2.173-.769.29.016.566.086.832.18v-5.185c0-1.654 1.346-3 3-3s3 1.346 3 3zm-8 2h-8v-4.58c0-.41.189-.797.512-1.05l2.666-2.087c.242-.189.532-.283.822-.283s.58.094.822.283l2.667 2.087c.323.253.512.64.512 1.05v4.58zm-3-4h-2s0 2 0 2h2z"/></svg>