<svg id="Layer_1" viewBox="0 0 24 24" xmlns="http://www.w3.org/2000/svg" data-name="Layer 1"><path d="m20 7h-6c-2.206 0-4 1.794-4 4v6c0 3.86 3.141 7 7 7s7-3.14 7-7v-6c0-2.206-1.794-4-4-4zm2 4v2h-4v-4h2c1.103 0 2 .897 2 2zm-8-2h2v4h-4v-2c0-1.103.897-2 2-2zm3 13c-2.757 0-5-2.243-5-5v-2h10v2c0 2.757-2.243 5-5 5zm4.366-17-1.732-1 2-3.464 1.732 1zm-3.366-1h-2v-4h2zm-6.035 1.361c-1.063.384-1.985 1.055-2.673 1.926-.141-.884-.818-1.612-1.717-1.792l-2.792-.559c-.267-.054-.461-.291-.461-.562 0-.316.257-.574.573-.574h2.127c.316 0 .585.211.671.5h1.62c-.102-1.175-1.09-2.1-2.291-2.1h-.2v-1.2h-1.6v1.2h-.327c-1.198 0-2.173.975-2.173 2.173 0 1.033.734 1.929 1.747 2.131l2.791.559c.268.054.462.291.462.563 0 .316-.258.574-.574.574h-2.126c-.316 0-.585-.211-.671-.5h-1.62c.102 1.175 1.09 2.1 2.291 2.1h.2v1.127c.261.043.526.073.8.073s.539-.03.8-.072v-1.128h.326c.38 0 .732-.106 1.042-.278-.12.474-.191.967-.191 1.478 0 .216.013.429.035.639-.636.23-1.319.361-2.035.361-3.314 0-6-2.686-6-6s2.687-6 6.001-6c3.098 0 5.646 2.348 5.965 5.361zm-4.965 13.273 1 1.732-3.464 2-1-1.732zm0-1.634h-4v-2h4z"/></svg>