<svg id="Layer_1" viewBox="0 0 24 24" xmlns="http://www.w3.org/2000/svg" data-name="Layer 1"><path d="m15.238 2c.396 0 .779.116 1.109.336l2.502 1.667 1.109-1.664-2.502-1.667c-.66-.439-1.427-.672-2.219-.672h-7.238c-1.654 0-3 1.346-3 3v2.26c-2.99 1.361-4.999 4.394-4.999 7.74v11h16v-11c0-3.346-2.009-6.379-5-7.74v-3.26zm-8.238 1c0-.551.448-1 1-1h1v3h-2zm7 10v9h-12v-9c0-2.64 1.643-5.012 4.051-6h3.898c2.408.988 4.051 3.36 4.051 6zm-6-2.398-2.475 2.42c-1.365 1.364-1.365 3.586 0 4.95.661.661 1.54 1.025 2.475 1.025s1.813-.364 2.475-1.025c1.365-1.364 1.365-3.586-.008-4.958zm1.061 5.956c-.566.566-1.555.566-2.121 0-.585-.585-.585-1.537-.008-2.114l1.068-1.045 1.061 1.037c.585.585.585 1.537 0 2.122zm11.939-8.558c1.105 0 2 .895 2 2s-.895 2-2 2-2-.895-2-2 .895-2 2-2zm.328 9.11c.11-.265.172-.555.172-.86 0-1.243-1.007-2.25-2.25-2.25s-2.25 1.007-2.25 2.25c0 .766.384 1.44.969 1.846-.596.628-.969 1.471-.969 2.404 0 1.93 1.57 3.5 3.5 3.5s3.5-1.57 3.5-3.5c0-1.643-1.143-3.016-2.672-3.39zm-.828 4.89c-.827 0-1.5-.673-1.5-1.5s.673-1.5 1.5-1.5 1.5.673 1.5 1.5-.673 1.5-1.5 1.5z"/></svg>