<svg id="Layer_1" viewBox="0 0 24 24" xmlns="http://www.w3.org/2000/svg" data-name="Layer 1"><path d="m8.364 7.879c.485-.485 2.636-.879 2.636-.879s-.393 2.151-.879 2.636c-.485.485-1.272.485-1.757 0s-.485-1.272 0-1.757zm4.636-.879s.393 2.151.879 2.636c.485.485 1.272.485 1.757 0s.485-1.272 0-1.757-2.636-.879-2.636-.879zm8.858 6.887-.825 4.638c-.255 1.435-1.498 2.475-2.954 2.475h-12.158c-1.457 0-2.699-1.041-2.953-2.475l-.825-4.638c-1.549-.4-2.142-1.855-2.142-2.887-.001-3.624 5.352-8 11.999-8s12 4.376 12 8c0 1.032-.593 2.487-2.142 2.887zm-2.793 4.288.633-3.559c-.527.246-1.099.384-1.697.384-.892 0-1.735-.284-2.439-.82-.313-.238-.806-.239-1.123 0-1.407 1.072-3.469 1.073-4.877 0-.313-.238-.806-.239-1.123 0-1.177.897-2.809 1.033-4.137.429l.635 3.566c.085.479.499.825.984.825h12.159c.485 0 .899-.347.985-.825zm2.936-7.187c0-2.357-4.48-5.988-10-5.988s-10.001 3.631-10.001 6c.012.45.195 1 1 1 .645 0 1.274.209 1.772.588.707.539 1.749.539 2.455 0 1.027-.783 2.518-.782 3.545 0 .707.539 1.749.539 2.455 0 .514-.391 1.144-.586 1.773-.586s1.259.195 1.772.586c.707.539 1.749.539 2.455 0 .499-.38 1.128-.589 1.773-.589.805 0 .988-.55 1-1.012z"/></svg>