<svg id="Layer_1" viewBox="0 0 24 24" xmlns="http://www.w3.org/2000/svg" data-name="Layer 1"><path d="m7.4 10.5c0 .496-.404.9-.9.9h-.9v-1.8h.9c.496 0 .9.404.9.9zm-7.4-3.5 5-.5-.5-4.5 5 3 2.5-4 2.5 4 5-3-.5 4.5 5 .5-2.5 5 2.5 5-5 .5.5 4.5-5-3-2.5 4-2.5-4-5 3 .5-4.5-5-.5 2.5-5zm9 3.5c0-1.381-1.119-2.5-2.5-2.5h-2.5v8h1.6v-3h.922c1.375 0 2.492-1.125 2.478-2.5zm5-.2c0-1.269-1.031-2.3-2.3-2.3s-2.3 1.031-2.3 2.3v3.4c0 1.269 1.031 2.3 2.3 2.3s2.3-1.031 2.3-2.3zm6 .2c0-1.381-1.119-2.5-2.5-2.5h-2.5v8h1.6v-3h.922c1.375 0 2.492-1.125 2.478-2.5zm-2.5-.9h-.9v1.8h.9c.496 0 .9-.404.9-.9s-.404-.9-.9-.9zm-5.8 0c-.386 0-.7.314-.7.7v3.4c0 .386.314.7.7.7s.7-.314.7-.7v-3.4c0-.386-.314-.7-.7-.7z"/></svg>