<svg id="Layer_1" viewBox="0 0 24 24" xmlns="http://www.w3.org/2000/svg" data-name="Layer 1"><path d="m13.5 14c.302 0 .597.032.883.089-.245.589-.383 1.234-.383 1.911v.051c-.162-.033-.329-.051-.5-.051h-9c-1.378 0-2.5 1.121-2.5 2.5v5.5h-2v-5.5c0-2.481 2.019-4.5 4.5-4.5zm8.185 3.267-3.041-.506c-.373-.062-.644-.382-.644-.761 0-.552.449-1 1-1h2c.551 0 1 .448 1 1h2c0-1.654-1.346-3-3-3v-1h-2v1c-1.654 0-3 1.346-3 3 0 1.359.974 2.51 2.315 2.733l3.041.506c.373.062.644.382.644.761 0 .552-.449 1-1 1h-2c-.551 0-1-.448-1-1h-2c0 1.654 1.346 3 3 3v1h2v-1c1.654 0 3-1.346 3-3 0-1.359-.974-2.51-2.315-2.733zm-2.685-11.322v4.055h2v-4.055l1.572 1.572 1.414-1.414-2.479-2.479c-.831-.832-2.183-.832-3.014 0l-2.505 2.505 1.414 1.414zm-4 .055c0 3.309-2.691 6-6 6s-6-2.691-6-6 2.691-6 6-6 6 2.691 6 6zm-2 0c0-2.206-1.794-4-4-4s-4 1.794-4 4 1.794 4 4 4 4-1.794 4-4z"/></svg>