<svg id="Layer_1" viewBox="0 0 24 24" xmlns="http://www.w3.org/2000/svg" data-name="Layer 1"><path d="m21 2h-4.54c-1.099-1.224-2.688-2-4.46-2s-3.36.776-4.46 2h-4.54c-1.654 0-3 1.346-3 3v19h11.349c-.706-.571-1.325-1.244-1.831-2h-7.518v-17c0-.551.448-1 1-1h3.35c-.223.627-.35 1.298-.35 2v3h12v-3c0-.702-.128-1.373-.35-2h3.35c.552 0 1 .449 1 1v3h2v-3c0-1.654-1.346-3-3-3zm-5 5h-3.382l1.276-2.553-1.789-.895-1.724 3.447h-2.382v-1c0-2.206 1.794-4 4-4s4 1.794 4 4v1zm1 3c-3.859 0-7 3.141-7 7s3.141 7 7 7 7-3.141 7-7-3.141-7-7-7zm0 12c-2.757 0-5-2.243-5-5s2.243-5 5-5 5 2.243 5 5-2.243 5-5 5zm3.431-5h-2.431v3h-2v-3h-2.454l2.687-2.687c.417-.417 1.093-.417 1.51 0z"/></svg>