<svg id="Layer_1" viewBox="0 0 24 24" xmlns="http://www.w3.org/2000/svg" data-name="Layer 1"><path d="m23.626 9.692c-.338-.419-.842-.659-1.382-.659h-1.924c-1.071 0-1.992.729-2.238 1.771l-1.464 6.195h-2.619v6h6.237c.722 0 1.317-.479 1.444-1.146.361-1.72 1.583-7.377 2.297-10.68.113-.524-.015-1.064-.351-1.481zm-3.306 1.341h1.641c-.13.6-.274 1.267-.425 1.967h-1.918l.41-1.735c.032-.137.152-.231.292-.231zm-.503 9.967h-3.817v-2h2.202l.945-4h1.959c-.506 2.346-1.015 4.713-1.288 6zm-4.817-6h-2.33l-.449 3.394c-.197 1.486-1.476 2.606-2.974 2.606h-2.247v3h-7v-2h5v-3h4.247c.5 0 .926-.373.992-.869l.678-5.131h1.99c-.156-.354-.312-.712-.467-1.069-1.073-2.461-2.183-5.005-3.217-6.283-2.018-2.695-5.183-4.019-8.498-3.56-.245.034-.485.088-.725.147v-2.034c.152-.028.3-.074.453-.095 4.041-.549 7.91 1.058 10.347 4.313 1.181 1.459 2.294 4.011 3.472 6.713.242.556.484 1.108.728 1.656z"/></svg>