<?xml version="1.0" encoding="UTF-8"?>
<svg xmlns="http://www.w3.org/2000/svg" id="Layer_1" data-name="Layer 1" viewBox="0 0 24 24">
  <path d="M9,8h6v2h2V4h-1v-1c0-1.103-.897-2-2-2h-4c-1.103,0-2,.897-2,2v1h-1v6h2v-2ZM14,3v3h-4V3h4ZM.5,3.5C.5,2.119,1.619,1,3,1s2.5,1.119,2.5,2.5-1.119,2.5-2.5,2.5S.5,4.881,.5,3.5ZM7.149,12h2.851v2H5.851l-1.824-4.095c-.37-.839-.671-.905-1.026-.905-.561,0-1,.432-1,.983v6.017H6v2h-2v6H2v-6H0V9.983c0-1.646,1.346-2.983,3-2.983,1.932,0,2.627,1.578,2.856,2.097l1.293,2.903Zm16.851,6h-2v6h-2v-6h-2v-2h4v-6.017c0-.552-.439-.983-1-.983-.355,0-.657,.066-1.026,.904-.062,.142-1.561,3.503-1.561,3.503l-.264,.593h-4.149v-2h2.851c.432-.969,1.245-2.794,1.291-2.899,.231-.522,.928-2.101,2.858-2.101,1.654,0,3,1.338,3,2.983v8.017ZM18.5,3.5c0-1.381,1.119-2.5,2.5-2.5s2.5,1.119,2.5,2.5-1.119,2.5-2.5,2.5-2.5-1.119-2.5-2.5Z"/>
</svg>
