<?xml version="1.0" encoding="UTF-8"?>
<svg xmlns="http://www.w3.org/2000/svg" id="Layer_1" data-name="Layer 1" viewBox="0 0 24 24">
  <path d="M22.423,11c-1.705,0-2.153-.412-3.133-1.314-1.375-1.217-2.973-2.759-5.01-2.686-.918,0-1.735,.397-2.28,.749-.545-.352-1.362-.749-2.28-.749-2.034-.074-3.637,1.47-5.01,2.686-.979,.902-1.428,1.314-3.133,1.314H.023c1.078,2.678,3.033,5.929,6.477,6,2.869,0,4.576-1.229,5.5-2.252,.924,1.023,2.631,2.252,5.5,2.252,3.445-.072,5.397-3.321,6.477-6h-1.554Zm-4.923,4c-3.454,0-4.541-2.306-4.581-2.396l-.898-2.068-.936,2.06c-.044,.098-1.131,2.404-4.585,2.404-1.255,0-2.446-.977-3.283-2.153,1.319-.282,2.019-.927,2.848-1.689,.896-.829,2.571-2.328,3.655-2.158,1.126,.103,1.624,.794,2.277,1.356,.656-.559,1.16-1.255,2.283-1.356,1.082-.171,2.761,1.33,3.655,2.158,.829,.763,1.528,1.407,2.848,1.689-.837,1.176-2.028,2.153-3.283,2.153Z"/>
</svg>
