<svg id="Layer_1" viewBox="0 0 24 24" xmlns="http://www.w3.org/2000/svg" data-name="Layer 1"><path d="m18 3.184v-3.184h-2v3h-8v-3h-2v3.184c-1.161.414-2 1.514-2 2.816v12c0 1.302.839 2.402 2 2.816v3.184h2v-3h8v3h2v-3.184c1.161-.414 2-1.514 2-2.816v-12c0-1.302-.839-2.402-2-2.816zm0 14.816c0 .552-.449 1-1 1h-10c-.551 0-1-.448-1-1v-12c0-.552.449-1 1-1h10c.551 0 1 .448 1 1zm-1.663-9.852c.45.449.663 1.041.663 1.631 0 3.261-4.193 7.221-7.221 7.221-.59 0-1.182-.213-1.631-.663l-1.148-1.148 2.26-2.26 1.184 1.184c1.689-.645 2.934-1.84 3.669-3.669l-1.184-1.184 2.26-2.26z"/></svg>