<svg id="Layer_1" viewBox="0 0 24 24" xmlns="http://www.w3.org/2000/svg" data-name="Layer 1"><path d="m16 0v11.785c0 2.16-1.583 4.003-3.604 4.196-1.146.108-2.243-.253-3.086-1.021-.833-.758-1.31-1.836-1.31-2.961v-11.999h-8v11.637c-.005 6.778 5.487 12.363 12.003 12.363 3.165 0 6.141-1.214 8.403-3.435 2.317-2.275 3.594-5.316 3.594-8.563v-12.002zm6 2v3h-4v-3zm-16 0v3h-4v-3zm13.005 17.139c-1.93 1.895-4.465 2.914-7.193 2.861-5.41-.099-9.812-4.747-9.812-10.363v-4.637h4v5c0 1.687.716 3.305 1.964 4.44 1.248 1.134 2.929 1.694 4.622 1.531 3.036-.289 5.414-3.007 5.414-6.187v-4.785h4v5.002c0 2.706-1.063 5.24-2.995 7.137zm-10.068-14.917 1.509-4.222h3l-1 2.5h2c.484 0 .824.537.557.94l-3.708 4.559h-.631s.93-2.982.93-2.982l-2.064.002c-.415 0-.713-.4-.593-.798z"/></svg>