<?xml version="1.0" encoding="UTF-8"?>
<svg xmlns="http://www.w3.org/2000/svg" id="Layer_1" data-name="Layer 1" viewBox="0 0 24 24">
  <path d="M14.5,13c-1.381,0-2.5,1.119-2.5,2.5v3c0,1.381,1.119,2.5,2.5,2.5s2.5-1.119,2.5-2.5v-3c0-1.381-1.119-2.5-2.5-2.5Zm.9,5.5c0,.496-.404,.9-.9,.9s-.9-.404-.9-.9v-3c0-.496,.404-.9,.9-.9s.9,.404,.9,.9v3Zm-7.8-3v3c0,.496,.404,.9,.9,.9s.9-.404,.9-.9h1.6c0,1.381-1.119,2.5-2.5,2.5s-2.5-1.119-2.5-2.5v-3c0-1.381,1.119-2.5,2.5-2.5s2.5,1.119,2.5,2.5h-1.6c0-.496-.404-.9-.9-.9s-.9,.404-.9,.9Zm12.4,7.167h2v1.333h-4v-.654c0-1.506,2.667-2.346,2.667-3.346,0-.368-.298-.667-.667-.667s-.667,.298-.667,.667v.333h-1.333v-.333c0-1.105,.895-2,2-2s2,.895,2,2c0,1.423-1.425,2.141-2,2.667Zm4-10.167c0,1.66-.545,3.192-1.462,4.434-.53-.44-1.167-.748-1.875-.867,.827-.961,1.337-2.202,1.337-3.567,.024-3.294-2.817-5.721-6.042-5.52-.585-2.82-3.032-5.002-5.958-4.98-4.557-.082-7.39,5.044-5.291,8.974-1.491,.589-2.754,1.831-2.709,3.526,0,1.391,.822,2.585,2,3.149v.851c0,.472,.093,.918,.228,1.346-2.421-.576-4.228-2.752-4.228-5.346,0-1.786,.85-3.425,2.266-4.45-.177-.666-.266-1.353-.266-2.05C2,3.589,5.589,0,10,0c3.281,0,6.247,2.048,7.441,5.059,3.73,.46,6.559,3.604,6.559,7.441Z"/>
</svg>
