<?xml version="1.0" encoding="UTF-8"?>
<svg xmlns="http://www.w3.org/2000/svg" id="Layer_1" data-name="Layer 1" viewBox="0 0 24 24">
  <path d="M19,3.753L12.5,0,6,3.753v6.247H3c-.551,0-1-.449-1-1s.449-1,1-1h1v-2h-1c-1.654,0-3,1.346-3,3v12c0,1.654,1.346,3,3,3H24V10h-5V3.753Zm-4,1.258h3v1h-1v3.989h-1v-3.989h-1v-1Zm-3.5-.011h2.5v1h-1.5v1.007l1.501,.004-.003,1-1.499-.004v1.993h-1V5Zm-4.5,0h.961l1.539,2.775v-2.775h1v5h-.91l-1.59-2.868v2.868h-1V5Zm15,7v10H3c-.551,0-1-.449-1-1V11.829c.313,.111,.649,.171,1,.171H22Zm2-6v2h-3v-2h3Zm-8,11c0-.828,.672-1.5,1.5-1.5s1.5,.672,1.5,1.5-.672,1.5-1.5,1.5-1.5-.672-1.5-1.5Z"/>
</svg>
