<?xml version="1.0" encoding="UTF-8"?>
<svg xmlns="http://www.w3.org/2000/svg" id="Layer_1" data-name="Layer 1" viewBox="0 0 24 24">
  <path d="M23.018,9.785c-1.167-1.115-3.192-1.022-4.254,.199l-3.217,3.534c-.551-.91-1.551-1.519-2.689-1.519H3c-1.654,0-3,1.346-3,3v6c0,1.654,1.346,3,3,3H14.452l8.783-9.985c1.094-1.225,.996-3.123-.218-4.23Zm-1.279,2.903l-8.19,9.312H3c-.552,0-1-.449-1-1v-6c0-.551,.448-1,1-1H12.857c.63,0,1.143,.512,1.143,1.142,0,.564-.422,1.051-.98,1.131l-5.161,.737,.283,1.979,5.161-.737c1.175-.168,2.129-.988,2.514-2.059l4.427-4.864c.355-.412,1.034-.434,1.427-.067,.407,.372,.44,1.009,.068,1.425ZM13,5.5c0-.828,.672-1.5,1.5-1.5s1.5,.672,1.5,1.5-.672,1.5-1.5,1.5-1.5-.672-1.5-1.5Zm-3.741,3.5c1.041,1.261,2.589,2,4.241,2,3.032,0,5.5-2.467,5.5-5.5S16.532,0,13.5,0C11.455,0,9.833,.979,8.678,2.908l-.299,.299-1.592-1.591-1.425,1.403-1.411-1.412L.089,5.504l3.497,3.496h5.673ZM3.957,4.442l1.396,1.396,1.425-1.404,1.602,1.602,1.803-1.803c.838-1.392,1.861-2.278,3.318-2.232,1.93,0,3.5,1.57,3.5,3.5s-1.57,3.5-3.5,3.5c-1.169,0-2.257-.582-2.909-1.557l-.297-.443H4.414l-1.503-1.502,1.046-1.055Z"/>
</svg>
