<svg id="Layer_1" viewBox="0 0 24 24" xmlns="http://www.w3.org/2000/svg" data-name="Layer 1"><path d="m18.632 13.792c-.367-.702-.632-1.209-.632-1.792 0-1.046.331-2.34.597-3.38.267-1.054.435-1.661.4-2.422-.232-.42-.912-1.2-.997-3.198v-3h-2c0 .611-.139 1.211-.402 1.735-.547 1.089-2.077 2.265-3.598 2.265s-3.051-1.176-3.598-2.266c-.264-.523-.402-1.123-.402-1.734h-2v3c-.089 2.008-.759 2.773-1 3.197-.028.761.135 1.369.403 2.423.266 1.04.597 2.334.597 3.38 0 .583-.265 1.09-.632 1.792-.577 1.105-1.368 2.62-1.368 5.208v.449l5.12 4.551h5.76l5.12-4.551v-.449c0-2.588-.791-4.103-1.368-5.208zm-4.512 8.208h-4.24l-3.871-3.441c.078-1.824.636-2.892 1.133-3.841.281-.537.556-1.094.717-1.718h6.141v-2h-6.063c-.117-1-.376-2.016-.595-2.875-.133-.517-.268-1.047-.319-1.391.245-.448.663-1.332.863-2.462 1.06.978 2.536 1.728 4.114 1.728s3.055-.75 4.114-1.728c.2 1.13.618 2.014.863 2.462-.052.343-.187.874-.319 1.391-.293 1.148-.658 2.578-.658 3.875 0 1.074.437 1.91.858 2.718.497.95 1.055 2.017 1.133 3.841z"/></svg>