<?xml version="1.0" encoding="UTF-8"?>
<svg xmlns="http://www.w3.org/2000/svg" id="Layer_1" data-name="Layer 1" viewBox="0 0 24 24">
  <path d="M11.008,.028l2.813,5.145c-.584,.486-1.064,1.09-1.378,1.792l-1.433-2.685-1.652,3.104-3.611-1.94,2.27,3.562-3.129,1.542,2.895,1.279-1.088,2.963,2.772-.952,1.609,3.006,.924-1.807v4.392l-.884,1.729-2.609-4.875-5.139,1.766,1.891-5.15L.163,10.646l4.969-2.449L-.059,.052,8.536,4.671,11.008,.028Zm7.992,4.972c1.381,0,2.5-1.119,2.5-2.5s-1.119-2.5-2.5-2.5-2.5,1.119-2.5,2.5,1.119,2.5,2.5,2.5Zm5,12h-2v7h-2v-7h-2v7h-2v-7h-2V9c0-1.654,1.346-3,3-3h4c1.654,0,3,1.346,3,3v8Zm-2-8c0-.551-.449-1-1-1h-4c-.551,0-1,.449-1,1v6h6v-6Z"/>
</svg>
