<svg id="Layer_1" viewBox="0 0 24 24" xmlns="http://www.w3.org/2000/svg" data-name="Layer 1"><path d="m23.633 20.923s-.438-.971-1.584-1.517c-.348-.166-.769-.025-.939.315-.628 1.255 1.994 2.259.982 4.279-1.846-.88-4.571-2.021-5.01-3.938-.418-1.829.782-3.616 2.68-3.992s3.775.802 4.193 2.631c.114.501.004 1.569-.323 2.222zm-11.633-9.421c.002-.119.014-.356.073-.644-.397-.259-1.17-.519-1.883-.686-.127.46-.19.916-.19 1.327 0 1.909.604 3.214 1.245 4.596.823 1.776 1.755 3.79 1.755 7.904h2c0-4.555-1.076-6.878-1.94-8.745-.591-1.277-1.059-2.286-1.059-3.753zm5.365 4.163c.028-.122.559-2.555-.843-5.374 1.052-.591 1.852.392 1.856.398l2.476 3.143 1.571-1.237-2.768-3.514c.183-.744.036-1.57-.469-2.211l-.188-.293c-.005-1.306 0-3.077 0-3.077-.725.571-1.098 1.273-1.547 1.783-.418-1.848-.13-4.19.06-4.283-1.013.5-2.013 1.5-2.474 3.397-1.361-2.189-2.514-4.348-2.516-4.371.011.133-1.446 3.038.477 5.974-1.293.008-3 1-4 2 .204-.069 3.726.363 4.856 1.797 2.125 2.697 1.584 5.311 1.559 5.421zm-7.242-11.601c-.107-.619-.144-1.295-.087-2.025-1.418.113-2.624.507-3.647 1.13l-4.389-1.169 2.153 3.388c-.192.319-.353.641-.487.961l-3.666-.349 2.993 3.623c.005.627.01.292.015 1.146l-3.008.694 3.007 2.342c-.02.436-.063.992-.145 1.613l-2.862 1.082 2.277 1.571c-.445 1.375-1.15 2.719-2.277 3.601v2.34c4.746-2.257 5.026-9.382 5.026-10.935 0-.798-.026-3.088-.028-3.145-.001-.025-.146-2.592 1.461-4.307.854-.911 2.098-1.419 3.664-1.562z"/></svg>