<svg id="Layer_1" viewBox="0 0 24 24" xmlns="http://www.w3.org/2000/svg" data-name="Layer 1"><path d="m4.003 3c0-.551.449-1 1-1h8v7h7v1.5h2v-2.914l-7.586-7.586h-9.414c-1.654 0-3 1.346-3 3v1.828l2-.657zm11 .414 3.586 3.586h-3.586zm-11 18.586h6v2h-8v-6.127c.799.556 1.33.837 2 1.185zm19.121-9.121c-1.17-1.17-3.072-1.17-4.242 0l-6.879 6.878v4.243h4.242l6.879-6.878c1.164-1.117 1.164-3.126 0-4.243zm-1.414 2.828-6.293 6.293h-1.414v-1.415l6.293-6.292c.391-.39 1.023-.39 1.414 0 .388.372.388 1.042 0 1.414zm-17.207 1.342c1.529-.81 4.387-2.34 4.5-5.372v-3.021c0-.736-.47-1.386-1.169-1.615l-3.331-1.094-3.331 1.094c-.699.23-1.169.879-1.169 1.616v3.021c.115 3.035 2.97 4.561 4.5 5.372zm-2.5-5.372v-2.803l2.5-.821 2.5.821v2.803c0 1.396-1.572 2.543-2.5 3.098-.928-.554-2.5-1.701-2.5-3.098zm11.929 3.323-2 2h-3.691c.639-.547 1.266-1.214 1.763-2h3.929zm-2.929-4h6v2h-6z"/></svg>