<svg id="Layer_1" viewBox="0 0 24 24" xmlns="http://www.w3.org/2000/svg" data-name="Layer 1"><path d="m24 11.001v-3.091c0-1.099-.599-2.107-1.563-2.634l-9.001-4.908c-.899-.49-1.973-.49-2.873 0l-9 4.909c-.964.526-1.563 1.535-1.563 2.634v3.091h3v10.999h-3v2h24v-2h-3v-11zm-22-3.091c0-.366.2-.702.521-.878l9-4.909c.3-.164.659-.164.958 0l9 4.909c.322.176.521.512.521.878v1.091h-20zm12 3.091v10.999h-4v-10.999zm-9 0h3v10.999h-3zm14 10.999h-3v-10.999h3zm-5.5-15.999c0 .828-.672 1.5-1.5 1.5s-1.5-.672-1.5-1.5.672-1.5 1.5-1.5 1.5.672 1.5 1.5z"/></svg>