<?xml version="1.0" encoding="UTF-8"?>
<svg xmlns="http://www.w3.org/2000/svg" id="Layer_1" data-name="Layer 1" viewBox="0 0 24 24">
  <path d="M14.998,15.5c0,1.381-1.119,2.5-2.5,2.5s-2.5-1.119-2.5-2.5,1.119-2.5,2.5-2.5,2.5,1.119,2.5,2.5Zm3.002-.937l-.018,8.439-2-.004,.026-12.086c0-2.038-1.521-3.667-3.542-3.886-.48,.617-1.367,1.524-2.832,1.847-.37,.617-.575,1.313-.575,2.041l-.026,12.088-2-.004,.026-12.086c0-.785,.168-1.544,.459-2.256l-1.988-.844c-.322,.959-.497,2.03-.497,3.188v12H3.034V11C3.034,5.112,6.72,1,11.999,1c4.563,0,9.364,2.982,9.5,7.973,.08,2.937-2.377,4.865-3.497,5.591Zm1.497-5.536c-.102-3.773-3.894-6.027-7.5-6.027-2.399,0-4.369,1.132-5.596,3.009l2.322,.985c1.376-.079,2.03-1,2.316-1.403,.147-.207,.42-.591,.958-.591,3.314,0,6.01,2.653,6.01,5.914l-.002,1.116c.761-.714,1.526-1.747,1.492-3.002Z"/>
</svg>
