<?xml version="1.0" encoding="UTF-8"?>
<svg xmlns="http://www.w3.org/2000/svg" id="Layer_1" data-name="Layer 1" viewBox="0 0 24 24">
  <path d="M18.471,8.849l.529,.33,.529-.33c.458-.286,4.471-2.87,4.471-5.648,0-1.765-1.346-3.2-3-3.2-.752,0-1.461,.311-2,.806-.539-.495-1.248-.806-2-.806-1.654,0-3,1.436-3,3.2,0,2.778,4.013,5.362,4.471,5.648Zm-1.471-6.849c.554,0,1,.547,1,1h2c0-.453,.446-1,1-1s1,.538,1,1.2c0,1.062-1.613,2.617-3,3.598-1.387-.98-3-2.536-3-3.598,0-.662,.448-1.2,1-1.2Zm7,5.695V24H0V6c0-1.654,1.346-3,3-3H12.019c-.003,.068-.019,.132-.019,.2,0,.626,.127,1.227,.332,1.8H3c-.551,0-1,.448-1,1v.242l7.878,7.879c1.17,1.17,3.073,1.169,4.243,0l3.458-3.458,1.667,1.161-3.711,3.711c-.975,.975-2.255,1.462-3.536,1.462s-2.561-.487-3.536-1.462L2,9.071v12.929H22V9.556c.634-.492,1.349-1.124,2-1.861Z"/>
</svg>
