<?xml version="1.0" encoding="UTF-8"?>
<svg xmlns="http://www.w3.org/2000/svg" id="Layer_1" data-name="Layer 1" viewBox="0 0 24 24">
  <path d="M19,20h-2v-2h2v2Zm3-6h2v7c0,1.654-1.346,3-3,3h-6c-1.654,0-3-1.346-3-3v-7h2v-1c0-2.206,1.794-4,4-4s4,1.794,4,4v1Zm-6,0h4v-1c0-1.103-.897-2-2-2s-2,.897-2,2v1Zm6,2H14v5c0,.552,.448,1,1,1h6c.552,0,1-.448,1-1v-5Zm-1-13H3c-1.654,0-3,1.346-3,3v10H10v-2H2V6c0-.552,.449-1,1-1H21c.552,0,1,.448,1,1v2.54c.988,.887,1.676,2.096,1.907,3.46h.093V6c0-1.654-1.346-3-3-3ZM7.543,7.043l-1.043,1.043-1.043-1.043-1.414,1.414,1.043,1.043-1.043,1.043,1.414,1.414,1.043-1.043,1.043,1.043,1.414-1.414-1.043-1.043,1.043-1.043-1.414-1.414Zm3.443,4.914l3.5-3.5-1.414-1.414-1.043,1.043-1.043-1.043-1.414,1.414,1.043,1.043-1.043,1.043,1.414,1.414Z"/>
</svg>
