<?xml version="1.0" encoding="UTF-8"?>
<svg xmlns="http://www.w3.org/2000/svg" id="Layer_1" data-name="Layer 1" viewBox="0 0 24 24">
  <path d="M11.518,12.629l.559,.377c1.134-.847,6.754-4.326,7-8.706,0-2.371-1.794-4.3-4-4.3-1.193,0-2.267,.565-3,1.458-.733-.894-1.807-1.458-3-1.458-2.206,0-4,1.929-4,4.3,0,3.876,5.782,7.885,6.441,8.329ZM9.077,2c1.103,0,2,1.032,2,2.3h2c0-1.268,.897-2.3,2-2.3s2,1.032,2,2.3c0,1.948-2.864,4.71-4.998,6.275-1.732-1.286-5.002-4.147-5.002-6.275,0-1.268,.897-2.3,2-2.3Zm14.923,17h-1v3h-2V14h2v3h1v2Zm-6-7h2v12h-2v-5H6v5h-2V12h2v5h12v-5ZM1,14H3v8H1v-3H0v-2H1v-3Z"/>
</svg>
