<svg id="Layer_1" viewBox="0 0 24 24" xmlns="http://www.w3.org/2000/svg" data-name="Layer 1"><path d="m22 12.921c.754-.437 1.428-.992 2-1.642v8.721h-6.852l-3.847 3.18c-.362.322-.826.484-1.293.484-.476 0-.955-.168-1.337-.507l-3.748-3.157h-6.923v-17c0-1.654 1.346-3 3-3h9.721c-.65.572-1.205 1.246-1.642 2h-8.079c-.551 0-1 .449-1 1v15h5.654l4.326 3.645 4.449-3.645h5.571zm-13-2.421c0 .828.672 1.5 1.5 1.5s1.5-.672 1.5-1.5-.672-1.5-1.5-1.5-1.5.672-1.5 1.5zm-5 0c0 .828.672 1.5 1.5 1.5s1.5-.672 1.5-1.5-.672-1.5-1.5-1.5-1.5.672-1.5 1.5zm8-4.5c0-3.309 2.691-6 6-6s6 2.691 6 6-2.691 6-6 6-6-2.691-6-6zm2 0c0 2.206 1.794 4 4 4s4-1.794 4-4-1.794-4-4-4-4 1.794-4 4zm6.707 1.293-1.707-1.707v-2.586h-2v3.414l2.293 2.293z"/></svg>