<?xml version="1.0" encoding="UTF-8"?>
<svg xmlns="http://www.w3.org/2000/svg" id="Layer_1" data-name="Layer 1" viewBox="0 0 24 24">
  <path d="M17,24c-3.86,0-7-3.141-7-7s3.14-7,7-7,7,3.141,7,7-3.14,7-7,7Zm0-12c-2.757,0-5,2.243-5,5s2.243,5,5,5,5-2.243,5-5-2.243-5-5-5Zm-.637,8c-.445,0-.864-.173-1.179-.488l-1.846-1.789,1.393-1.436,1.63,1.58,3.229-3.175,1.402,1.426-3.457,3.399c-.308,.309-.727,.482-1.172,.482ZM0,0V12.929l.834,.14c2.414,.405,4.166,2.479,4.166,4.931v6h2v-6c0-1.298,.51-2.471,1.324-3.361,.338-1.246,.929-2.388,1.727-3.357-1.714,.499-3.145,1.645-4.044,3.145-.881-1.484-2.284-2.63-4.006-3.138V7H22v2.518c.756,.506,1.429,1.125,2,1.831V0H0ZM13,2h3.5v3h-3.5V2Zm-2,3h-3.5V2h3.5v3ZM2,2h3.5v3H2V2Zm16.5,3V2h3.5v3h-3.5Z"/>
</svg>
