<?xml version="1.0" encoding="UTF-8"?>
<svg xmlns="http://www.w3.org/2000/svg" id="Layer_1" data-name="Layer 1" viewBox="0 0 24 24">
  <path d="m6.467,5h-1.967v6.069h1.25v-2.096l.717-.003c1.109,0,2.012-.891,2.012-1.985s-.902-1.985-2.012-1.985Zm0,2.72l-.71.003-.005-1.473h.715c.413,0,.762.336.762.735s-.349.735-.762.735Zm5.753-2.72h1.28v6h-1.28l-1.44-3.041v3.041h-1.28v-6h1.28v.006l1.44,3.041v-3.047Zm2.28,4.033v-2.066c0-1.086.914-1.964,2-1.964.924,0,1.718.638,1.936,1.497h-1.394c-.138-.145-.33-.24-.542-.243-.402.007-.747.328-.746.731,0,.048,0,1.976,0,2.024-.001.403.365.729.767.736.402-.007.725-.333.724-.736,0-.01,0-.117,0-.262h-.745v-1.25h2v1.533c0,1.086-.914,1.967-2,1.967s-2-.881-2-1.967ZM21,0H3C1.346,0,0,1.346,0,3v21h18.414l5.586-5.586V3c0-1.654-1.346-3-3-3ZM2,3c0-.552.449-1,1-1h18c.551,0,1,.448,1,1v13h-6v6H2V3Zm16,18.586v-3.586h3.586l-3.586,3.586Z"/>
</svg>
