<svg id="Layer_1" viewBox="0 0 24 24" xmlns="http://www.w3.org/2000/svg" data-name="Layer 1"><path d="m24 12v12h-24v-18c0-1.654 1.346-3 3-3h8v2h-8c-.551 0-1 .448-1 1v.242l7.878 7.879c1.134 1.133 3.109 1.133 4.243 0l2.121-2.121h2.828l-3.535 3.536c-.945.944-2.201 1.464-3.536 1.464s-2.591-.52-3.536-1.464l-6.464-6.466v12.929h20v-10h2zm-10.998-1.226-.002-8.772c0-1.1.899-2 1.999-2.001l7-.002c1.104 0 2 .895 2 2v8h-6.872l-2.454 1.69c-.186.119-.387.173-.583.173-.566 0-1.089-.45-1.089-1.088zm1.997-6.251 1.936 1.078-.76 2.378.421.317 1.911-1.477 1.902 1.471.442-.305-.774-2.351 1.923-1.114v-.52h-2.523l-.686-2.641h-.567l-.686 2.641h-2.537v.523z"/></svg>