<svg id="Layer_1" viewBox="0 0 24 24" xmlns="http://www.w3.org/2000/svg" data-name="Layer 1"><path d="m24 18.307v5.731h-2v-4.346l-8-3v-5.586c0-.537-.362-1.017-.825-1.093-.601-.115-1.186.38-1.175.986v11.75l-4.26-3.392.008-.01c-.423-.384-1.07-.435-1.477.006-.377.403-.356 1.038.046 1.416l3.285 3.201h-2.881l-1.782-1.751c-1.196-1.12-1.26-3.022-.13-4.23 1.11-1.188 2.963-1.263 4.174-.191l.003-.004 1.014.808v-7.602c-.04-1.802 1.719-3.294 3.496-2.959 1.428.232 2.504 1.551 2.504 3.066v4.2zm-18-7.307h-2.586l7.586-7.586v2.586h2v-4c0-1.103-.897-2-2-2h-4v2h2.586l-7.586 7.586v-2.586h-2v4c0 1.103.897 2 2 2h4z"/></svg>