<svg id="Layer_1" viewBox="0 0 24 24" xmlns="http://www.w3.org/2000/svg" data-name="Layer 1"><path d="m2 16.624c0 .307.219.565.522.616l3.285.547c1.271.212 2.193 1.301 2.193 2.589 0 1.447-1.177 2.624-2.624 2.624h-.376v1h-2v-1c-1.654 0-3-1.346-3-3h2c0 .552.449 1 1 1h2.376c.344 0 .624-.28.624-.624 0-.307-.219-.565-.522-.616l-3.285-.547c-1.271-.212-2.193-1.301-2.193-2.589 0-1.447 1.177-2.624 2.624-2.624h.376v-1h2v1c1.654 0 3 1.346 3 3h-2c0-.552-.449-1-1-1h-2.376c-.344 0-.624.28-.624.624zm22-5.624c0 1.302-.839 2.402-2 2.816v2.684c0 3.584-2.916 6.5-6.5 6.5s-6.5-2.916-6.5-6.5v-3.59c-2.833-.478-5-2.942-5-5.91v-4.5c0-1.378 1.122-2.5 2.5-2.5h2.5v2h-2.5c-.276 0-.5.224-.5.5v4.5c0 2.206 1.794 4 4 4s4-1.794 4-4v-4.5c0-.276-.225-.5-.5-.5h-2.5v-2h2.5c1.379 0 2.5 1.122 2.5 2.5v4.5c0 2.967-2.167 5.431-5 5.91v3.59c0 2.481 2.019 4.5 4.5 4.5s4.5-2.019 4.5-4.5v-2.684c-1.161-.414-2-1.514-2-2.816 0-1.654 1.346-3 3-3s3 1.346 3 3zm-2 0c0-.551-.448-1-1-1s-1 .449-1 1 .448 1 1 1 1-.449 1-1z"/></svg>