<svg id="Layer_1" viewBox="0 0 24 24" xmlns="http://www.w3.org/2000/svg" data-name="Layer 1"><path d="m24 8v-2h-8.035v.003c-1.638.019-2.965 1.354-2.965 2.997v4.413c-1.225-2.04-3.452-3.413-6-3.413-3.86 0-7 3.141-7 7s3.14 7 7 7c3.789 0 6.876-3.028 6.989-6.789.533.485 1.235.789 2.011.789h6v6h2v-8h-5v-8zm-12.67 11.454c-.184.016-.366.046-.551.046-3.445 0-6.248-2.803-6.248-6.247 0-.2.012-.396.031-.591.592-.334 1.254-.546 1.963-.614-.012.142-.025.284-.025.428 0 2.729 2.22 4.948 4.948 4.948.173 0 .343-.035.514-.053-.057.754-.277 1.458-.633 2.082zm.383-4.057c-.088.008-.175.027-.264.027-1.625 0-2.948-1.322-2.948-2.948 0-.072.02-.141.025-.212 1.499.484 2.679 1.646 3.187 3.133zm-9.713 1.603c0-.88.248-1.695.649-2.414.565 3.457 3.28 6.192 6.727 6.786-.71.388-1.512.628-2.376.628-2.757 0-5-2.243-5-5zm15-1h-1c-.551 0-1-.448-1-1v-6c0-.552.449-1 1-1h1zm-3-13.5c0-1.381 1.119-2.5 2.5-2.5s2.5 1.119 2.5 2.5-1.119 2.5-2.5 2.5-2.5-1.119-2.5-2.5z"/></svg>