<svg id="Layer_1" viewBox="0 0 24 24" xmlns="http://www.w3.org/2000/svg" data-name="Layer 1"><path d="m22 14v-1c0-2.206-1.794-4-4-4s-4 1.794-4 4v1h-2v7c0 1.654 1.346 3 3 3h6c1.654 0 3-1.346 3-3v-7zm-6-1c0-1.103.897-2 2-2s2 .897 2 2v1h-4zm6 8c0 .552-.448 1-1 1h-6c-.552 0-1-.448-1-1v-5h8zm-3-1h-2v-2h2zm-9 1.189v2.797l-7.063-6.907c-3.907-3.907-3.907-10.251-.008-14.15 1.889-1.889 4.4-2.929 7.071-2.929s5.182 1.04 7.071 2.929c1.237 1.237 2.079 2.722 2.531 4.295-.511-.142-1.047-.224-1.602-.224-.194 0-.385.011-.574.029-.39-.978-.978-1.896-1.769-2.686-1.512-1.511-3.521-2.343-5.657-2.343s-4.146.832-5.657 2.343c-3.119 3.119-3.119 8.195 0 11.314zm1.971-11.069c.105-1.138-.853-2.126-1.986-2.121-1.103 0-2 .897-2 2 0 1.106.908 2.012 2.015 1.999v2c-2.21.013-4.015-1.789-4.015-3.999 0-2.206 1.794-4 4-4 1.658 0 3.058 1.026 3.661 2.467-.653.466-1.23 1.024-1.675 1.654z"/></svg>