<?xml version="1.0" encoding="UTF-8"?>
<svg xmlns="http://www.w3.org/2000/svg" id="Layer_1" data-name="Layer 1" viewBox="0 0 24 24">
  <path d="M16.107,9.629l.631-2.841c.174-.782,.262-1.585,.262-2.386V0h-2V2.1c-1.33,.247-2.353,.935-3,1.511-.647-.576-1.67-1.264-3-1.511V0h-2V4.402c0,.801,.088,1.604,.262,2.386l.631,2.84L.384,16.007c1.846,4.805,6.455,8.076,11.616,8.056,5.161,.02,9.769-3.251,11.616-8.056l-7.509-6.378Zm-4.916-3.978l.803,1.095,.812-1.09c.01-.013,.843-1.088,2.194-1.493,.012,.735-.053,1.474-.215,2.193l-.588,2.646h-4.395l-.588-2.646c-.162-.718-.226-1.458-.214-2.193,1.351,.405,2.184,1.479,2.191,1.488Zm.809,16.412c-3.852,0-7.371-2.143-9.162-5.517l6.529-5.546h5.266l6.528,5.546c-1.791,3.374-5.311,5.517-9.161,5.517Z"/>
</svg>
