<?xml version="1.0" encoding="UTF-8"?>
<svg xmlns="http://www.w3.org/2000/svg" id="Layer_1" data-name="Layer 1" viewBox="0 0 24 24">
  <path d="M10.964,11.006h2.148l.221,.994h1.667l-1.266-5.572c-.311-1.853-2.97-1.844-3.303-.04l-1.29,5.612h1.583l.24-.994Zm1.031-4.278c.019-.068,.05-.122,.097-.122,.095-.013,.622,2.716,.665,2.8h-1.407l.646-2.678Zm-5.745,5.272c-1.243,0-2.25-1.007-2.25-2.25v-.75h1.6v.75c0,.358,.292,.65,.65,.65s.65-.292,.65-.65V5h1.6v4.75c0,1.243-1.007,2.25-2.25,2.25ZM21,4h-2v-1c0-1.654-1.346-3-3-3H3C1.346,0,0,1.346,0,3v14.855c-.054,1.663,1.984,2.755,3.339,1.787l2.661-1.774v3.132h10.697l3.963,2.642c1.356,.967,3.393-.124,3.34-1.787V7c0-1.654-1.346-3-3-3ZM2.229,17.978c-.05,.08-.268-.039-.229-.123V3c0-.551,.449-1,1-1h13c.552,0,1,.449,1,1V15H6.697l-4.468,2.978Zm19.771,3.877c.039,.086-.183,.202-.23,.123l-4.467-2.978H8v-2h11V6h2c.552,0,1,.449,1,1v14.855Z"/>
</svg>
