<svg id="Layer_1" viewBox="0 0 24 24" xmlns="http://www.w3.org/2000/svg" data-name="Layer 1"><path d="m24 8.412v3.588h-1c-2.129 0-4.16-.589-6.077-1.734-.127-1.119-.428-2.158-.875-3.099 1.866 1.621 3.86 2.555 5.952 2.78v-1.535c0-2.664-1.633-4.953-3.95-5.921-.18.37-1.014 1.996-2.477 3.801-.368-.594-.794-1.143-1.284-1.629.859-1.105 1.452-2.101 1.752-2.647-.149-.011-.301-.016-.453-.016h-3.176c-.748 0-1.463.135-2.131.372-.871-.24-1.801-.372-2.781-.372-.186 0-.365.016-.548.025 1.471-1.259 3.376-2.025 5.46-2.025h3.176c4.639 0 8.412 3.773 8.412 8.412zm-17 2.088c0-.829-.671-1.5-1.5-1.5s-1.5.671-1.5 1.5.671 1.5 1.5 1.5 1.5-.671 1.5-1.5zm2.5-1.5c-.829 0-1.5.671-1.5 1.5s.671 1.5 1.5 1.5 1.5-.671 1.5-1.5-.671-1.5-1.5-1.5zm-4.5 5c0 .666 1.006 1.999 2.503 1.999s2.497-1.333 2.497-1.999c0 0-5-.001-5 0zm2.5 6c-3.925 0-7.5-4.052-7.5-8.5 0-4.416 3.084-7.5 7.5-7.5s7.5 3.084 7.5 7.5c0 4.448-3.575 8.5-7.5 8.5zm5.5-8.5c0-3.29-2.21-5.5-5.5-5.5s-5.5 2.21-5.5 5.5c0 3.601 3.009 6.5 5.5 6.5s5.5-2.899 5.5-6.5zm8.041 2.348c-1.018 2.534-4.015 5.153-7.041 5.153-.001 0-.003 0-.004 0-1.125 1.194-2.496 2.098-3.996 2.586v2.413h2v-3.268c.649.17 1.317.269 2 .269s1.351-.1 2-.269v3.268h2v-4.056c2.497-1.348 4.35-3.589 5.12-5.944-.706.006-1.405-.053-2.08-.152z"/></svg>