<svg id="Layer_1" viewBox="0 0 24 24" xmlns="http://www.w3.org/2000/svg" data-name="Layer 1"><path d="m11.5 6.5c0 .828-.672 1.5-1.5 1.5s-1.5-.672-1.5-1.5.672-1.5 1.5-1.5 1.5.672 1.5 1.5zm-1.971 2.5h-1.529v2h1v4h2v-4.529c0-.811-.66-1.471-1.471-1.471zm9.471 15h2v-2h-2zm3-3h2v-2h-2zm-3 0h2v-2h-2zm-6-8h5v5h-5zm2 3h1v-1h-1zm-2 3h5v5h-5zm2 3h1v-1h-1zm9-9v5h-5v-5zm-2 2h-1v1h1zm-20 3v-8c0-4.411 3.589-8 8-8s8 3.589 8 8c0 .339-.028.672-.069 1h2.019c.033-.329.051-.662.051-1-.001-5.514-4.487-10-10.001-10s-10 4.486-10 10v10h10c.338 0 .671-.018 1-.051v-2.019c-.328.041-.661.069-1 .069h-8z"/></svg>