<svg id="Layer_1" viewBox="0 0 24 24" xmlns="http://www.w3.org/2000/svg" data-name="Layer 1"><path d="m9.5 13c-.828 0-1.5-.672-1.5-1.5s.672-1.5 1.5-1.5 1.5.672 1.5 1.5-.672 1.5-1.5 1.5zm5-3c-.828 0-1.5.672-1.5 1.5s.672 1.5 1.5 1.5 1.5-.672 1.5-1.5-.672-1.5-1.5-1.5zm-2.501 7.001c1.352 0 2.509-.826 2.999-2h-5.998c.49 1.174 1.648 2 2.999 2zm4.001 3.462v3.537h-2v-3.136c-.662.086-1.331.136-2 .136s-1.338-.05-2-.136v3.136h-2v-3.537c-4.391-1.194-8-4.389-8-9.463 0-7.222 6.037-11 12-11s12 3.778 12 11c0 5.074-3.609 8.269-8 9.463zm4.5-10.463h-2.25c-1.065 0-2.07-.398-2.848-1.11-.358.083-.746.115-1.174.11-.788 0-1.559-.227-2.229-.648-.703.443-1.526.653-2.369.65-.366 0-.712-.038-1.033-.112-.777.712-1.782 1.11-2.847 1.11h-2.25c-.763 0-1.388.575-1.481 1.313-.11.965.767 1.831 1.738 1.657l.831-.142.281.795c.916 2.597 4.001 5.377 7.131 5.377s6.214-2.78 7.13-5.377l.281-.795c.192.026.905.171 1.089.171.923.005 1.566-.811 1.481-1.686-.093-.738-.718-1.312-1.481-1.312zm-18.059-1.829c.335-.107.689-.171 1.059-.171h2.25c.687 0 1.331-.32 1.766-.878l.497-.639c.548.262 1.012.57 1.716.517.601 0 1.154-.225 1.578-.633l.694-.667.692.667c.446.429 1.055.634 1.648.633.674.033 1.117-.268 1.645-.518l.497.639c.435.558 1.078.878 1.767.878h2.25c.37 0 .724.063 1.059.17-1.322-4.058-5.457-6.17-9.559-6.17s-8.238 2.113-9.559 6.172z"/></svg>