<?xml version="1.0" encoding="UTF-8"?>
<svg xmlns="http://www.w3.org/2000/svg" id="Layer_1" data-name="Layer 1" viewBox="0 0 24 24">
  <path d="M9,13h2v2h-2v-2Zm4,2h2v-2h-2v2Zm-4,4h2v-2h-2v2Zm4,0h2v-2h-2v2Zm-2-14h-2v2h2v-2Zm4,0h-2v2h2v-2Zm-6,6h2v-2h-2v2Zm4,0h2v-2h-2v2Zm8-6h-2V3c0-1.654-1.346-3-3-3H8c-1.654,0-3,1.346-3,3v3.3l2,2.046V3c0-.551,.448-1,1-1h8c.552,0,1,.449,1,1V7h4c.552,0,1,.449,1,1v14H7v-4.347l-2,2.046v4.301H24V8c0-1.654-1.346-3-3-3Zm-3,10h2v-2h-2v2Zm0,4h2v-2h-2v2Zm2-10h-2v2h2v-2ZM7.445,14.336l-2.722,2.854-1.447-1.381,1.727-1.81H0v-2H5.003l-1.727-1.81,1.447-1.381,2.739,2.872c.714,.684,.711,1.968-.018,2.655Z"/>
</svg>
