<?xml version="1.0" encoding="UTF-8"?>
<svg xmlns="http://www.w3.org/2000/svg" id="Layer_1" data-name="Layer 1" viewBox="0 0 24 24">
  <path d="M9.5,5h3v1.25h-1.75v1.47h1.75v1.25h-1.75v2.03h-1.25V5Zm-2.712,3.25l-1.461-3.242v-.008h-1.327v6h1.231v-3.25l1.442,3.25h1.327V5h-1.212v3.25Zm7.962,2.75h1.25V6.25h1.25v-1.25h-3.75v1.25h1.25v4.75ZM24,3v15.414l-5.586,5.586H0V3C0,1.346,1.346,0,3,0H21c1.654,0,3,1.346,3,3ZM2,22h14v-6h6V3c0-.551-.448-1-1-1H3c-.551,0-1,.449-1,1V22Zm19.586-4h-3.586v3.586l3.586-3.586Z"/>
</svg>
