<svg id="Layer_1" viewBox="0 0 24 24" xmlns="http://www.w3.org/2000/svg" data-name="Layer 1"><path d="m22 15.921c-.619.359-1.29.634-2 .817v1.262h-4.914l-1 1h-4.172l-1-1h-4.914v-10h6.069c.087-.699.262-1.369.518-2h-8.587v12h-2v3c0 1.654 1.346 3 3 3h18c1.654 0 3-1.346 3-3v-3h-2zm0 5.079c0 .551-.448 1-1 1h-18c-.551 0-1-.449-1-1v-1h6.086l1 1h5.828l1-1h6.086zm-10-12c0-3.309 2.691-6 6-6h1.055l-1.535-1.536 1.414-1.414 2.545 2.545c.75.75.751 1.972 0 2.723l-2.546 2.546-1.414-1.414 1.45-1.45h-.969c-2.206 0-4 1.794-4 4s1.794 4 4 4 4-1.794 4-4c0-.404-.078-.786-.19-1.154l1.542-1.542c.411.812.647 1.726.647 2.696 0 0 0 .017-.002.046-.025 3.287-2.705 5.954-5.998 5.954s-6-2.691-6-6z"/></svg>