<svg id="Layer_1" viewBox="0 0 24 24" xmlns="http://www.w3.org/2000/svg" data-name="Layer 1"><path d="m1 2.5c0-1.381 1.119-2.5 2.5-2.5s2.5 1.119 2.5 2.5-1.119 2.5-2.5 2.5-2.5-1.119-2.5-2.5zm-1 15.859v5.641h2v-4.401l-1.573-.944c-.15-.09-.289-.192-.427-.296zm11 5.641h2v-9h-2zm13-21v21h-2v-2h-5v-1c0-3.689 1.708-6.343 2.883-7.734-5.073-2.991-6.41-8.151-6.758-10.724-.074.139-.126.291-.126.459v9.999h-5.02l-1.979-2.827v4.832l-2-1.195v-5.81h-1c-.552 0-1 .449-1 1v5.368c0 .349.186.678.485.857l4.515 2.708v6.066h-2v-4.934l-3.544-2.126c-.898-.539-1.456-1.524-1.456-2.572v-5.368c0-1.654 1.346-3 3-3h.959c.978 0 1.896.479 2.457 1.28l2.604 3.72h1.979v-7.999c0-1.654 1.346-3 3-3h7c1.654 0 3 1.346 3 3zm-2 11c-.673.688-2.611 2.834-2.947 6h2.947zm0-11c0-.551-.448-1-1-1h-5.928c.248 2.197 1.399 7.43 6.677 10h.252v-9z"/></svg>