<svg id="Layer_1" viewBox="0 0 24 24" xmlns="http://www.w3.org/2000/svg" data-name="Layer 1"><path d="m24 9c0-3.309-2.691-6-6-6h-.007c-1.416-1.89-3.612-3-5.993-3s-4.578 1.111-5.993 3h-.007c-3.309 0-6 2.691-6 6 0 1.857.848 3.519 2.177 4.621l.873 7.717c.171 1.518 1.453 2.663 2.981 2.663h11.937c1.528 0 2.81-1.145 2.98-2.662l.874-7.717c1.329-1.101 2.178-2.764 2.178-4.621zm-18.962 12.113-.719-6.357c.534.156 1.098.244 1.682.244.718 0 1.419-.131 2.08-.376l.369 7.376h-2.418c-.509 0-.937-.381-.994-.887zm8.511.887h-3.097l-.363-7.265c1.25.326 2.575.326 3.824 0l-.363 7.265zm5.412-.887c-.057.506-.483.887-.993.887h-2.416l.369-7.375c.661.245 1.362.375 2.08.375.584 0 1.147-.088 1.682-.244l-.721 6.357zm-.961-8.113c-.8 0-1.572-.235-2.231-.681l-.515-.347-.539.307c-1.658.943-3.772.943-5.429 0l-.54-.307-.514.347c-.66.445-1.432.681-2.232.681-2.206 0-4-1.794-4-4s1.794-4 4-4c.135.008.867.095 1.015.107l.33-.524c1.016-1.617 2.756-2.583 4.655-2.583s3.639.965 4.655 2.583l.33.524c.154-.013.875-.098 1.015-.107 2.206 0 4 1.794 4 4s-1.794 4-4 4z"/></svg>