<?xml version="1.0" encoding="UTF-8"?>
<svg xmlns="http://www.w3.org/2000/svg" id="Layer_1" data-name="Layer 1" viewBox="0 0 24 24">
  <path d="M14.425,10.719c1.199,.628,2.733,.169,3.371-1.066l.922-1.774c.636-1.222,.158-2.734-1.079-3.379L10.825,1.092C6.037-1.396,2.349,.967,1.067,2.562l-.77,.959,6.789,3.459L.016,21.205l5.325,2.768,7.083-14.273,2.001,1.019ZM9.917,2.874l6.813,3.406c.245,.128,.341,.431,.214,.676l-.922,1.774c-.127,.244-.429,.339-.682,.21L3.605,2.962c1.17-.791,3.341-1.631,6.312-.088ZM4.455,21.258l-1.774-.922L8.868,7.888l1.774,.904-6.187,12.466ZM21.508,13.005l-6.622-.005-3.886,3.967v3.629l3.334,3.404h7.074l2.505-4.588-2.405-6.407Zm-1.286,8.995h-5.046l-2.175-2.221v-1.996l2.726-2.783,4.396,.004,1.597,4.254-1.497,2.742Z"/>
</svg>
