<svg id="Layer_1" viewBox="0 0 24 24" xmlns="http://www.w3.org/2000/svg" data-name="Layer 1"><path d="m12.64 7.232-.64-.534c-.995.944-3.709 2.715-4 6.302 0 1.858 1.28 3.411 3 3.858v2.142h2v-2.142c1.721-.447 3-2 3-3.858 0-2.885-3.016-5.481-3.36-5.768zm.36 7.49v-1.722h-2v1.722c-.595-.347-1-.985-1-1.722 0-1.283 1.143-2.748 2-3.629.857.882 2 2.347 2 3.629 0 .737-.405 1.375-1 1.722zm4-12.722h-1v-2h-8v2h-1c-1.654 0-3 1.346-3 3v19h16v-19c0-1.654-1.346-3-3-3zm1 20h-12v-17c0-.551.449-1 1-1h10c.552 0 1 .449 1 1z"/></svg>