<?xml version="1.0" encoding="UTF-8"?>
<svg xmlns="http://www.w3.org/2000/svg" id="Layer_1" data-name="Layer 1" viewBox="0 0 24 24">
  <path d="M7.482,17h1.25v.015c0,1.094-.902,1.985-2.012,1.985-1.086,0-1.967-.881-1.967-1.967l-.008-2.066c0-1.086,.881-1.967,1.967-1.967,1.109,0,2.012,.891,2.012,1.985v.015h-1.25v-.015c0-.394-.342-.726-.75-.733-.402,.007-.725,.333-.724,.736,0,.095,.008,1.886,.008,2.024,0,.403,.322,.729,.724,.736,.408-.007,.75-.338,.75-.733v-.015Zm3.689-3.93c-.671,.202-1.145,.731-1.239,1.38-.087,.61,.177,1.197,.777,1.579,0,0,.678,.303,1.43,.58,.159,.059,.672,.276,.61,.621-.046,.256-.362,.521-.81,.521-.468,0-.918-.189-1.204-.504l-.42-.463-.926,.84,.42,.462v.003c.527,.581,1.304,.914,2.13,.914,1.021,0,1.88-.653,2.04-1.552,.121-.678-.185-1.563-1.408-2.014-.658-.243-1.256-.506-1.272-.506-.143-.096-.138-.243-.13-.302,.011-.079,.069-.273,.362-.361,.657-.196,1.265,.278,1.29,.299l.476,.399,.805-.957-.479-.402c-.045-.038-1.135-.934-2.452-.537Zm6.034,4.681c-.468,0-.918-.189-1.204-.504l-.42-.463-.926,.84,.42,.462v.003c.527,.581,1.304,.914,2.13,.914,1.021,0,1.88-.653,2.04-1.552,.121-.678-.185-1.563-1.408-2.014-.658-.243-1.256-.506-1.272-.506-.143-.096-.138-.243-.13-.302,.011-.079,.069-.273,.362-.361,.657-.196,1.265,.278,1.29,.299l.476,.399,.805-.957-.479-.402c-.045-.038-1.135-.934-2.452-.537-.671,.202-1.145,.731-1.239,1.38-.087,.61,.177,1.197,.777,1.579,0,0,.678,.303,1.43,.58,.159,.059,.672,.276,.61,.621-.046,.256-.362,.521-.81,.521Zm4.795-10.165V24H2V3C2,1.346,3.346,0,5,0H14.414l7.586,7.586Zm-7-.586h3.586l-3.586-3.586v3.586Zm5,2h-7V2H5c-.552,0-1,.449-1,1V22H20V9Z"/>
</svg>
