<?xml version="1.0" encoding="UTF-8"?>
<svg xmlns="http://www.w3.org/2000/svg" id="Layer_1" data-name="Layer 1" viewBox="0 0 24 24">
  <path d="M21,0h-6c-1.654,0-3,1.346-3,3V11h6.197l2.463,1.642c.36,.24,.775,.361,1.192,.361,.347,0,.695-.084,1.013-.254,.7-.375,1.135-1.1,1.135-1.894V3c0-1.654-1.346-3-3-3Zm1,10.855c0,.022,0,.089-.078,.13-.079,.042-.134,.005-.152-.007l-2.967-1.978h-4.803V3c0-.551,.449-1,1-1h6c.551,0,1,.449,1,1v7.855ZM2.594,8.419L.087,5.913l1.414-1.414,1.499,1.499V3c0-1.654,1.346-3,3-3h4V2H6c-.551,0-1,.449-1,1v3.006l1.499-1.508,1.414,1.414-2.506,2.506c-.388,.388-.897,.581-1.406,.581s-1.019-.193-1.406-.581Zm18.812,7.161l2.507,2.507-1.414,1.414-1.499-1.499v2.997c0,1.654-1.346,3-3,3h-4v-2h4c.551,0,1-.449,1-1v-3.006l-1.499,1.508-1.414-1.414,2.506-2.506c.775-.775,2.038-.775,2.812,0Zm-12.406-4.581H3c-1.654,0-3,1.346-3,3v7.855c0,.794,.435,1.52,1.135,1.894,.318,.17,.666,.254,1.013,.254,.417,0,.832-.121,1.191-.361l2.463-1.642h6.197V14c0-1.654-1.346-3-3-3Zm1,9H5.197l-2.968,1.978c-.018,.012-.074,.049-.151,.007-.078-.042-.078-.108-.078-.13v-7.855c0-.551,.449-1,1-1h6c.551,0,1,.449,1,1v6Z"/>
</svg>
