<svg id="Layer_1" viewBox="0 0 24 24" xmlns="http://www.w3.org/2000/svg" data-name="Layer 1"><path d="m13.3 9.862 1.411-.813c.605.652 1.393 1.125 2.289 1.33v1.621h2v-1.621c.896-.205 1.685-.678 2.289-1.33l1.411.813.998-1.733-1.416-.816c.129-.418.218-.853.218-1.313s-.089-.895-.218-1.313l1.416-.816-.998-1.733-1.411.813c-.605-.652-1.393-1.125-2.289-1.33v-1.621h-2v1.621c-.896.205-1.685.678-2.289 1.33l-1.411-.813-.998 1.733 1.416.816c-.129.418-.218.853-.218 1.313s.089.895.218 1.313l-1.416.816zm4.7-6.362c1.378 0 2.5 1.122 2.5 2.5s-1.122 2.5-2.5 2.5-2.5-1.122-2.5-2.5 1.122-2.5 2.5-2.5zm6 8.472v8.028h-11v2h5v2h-12v-2h5v-2h-11v-15c0-1.654 1.346-3 3-3h7.298c-.387.617-.689 1.29-.908 2h-6.39c-.551 0-1 .449-1 1v13h20v-4.305c.752-.47 1.431-1.047 2-1.723z"/></svg>