<?xml version="1.0" encoding="UTF-8"?>
<svg xmlns="http://www.w3.org/2000/svg" id="Layer_1" data-name="Layer 1" viewBox="0 0 24 24">
  <path d="m24.028,6.657l-3.223-5.537c-.399-.691-1.165-1.121-1.998-1.121l-6.808.342,1.46,2.531-2.18,4.082.176.434c.245.608.915,1.771,2.633,2.731,1.244.696,2.291.866,3.018.866.271,0,.498-.023.673-.052l.487-.081,2.142-4.014,1.592-.08v5.241h2v-5.341h.028Zm-7.031,2.326c-.437-.018-1.1-.144-1.933-.61-.854-.478-1.312-.989-1.551-1.355l1.124-2.105.558.967c.399.689,1.164,1.118,1.997,1.118l.887-.044-1.083,2.029Zm.195-3.984c-.136,0-.23-.06-.265-.119l-1.562-2.707,3.452-.174c.113.002.217.051.259.125l1.571,2.7-3.455.175Zm.658,7.927c-.389,1.302-1.635,2.774-4.506,3.022.147-.291.328-.561.561-.778.697-.648,1.332-1.456,1.904-2.323-.66-.122-1.324-.334-1.98-.633-.405.563-.837,1.074-1.286,1.49-.893.83-1.416,2.017-1.508,3.294l-.037,3.5c0,.584.121,1.076.31,1.5h-2.62c.189-.424.31-.916.31-1.5v-3.071c0-1.425-.562-2.771-1.54-3.691-1.822-1.717-3.398-4.962-3.813-6.983-.049-.24.06-.417.129-.502.131-.16.323-.251.529-.251h5.218l1.068-2h-6.286c-.81,0-1.567.36-2.079.987-.499.612-.695,1.402-.538,2.168.119.582.315,1.244.576,1.941-1.313.317-2.263,1.454-2.263,2.858,0,2.353,2.182,5.607,7,6.005v2.54c0,1.34-1.169,1.487-1.519,1.5h-1.481v2h12v-2h-1.479c-.364-.014-1.521-.166-1.521-1.5v-2.518c4.491-.186,6.706-2.835,6.972-5.481l-1.867.406c-.081.013-.172.01-.255.02Zm-15.851-.972c0-.562.411-.955,1-.955h.107c.781,1.548,1.806,3.085,2.982,4.194.212.2.378.445.52.707-3.443-.492-4.609-2.772-4.609-3.946Z"/>
</svg>
