<svg id="Layer_1" viewBox="0 0 24 24" xmlns="http://www.w3.org/2000/svg" data-name="Layer 1"><path d="m11 12v-5h2v5zm6-1v-4h-2v4zm-8 0v-4h-2v4zm12-11h-2v3h-14v-3h-2v5h18zm0 14h-9.858c-1.14 0-2.13.616-2.681 1.527l-3.224-3.543c-1.065-1.22-3.082-1.317-4.255-.199-1.213 1.106-1.312 3.003-.219 4.229l7.115 7.986h2.678l-8.3-9.316c-.367-.412-.334-1.049.073-1.42.393-.371 1.071-.344 1.428.066l4.433 4.872c.387 1.066 1.335 1.883 2.507 2.05l5.161.737.283-1.979-5.161-.737c-.559-.08-.981-.566-.981-1.131 0-.63.512-1.142 1.142-1.142h9.858c.551 0 1 .449 1 1v7h2v-7c0-1.654-1.346-3-3-3z"/></svg>