<svg id="Layer_1" viewBox="0 0 24 24" xmlns="http://www.w3.org/2000/svg" data-name="Layer 1"><path d="m7 4.5c0-1.381 1.119-2.5 2.5-2.5s2.5 1.119 2.5 2.5-1.119 2.5-2.5 2.5-2.5-1.119-2.5-2.5zm6.007 7.5h1.993v2h-3.007l-1.436-1.962-1.521 4.694 2.965 1.687v5.582h-2v-4.418l-4.586-2.61c-1.272-.803-1.766-2.348-1.212-3.698l1.143-3.355c.485-1.188 1.575-1.918 2.797-1.918h.359c.88 0 1.771.393 2.324 1.024l2.183 2.976zm-5.727 3.733 1.796-5.587c-.159-.081-.371-.146-.576-.146h-.359c-.407 0-.771.244-.925.621l-1.143 3.355c-.206.506-.041 1.021.37 1.281l.838.477zm11.063-8.447c-.236.347-.315.563-.335.656.267.201 1.187.393 1.696.499 1.391.29 3.296.686 3.296 2.399 0 2.495-3.771 3.16-6 3.16v-2c1.84 0 3.854-.566 3.992-1.103-.266-.201-1.187-.393-1.696-.499-1.391-.29-3.296-.686-3.296-2.399 0-.518.209-1.084.608-1.704l1.031-6.296h6.361v6.362l-5.657.926zm.475-2.104 3.183-.521v-2.661h-2.662l-.521 3.183zm-14.874 13.165-.283.653h-3.661v2h5l.676-1.578-1.252-.713c-.173-.109-.324-.238-.48-.362z"/></svg>