<?xml version="1.0" encoding="UTF-8"?>
<svg xmlns="http://www.w3.org/2000/svg" id="Layer_1" data-name="Layer 1" viewBox="0 0 24 24">
  <path d="M21,4h-2v-1c0-1.654-1.346-3-3-3H3C1.346,0,0,1.346,0,3v14.855c-.053,1.663,1.984,2.754,3.34,1.787l2.66-1.774v3.131h10.697l3.963,2.642c1.356,.967,3.393-.124,3.34-1.787V7c0-1.654-1.346-3-3-3ZM2.23,17.978c-.048,.079-.269-.037-.23-.123V3c0-.551,.448-1,1-1h13c.552,0,1,.449,1,1V15H6.697l-4.467,2.978Zm19.77,3.877c.039,.086-.185,.203-.23,.123l-4.467-2.978H8v-2h11V6h2c.552,0,1,.449,1,1v14.855ZM8.5,9.3h-1.9v2.7h-1.6V5h3.5v1.6h-1.9v1.101h1.9v1.6Zm3.1,.2h.413l.909,2.5h1.703l-1.064-2.927c.567-.409,.94-1.07,.94-1.823,0-1.243-1.007-2.25-2.25-2.25h-2.25v7h1.6v-2.5Zm0-2.9h.65c.358,0,.65,.292,.65,.65s-.292,.65-.65,.65h-.65v-1.3Z"/>
</svg>
