<?xml version="1.0" encoding="UTF-8"?>
<svg xmlns="http://www.w3.org/2000/svg" id="Layer_1" data-name="Layer 1" viewBox="0 0 24 24">
  <path d="M9,7c-.171,0-.333,.034-.5,.05V3h1.6V7.13c-.355-.08-.721-.13-1.1-.13Zm-2.7,.802v-3.203h1.2v-1.6H3.5v1.6h1.2v4.888c.398-.679,.939-1.26,1.6-1.686Zm5.2-.109V3h2.25c1.243,0,2.25,1.007,2.25,2.25s-1.007,2.25-2.25,2.25h-.65v1.648c-.417-.598-.967-1.087-1.6-1.455Zm1.6-1.794h.65c.358,0,.65-.292,.65-.65s-.292-.65-.65-.65h-.65v1.3ZM21,0H3C1.346,0,0,1.346,0,3V13H4v-2H2V3c0-.552,.448-1,1-1H21c.552,0,1,.448,1,1V11H14v2h10V3c0-1.654-1.346-3-3-3Zm-2.339,8.457c-.425,0-1.017-.381-1.288-.619l-1.064,1.195c.118,.104,1.185,1.023,2.353,1.023,1.134,0,2.339-.748,2.339-2.134,0-1.303-1.128-1.842-1.951-2.235-.618-.296-1.023-.509-1.023-.765,0-.443,.525-.456,.585-.456,.23,0,.724,.279,1.022,.529l1.033-1.222c-.179-.151-1.117-.907-2.056-.907-1.245,0-2.185,.884-2.185,2.056,0,1.283,1.117,1.817,1.933,2.208,.734,.352,1.042,.539,1.042,.792,0,.519-.664,.534-.739,.534Zm-6.661,3.65c0-1.516-1.076-2.835-2.503-3.067-1.777-.333-3.538,1.156-3.497,2.96v7.563l-1.015-.808-.003,.004c-1.21-1.071-3.064-.997-4.173,.191-1.13,1.208-1.066,3.11,.13,4.23l.849,.818h2.881l-2.352-2.268c-.403-.378-.424-1.013-.046-1.416,.375-.402,1.008-.421,1.41-.048,.02,.019,4.32,3.443,4.32,3.443V12c-.011-.605,.575-1.104,1.175-.985,.463,.075,.825,.555,.825,1.093v6.048l8,3v2.845h2v-4.231l-8-3v-4.661Z"/>
</svg>
