<svg id="Layer_1" viewBox="0 0 24 24" xmlns="http://www.w3.org/2000/svg" data-name="Layer 1"><path d="m19 0h-14c-1.654 0-3 1.346-3 3v21h20v-21c0-1.654-1.346-3-3-3zm-14 2h14c.551 0 1 .449 1 1v5h-16v-5c0-.551.449-1 1-1zm-1 20v-12h16v12zm7-5c0-2.851-1.29-5-3-5s-3 2.149-3 5 1.29 5 3 5 3-2.149 3-5zm-3 3c-.249 0-1-1.064-1-3s.751-3 1-3 1 1.064 1 3-.751 3-1 3zm5-15c0-.828.672-1.5 1.5-1.5s1.5.672 1.5 1.5-.672 1.5-1.5 1.5-1.5-.672-1.5-1.5zm-5 0c0-.828.672-1.5 1.5-1.5s1.5.672 1.5 1.5-.672 1.5-1.5 1.5-1.5-.672-1.5-1.5zm7 12c0 2.75-1.482 4.902-3.39 4.985.873-1.241 1.39-2.976 1.39-4.985s-.517-3.744-1.39-4.985c1.908.082 3.39 2.235 3.39 4.985zm4 0c0 2.75-1.482 4.902-3.39 4.985.873-1.241 1.39-2.976 1.39-4.985s-.517-3.744-1.39-4.985c1.908.082 3.39 2.235 3.39 4.985z"/></svg>