<?xml version="1.0" encoding="UTF-8"?>
<svg xmlns="http://www.w3.org/2000/svg" id="Layer_1" data-name="Layer 1" viewBox="0 0 24 24">
  <path d="M20,18.586l3.957,3.957-1.414,1.414L.043,1.457,1.457,.043,15.414,14h4.586v4.586Zm2,1.414h2v-6h-2v6Zm-6.572-11.856l1.602,.961c.599,.359,.971,1.016,.971,1.715v1.18h2v-1.18c0-1.397-.744-2.711-1.941-3.43l-1.602-.961c-.898-.54-1.457-1.525-1.457-2.573v-1.856h-2v1.856c0,1.746,.931,3.389,2.428,4.288Zm6.145-3.167l-2.087-1.252c-.3-.18-.485-.508-.485-.857V0h-2V2.868c0,1.048,.558,2.034,1.456,2.572l2.087,1.252c.898,.539,1.457,1.524,1.457,2.572v.735h2v-.735c0-1.747-.931-3.389-2.428-4.287Zm-7.815,13.022l2,2H0v-6H9.758l2,2h-2.758v2h4.758Zm-11.758,0H7v-2H2v2Z"/>
</svg>
