<?xml version="1.0" encoding="UTF-8"?>
<svg xmlns="http://www.w3.org/2000/svg" id="Layer_1" data-name="Layer 1" viewBox="0 0 24 24">
  <path d="m22.942,3.714c-.672-.572-1.56-.815-2.439-.674-.216.035-.42.102-.617.184-.344-1.277-1.501-2.224-2.886-2.224-.537,0-1.034.153-1.471.401-.532-.839-1.464-1.401-2.529-1.401-1.384,0-2.541.947-2.885,2.224-.197-.082-.402-.149-.617-.184-.88-.142-1.768.102-2.439.674-.672.571-1.058,1.404-1.058,2.286v8.566l-.955-.759c-1.208-1.128-3.107-1.062-4.235.143-1.13,1.208-1.067,3.11.129,4.231l7.072,6.818h15.989V6c0-.882-.386-1.715-1.058-2.286Zm-.942,13.999l-2.516-2.327,2.516-2.378v4.705Zm-1.175-12.698c.301-.05.595.03.822.223.224.19.353.469.353.763v5h-2v-4.893c0-.538.362-1.018.825-1.093Zm-3.825-2.015c.552,0,1,.448,1,1v7h-2v-7c0-.552.448-1,1-1Zm-5,0c0-.552.448-1,1-1s1,.448,1,1v8h-2V3Zm.553,10l-4.553,4.213v-4.213h4.553Zm-4.201-8.763c.228-.193.52-.273.822-.223.463.075.825.555.825,1.093v5.893h-2v-6c0-.294.129-.572.353-.763ZM2.271,14.316c.375-.402,1.006-.423,1.469.004l2.261,1.8v3.164l-3.684-3.551c-.402-.378-.424-1.013-.046-1.416Zm5.729,6.896v-1.275l7.498-6.937h3.6l-9.52,9h-.761l-.817-.788Zm6.554-1.165l2.066,1.953h-4.132l2.066-1.953Zm4.976,1.953l-3.521-3.329,2.019-1.909,3.972,3.675v1.563h-2.47Z"/>
</svg>
