<?xml version="1.0" encoding="UTF-8"?>
<svg xmlns="http://www.w3.org/2000/svg" id="Layer_1" data-name="Layer 1" viewBox="0 0 24 24">
  <path d="M14.884,18.386l-1.845-.771,2.5-5.978,1.845,.771-2.5,5.978Zm-1.461-5.978l-1.845-.771-2.5,5.978,1.845,.771,2.5-5.978Zm-8.383,5.206l1.845,.771,2.5-5.978-1.845-.771-2.5,5.978Zm17.464,3.701c-.38,.436-.928,.685-1.503,.685-1.103,0-2-.897-2-2h-2c0,1.103-.897,2-2,2s-2-.897-2-2h-2c0,1.103-.897,2-2,2s-2-.897-2-2h-2c0,1.103-.897,2-2,2-.575,0-1.123-.249-1.503-.685L-.009,22.632c.759,.869,1.856,1.368,3.009,1.368,1.2,0,2.266-.542,3-1.382,.734,.84,1.8,1.382,3,1.382s2.266-.542,3-1.382c.734,.84,1.8,1.382,3,1.382s2.266-.542,3-1.382c.734,.84,1.8,1.382,3,1.382,1.153,0,2.25-.499,3.009-1.368l-1.506-1.316ZM4.487,13.751c-.302-.517-.487-1.11-.487-1.751,0-1.224,.635-2.339,1.7-2.983l.633-.383-.181-.717c-.101-.397-.151-.789-.151-1.166,0-2.619,2.131-4.75,4.75-4.75,2.099,0,3.923,1.347,4.54,3.351l.188,.61,.633,.086c2.217,.301,3.889,2.216,3.889,4.453,0,.711-.181,1.375-.475,1.973l-1.712,4.094c2.444-.935,4.188-3.299,4.188-6.067,0-3.023-2.113-5.638-5.007-6.321C15.96,1.656,13.523,0,10.75,0c-3.722,0-6.75,3.028-6.75,6.75,0,.318,.024,.641,.073,.966-1.31,1.039-2.073,2.595-2.073,4.284,0,1.509,.612,2.878,1.6,3.873l.888-2.122Z"/>
</svg>
