<?xml version="1.0" encoding="UTF-8"?>
<svg xmlns="http://www.w3.org/2000/svg" id="Layer_1" data-name="Layer 1" viewBox="0 0 24 24">
  <path d="M12,12c-3.309,0-6,2.691-6,6s2.691,6,6,6,6-2.691,6-6-2.691-6-6-6Zm4,6c0,.74-.215,1.424-.567,2.019l-5.453-5.452c.595-.351,1.28-.567,2.019-.567,2.206,0,4,1.794,4,4Zm-8,0c0-.74,.215-1.424,.567-2.019l5.453,5.452c-.595,.351-1.28,.567-2.019,.567-2.206,0-4-1.794-4-4Zm16-4c0,2.433-1.749,4.461-4.055,4.904,.034-.297,.055-.598,.055-.904,0-.393-.038-.777-.093-1.155,1.209-.387,2.093-1.509,2.093-2.845,0-1.654-1.346-3-3-3v3.13c-.507-.915-1.189-1.719-2-2.37v-2.76h2c0-3.859-3.14-7-7-7s-7,3.141-7,7h2v2.76c-.811,.651-1.493,1.454-2,2.37v-3.13c-1.654,0-3,1.346-3,3,0,1.336,.884,2.458,2.093,2.845-.055,.378-.093,.762-.093,1.155,0,.306,.021,.607,.055,.904-2.306-.444-4.055-2.471-4.055-4.904,0-2.045,1.237-3.802,3-4.576v-.424C3,4.037,7.038,0,12,0s9,4.037,9,9v.424c1.763,.774,3,2.531,3,4.576Z"/>
</svg>
