<?xml version="1.0" encoding="UTF-8"?>
<svg xmlns="http://www.w3.org/2000/svg" id="Layer_1" data-name="Layer 1" viewBox="0 0 24 24">
  <path d="M17.5,23c-2.283,0-4.337-1.347-5.5-3.327-1.163,1.98-3.217,3.327-5.5,3.327-3.584,0-6.5-2.916-6.5-6.5C0,9.778,9.512,2.644,11.419,1.281l.581-.415,.581,.415c1.907,1.362,11.419,8.497,11.419,15.219,0,3.584-2.916,6.5-6.5,6.5Zm-4.5-7c0,2.664,2.103,5,4.5,5,2.481,0,4.5-2.019,4.5-4.5,0-4.278-5.259-9.661-10-13.168C7.259,6.839,2,12.222,2,16.5c0,2.481,2.019,4.5,4.5,4.5,2.397,0,4.5-2.336,4.5-5h2Z"/>
</svg>
