<?xml version="1.0" encoding="UTF-8"?>
<svg xmlns="http://www.w3.org/2000/svg" id="Layer_1" data-name="Layer 1" viewBox="0 0 24 24">
  <path d="M22.589,.73c-.027,.013-2.835,1.27-5.587,1.27C14.002,1.952,10.066-.027,7.002,0,3.16,.147,.778,2.017,0,2.464V24H2v-6.437c.892-.51,2.981-1.563,5.002-1.563,2.999,.049,6.937,2.027,10,2,3.916-.138,5.98-1.31,7-1.715V.09l-1.413,.64Zm-.587,14.238c-.97,.368-3,1.032-5,1.032-1.36,0-3.07-.489-4.725-.962-1.787-.51-3.634-1.038-5.274-1.038-1.893,0-3.75,.699-5.002,1.304V3.563c.892-.509,2.981-1.563,5.002-1.563,1.36,0,3.071,.489,4.725,.961,1.787,.511,3.635,1.039,5.274,1.039,1.9,0,3.772-.496,5-.908V14.968ZM13,6c0,.552-.448,1-1,1s-1-.448-1-1,.448-1,1-1,1,.448,1,1Zm0,6c0,.552-.448,1-1,1s-1-.448-1-1,.448-1,1-1,1,.448,1,1Zm-2.765-2.059c.26,.487,.076,1.093-.412,1.353-.487,.26-1.093,.076-1.353-.412s-.076-1.093,.412-1.353c.487-.26,1.093-.076,1.353,.412Zm5.294-2.824c.26,.487,.076,1.093-.412,1.353-.487,.26-1.093,.076-1.353-.412-.26-.487-.076-1.093,.412-1.353s1.093-.076,1.353,.412Zm0,3.765c-.26,.487-.866,.672-1.353,.412-.487-.26-.672-.866-.412-1.353s.866-.672,1.353-.412c.487,.26,.672,.866,.412,1.353Zm-5.294-2.823c-.26,.487-.866,.672-1.353,.412-.487-.26-.672-.866-.412-1.353s.866-.672,1.353-.412,.672,.866,.412,1.353Z"/>
</svg>
