<svg id="Layer_1" viewBox="0 0 24 24" xmlns="http://www.w3.org/2000/svg" data-name="Layer 1"><path d="m5.5 9c.422 0 .802-.175 1.074-.456.96 2.038 3.028 3.456 5.426 3.456s4.466-1.417 5.426-3.456c.273.28.652.456 1.074.456.828 0 1.5-.672 1.5-1.5v-3c0-.828-.672-1.5-1.5-1.5-.422 0-.802.175-1.074.456-.96-2.038-3.028-3.456-5.426-3.456s-4.466 1.417-5.426 3.456c-.273-.28-.652-.456-1.074-.456-.828 0-1.5.672-1.5 1.5v3c0 .828.672 1.5 1.5 1.5zm6.5 1c-2.206 0-4-1.794-4-4 0-.347.058-.678.142-1h1.858c1.105 0 2-.895 2-2 0 1.105.895 2 2 2h1.858c.084.322.142.653.142 1 0 2.206-1.794 4-4 4zm9 9v5h-2v-5c0-1.654-1.346-3-3-3h-8c-1.654 0-3 1.346-3 3v5h-2v-5c0-2.757 2.243-5 5-5h8c2.757 0 5 2.243 5 5z"/></svg>