<?xml version="1.0" encoding="UTF-8"?>
<svg xmlns="http://www.w3.org/2000/svg" id="Layer_1" data-name="Layer 1" viewBox="0 0 24 24">
  <path d="M15.78,13h-1.28V7h1.28v.006l1.44,3.041v-3.047h1.28v6h-1.28l-1.44-3.041v3.041Zm-4.03,0h-1.25V7h1.467c1.109,0,2.012,.891,2.012,1.985s-.902,1.985-2.012,1.985l-.217,.003v2.027Zm.002-4.75l.005,1.473,.21-.003c.413,0,.762-.336,.762-.735s-.349-.735-.762-.735h-.215Zm-1.8-1.25h-1.261l-.94,4.55-.94-4.55h-1.31l1.036,4.852c.081,.421,.367,1.148,1.214,1.148s1.127-.696,1.221-1.181l.981-4.819Zm14.049,8v3c0,1.654-1.346,3-3,3H3c-1.654,0-3-1.346-3-3v-3H2V3H22V15h2Zm-20,0h4.914l1,1h4.172l1-1h4.914V5H4V15Zm18,2h-6.086l-1,1h-5.828l-1-1H2v1c0,.551,.448,1,1,1H21c.552,0,1-.449,1-1v-1Z"/>
</svg>
