<svg id="Layer_1" viewBox="0 0 24 24" xmlns="http://www.w3.org/2000/svg" data-name="Layer 1"><path d="m3 19h2v2h-2c-.551 0-1 .448-1 1v2h-2v-2c0-1.654 1.346-3 3-3zm1.5-7c-1.381 0-2.5 1.119-2.5 2.5s1.119 2.5 2.5 2.5 2.5-1.119 2.5-2.5-1.119-2.5-2.5-2.5zm16.5 7h-2v2h2c.552 0 1 .448 1 1v2h2v-2c0-1.654-1.346-3-3-3zm1-4.5c0-1.381-1.119-2.5-2.5-2.5s-2.5 1.119-2.5 2.5 1.119 2.5 2.5 2.5 2.5-1.119 2.5-2.5zm-10-.5c1.381 0 2.5-1.119 2.5-2.5s-1.119-2.5-2.5-2.5-2.5 1.119-2.5 2.5 1.119 2.5 2.5 2.5zm2 2h-4c-1.654 0-3 1.346-3 3v5h2v-5c0-.552.449-1 1-1h4c.552 0 1 .448 1 1v5h2v-5c0-1.654-1.346-3-3-3zm6-12v-4h-2v4h-4v2h4v4h2v-4h4v-2z"/></svg>