<svg id="Layer_1" viewBox="0 0 24 24" xmlns="http://www.w3.org/2000/svg" data-name="Layer 1"><path d="m15.43 8.771c-1.282-.609-2.143-1.714-2.367-2.974 1.129-.431 1.937-1.517 1.937-2.796 0-1.654-1.346-3-3-3s-3 1.346-3 3c0 1.321.863 2.432 2.051 2.831.243 2.024 1.54 3.804 3.521 4.746 2.083.99 3.429 3.118 3.429 5.423 0 3.309-2.691 6-6 6s-6-2.691-6-6v-.5l-2-2c.002.052-.004 2.499.002 2.546.025 4.39 3.602 7.954 7.998 7.954s8-3.589 8-8c0-3.072-1.794-5.91-4.57-7.229zm-3.43-6.771c.552 0 1 .449 1 1s-.448 1-1 1-1-.449-1-1 .448-1 1-1z"/></svg>