<svg id="Layer_1" viewBox="0 0 24 24" xmlns="http://www.w3.org/2000/svg" data-name="Layer 1"><path d="m12 12c-3.309 0-6 2.691-6 6s2.691 6 6 6 6-2.691 6-6-2.691-6-6-6zm0 10c-2.206 0-4-1.794-4-4s1.794-4 4-4 4 1.794 4 4-1.794 4-4 4zm1-4.423 1.473 1.43-1.394 1.436-2.079-2.02v-3.423h2zm8-8.577h-3.34l-4.214-7.436c-.525-.965-1.535-1.564-2.634-1.564h-3.724l2.898 9h-3.585l-2.296-2.296c-.454-.454-1.058-.704-1.699-.704-.867 0-1.644.447-2.079 1.197-.436.75-.438 1.646-.008 2.399l3.088 5.404h1.18c.294-.726.691-1.398 1.173-2h-1.193l-2.512-4.396c-.1-.176-.042-.328.001-.403s.147-.201.349-.201c.106 0 .21.043.285.118l2.882 2.882h15.427c.551 0 1 .449 1 1v1h-3.76c.483.602.879 1.274 1.173 2h4.587v-3c0-1.654-1.346-3-3-3zm-11.166-7h.979c.366 0 .703.2.886.536l3.663 6.464h-3.274l-2.253-7z"/></svg>