<svg id="Layer_1" viewBox="0 0 24 24" xmlns="http://www.w3.org/2000/svg" data-name="Layer 1"><path d="m4.5 13h.089c-.377-.927-.589-1.939-.589-3 0-.763.114-1.499.314-2.198.426 1.926 1.272 3.695 2.451 5.198h2.698c-2.187-2.058-3.571-5.063-3.45-8.288.705-.798 1.566-1.452 2.535-1.918-.022.27-.048.54-.048.812 0 4.377 2.859 8.093 6.806 9.394h4.194c.672 0 1.321.103 1.931.293.362-1.033.569-2.138.569-3.293 0-5.514-4.486-10-10-10s-10 4.486-10 10c0 1.155.207 2.26.569 3.293.61-.19 1.259-.293 1.931-.293zm14.766-6.328c-2.185.178-4.115-1.752-3.938-3.938 1.737.799 3.138 2.2 3.938 3.938zm-5.896-4.546c-.037.265-.062.533-.062.805 0 3.177 2.584 5.762 5.761 5.762.272 0 .54-.026.805-.062.077.446.126.902.126 1.37 0 .46-.048.908-.123 1.347-.488.093-.983.153-1.484.153-4.352 0-7.893-3.541-7.893-7.894 0-.501.06-.996.153-1.484.439-.075.887-.123 1.347-.123.468 0 .924.049 1.37.126zm6.13 12.874h-15c-2.481 0-4.5 2.019-4.5 4.5s2.019 4.5 4.5 4.5h15c2.481 0 4.5-2.019 4.5-4.5s-2.019-4.5-4.5-4.5zm-17.5 4.5c0-1.379 1.122-2.5 2.5-2.5s2.5 1.121 2.5 2.5-1.122 2.5-2.5 2.5-2.5-1.121-2.5-2.5zm6.238 2.5c.48-.716.762-1.575.762-2.5s-.282-1.784-.762-2.5h3.262c1.378 0 2.5 1.121 2.5 2.5s-1.122 2.5-2.5 2.5zm11.262 0h-4.262c.48-.716.762-1.575.762-2.5s-.282-1.784-.762-2.5h4.262c1.378 0 2.5 1.121 2.5 2.5s-1.122 2.5-2.5 2.5z"/></svg>