<svg id="Layer_1" viewBox="0 0 24 24" xmlns="http://www.w3.org/2000/svg" data-name="Layer 1"><path d="m12.745 10.988v2.024c0 .403-.322.729-.724.736-.144-.002-.437-.003-.754-.003.003-.642.001-2.311 0-3.49.317 0 .61 0 .754-.003.402.007.725.333.724.736zm6.809 3.626c-.288.833-.717 1.597-1.247 2.28l1.407 1.407c.391-.187.824-.301 1.285-.301 1.654 0 3 1.346 3 3s-1.346 3-3 3-3-1.346-3-3c0-.462.113-.894.301-1.285l-1.409-1.409c-.682.532-1.446.96-2.279 1.249.24.431.388.919.388 1.446 0 1.654-1.346 3-3 3s-3-1.346-3-3c0-.527.148-1.015.388-1.446-.833-.289-1.597-.717-2.279-1.249l-1.409 1.409c.187.391.301.824.301 1.285 0 1.654-1.346 3-3 3s-3-1.346-3-3 1.346-3 3-3c.462 0 .894.113 1.285.301l1.407-1.407c-.529-.683-.958-1.447-1.247-2.28-.428.243-.919.386-1.446.386-1.654 0-3-1.346-3-3s1.346-3 3-3c.527 0 1.017.144 1.446.386.288-.833.717-1.597 1.247-2.28l-1.407-1.407c-.391.187-.824.301-1.285.301-1.654 0-3-1.346-3-3s1.345-3 2.999-3 3 1.346 3 3c0 .462-.113.894-.301 1.285l1.409 1.409c.682-.532 1.446-.96 2.279-1.249-.24-.431-.388-.919-.388-1.446 0-1.654 1.346-3 3-3s3 1.346 3 3c0 .527-.148 1.015-.388 1.446.833.289 1.597.717 2.279 1.249l1.409-1.409c-.187-.391-.301-.824-.301-1.285 0-1.654 1.346-3 3-3s3 1.346 3 3-1.346 3-3 3c-.462 0-.894-.113-1.285-.301l-1.407 1.407c.529.683.958 1.447 1.247 2.28.428-.243.919-.386 1.446-.386 1.654 0 3 1.346 3 3s-1.346 3-3 3c-.527 0-1.017-.144-1.446-.386zm.446-2.614c0 .552.448 1 1 1s1-.448 1-1-.448-1-1-1-1 .448-1 1zm-16 0c0-.552-.448-1-1-1s-1 .448-1 1 .448 1 1 1 1-.448 1-1zm16-9c0 .552.448 1 1 1s1-.448 1-1-.448-1-1-1-1 .448-1 1zm-6 7.967c0-1.086-.881-1.967-1.967-1.967l-2.02.008.008 5.992h2.012c1.086 0 1.967-.881 1.967-1.967zm-2-6.967c.552 0 1-.448 1-1s-.448-1-1-1-1 .448-1 1 .448 1 1 1zm-8-1c0-.552-.448-1-1-1s-1 .448-1 1 .448 1 1 1 1-.448 1-1zm0 18c0-.552-.448-1-1-1s-1 .448-1 1 .448 1 1 1 1-.448 1-1zm4.987-8h-1.25v.015c0 .395-.342.726-.75.733-.402-.007-.725-.333-.724-.736 0-.138-.008-1.929-.008-2.024 0-.403.322-.729.724-.736.408.007.75.339.75.733v.015h1.25v-.015c0-1.094-.903-1.985-2.012-1.985-1.086 0-1.967.881-1.967 1.967l.008 2.066c0 1.086.881 1.967 1.967 1.967 1.11 0 2.012-.891 2.012-1.985zm3.013 7c-.552 0-1 .448-1 1s.448 1 1 1 1-.448 1-1-.448-1-1-1zm8 1c0 .552.448 1 1 1s1-.448 1-1-.448-1-1-1-1 .448-1 1zm-1.5-12h-1.2v2.726l-1.1-2.719v-.006h-1.2v6h1.2v-2.784l1.1 2.784h1.2v-6z"/></svg>