<?xml version="1.0" encoding="UTF-8"?>
<svg xmlns="http://www.w3.org/2000/svg" id="Layer_1" data-name="Layer 1" viewBox="0 0 24 24">
  <path d="M10,13c-.828,0-1.5-.672-1.5-1.5s.672-1.5,1.5-1.5,1.5,.672,1.5,1.5-.672,1.5-1.5,1.5Zm4,0c.828,0,1.5-.672,1.5-1.5s-.672-1.5-1.5-1.5-1.5,.672-1.5,1.5,.672,1.5,1.5,1.5Zm-2-8c3.584,0,6.5,2.916,6.5,6.5v4.5h-2.5v2H8v-2h-2.5v-4.5c0-3.584,2.916-6.5,6.5-6.5ZM7.5,14h2.5v2h4v-2h2.5v-2.5c0-2.481-2.019-4.5-4.5-4.5s-4.5,2.019-4.5,4.5v2.5Zm14.304,4.02l-9.804,1.961-9.804-1.961-.393,1.961,5.098,1.02-5.098,1.02,.393,1.961,9.804-1.961,9.804,1.961,.393-1.961-5.098-1.02,5.098-1.02-.393-1.961ZM3.5,10.96c-.927-1.535-1.5-3.057-1.5-4.46,0-2.481,2.019-4.5,4.5-4.5,1.137,0,2.216,.511,3.036,1.367,.714-.217,1.468-.336,2.247-.356-1.212-1.847-3.168-3.011-5.284-3.011C2.916,0,0,2.916,0,6.5c0,2.699,1.541,5.459,3.5,7.89v-3.43ZM17.5,2c2.481,0,4.5,2.019,4.5,4.5,0,1.403-.573,2.925-1.5,4.46v3.43c1.959-2.432,3.5-5.191,3.5-7.89,0-3.584-2.916-6.5-6.5-6.5-2.115,0-4.072,1.164-5.284,3.011,.779,.02,1.533,.139,2.247,.356,.821-.856,1.9-1.367,3.036-1.367Z"/>
</svg>
