<svg id="Layer_1" viewBox="0 0 24 24" xmlns="http://www.w3.org/2000/svg" data-name="Layer 1"><path d="m10.298 22h-8.298v-19c0-.552.449-1 1-1h8v7h7v.025c.691.04 1.363.154 2 .35v-1.789l-7.586-7.586h-9.414c-1.654 0-3 1.346-3 3v21h12.028c-.677-.57-1.258-1.247-1.73-2zm2.702-18.586 3.586 3.586h-3.586zm4.5 7.586c-3.59 0-6.5 2.91-6.5 6.5s2.91 6.5 6.5 6.5 6.5-2.91 6.5-6.5-2.91-6.5-6.5-6.5zm0 11c-1.37 0-2.581-.627-3.402-1.598l-1.098 1.098v-3c0-.276.224-.5.5-.5h3l-1 1h.013c.457.603 1.174 1 1.987 1s1.531-.397 1.987-1h2.236c-.621 1.742-2.271 3-4.224 3zm4.5-5.5c0 .276-.224.5-.5.5h-3l1-1h-.013c-.457-.603-1.174-1-1.987-1s-1.531.397-1.987 1h-2.236c.621-1.742 2.271-3 4.224-3 1.37 0 2.581.627 3.402 1.598l1.098-1.098v3z"/></svg>