<svg id="Layer_1" viewBox="0 0 24 24" xmlns="http://www.w3.org/2000/svg" data-name="Layer 1"><path d="m13.696 12.803s0 0 0 0h-.001zm-4.525-1.131 1.132 1.131c.936-.936 2.457-.936 3.393 0l1.132-1.13c-1.559-1.56-4.097-1.56-5.657 0zm2.829 1.328c-.552 0-1 .448-1 1s.448 1 1 1 1-.448 1-1-.448-1-1-1zm0-3.4c1.309 0 2.539.51 3.464 1.435l1.132-1.131c-1.227-1.228-2.86-1.904-4.596-1.904s-3.368.676-4.596 1.904l1.132 1.131c.925-.925 2.155-1.435 3.464-1.435zm8-9.6v21c0 1.654-1.346 3-3 3h-10c-1.654 0-3-1.346-3-3v-21zm-14 2v14h12v-14zm12 19v-3h-12v3c0 .551.449 1 1 1h10c.551 0 1-.449 1-1zm-8 0h4v-2h-4zm1-15h2v1.074c1.074.142 2.093.511 3.001 1.086v-1.74c0-.41-.189-.797-.512-1.05l-2.667-2.087c-.241-.189-.531-.283-.822-.283s-.58.094-.822.283l-2.667 2.087c-.323.253-.512.64-.512 1.05v1.741c.908-.575 1.926-.944 2.999-1.087v-1.074z"/></svg>