<?xml version="1.0" encoding="UTF-8"?>
<svg xmlns="http://www.w3.org/2000/svg" id="Layer_1" data-name="Layer 1" viewBox="0 0 24 24">
  <path d="m24,17c0,3.86-3.141,7-7,7v-2c2.757,0,5-2.243,5-5h2Zm-2.604-2.136l-6.533,6.533-.685-.465c-.056-.038-1.184-.808-2.54-1.841l-.791.793-.708-.709c-3.04-3.046-4.237-4.372-6.868-7.895-1.594-2.134-1.67-4.885-.298-6.891L.075,1.489,1.489.075l2.894,2.895c1.968-1.36,4.667-1.295,6.884.264,2.951,2.076,4.748,3.733,7.907,6.896l.705.707-.794.796c1.036,1.359,1.808,2.491,1.846,2.547l.465.684Zm-10.547,2.187l6.202-6.212c-2.647-2.629-4.33-4.137-6.935-5.969-.75-.527-1.687-.875-2.624-.875-.866,0-1.733.296-2.456,1.021-1.329,1.332-1.396,3.415-.163,5.067,2.363,3.165,3.483,4.451,5.976,6.968Zm7.955-2.424c-.286-.403-.689-.96-1.146-1.565l-4.593,4.6c.604.456,1.159.858,1.561,1.143l4.178-4.178Zm-9.305-6.627c-.828,0-1.5.672-1.5,1.5s.672,1.5,1.5,1.5,1.5-.672,1.5-1.5-.672-1.5-1.5-1.5Z"/>
</svg>
