<?xml version="1.0" encoding="UTF-8"?>
<svg xmlns="http://www.w3.org/2000/svg" id="Layer_1" data-name="Layer 1" viewBox="0 0 24 24">
  <path d="M0,7V2H2v3.362C4.189,2.044,7.891,0,12,0c6.617,0,12,5.383,12,12,0,.337-.016,.67-.044,1h-2.025c.036-.33,.069-.661,.069-1,0-5.514-4.486-10-10-10-3.64,0-6.899,1.921-8.665,5h3.665v2H2c-1.103,0-2-.897-2-2Zm2,5H0c0,6.617,5.383,12,12,12,.338,0,.669-.023,1-.051v-2c-.329,.033-.662,.051-1,.051-5.514,0-10-4.486-10-10Zm9-1H7v2h6V6h-2v5Zm10,7h-1v-1h3.5v-2h-5.5v5h3c.551,0,1,.449,1,1s-.449,1-1,1h-3v2h3c1.654,0,3-1.346,3-3s-1.346-3-3-3Zm-4.676-2.917c-.408-.171-.879-.076-1.208,.253l-2.839,2.972,1.446,1.382,1.277-1.337v5.646h2v-7.905c0-.444-.265-.841-.676-1.011Z"/>
</svg>
