<?xml version="1.0" encoding="UTF-8"?>
<svg xmlns="http://www.w3.org/2000/svg" id="Layer_1" data-name="Layer 1" viewBox="0 0 24 24">
  <path d="M7.398,11h6.602v2H7.398c-.137,0-.267,.03-.398,.058v8.942h7v2H5V15.392l-3.096,6.536-1.808-.855,3.688-7.784c.658-1.39,2.077-2.288,3.615-2.288Zm6.602-6c0,2.206-1.794,4-4,4s-4-1.794-4-4S7.794,1,10,1s4,1.794,4,4Zm-2,0c0-1.103-.897-2-2-2s-2,.897-2,2,.897,2,2,2,2-.897,2-2Zm7,10c2.1-.418,5-2.084,5-6h-2c0,2.731-1.802,3.595-3,3.87V0h-2V1h-1V3h1v6h-1v8h1v7h4v-1.5l-1.277-5.5h4.277v-2h-5Z"/>
</svg>
