<svg id="Layer_1" viewBox="0 0 24 24" xmlns="http://www.w3.org/2000/svg" data-name="Layer 1"><path d="m2 3c0 .552.449 1 1 1h21v16h-10.262c.165-.64.262-1.308.262-2h8v-12h-19c-.352 0-.686-.072-1-.184v5.263c-.754.437-1.428.992-2 1.642v-9.721c0-1.654 1.346-3 3-3h21v2h-21c-.551 0-1 .448-1 1zm18 9c0-.828-.672-1.5-1.5-1.5s-1.5.672-1.5 1.5.672 1.5 1.5 1.5 1.5-.672 1.5-1.5zm-10 1.534c-1.078-.97-2.482-1.534-4-1.534-2.967 0-5.431 2.167-5.91 5h2.052c.447-1.72 1.999-3 3.858-3 1 0 1.928.367 2.644 1h-1.644v2h5v-5h-2zm-4 8.466c-.994 0-1.929-.368-2.646-1h1.646v-2h-5v5h2v-1.531c1.08.966 2.494 1.531 4 1.531 2.967 0 5.431-2.167 5.91-5h-2.052c-.447 1.72-1.999 3-3.858 3z"/></svg>