<svg id="Layer_1" viewBox="0 0 24 24" xmlns="http://www.w3.org/2000/svg" data-name="Layer 1"><path d="m13 8h1v-2h-1v-.5c0-3.033-2.467-5.5-5.5-5.5h-1c-3.033 0-5.5 2.467-5.5 5.5v.5h-1v2h1v1c0 1.687.716 3.305 1.965 4.44 1.106 1.006 2.556 1.559 4.048 1.559.19 0 .382-.009.573-.027 3.036-.29 5.414-3.007 5.414-6.187zm-10-2.5c0-1.758 1.308-3.204 3-3.449v2.949h2v-2.949c1.692.245 3 1.691 3 3.449v.5h-8zm4.396 7.481c-1.145.107-2.242-.253-3.086-1.021-.833-.757-1.31-1.836-1.31-2.96v-1h8v.785c0 2.16-1.583 4.003-3.604 4.196zm16.604 3.597c0 2.156-1.158 4.127-3 5.191v2.231h-2v-3.498c1.713-.569 3.026-2.073 3-3.924 0-.991-.368-1.924-1-2.641v.641c0 1.654-1.346 3-3 3s-3-1.346-3-3v-.641c-.632.716-1 1.649-1 2.641-.026 1.851 1.288 3.354 3 3.924v3.498h-2v-2.231c-1.842-1.063-3-3.035-3-5.191 0-2.38 1.413-4.537 3.599-5.494l1.401-.613v4.107c0 .551.449 1 1 1s1-.449 1-1v-4.107l1.401.613c2.187.957 3.599 3.114 3.599 5.494zm-14.25-.328c0 .666.087 1.31.236 1.93-.31-.109-.639-.18-.986-.18h-4c-1.654 0-3 1.346-3 3v3h-2v-3c0-2.757 2.243-5 5-5h4c.26 0 .509.038.759.077-.001.058-.009.115-.009.173z"/></svg>