<?xml version="1.0" encoding="UTF-8"?>
<svg xmlns="http://www.w3.org/2000/svg" id="Layer_1" data-name="Layer 1" viewBox="0 0 24 24">
  <path d="M11.087,22c.437,.751,.985,1.429,1.634,2H0V11c0-1.654,1.346-3,3-3h7.5c1.5,0,1.5-.531,1.5-1,0-.401-.059-.785-.148-1.158,.676-.052,1.352-.12,2.012-.213,.089,.444,.137,.902,.137,1.372v4.079c-.758,.439-1.425,1.01-2,1.663v-2.939c-.413,.124-.906,.197-1.5,.197H3c-.551,0-1,.449-1,1v11H11.087ZM6,2.127v1.873c2.159,0,5.683,.024,8.5-.5,1.539-.287,3.161-.408,4.562-.46,.248,1.119,1.245,1.96,2.438,1.96,1.378,0,2.5-1.122,2.5-2.5s-1.122-2.5-2.5-2.5c-1.784,0-4.306,.47-6.977,.967-.979,.182-2.099,.366-3.223,.527-1.188-.932-2.677-1.494-4.3-1.494C3.481,0,.568,2.613,.08,6H2.101c.397-1.956,1.944-3.473,3.899-3.873Zm18,15.873c0,3.309-2.691,6-6,6s-6-2.691-6-6,2.691-6,6-6,6,2.691,6,6Zm-3.981,3.433l-5.453-5.452c-.351,.595-.567,1.279-.567,2.019,0,2.206,1.794,4,4,4,.74,0,1.424-.216,2.019-.567Zm1.981-3.433c0-2.206-1.794-4-4-4-.74,0-1.424,.216-2.019,.567l5.453,5.452c.351-.595,.567-1.279,.567-2.019Z"/>
</svg>
