<svg id="Layer_1" viewBox="0 0 24 24" xmlns="http://www.w3.org/2000/svg" data-name="Layer 1"><path d="m24 12c0 6.617-5.383 12-12 12-.652 0-1.287-.066-1.91-.167l.787-1.9c.369.042.743.067 1.123.067 5.514 0 10-4.486 10-10s-4.486-10-10-10-10 4.486-10 10c0 .367.023.729.062 1.086l-1.902.777c-.096-.609-.16-1.228-.16-1.863 0-6.617 5.383-12 12-12s12 5.383 12 12zm-12.128 2.303-4.023 9.714c-1.808-.68-3.521-1.632-4.873-3.028-1.389-1.36-2.334-3.078-3.004-4.888l9.733-3.976c.624-.258 1.333-.11 1.808.367s.616 1.188.359 1.811zm-2.156-.022-7.091 2.897c.466.882 1.059 1.686 1.769 2.4s1.512 1.31 2.391 1.78l2.931-7.078zm-2.716-4.78c0-.828-.672-1.5-1.5-1.5s-1.5.672-1.5 1.5.672 1.5 1.5 1.5 1.5-.672 1.5-1.5zm6.5 1.5c.828 0 1.5-.672 1.5-1.5s-.672-1.5-1.5-1.5-1.5.672-1.5 1.5.672 1.5 1.5 1.5zm-2.5-5.5c0-.828-.672-1.5-1.5-1.5s-1.5.672-1.5 1.5.672 1.5 1.5 1.5 1.5-.672 1.5-1.5zm9 4c0-.828-.672-1.5-1.5-1.5s-1.5.672-1.5 1.5.672 1.5 1.5 1.5 1.5-.672 1.5-1.5zm-4 5c0 .828.672 1.5 1.5 1.5s1.5-.672 1.5-1.5-.672-1.5-1.5-1.5-1.5.672-1.5 1.5zm-2.5 5.5c.828 0 1.5-.672 1.5-1.5s-.672-1.5-1.5-1.5-1.5.672-1.5 1.5.672 1.5 1.5 1.5z"/></svg>