<svg id="Layer_1" viewBox="0 0 24 24" xmlns="http://www.w3.org/2000/svg" data-name="Layer 1"><path d="m2 21c0-.551.449-1 1-1h7v-2h-4v-16h12v9h2v-9c0-1.103-.897-2-2-2h-15c-1.654 0-3 1.346-3 3v18c0 1.654 1.346 3 3 3h9v-2h-9c-.551 0-1-.449-1-1zm1-19h1v16h-1c-.352 0-.686.072-1 .184v-15.184c0-.551.449-1 1-1zm21 16.664v.336c0 1.104-.895 2-2 2s-2-.896-2-2v-.336l.842-2.664h-1.842v6h3v2h-8v-2h3v-6h-1.821l.93 2.599v.575h-.013c-.114 1.027-.984 1.826-2.042 1.826-1.135 0-2.054-.92-2.054-2.054v-.333l1.5-4.612h3.5v-1h2v1h3.5l1.5 4.664z"/></svg>