<?xml version="1.0" encoding="UTF-8"?>
<svg xmlns="http://www.w3.org/2000/svg" id="Layer_1" data-name="Layer 1" viewBox="0 0 24 24">
  <path d="M19.945,2.625L12-.01,4.055,2.625c-1.229,.407-2.055,1.549-2.055,2.842v6.524c0,6.563,7.005,10.577,9.153,11.65l.805,.402,.835-.336c2.16-.869,9.207-4.282,9.207-11.717V5.467c0-1.292-.826-2.435-2.055-2.842Zm.055,2.842v5.533h-7V2.429l6.316,2.094c.409,.136,.684,.515,.684,.944Zm-15.316-.943l6.316-2.094V11H4V5.467c0-.429,.274-.808,.684-.943Zm-.611,8.477h6.927v8.287c-2.298-1.319-6.339-4.184-6.927-8.287Zm8.927,8.429V13h6.938c-.528,4.714-4.662,7.334-6.938,8.429Z"/>
</svg>
