<svg id="Layer_1" viewBox="0 0 24 24" xmlns="http://www.w3.org/2000/svg" data-name="Layer 1"><path d="m2 12.648v.971l7-2.301v6.97l-2.552 1.69c-.28.186-.448.497-.448.833v.491l3.374-1.304c.198.644.471 1.255.808 1.824l-6.182 2.35v-3.36c0-1.007.505-1.946 1.344-2.501l1.656-1.096v-3.134l-7 2.3v-3.732c0-1.099.599-2.107 1.563-2.634l5.437-3.372v-3.643c0-1.657 1.343-3 3-3s3 1.343 3 3v3.638l3.91 2.385c-.972.067-1.9.295-2.755.662l-3.155-1.924v-4.761c0-.552-.448-1-1-1s-1 .448-1 1v4.756l-6.431 3.986c-.37.204-.569.54-.569.906zm14.884 5.195-1.438-1.394-1.393 1.436 1.691 1.639c.314.314.729.472 1.143.472.409 0 .816-.154 1.125-.461l2.944-2.858-1.393-1.436-2.681 2.603zm7.116-.344c0 3.584-2.916 6.5-6.5 6.5s-6.5-2.916-6.5-6.5 2.916-6.5 6.5-6.5 6.5 2.916 6.5 6.5zm-2 0c0-2.481-2.019-4.5-4.5-4.5s-4.5 2.019-4.5 4.5 2.019 4.5 4.5 4.5 4.5-2.019 4.5-4.5z"/></svg>