<?xml version="1.0" encoding="UTF-8"?>
<svg xmlns="http://www.w3.org/2000/svg" id="Layer_1" data-name="Layer 1" viewBox="0 0 24 24">
  <path d="M2,22V3c0-.551,.449-1,1-1H11v7h7v6.538c.595-.275,1.264-.461,2-.514V7.586L12.414,0H3C1.346,0,0,1.346,0,3V24H9.283c-.487-.579-.852-1.259-1.066-2H2ZM13,3.414l3.586,3.586h-3.586V3.414Zm7.403,13.586c-1.513,0-2.673,.948-3.403,1.785-.73-.837-1.89-1.785-3.403-1.785-1.983,0-3.597,1.57-3.597,3.5s1.614,3.5,3.597,3.5c1.513,0,2.673-.948,3.403-1.785,.73,.837,1.89,1.785,3.403,1.785,1.983,0,3.597-1.57,3.597-3.5s-1.614-3.5-3.597-3.5Zm-6.806,5c-.881,0-1.597-.673-1.597-1.5s.716-1.5,1.597-1.5c.931,0,1.759,.859,2.221,1.5-.457,.631-1.291,1.5-2.221,1.5Zm6.806,0c-.931,0-1.759-.859-2.221-1.5,.457-.631,1.291-1.5,2.221-1.5,.881,0,1.597,.673,1.597,1.5s-.716,1.5-1.597,1.5Z"/>
</svg>
