<svg id="Layer_1" viewBox="0 0 24 24" xmlns="http://www.w3.org/2000/svg" data-name="Layer 1"><path d="m13 12h2v2h-2v2h-2v-2h-2v-2h2v-2h2zm10.993.138s-1.744 2.487-5.228 2.818c-1.198 4.368-4.994 5.667-6.79 6.451-1.907-.963-5.488-2.606-6.7-6.446-3.512-.315-5.268-2.823-5.268-2.823 0-1.714-.288-4.569 2.853-8.281 0 0 .692-.857 1.713-.857 1.427 0 2.068.487 2.427 1.5l-1 .213v.857l-1.995.571c-.275.825.495 3.359-.506 5.402.165-.186.665-.679 1.501-.922v-1.706c0-1.006.643-1.895 1.599-2.211l5.401-1.792 5.402 1.792c.955.316 1.598 1.205 1.598 2.211v1.706c.836.243 1.336.736 1.501.922-.835-1.912-.231-4.577-.506-5.402l-1.995-.571v-.857l-1-.213c.359-1.013 1-1.5 2.427-1.5 1.021 0 1.713.857 1.713.857 3.141 3.712 2.853 6.568 2.853 8.281zm-6.993-3.223c0-.142-.091-.268-.227-.312l-4.773-1.583-4.772 1.583c-.137.045-.228.171-.228.312v4.24c.072 3.271 3.4 5.203 5.045 6.058 1.747-.743 4.88-2.332 4.955-6.077z"/></svg>