<svg id="Layer_1" viewBox="0 0 24 24" xmlns="http://www.w3.org/2000/svg" data-name="Layer 1"><path d="m20.134 0-2.05 4.314-2.146-1.022c-1.489-.709-3.284-.077-3.996 1.414l-2.647 5.534c-.727 1.433-.054 3.34 1.405 3.998l2.164 1.064-.83 1.746c-.762.103-1.45.44-1.975.953h-6.058c-2.206 0-4 1.794-4 4v2h8.257c-.478-.579-.835-1.258-1.045-2h-5.213c0-1.103.897-2 2-2h5.051c-.024.165-.051.329-.051.5 0 1.93 1.57 3.5 3.5 3.5s3.5-1.57 3.5-3.5c0-1.358-.785-2.524-1.918-3.104l7.315-15.396h2.603v-2.001zm-8.564 12.437c-.491-.221-.715-.853-.472-1.333l2.647-5.535c.236-.496.833-.708 1.332-.471l2.147 1.023-3.504 7.374-2.151-1.058zm.93 9.563c-.827 0-1.5-.673-1.5-1.5s.673-1.5 1.5-1.5 1.5.673 1.5 1.5-.673 1.5-1.5 1.5z"/></svg>