<svg id="Layer_1" viewBox="0 0 24 24" xmlns="http://www.w3.org/2000/svg" data-name="Layer 1"><path d="m13 20h2v4h-6v-3.522c-1.047-.37-2.016-.929-2.857-1.649l-3.05 1.754-2.991-5.203 3.052-1.755c-.102-.544-.153-1.088-.153-1.625s.051-1.082.153-1.625l-3.052-1.755 2.991-5.202 3.05 1.754c.841-.721 1.81-1.28 2.857-1.649v-3.523h6v4h-2v-2h-2v3.037c-1.775.332-3.373 1.253-4.542 2.623l-2.629-1.512-.997 1.734 2.631 1.513c-.243.827-.482 1.766-.463 2.605-.019.838.221 1.779.463 2.605l-2.631 1.513.997 1.734 2.629-1.512c1.169 1.37 2.767 2.291 4.542 2.623v3.037h2zm8-16.277v2.277h-7v2h9v-4.277c.595-.346 1-.984 1-1.723 0-1.105-.895-2-2-2s-2 .895-2 2c0 .738.405 1.376 1 1.723zm2 16.554v-4.277h-9v2h7v2.277c-.595.346-1 .984-1 1.723 0 1.105.895 2 2 2s2-.895 2-2c0-.738-.405-1.376-1-1.723zm-1-10.277c-.738 0-1.376.405-1.723 1h-6.277v2h6.277c.346.595.984 1 1.723 1 1.105 0 2-.895 2-2s-.895-2-2-2zm-10 0v-2c-2.206 0-4 1.794-4 4s1.794 4 4 4v-2c-1.103 0-2-.897-2-2s.897-2 2-2z"/></svg>