<svg id="Layer_1" viewBox="0 0 24 24" xmlns="http://www.w3.org/2000/svg" data-name="Layer 1"><path d="m15.038 12c.481-.004 1.881.559 2.726 1h6.236v-2h-5v-6.5c0-1.378-1.121-2.5-2.5-2.5h-1.5v-.5c0-.828-.672-1.5-1.5-1.5h-3c-.828 0-1.5.672-1.5 1.5v.5h-1.5c-1.379 0-2.5 1.122-2.5 2.5v6.5h-5v2h6.236c.759-.391 2.162-.992 2.764-1 .371 0 .727.138 1.001.388l.546.497-2.069 1.908c-.562.562-.642 1.425-.189 2.055.296.413.777.658 1.283.658.417 0 .814-.163 1.087-.437l1.604-1.494 4.026 3.589-3.634 2.836h-1.312l-5.125-4h-6.218v2h5.531l5.125 4h2.688l5.125-4h5.531v-2h-6.01l-5.105-4.55 1.134-1.046c.276-.26.638-.404 1.019-.404zm-8.038-7.5c0-.276.225-.5.5-.5h9c.275 0 .5.224.5.5v1.5h-10zm5.652 6.409-.652.43-.652-.43c-.763-.533-1.478-.909-2.348-.909-.588 0-1.336.222-2 .473v-2.473h4v1h2v-1h4v2.477c-.641-.24-1.415-.496-2-.477-.871 0-1.582.357-2.348.909z"/></svg>