<svg id="Layer_1" viewBox="0 0 24 24" xmlns="http://www.w3.org/2000/svg" data-name="Layer 1"><path d="m6.505 11c-.828 0-1.499-.671-1.499-1.499s.671-1.499 1.499-1.499 1.499.671 1.499 1.499-.671 1.499-1.499 1.499zm3.016 10.992-6.513.01c-.547 0-.996-.446-.999-.987v-14.318l7.993-4.414 7.993 4.414v1.365c.694.077 1.361.238 1.998.464v-3.008l-9.991-5.518-9.991 5.518v15.502c.01 1.643 1.355 2.98 2.999 2.98l8.345-.007c-.707-.571-1.327-1.244-1.834-2.001zm3.826-13.989h-2.28l-5.864 8.992h2.28zm4.647 5.995h-1.998v2.997h-2.451l2.685 2.685c.416.417 1.092.417 1.508 0l2.685-2.685h-2.429zm5.995 2.997c0 3.856-3.137 6.993-6.993 6.993s-6.993-3.138-6.993-6.993 3.137-6.993 6.993-6.993 6.993 3.138 6.993 6.993zm-1.998 0c0-2.754-2.241-4.995-4.995-4.995s-4.995 2.241-4.995 4.995 2.241 4.995 4.995 4.995 4.995-2.241 4.995-4.995z"/></svg>