<svg id="Layer_1" viewBox="0 0 24 24" xmlns="http://www.w3.org/2000/svg" data-name="Layer 1"><path d="m7.5 22c-3.357 0-5.5-1.333-5.5-2.25v-.981c1.349.765 3.28 1.231 5.5 1.231.347 0 .672-.031 1.004-.053-.218-.63-.375-1.288-.449-1.972-.186.008-.361.025-.555.025-3.307 0-5.5-1.204-5.5-2v-1.231c1.349.765 3.28 1.231 5.5 1.231.195 0 .373-.023.563-.03.08-.701.245-1.374.477-2.017-.334.027-.678.047-1.04.047-3.307 0-5.5-1.204-5.5-2v-1.231c1.349.765 3.28 1.231 5.5 1.231.758 0 1.465-.072 2.143-.174 1.26-1.789 3.154-3.095 5.357-3.595v-4.231c0-2.28-3.224-4-7.5-4s-7.5 1.72-7.5 4v15.75c0 2.423 3.225 4.25 7.5 4.25 1.227 0 2.363-.155 3.366-.427-.553-.517-1.041-1.1-1.451-1.741-.585.1-1.217.168-1.916.168zm0-12c-3.307 0-5.5-1.204-5.5-2v-1.231c1.349.765 3.28 1.231 5.5 1.231s4.151-.466 5.5-1.231v1.231c0 .796-2.193 2-5.5 2zm0-8c3.306 0 5.5 1.204 5.5 2s-2.194 2-5.5 2-5.5-1.204-5.5-2 2.194-2 5.5-2zm9.5 8c-3.866 0-7 3.134-7 7s3.134 7 7 7 7-3.134 7-7-3.134-7-7-7zm-1.479 5.74 3.286.548c1.271.211 2.193 1.3 2.193 2.588 0 1.447-1.177 2.624-2.624 2.624h-.376v1h-2v-1c-1.654 0-3-1.346-3-3h2c0 .551.449 1 1 1h2.376c.344 0 .624-.28.624-.624 0-.307-.22-.565-.521-.616l-3.286-.548c-1.27-.211-2.192-1.3-2.192-2.588 0-1.447 1.177-2.624 2.624-2.624h.376v-1h2v1c1.654 0 3 1.346 3 3h-2c0-.551-.448-1-1-1h-2.376c-.344 0-.624.28-.624.624 0 .307.219.565.521.616z"/></svg>