<?xml version="1.0" encoding="UTF-8"?>
<svg xmlns="http://www.w3.org/2000/svg" id="Layer_1" data-name="Layer 1" viewBox="0 0 24 24">
  <path d="m18.139,13.388l5.882-5.327-4.683-6.61-10.652,5.844C7.614,3.519,4.243,1,0,1v2c3.524,0,6.19,2.094,6.872,5.289l-4.226,2.325C1.28,11.582.372,13.024.09,14.675c-.281,1.651.096,3.312,1.063,4.679,1.221,1.724,3.158,2.644,5.125,2.644,1.252,0,2.517-.373,3.614-1.15l.151-.136c1,1.384,2.623,2.289,4.456,2.289,3.032,0,5.5-2.468,5.5-5.5,0-1.636-.723-3.104-1.861-4.112Zm3.224-5.618l-5.026,4.553c-.576-.205-1.192-.322-1.837-.322-2.503,0-4.617,1.683-5.28,3.975l-3.403-4.826,12.921-7.088,2.626,3.708ZM2.786,18.197c-.659-.93-.916-2.062-.725-3.186.189-1.106.791-2.075,1.697-2.733l.293-.161,4.876,6.914-.238.215c-1.92,1.32-4.557.856-5.904-1.05Zm11.714,2.803c-1.93,0-3.5-1.57-3.5-3.5s1.57-3.5,3.5-3.5,3.5,1.57,3.5,3.5-1.57,3.5-3.5,3.5Zm1.5-3.5c0,.828-.672,1.5-1.5,1.5s-1.5-.672-1.5-1.5.672-1.5,1.5-1.5,1.5.672,1.5,1.5Z"/>
</svg>
