<?xml version="1.0" encoding="UTF-8"?>
<svg xmlns="http://www.w3.org/2000/svg" id="Layer_1" data-name="Layer 1" viewBox="0 0 24 24">
  <path d="M8.697,5.217l-1.395-1.434L10.596,.576c.77-.769,2.039-.771,2.818,.01l3.283,3.197-1.395,1.434-2.303-2.243v5.026h-2V2.987l-2.303,2.229Zm7.006,6.69l2.186,1.093h6.111v-2h-5.639l-1.764-.882c-1.278-.64-2.951-.363-3.874,.515l-.84,.778-.551-.501c-1.031-.939-2.597-1.211-3.963-.524l-1.125,.615H0v2H6.755l1.542-.843c.506-.254,1.227-.19,1.69,.23l.53,.483-1.592,1.702c-.501,.501-.571,1.274-.165,1.838,.244,.34,.734,.557,1.148,.59,.375,0,.735-.149,1.011-.426l1.141-1.181,4.23,3.77-3.635,2.837h-1.312l-5.125-4H0v2H5.531l5.125,4h2.688l5.125-4h5.531v-2h-6.01l-5.206-4.64,1.233-1.205c.447-.419,1.141-.52,1.686-.248Z"/>
</svg>
