<svg id="Layer_1" viewBox="0 0 24 24" xmlns="http://www.w3.org/2000/svg" data-name="Layer 1"><path d="m18 19.987v-.987c0-1.654-1.346-3-3-3h-6c-1.654 0-3 1.346-3 3v.981c-2.423-1.827-4-4.72-4-7.981 0-5.514 4.486-10 10-10h1.213c.188-.66.496-1.268.899-1.802-.687-.123-1.391-.198-2.112-.198-6.617 0-12 5.383-12 12s5.383 12 12 12c5.476 0 10.097-3.691 11.531-8.712-.699.414-1.501.666-2.364.695-.695 1.594-1.796 2.969-3.167 4.004zm-10 1.172v-2.159c0-.552.449-1 1-1h6c.551 0 1 .448 1 1v2.157c-1.226.538-2.577.843-4 .843s-2.774-.303-4-.841zm14-17.159v-.5c0-1.93-1.57-3.5-3.5-3.5s-3.5 1.57-3.5 3.5v.5h-2v7c0 1.654 1.346 3 3 3h5c1.654 0 3-1.346 3-3v-7zm-5-.5c0-.827.673-1.5 1.5-1.5s1.5.673 1.5 1.5v.5h-3zm5 7.5c0 .552-.449 1-1 1h-5c-.551 0-1-.448-1-1v-5h7zm-2.5-1h-2v-2h2zm-9.5 0c0 .768.44 1.429 1.077 1.764.129.832.46 1.59.946 2.234-.008 0-.016.002-.024.002-2.206 0-4-1.794-4-4 0-1.859 1.28-3.411 3-3.858v2.136c-.595.347-1 .985-1 1.722z"/></svg>