<svg id="Layer_1" viewBox="0 0 24 24" xmlns="http://www.w3.org/2000/svg" data-name="Layer 1"><path d="m6 19h3v2h-3zm18 0h-2v1c0 1.654-1.346 3-3 3s-3-1.346-3-3v-1h-1v2c0 1.654-1.346 3-3 3h-9c-1.654 0-3-1.346-3-3v-21h15v2h2.7c1.184 0 2.26.699 2.741 1.781l3.128 7.037c.285.642.431 1.325.431 2.03v6.151zm-9-15v6h6.017l-2.403-5.406c-.16-.36-.52-.594-.914-.594zm-13-2v14h11v-14zm11 19v-3h-11v3c0 .552.449 1 1 1h9c.551 0 1-.448 1-1zm7-2h-2v1c0 .552.448 1 1 1s1-.448 1-1zm2-6.151c0-.292-.056-.573-.138-.849h-6.862v5h7zm-16.053-3.344 2.791.559c.268.054.462.291.462.563 0 .316-.258.574-.574.574h-2.126c-.316 0-.585-.211-.671-.5h-1.62c.102 1.175 1.09 2.1 2.291 2.1h.2v1.2h1.6v-1.2h.326c1.199 0 2.174-.975 2.174-2.173 0-1.033-.734-1.929-1.747-2.131l-2.792-.559c-.267-.054-.461-.291-.461-.562 0-.316.257-.574.573-.574h2.127c.316 0 .585.211.671.5h1.62c-.102-1.175-1.09-2.1-2.291-2.1h-.2v-1.2h-1.6v1.2h-.327c-1.198 0-2.173.975-2.173 2.173 0 1.033.734 1.929 1.747 2.131z"/></svg>