<?xml version="1.0" encoding="UTF-8"?>
<svg xmlns="http://www.w3.org/2000/svg" id="Layer_1" data-name="Layer 1" viewBox="0 0 24 24">
  <path d="M22.014,11.717l1.975,1.975v-2.828l-1.542-1.542-5.825,2.616-3.415-3c-1.073-1.072-2.765-1.243-3.938-.398-.723,.521-1.178,1.323-1.249,2.202-.071,.879,.246,1.74,.893,2.387l5.205,4.865h-.123c-1.651,.004-2.995,1.352-2.995,3.003s1.346,3.001,3,3.003h0s9,0,9,0l-2-2h-6.997c-.553,0-1.003-.45-1.003-1.003s.448-1.002,.995-1.003l5.203,.012L10.303,11.691c-.436-.42-.372-1.186,.135-1.528,.38-.274,.976-.189,1.402,.233l4.423,3.889,5.751-2.568Zm-17.89-.804c.571-.99,1.715-2.858,2.797-3.94,2.554-2.554,5.542-3.645,8.996-4.89-.629,1.743-1.22,3.368-1.978,4.878,.22,.154,.433,.321,.63,.512l.918,.807c.948-1.781,1.642-3.662,2.343-5.607,.315-.724,.185-1.561-.382-2.121-.559-.567-1.396-.697-2.121-.382-3.326,1.199-6.474,2.353-9.231,4.851-2.537,.095-4.623,1.288-6.096,3.39v3.589H2.365l1.139,1.082-1.461,1.461,1.414,1.414,1.505-1.505,1.038,.995v2.553h3.589s.694-.572,.944-.803l-6.409-6.284Z"/>
</svg>
