<svg id="Layer_1" viewBox="0 0 24 24" xmlns="http://www.w3.org/2000/svg" data-name="Layer 1"><path d="m16.97 9.243.097-2.243h-4.496l.387-1.205c.042-.25.021-.387.005-.447-.14-.515-.56-.848-1.069-.848-.433.004-.766.19-.987.635l-1.479 1.865h-.727c-.938 0-1.7.763-1.7 1.7v3.6c0 .938.763 1.7 1.7 1.7h7.081l1.189-4.757zm-2.751 2.757h-3.219v-3h3.969zm9.327 8.031c-.351.437-.849.711-1.404.771l-1.199.133-.132 1.192c-.084 1.032-1.044 1.891-2.083 1.874-.549 0-1.09-.218-1.485-.623l-3.724-3.723c-.477.231-1 .346-1.523.346-.519 0-1.037-.114-1.512-.342l-3.727 3.726c-.388.398-.924.614-1.473.614-1.04.021-2.005-.839-2.089-1.884l-.131-1.182-1.2-.133c-1.118-.099-1.998-1.195-1.851-2.31.051-.469.263-.913.598-1.248 0 0 3.348-3.362 3.347-3.357.058-.283-.051-.715-.316-.885-.499-.322-.903-.759-1.201-1.297-.285-.514-.435-1.104-.432-1.71-.003-.595.146-1.186.431-1.7.3-.54.705-.977 1.204-1.298.267-.173.403-.48.339-.765-.135-.59-.115-1.198.06-1.805.329-1.147 1.246-2.064 2.395-2.394.604-.176 1.213-.195 1.806-.059.28.059.59-.073.762-.341.324-.5.76-.904 1.298-1.202 1.045-.578 2.342-.578 3.387 0 .538.298.974.702 1.297 1.201.173.269.479.408.765.341.591-.134 1.197-.115 1.805.06 1.147.329 2.064 1.246 2.394 2.395.175.605.194 1.214.059 1.806-.063.282.073.59.342.763.499.322.902.759 1.201 1.297.284.516.434 1.106.431 1.711.003.596-.146 1.187-.432 1.7-.298.537-.701.974-1.199 1.296-.267.173-.38.584-.321.868 0 0 3.367 3.376 3.367 3.376.334.336.545.778.598 1.248.061.557-.099 1.103-.448 1.538zm-14.57-1.707c-.177-.241-.469-.36-.736-.299-.591.134-1.197.115-1.805-.06-.882-.252-1.629-.854-2.076-1.641l-2.335 2.335c-.097.101.035.125.035.125l2.814.341.314 2.784c.006.065.05.089.103.048l3.685-3.633zm7.216-2.25c.264.061.534.05.811-.03.484-.139.886-.54 1.024-1.023.08-.277.09-.551.031-.81-.25-1.103.235-2.262 1.207-2.889.426-.275.727-.782.717-1.316.011-.545-.286-1.046-.717-1.327-.972-.626-1.457-1.786-1.208-2.887.06-.261.05-.533-.03-.811-.139-.483-.541-.886-1.023-1.024-.279-.08-.551-.089-.81-.031-1.101.251-2.263-.235-2.889-1.206-.141-.219-.338-.399-.585-.536-.441-.244-1.008-.244-1.449 0-.247.137-.444.317-.586.537-.624.969-1.784 1.453-2.886 1.206-.262-.06-.534-.049-.811.03-.483.139-.886.541-1.024 1.023-.08.278-.09.551-.031.81.25 1.103-.235 2.262-1.205 2.889-.43.276-.728.782-.719 1.317-.01.547.286 1.045.719 1.327.97.626 1.454 1.786 1.206 2.886-.06.261-.05.534.03.812.139.483.54.885 1.022 1.022.483.17.917-.037 1.391-.033.911 0 1.791.471 2.308 1.271.142.22.339.4.586.537.441.246 1.009.245 1.448 0 .248-.138.445-.318.587-.538.627-.971 1.791-1.449 2.886-1.206zm5.785 2.611-2.343-2.365c-.448.79-1.196 1.393-2.081 1.646-.604.174-1.212.194-1.805.058-.266-.055-.556.06-.733.3l3.649 3.649c.075.064.144.032.158-.065l.31-2.782 2.791-.311c.058-.009.107-.067.054-.129z"/></svg>