<svg id="Layer_1" viewBox="0 0 24 24" xmlns="http://www.w3.org/2000/svg" data-name="Layer 1"><path d="m13.738 13.448c-.764-.365-1.389-.792-1.898-1.295-.52-.514-.946-1.133-1.295-1.883l1.702-1.702-4.48-4.482-2.106 2.105c-.748.75-1.16 1.759-1.16 2.843 0 2.176 1.3 4.787 3.477 6.983 2.192 2.213 4.739 3.482 6.988 3.482 1.087 0 2.097-.413 2.844-1.162l2.105-2.105-4.48-4.481-1.695 1.695zm2.655 3.478c-.37.371-.877.575-1.429.575-1.693 0-3.775-1.08-5.568-2.89-1.786-1.804-2.896-3.94-2.896-5.576 0-.55.204-1.058.575-1.43l.691-.691 1.652 1.653-1.221 1.221c.496 1.44 1.237 2.836 2.236 3.788.927.954 2.346 1.714 3.769 2.236l1.23-1.231 1.652 1.653-.692.692zm4.607-16.926h-18c-1.654 0-3 1.346-3 3v21h24v-21c0-1.654-1.346-3-3-3zm1 22h-20v-19c0-.551.448-1 1-1h18c.552 0 1 .449 1 1z"/></svg>