<svg id="Layer_1" viewBox="0 0 24 24" xmlns="http://www.w3.org/2000/svg" data-name="Layer 1"><path d="m23.801 12.002-.122-.687c-2.885-.642-6.081-.287-8.844.896.189 1.082.507 2.109.571 4.342-.008.765-.118 1.424-.311 1.936l-2.096 2.103v-8.065c.261-.59.719-1.236 1.352-1.883 1.799-1.706 2.959-2.343 3.889-2.996-1.248-3.092-3.491-5.879-6.24-7.645-2.75 1.766-4.991 4.553-6.24 7.646.924.649 2.095 1.294 3.889 2.995.632.647 1.091 1.293 1.352 1.884v8.064l-2.078-2.043c-.207-.517-.324-1.201-.332-1.995.066-2.237.382-3.255.572-4.342-2.764-1.184-5.962-1.537-8.844-.896-.642 2.882-.29 6.084.895 8.85 1.084-.199 2.1-.477 4.339-.573.735.008 1.372.111 1.875.291l3.573 3.539v.581h2v-.581l3.51-3.518c.512-.193 1.17-.304 1.935-.312 2.257.067 3.246.381 4.339.572 1.074-2.531 1.506-5.509 1.018-8.162zm-17.14 5.661c-.399-.051-.773-.069-1.088-.072-.984-.002-2.238.156-3.055.29-.113-.376-.206-.76-.282-1.149l1.802-.693s-.847-.627-2.013-1.142c-.029-.619-.027-1.236.038-1.834.598-.066 1.215-.068 1.833-.038.515 1.166 1.142 2.014 1.142 2.014l.693-1.803c.388.077.772.17 1.148.282-.132.817-.301 2.059-.29 3.057.003.316.022.69.072 1.089zm6.261-8.419c-.282.288-.609.654-.922 1.072-.313-.418-.64-.784-.922-1.072-.825-.843-2.023-1.746-2.783-2.291.237-.449.502-.886.788-1.31l1.918.853s-.168-1.127-.661-2.438c.52-.578 1.07-1.123 1.661-1.589.592.467 1.143 1.013 1.663 1.592-.492 1.31-.66 2.435-.66 2.435l1.915-.852c.286.424.551.861.788 1.309-.761.544-1.959 1.447-2.784 2.291zm9.049 5.653c-1.165.515-2.012 1.142-2.012 1.142l1.802.693c-.076.388-.169.773-.282 1.149-.818-.134-2.053-.299-3.055-.29-.314.003-.689.021-1.087.072.05-.4.068-.773.071-1.089.011-.998-.157-2.24-.29-3.057.376-.113.76-.206 1.148-.282l.693 1.803s.627-.848 1.142-2.014c.619-.03 1.235-.028 1.833.038.065.599.067 1.215.038 1.835z"/></svg>