<?xml version="1.0" encoding="UTF-8"?>
<svg xmlns="http://www.w3.org/2000/svg" id="Layer_1" data-name="Layer 1" viewBox="0 0 24 24">
  <path d="M8.325,14.687c.186,.119,.387,.173,.583,.173,.566,0,1.089-.45,1.089-1.088l.002-7.772c0-1.1-.899-2-1.999-2.001l-6-.002h0C.895,3.998,0,4.893,0,5.998v7H5.871l2.454,1.69ZM1.997,5.998h.003s5.999,.002,5.999,.002l-.002,6.033-1.504-1.036H1.999V5.998ZM22,0h0l-6,.002c-1.1,0-2,.901-1.999,2.001l.002,7.772c0,.638,.524,1.088,1.089,1.088,.196,0,.397-.054,.583-.173l2.454-1.69h5.872V2c0-1.105-.896-2-2-2Zm0,7h-4.494l-1.504,1.036-.002-6.034,6-.002V7Zm-8,14h-4v-2h4v2Zm4-9.484v4.484H6v-.485l-.751-.517h-1.249v6.002c0,1.654,1.346,3,3,3h10c1.654,0,3-1.346,3-3V11h-1.25l-.75,.517Zm0,9.484c0,.552-.449,1-1,1H7c-.551,0-1-.448-1-1v-3h12v3ZM4,2V0H12.558c-.345,.591-.557,1.268-.557,2H4Z"/>
</svg>
