<svg id="Layer_1" viewBox="0 0 24 24" xmlns="http://www.w3.org/2000/svg" data-name="Layer 1"><path d="m0 7c0-1.308.842-2.424 2.012-2.833.171-2.327 2.118-4.167 4.488-4.167 1.913 0 3.599 1.245 4.222 3.007 1.827.115 3.278 1.638 3.278 3.493 0 1.461-.902 2.713-2.177 3.236-.042-.116-.069-.236-.128-.347-.348-.655-.924-1.21-1.623-1.389h.428c.827 0 1.5-.673 1.5-1.5s-.673-1.5-1.5-1.5h-1.424l-.124-.857c-.18-1.242-1.211-2.143-2.452-2.143-1.378 0-2.5 1.122-2.5 2.5v1.5h-1c-.551 0-1 .449-1 1 0 .533.422.96.947.989l-.618 1.929c-1.331-.306-2.329-1.495-2.329-2.918zm19.776-2.61c-2.089-2.772-5.222-4.335-8.611-4.379.353.369.671.776.932 1.225.902.275 1.698.782 2.337 1.44 1.464.605 2.763 1.603 3.766 2.942 1.033 1.277 2.166 3.851 3.239 6.312.156.358.312.715.468 1.07h-1.99l-.678 5.131c-.066.496-.492.869-.992.869h-4.247v3h-9v-2.709c0-.928-.327-1.83-.92-2.542-1.16-1.394-1.855-3.071-2.032-4.845-.759-.147-1.448-.476-2.043-.926-.005 2.58.876 5.053 2.539 7.051.295.354.457.802.457 1.262v4.709h13v-3h2.247c1.499 0 2.777-1.12 2.974-2.606l.449-3.394h2.33v-2.212c-1.229-2.778-2.826-6.688-4.224-8.398zm-13.142 10.585 3.264-4.029c.268-.4-.018-.937-.499-.938l-2.036-.008.925-3h-2.923l-1.336 4.17c-.121.394.173.828.585.83h2.05l-.655 2.973.626.002z"/></svg>