<svg id="Layer_1" viewBox="0 0 24 24" xmlns="http://www.w3.org/2000/svg" data-name="Layer 1"><path d="m23.021 6c-.083-.001-.383-.005-.779 0l1.74-1.74-4.242-4.242-1.748 1.748c.016-.805.003-1.11 0-1.766h-5.992c.095 2.546-.383 6.6-.572 7.513-1.003.966-2.503 2.2-4.085 3.501-2.012 1.654-4.092 3.365-5.632 4.905-1.728 1.729-1.72 3.041-1.71 4.561l.002.803 2.708 2.707c.338 0 1.087.007 1.418.01 1.238 0 2.386-.158 3.945-1.717 2.606-2.614 4.563-4.916 6.047-6.665.896-1.057 1.681-1.981 2.4-2.722.817-.276 4.925-1.048 7.478-.896v-5.979zm-16.347 14.853c-1.146 1.161-1.844 1.168-3.131 1.141l-1.542-1.542c-.01-1.402-.01-1.986 1.124-3.12 1.471-1.471 3.514-3.15 5.488-4.775.715-.588 1.414-1.163 2.063-1.71-.883 3.471-2.457 8.275-4.003 10.004zm7.52-8.381c-.501.563-1.026 1.178-1.597 1.852-.394.464-.815.96-1.267 1.484 1.027-3.088 1.722-6.223 1.949-7.312.115-.61.572-2.935.706-6.495h1.999c-.063 2.12-.365 7.16-1.79 10.472zm3.641-7.72 1.905-1.905 1.414 1.414-3.706 3.706c.181-1.131.305-2.232.387-3.214zm4.165 5.273c-1.635.077-3.188.327-4.341.559l2.436-2.436c.574-.088 1.299-.127 1.905-.143z"/></svg>