<svg id="Layer_1" viewBox="0 0 24 24" xmlns="http://www.w3.org/2000/svg" data-name="Layer 1"><path d="m8 17.74v5.26h-4.277c-.346.595-.984 1-1.723 1-1.105 0-2-.895-2-2s.895-2 2-2c.738 0 1.376.405 1.723 1h2.277v-5.408c.51.849 1.19 1.583 2 2.148zm10-9.332v-5.408h2.277c.346.595.984 1 1.723 1 1.105 0 2-.895 2-2s-.895-2-2-2c-.738 0-1.376.405-1.723 1h-4.277v5.26c.81.565 1.49 1.299 2 2.148zm-2.167 6.954-.982-.565c-.5.51-1.14.876-1.852 1.061v1.142h-2v-1.142c-.712-.185-1.351-.551-1.852-1.061l-.982.565-.998-1.733.992-.571c-.094-.339-.16-.689-.16-1.058s.066-.719.16-1.058l-.992-.571.998-1.733.982.565c.5-.51 1.14-.876 1.852-1.061v-1.142h2v1.142c.712.185 1.351.551 1.852 1.061l.982-.565.998 1.733-.992.571c.094.339.16.689.16 1.058s-.066.719-.16 1.058l.992.571zm-1.833-3.362c0-1.103-.897-2-2-2s-2 .897-2 2 .897 2 2 2 2-.897 2-2zm8 8c-.738 0-1.376.405-1.723 1h-2.277v-5.408c-.51.849-1.19 1.583-2 2.148v5.26h4.277c.346.595.984 1 1.723 1 1.105 0 2-.895 2-2s-.895-2-2-2zm-9 .277v-1.277h-2v1.277c-.595.346-1 .984-1 1.723 0 1.105.895 2 2 2s2-.895 2-2c0-.738-.405-1.376-1-1.723zm-11-16.277c.738 0 1.376-.405 1.723-1h2.277v5.408c.51-.849 1.19-1.583 2-2.148v-5.26h-4.277c-.346-.595-.984-1-1.723-1-1.105 0-2 .895-2 2s.895 2 2 2zm9-.277v1.277h2v-1.277c.595-.346 1-.984 1-1.723 0-1.105-.895-2-2-2s-2 .895-2 2c0 .738.405 1.376 1 1.723z"/></svg>