<?xml version="1.0" encoding="UTF-8"?>
<svg xmlns="http://www.w3.org/2000/svg" id="Layer_1" data-name="Layer 1" viewBox="0 0 24 24">
  <path d="m23.017,8.785c-.595-.542-1.361-.828-2.168-.782-.804.037-1.544.386-2.086.981l-3.216,3.534c-.551-.91-1.55-1.519-2.689-1.519H3c-1.654,0-3,1.346-3,3v7c0,1.654,1.346,3,3,3h10.448l9.788-10.985c1.093-1.226.995-3.123-.219-4.229Zm-1.274,2.899l-9.191,10.316H3c-.551,0-1-.449-1-1v-7c0-.551.449-1,1-1h9.858c.63,0,1.142.512,1.142,1.142,0,.564-.422,1.051-.981,1.131l-5.161.737.283,1.979,5.161-.737c1.175-.168,2.129-.988,2.514-2.059l4.426-4.864c.182-.2.43-.316.7-.329.269-.004.529.081.728.262.408.372.44,1.009.073,1.421ZM4,7c0-1.105.895-2,2-2s2,.895,2,2-.895,2-2,2-2-.895-2-2Zm8-2c1.105,0,2,.895,2,2s-.895,2-2,2-2-.895-2-2,.895-2,2-2Zm-5-3c0-1.105.895-2,2-2s2,.895,2,2-.895,2-2,2-2-.895-2-2Z"/>
</svg>
