<svg id="Layer_1" viewBox="0 0 24 24" xmlns="http://www.w3.org/2000/svg" data-name="Layer 1"><path d="m10 15h2v.93l1.913-1.913c-.202-.59-.755-1.016-1.413-1.016h-2.5v-2.5c0-.828-.672-1.5-1.5-1.5h-3c-.828 0-1.5.672-1.5 1.5v8.5h5v-.07l1.93-1.93h-.93v-2zm-2 2h-2v-2h2zm0-4h-2v-2h2zm-6-10c0-.552.448-1 1-1h8v7h7v1.028c.607-.458 1.286-.776 2-.921v-1.522l-7.586-7.585h-9.414c-1.654 0-3 1.346-3 3v21h9v-2h-7zm11 .414 3.586 3.586h-3.586zm10.121 8.465c-1.17-1.17-3.072-1.17-4.242 0l-7.879 7.879v4.242h4.242l7.879-7.879c1.17-1.17 1.17-3.072 0-4.242zm-1.414 2.828-7.293 7.293h-1.414v-1.414l7.293-7.293c.391-.391 1.023-.391 1.414 0s.39 1.024 0 1.414z"/></svg>