<svg id="Layer_1" viewBox="0 0 24 24" xmlns="http://www.w3.org/2000/svg" data-name="Layer 1"><path d="m14 13.048c0 1.683-1.364 3.048-3.048 3.048s-3.048-1.364-3.048-3.048 1.364-3.048 3.048-3.048 3.048 1.364 3.048 3.048zm3.5 1.952c-1.381 0-2.5 1.119-2.5 2.5s1.119 2.5 2.5 2.5 2.5-1.119 2.5-2.5-1.119-2.5-2.5-2.5zm-8.5-8.5c0-1.381-1.119-2.5-2.5-2.5s-2.5 1.119-2.5 2.5 1.119 2.5 2.5 2.5 2.5-1.119 2.5-2.5zm15 11v4.534c-.877.401-3.142 1.823-6.5 1.966-1.736 0-3.368-.677-4.596-1.904-.604-.604-1.071-1.313-1.394-2.114-4.034.301-7.51-2.953-7.51-6.981 0-.17.006-.341.019-.512-.799-.324-1.52-.797-2.115-1.393-1.228-1.227-1.904-2.859-1.904-4.596.145-3.366 1.562-5.616 1.966-6.5h4.534c1.736 0 3.368.677 4.596 1.904 1.17 1.169 1.831 2.731 1.877 4.385 2.287.667 4.07 2.451 4.737 4.737 1.653.046 3.215.707 4.386 1.878 1.228 1.228 1.904 2.859 1.904 4.596zm-2 0c0-1.202-.468-2.332-1.318-3.182-.952-.951-2.288-1.411-3.658-1.269l-.945.101-.148-.938c-.339-2.139-2.003-3.804-4.143-4.144l-.938-.148.1-.944c.146-1.374-.316-2.706-1.268-3.657-.85-.851-1.98-1.318-3.182-1.318h-3.299c-.418.922-1.201 2.866-1.201 4.5-.017 2.016 1.387 3.855 3.371 4.334l.917.236c-.111.571-.305 1.351-.288 1.93 0 2.757 2.243 5 5 5 .577.017 1.36-.177 1.929-.288l.237.917c.209.807.597 1.498 1.152 2.053.85.851 1.98 1.318 3.182 1.318 1.634 0 3.578-.782 4.5-1.201v-3.299z"/></svg>