<svg id="Layer_1" viewBox="0 0 24 24" xmlns="http://www.w3.org/2000/svg" data-name="Layer 1"><path d="m0 21c0 1.654 1.346 3 3 3h20.214l-23.214-23.214zm2-15.386 16.386 16.386h-15.386c-.551 0-1-.448-1-1zm6.019.354c-1.35-1.295-1.349-3.646.007-4.943 1.119-1.121 2.825-1.322 4.162-.581.561-.292 1.177-.444 1.812-.444 1.896 0 3.489 1.327 3.898 3.102 1.774.409 3.102 2.001 3.102 3.898 0 1.741-1.125 3.21-2.681 3.759l-1.725-1.759h.405c1.103 0 2-.897 2-2s-.897-2-2-2h-1v-1c0-1.103-.897-2-2-2-.905.013-1.294.521-1.881.949l-.624-.559c-.594-.533-1.497-.51-2.055.049-.583.558-.583 1.563 0 2.121l9.774 9.967c.605.605 1.688.611 2.307-.007.31-.31.479-.72.479-1.157s-.17-.847-.479-1.156l1.414-1.415c1.411 1.354 1.411 3.789 0 5.142-1.353 1.411-3.789 1.412-5.142 0z"/></svg>