<svg id="Layer_1" viewBox="0 0 24 24" xmlns="http://www.w3.org/2000/svg" data-name="Layer 1"><path d="m21 10h-1.927l-5.696-3.35c.96-.501 1.623-1.494 1.623-2.65 0-1.105-.605-2.118-1.581-2.644-.254-.137-.419-.457-.419-.816v-.54h-2v.54c0 1.103.564 2.091 1.472 2.577.326.176.528.514.528.883 0 .552-.448 1-1 1s-1-.448-1-1h-2c0 1.155.664 2.149 1.623 2.65l-5.696 3.35h-1.927c-1.654 0-3 1.346-3 3v11h24v-11c0-1.654-1.346-3-3-3zm-9-1.84 3.128 1.84h-6.255l3.128-1.84zm-6 13.84v-6h2v6zm16 0h-12v-8h-6v8h-2v-9c0-.552.448-1 1-1h18c.552 0 1 .448 1 1zm-10-2h8v-6h-8zm2-4h4v2h-4z"/></svg>