<?xml version="1.0" encoding="UTF-8"?>
<svg xmlns="http://www.w3.org/2000/svg" id="Layer_1" data-name="Layer 1" viewBox="0 0 24 24">
  <path d="M21.5,0H13.5c-1.379,0-2.5,1.122-2.5,2.5V12h13V2.5c0-1.378-1.121-2.5-2.5-2.5ZM13.5,2h8c.275,0,.5,.224,.5,.5v1.5H13v-1.5c0-.276,.225-.5,.5-.5Zm-.5,8V6h9v4H13Zm-2,6H2v-1.5c0-.275,.225-.5,.5-.5h6.5v-2H2.5c-1.379,0-2.5,1.121-2.5,2.5v9.5H13V14h-2v2ZM2,22v-4H11v4H2Zm19.405-6.42l2.507,2.508-1.414,1.414-1.498-1.499v2.997c0,1.654-1.346,3-3,3h-3v-2h3c.552,0,1-.448,1-1v-3.006l-1.498,1.508-1.414-1.414,2.506-2.507c.776-.774,2.037-.773,2.812,0ZM2.595,8.42L.088,5.913l1.414-1.414,1.498,1.498V3c0-1.654,1.346-3,3-3h3.762c-.391,.583-.629,1.268-.711,2h-3.051c-.552,0-1,.449-1,1v3.006l1.498-1.508,1.414,1.414-2.506,2.506c-.388,.387-.897,.581-1.406,.581s-1.018-.193-1.405-.58Z"/>
</svg>
