<?xml version="1.0" encoding="UTF-8"?>
<svg xmlns="http://www.w3.org/2000/svg" id="Layer_1" data-name="Layer 1" viewBox="0 0 24 24">
  <path d="M14.5,2.5c0-1.381,1.119-2.5,2.5-2.5s2.5,1.119,2.5,2.5-1.119,2.5-2.5,2.5-2.5-1.119-2.5-2.5Zm-7.354,3.5H1v2H6.146l1-2Zm3.854-4H2v2H11V2Zm13,9v2h-4.565l-1.65-2.741-2.316,5.548,2.597,1.642v6.551h-2v-5.449l-4.117-2.604c-1.232-.779-1.726-2.324-1.172-3.674l1.753-4.273h-1.911l-1.724,3.447-1.789-.895,2.276-4.553h6.478c1.045,0,2.03,.557,2.57,1.453l2.136,3.547h3.435Zm-7.571-2.811c-.166-.116-.362-.189-.57-.189h-1.169l-2.064,5.032c-.185,.45-.02,.965,.391,1.225l.733,.463,2.679-6.532Zm-6.529,8.612l-.494,1.199H4v2h6.745l.8-1.942-.665-.421c-.374-.236-.691-.526-.98-.837Zm-4.9-6.801H0v2H5v-2Z"/>
</svg>
