<?xml version="1.0" encoding="UTF-8"?>
<svg xmlns="http://www.w3.org/2000/svg" id="Layer_1" data-name="Layer 1" viewBox="0 0 24 24">
  <path d="M12.546,16.789l1.525,1.525c-.776,1.784-1.479,2.994-2.122,3.636-2.604,2.716-7.295,2.716-9.898,0-2.716-2.604-2.716-7.295,0-9.899,.642-.643,1.851-1.346,3.635-2.122l1.525,1.525c-2.489,1.02-3.411,1.675-3.746,2.01-1.94,1.862-1.94,5.209,0,7.071,1.862,1.94,5.209,1.94,7.07,0,.336-.336,.991-1.257,2.011-3.747Zm-7.646-2.092c.64-.64,2.439-1.298,3.821-1.733l2.258,2.258c-.435,1.382-1.092,3.181-1.731,3.821-1.2,1.197-3.149,1.198-4.348,0h0c-1.197-1.199-1.197-3.149,0-4.347Zm1.415,2.933c.418,.419,1.1,.418,1.518,0,.239-.244,.684-1.314,1.118-2.636-1.321,.435-2.392,.879-2.637,1.118-.418,.418-.418,1.1,0,1.519Zm12.784-8.382c-.647,.647-2.477,1.311-3.864,1.746l-2.228-2.228c.435-1.387,1.099-3.217,1.746-3.864,1.162-1.161,3.187-1.161,4.347,0,1.198,1.198,1.198,3.148,0,4.346Zm-1.414-2.932c-.401-.417-1.119-.416-1.519,0-.252,.258-.702,1.384-1.115,2.635,1.32-.435,2.389-.879,2.634-1.118,.418-.418,.418-1.099,0-1.518Zm4.264-4.264c-2.606-2.716-7.293-2.716-9.898,0-.643,.643-1.346,1.853-2.122,3.636l1.525,1.525c1.02-2.488,1.676-3.411,2.011-3.747,1.861-1.94,5.209-1.939,7.07,0,1.94,1.862,1.94,5.21,0,7.072-.336,.335-1.257,.99-3.746,2.01l1.525,1.525c1.784-.776,2.994-1.479,3.636-2.121,2.716-2.606,2.716-7.294,0-9.899ZM7.293,8.707l8,8,1.414-1.414L8.707,7.293l-1.414,1.414Z"/>
</svg>
