<svg id="Layer_1" viewBox="0 0 24 24" xmlns="http://www.w3.org/2000/svg" data-name="Layer 1"><path d="m24 14h-1c0-5.506-4.07-10.066-9.357-10.863.224-.323.357-.714.357-1.137 0-1.105-.895-2-2-2s-2 .895-2 2c0 .423.133.814.357 1.137-5.287.797-9.357 5.357-9.357 10.863h-1v2h3.011c-.656.737-1.137 1.645-1.37 2.669v.001l-1.212 5.33h2.051l1.11-4.886c.417-1.833 2.021-3.114 3.9-3.114h6.008c.63 0 1.142.512 1.142 1.142 0 .564-.422 1.051-.981 1.131l-5.161.737.283 1.979 5.161-.737c.624-.089 1.18-.369 1.628-.766l3.742-3.232c.4-.372 1.077-.317 1.426.099.361.416.32 1.052-.092 1.418s0 0 0 0l-7.002 6.228h3.009l5.321-4.733s0 0 0 0c.941-.836 1.226-2.143.826-3.266h1.198v-2zm-21 0c0-4.962 4.038-9 9-9s9 4.038 9 9z"/></svg>