<?xml version="1.0" encoding="UTF-8"?>
<svg xmlns="http://www.w3.org/2000/svg" id="Layer_1" data-name="Layer 1" viewBox="0 0 24 24">
  <path d="M24,18v6H0v-6c0-1.654,1.346-3,3-3h2.139l2.046,2H3c-.552,0-1,.448-1,1v4H22v-4c0-.552-.448-1-1-1h-4.185l2.046-2h2.139c1.654,0,3,1.346,3,3Zm0-15.5v5.5h-4v2c0,1.103-.897,2-2,2h-5v3.446s1.795-1.794,1.795-1.794l1.414,1.414-2.888,2.889c-1.903,2.012-4.252-1.915-5.526-2.889l1.414-1.414,1.792,1.792v-3.445H6c-1.103,0-2-.897-2-2v-2H0V2.5C0,1.122,1.121,0,2.5,0H7.5c1.379,0,2.5,1.122,2.5,2.5v5.5H6v2h12v-2h-4V2.5c0-1.378,1.121-2.5,2.5-2.5h5c1.379,0,2.5,1.122,2.5,2.5ZM2,6h6V2.5c0-.276-.225-.5-.5-.5H2.5c-.275,0-.5,.224-.5,.5v3.5ZM22,2.5c0-.276-.225-.5-.5-.5h-5c-.275,0-.5,.224-.5,.5v3.5h6V2.5Z"/>
</svg>
