<svg id="Layer_1" viewBox="0 0 24 24" xmlns="http://www.w3.org/2000/svg" data-name="Layer 1"><path d="m5 11h10v.492l-1.509 1.508h-8.491zm.009 4v2h4.81c.258-.451.556-.884.941-1.269l.731-.731zm4.358 7c.256.723.657 1.4 1.197 2h-10.564v-21c0-1.654 1.346-3 3-3h9.414l7.586 7.586v1.416c-.679-.002-1.352.13-2 .356v-.358h-7v-7h-8c-.551 0-1 .449-1 1v19zm3.633-15h3.586l-3.586-3.586zm.595 14.405c-.783-.783-.783-2.057 0-2.84l1.42-1.42c.784-.783 2.058-.783 2.84 0l1.42-1.42c-1.566-1.566-4.114-1.566-5.68 0l-1.42 1.42c-1.566 1.566-1.566 4.113-.002 5.679 0 0 0 .001.001.002 1.566 1.566 4.115 1.566 5.681 0l.384-.384c-.825-.044-1.641-.254-2.394-.635-.74.336-1.642.206-2.25-.402zm9.231-9.23s0 0 0 0c-1.566-1.566-4.114-1.566-5.681 0l-.384.384c.825.044 1.641.254 2.394.635.74-.336 1.642-.206 2.25.402.782.783.782 2.057 0 2.84l-1.42 1.42c-.784.783-2.058.783-2.841 0l-1.42 1.42c.783.783 1.811 1.174 2.84 1.174s2.057-.391 2.84-1.174l1.42-1.42c1.566-1.566 1.566-4.114 0-5.68z"/></svg>