<svg id="Layer_1" viewBox="0 0 24 24" xmlns="http://www.w3.org/2000/svg" data-name="Layer 1"><path d="m16.5 14h-9c-2.481 0-4.5 2.019-4.5 4.5v5.5h2v-5.5c0-1.379 1.122-2.5 2.5-2.5h1.874l-1.36 5h7.972l-1.36-5h1.874c1.379 0 2.5 1.121 2.5 2.5v5.5h2v-5.5c0-2.481-2.019-4.5-4.5-4.5zm-3.131 5h-2.739l.816-3h1.107zm-9.369-8c0 1.105.895 2 2 2s2-.895 2-2c0-.227-.046-.442-.116-.646 1.076 1.017 2.522 1.646 4.116 1.646s3.041-.629 4.116-1.646c-.07.204-.116.419-.116.646 0 1.105.895 2 2 2s2-.895 2-2c0-.601-.27-1.133-.69-1.5.419-.367.69-.899.69-1.5 0-.731-.396-1.364-.981-1.712.296-.349.481-.794.481-1.288 0-.748-.415-1.392-1.023-1.735.012-.087.023-.174.023-.265 0-1.105-.895-2-2-2-.09 0-.173.021-.26.033-.342-.613-.989-1.033-1.74-1.033-.327 0-.632.083-.904.222-.509-.141-1.043-.222-1.596-.222s-1.087.081-1.596.222c-.272-.139-.577-.222-.904-.222-.752 0-1.399.42-1.74 1.033-.086-.011-.17-.033-.26-.033-1.105 0-2 .895-2 2 0 .09.012.177.023.265-.608.343-1.023.987-1.023 1.735 0 .493.185.939.481 1.288-.585.349-.981.982-.981 1.712 0 .601.27 1.133.69 1.5-.419.367-.69.899-.69 1.5zm12-5c0 2.206-1.794 4-4 4s-4-1.794-4-4 1.794-4 4-4 4 1.794 4 4z"/></svg>