<svg id="Layer_1" viewBox="0 0 24 24" xmlns="http://www.w3.org/2000/svg" data-name="Layer 1"><path d="m14.014 19.803 2.494-3.491 1.888 2.596 2.435-4.034 3.169 4.094v-3.268l-7-9.042v-1.658l4-2.5-4-2.5h-2v6.658l-12 15.5v1.842h21v-2h-18.349l5.112-6.603 3.25 4.406zm4.228-4.509-1.747-2.404-2.506 3.508-1.952-2.646 3.963-5.119 3.518 4.544-1.277 2.116zm-16.449-5.501 1.414 1.414 1-1 .793.793v2h1.586c1.414-1 2.386-2.5 2.386-4.35 1.62-1.791 2.947-4.1 3.945-6.863.188-.494.059-1.05-.335-1.422-.397-.376-.965-.474-1.357-.287-2.795 1.007-5.019 2.282-6.835 3.921h-.006c-1.883 0-3.383 1-4.383 2.415v1.586h1.999l.793.793zm5.728-2.519-1.703 1.715-1.805-1.806 1.714-1.703c1.275-1.157 2.824-2.125 4.749-2.958-.82 1.892-1.816 3.491-2.955 4.751z"/></svg>