<svg id="Layer_1" viewBox="0 0 24 24" xmlns="http://www.w3.org/2000/svg" data-name="Layer 1"><path d="m14.228 4.814-6.775 7.211 6.775 7.162-1.456 1.371-6.677-7.093c-.376-.374-.595-.902-.595-1.465s.219-1.091.616-1.487l6.656-7.07zm-3.001-2.627-1.454-1.373-9.157 9.7c-.82.819-.82 2.153-.02 2.952l9.177 9.721 1.454-1.373-9.294-9.81zm6.273 8.313c-.828 0-1.5.672-1.5 1.5s.672 1.5 1.5 1.5 1.5-.672 1.5-1.5-.672-1.5-1.5-1.5zm-6.5 1.5c0 .828.672 1.5 1.5 1.5s1.5-.672 1.5-1.5-.672-1.5-1.5-1.5-1.5.672-1.5 1.5zm11.5-1.5c-.828 0-1.5.672-1.5 1.5s.672 1.5 1.5 1.5 1.5-.672 1.5-1.5-.672-1.5-1.5-1.5z"/></svg>