<?xml version="1.0" encoding="UTF-8"?>
<svg xmlns="http://www.w3.org/2000/svg" id="Layer_1" data-name="Layer 1" viewBox="0 0 24 24">
  <path d="M17,11.1c0-1.738-1.317-3.1-3-3.1-.782,0-1.477,.27-2,.727-.523-.457-1.218-.727-2-.727-1.682,0-3,1.362-3,3.1,.258,3.269,4.047,5.478,5,6.206,.947-.722,4.747-2.943,5-6.206Zm-5,3.769c-1.393-1.06-3-2.699-3-3.769,0-.637,.42-1.1,1-1.1,.461,0,1,.262,1,1h2c0-.738,.539-1,1-1,.579,0,1,.463,1,1.1,0,1.069-1.607,2.708-3,3.769ZM1.991,10.635c.143-1.049,.452-2.047,.908-2.986,.456,.218,.961,.351,1.499,.351,1.93,0,3.5-1.57,3.5-3.5,0-.538-.132-1.043-.35-1.499,.942-.457,1.941-.767,2.985-.909l-.27-1.981c-1.456,.198-2.838,.667-4.123,1.372-.515-.299-1.105-.482-1.742-.482C2.469,1,.898,2.57,.898,4.5c0,.639,.185,1.23,.485,1.746C.679,7.526,.208,8.904,.009,10.365l1.981,.271ZM4.398,3c.827,0,1.5,.673,1.5,1.5s-.673,1.5-1.5,1.5-1.5-.673-1.5-1.5,.673-1.5,1.5-1.5Zm11.602,1.5c0,1.93,1.57,3.5,3.5,3.5,.539,0,1.043-.132,1.499-.351,.456,.939,.766,1.937,.908,2.985l1.982-.27c-.199-1.462-.67-2.84-1.374-4.12,.3-.516,.484-1.107,.484-1.745,0-1.93-1.57-3.5-3.5-3.5-.637,0-1.227,.184-1.742,.482-1.286-.705-2.669-1.174-4.124-1.372l-.27,1.981c1.044,.142,2.043,.452,2.985,.909-.218,.456-.35,.96-.35,1.499Zm3.5-1.5c.827,0,1.5,.673,1.5,1.5s-.673,1.5-1.5,1.5-1.5-.673-1.5-1.5,.673-1.5,1.5-1.5ZM7.898,19.5c0-1.93-1.57-3.5-3.5-3.5-.539,0-1.043,.132-1.499,.351-.456-.939-.765-1.937-.908-2.986L.009,13.635c.199,1.461,.67,2.839,1.374,4.119-.3,.516-.485,1.107-.485,1.746,0,1.93,1.57,3.5,3.5,3.5,.637,0,1.227-.184,1.742-.482,1.285,.705,2.668,1.174,4.123,1.372l.27-1.981c-1.044-.142-2.043-.452-2.985-.909,.218-.456,.35-.96,.35-1.499Zm-3.5,1.5c-.827,0-1.5-.673-1.5-1.5s.673-1.5,1.5-1.5,1.5,.673,1.5,1.5-.673,1.5-1.5,1.5Zm17.509-7.635c-.142,1.048-.452,2.046-.908,2.985-.456-.218-.961-.351-1.499-.351-1.93,0-3.5,1.57-3.5,3.5,0,.538,.132,1.043,.35,1.499-.942,.457-1.942,.767-2.985,.909l.27,1.981c1.455-.198,2.838-.666,4.124-1.372,.515,.299,1.105,.482,1.742,.482,1.93,0,3.5-1.57,3.5-3.5,0-.638-.185-1.229-.484-1.745,.704-1.28,1.175-2.659,1.374-4.12l-1.982-.27Zm-2.407,7.635c-.827,0-1.5-.673-1.5-1.5s.673-1.5,1.5-1.5,1.5,.673,1.5,1.5-.673,1.5-1.5,1.5Z"/>
</svg>
