<svg id="Layer_1" viewBox="0 0 24 24" xmlns="http://www.w3.org/2000/svg" data-name="Layer 1"><path d="m22.5 18c0-.46-.089-.895-.218-1.312l1.417-.816-.999-1.732-1.41.813c-.605-.652-1.393-1.126-2.289-1.331v-1.621h-2v1.621c-.896.205-1.685.678-2.289 1.331l-1.41-.813-.999 1.732 1.417.816c-.129.418-.218.853-.218 1.312s.089.895.218 1.312l-1.417.816.999 1.732 1.41-.813c.605.652 1.393 1.126 2.289 1.331v1.621h2v-1.621c.896-.205 1.685-.678 2.289-1.331l1.41.813.999-1.732-1.417-.816c.129-.418.218-.853.218-1.312zm-4.5 2.5c-1.378 0-2.5-1.121-2.5-2.5s1.122-2.5 2.5-2.5 2.5 1.121 2.5 2.5-1.122 2.5-2.5 2.5zm-9.5 1.5c-4.206 0-6.5-1.463-6.5-2.214v-2.327c1.535.954 3.835 1.541 6.5 1.541.536 0 1.054-.027 1.558-.073-.035-.305-.058-.613-.058-.927 0-.369.034-.729.082-1.085-.498.053-1.024.085-1.582.085-3.968 0-6.5-1.48-6.5-2.5v-2.041c1.535.954 3.835 1.541 6.5 1.541.958 0 1.867-.078 2.712-.219.574-.922 1.335-1.709 2.222-2.329-.956.297-2.48.549-4.935.549-3.968 0-6.5-1.48-6.5-2.5v-2.041c1.535.954 3.835 1.541 6.5 1.541s4.965-.588 6.5-1.541v3.041s-.018.053-.085.138c.635-.266 1.307-.463 2.014-.558.042-.19.071-.382.071-.58v-5.001c.001-2.565-3.653-4.5-8.499-4.5s-8.5 1.935-8.5 4.5v15.286c0 2.767 4.276 4.214 8.5 4.214 1.299 0 2.601-.138 3.784-.408-.519-.53-.967-1.13-1.323-1.788-.732.117-1.542.196-2.461.196zm0-20c3.968 0 6.5 1.48 6.5 2.5s-2.532 2.5-6.5 2.5-6.5-1.48-6.5-2.5 2.532-2.5 6.5-2.5z"/></svg>