<svg id="Layer_1" viewBox="0 0 24 24" xmlns="http://www.w3.org/2000/svg" data-name="Layer 1"><path d="m12 .444s1.333 1.486 1.333 2.222-.597 1.333-1.333 1.333-1.333-.597-1.333-1.333c0 .736-.597 1.333-1.333 1.333s-1.333-.597-1.333-1.333 1.332-2.222 1.332-2.222 1.333 1.486 1.333 2.222c0-.736 1.333-2.222 1.333-2.222zm1.333 2.222c0 .736.597 1.333 1.333 1.333s1.333-.597 1.333-1.333-1.332-2.222-1.332-2.222-1.333 1.486-1.333 2.222zm2.667 0c0 .736.597 1.333 1.333 1.333s1.333-.597 1.333-1.333-1.333-2.222-1.333-2.222-1.333 1.486-1.333 2.222zm2.667 0c0 .736.597 1.333 1.333 1.333s1.333-.597 1.333-1.333-1.333-2.222-1.333-2.222-1.333 1.486-1.333 2.222zm-18.667.001c0 .736.597 1.333 1.333 1.333s1.333-.597 1.333-1.333-1.333-2.223-1.333-2.223-1.333 1.486-1.333 2.223zm5.333 0c0 .736.597 1.333 1.333 1.333s1.333-.597 1.333-1.333-1.332-2.223-1.332-2.223-1.333 1.486-1.333 2.222zm-2.667 0c0 .736.597 1.333 1.333 1.333s1.333-.597 1.333-1.333-1.332-2.223-1.332-2.223-1.333 1.486-1.333 2.222zm20.001-2.223s-1.333 1.486-1.333 2.222.597 1.333 1.333 1.333 1.333-.597 1.333-1.333-1.333-2.222-1.333-2.222zm-.696 6.503c0 5.224-4.044 9.514-9.165 9.924v-1.208c4.513-.406 8.062-4.205 8.062-8.822v-.832h-1.6v.832c0 3.734-2.834 6.816-6.463 7.216v-1.104c3.027-.394 5.375-2.984 5.375-6.117v-.827h-1.6v.827c0 2.249-1.634 4.114-3.775 4.494v-1.132c1.537-.364 2.688-1.739 2.688-3.386v-.803h-1.6v.803c0 .754-.447 1.401-1.088 1.703v-2.507h-1.6v2.507c-.64-.302-1.088-.949-1.088-1.703v-.803h-1.6v.803c0 1.647 1.151 3.022 2.688 3.386v1.132c-2.141-.381-3.775-2.246-3.775-4.494v-.827h-1.6v.827c0 3.133 2.348 5.723 5.375 6.117v1.104c-3.629-.4-6.463-3.482-6.463-7.216v-.832h-1.6v.832c0 4.617 3.55 8.416 8.062 8.822v1.208c-5.121-.41-9.165-4.7-9.165-9.924v-.938h-1.597v.938c0 6.037 4.652 11 10.558 11.513v3.54h-5v2h12v-2h-5v-3.539c5.912-.507 10.57-5.473 10.57-11.514v-.938h-1.6v.938z"/></svg>