<?xml version="1.0" encoding="UTF-8"?>
<svg xmlns="http://www.w3.org/2000/svg" id="Layer_1" data-name="Layer 1" viewBox="0 0 24 24">
  <path d="M23.972,20.983l-4.855-8.05c-.72-1.193-2.032-1.934-3.426-1.934H0v2H6.997l-.035,10.997,2,.006v-.003h8l1,.003,.03-9.06,4.267,7.074,1.713-1.033Zm-7.979-6.268l-.024,7.284h-5.872l5.897-7.284Zm-1.184-1.716l-5.834,7.208,.023-7.208h5.812ZM7.5,2.989v2.511c0,2.481,2.019,4.5,4.5,4.5s4.5-2.019,4.5-4.5V3l.437-.826c.27-.787-.287-1.615-1.118-1.661L8.74,.003c-1.131-.063-1.986,1.008-1.675,2.097l.435,.889Zm7,2.511c0,1.378-1.121,2.5-2.5,2.5s-2.5-1.122-2.5-2.5v-1.5h5v1.5Z"/>
</svg>
