<svg id="Layer_1" viewBox="0 0 24 24" xmlns="http://www.w3.org/2000/svg" data-name="Layer 1"><path d="m9.5 2.5c0-1.381 1.119-2.5 2.5-2.5s2.5 1.119 2.5 2.5-1.119 2.5-2.5 2.5-2.5-1.119-2.5-2.5zm.5 6.5c0-.551.449-1 1-1h2c.551 0 1 .449 1 1v2h2v-2c0-1.654-1.346-3-3-3h-2c-1.654 0-3 1.346-3 3v2h2zm-7 0c1.381 0 2.5-1.119 2.5-2.5s-1.119-2.5-2.5-2.5-2.5 1.119-2.5 2.5 1.119 2.5 2.5 2.5zm3 9h3v6h-2v-4h-4c-1.654 0-3-1.346-3-3v-4c0-1.654 1.346-3 3-3s3 1.346 3 3zm-2 0v-5c0-.551-.449-1-1-1s-1 .449-1 1v4c0 .552.449 1 1 1zm17-9c1.381 0 2.5-1.119 2.5-2.5s-1.119-2.5-2.5-2.5-2.5 1.119-2.5 2.5 1.119 2.5 2.5 2.5zm3 4v4c0 1.654-1.346 3-3 3h-4v4h-2v-6h3v-5c0-1.654 1.346-3 3-3s3 1.346 3 3zm-2 0c0-.551-.449-1-1-1s-1 .449-1 1v5h1c.551 0 1-.448 1-1zm-6 0h-8v2h8zm-16 11h5v-2h-5zm19 0h5v-2h-5z"/></svg>