<svg id="Layer_1" viewBox="0 0 24 24" xmlns="http://www.w3.org/2000/svg" data-name="Layer 1"><path d="m22 14.02 2-1.398v11.378h-24v-18c0-1.654 1.346-3 3-3h7v2h-7c-.552 0-1 .449-1 1v.242l7.878 7.879c1.134 1.133 3.109 1.133 4.243 0l.121-.121h2.828l-1.535 1.536c-.945.944-2.201 1.464-3.536 1.464s-2.591-.52-3.536-1.464l-6.464-6.466v12.929h20v-7.98zm-2.174-9.657-1.283-4.363h-1.059l-1.285 4.363h-4.2v1.006l3.079 2.016-1.181 4.022.787.593 3.331-2.338 3.382 2.338.818-.571-1.271-3.982 3.054-2.083v-1h-4.174z"/></svg>