<?xml version="1.0" encoding="UTF-8"?>
<svg xmlns="http://www.w3.org/2000/svg" id="Layer_1" data-name="Layer 1" viewBox="0 0 24 24">
  <path d="M7.019,16.5c0,.828-.672,1.5-1.5,1.5s-1.5-.672-1.5-1.5,.672-1.5,1.5-1.5,1.5,.672,1.5,1.5Zm16.981,1c0,3.033-2.468,5.5-5.5,5.5-2.69,0-4.932-1.944-5.404-4.5h-2.191c-.472,2.556-2.714,4.5-5.404,4.5-3.032,0-5.5-2.467-5.5-5.5s2.468-5.5,5.5-5.5c.664,0,1.297,.124,1.887,.341l1.005-1.7c-1.156-1.009-1.892-2.489-1.892-4.141,0-3.033,2.468-5.5,5.5-5.5s5.5,2.467,5.5,5.5c0,1.652-.735,3.132-1.892,4.141l1.005,1.7c.59-.216,1.223-.341,1.887-.341,3.032,0,5.5,2.467,5.5,5.5ZM8.5,6.5c0,.992,.419,1.884,1.085,2.522,.2-.593,.755-1.022,1.415-1.022h2c.66,0,1.215,.429,1.415,1.022,.666-.638,1.085-1.53,1.085-2.522,0-1.93-1.57-3.5-3.5-3.5s-3.5,1.57-3.5,3.5Zm.5,11c0-1.93-1.57-3.5-3.5-3.5s-3.5,1.57-3.5,3.5c0,.992,.419,1.884,1.085,2.522,.2-.593,.755-1.022,1.415-1.022h2c.66,0,1.215,.429,1.415,1.022,.666-.638,1.085-1.53,1.085-2.522Zm5.891-4.14l-1.005-1.7c-.589,.216-1.223,.34-1.887,.34s-1.297-.124-1.887-.34l-1.005,1.7c.917,.8,1.566,1.896,1.796,3.14h2.191c.23-1.244,.879-2.34,1.796-3.14Zm7.109,4.14c0-1.93-1.57-3.5-3.5-3.5s-3.5,1.57-3.5,3.5c0,.992,.419,1.884,1.085,2.522,.2-.593,.755-1.022,1.415-1.022h2c.66,0,1.215,.429,1.415,1.022,.666-.638,1.085-1.53,1.085-2.522Zm-3.481-2.5c-.828,0-1.5,.672-1.5,1.5s.672,1.5,1.5,1.5,1.5-.672,1.5-1.5-.672-1.5-1.5-1.5ZM12.019,7c.828,0,1.5-.672,1.5-1.5s-.672-1.5-1.5-1.5-1.5,.672-1.5,1.5,.672,1.5,1.5,1.5Z"/>
</svg>
