<?xml version="1.0" encoding="UTF-8"?>
<svg xmlns="http://www.w3.org/2000/svg" id="Layer_1" data-name="Layer 1" viewBox="0 0 24 24">
  <path d="M.499,5.216c-.667-.667-.667-1.765,.008-2.439L3.208,.013l1.43,1.398-1.553,1.589h1.915c1.654,0,3,1.346,3,3v3h-2v-3c0-.552-.448-1-1-1h-1.915l1.553,1.589-1.43,1.398L.499,5.216Zm22.736,7.8l-9.787,10.984H3c-1.654,0-3-1.346-3-3v-7c0-1.654,1.346-3,3-3H12.857c1.139,0,2.139,.609,2.689,1.519l3.217-3.534c1.065-1.221,3.074-1.31,4.254-.199,1.214,1.106,1.312,3.004,.218,4.23Zm-1.565-2.752c-.394-.38-1.069-.341-1.428,.066l-4.426,4.864c-.385,1.07-1.339,1.891-2.514,2.059l-5.161,.737-.283-1.98,5.161-.737c.56-.079,.98-.565,.98-1.13,0-.63-.513-1.143-1.143-1.143H3c-.552,0-1,.448-1,1v7c0,.552,.448,1,1,1H12.552l9.19-10.315c.368-.412,.336-1.05-.072-1.421ZM12,6c0-.552,.448-1,1-1h1.915l-1.553,1.589,1.43,1.398,2.701-2.764c.675-.675,.675-1.772,.008-2.439L14.792,.013l-1.43,1.398,1.553,1.589h-1.915c-1.654,0-3,1.346-3,3v3h2v-3Z"/>
</svg>
