<?xml version="1.0" encoding="UTF-8"?>
<svg xmlns="http://www.w3.org/2000/svg" id="Layer_1" data-name="Layer 1" viewBox="0 0 24 24">
  <path d="M6,15c-1.654,0-3,1.346-3,3v3c0,1.654,1.346,3,3,3s3-1.346,3-3v-3c0-1.654-1.346-3-3-3Zm1,6c0,.551-.449,1-1,1s-1-.449-1-1v-3c0-.551,.449-1,1-1s1,.449,1,1v3Zm11-6c-1.654,0-3,1.346-3,3v3c0,1.654,1.346,3,3,3s3-1.346,3-3v-3c0-1.654-1.346-3-3-3Zm1,6c0,.551-.449,1-1,1s-1-.449-1-1v-3c0-.551,.449-1,1-1s1,.449,1,1v3Zm-6-6v9h-2v-6l-1.243-1.17,1.723-1.83h1.52Zm11-2.5c0,1.508-.461,2.903-1.231,4.079-.231-.771-.627-1.468-1.17-2.034,.256-.633,.401-1.321,.401-2.045,.024-3.295-2.817-5.72-6.042-5.52-.584-2.82-3.032-5.001-5.958-4.98-3.309,0-6,2.691-6,6-.028,1.024,.329,2.039,.71,2.972-1.49,.59-2.755,1.832-2.71,3.528,0,.165,.016,.326,.038,.485-.58,.76-.941,1.685-1.006,2.697-.644-.899-1.032-1.993-1.032-3.182,0-1.786,.85-3.425,2.265-4.45-.176-.666-.265-1.353-.265-2.05C2,3.589,5.589,0,10,0c3.281,0,6.247,2.048,7.441,5.059,3.73,.459,6.559,3.604,6.559,7.441Z"/>
</svg>
