<svg id="Layer_1" viewBox="0 0 24 24" xmlns="http://www.w3.org/2000/svg" data-name="Layer 1"><path d="m12 21.5v2.5h-2v-2.5c0-.827-.673-1.5-1.5-1.5h-5c-.827 0-1.5.673-1.5 1.5v2.5h-2v-2.5c0-1.93 1.57-3.5 3.5-3.5h5c1.93 0 3.5 1.57 3.5 3.5zm-10-9.5c0-2.206 1.794-4 4-4s4 1.794 4 4-1.794 4-4 4-4-1.794-4-4zm2 0c0 1.103.897 2 2 2s2-.897 2-2-.897-2-2-2-2 .897-2 2zm20-5.5c0 3.584-2.916 6.5-6.5 6.5s-6.5-2.916-6.5-6.5 2.916-6.5 6.5-6.5 6.5 2.916 6.5 6.5zm-2 0c0-2.481-2.019-4.5-4.5-4.5s-4.5 2.019-4.5 4.5 2.019 4.5 4.5 4.5 4.5-2.019 4.5-4.5zm-4-3.058v2.058h-3v2h3v1.942l2.342-2.342c.363-.363.363-.952 0-1.316z"/></svg>