<svg id="Layer_1" viewBox="0 0 24 24" xmlns="http://www.w3.org/2000/svg" data-name="Layer 1"><path d="m13.571 0h-3.143c-5.75 0-10.428 4.678-10.428 10.429v8.77c0 1.401.732 2.672 1.958 3.401 1.117.664 2.356 1.4 4.375 1.4 1.362 0 2.652-.572 3.541-1.568.209-.235.398-.481.55-.745.131-.271.889-.687 1.576-.687s1.445.416 1.576.687l.01-.005c.152.263.332.515.541.749.888.997 2.179 1.568 3.541 1.568 2.02 0 3.258-.736 4.375-1.4 1.226-.729 1.958-2 1.958-3.401v-8.77c-.001-5.75-4.679-10.428-10.43-10.428zm-5.19 21.101c-.509.571-1.255.899-2.047.899-1.47 0-2.373-.537-3.33-1.105-.637-.379-1.004-1.008-1.004-1.696v-.446c.524-.512 2.282-1.746 4.154-1.746 1.438 0 2.684.954 2.83 2.21.08.689-.134 1.359-.603 1.885zm13.619-1.903c0 .688-.367 1.317-1.004 1.696-.957.569-1.859 1.105-3.33 1.105-.792 0-1.539-.328-2.047-.899-.469-.525-.683-1.195-.603-1.885.146-1.256 1.391-2.21 2.83-2.21 1.872 0 3.63 1.234 4.154 1.746v.446zm0-2.933c-.938-.576-2.223-1.135-3.782-1.245-1.938-.146-3.749.807-4.643 2.293-.131.271-.889.687-1.576.687s-1.471-.403-1.602-.674c-.893-1.487-2.679-2.452-4.617-2.306-1.559.11-2.844.669-3.782 1.245v-5.836c.002-4.648 3.783-8.429 8.431-8.429h3.143c4.647 0 8.429 3.781 8.429 8.429v5.836z"/></svg>