<svg id="Layer_1" viewBox="0 0 24 24" xmlns="http://www.w3.org/2000/svg" data-name="Layer 1"><path d="m18.5 11h-3v-.5c0-.827-.673-1.5-1.5-1.5h-4c-.827 0-1.5.673-1.5 1.5v.5h-3c-1.379 0-2.5 1.122-2.5 2.5v10.5h18v-10.5c0-1.378-1.121-2.5-2.5-2.5zm-13 2h13c.275 0 .5.224.5.5v1.5h-14v-1.5c0-.276.225-.5.5-.5zm-.5 9v-5h6v2h2v-2h6v5zm4.329-17.387-1.398-1.431 2.699-2.637c.738-.749 1.95-.705 2.664.009l2.811 2.747-1.398 1.431-1.706-1.668v3.936h-2v-4.02l-1.671 1.633zm-6.329 1.367-1.604 1.567-1.396-1.431 2.63-2.571c.698-.697 1.95-.705 2.664.009l2.629 2.566-1.398 1.431-1.525-1.486v2.987c-.732.082-1.417.319-2 .709v-3.78zm19.607 1.569-1.607-1.569v3.78c-.583-.39-1.268-.627-2-.709v-2.987l-1.525 1.487-1.398-1.431 2.638-2.575c.696-.696 1.948-.706 2.664.009l2.621 2.565-1.393 1.431z"/></svg>