<svg id="Layer_1" viewBox="0 0 24 24" xmlns="http://www.w3.org/2000/svg" data-name="Layer 1"><path d="m24 3.166c0-1.805-1.36-3.166-3.165-3.166-2.23 0-4.484.2-7.244 2.091l-1.298-1.298-3 3 1.086 1.086c-1.665 1.696-3.21 3.474-4.651 5.349l-.936-.936-3 3 1.444 1.444c-1.065 1.608-2.089 3.326-3.025 5.066l4.984 4.985c1.741-.938 3.458-1.96 5.066-3.026l1.445 1.445 3-3-.936-.936c1.876-1.441 3.654-2.986 5.349-4.651l1.086 1.086 3-3-1.298-1.298c1.892-2.76 2.091-5.014 2.091-7.243zm-5.901 8.663c-3.71 3.71-7.822 6.818-12.552 9.482l-2.857-2.857c2.664-4.729 5.771-8.84 9.482-12.552 3.607-3.607 6.058-3.901 8.663-3.901.697 0 1.165.468 1.165 1.166 0 2.605-.294 5.055-3.901 8.663z"/></svg>