<svg id="Layer_1" viewBox="0 0 24 24" xmlns="http://www.w3.org/2000/svg" data-name="Layer 1"><path d="m17.563 2.191c.171-.125.375-.191.587-.191h5.85v-2h-5.85c-.639 0-1.249.198-1.764.574l-2.633 1.915c-.518-.303-1.112-.489-1.753-.489s-1.236.186-1.753.489l-2.632-1.915c-.516-.376-1.126-.574-1.765-.574h-5.85v2h5.85c.213 0 .416.066.588.191l2.434 1.77c-.229.464-.37.979-.371 1.531-2.888.943-3.241 1.48-4.097 2.103l1.808 9.404h-3.212v2h3.597l.577 3h3.826v2h2v-2h3.826l.577-3h3.597v-2h-3.212l1.808-9.404c-.852-.621-1.213-1.162-4.097-2.103-.001-.552-.142-1.067-.371-1.531l2.435-1.77zm-5.563 1.809c.827 0 1.5.673 1.5 1.5s-.673 1.5-1.5 1.5-1.5-.673-1.5-1.5.673-1.5 1.5-1.5zm3.174 16h-2.174v-7h-2v7h-2.174l-2.219-11.54c.489-.296 1.349-.727 2.47-1.045.626.953 1.701 1.585 2.923 1.585s2.297-.633 2.923-1.585c1.121.318 1.981.75 2.47 1.045z"/></svg>