<?xml version="1.0" encoding="UTF-8"?>
<svg xmlns="http://www.w3.org/2000/svg" id="Layer_1" data-name="Layer 1" viewBox="0 0 24 24">
  <path d="M7,16h-3v-2h3v2Zm-3,4h3v-2h-3v2ZM13,11c0-.552-.448-1-1-1s-1,.448-1,1,.448,1,1,1,1-.448,1-1Zm6,7h-2v2h2v-2Zm3-4h2v7c0,1.654-1.346,3-3,3h-6c-1.654,0-3-1.346-3-3v-7h2v-1c0-2.206,1.794-4,4-4s4,1.794,4,4v1Zm-6,0h4v-1c0-1.103-.897-2-2-2s-2,.897-2,2v1Zm6,2H14v5c0,.551,.448,1,1,1h6c.552,0,1-.449,1-1v-5Zm-11.899,6c.152,.743,.482,1.416,.924,2H0V9c0-1.654,1.346-3,3-3h6.586l1.414-1.414V0h2l4,2.5-3.745,2.341,1.159,1.159h6.586c1.654,0,3,1.346,3,3h-2c0-.551-.448-1-1-1h-7.414l-1.586-1.586-5.586,5.586H2v10H10.101ZM2,9v1h3.586l2-2H3c-.552,0-1,.449-1,1Z"/>
</svg>
