<svg id="Layer_1" viewBox="0 0 24 24" xmlns="http://www.w3.org/2000/svg" data-name="Layer 1"><path d="m7.486 2.326c.33-.22.714-.336 1.109-.336h5.404v3.003c-2.398 1.145-4 3.608-4 6.32v.688h2v-.688c0-1.804.999-3.443 2.518-4.322h4.97c.838.487 1.52 1.201 1.958 2.055.879.079 1.698.364 2.386.839-.45-2.123-1.87-3.948-3.833-4.889v-2.005c.002-1.656-1.344-3.001-2.998-3.001h-8.404c-.792 0-1.559.232-2.219.672l-2.501 1.668 1.109 1.664zm8.514-.336h1c.552 0 1 .449 1 1v2h-2zm7.236 14.024-7.115 7.986h-2.678l8.301-9.316c.367-.412.334-1.049-.073-1.42-.393-.372-1.071-.344-1.428.066l-4.433 4.872c-.387 1.066-1.335 1.883-2.506 2.051l-5.161.737-.283-1.98 5.161-.737c.56-.079.98-.565.98-1.13 0-.63-.513-1.143-1.143-1.143h-9.858c-.552 0-1 .448-1 1v7h-2v-7c0-1.654 1.346-3 3-3h9.857c1.14 0 2.13.616 2.681 1.527l3.224-3.543c1.065-1.22 3.082-1.317 4.255-.199 1.213 1.106 1.312 3.003.219 4.229zm.764 2.149v5.837h-5.2l1.782-2h1.418v-1.592zm-19-6.163c.801 0 1.555-.312 2.121-.878.566-.567.879-1.32.879-2.122s-.313-1.555-.887-2.129l-2.113-2.067-2.121 2.075c-.566.567-.879 1.32-.879 2.122-.033 1.612 1.388 3.033 3 3zm-.715-3.699.715-.699.707.692c.189.188.293.439.293.707s-.104.518-.293.707c-.379.378-1.035.379-1.414 0-.189-.188-.293-.439-.293-.707s.104-.518.285-.699z"/></svg>