<svg id="Layer_1" viewBox="0 0 24 24" xmlns="http://www.w3.org/2000/svg" data-name="Layer 1"><path d="m22.848 7.012c-.034.005-1.838.279-4.171.538.204-.493.322-1.041.321-1.65 0-1.056-.424-2.044-1.191-2.784-.772-.745-1.833-1.158-2.893-1.112-1.191.042-2.206.592-2.914 1.475-.707-.883-1.722-1.433-2.914-1.475-1.062-.055-2.121.367-2.893 1.112-.767.74-1.19 1.729-1.191 2.784 0 .609.117 1.157.321 1.65-3.542-.413-3.607-.459-5.323-.715v11.305c1.705-.213 4.17-.573 9-1.007v6.703l3-2.86 3 2.86v-6.703c4.842.435 7.283.793 9 1.007v-11.305zm-7.865-3.011c1.04-.038 2.04.838 2.015 1.9-.097 1.467-.608 1.615-1.641 1.957-.8.058-1.597.103-2.357.125v-1.889c.166-1.237.94-2.057 1.983-2.094zm-7.323 3.435c-.283-.211-.66-.6-.659-1.534-.024-1.053.974-1.958 2.015-1.9 1.043.037 1.817.856 1.983 2.094v1.889c-.76-.022-1.557-.066-2.357-.125-.4-.095-.732-.236-.982-.423zm-5.66 8.43v-6.712c1.459.246 4.502.49 7 .789v5.182c-2.51.206-5.433.548-7 .741zm11 3.299-1-.954-1 .954v-9.165h2zm9-3.299c-1.567-.193-4.49-.535-7-.741v-5.182c2.5-.299 5.54-.543 7-.789z"/></svg>