<svg id="Layer_1" viewBox="0 0 24 24" xmlns="http://www.w3.org/2000/svg" data-name="Layer 1"><path d="m22.63 11.604-4.13-1.37-4.129 1.369c-.82.271-1.371 1.033-1.371 1.896v3.911c.196 4.023 3.82 5.713 5.456 6.574 1.707-.728 5.341-2.078 5.544-6.574v-3.911c0-.863-.551-1.625-1.37-1.896zm-.63 5.807c0 2.583-2.424 3.925-3.455 4.379-.916-.491-3.545-2.099-3.545-4.379v-3.908s3.5-1.161 3.5-1.161l3.5 1.158zm-9.999 4.177c-.813-.86-2.203-2.501-3.228-4.588h2.227v-2h-3.03c-.291-.952-.47-1.96-.47-3s.18-2.047.472-3h13.557c.016.05.036.099.051.149l1.679.557c.192.063.374.143.55.231-.981-5.635-5.897-9.937-11.809-9.937-6.617 0-12 5.383-12 12 0 5.277 3.381 9.88 8.414 11.455 1.157.362 2.364.545 3.586.545.805 0 1.59-.083 2.351-.234-1.3-1.144-1.393-1.204-2.35-2.178zm0-19.175c.814.861 2.205 2.5 3.229 4.587h-6.453c1.025-2.083 2.412-3.725 3.224-4.587zm8.648 4.587h-3.226c-.791-1.883-1.884-3.484-2.826-4.652 2.576.695 4.742 2.394 6.051 4.652zm-11.26-4.642c-.94 1.167-2.024 2.767-2.811 4.642h-3.225c1.308-2.253 3.466-3.945 6.036-4.642zm-6.928 6.642h3.442c-.246.956-.403 1.958-.403 3s.157 2.044.403 3h-3.444c-.296-.952-.459-1.959-.459-3s.162-2.052.461-3zm.874 8h3.243c.785 1.87 1.865 3.468 2.804 4.634-.123-.033-.25-.05-.371-.089-2.469-.772-4.454-2.423-5.675-4.545z"/></svg>