<svg id="Layer_1" viewBox="0 0 24 24" xmlns="http://www.w3.org/2000/svg" data-name="Layer 1"><path d="m2 7h-2v-4c0-1.654 1.346-3 3-3h4v2h-4c-.551 0-1 .448-1 1zm19-7h-4v2h4c.551 0 1 .448 1 1v4h2v-4c0-1.654-1.346-3-3-3zm1 21c0 .552-.449 1-1 1h-4v2h4c1.654 0 3-1.346 3-3v-4h-2zm-20 0v-4h-2v4c0 1.654 1.346 3 3 3h4v-2h-4c-.551 0-1-.448-1-1zm17-10h5v2h-24v-2h5v-5c0-1.103.897-2 2-2h10c1.103 0 2 .897 2 2zm-12 0h1.141c.446-1.722 1.997-3 3.859-3s3.413 1.278 3.859 3h1.141v-5h-10zm6.723 0c-.346-.595-.984-1-1.723-1s-1.376.405-1.723 1h3.445zm5.277 7v-3h-2v3h-10v-3h-2v3c0 1.103.897 2 2 2h10c1.103 0 2-.897 2-2zm-9.62-3c.703.615 1.613 1 2.62 1s1.917-.385 2.62-1h-5.241z"/></svg>