<svg id="Layer_1" viewBox="0 0 24 24" xmlns="http://www.w3.org/2000/svg" data-name="Layer 1"><path d="m10.763 11.057.53 1.404h-1.064l.535-1.404zm11.889 7.373c-.584 1.04-1.784 1.567-3.455 1.567-.394 0-.824-.04-1.269-.099.19-.623.354-1.275.492-1.951 1.368.149 2.247-.069 2.487-.496.496-.885-.854-3.298-3.925-5.862.002.139.017.271.017.411 0 5.963-1.718 12-5 12-1.268 0-2.371-.935-3.231-2.648.624-.18 1.263-.396 1.914-.647.507.911 1.005 1.295 1.317 1.295.859 0 2.03-2.069 2.623-5.462-.009.006-.018.012-.027.018-3.597 2.185-7.25 3.441-9.825 3.441-1.281.124-3.096-.685-3.423-1.566-.701-1.249-.308-2.961 1.048-4.873.454.476.942.944 1.459 1.401-.772 1.159-1.006 2.061-.763 2.493.11.197.35.345.711.439 1.111.29 3.271-.016 5.967-1.125-.121-.072-.244-.138-.365-.211-5.27-3.201-9.73-8.002-8.056-10.985.722-1.287 2.393-1.777 4.721-1.467-.19.622-.354 1.272-.492 1.947-1.368-.151-2.244.069-2.485.499-.497.885.854 3.298 3.925 5.863-.002-.138-.017-.272-.017-.411 0-5.964 1.717-12.001 5-12.001 1.277 0 2.381.937 3.241 2.659-.626.179-1.266.39-1.921.64-.504-.908-1.001-1.299-1.32-1.299-.859 0-2.03 2.07-2.623 5.463.009-.006.018-.012.027-.018 4.357-2.646 8.796-3.929 11.3-3.271 1.129.296 1.682.922 1.947 1.396.701 1.25.306 2.96-1.049 4.872-.453-.475-.942-.941-1.459-1.398.774-1.16 1.007-2.061.763-2.495-.11-.197-.35-.345-.711-.439-1.109-.292-3.273.015-5.975 1.128.124.073.249.133.372.208 5.271 3.202 9.73 8.003 8.058 10.986zm-9.105-3.43-2.265-6h-1.033l-2.285 5.998h1.303l.5-1.324h1.983l.5 1.326zm1.953-6h-1.237v6h1.237z"/></svg>