<?xml version="1.0" encoding="UTF-8"?>
<svg xmlns="http://www.w3.org/2000/svg" id="Layer_1" data-name="Layer 1" viewBox="0 0 24 24">
  <path d="M16.851,14.086c.49-1.004,.945-2.046,1.311-3.075,0,0,.853-2.809,.839-4.011,0-3.86-3.14-7-7-7S5,3.14,5,7c0,1.195,.833,4.004,.835,4.013h.004c.365,1.028,.821,2.069,1.31,3.073-2.351,.407-4.149,2.448-4.149,4.914v5h2v-5c0-1.654,1.346-3,3-3h.142c1.42,2.579,2.675,4.377,2.858,4.642v3.358h2v-3.358c.182-.263,1.439-2.065,2.858-4.642h.142c1.654,0,3,1.346,3,3v5h2v-5c0-2.466-1.798-4.507-4.149-4.914ZM12,2c2.306,0,4.234,1.578,4.809,3.706-.862-.852-2.338-1.706-4.809-1.706s-3.951,.857-4.81,1.711c.573-2.13,2.502-3.711,4.81-3.711Zm0,16.542c-1.014-1.558-3.081-4.914-4.214-7.989-.256-1.262-.048-2.393,.595-3.186,.726-.895,1.977-1.367,3.619-1.367s2.899,.474,3.627,1.372c.636,.785,.844,1.9,.6,3.144-1.129,3.085-3.208,6.462-4.227,8.026Z"/>
</svg>
