<svg id="Layer_1" viewBox="0 0 24 24" xmlns="http://www.w3.org/2000/svg" data-name="Layer 1"><path d="m21 2h-3v-2h-2v2h-8v-2h-2v2h-3c-1.654 0-3 1.346-3 3v19h3.951l.411-2h-2.362v-12h20v4.065c.748.13 1.428.453 2 .909v-9.974c0-1.654-1.346-3-3-3zm-19 6v-3c0-.551.448-1 1-1h18c.552 0 1 .449 1 1v3zm7.695 8.168c-.224-.112-.461-.168-.695-.168-.86.003-1.523.726-1.686 1.581l-1.321 6.418h1.533l.299-1.4h2.302l.285 1.4h1.58l-1.296-6.373c-.131-.668-.506-1.213-1.001-1.459zm-1.527 4.832.664-3.104c.029-.149.102-.253.171-.296l.016.006c.023.016.117.118.162.349l.621 3.044h-1.634zm15.832-2.5c0-1.381-1.119-2.5-2.5-2.5h-2.5v8h1.6v-3h.784l.872 3h1.744l-1.054-3.462c.023-.017.024-.016.042-.029-.019.012-.031.021-.055.035.644-.452 1.067-1.198 1.067-2.044zm-2.5.9h-.9v-1.8h.9c.496 0 .9.404.9.9s-.404.9-.9.9zm-6-3.4h-2.5v8h1.6v-3h.922c1.366 0 2.477-1.108 2.478-2.474v-.026c0-1.381-1.119-2.5-2.5-2.5zm0 3.4h-.9v-1.8h.9c.496 0 .9.404.9.9s-.404.9-.9.9z"/></svg>