<?xml version="1.0" encoding="UTF-8"?>
<svg xmlns="http://www.w3.org/2000/svg" id="Layer_1" data-name="Layer 1" viewBox="0 0 24 24">
  <path d="M14.5,13.001c-.828,0-1.5-.672-1.5-1.5s.672-1.5,1.5-1.5,1.5,.672,1.5,1.5-.672,1.5-1.5,1.5Zm9.453-.92c-.243,1.499-1.511,2.657-3.045,2.875l-.028,.274c-.879,4.271-3.879,6.771-8.882,8.77-4.998-1.999-7.998-4.499-8.912-8.798l-.265-1.201h2.284l.226,.533c.245,.579,.905,1.881,2.192,2.932,.017-2.472,1.728-3.478,3.001-3.478l2.953,.013c1.24,0,2.885,.965,2.985,3.302,1.313-1.043,2.217-2.374,2.34-3.419l.104-.883h1.487c.789,0,1.471-.534,1.585-1.241,.149-.918-.498-1.601-1.209-1.73l-.737-.134-.079-.745c-.43-4.076-3.849-7.15-7.954-7.15h0c-3.732,0-7.018,2.645-7.812,6.29l-.295,1.669c4.324-.396,7.597-3.58,9.135-5.864,.676,.117,1.314,.345,1.893,.669-1.074,1.741-2.91,3.78-5.288,5.25,.765,.069,1.366,.704,1.366,1.487,0,.828-.672,1.5-1.5,1.5s-1.5-.672-1.5-1.5c0-.256,.07-.494,.184-.705-1.561,.735-3.302,1.205-5.184,1.205H1.501l.725-4.097C3.226,3.309,7.334,.001,12,.001h0c4.904,0,9.025,3.512,9.849,8.272,1.477,.608,2.372,2.153,2.103,3.808Zm-9.964,6.581l-.009-.647c0-1.5-.682-2.013-1.517-2.013l-.927-.013c-.834,0-1.517,.513-1.517,2.013l-.007,.738c.596,.162,1.252,.262,1.988,.262,.681,0,1.35-.127,1.989-.339Z"/>
</svg>
