<svg id="Layer_1" viewBox="0 0 24 24" xmlns="http://www.w3.org/2000/svg" data-name="Layer 1"><path d="m24 18v2h-1v2h-2v-6h2v2zm-17-2v2h-1v2h1v2h2v-6zm11-2v4h-6v-4h-2v10h2v-4h6v4h2v-10zm-16-3.545c0-2.456 1.845-4.455 4.113-4.455h4.773c2.269 0 4.113 1.999 4.113 4.455v.038c-.009 1.084-.393 2.066-1 2.835v2.668c1.778-1.123 3.025-3.204 2.99-5.54h.01c0-3.37-2.459-6.14-5.582-6.426.122-.093.248-.179.359-.29 1.391-1.391 1.217-3.733 1.217-3.733s-2.342-.174-3.732 1.216c-.293.293-.507.635-.68.985-.261-.877-.591-1.579-.836-2.028l-1.756.959c.245.449.748 1.514.935 2.861h-.811c-3.371 0-6.113 2.896-6.113 6.455 0 3.157 2.159 5.787 5 6.342v-2.074c-1.725-.53-3-2.232-3-4.268z"/></svg>