<svg id="Layer_1" viewBox="0 0 24 24" xmlns="http://www.w3.org/2000/svg" data-name="Layer 1"><path d="m10.21 21.989 2.647 1.589c-.923.273-1.885.422-2.857.422-5.541 0-10.049-4.508-10.049-10.049.084-5.156 6.257-10.784 9.997-13.894 2.263 1.661 4.595 3.921 6.837 6.656.628.795 1.155 1.564 1.602 2.312-.72-.07-1.452.057-2.12.379-.312-.47-.657-.952-1.051-1.451-1.612-2.042-3.631-3.951-5.212-5.324-2.889 2.498-8.053 7.493-8.053 11.322 0 4.438 3.61 8.049 8.049 8.049.07 0 .14-.009.21-.011zm13.79-7.722v6.464l-4.971 2.982c-.635.38-1.423.38-2.058 0l-4.972-2.983v-6.464l4.971-2.982c.635-.381 1.424-.381 2.059 0l4.971 2.982zm-9.056.566 3.056 1.834 3.056-1.834-3.056-1.834zm2.056 6.565v-2.999l-3-1.8v2.998l3 1.8zm5-1.8v-2.998l-3 1.8v2.999l3-1.8z"/></svg>