<?xml version="1.0" encoding="UTF-8"?>
<svg xmlns="http://www.w3.org/2000/svg" id="Layer_1" data-name="Layer 1" viewBox="0 0 24 24">
  <path d="M18,12c-3.314,0-6,2.686-6,6s2.686,6,6,6,6-2.686,6-6-2.686-6-6-6Zm0,10c-.69,0-1.25-.56-1.25-1.25s.56-1.25,1.25-1.25,1.25,.56,1.25,1.25-.56,1.25-1.25,1.25Zm1.697-2.697c-.936-.936-2.458-.936-3.394,0l-1.132-1.131c1.56-1.56,4.098-1.56,5.657,0l-1.132,1.131Zm1.768-1.768c-.925-.925-2.155-1.435-3.464-1.435s-2.539,.51-3.464,1.435l-1.132-1.131c1.228-1.228,2.86-1.904,4.596-1.904s3.369,.676,4.596,1.904l-1.132,1.131Zm-9.464-3.035c0,.828-.672,1.5-1.5,1.5s-1.5-.672-1.5-1.5,.672-1.5,1.5-1.5,1.5,.672,1.5,1.5Zm2.036-3.536l-1.414,1.414c-1.17-1.169-3.073-1.169-4.243,0l-1.414-1.414c1.949-1.949,5.122-1.949,7.071,0Zm1.061-1.061c-1.228-1.228-2.86-1.904-4.596-1.904s-3.369,.676-4.596,1.904l-1.414-1.414c1.605-1.605,3.74-2.49,6.01-2.49s4.405,.884,6.01,2.49l-1.414,1.414Zm-5.029,9.074c.088,.704,.261,1.382,.518,2.018-.029,0-.057,.004-.085,.004C4.71,21,0,16.29,0,10.5S4.71,0,10.5,0s10.5,4.71,10.5,10.5c0,.029-.004,.057-.004,.085-.636-.257-1.313-.43-2.018-.518-.227-4.492-3.93-8.068-8.478-8.068C5.806,2,2,5.806,2,10.5c0,4.548,3.575,8.252,8.068,8.478Z"/>
</svg>
