<?xml version="1.0" encoding="UTF-8"?>
<svg xmlns="http://www.w3.org/2000/svg" id="Layer_1" data-name="Layer 1" viewBox="0 0 24 24">
  <path d="M22.7,14.139l-1.41,.813c-.605-.652-1.393-1.126-2.289-1.331v-1.621h-2v1.621c-.896,.205-1.685,.678-2.289,1.331l-1.41-.813-.999,1.732,1.417,.816c-.129,.418-.218,.853-.218,1.312s.089,.895,.218,1.312l-1.417,.816,.999,1.732,1.41-.813c.605,.652,1.393,1.126,2.289,1.331v1.621h2v-1.621c.896-.205,1.685-.678,2.289-1.331l1.41,.813,.999-1.732-1.417-.816c.129-.418,.218-.853,.218-1.312s-.089-.895-.218-1.312l1.417-.816-.999-1.732Zm-4.7,6.361c-1.378,0-2.5-1.121-2.5-2.5s1.122-2.5,2.5-2.5,2.5,1.121,2.5,2.5-1.122,2.5-2.5,2.5Zm3-13.5h-2V3.486L15.515,0h-7.515c-1.654,0-3,1.346-3,3v2H3c-1.654,0-3,1.346-3,3V24H12.721c-.649-.571-1.197-1.249-1.634-2H2V13H11.76c.651-.811,1.454-1.493,2.37-2H2v-3c0-.552,.449-1,1-1H7.764l4,2h9.236c.551,0,1,.448,1,1v1.087c.751,.437,1.429,.985,2,1.634v-2.721c0-1.654-1.346-3-3-3Zm-12.764-2h-1.236V3c0-.552,.449-1,1-1h6v3h3v2h-4.764l-4-2Z"/>
</svg>
