<?xml version="1.0" encoding="UTF-8"?>
<svg xmlns="http://www.w3.org/2000/svg" id="Layer_1" data-name="Layer 1" viewBox="0 0 24 24">
  <path d="M10,9.75V5h1.6v4.75c0,.358,.292,.65,.65,.65s.65-.292,.65-.65V5h1.6v4.75c0,1.243-1.007,2.25-2.25,2.25s-2.25-1.007-2.25-2.25Zm-2.579,2.25l-.909-2.5h-.413v2.5h-1.6V5h2.25c1.243,0,2.25,1.007,2.25,2.25,0,.753-.373,1.414-.94,1.823l1.064,2.927h-1.703Zm-.021-4.75c0-.358-.292-.65-.65-.65h-.65v1.3h.65c.358,0,.65-.292,.65-.65Zm16.6-.25v14.854c.053,1.662-1.984,2.756-3.339,1.788l-3.964-2.643H6v-3.131l-2.661,1.774c-1.356,.965-3.393-.125-3.339-1.788V3C0,1.346,1.346,0,3,0h13c1.654,0,3,1.346,3,3v1h2c1.654,0,3,1.346,3,3ZM6.697,15h10.303V3c0-.551-.449-1-1-1H3c-.551,0-1,.449-1,1v14.854c-.038,.084,.18,.203,.23,.124l4.467-2.979ZM22,7c0-.551-.449-1-1-1h-2v11H8v2h9.303l4.467,2.979c.048,.079,.27-.04,.23-.124V7Z"/>
</svg>
