<?xml version="1.0" encoding="UTF-8"?>
<svg xmlns="http://www.w3.org/2000/svg" id="Layer_1" data-name="Layer 1" viewBox="0 0 24 24">
  <path d="m7,17h10v2H7v-2Zm5-13c0-1.103.897-2,2-2s2,.897,2,2v7.5c0,.276-.224.5-.5.5s-.5-.224-.5-.5v-7.5h-2v7.5c0,1.378,1.122,2.5,2.5,2.5s2.5-1.122,2.5-2.5v-7.5c0-2.206-1.794-4-4-4s-4,1.794-4,4v7h2v-7ZM19,0h-.537c.608.678,1.064,1.494,1.314,2.397.132.169.223.372.223.603v19H4V3c0-.551.449-1,1-1h3.349c.264-.746.67-1.423,1.188-2h-4.537c-1.654,0-3,1.346-3,3v21h20V3c0-1.654-1.346-3-3-3Zm-7.724,13h-4.276v2h5.706c-.648-.518-1.146-1.204-1.43-2Z"/>
</svg>
