<svg id="Layer_1" viewBox="0 0 24 24" xmlns="http://www.w3.org/2000/svg" data-name="Layer 1"><path d="m22.554 1.533-4.554-1.51-4.553 1.51c-.865.286-1.447 1.09-1.447 2.001v3.611c-.014 2.851 2.315 5.449 5.957 7.165 3.738-1.39 6.042-3.918 6.043-7.187v-3.589c0-.911-.582-1.715-1.446-2.001zm-.554 5.571c-.043 2.178-1.339 3.816-3.956 4.999-2.679-1.453-4.003-3.092-4.044-4.979v-3.59c0-.047.029-.087.075-.103l3.925-1.301 3.925 1.301c.045.016.075.056.075.103zm-.361 7.587c.225.266.361.54.361.808 0 1.18-2.352 2.5-5.5 2.5s-5.5-1.32-5.5-2.5c0-.7.842-1.444 2.174-1.938-.911-.823-1.796-1.856-2.399-3.104-.903.327-2.021.542-3.275.542-3.148 0-5.5-1.32-5.5-2.5s2.352-2.5 5.5-2.5c.918 0 1.756.121 2.5.31v-2.058c-.78-.161-1.618-.252-2.5-.252-4.206.001-7.5 1.978-7.5 4.501v8c0 2.523 3.294 4.5 7.5 4.5.624 0 1.234-.059 1.833-.146.937 1.842 3.751 3.146 7.167 3.146 4.206 0 7.5-1.977 7.5-4.5v-4c0-.741-.291-1.433-.799-2.043-.514.486-1.049.896-1.562 1.235zm-19.639-3.109c1.36.875 3.303 1.418 5.5 1.418 1.193 0 2.307-.164 3.299-.449-.912.637-1.522 1.435-1.721 2.322-.513.076-1.038.127-1.577.127-3.148 0-5.5-1.32-5.5-2.5v-.918zm0 4.918v-.918c1.36.875 3.303 1.418 5.5 1.418.508 0 1.008-.038 1.5-.096v1.98c-.489.068-.988.115-1.5.115-3.148 0-5.5-1.32-5.5-2.5zm14.5 5.5c-3.148 0-5.5-1.32-5.5-2.5v-.918c1.36.875 3.303 1.418 5.5 1.418s4.14-.543 5.5-1.418v.918c0 1.18-2.352 2.5-5.5 2.5z"/></svg>