<svg id="Layer_1" viewBox="0 0 24 24" xmlns="http://www.w3.org/2000/svg" data-name="Layer 1"><path d="m21 5h-4.059l.441-3h4.617v-2h-6.381l-.656 5h-5.963c-1.654 0-3 1.346-3 3v3h2v-3c0-.551.449-1 1-1h8.184c-.112.314-.184.648-.184 1v14h-3.495c-.309.749-.754 1.424-1.301 2h11.795v-16c0-1.654-1.346-3-3-3zm1 17h-3v-14c0-.551.449-1 1-1h1c.551 0 1 .449 1 1zm-12.575-6.579c.673-1.061.575-2.421.575-2.421s-1.809-.134-2.883.939c-.2.2-.351.434-.482.676-.332-.959-.776-1.628-.806-1.673l-1.661 1.114c.005.007.251.391.475.944h-.235c-2.431 0-4.409 2.019-4.409 4.5s1.978 4.5 4.409 4.5c.543 0 1.085-.104 1.591-.304.506.2 1.047.304 1.591.304 2.431 0 4.409-2.019 4.409-4.5 0-1.811-1.06-3.366-2.575-4.079zm-1.835 6.579c-.566.024-1.112-.267-1.591-.544-.479.277-1.024.568-1.591.544-1.329 0-2.409-1.122-2.409-2.5s1.081-2.5 2.409-2.5h3.182c1.329 0 2.409 1.122 2.409 2.5s-1.081 2.5-2.409 2.5z"/></svg>