<?xml version="1.0" encoding="UTF-8"?>
<svg xmlns="http://www.w3.org/2000/svg" id="Layer_1" data-name="Layer 1" viewBox="0 0 24 24">
  <path d="M20.522,12.572c-1.022-.306-1.854-.505-2.588-.682-1.804-.433-2.697-.647-3.935-1.81V3.002c0-.939-.385-1.766-1.085-2.327-.72-.578-1.688-.803-2.585-.603l-4.536,1.93H0V24.002H9v-3.666l4.17,1.525,.181,.047c.214,.035,.432,.038,.649,.054v2.041h2v-2h2v2h2v-2h2v2h2v-6c0-2.236-1.204-4.822-3.478-5.43ZM6,4.002v3H2v-3H6ZM2,22.002v-2H7v2H2Zm6.833-3.857l-.178-.047c-.379-.063-.767-.096-1.152-.096H2V9.002H6c1.103,0,2-.897,2-2V3.231l2.84-1.221c.283-.039,.601,.045,.824,.225,.223,.179,.336,.437,.336,.767v6.634l-2.498,1.435,.996,1.734,2.168-1.246c.54,.501,1.049,.883,1.553,1.168l-1.254,2.196,1.736,.992,1.389-2.432c.43,.123,.883,.233,1.378,.352,.708,.17,1.512,.362,2.509,.66,1.266,.339,2.022,2.049,2.022,3.506v2h-7.5c-.244,0-.491-.019-.735-.054l-4.932-1.804Z"/>
</svg>
