<svg id="Layer_1" viewBox="0 0 24 24" xmlns="http://www.w3.org/2000/svg" data-name="Layer 1"><path d="m19 20h-2v-2h2zm5-17v9h-.092c-.231-1.366-.919-2.576-1.908-3.463v-.537h-9v2h-2v-2h-3v3h2v2h-2v3h2v2h-2v4h2.101c.151.744.481 1.416.922 2h-11.023v-21c0-1.654 1.346-3 3-3h18c1.654 0 3 1.346 3 3zm-18 15h-4v4h4zm0-5h-4v3h4zm0-5h-4v3h4zm0-6h-3c-.551 0-1 .449-1 1v3h4zm5 0h-3v4h3zm5 0h-3v4h3zm6 1c0-.551-.449-1-1-1h-3v4h4zm0 11h2v7c0 1.654-1.346 3-3 3h-6c-1.654 0-3-1.346-3-3v-7h2v-1c0-2.206 1.794-4 4-4s4 1.794 4 4zm-6 0h4v-1c0-1.103-.897-2-2-2s-2 .897-2 2zm6 2h-8v5c0 .551.449 1 1 1h6c.551 0 1-.449 1-1z"/></svg>