<svg id="Layer_1" viewBox="0 0 24 24" xmlns="http://www.w3.org/2000/svg" data-name="Layer 1"><path d="m9 12c3.309 0 6-2.691 6-6s-2.691-6-6-6-6 2.691-6 6 2.691 6 6 6zm0-10c2.206 0 4 1.794 4 4s-1.794 4-4 4-4-1.794-4-4 1.794-4 4-4zm-4 12h5v2h-5c-1.654 0-3 1.346-3 3v5h-2v-5c0-2.757 2.243-5 5-5zm16 3h-9v7h9c1.103 0 2-.897 2-2h1v-3h-1c0-1.103-.897-2-2-2zm-5 5v-3h5v3s-5 0-5 0zm-.5-9c1.264 0 .441-3.408 2.5-6 2.13 2.449 6 5.006 6 8.73 0 .058 0 .313-.003.65-.536-.612-1.247-1.061-2.063-1.258-.31-1.659-1.816-3.187-3.341-4.667-.084.363-.147.724-.208 1.071-.214 1.214-.612 3.475-2.885 3.475h-3.5c.257-1.526 1.308-3.116 2.166-4 0 0 .361 2 1.334 2z"/></svg>