<?xml version="1.0" encoding="UTF-8"?>
<svg xmlns="http://www.w3.org/2000/svg" id="Layer_1" data-name="Layer 1" viewBox="0 0 24 24">
  <path d="M10,2.5c0-1.381,1.119-2.5,2.5-2.5s2.5,1.119,2.5,2.5-1.119,2.5-2.5,2.5-2.5-1.119-2.5-2.5Zm10,10.882v10.618h-2V14.599c-1.368-.779-2.816-1.94-4.017-3.195-.062,1.338-.042,2.96-.016,4.884,.022,1.415,.037,3.157,.033,4.712h-2v3h-2v-3h-2v3h-2v-3h-1.962c.034-1.294-.655-9.235,3.007-13.495,.961-.999,2.124-1.505,3.455-1.505,1.751-.104,2.946,1.394,3.808,2.71,1.43,1.913,3.65,3.742,5.692,4.672Zm-8.081-4.537c-.301-.498-.819-.859-1.419-.845-.777,0-1.436,.292-2.013,.891-2.024,2.102-2.48,7.344-2.5,10.109h6.01c-.006-.942-.018-1.838-.029-2.685-.037-2.703-.066-4.838,.135-6.509,.041-.34-.025-.671-.184-.961Z"/>
</svg>
