<svg id="Layer_1" viewBox="0 0 24 24" xmlns="http://www.w3.org/2000/svg" data-name="Layer 1"><path d="m24 18c-.322 0-.698-.057-1.104-.158l-.742 6.158h-6.154v-2h4.381l.591-4.907c-2.183-1.121-4.543-3.24-5.362-6.093h-4.316l.602 5h-2.014l-.844-7h14.924l-.581 4.819c-.511-.21-1.206-.602-1.878-1.135l.203-1.683h-3.991c1.225 3.081 4.883 5 6.285 5v2zm-20.891-2c-.073-1.151-.123-2.396-.123-3.735 0-4.827.606-8.417.89-9.832 1.232-.148 3.94-.433 6.624-.433s5.37.284 6.597.433c.166.83.442 2.427.643 4.567h2.014c-.44-4.331-.729-5.089-1.022-6.363-1.186-.151-3.662-.588-8.231-.637-4.578.049-7.064.486-8.259.636-.291 1.329-1.174 4.213-1.255 11.629 0 1.336.045 2.584.115 3.735zm-3.109 8h6v-2h-6zm8 0h6v-2h-6zm2-6h-6v2h6z"/></svg>