<svg id="Layer_1" viewBox="0 0 24 24" xmlns="http://www.w3.org/2000/svg" data-name="Layer 1"><path d="m21 2.5c0-.828.672-1.5 1.5-1.5s1.5.672 1.5 1.5-.672 1.5-1.5 1.5-1.5-.672-1.5-1.5zm-14.974 18.383c.01-.121.03-.24.049-.359-2.451-1.61-4.075-4.379-4.075-7.524 0-4.962 4.037-9 9-9 3.145 0 5.915 1.625 7.524 4.076.975.16 1.877.607 2.589 1.322.168.169.307.358.446.546-.51-1.759-1.451-3.336-2.695-4.614.689-.546 1.137-1.381 1.137-2.329 0-1.657-1.343-3-3-3-.904 0-1.706.409-2.256 1.041-.341-.617-.99-1.041-1.744-1.041-1.103 0-2 .897-2 2-1.616 0-3.146.359-4.529.987-.455-.596-1.163-.987-1.971-.987-1.379 0-2.5 1.121-2.5 2.5 0 .177.035.344.07.51-1.124-.071-2.075.871-2.071 1.989 0 .695.36 1.298.899 1.653-.576 1.334-.899 2.803-.899 4.347 0 4.381 2.581 8.161 6.297 9.929-.23-.652-.327-1.346-.271-2.046zm15.224-8.885c-.291 0-.565.058-.829.141-.251-1.222-1.42-2.161-2.672-2.139-.971 0-1.821.51-2.309 1.273-.363-.173-.759-.273-1.173-.273-1.515 0-2.747 1.231-2.747 2.743l-.015 4.61c-.771-.134-1.585.019-2.236.488-1.499 1.032-1.687 3.319-.363 4.582l.606.578h2.898l-2.106-2.008c-.436-.42-.372-1.184.134-1.528.381-.273.975-.192 1.356.19l1.699 1.701.027-8.608c0-.411.335-.746.747-.746.391-.007.731.32.739.712l-.005 5.288h2.014l-.01-6.256c0-.41.334-.744.745-.744.405-.007.757.347.746.754l.005 6.246h2v-4.254c0-.413.337-.749.75-.749.407-.007.761.349.75.759v9.244h2v-9.239c.039-1.483-1.267-2.795-2.75-2.764zm-13.146 5.212c.372-.266.78-.454 1.199-.601-1.356-.641-2.303-2.012-2.303-3.608 0-2.206 1.794-4 4-4v-2c-3.309 0-6 2.691-6 6 0 1.966.955 3.709 2.421 4.804.205-.211.425-.411.668-.586.005-.003.01-.005.015-.009z"/></svg>