<?xml version="1.0" encoding="UTF-8"?>
<svg xmlns="http://www.w3.org/2000/svg" id="Layer_1" data-name="Layer 1" viewBox="0 0 24 24">
  <path d="M10.932,18.462l2.81-5.462h-4.126c-.509,0-.993-.244-1.297-.652-.303-.409-.396-.943-.249-1.43l3.306-6.381,1.773,.924-2.887,5.54h4.134c.592,0,1.133,.324,1.412,.845,.27,.501,.253,1.103-.039,1.587l-3.058,5.944-1.779-.914ZM3,8h5v-2h-3.991c1.877-2.49,4.837-4,7.991-4,5.514,0,10,4.486,10,10h2C24,5.383,18.617,0,12,0,8.524,0,5.256,1.542,3,4.104V1H1V6c0,1.103,.897,2,2,2Zm18,8h-5v2h3.991c-1.877,2.49-4.837,4-7.991,4-5.514,0-10-4.486-10-10H0c0,6.617,5.383,12,12,12,3.476,0,6.744-1.542,9-4.104v3.104h2v-5c0-1.103-.897-2-2-2Z"/>
</svg>
