<?xml version="1.0" encoding="UTF-8"?>
<svg xmlns="http://www.w3.org/2000/svg" id="Layer_1" data-name="Layer 1" viewBox="0 0 24 24">
  <path d="m23,19h-5v-1h4c.553,0,1-.447,1-1s-.447-1-1-1h-4v-1.186l.612-.623c.48-.465.52-1.222.091-1.735-.428-.511-1.18-.607-1.723-.214l-2.077,1.758h-3.902V5h-2V0h-2v5h-3V0h-2v5H0v12c0,3.859,3.141,7,7,7h14c.553,0,1-.447,1-1s-.447-1-1-1h-3v-1h5c.553,0,1-.447,1-1s-.447-1-1-1ZM2,7h3.804l-3.804,3.48v-3.48Zm0,9.465v-3.274l6.766-6.191h.234v3.06l-7,6.405Zm.362,2.378l6.638-6.073v3.226l-5.128,4.872c-.661-.536-1.19-1.223-1.51-2.026Zm4.638,3.157c-.429,0-.838-.071-1.235-.173l2.206-2.096,2.444,2.269h-3.415Zm9,0h-2.646l-3.93-3.649,1.717-1.632,4.859,4.511v.769Zm-2.694-6h2.694v2.502l-2.694-2.502Z"/>
</svg>
