<svg id="Layer_1" viewBox="0 0 24 24" xmlns="http://www.w3.org/2000/svg" data-name="Layer 1"><path d="m24 20v-15c0-1.654-1.346-3-3-3h-2v2h2c.551 0 1 .449 1 1v9h-20v-9c0-.551.449-1 1-1h2v-2h-2c-1.654 0-3 1.346-3 3v15h11v2h-5v2h12v-2h-5v-2zm-22-4h20v2h-20zm9.375-3.594.582.291c1.573-.674 4.849-1.866 5.043-5.965v-3.478c0-.814-.52-1.534-1.293-1.791l-3.707-1.228-3.707 1.229c-.773.256-1.293.976-1.293 1.791v3.477c0 3.237 3.349 5.162 4.375 5.675zm-2.375-9.069 3-.995 3 .995v3.394c0 2.189-2.032 3.353-2.955 3.769-.839-.457-3.045-1.84-3.045-3.769z"/></svg>