<?xml version="1.0" encoding="UTF-8"?>
<svg xmlns="http://www.w3.org/2000/svg" id="Layer_1" data-name="Layer 1" viewBox="0 0 24 24">
  <path d="M12,8.5c1.933,0,3.5,1.567,3.5,3.5,0,.048-.012,.093-.014,.141-2.201-1.83-4.669-2.392-6.004-2.563,.637-.662,1.527-1.078,2.518-1.078Zm-3.5,3.5c0,1.933,1.567,3.5,3.5,3.5,1.115,0,2.097-.531,2.738-1.344-2.475-2.43-5.739-2.638-6.188-2.655-.024,.164-.05,.328-.05,.498Zm15.5,0c0,6.617-5.383,12-12,12S0,18.617,0,12,5.383,0,12,0s12,5.383,12,12Zm-21.954-.912L12,3.477l9.954,7.611c-.463-5.088-4.748-9.088-9.954-9.088S2.509,6,2.046,11.088ZM12,5.994l-7.854,6.006,7.854,6.006,7.854-6.006-7.854-6.006Zm9.954,6.918l-9.954,7.611L2.046,12.912c.463,5.088,4.747,9.088,9.954,9.088s9.491-4,9.954-9.088Z"/>
</svg>
