<svg id="Layer_1" viewBox="0 0 24 24" xmlns="http://www.w3.org/2000/svg" data-name="Layer 1"><path d="m15 16h-2v6h-2v-5.303c1.31-1.17 2-2.964 2-4.697v-1h-2c0 .551-.448 1-1 1h-5.5c-1.93 0-3.5 1.57-3.5 3.5v6.5h-1v2h24v-2h-9zm-6 6h-2v-4h.5c.539 0 1.037-.078 1.5-.208zm-6-6.5c0-.827.673-1.5 1.5-1.5h5.5c.203 0 .402-.021.594-.059-.529 1.175-1.57 2.059-3.094 2.059h-4.5zm0 2.5h2v4h-2zm21-13.27v2.829l-2.163 2.163-4.395-.656-2.356 1.888-2.396-2.397 1.741-2.457-.652-4.437 1.662-1.662h2.828l-2.365 2.366.509 3.459 1.252 1.251 3.471.518 2.864-2.864z"/></svg>