<svg id="Layer_1" viewBox="0 0 24 24" xmlns="http://www.w3.org/2000/svg" data-name="Layer 1"><path d="m12 5h2s0 3-3 3h-2s0-3 3-3zm12 13.5v1.618l-5.088-2.544c-.269 2.374-1.086 4.01-1.518 4.873l-.666 1.332-3.649-4.171c-1.277 1.604-4.073 4.392-8.079 4.392h-1.86l1.027-1.554c.019-.027 1.833-2.806 1.833-5.946 0-.847-.195-1.684-.559-2.5h-.941c-1.736 0-2.241.402-2.378.576l-.921 1.169-.734-1.295c-.492-.868-.601-1.857-.312-2.861.409-1.427 1.764-2.927 3.864-3.413.19-4.319 4.141-8.176 8.481-8.176 1.424 0 2.842.299 4.092.563 1.063.225 2.068.437 2.908.437.618 0 1.547-.243 2.148-.469l1.352-.509v1.445c0 1.233-.299 2.123-.562 2.907-.234.699-.438 1.303-.438 2.126 0 .29.17.797.386 1.44.604 1.801 1.614 4.814 1.614 10.56zm-19.5-6.5h1.386l.523-.762-1.23-1.231c-1.736.096-2.82 1.15-3.103 2.133-.02.068-.035.136-.047.203.66-.229 1.48-.343 2.471-.343zm17.47 4.867c-.165-4.37-.975-6.785-1.48-8.292-.284-.847-.489-1.459-.489-2.076 0-1.15.288-2.007.542-2.763.103-.306.199-.594.277-.893-1.593.332-3.014.02-4.641-.324-1.211-.255-2.464-.52-3.679-.52-3.183 0-6.194 2.867-6.472 6.028l2.973 2.973-1.642 2.386c.422 1.01.641 2.053.641 3.114 0 2.062-.625 3.942-1.204 5.244 3.307-.95 5.324-4.222 5.348-4.261l.708-1.169 3.38 3.859c.396-1.021.769-2.401.769-4.174v-1.618l4.97 2.485z"/></svg>