<svg id="Layer_1" viewBox="0 0 24 24" xmlns="http://www.w3.org/2000/svg" data-name="Layer 1"><path d="m10 2c0-1.105.895-2 2-2s2 .895 2 2-.895 2-2 2-2-.895-2-2zm-5.75 12.6c-.358 0-.65.292-.65.65v3.5c0 .358.292.65.65.65s.65-.292.65-.65v-3.5c0-.358-.292-.65-.65-.65zm5.75 0h-.9v1.8h.9c.496 0 .9-.404.9-.9s-.404-.9-.9-.9zm14-1.1v10.5h-24v-10.5c0-1.93 1.57-3.5 3.5-3.5h.042l5.272-5.582c.409.538.95.969 1.575 1.244l-4.097 4.338h11.417l-4.097-4.338c.625-.276 1.167-.707 1.575-1.244l5.272 5.582h.042c1.93 0 3.5 1.57 3.5 3.5zm-17.5 1.75c0-1.241-1.009-2.25-2.25-2.25s-2.25 1.009-2.25 2.25v3.5c0 1.241 1.009 2.25 2.25 2.25s2.25-1.009 2.25-2.25zm6 .25c0-1.381-1.119-2.5-2.5-2.5h-2.5v8h1.6v-3h.784c.938-.018 1.546-.452 1.604-.491.644-.452 1.012-1.162 1.012-2.009zm3.5-2.5h-3v8h3v-1.6h-1.4v-1.6h1.4v-1.6h-1.4v-1.6h1.4zm6 0h-1.6v4.063l-1.8-4.054v-.009h-1.6v8h1.6v-4.054l1.8 4.054h1.6z"/></svg>