<?xml version="1.0" encoding="UTF-8"?>
<svg xmlns="http://www.w3.org/2000/svg" id="Layer_1" data-name="Layer 1" viewBox="0 0 24 24">
  <path d="M8,11c-1.381,0-2.5-1.119-2.5-2.5s1.119-2.5,2.5-2.5,2.5,1.119,2.5,2.5-1.119,2.5-2.5,2.5Zm-1.5,1c-1.379,0-2.5,1.121-2.5,2.5v1.5h2v-1.5c0-.275,.225-.5,.5-.5h3c.275,0,.5,.225,.5,.5v1.5h2v-1.5c0-1.379-1.121-2.5-2.5-2.5h-3ZM16.5,3.778v4.444l4-2.222-4-2.222Zm-4.5,2.222c0-3.309,2.691-6,6-6s6,2.691,6,6-2.691,6-6,6-6-2.691-6-6Zm2,0c0,2.206,1.794,4,4,4s4-1.794,4-4-1.794-4-4-4-4,1.794-4,4Zm8,12H2V4.5c0-.276,.225-.5,.5-.5h7.762c.183-.71,.458-1.381,.817-2H2.5C1.121,2,0,3.122,0,4.5v15.5H11v2H6v2h12v-2h-5v-2h11V11.279c-.572,.65-1.246,1.205-2,1.642v5.079Z"/>
</svg>
