<?xml version="1.0" encoding="UTF-8"?>
<svg xmlns="http://www.w3.org/2000/svg" id="Layer_1" data-name="Layer 1" viewBox="0 0 24 24">
  <path d="m24,5v17h-3v-2h1V5c0-.551-.448-1-1-1H3c-.552,0-1,.449-1,1v15h9v2H0V5c0-1.654,1.346-3,3-3h18c1.654,0,3,1.346,3,3Zm-5,2H5v2h14v-2Zm1,9c0,1.005-.385,1.914-1,2.618v5.382l-3-2.5-3,2.5v-5.382c-.615-.703-1-1.612-1-2.618,0-2.206,1.794-4,4-4s4,1.794,4,4Zm-6,0c0,1.103.897,2,2,2s2-.897,2-2-.897-2-2-2-2,.897-2,2Zm-1.314-5h-7.686v2h5.809c.465-.802,1.106-1.488,1.877-2Zm-7.686,4v2h5.09c-.055-.326-.09-.659-.09-1s.035-.674.09-1h-5.09Z"/>
</svg>
