<svg id="Layer_1" viewBox="0 0 24 24" xmlns="http://www.w3.org/2000/svg" data-name="Layer 1"><path d="m24 12c0 6.617-5.383 12-12 12-2.56 0-4.977-.794-7-2.257v2.257h-2v-4c0-1.103.897-2 2-2h4v2h-2.986c1.718 1.293 3.788 2 5.986 2 5.514 0 10-4.486 10-10 0-1.256-.229-2.479-.682-3.636l1.863-.729c.543 1.39.818 2.858.818 4.364zm-12-10c2.199 0 4.269.707 5.986 2h-2.986v2h4c1.103 0 2-.897 2-2v-4h-2v2.257c-2.023-1.463-4.44-2.257-7-2.257-6.617 0-12 5.383-12 12 0 1.506.275 2.975.818 4.364l1.863-.729c-.452-1.156-.682-2.38-.682-3.636.001-5.513 4.487-9.999 10.001-9.999zm6.562 7.366-1.383.798c.204.575.32 1.191.32 1.835s-.117 1.261-.32 1.835l1.383.798-1 1.732-1.382-.798c-.803.94-1.915 1.604-3.181 1.836v1.595h-2v-1.595c-1.265-.233-2.378-.897-3.181-1.836l-1.382.798-1-1.732 1.383-.798c-.204-.575-.32-1.191-.32-1.835s.117-1.261.32-1.835l-1.383-.798 1-1.732 1.382.798c.803-.94 1.915-1.604 3.181-1.836v-1.595h2v1.595c1.265.233 2.378.897 3.181 1.836l1.382-.798zm-8.562 1.634h-2v3h2zm3-2h-2v5h2zm3 1h-2v4h2z"/></svg>