<?xml version="1.0" encoding="UTF-8"?>
<svg xmlns="http://www.w3.org/2000/svg" id="Layer_1" data-name="Layer 1" viewBox="0 0 24 24">
  <path d="M24,21.008l-2.371-5.008h1.6l-2.838-5.008h1.609l-3.5-6c-.406-.606-.791-.992-1.5-.992-.352,0-.623,.096-.857,.265l-1.766-2.906c-.292-.372-1.069-1.359-2.377-1.359s-2.062,.967-2.35,1.331l-1.783,2.941c-.236-.174-.511-.272-.867-.272-.709,0-1.094,.386-1.5,.992l-3.5,6h1.609L.771,16h1.6L0,21.008H6v2.992h2v-2.992h3v2.992h2v-2.992h3v2.992h2v-2.992h6ZM11,12v7H4.882l2.5-5h-1.648l3-5h-1.457L11.292,2.481c.478-.66,.989-.593,1.442,.027l3.989,6.493h-1.457l3,5h-1.648l2.5,5h-6.118v-7h-2Z"/>
</svg>
