<svg id="Layer_1" viewBox="0 0 24 24" xmlns="http://www.w3.org/2000/svg" data-name="Layer 1"><path d="m24 8.561c0-2.481-2.019-4.5-4.5-4.5h-1.125c-.691-.579-1.547-.966-2.497-1.045-.44-1.731-2.012-3.016-3.878-3.016s-3.438 1.284-3.878 3.016c-.918.077-1.751.438-2.43.984h-1.192c-2.481 0-4.5 2.019-4.5 4.5 0 1.288.558 2.495 1.503 3.338-.331.674-.503 1.407-.503 2.162 0 1.561.754 3.035 2 3.974v2.308c.021 2.428 1.704 3.658 5 3.658.735 0 1.344-.058 1.881-.161.611.146 1.315.222 2.119.222.744 0 1.395-.072 1.974-.197l-.003.015c.569.122 1.232.182 2.029.182 3.296 0 4.979-1.23 5-3.667v-2.297c1.263-.942 2-2.39 2-3.976 0-.755-.172-1.488-.503-2.162.945-.843 1.503-2.05 1.503-3.338zm-15.5-3.561h1.5v-1c0-1.103.897-2 2-2s2 .897 2 2v1h1.5c1.379 0 2.5 1.121 2.5 2.5 0 .908-.507 1.746-1.321 2.187l-1.035.561c.618.769 1.422 1.718 1.356 2.753.03 1.289-.859 2.327-2 2.864v4.46c-.007.73-.188 1.445-2 1.629v-10.954h-2v10.953c-1.812-.184-1.993-.897-2-1.62v-4.469c-1.141-.537-2.03-1.576-2-2.864-.066-1.034.739-1.986 1.356-2.753l-1.035-.561c-.814-.44-1.321-1.278-1.321-2.187 0-1.379 1.121-2.5 2.5-2.5zm-3.5 15.272v-3.408c-1.141-.537-2.03-1.576-2-2.864-.066-1.034.739-1.986 1.356-2.753l-1.035-.561c-.814-.44-1.321-1.278-1.321-2.187 0-1.298.997-2.355 2.264-2.476-.162.464-.264.957-.264 1.476 0 1.288.558 2.495 1.503 3.338-.331.674-.503 1.407-.503 2.162 0 1.561.754 3.035 2 3.974v3.368c.005.599.114 1.123.32 1.576-2.11-.13-2.313-.882-2.32-1.645zm15.679-9.525-1.035.561c.618.769 1.421 1.718 1.356 2.753.03 1.288-.861 2.325-2 2.865v3.398c-.007.776-.213 1.533-2.356 1.656.228-.469.351-1.016.356-1.647v-3.359c1.246-.938 2-2.413 2-3.974 0-.755-.172-1.488-.503-2.162.945-.843 1.503-2.05 1.503-3.338 0-.496-.096-.967-.245-1.414 1.258.13 2.245 1.183 2.245 2.474 0 .908-.507 1.746-1.321 2.187z"/></svg>