<svg id="Layer_1" viewBox="0 0 24 24" xmlns="http://www.w3.org/2000/svg" data-name="Layer 1"><path d="m10.101 22c.152.743.482 1.416.924 2h-11.064l3.765-21.517c.251-1.438 1.495-2.483 2.955-2.483h10.641c1.459 0 2.701 1.043 2.955 2.48l.964 5.477c-.652-.42-1.39-.717-2.182-.858l-.752-4.272c-.084-.479-.499-.827-.985-.827h-10.641c-.487 0-.901.348-.985.828l-3.355 19.172zm13.899-8v7c0 1.654-1.346 3-3 3h-6c-1.654 0-3-1.346-3-3v-7h2v-1c0-2.206 1.794-4 4-4s4 1.794 4 4v1zm-8 0h4v-1c0-1.103-.897-2-2-2s-2 .897-2 2zm6 2h-8v5c0 .551.449 1 1 1h6c.551 0 1-.449 1-1zm-3 2h-2v2h2zm-7.989-5.995 1.079-.006c.121-.72.369-1.395.722-2.004l-1.812.01zm1.989-8.005h-2v4h2z"/></svg>