<svg id="Layer_1" viewBox="0 0 24 24" xmlns="http://www.w3.org/2000/svg" data-name="Layer 1"><path d="m11 15.493c2.575-.849 4-2.746 4-5.493s-1.425-4.644-4-5.493v-1.507h-2.5v-3h-2v3h-2.5v1.507c-2.575.849-4 2.746-4 5.493s1.425 4.644 4 5.493v1.507h2.667l-.667 4h3l-.667-4h2.667zm-3.5-9.247c.589.542 1.5 1.71 1.5 3.754s-.915 3.217-1.501 3.756c-.586-.537-1.499-1.703-1.499-3.756s.913-3.214 1.5-3.754zm5.5 3.754c0 2.188-1.312 3.228-2.926 3.684.517-.903.926-2.113.926-3.684s-.409-2.781-.926-3.684c1.614.456 2.926 1.496 2.926 3.684zm-11 0c0-2.188 1.312-3.228 2.926-3.684-.517.903-.926 2.113-.926 3.684s.409 2.781.926 3.684c-1.614-.456-2.926-1.496-2.926-3.684zm22 3c0-2.747-1.425-4.644-4-5.493v-1.507h-2.5v-6h-2v5.254c.975 1.255 1.448 2.928 1.49 4.536.503.654 1.01 1.684 1.01 3.21 0 2.456-1.303 3.634-1.79 3.991-.923-.021-1.889-.14-2.739-.456-.147.089-.316.159-.471.24v3.224h2.667l-.667 4h3l-.667-4h2.667v-1.507c2.575-.849 4-2.746 4-5.493zm-4.926 3.684c.517-.903.926-2.113.926-3.684s-.409-2.782-.927-3.685c1.614.455 2.927 1.496 2.927 3.685s-1.312 3.228-2.926 3.684z"/></svg>