<svg id="Layer_1" viewBox="0 0 24 24" xmlns="http://www.w3.org/2000/svg" data-name="Layer 1"><path d="m24 19v-15.5c0-1.378-1.122-2.5-2.5-2.5h-19c-1.378 0-2.5 1.122-2.5 2.5v15.5h11v2h-5v2h12v-2h-5v-2zm-22-2v-13.5c0-.276.224-.5.5-.5h8.5v2h2v-2h8.5c.276 0 .5.224.5.5v13.5h-9v-2h-2v2zm11-8h-2v-2h2zm0 4h-2v-2h2zm-5-6.961v7.961h-2v-4.582l-.573.591-1.437-1.392 2.499-2.58h1.51zm12 7.961h-5v-1c0-1.138.885-1.944 1.666-2.655.686-.625 1.334-1.215 1.334-1.845 0-.276-.224-.5-.5-.5s-.5.224-.5.5h-2c0-1.378 1.122-2.5 2.5-2.5s2.5 1.122 2.5 2.5c-.013 1.631-1.217 2.61-2.18 3.5h2.18z"/></svg>