<svg id="Layer_1" viewBox="0 0 24 24" xmlns="http://www.w3.org/2000/svg" data-name="Layer 1"><path d="m20 0c-2.206 0-4 1.794-4 4s1.794 4 4 4 4-1.794 4-4-1.794-4-4-4zm0 6c-1.103 0-2-.897-2-2s.897-2 2-2 2 .897 2 2-.897 2-2 2zm-11.417 2h6.833l-2.709 2.709c-.378.377-1.036.377-1.414 0zm5.538 4.123 1.879-1.879v4.756h-8v-4.756l1.879 1.879c.585.585 1.353.877 2.121.877s1.536-.292 2.121-.877zm3.879-2.472c.626.222 1.298.349 2 .349v8c0 1.302-.839 2.402-2 2.816v3.184h-2v-3h-8v3h-2v-3.184c-1.161-.414-2-1.514-2-2.816v-12c0-1.302.839-2.402 2-2.816v-3.184h2v3h6.09c-.055.326-.09.659-.09 1s.035.674.09 1h-7.09c-.552 0-1 .449-1 1v12c0 .551.448 1 1 1h10c.552 0 1-.449 1-1z"/></svg>