<svg id="Layer_1" viewBox="0 0 24 24" xmlns="http://www.w3.org/2000/svg" data-name="Layer 1"><path d="m14.5 14.082v3.837c0 1.148.933 2.082 2.082 2.082s2.082-.933 2.082-2.082v-3.837c0-1.148-.933-2.082-2.082-2.082s-2.082.933-2.082 2.082zm2.563 0v3.837c0 .266-.216.482-.482.482s-.482-.216-.482-.482v-3.837c0-.266.216-.482.482-.482s.482.216.482.482zm-11.563 2.918v.7c0 .386.314.7.7.7s.7-.314.7-.7v-5.7h1.6v5.7c0 1.269-1.031 2.3-2.3 2.3s-2.3-1.031-2.3-2.3v-.7zm18.5-5v8h-1.6l-1.3-3.712v3.712h-1.6v-8h1.6v.009l1.3 3.626v-3.635zm-11.759 5.619c0-.5-.194-.688-1.091-1.056-.501-.206-2.026-.833-2.026-2.372 0-1.249.958-2.191 2.228-2.191 1.118 0 1.91.77 1.997.857l-1.133 1.129c-.11-.107-.481-.387-.864-.387s-.628.232-.628.591c0 .14 0 .467 1.035.892.779.32 2.082.855 2.082 2.536 0 1.533-1.357 2.381-2.296 2.381-1.536 0-2.469-1.098-2.508-1.145l1.229-1.024c.015.017.506.57 1.279.57.082-.002.696-.181.696-.781zm-10.241-14.619c0-.551.449-1 1-1h8v7h7v1h2v-2.414l-7.586-7.586h-9.414c-1.654 0-3 1.346-3 3v21h20v-2h-18zm11 .414 3.586 3.586h-3.586z"/></svg>