<?xml version="1.0" encoding="UTF-8"?>
<svg xmlns="http://www.w3.org/2000/svg" id="Layer_1" data-name="Layer 1" viewBox="0 0 24 24">
  <path d="M21.5,16.954c-.007-.677-.279-1.308-.754-1.764l-1.875-1.869c.082-.428,.129-.869,.129-1.321s-.047-.892-.129-1.32l1.852-1.846c1.011-.932,1.033-2.63,.045-3.58l-2.021-2.021c-.937-.993-2.642-.96-3.556,.021l-1.868,1.875c-.429-.082-.87-.129-1.322-.129s-.892,.047-1.32,.129l-1.846-1.851c-.929-1.018-2.626-1.015-3.58-.045l-2.021,2.021c-1.001,.958-.957,2.637,.021,3.556l1.875,1.869c-.082,.428-.129,.869-.129,1.321s.047,.892,.129,1.32l-1.852,1.846c-1.011,.932-1.033,2.63-.045,3.58l2.021,2.021c.957,1,2.636,.958,3.556-.021l1.868-1.875c.429,.082,.87,.129,1.322,.129s.892-.047,1.32-.129l1.846,1.851c.93,1.012,2.63,1.034,3.58,.045l2.021-2.021c.493-.493,.753-1.137,.732-1.792Zm-4.881-12.301c.165-.198,.54-.196,.713-.006l2.021,2.021c.205,.207,.196,.531-.03,.737l-1.205,1.202c-.636-1.142-1.582-2.088-2.724-2.724l1.225-1.23ZM4.652,7.38c-.198-.158-.196-.566-.006-.712l2.021-2.021c.212-.202,.53-.197,.737,.03l1.202,1.205c-1.142,.636-2.088,1.582-2.724,2.724l-1.23-1.226Zm2.729,11.967c-.166,.197-.541,.199-.713,.006l-2.021-2.021c-.205-.207-.196-.531,.03-.737l1.205-1.202c.636,1.142,1.582,2.088,2.724,2.724l-1.225,1.23Zm-.381-7.347c0-2.757,2.243-5,5-5s5,2.243,5,5-2.243,5-5,5-5-2.243-5-5Zm12.354,5.332l-2.021,2.021c-.199,.213-.532,.193-.737-.03l-1.202-1.205c1.142-.636,2.088-1.582,2.724-2.724l1.23,1.226c.198,.158,.196,.566,.006,.712Zm.646-15.332c0-1.105,.895-2,2-2s2,.895,2,2-.895,2-2,2-2-.895-2-2ZM0,2C0,.895,.895,0,2,0s2,.895,2,2-.895,2-2,2S0,3.105,0,2ZM24,22c0,1.105-.895,2-2,2s-2-.895-2-2,.895-2,2-2,2,.895,2,2Zm-20,0c0,1.105-.895,2-2,2s-2-.895-2-2,.895-2,2-2,2,.895,2,2Z"/>
</svg>
