<svg id="Layer_1" viewBox="0 0 24 24" xmlns="http://www.w3.org/2000/svg" data-name="Layer 1"><path d="m14 18h2v3c0 1.654-1.346 3-3 3h-10c-1.654 0-3-1.346-3-3v-21h16v3.001h-1.001c-.343 0-.675.058-.999.142v-1.143h-12v14h9v2h-9v3c0 .551.449 1 1 1h10c.551 0 1-.449 1-1zm10-10.999v6.999h-6.5l-2.826 1.827c-.723.463-1.672-.057-1.672-.915l-.002-7.911c0-1.1.899-2 1.999-2h7c1.105 0 2.001.895 2.001 2zm-2 2.999h-2l-1.5 1-1.5-1h-2c0 1.105.895 2 2 2h3c1.105 0 2-.895 2-2zm0-1c0-1.105-.895-2-2-2h-3c-1.105 0-2 .895-2 2zm-12 12v-2h-4v2z"/></svg>