<?xml version="1.0" encoding="UTF-8"?>
<svg xmlns="http://www.w3.org/2000/svg" id="Layer_1" data-name="Layer 1" viewBox="0 0 24 24">
  <path d="m23.959,9.497c.143-.879-.103-1.768-.674-2.439-.571-.672-1.404-1.057-2.286-1.057h-7.581L9.364,1.879c-1.134-1.134-3.11-1.134-4.243,0L0,7v15h13.82l2-10h5.073c1.516,0,2.834-1.076,3.066-2.503Zm-9.779.503l-2,10H2V7.828L6.536,3.293c.377-.378,1.042-.372,1.408-.006l2.669,2.713h-3.613v2h14c.294,0,.572.128.762.353.193.228.272.52.224.823-.076.462-.556.825-1.093.825h-6.713Zm8.787,6.042l-2.467-2.414-2.48,2.427c-.658.657-1.02,1.533-1.02,2.469s.365,1.815,1.024,2.474c.636.637,1.537,1.002,2.473,1.002h.001c.937,0,1.839-.365,2.475-1.001.662-.661,1.026-1.54,1.026-2.475s-.364-1.813-1.033-2.482Zm-1.406,3.542c-.265.264-.651.416-1.061.416h0c-.409,0-.795-.151-1.06-.417-.283-.282-.438-.658-.438-1.059s.154-.775.425-1.046l1.075-1.052,1.061,1.038c.283.284.439.66.439,1.061s-.156.777-.439,1.06Z"/>
</svg>
