<?xml version="1.0" encoding="UTF-8"?>
<svg xmlns="http://www.w3.org/2000/svg" id="Layer_1" data-name="Layer 1" viewBox="0 0 24 24">
  <path d="M11,14.5c0,.828-.672,1.5-1.5,1.5s-1.5-.672-1.5-1.5,.672-1.5,1.5-1.5,1.5,.672,1.5,1.5Zm2,0c0,.828,.672,1.5,1.5,1.5s1.5-.672,1.5-1.5-.672-1.5-1.5-1.5-1.5,.672-1.5,1.5Zm9-3.138v-3.362h-3.029l-.854,2h1.883l.011,2.842,.762,.187c.205,.051,1.228,.357,1.228,1.472,0,.827-.673,1.5-1.5,1.5-.179,.002-.899-.148-1.087-.175l-.282,.799c-.916,2.597-4.001,5.377-7.131,5.377s-6.214-2.78-7.131-5.377l-.282-.798c-.193,.027-.903,.174-1.087,.174-.827,0-1.5-.673-1.5-1.5,0-1.114,1.022-1.421,1.217-1.469l.783-.175v-2.856h1.884l-.854-2H2v3.362c-.932,.462-2,1.44-2,3.138,0,1.852,1.446,3.372,3.268,3.492,1.405,3.063,4.866,6.009,8.732,6.009s7.326-2.945,8.732-6.009c1.821-.12,3.268-1.641,3.268-3.492,0-1.697-1.067-2.676-2-3.138Zm-11.339-.362l-1.376-3.224,1.716-2.767v2.99h2v-2.99l1.716,2.767-1.376,3.224h2.175l1.449-3.394L12-.397,7.037,7.606l1.449,3.394h2.175Z"/>
</svg>
