<svg id="Layer_1" viewBox="0 0 24 24" xmlns="http://www.w3.org/2000/svg" data-name="Layer 1"><path d="m22.464 14.958c-.393-1.06-1.359-1.798-2.464-1.931v-1.027h-2v1h-4v-1h-2v1.027c-1.106.132-2.071.871-2.464 1.931-1.149 3.1-1.536 5.97-1.536 6.804 0 1.234 1.004 2.238 2.238 2.238 1.63 0 3.837-2.256 4.747-4h2.029c.91 1.744 3.117 4 4.747 4 1.234 0 2.238-1.004 2.238-2.238 0-.834-.387-3.704-1.536-6.804zm-.702 7.042c-.632-.022-2.695-1.958-3.147-3.316l-.228-.684h-4.774l-.228.684c-.453 1.358-2.516 3.294-3.146 3.316-.131 0-.238-.106-.238-.238 0-.615.334-3.205 1.411-6.108.145-.391.523-.653.94-.653h7.298c.417 0 .795.263.94.653 1.076 2.903 1.411 5.493 1.411 6.108 0 .132-.107.238-.237.238zm-6.762-15h-10v-2h10zm-10 2h5v2h-5zm1.024 13c.042.732.262 1.413.63 2h-6.654v-21c0-1.654 1.346-3 3-3h14c1.654 0 3 1.346 3 3v7h-2v-7c0-.552-.449-1-1-1h-14c-.551 0-1 .448-1 1v19z"/></svg>