<svg id="Layer_1" viewBox="0 0 24 24" xmlns="http://www.w3.org/2000/svg" data-name="Layer 1"><path d="m24.013 1.5c0-.883-1.85-1.5-4.5-1.5s-4.5.617-4.5 1.5h-.013v2.5h-6v-2.5c0-.883-1.85-1.5-4.5-1.5s-4.5.617-4.5 1.5v7.333c0 1.207 1.262 1.963 3.5 2.131v2.069c-2.102.136-3.5.701-3.5 1.467v7.333c0 1.377 1.64 2.167 4.5 2.167s4.5-.79 4.5-2.167v-7.333c0-.767-1.398-1.332-3.5-1.467v-2.069c1.26-.095 2.207-.377 2.797-.82l6.703 5.768v5.921c0 1.377 1.64 2.167 4.5 2.167s4.5-.79 4.5-2.167v-7.333c0-.883-1.85-1.5-4.5-1.5-1.801 0-3.215.289-3.947.749l-6.553-5.638v-2.111h6v2.833c0 1.377 1.64 2.167 4.5 2.167s4.5-.79 4.5-2.167c0 0 .013-7.316.013-7.333zm-17.013 1.273v1.738c-.266.18-1.025.488-2.5.488-1.497 0-2.247-.291-2.5-.457v-1.77c.698.144 1.544.227 2.5.227s1.802-.083 2.5-.227zm0 14.738c-.266.18-1.025.488-2.5.488-1.497 0-2.247-.291-2.5-.457v-1.77c.698.144 1.544.227 2.5.227s1.802-.083 2.5-.227v1.738zm-2.5 4.488c-1.386 0-2.204-.233-2.5-.393v-1.928c.65.194 1.459.321 2.5.321 1.02 0 1.838-.129 2.5-.331v1.938c-.296.159-1.114.393-2.5.393zm0-13c-1.386 0-2.204-.233-2.5-.393v-1.928c.65.194 1.459.321 2.5.321 1.02 0 1.838-.129 2.5-.331v1.938c-.296.159-1.114.393-2.5.393zm15 13c-1.386 0-2.204-.233-2.5-.393v-1.928c.65.194 1.459.321 2.5.321 1.02 0 1.838-.129 2.5-.331v1.938c-.296.159-1.114.393-2.5.393zm2.5-6.227v1.738c-.266.18-1.025.488-2.5.488-1.497 0-2.247-.291-2.5-.457v-1.77c.698.144 1.544.227 2.5.227s1.802-.083 2.5-.227zm0-12.998v1.744c-.276.181-1.032.481-2.487.481-1.522 0-2.272-.3-2.513-.465v-1.764c.701.146 1.552.229 2.513.229.95 0 1.791-.082 2.487-.224zm-2.5 6.224c-1.386 0-2.204-.233-2.5-.393v-1.932c.652.196 1.465.325 2.513.325 1.014 0 1.827-.128 2.487-.327v1.934c-.296.159-1.114.393-2.5.393z"/></svg>