<svg id="Layer_1" viewBox="0 0 24 24" xmlns="http://www.w3.org/2000/svg" data-name="Layer 1"><path d="m23.822 15.818c-.878 1.92-4.326 8.182-11.822 8.182s-10.943-6.261-11.821-8.18c-.239-.521-.239-1.118 0-1.639.704-1.539 2.788-5.317 6.914-7.159 1.61-.716 3.409-1.079 5.239-1.011l-1.158 1.158c-.281.281-.501.607-.683.951-.901.13-1.768.365-2.583.729-3.504 1.565-5.301 4.833-5.911 6.165.753 1.619 3.7 6.986 10.003 6.986s9.25-5.367 10.003-7.013c-.213-.439-.682-1.372-1.432-2.396-.446-.608-.996-1.248-1.653-1.853l1.417-1.417c.731.684 1.347 1.403 1.848 2.087.812 1.106 1.339 2.118 1.638 2.772.238.521.238 1.117 0 1.638zm-11.745-5.309-1.283 1.283 1.414 1.414 1.283-1.283c.678.192 1.405.005 1.925-.511l4.293-4.293 1.336 1.336 1.414-1.414c-.738-.738-.738-1.934 0-2.672l.957-.957c.859-.859.773-2.305-.257-3.046-.809-.582-1.943-.41-2.648.295l-.88.88c-.738.738-1.934.738-2.672 0l-1.414 1.414 1.336 1.336-4.293 4.293c-.522.522-.687 1.259-.511 1.925zm-3.985 1.411c-.673.852-1.091 1.913-1.091 3.08 0 2.757 2.243 5 5 5s5-2.243 5-5c0-.701-.148-1.367-.409-1.974-.522.447-1.136.75-1.803.883.133.339.212.705.212 1.091 0 1.654-1.346 3-3 3s-3-1.346-3-3c0-.616.187-1.188.507-1.665l-1.415-1.415z"/></svg>