<?xml version="1.0" encoding="UTF-8"?>
<svg xmlns="http://www.w3.org/2000/svg" id="Layer_1" data-name="Layer 1" viewBox="0 0 24 24">
  <path d="M21,7H8.067L21.379,1.926,20.667,.057,1.911,7.206l.002,.005c-1.117,.437-1.913,1.519-1.913,2.789v14H24V10c0-1.654-1.346-3-3-3Zm1,15H2V10c0-.552,.449-1,1-1H21c.551,0,1,.448,1,1v12ZM6,12h4v1.6h-2.4v1.801h2.4v1.6h-2.4v3h-1.6V12Zm11.492,1l.508,7h-1.604l-.319-4.402-1.577,3.468-1.577-3.468-.319,4.402h-1.604l.508-7c.044-1.163,1.413-1.353,1.829-.36l1.164,2.56,1.164-2.56c.416-.993,1.784-.803,1.829,.36Z"/>
</svg>
