<?xml version="1.0" encoding="UTF-8"?>
<svg xmlns="http://www.w3.org/2000/svg" id="Layer_1" data-name="Layer 1" viewBox="0 0 24 24">
  <path d="M22,8.432v-1.432c0-1.654-1.346-3-3-3h-3c-1.654,0-3,1.346-3,3v1.432c-.011,.011-.023,.021-.034,.032-.132-1.558-.833-2.981-1.966-4.032v-1.432c0-1.654-1.346-3-3-3h-3c-1.654,0-3,1.346-3,3v1.432C.737,5.603,0,7.235,0,9v15H2V9c0-.198,.016-.393,.042-.585,.211,2.008,1.895,3.585,3.958,3.585h1c2.063,0,3.747-1.576,3.958-3.585,.026,.192,.042,.387,.042,.585v15h2V13c0-.198,.016-.393,.042-.585,.211,2.008,1.895,3.585,3.958,3.585h1c2.063,0,3.747-1.576,3.958-3.585,.026,.192,.042,.387,.042,.585v11h2V13c0-1.765-.737-3.397-2-4.568Zm-13.753,1.119c-.483-.336-1.057-.551-1.69-.551-.661,0-1.258,.231-1.752,.594-.486-.365-.805-.941-.805-1.594v-2.607s0,0,0,0h0V3c0-.551,.449-1,1-1h3c.551,0,1,.449,1,1v2.392h0s0,.001,0,.001v2.607c0,.629-.297,1.184-.753,1.551Zm10.974,4.021c-.489-.35-1.074-.572-1.721-.572s-1.233,.223-1.721,.572c-.47-.366-.779-.931-.779-1.572v-2.607s0,0,0,0h0v-2.393c0-.551,.449-1,1-1h3c.551,0,1,.449,1,1v2.392h0s0,.001,0,.001v2.607c0,.641-.308,1.206-.779,1.572Z"/>
</svg>
