<svg id="Layer_1" viewBox="0 0 24 24" xmlns="http://www.w3.org/2000/svg" data-name="Layer 1"><path d="m14.6 18.5v3c0 .496.404.9.9.9s.9-.404.9-.9h1.6c0 1.381-1.119 2.5-2.5 2.5s-2.5-1.119-2.5-2.5v-3c0-1.381 1.119-2.5 2.5-2.5s2.5 1.119 2.5 2.5h-1.6c0-.496-.404-.9-.9-.9s-.9.404-.9.9zm9.418-2.5h-5v1.6h1.65v6.4h1.6v-6.4h1.75zm-12.218 2.3v3.4c0 1.269-1.031 2.3-2.3 2.3s-2.3-1.031-2.3-2.3v-3.4c0-1.269 1.031-2.3 2.3-2.3s2.3 1.031 2.3 2.3zm-1.6 0c0-.386-.314-.7-.7-.7s-.7.314-.7.7v3.4c0 .386.314.7.7.7s.7-.314.7-.7zm-4.978 3.7c.053.732.283 1.414.657 2h-5.879v-19c0-1.654 1.346-3 3-3h3v-2h2v2h8v-2h2v2h3c1.654 0 3 1.346 3 3v9h-2v-4h-20v12h3.223zm-3.222-17v3h20v-3c0-.552-.449-1-1-1h-18c-.551 0-1 .448-1 1z"/></svg>