<?xml version="1.0" encoding="UTF-8"?>
<svg xmlns="http://www.w3.org/2000/svg" id="Layer_1" data-name="Layer 1" viewBox="0 0 24 24">
  <path d="M13,11h5.915l4.499-4.499-4.501-4.501h-5.913V0h-2V2H2V11H11v2H5.087L.586,17.501l4.499,4.499h5.915v2h2v-2h9V13H13v-2Zm3.322-7h1.763l2.501,2.501-2.499,2.499h-1.765c.427-.736,.678-1.587,.678-2.5s-.251-1.764-.678-2.5ZM7.678,9h-3.678V4h3.695c-.43,.738-.695,1.584-.695,2.5s.251,1.764,.678,2.5Zm2.917,.319l-.033-.007-1.395-1.395,1.418-1.418-1.418-1.418,1.414-1.414,1.418,1.418,1.418-1.418,1.414,1.414-1.418,1.418,1.418,1.418-1.414,1.414-1.418-1.418-1.405,1.405Zm-4.682,10.681l-2.499-2.499,2.501-2.501h1.779c-.43,.738-.694,1.584-.694,2.5s.271,1.765,.708,2.5h-1.795Zm10.393-5h3.694v5h-3.708c.438-.735,.708-1.58,.708-2.5s-.264-1.762-.694-2.5Zm-2.153,.224l1.398,1.43-2.694,2.78h0l-.004,.004c-.744,.744-2.058,.746-2.823-.019l-1.48-1.586,1.387-1.441,1.514,1.619,2.701-2.787Z"/>
</svg>
