<?xml version="1.0" encoding="UTF-8"?>
<svg xmlns="http://www.w3.org/2000/svg" id="Layer_1" data-name="Layer 1" viewBox="0 0 24 24">
  <path d="M22.294,5.027c-1.348,.056-5.894,.389-7.81,2.305-1.562,1.574-1.924,3.957-.901,5.93l.346,.613c-.601,.949-.929,2.045-.929,3.196v1.929c0,1.654-1.346,3-3,3s-3-1.346-3-3v-6h.5c1.93,0,3.5-1.57,3.5-3.5v-3.5h1v-2h-3V0h-2V4h-2V0H3V4H0v2H1v3.5c0,1.93,1.57,3.5,3.5,3.5h.5v6c0,2.757,2.243,5,5,5s5-2.243,5-5v-1.929c0-.64,.166-1.249,.447-1.803,.814,.459,1.738,.734,2.641,.724,1.312,0,2.604-.508,3.583-1.479,2.549-3.173,2.16-7.117,2.363-9.555l-1.74,.069ZM4.5,11c-.827,0-1.5-.673-1.5-1.5v-3.5h6v3.5c0,.827-.673,1.5-1.5,1.5h-3Zm15.76,2.096c-.929,.92-2.322,1.153-3.504,.595-.005-.004-.013-.01-.018-.015l2.969-2.97-1.414-1.414-2.97,2.97s-.007-.009-.01-.013c-.563-1.18-.331-2.578,.589-3.506,1.104-1.104,4.229-1.573,6.053-1.695-.109,1.81-.565,4.918-1.694,6.047Z"/>
</svg>
