<svg id="Layer_1" viewBox="0 0 24 24" xmlns="http://www.w3.org/2000/svg" data-name="Layer 1"><path d="m13 6v5.277c.595.346 1 .984 1 1.723 0 1.105-.895 2-2 2s-2-.895-2-2c0-.738.405-1.376 1-1.723v-5.277zm11 18h-14l7-12zm-6-3h-2v2h2zm0-1v-4h-2v4zm-15-7c0-4.962 4.038-9 9-9s9 4.038 9 9c0 .555-.058 1.096-.154 1.623l1.389 2.381c.488-1.243.766-2.59.766-4.004 0-2.88-1.122-5.498-2.94-7.461l.978-1.087.88.88 1.414-1.414-3.188-3.188-1.414 1.414.892.892-1.049 1.165c-1.585-1.187-3.494-1.962-5.574-2.151v-2.05h-2v2.051c-2.08.189-3.989.963-5.574 2.151l-1.049-1.165.954-.954-1.413-1.415-3.25 3.25 1.414 1.414.88-.88.978 1.087c-1.818 1.963-2.94 4.58-2.94 7.461 0 4.694 2.96 8.699 7.107 10.275l1.022-1.753c-3.558-1.202-6.13-4.564-6.13-8.523z"/></svg>