<svg id="Layer_1" viewBox="0 0 24 24" xmlns="http://www.w3.org/2000/svg" data-name="Layer 1"><path d="m12 0c-6.598.009-11.996 5.381-12 12 0 6.617 5.383 12 12 12 3.449-.002 6.585-1.471 8.759-3.824 2.004-2.145 3.241-5.016 3.241-8.176 0-6.617-5.383-12-12-12zm4.046 2.863c2.264 1.006 4.084 2.827 5.091 5.091-.149.014-.294.046-.446.046-2.587 0-4.691-2.105-4.691-4.692 0-.151.032-.296.046-.445zm-4.046 19.137c-5.514 0-10-4.486-10-10 0-1.655.411-3.213 1.125-4.589.103 7.382 6.083 13.361 13.464 13.464-1.376.715-2.934 1.125-4.589 1.125zm7.536-3.448c-.899.217-1.822.332-2.755.332-6.433 0-11.666-5.233-11.666-11.666 0-.934.115-1.857.332-2.755.825-.719 1.766-1.306 2.795-1.725-.16.75-.242 1.519-.242 2.3 0 6.043 4.917 10.96 10.96 10.96.782 0 1.55-.082 2.301-.242-.419 1.029-1.006 1.969-1.725 2.795zm-.576-4.552c-4.94 0-8.96-4.02-8.96-8.96 0-1.005.169-1.98.491-2.913.493-.075.995-.126 1.509-.126.719 0 1.419.08 2.096.225-.058.356-.096.716-.096 1.083 0 3.69 3.002 6.692 6.691 6.692.367 0 .727-.038 1.084-.096.145.677.225 1.377.225 2.096 0 .514-.051 1.016-.126 1.509-.933.322-1.909.491-2.914.491z"/></svg>