<?xml version="1.0" encoding="UTF-8"?>
<svg xmlns="http://www.w3.org/2000/svg" id="Layer_1" data-name="Layer 1" viewBox="0 0 24 24">
  <path d="M19.148,2.285c-.324-1.345-1.521-2.285-2.914-2.285H7.766c-1.393,0-2.59,.939-2.913,2.284-.389,1.61-.853,4.083-.853,6.716,0,5.29,1.942,13.86,2.025,14.223l.177,.777h11.596l.177-.777c.083-.362,2.025-8.933,2.025-14.223,0-2.632-.464-5.105-.852-6.715Zm-12.352,.468c.106-.443,.505-.752,.969-.752h8.469c.464,0,.862,.31,.97,.753,.318,1.319,.689,3.251,.777,5.348-2.173,.28-7.577,1.303-11.717,4.803-.159-1.391-.264-2.742-.264-3.904,0-2.436,.433-4.742,.797-6.248Zm9.507,7.677l-3.692,5.37-4.673-1.669c2.735-2.151,6.063-3.205,8.365-3.702Zm-.108,11.571H7.805c-.253-1.186-.742-3.589-1.148-6.204l6.732,2.404,4.472-6.505c-.352,3.903-1.281,8.504-1.666,10.305ZM9.5,6c0-1.381,1.119-2.5,2.5-2.5s2.5,1.119,2.5,2.5-1.119,2.5-2.5,2.5-2.5-1.119-2.5-2.5Z"/>
</svg>
