<svg id="Layer_1" viewBox="0 0 24 24" xmlns="http://www.w3.org/2000/svg" data-name="Layer 1"><path d="m15.712 9.283c-.293-.657-.91-1.143-1.61-1.268l-4.102-.016c-1.103 0-2 .897-2 2v5h1c0 .552.448 1 1 1s1-.448 1-1h3c0 .552.448 1 1 1s1-.448 1-1h1v-2.217c0-.4-.082-.789-.244-1.151l-1.044-2.349zm-1.92.717c.036.02.075.056.093.096l.846 1.904h-4.73v-2h3.792zm9.208 0h1v-4c0-1.654-1.346-3-3-3h-18c-1.654 0-3 1.346-3 3v12c0 1.654 1.346 3 3 3h18c1.654 0 3-1.346 3-3v-4h-1c-1.103 0-2-.897-2-2s.897-2 2-2zm-1 5.873v2.127c0 .552-.448 1-1 1h-15v-2h-2v2h-1c-.552 0-1-.448-1-1v-12c0-.551.448-1 1-1h1v2h2v-2h15c.552 0 1 .449 1 1v2.126c-1.724.445-3 2.013-3 3.874s1.276 3.429 3 3.873zm-18-6.873h2v2h-2zm0 4h2v2h-2z"/></svg>