<?xml version="1.0" encoding="UTF-8"?>
<svg xmlns="http://www.w3.org/2000/svg" id="Layer_1" data-name="Layer 1" viewBox="0 0 24 24">
  <path d="M3.784,13.288L.096,21.072l1.808,.855,3.096-6.536v8.608H14v-2h-5.904l5.904-7.293v-3.707H7.398c-1.538,0-2.957,.898-3.615,2.288Zm3.216,6.905v-7.135c.131-.027,.262-.058,.398-.058h5.47l-5.868,7.193Zm17-5.193v2h-4.277l1.277,5.5v1.5h-4v-7h-1V9h1V3h-1V1h1V0h2V12.87c1.198-.275,3-1.139,3-3.87h2c0,3.916-2.9,5.582-5,6h5ZM13.313,.513L7.311,.003c-1.131-.063-1.987,1.008-1.675,2.097l.364,.683v2.217c0,2.206,1.794,4,4,4s4-1.794,4-4V3l.431-.826c.27-.787-.287-1.615-1.118-1.661Zm-1.313,4.487c0,1.103-.897,2-2,2s-2-.897-2-2v-1h4v1Z"/>
</svg>
