<?xml version="1.0" encoding="UTF-8"?>
<svg xmlns="http://www.w3.org/2000/svg" id="Layer_1" data-name="Layer 1" viewBox="0 0 24 24">
  <path d="M21,0H3C1.346,0,0,1.346,0,3v15H24V3c0-1.654-1.346-3-3-3Zm1,16H2V3c0-.551,.449-1,1-1H21c.551,0,1,.449,1,1v13Zm-12,6c0,1.105-.895,2-2,2s-2-.895-2-2,.895-2,2-2,2,.895,2,2Zm1.859-1h12.141v2H11.859c.083-.321,.141-.653,.141-1s-.058-.679-.141-1Zm-7.717,0c-.083,.321-.141,.653-.141,1s.058,.679,.141,1H0v-2H4.141Zm3.86-6.776l9.139-5.224L8.001,3.777V14.224Zm2-7l3.108,1.776-3.108,1.777v-3.553Z"/>
</svg>
