<svg id="Layer_1" viewBox="0 0 24 24" xmlns="http://www.w3.org/2000/svg" data-name="Layer 1"><path d="m2 8h1.35c.826 2.327 3.043 4 5.65 4s4.824-1.673 5.65-4h1.35c.552 0 1-.448 1-1v-2c0-.552-.448-1-1-1h-1.35c-.826-2.327-3.043-4-5.65-4s-4.824 1.673-5.65 4h-1.35c-.552 0-1 .448-1 1v2c0 .552.448 1 1 1zm7 2c-1.877 0-3.445-1.304-3.874-3.051.22.022.438.051.66.051 2.619 0 4.939-1.515 6.061-3.803.711.722 1.153 1.711 1.153 2.803 0 2.206-1.794 4-4 4zm0-8c.395 0 .769.075 1.13.182-.764 1.692-2.447 2.818-4.344 2.818-.21 0-.42-.021-.628-.049.464-1.695 2.003-2.951 3.843-2.951zm12.889 11.199c.065-.223.111-.455.111-.699 0-1.381-1.119-2.5-2.5-2.5s-2.5 1.119-2.5 2.5 1.119 2.5 2.5 2.5c.398 0 .77-.102 1.104-.268l1.396 1.222v6.046h-4v-3c0-2.757-2.243-5-5-5h-8c-2.757 0-5 2.243-5 5v5h24v-8.954zm-5.889 8.801h-14v-3c0-1.654 1.346-3 3-3h8c1.654 0 3 1.346 3 3z"/></svg>