<?xml version="1.0" encoding="UTF-8"?>
<svg xmlns="http://www.w3.org/2000/svg" id="Layer_1" data-name="Layer 1" viewBox="0 0 24 24">
  <path d="M23,6h-2c-1.326-.994-2.794-1.783-4.355-2.338l-2.153-.766,.008-1.396-1.5-1-2,1.5h-1l-1.385-2-2.615,1s.231,1.885-.192,2.038c-.024,.009-.049,.013-.075,.013-.495,0-1.232-1.552-1.232-1.552l-1.5,1v3L1,7v2l2,1h3v1c0,.552,.448,1,1,1h1v1c0,.5,.5,1,1,1v2.5l2,2v1.167s-1.488,.605-2,1.333c0,1,3,3,3,3,0,0,2.5-1.5,3.288-4.599,.366-1.315,.856-2.232,2.212-2.401,.383-.048,2.5-1.383,2.5-4.5v-.5c.5-.5,2.733-1.94,3-2.501v-3.499Zm-2,2.696c-1.067,.842-2.226,1.602-3,2.475v1.328c0,1.61-.806,2.358-1.087,2.569-2.637,.51-3.298,2.882-3.564,3.839-.089,.351-.21,.676-.349,.973v-2.21l-2-2v-3.672h-1v-2h-2v-2H3.472l-.283-.142,1.811-1.358v-1.56c.537,.163,.992,.149,1.491-.022,1.055-.384,1.437-1.318,1.547-2.238l.914,1.32h2.715l.822-.616-.006,.92c.802,.285,2.672,.951,3.491,1.242,1.373,.488,2.66,1.18,3.826,2.054l.533,.4h.667v.696Z"/>
</svg>
