<?xml version="1.0" encoding="UTF-8"?>
<svg xmlns="http://www.w3.org/2000/svg" id="Layer_1" data-name="Layer 1" viewBox="0 0 24 24">
  <path d="m23,5v12c0,3.859-3.14,7-7,7H7v-2h9c2.757,0,5-2.243,5-5V5h2Zm-15,15h-4c-1.654,0-3-1.346-3-3V3C1,1.346,2.346,0,4,0h4v1c0,1.103.897,2,2,2s2-.897,2-2V0h4c1.654,0,3,1.346,3,3v14c0,1.654-1.346,3-3,3h-4v-1c0-1.103-.897-2-2-2s-2,.897-2,2v1Zm2-5c1.86,0,3.428,1.276,3.874,3h2.126c.551,0,1-.448,1-1V3c0-.552-.449-1-1-1h-2.126c-.445,1.724-2.013,3-3.874,3s-3.428-1.276-3.874-3h-2.126c-.551,0-1,.448-1,1v14c0,.552.449,1,1,1h2.126c.445-1.724,2.013-3,3.874-3Z"/>
</svg>
