<?xml version="1.0" encoding="UTF-8"?>
<svg xmlns="http://www.w3.org/2000/svg" id="Layer_1" data-name="Layer 1" viewBox="0 0 24 24">
  <path d="M24,13c0-2.368-.894-4.228-2.286-5.435C20.68,3.121,16.854,0,12,0c-3.208,0-5.972,1.361-7.775,3.567C1.835,4.598,0,7.105,0,11.5c0,5.135,2.138,7.503,5,8.081v4.419h2v-4.3c.502-.033,.987-.11,1.449-.245,.795,.257,1.645,.431,2.551,.502v4.042h2v-4.042c.778-.061,1.517-.192,2.214-.391,.562,.214,1.159,.347,1.786,.395v4.038h2v-4.171c2.862-.646,5-3.143,5-6.829Zm-11,.414l3.707-3.707-1.414-1.414-2.293,2.293v-3.586h-2v3.586l-2.293-2.293-1.414,1.414,3.707,3.707v4.536c-4.284-.405-7-3.433-7-7.95C4,5.439,7.439,2,12,2s8,3.439,8,8c0,4.517-2.716,7.544-7,7.95v-4.536Z"/>
</svg>
