<svg id="Layer_1" viewBox="0 0 24 24" xmlns="http://www.w3.org/2000/svg" data-name="Layer 1"><path d="m11 17.93v-5.479c0-.317-.213-.6-.518-.687l-2.572-.735c-.438-.139-.924.227-.91.687v5.245l3.866 1.104-1.618 1.618-4.248-1.214v-6.752c-.05-1.75 1.793-3.138 3.46-2.61l2.572.735c.361.104.689.279.968.508.279-.229.607-.404.968-.508l2.572-.735c1.25-.385 2.684.282 3.204 1.472-.47.233-.911.519-1.279.887l-.465.465v-.214c.014-.46-.473-.826-.91-.687l-2.572.735c-.305.087-.518.37-.518.687v3.479l-2 2zm11.812-10.295s-3.051-2.391-3.051-2.391l-5.853-4.585c-1.123-.881-2.692-.881-3.815 0l-8.905 6.976c-.755.591-1.188 1.48-1.188 2.439v13.926h10v-2h-8v-11.926c0-.34.153-.655.421-.865l8.905-6.976c.397-.312.951-.311 1.349 0l5.853 4.585 3.052 2.392s0 0 0 0c.267.209.42.524.42.864v.055c.733.146 1.411.464 2 .901v-.955c0-.959-.433-1.849-1.188-2.439zm.31 5.244c1.169 1.17 1.169 3.072 0 4.242l-6.878 6.879h-4.243v-4.242l6.879-6.879c1.133-1.134 3.109-1.134 4.243 0zm-1.415 1.414c-.378-.379-1.037-.379-1.414 0l-6.293 6.293v1.414h1.415l6.292-6.293c.39-.39.39-1.024 0-1.414z"/></svg>