<svg id="Layer_1" viewBox="0 0 24 24" xmlns="http://www.w3.org/2000/svg" data-name="Layer 1"><path d="m24 22.584-6.241-6.241c1.414-1.727 2.264-3.931 2.264-6.332.001-5.52-4.491-10.011-10.011-10.011s-10.012 4.491-10.012 10.012 4.491 10.012 10.012 10.012c2.401 0 4.605-.851 6.332-2.264l6.241 6.241 1.416-1.416zm-21.998-12.572c0-4.417 3.593-8.01 8.01-8.01s8.009 3.593 8.009 8.009-3.593 8.009-8.009 8.009-8.01-3.592-8.01-8.008zm13.016-1.319c0 .7-.501 2.32-.501 2.32 0 .003-3.019 0-3.019 0-.276-.831-.485-2.11-.485-3.004 0-1.502.625-2.503 1.502-2.503 1.001 0 2.503.183 2.503 3.186zm-3.504 3.321h2.81c0 1.251-.153 3.004-1.448 3.004-.736 0-1.361-.63-1.361-1.502.01-.309 0-1.502 0-1.502zm-2.503-4.005c0 .894-.209 2.172-.485 3.004 0 0-3.019.003-3.019 0 0 0-.501-1.62-.501-2.32 0-3.004 1.502-3.186 2.503-3.186.877 0 1.502 1.001 1.502 2.503zm-.501 4.005s-.01 1.192 0 1.502c0 .872-.625 1.502-1.361 1.502-1.296 0-1.448-1.752-1.448-3.004h2.81z"/></svg>