<?xml version="1.0" encoding="UTF-8"?>
<svg xmlns="http://www.w3.org/2000/svg" id="Layer_1" data-name="Layer 1" viewBox="0 0 24 24">
  <path d="M14.661,17.04l1.154,1.633c-.702,.496-2.13,1.327-3.815,1.327s-3.114-.831-3.815-1.327l1.154-1.633c.507,.358,1.528,.96,2.661,.96s2.154-.602,2.661-.96Zm-1.661-4.04c0,.99,.667,2.5,2,2.5s2-1.51,2-2.5c0,0-1,.5-2,.5s-2-.5-2-.5Zm-2,0s-1,.5-2,.5-2-.5-2-.5c0,.99,.667,2.5,2,2.5s2-1.51,2-2.5ZM24,4.769V15c0,1.597-1.258,2.895-2.833,2.983-1.59,3.657-5.172,6.017-9.167,6.017s-7.577-2.36-9.167-6.017c-1.575-.089-2.833-1.386-2.833-2.983V4.769c0-.742,.273-1.455,.772-2.01L3.262,0h2.693L2.258,4.098c-.166,.185-.258,.423-.258,.671V15c0,.552,.449,1,1,1s1-.448,1-1V7h.009c0-.684,.228-1.369,.692-1.922l2.661-2.771,1.441,1.386-2.616,2.721c-.13,.157-.192,.369-.189,.586h0v.044c.013,.221,.095,.446,.254,.624,.366,.409,.998,.443,1.406,.077l4.016-3.696c.206-.189,.323-.457,.323-.736V0h2V3.314c0,.634-.204,1.248-.569,1.755l2.918,2.686c.398,.357,1.03,.323,1.397-.086,.328-.367,.337-.928,.021-1.305l-2.487-2.584,1.441-1.386,2.533,2.634c.488,.579,.727,1.279,.732,1.972h.014V15c0,.552,.449,1,1,1s1-.448,1-1V4.769c0-.248-.092-.486-.258-.671L18.045,0h2.693l2.489,2.759c.499,.555,.772,1.268,.772,2.01Zm-4.777,12.635c-.738-.547-1.223-1.417-1.223-2.404v-5.186c-.323,.114-.658,.185-.998,.185-.712,0-1.427-.251-1.998-.763l-3.004-2.764-2.995,2.756c-.577,.517-1.296,.771-2.011,.771-.339,0-.673-.071-.994-.184v5.187c0,.987-.485,1.857-1.223,2.404,1.319,2.797,4.109,4.596,7.223,4.596s5.904-1.799,7.223-4.596Z"/>
</svg>
