<?xml version="1.0" encoding="UTF-8"?>
<svg xmlns="http://www.w3.org/2000/svg" id="Layer_1" data-name="Layer 1" viewBox="0 0 24 24">
  <path d="M21,21.333v2.667h-2v-2.667c0-1.746-1.323-3.18-3-3.319v5.986h-2v-4.47c-.576,.276-1.246,.47-2,.47s-1.424-.194-2-.471v4.471h-2v-5.986c-1.677,.139-3,1.574-3,3.319v2.667H3v-2.667c0-2.94,2.363-5.333,5.267-5.333h.761c1.345,2.567,4.599,2.551,5.948,.004l.758-.004c2.904,0,5.267,2.393,5.267,5.333ZM6.012,9.234c-.389-.895-1.012-2.445-1.012-4.734C5,1.408,8.628,0,12,0s7,1.408,7,4.5c0,2.29-.623,3.84-1.012,4.735-.125,3.199-2.759,5.765-5.988,5.765s-5.864-2.566-5.988-5.766Zm9.929,.35c-1.495-.759-2.769-1.45-3.942-2.194-1.208,.767-2.488,1.457-3.94,2.194,.285,1.928,1.935,3.416,3.941,3.416s3.656-1.489,3.941-3.417ZM8.963,2.505c2.453,2.271,4.478,3.549,7.517,5.111,.27-.766,.52-1.787,.52-3.116,0-1.564-2.542-2.5-5-2.5-1.068,0-2.152,.177-3.037,.505Zm-1.963,1.995c0,1.329,.25,2.352,.52,3.116,.965-.495,1.845-.97,2.678-1.466-.955-.714-1.901-1.518-2.927-2.491-.173,.255-.27,.536-.27,.841Z"/>
</svg>
