<?xml version="1.0" encoding="UTF-8"?>
<svg xmlns="http://www.w3.org/2000/svg" id="Layer_1" data-name="Layer 1" viewBox="0 0 24 24">
  <path d="m21,0H3C1.346,0,0,1.346,0,3v17h6.923l3.749,3.156c.382.34.861.509,1.337.508.468,0,.931-.162,1.292-.484l3.847-3.18h6.853V3c0-1.654-1.346-3-3-3Zm1,18h-5.571l-4.448,3.645-4.327-3.645H2V3c0-.552.448-1,1-1h18c.552,0,1,.448,1,1v15Zm-7.5-13c-.999,0-1.874.372-2.5.99-.626-.618-1.501-.99-2.5-.99-1.93,0-3.5,1.66-3.5,3.7,0,3.256,4.874,6.735,5.43,7.121l.57.396.57-.396c.556-.386,5.43-3.865,5.43-7.121,0-2.04-1.57-3.7-3.5-3.7Zm-2.5,8.762c-1.74-1.33-4-3.56-4-5.062,0-.938.673-1.7,1.5-1.7.747,0,1.5.449,1.5,1.454v.546h2v-.546c0-1.005.753-1.454,1.5-1.454.827,0,1.5.763,1.5,1.7,0,1.502-2.26,3.731-4,5.062Z"/>
</svg>
