<?xml version="1.0" encoding="UTF-8"?>
<svg xmlns="http://www.w3.org/2000/svg" id="Layer_1" data-name="Layer 1" viewBox="0 0 24 24">
  <path d="M0,0V12.929l.834,.14c2.414,.405,4.166,2.479,4.166,4.931v6h2v-6c0-2.757,2.243-5,5-5s5,2.243,5,5v6h2v-6c0-2.452,1.752-4.525,4.166-4.931l.834-.14V0H0ZM22,5h-3.5V2h3.5v3Zm-14.5,0V2h3.5v3h-3.5Zm5.5-3h3.5v3h-3.5V2Zm-7.5,0v3H2V2h3.5Zm12.501,12.416c-1.224-2.042-3.453-3.416-6.001-3.416s-4.777,1.374-6.001,3.416c-.881-1.479-2.281-2.62-3.999-3.127V7H22v4.289c-1.717,.507-3.117,1.648-3.999,3.127Z"/>
</svg>
