<?xml version="1.0" encoding="UTF-8"?>
<svg xmlns="http://www.w3.org/2000/svg" id="Layer_1" data-name="Layer 1" viewBox="0 0 24 24">
  <path d="M17,8h-2v-3h2v3Zm0-8h-2V3h2V0Zm-2,19h2v-3h-2v3Zm0,5h2v-3h-2v3Zm8.426-13.351l-2.719-2.719-1.414,1.414,1.69,1.656h-3.983v2h4.02l-1.727,1.727,1.414,1.414,2.72-2.719c.763-.764,.763-2.008,0-2.773ZM9.5,5c1.381,0,2.5-1.119,2.5-2.5s-1.119-2.5-2.5-2.5-2.5,1.119-2.5,2.5,1.119,2.5,2.5,2.5ZM3.389,17.128l-1.623,6.872h2.252l1.15-5.317-1.388-1.178c-.141-.117-.267-.246-.392-.376Zm6.186-2.575l.946-3.667,.667,1.802,3.815,2.18,.992-1.736-3.185-1.82-1.489-3.99c-.452-.815-1.312-1.322-2.245-1.322h-1.577c-.696,0-1.384,.111-2.044,.332l-4.31,1.958L.03,12.757l1.939,.485,.884-3.533,2.126-.969-.897,4.256c-.261,1.112,.123,2.257,.993,2.983l2.924,2.483v5.537h2v-6.463l-3.636-3.087c-.293-.244-.421-.626-.329-1.019l1.052-4.992c.061-.259,.288-.439,.554-.439,.068,.005,1.565,0,1.565,0l-1.331,5.108,1.701,1.445Z"/>
</svg>
