<svg id="Layer_1" viewBox="0 0 24 24" xmlns="http://www.w3.org/2000/svg" data-name="Layer 1"><path d="m12 6c-4.458 0-7.36 3.806-8.005 5h-3.995v2h24v-2h-3.995c-.646-1.195-3.544-5-8.005-5zm0 2c2.59 0 4.568 1.785 5.573 3h-3.85c-.346-.595-.984-1-1.723-1s-1.376.405-1.723 1h-3.849c1.006-1.215 2.985-3 5.572-3zm-9 14h4v2h-4c-1.654 0-3-1.346-3-3v-4h2v4c0 .551.448 1 1 1zm19-5h2v4c0 1.654-1.346 3-3 3h-4v-2h4c.552 0 1-.449 1-1zm2-14v4h-2v-4c0-.551-.448-1-1-1h-4v-2h4c1.654 0 3 1.346 3 3zm-22 4h-2v-4c0-1.654 1.346-3 3-3h4v2h-4c-.552 0-1 .449-1 1zm16.469 8c-1.396 1.438-3.613 3-6.469 3s-5.071-1.562-6.468-3h3.168c.93.574 2.042 1 3.299 1s2.372-.426 3.302-1h3.167z"/></svg>