<svg id="Layer_1" viewBox="0 0 24 24" xmlns="http://www.w3.org/2000/svg" data-name="Layer 1"><path d="m20.944 11h3.056v2h-24v-2h3.059c.5-4.493 4.317-8 8.941-8 1.964 0 3.832.624 5.401 1.805l-1.203 1.598c-1.22-.917-2.671-1.403-4.198-1.403-3.519 0-6.432 2.613-6.92 6h9.764c-.365-1.155-1.435-2-2.709-2-.808 0-1.583.347-2.125.952l-1.489-1.335c.921-1.027 2.238-1.617 3.614-1.617 2.384 0 4.362 1.731 4.767 4h2.018c-.101-.709-.303-1.396-.62-2.047l1.799-.875c.451.927.733 1.907.845 2.922zm-18.944 10v-4h-2v4c0 1.654 1.346 3 3 3h4v-2h-4c-.551 0-1-.449-1-1zm20 0c0 .551-.448 1-1 1h-4v2h4c1.654 0 3-1.346 3-3v-4h-2zm-1-21h-4v2h4c.552 0 1 .449 1 1v4h2v-4c0-1.654-1.346-3-3-3zm-19 3c0-.551.449-1 1-1h4v-2h-4c-1.654 0-3 1.346-3 3v4h2zm16.803 12c-.193 1.482-.559 3.116-1.209 4.755l1.841.789c.769-1.924 1.175-3.835 1.379-5.544h-2.012zm-12.209 0c-.193.574-.45 1.036-.775 1.361-.641.64-1.422.639-1.782.639h-.037l.033 2h.043c.526 0 1.961-.03 3.156-1.223.673-.672 1.149-1.607 1.438-2.777h-2.077zm6.656 4.26 1.625 1.167c1.02-1.42 1.638-3.464 1.927-5.427h-2.03c-.247 1.528-.716 3.138-1.522 4.26zm-5.005.485 1.413 1.413c1.664-1.715 2.673-3.701 3.099-6.158h-2.033c-.377 1.891-1.172 3.397-2.479 4.745z"/></svg>