<svg id="Layer_1" viewBox="0 0 24 24" xmlns="http://www.w3.org/2000/svg" data-name="Layer 1"><path d="m24 19c-3.823 0-7.555-1.427-10.692-3.735 1.333-1.11 2.956-1.683 4.534-2.237 1.642-.576 3.192-1.12 4.306-2.233 2.465-2.465 2.465-6.478 0-8.943-2.466-2.465-6.478-2.464-8.943 0-1.114 1.114-1.658 2.665-2.233 4.306-.554 1.578-1.126 3.201-2.237 4.534-2.308-3.137-3.735-6.869-3.735-10.692h-2c0 3.379 1.001 6.701 2.706 9.669-3.258.71-5.706 3.613-5.706 7.081 0 3.998 3.252 7.25 7.25 7.25 3.467 0 6.37-2.448 7.081-5.706 2.969 1.705 6.29 2.706 9.669 2.706zm-11.141-12.18c.52-1.482.969-2.763 1.76-3.554 1.687-1.685 4.429-1.686 6.115 0 1.685 1.686 1.685 4.429 0 6.115-.792.792-2.072 1.24-3.554 1.76-1.776.623-3.769 1.334-5.441 2.848-.608-.543-1.185-1.12-1.728-1.728 1.514-1.671 2.225-3.665 2.848-5.441zm-5.609 15.18c-2.895 0-5.25-2.355-5.25-5.25 0-2.777 2.174-5.034 4.906-5.215 1.523 2.14 3.42 4.036 5.559 5.559-.181 2.732-2.438 4.906-5.215 4.906z"/></svg>