<?xml version="1.0" encoding="UTF-8"?>
<svg xmlns="http://www.w3.org/2000/svg" id="Layer_1" data-name="Layer 1" viewBox="0 0 24 24">
  <path d="M24,7c0-3.309-2.691-6-6-6h-1V0h-2V1h-6C4.038,1,0,5.038,0,10c0,1.654,1.346,3,3,3h13v2.07c-2.678,.371-3,2.224-3,3.073v2.715c0,.945,.39,3.143,4,3.143s4-2.197,4-3.143v-2.715c0-.849-.322-2.702-3-3.073v-2.07c3.309,0,6-2.691,6-6Zm-9,13.857v-2.715c0-.315,.016-.839,1-1.048v4.812c-.984-.209-1-.733-1-1.048Zm4-2.715v2.715c0,.315-.016,.839-1,1.048v-4.812c.984,.209,1,.733,1,1.048Zm-1-15.143c.552,0,1,.449,1,1s-.448,1-1,1h-7c-.551,0-1-.449-1-1s.449-1,1-1h7ZM3,11c-.551,0-1-.449-1-1,0-3.578,2.699-6.532,6.167-6.946-.1,.299-.167,.613-.167,.946,0,1.654,1.346,3,3,3h7c1.538,0,2.794-1.167,2.966-2.659,.636,.708,1.034,1.635,1.034,2.659,0,2.206-1.794,4-4,4H3Z"/>
</svg>
