<?xml version="1.0" encoding="UTF-8"?>
<svg xmlns="http://www.w3.org/2000/svg" id="Layer_1" data-name="Layer 1" viewBox="0 0 24 24">
  <path d="M23.259,13.674c.482,.747,.742,1.616,.742,2.517,0,1.773-1.033,3.4-2.612,4.179-1.002,2.179-2.719,3.428-4.889,3.597v-2c1.601-.122,2.768-1.385,3.363-3.135,2.589-.634,2.709-3.817,.685-5.218,1.987-1.445,2.228-3.971-.592-5.218,.304-2.495-.572-3.491-3.143-3.253v-1c0-1.032-.62-2.134-1.77-2.144-1.167,.008-2.078,.775-2.044,2.001v5h-2V4c0-1.477-1.105-2.001-2.051-2.001-1.145,0-1.762,1.104-1.762,2.144v1c-2.574-.239-3.447,.762-3.143,3.253-2.821,1.247-2.577,3.774-.591,5.218-2.025,1.401-1.903,4.585,.685,5.218,.596,1.751,1.761,3.013,3.363,3.135v2c-2.17-.169-3.887-1.418-4.889-3.597C1.032,19.591,0,17.964,0,16.19,0,15.289,.258,14.421,.741,13.674,.221,12.867-.052,11.953-.052,11c0-1.086,.379-2.575,2.095-3.747v-.491c0-1.821,1.314-3.209,3.233-3.542C5.648,1.354,7.128,0,8.949,0,10.085,0,11.216,.452,11.997,1.306,12.722,.443,13.874-.005,15.061,0c1.813,.015,3.289,1.369,3.662,3.22,1.919,.333,3.233,1.722,3.233,3.543v.491c1.717,1.172,2.096,2.661,2.096,3.747,0,.953-.272,1.868-.793,2.674Zm-5.701,2.826c0,1.898-.968,3.636-2.588,4.646-.254,.158-.412,.469-.412,.808v2.046h-5v-2.045c0-.341-.153-.647-.399-.8-1.874-1.163-2.869-3.326-2.535-5.514,.341-2.237,2.049-4.053,4.25-4.517,1.66-.352,3.353,.051,4.648,1.102,1.295,1.05,2.037,2.607,2.037,4.273Zm-2,0c0-1.06-.473-2.052-1.297-2.72-.837-.679-1.894-.926-2.976-.698-1.368,.288-2.472,1.465-2.685,2.861-.216,1.416,.401,2.761,1.611,3.512,.347,.215,.624,.52,.846,.863v-2.596c-.595-.346-1-.984-1-1.723h4c0,.738-.405,1.376-1,1.723v2.6c.224-.346,.502-.654,.853-.873,1.032-.644,1.647-1.746,1.647-2.95Z"/>
</svg>
