<svg id="Layer_1" viewBox="0 0 24 24" xmlns="http://www.w3.org/2000/svg" data-name="Layer 1"><path d="m3 18c-1.152 0-2.24-.499-3-1.368l1.497-1.316c.38.435.928.684 1.503.684 1.103 0 2-.897 2-2h2c0 1.103.897 2 2 2s2-.897 2-2h2c0 1.103.897 2 2 2s2-.897 2-2h2c0 1.103.897 2 2 2 .575 0 1.123-.25 1.503-.684l1.497 1.316c-.76.869-1.848 1.368-3 1.368-1.193 0-2.267-.525-3-1.357-.733.832-1.807 1.357-3 1.357s-2.267-.525-3-1.357c-.733.832-1.807 1.357-3 1.357s-2.267-.525-3-1.357c-.733.832-1.807 1.357-3 1.357zm18 4c-1.103 0-2-.897-2-2h-2c0 1.103-.897 2-2 2s-2-.897-2-2h-2c0 1.103-.897 2-2 2s-2-.897-2-2h-2c0 1.103-.897 2-2 2-.575 0-1.123-.25-1.503-.684l-1.497 1.316c.76.869 1.848 1.368 3 1.368 1.193 0 2.267-.525 3-1.357.733.832 1.807 1.357 3 1.357s2.267-.525 3-1.357c.733.832 1.807 1.357 3 1.357s2.267-.525 3-1.357c.733.832 1.807 1.357 3 1.357 1.152 0 2.24-.499 3-1.368l-1.497-1.316c-.38.435-.928.684-1.503.684zm-18.798-10c-.132-.646-.202-1.315-.202-2 0-5.514 4.486-10 10-10s10 4.486 10 10c0 .685-.07 1.354-.202 2h-2.067c.092-.351.158-.712.204-1.079-1.314.598-2.734.908-4.162.908-1.222 0-2.444-.237-3.608-.688-.33.266-.641.551-.925.86h-2.529c.601-.936 1.362-1.771 2.257-2.469-.058-.982-.291-1.931-.688-2.809-1.927 1.355-3.438 3.166-4.398 5.277h-3.681zm13.465-9.102c1.234 2.007 1.984 4.273 2.182 6.645.709-.189 1.391-.477 2.033-.86-.421-2.522-2.019-4.646-4.215-5.785zm-3.667-.898c-.88 0-1.726.148-2.518.412 2.018 1.731 3.28 4.208 3.471 6.885.94.355 1.924.526 2.909.515-.219-2.897-1.383-5.616-3.336-7.786-.175-.011-.348-.027-.526-.027zm-8 8c0 .374.035.739.085 1.099 1.129-2.443 2.892-4.544 5.145-6.098-.491-.614-1.078-1.151-1.74-1.602-2.105 1.443-3.49 3.863-3.49 6.601z"/></svg>