<svg id="Layer_1" viewBox="0 0 24 24" xmlns="http://www.w3.org/2000/svg" data-name="Layer 1"><path d="m11 2.5c0-1.381 1.119-2.5 2.5-2.5s2.5 1.119 2.5 2.5-1.119 2.5-2.5 2.5-2.5-1.119-2.5-2.5zm-3.174 17.5h-4.826v2h6.165l1.141-2.797-1.734-1.037zm16.174-10.058v6.085c-2.866.398-6.163.755-9.592.912l1.592.979v6.081h-2v-4.918l-3.525-2.108c-3.649-.118-7.378-.516-10.475-.946v-6.085c2.208.306 4.096.598 8.048.9l1.166-2.842h-3.958l-1.714-5.713 1.916-.574 1.286 4.287h12.012l1.286-4.287 1.916.574-1.714 5.713h-4.369l-1.222 2.923c4.45-.265 6.963-.652 9.346-.98zm-13.838 1.018c.785.03 1.53.048 2.293.035l1.252-2.996h-2.331l-1.214 2.96zm11.838 1.277c-2.233.288-6.455.763-10 .763s-7.766-.475-10-.763v2.038c2.954.369 6.896.726 10 .726s7.047-.356 10-.726z"/></svg>