<svg id="Layer_1" viewBox="0 0 24 24" xmlns="http://www.w3.org/2000/svg" data-name="Layer 1"><path d="m21.979 19v5h-2v-5c0-1.654-1.346-3-3-3h-1v2.184c1.161.414 2 1.514 2 2.816v3h-2v-3c0-.551-.448-1-1-1s-1 .449-1 1v3h-2v-3c0-1.302.839-2.402 2-2.816v-2.184h-5.021v2.277c.595.346 1 .984 1 1.723 0 1.105-.895 2-2 2s-2-.895-2-2c0-.738.405-1.376 1-1.723v-2.275c-1.644.012-2.979 1.351-2.979 2.998v5h-2v-5c0-2.757 2.243-5 5-5h10c2.757 0 5 2.243 5 5zm-15.927-6.931c-.788.105-1.533.34-2.216.685.841-3.575 1.855-7.864 1.962-8.203.844-2.738 3.4-4.531 6.202-4.551 2.855 0 5.348 1.829 6.202 4.55.107.34 1.125 4.647 1.967 8.227-.683-.352-1.43-.591-2.22-.702-.82-3.484-1.568-6.629-1.655-6.926-.313-.997-.949-1.813-1.767-2.368-.966 2.533-3.674 4.34-6.387 4.21.444 1.725 1.999 3.009 3.861 3.009 1.229 0 2.331-.557 3.065-1.433.158.666.337 1.42.529 2.234-1.002.752-2.247 1.198-3.594 1.198-2.232 0-4.18-1.228-5.213-3.041-.225.951-.476 2.013-.734 3.11zm5.948-10.069c-1.857 0-3.409 1.278-3.857 2.997.928.031 1.845-.211 2.651-.714.856-.534 1.492-1.314 1.863-2.23-.215-.031-.434-.052-.657-.052z"/></svg>