<?xml version="1.0" encoding="UTF-8"?>
<svg xmlns="http://www.w3.org/2000/svg" id="Layer_1" data-name="Layer 1" viewBox="0 0 24 24">
  <path d="M18,16.406v-2.406h-1.853c-.975-1.416-1.664-2.729-2.145-4h.997v-2h-1.599c-.294-1.317-.401-2.625-.401-4v-.5h1V1.5h-1V0h-2V1.5h-1V3.5h1v.5c0,1.375-.107,2.683-.401,4h-1.599v2h.997c-.48,1.271-1.17,2.584-2.145,4h-1.853v2.406c-1.285,1.533-3.064,3.366-5,5.161v2.433h7c0-2.206,1.794-4,4-4s4,1.794,4,4h7v-2.433c-1.905-1.786-3.753-3.682-5-5.161Zm-6-6.06c.425,1.226,.991,2.431,1.735,3.654h-3.47c.744-1.223,1.31-2.428,1.735-3.654Zm5.65,11.654c-.826-2.327-3.043-4-5.65-4s-4.824,1.673-5.65,4H3.453c2.273-2.179,4.063-4.134,5.453-6h6.187c1.39,1.866,3.18,3.821,5.453,6h-2.897Z"/>
</svg>
