<svg id="Layer_1" viewBox="0 0 24 24" xmlns="http://www.w3.org/2000/svg" data-name="Layer 1"><path d="m17.542 16.005-.003-.01c.324-.043 2.711-.411 4.381-2.21 1.795-1.933 2.079-4.785 2.079-4.785s-2.626.282-4.421 2.215c-1.594 1.716-1.996 4.152-2.066 4.678-.056-.26-.496-1.782-.513-3.922.131-3.137.405-3.33.797-4.971l-4.528-.01c-.124-.547-.268-1.408-.268-2.49.147-3.1.382-2.774.912-4.5l-7.727.009c.379 1.544.681 1.803.815 4.521-.023 1.798-.445 3.097-.513 3.375-.067-.462-.441-2.54-1.906-4.005-1.657-1.658-4.081-1.9-4.081-1.9s.263 2.444 1.919 4.101c1.564 1.564 3.81 1.867 4.056 1.896v.006c-.236.029-2.689.374-4.396 2.212-1.795 1.933-2.079 4.785-2.079 4.785s2.626-.282 4.421-2.215c1.638-1.763 2.017-4.285 2.071-4.714.037.181.494 2.17.509 3.93-.025 1.888-.467 3.692-.53 4.028.091.378.497 1.623.53 3.501-.138 2.721-.436 2.915-.832 4.479l11.746-.008c-.526-1.751-.914-2-.914-4.5.035-2.16.406-3.037.513-3.4.069.472.446 2.541 1.906 4.001 1.657 1.657 4.081 1.899 4.081 1.899s-.263-2.444-1.919-4.101c-1.534-1.534-3.723-1.855-4.038-1.894zm-2.269-1.005-1.964-.011c-.136-.703-.309-1.831-.309-3.019 0-1.169.168-2.276.302-2.981l1.968.011c-.135.785-.271 1.835-.271 2.971 0 1.145.138 2.243.274 3.029zm-6.568-6.007 2.566.007c-.135.785-.271 1.832-.271 2.971 0 1.145.138 2.243.274 3.029l-2.566-.007c.14-.842.292-1.981.292-2.993 0-1.018-.154-2.163-.295-3.007zm2.521-6.993c-.12.655-.227 1.497-.227 2.5 0 .994.105 1.858.224 2.5l-2.471-.007c.127-.684.247-1.564.247-2.463 0-.918-.125-1.834-.254-2.536l2.48.007zm-2.472 19.992c.126-.683.246-1.565.246-2.463 0-.919-.125-1.834-.254-2.537l2.482.007c-.12.656-.228 1.495-.228 2.5 0 .991.104 1.858.223 2.5l-2.469-.008zm4.514-.002c-.124-.547-.269-1.408-.269-2.49 0-1.071.142-1.945.266-2.51l1.962.01c-.12.656-.228 1.495-.228 2.5 0 .991.104 1.858.223 2.5z"/></svg>