<?xml version="1.0" encoding="UTF-8"?>
<svg xmlns="http://www.w3.org/2000/svg" id="Layer_1" data-name="Layer 1" viewBox="0 0 24 24">
  <path d="M8.5,12h-3.5V5h3.5v1.6h-1.9v1.101h1.9v1.6h-1.9v1.101h1.9v1.6Zm3.628-1.543c-.425,0-1.018-.38-1.289-.619l-1.062,1.196c.117,.104,1.184,1.022,2.352,1.022,1.134,0,2.339-.748,2.339-2.133,0-1.302-1.127-1.841-1.95-2.235-.619-.296-1.024-.509-1.024-.765,0-.443,.525-.457,.585-.457,.23,0,.724,.279,1.021,.53l1.034-1.221c-.179-.151-1.117-.908-2.056-.908-1.245,0-2.185,.884-2.185,2.056,0,1.283,1.117,1.818,1.933,2.208,.734,.352,1.042,.539,1.042,.792,0,.519-.664,.534-.739,.534Zm11.872-3.457v14.855c.053,1.663-1.984,2.754-3.34,1.787l-3.963-2.642H6v-3.131l-2.66,1.774c-1.356,.967-3.393-.124-3.34-1.787V3C0,1.346,1.346,0,3,0h13c1.654,0,3,1.346,3,3v1h2c1.654,0,3,1.346,3,3ZM6.697,15h10.303V3c0-.551-.448-1-1-1H3c-.552,0-1,.449-1,1v14.855c-.038,.086,.181,.202,.23,.123l4.467-2.978ZM22,7c0-.551-.448-1-1-1h-2v11H8v2h9.303l4.467,2.978c.046,.081,.27-.037,.23-.123V7Z"/>
</svg>
