<?xml version="1.0" encoding="UTF-8"?>
<svg xmlns="http://www.w3.org/2000/svg" id="Layer_1" data-name="Layer 1" viewBox="0 0 24 24">
  <path d="M3,10H1V2.929C.955,1.133,2.754-.338,4.505,.058l6.001,1.206c.576,.116,1.085,.394,1.494,.774,.409-.38,.917-.658,1.494-.774L19.495,.058c1.753-.396,3.55,1.075,3.505,2.871v7.071h-2V2.929c-.107-.712-.393-.941-1.111-.91l-6.001,1.206c-.514,.103-.887,.559-.887,1.083v5.691h-2V4.309c0-.525-.373-.98-.887-1.083l-6.002-1.206c-.713-.036-1.006,.2-1.111,.91v7.071Zm21,2c0,6.617-5.383,12-12,12S0,18.617,0,12H2c0,1.045,.162,2.052,.461,3h3.442c-.246-.956-.403-1.958-.403-3h2c0,1.04,.179,2.048,.47,3h8.058c.292-.953,.472-1.961,.472-3h2c0,1.042-.157,2.044-.403,3h3.442c.299-.948,.461-1.955,.461-3h2Zm-14.611,9.642c-.94-1.167-2.024-2.767-2.811-4.642H3.353c1.308,2.253,3.466,3.945,6.036,4.642Zm5.834-4.642h-6.449c1.024,2.086,2.413,3.725,3.226,4.586,.812-.862,2.199-2.503,3.223-4.586Zm5.425,0h-3.225c-.787,1.875-1.87,3.475-2.811,4.642,2.57-.697,4.728-2.389,6.036-4.642Z"/>
</svg>
