<?xml version="1.0" encoding="UTF-8"?>
<svg xmlns="http://www.w3.org/2000/svg" id="Layer_1" data-name="Layer 1" viewBox="0 0 24 24">
  <path d="M23.196,4.02c-.208-.042-5.167-1.02-11.196-1.02S1.012,3.978,.804,4.02l-.804,.161v15.639l.804,.161c.208,.042,5.167,1.02,11.196,1.02s10.988-.978,11.196-1.02l.804-.161V4.181l-.804-.161Zm-1.196,14.143c-1.632,.272-5.557,.838-10,.838s-8.368-.565-10-.838V5.838c1.632-.272,5.557-.838,10-.838s8.368,.565,10,.838v12.324Zm-4.5-2.162h-1.5V8h1.5v.009l2,4.273v-4.282h1.5v8h-1.5l-2-4.231v4.231Zm-7.5,0h1.5v-3h1c1.381,0,2.5-1.119,2.5-2.5s-1.119-2.5-2.5-2.5h-2.5v8Zm1.5-6.5h1c.551,0,1,.449,1,1s-.449,1-1,1h-1v-2Zm-4.238-1.5h1.673l-1.308,6.425c-.126,.647-.687,1.575-1.628,1.575s-1.51-.97-1.618-1.531l-1.381-6.469h1.634l1.312,6.135c.014,.072,.034,.129,.054,.172,.02-.047,.042-.109,.057-.187l1.206-6.12Z"/>
</svg>
