<svg id="Layer_1" viewBox="0 0 24 24" xmlns="http://www.w3.org/2000/svg" data-name="Layer 1"><path d="m3 22h18v2h-18zm21-19v12.231c0 .742-.273 1.455-.772 2.01l-2.489 2.759h-17.477l-2.489-2.759c-.499-.555-.772-1.268-.772-2.01v-12.231c-.001-1.654 1.345-3 2.999-3s3 1.346 3 3v5.184c.266-.094.542-.164.832-.18.795-.041 1.568.228 2.164.762l3.004 2.763 2.995-2.755c.605-.543 1.373-.809 2.173-.77.29.016.566.086.832.18v-5.184c0-1.654 1.346-3 3-3s3 1.346 3 3zm-12 15v-3.314c0-.278-.118-.547-.323-.736l-4.026-3.703c-.375-.354-1.057-.319-1.397.085-.329.367-.337.928-.021 1.306l2.57 2.67-1.441 1.387-2.616-2.721c-.488-.58-.727-1.28-.732-1.973h-.014v-8.001c0-.552-.449-1-1-1s-1 .448-1 1v12.231c0 .248.092.486.258.671l1.893 2.098h7.85zm10-15c0-.552-.449-1-1-1s-1 .448-1 1v8h-.009c0 .684-.228 1.369-.693 1.922l-2.578 2.685-1.441-1.387 2.533-2.634c.13-.157.192-.369.189-.586 0-.239-.085-.478-.254-.669-.35-.408-1.011-.438-1.406-.077l-2.909 2.677c.366.508.569 1.122.569 1.755v3.314h5.85l1.893-2.098c.166-.185.258-.423.258-.671v-12.231z"/></svg>