<svg id="Layer_1" viewBox="0 0 24 24" xmlns="http://www.w3.org/2000/svg" data-name="Layer 1"><path d="m18 3v8h-2v-8c0-.551-.448-1-1-1h-2.127c-.444 1.723-2.013 3-3.873 3s-3.429-1.277-3.873-3h-2.127c-.552 0-1 .449-1 1v15h1v2h-1v1c0 .551.448 1 1 1h8v2h-8c-1.654 0-3-1.346-3-3v-18c0-1.654 1.346-3 3-3h4v1c0 1.103.897 2 2 2s2-.897 2-2v-1h4c1.654 0 3 1.346 3 3zm-13 17h2v-2h-2zm4 0h2v-2h-2zm10 4h2v-2h-2zm3-3h2v-2h-2zm-3 0h2v-2h-2zm-6-8h5v5h-5zm2 3h1v-1h-1zm-2 3h5v5h-5zm2 3h1v-1h-1zm9-9v5h-5v-5zm-2 2h-1v1h1z"/></svg>