<svg id="Layer_1" viewBox="0 0 24 24" xmlns="http://www.w3.org/2000/svg" data-name="Layer 1"><path d="m11 11c2.206 0 4-1.785 4-3.979 0-1.866-1.254-3.021-2.417-3.021-.134 0-.259.012-.383.025.128-.433.322-.869.643-1.221.493-.541 1.198-.804 2.156-.804v-2c-1.537 0-2.763.494-3.645 1.468-.713.788-1.062 1.761-1.228 2.612-.224-.046-.463-.079-.727-.079-1.155 0-2.401 1.155-2.401 3.021 0 2.194 1.794 3.979 4 3.979zm-1.599-5c.571 0 .938.292.939.293l.668.586.661-.595s.361-.285.876-.289c.117.033.455.35.455 1.025 0 1.091-.897 1.979-2 1.979s-2-.888-2-1.979c0-.738.369-1.003.401-1.021zm14.577 7-7.003-5.497c-.06.746-.26 1.453-.571 2.097l4.34 3.4h-17.033c-.137 0-.271.013-.404.029.538-1.118 1.293-2.26 2.364-3.272-.332-.639-.554-1.343-.635-2.09-3.656 3.051-5.036 7.23-5.036 10.833 0 1.625.388 2.642.819 3.625.501 1.139 1.636 1.875 2.892 1.875h20.289v-11zm-13.978 3c0 .551-.449 1-1 1s-1-.449-1-1 .449-1 1-1 1 .449 1 1zm5 4.5c0-.827.673-1.5 1.5-1.5s1.5.673 1.5 1.5-.673 1.5-1.5 1.5-1.5-.673-1.5-1.5zm7 1.5h-2.351c.219-.456.351-.961.351-1.5 0-1.93-1.57-3.5-3.5-3.5s-3.5 1.57-3.5 3.5c0 .539.133 1.044.351 1.5h-9.64c-.463 0-.879-.267-1.061-.68-.305-.694-.65-1.48-.65-2.82s.346-2.126.65-2.82c.182-.413.598-.68 1.061-.68h2.473c-.112.314-.184.648-.184 1 0 1.654 1.346 3 3 3s3-1.346 3-3c0-.352-.072-.686-.184-1h10.184z"/></svg>