<svg id="Layer_1" viewBox="0 0 24 24" xmlns="http://www.w3.org/2000/svg" data-name="Layer 1"><path d="m6 17.5c0 .552-.448 1-1 1s-1-.448-1-1 .448-1 1-1 1 .448 1 1zm2-1.5c-.552 0-1 .448-1 1s.448 1 1 1 1-.448 1-1-.448-1-1-1zm-1 3c-.552 0-1 .448-1 1s.448 1 1 1 1-.448 1-1-.448-1-1-1zm17-11v16h-12.721c.65-.572 1.205-1.246 1.642-2h4.079v-14c0-.352.072-.686.184-1h-8.184c-.551 0-1 .449-1 1h-2c0-1.654 1.346-3 3-3h5.963l.656-5h6.381v2h-4.617l-.441 3h4.059c1.654 0 3 1.346 3 3zm-2 0c0-.551-.448-1-1-1h-1c-.552 0-1 .449-1 1v14h3zm-10 10c0 3.309-2.691 6-6 6s-6-2.691-6-6c0-2.862 2.016-5.259 4.701-5.854-.237-.632-.528-1.083-.533-1.09l1.661-1.114c.03.044.473.714.806 1.673.131-.242.282-.476.482-.676 1.074-1.073 2.883-.939 2.883-.939s.13 1.784-.921 2.86c1.746 1.05 2.921 2.958 2.921 5.14zm-2 0c0-2.206-1.794-4-4-4s-4 1.794-4 4 1.794 4 4 4 4-1.794 4-4z"/></svg>