<?xml version="1.0" encoding="UTF-8"?>
<svg xmlns="http://www.w3.org/2000/svg" id="Layer_1" data-name="Layer 1" viewBox="0 0 24 24">
  <path d="M24,12.788v2.212h-2.33l-.449,3.394c-.197,1.486-1.476,2.606-2.974,2.606h-2.247v3H3v-4.709c0-.46-.162-.908-.457-1.262-1.64-1.971-2.543-4.467-2.543-7.029H2c0,2.096,.739,4.138,2.08,5.749,.593,.712,.92,1.614,.92,2.542v2.709H14v-3h4.247c.5,0,.926-.373,.992-.869l.678-5.131h1.99c-1.101-2.5-2.513-5.929-3.684-7.353-1.745-2.329-4.369-3.647-7.223-3.647V0c3.49,0,6.697,1.61,8.8,4.418,1.408,1.701,2.954,5.577,4.2,8.37ZM2,0H0V2H2V0ZM6,6h2v-2h-2v2ZM1,9H3v-2H1v2Zm1-4h2V3H2v2ZM7,0h-2V2h2V0Zm0,14c.35,0,.683-.075,1-.188v6.188h2v-7.031c.74-.102,1.411-.444,1.943-.969h2.057c1.654,0,3-1.346,3-3,0-1.217-.718-2.282-1.82-2.75-.717-.854-1.792-1.335-2.941-1.239-.56-.637-1.366-1.011-2.239-1.011v2c.377,0,.718,.215,.89,.561l.375,.756c.273-.07,.972-.329,1.235-.316,.494,0,.957,.245,1.239,.656l.201,.293c.542,.097,1.079,.45,1.061,1.051,0,.551-.449,1-1,1h-3.007c-.338,.521-.827,1.03-1.493,1-.26,.013-.966-.247-1.235-.316l-.375,.756c-.171,.346-.512,.561-.89,.561-.551,0-1-.449-1-1s.449-1,1-1v-2c-1.654,0-3,1.346-3,3s1.346,3,3,3Z"/>
</svg>
