<?xml version="1.0" encoding="UTF-8"?>
<svg xmlns="http://www.w3.org/2000/svg" id="Layer_1" data-name="Layer 1" viewBox="0 0 24 24">
  <path d="M23.688,11.654c-.131-.354-3.287-8.654-11.688-8.654C3.32,3.153,.464,11.306,.185,11.999c.276,.691,3.121,8.85,11.815,9.001,8.681-.154,11.536-8.305,11.815-9l-.127-.346Zm-11.688,7.346c-6.234,0-9.037-5.529-9.671-6.999,.637-1.47,3.448-7.001,9.671-7.001s9.033,5.529,9.671,7c-.638,1.471-3.449,7-9.671,7Zm5-7c0,2.761-2.239,5-5,5-1.669,0-3.138-.826-4.046-2.083l1.503-1.503,1.5,1.5,2.707-2.707,1.293,1.293v-3.429c0-.316-.256-.571-.571-.571h-3.429l1.293,1.293-1.293,1.293-1.5-1.5-2.362,2.362c-.059-.307-.096-.623-.096-.947,0-2.761,2.239-5,5-5s5,2.239,5,5Z"/>
</svg>
