<?xml version="1.0" encoding="UTF-8"?>
<svg xmlns="http://www.w3.org/2000/svg" id="Layer_1" data-name="Layer 1" viewBox="0 0 24 24">
  <path d="M14,12h-3.5V5h3.5v1.6h-1.9v1.101h1.9v1.6h-1.9v1.101h1.9v1.6Zm-6.5,0h-2.5V5h2.5c1.105,0,2,.895,2,2v3c0,1.105-.895,2-2,2Zm-.9-1.6h.9c.221,0,.4-.179,.4-.4v-3c0-.221-.179-.4-.4-.4h-.9v3.8Zm17.4-3.4v14.855c.053,1.663-1.984,2.754-3.34,1.787l-3.963-2.642H6v-3.132l-2.661,1.774c-1.355,.968-3.393-.125-3.339-1.787V3C0,1.346,1.346,0,3,0h13c1.654,0,3,1.346,3,3v1h2c1.654,0,3,1.346,3,3ZM6.697,15h10.303V3c0-.551-.449-1-1-1H3c-.551,0-1,.449-1,1v14.855c-.039,.085,.18,.203,.229,.123l4.468-2.978ZM22,7c0-.551-.449-1-1-1h-2v11H8v2h9.303l4.467,2.978c.048,.08,.269-.038,.23-.123V7Z"/>
</svg>
