<svg id="Layer_1" viewBox="0 0 24 24" xmlns="http://www.w3.org/2000/svg" data-name="Layer 1"><path d="m8 12c0 .828-.672 1.5-1.5 1.5s-1.5-.672-1.5-1.5.672-1.5 1.5-1.5 1.5.672 1.5 1.5zm-6.5-1.5c-.828 0-1.5.672-1.5 1.5s.672 1.5 1.5 1.5 1.5-.672 1.5-1.5-.672-1.5-1.5-1.5zm17 1.5c0-.563-.22-1.091-.595-1.465l-6.676-7.092-1.457 1.371 6.779 7.167-6.779 7.206 1.457 1.371 6.653-7.069c.398-.396.618-.925.618-1.488zm4.904-1.466-9.176-9.721-1.455 1.373 9.28 9.801-9.28 9.826 1.455 1.373 9.156-9.7c.397-.396.616-.924.616-1.486s-.219-1.09-.596-1.466zm-10.404 1.466c0-.828-.672-1.5-1.5-1.5s-1.5.672-1.5 1.5.672 1.5 1.5 1.5 1.5-.672 1.5-1.5z"/></svg>