<svg id="Layer_1" viewBox="0 0 24 24" xmlns="http://www.w3.org/2000/svg" data-name="Layer 1"><path d="m6.874 16.515h-1.374v-1.415h1.298c.394 0 .715.321.715.715 0 .368-.282.66-.639.7zm.364 1.6h-1.752l.013 1.785h1.738c.493 0 .893-.401.893-.893 0-.492-.401-.892-.893-.892zm5.762-.615c0 3.59-2.91 6.5-6.5 6.5s-6.5-2.91-6.5-6.5 2.91-6.5 6.5-6.5 6.5 2.91 6.5 6.5zm-3.269 1.507c0-.734-.481-1.507-1.058-1.843.275-.381.441-.844.441-1.349 0-1.106-.803-2.022-1.84-2.252l-.002-1.063h-1.6l-.007 1h-1.665v8h1.7v1h1.6v-1l.231-.029c1.237-.146 2.2-1.187 2.2-2.463zm14.269-15.007v15.75c0 2.423-3.225 4.25-7.5 4.25-1.451 0-2.776-.215-3.901-.588.5-.516.934-1.094 1.291-1.723.754.186 1.621.31 2.61.31 3.357 0 5.5-1.333 5.5-2.25v-.981c-1.349.765-3.28 1.231-5.5 1.231-.644 0-1.255-.05-1.843-.124.184-.631.291-1.293.323-1.975.478.058.977.099 1.52.099 3.307 0 5.5-1.204 5.5-2v-1.231c-1.349.765-3.28 1.231-5.5 1.231-.573 0-1.125-.034-1.654-.093-.143-.753-.388-1.467-.716-2.135.701.139 1.492.228 2.37.228 3.307 0 5.5-1.204 5.5-2v-1.231c-1.349.765-3.28 1.231-5.5 1.231-1.559 0-2.962-.24-4.135-.643-.943-.9-2.088-1.59-3.365-1.982v-5.374c0-2.28 3.225-4 7.5-4s7.5 1.72 7.5 4zm-13 0c0 .796 2.193 2 5.5 2s5.5-1.204 5.5-2-2.193-2-5.5-2-5.5 1.204-5.5 2zm11 4v-1.231c-1.349.765-3.28 1.231-5.5 1.231s-4.151-.466-5.5-1.231v1.231c0 .796 2.193 2 5.5 2s5.5-1.204 5.5-2z"/></svg>