<?xml version="1.0" encoding="UTF-8"?>
<svg xmlns="http://www.w3.org/2000/svg" id="Layer_1" data-name="Layer 1" viewBox="0 0 24 24">
  <path d="M24,13V6h-1.718c-.291-.54-.663-1.034-1.11-1.457-.625-.591-1.361-1.015-2.171-1.267V1h-2V3.017c-.049,.002-.098-.001-.147,.002l-9.048,1.35c-.317-.226-1.432-1.307-3.805-1.369C1.301,3.167,.662,4.064-.037,4.562L.775,15H3v2h2v-2h2.446l.18-3.239,5.374,.683v7.557H0v2H24v-2h-1v-7h1Zm-21.375,0l-.583-7.487c.411-.225,1.104-.513,1.957-.513,.862,0,1.561,.294,1.97,.52l-.416,7.48H2.625Zm12.375,7V10.682l-7.263-.923,.188-3.386,9.131-1.367c1.027-.057,2.004,.294,2.742,.99,.775,.733,1.202,1.748,1.202,2.858v11.146h-6Zm4.5-3.5c0,.828-.672,1.5-1.5,1.5s-1.5-.672-1.5-1.5,.672-1.5,1.5-1.5,1.5,.672,1.5,1.5Zm0-4c0,.828-.672,1.5-1.5,1.5s-1.5-.672-1.5-1.5,.672-1.5,1.5-1.5,1.5,.672,1.5,1.5Z"/>
</svg>
