<svg id="Layer_1" viewBox="0 0 24 24" xmlns="http://www.w3.org/2000/svg" data-name="Layer 1"><path d="m24 11v2h-4v-2zm-.504-4.132-.992-1.736-3.5 2 .992 1.736zm-4.492 10 3.5 2 .992-1.736-3.5-2zm-10.004-7.868h-1v3.283l-1.438-1.345-1.328 1.494 2.268 2.083-2.251 2.082 1.336 1.488 1.414-1.329v3.243h1l4-3-3-2.5 3-2.5-4-3zm9-5.5v17c0 2.763-5.657 3.5-9 3.5s-9-.737-9-3.5v-17c0-2.763 5.657-3.5 9-3.5s9 .737 9 3.5zm-15.973 0c.365.476 2.727 1.5 6.973 1.5s6.607-1.024 6.974-1.5c-.366-.476-2.728-1.5-6.974-1.5s-6.608 1.024-6.973 1.5zm13.983 16.941-.008-14.607c-1.952.88-4.923 1.165-7.001 1.165s-5.048-.286-7-1.165v14.665c.19.385 2.568 1.5 7 1.5s6.81-1.115 7.01-1.559z"/></svg>