<?xml version="1.0" encoding="UTF-8"?>
<svg xmlns="http://www.w3.org/2000/svg" id="Layer_1" data-name="Layer 1" viewBox="0 0 24 24">
  <path d="M4,12v-4C4,3.589,7.589,0,12,0s8,3.589,8,8v1h-6v-2h3.91c-.478-2.833-2.942-5-5.91-5s-5.431,2.167-5.91,5h3.91v2H6v2h4v2h-3.907c.234,1.376,.931,2.594,1.933,3.483-.01,.172-.026,.342-.026,.517,0,.71,.091,1.398,.246,2.06-2.524-1.347-4.246-4.005-4.246-7.06Zm5.429,9.854c-4.215-.747-7.429-4.428-7.429-8.854H0c0,6.065,4.935,11,11,11h.349c-.75-.606-1.397-1.332-1.92-2.146Zm14.571-4.854c0,3.86-3.141,7-7,7s-7-3.14-7-7,3.141-7,7-7,7,3.14,7,7Zm-7-5c-1.017,0-1.962,.309-2.753,.833l6.919,6.92c.524-.791,.833-1.736,.833-2.753,0-2.757-2.243-5-5-5Zm0,10c1.017,0,1.962-.309,2.753-.833l-6.92-6.92c-.524,.791-.833,1.736-.833,2.753,0,2.757,2.243,5,5,5Z"/>
</svg>
