<svg id="Layer_1" viewBox="0 0 24 24" xmlns="http://www.w3.org/2000/svg" data-name="Layer 1"><path d="m15.465 10.536c.943.944 2.199 1.464 3.535 1.464s2.59-.52 3.535-1.464c1.949-1.95 1.949-5.122-.008-7.08l-3.527-3.45-3.535 3.458c-1.949 1.95-1.949 5.122 0 7.071zm1.406-5.65 2.129-2.082 2.121 2.074c1.17 1.17 1.17 3.073 0 4.243-1.136 1.133-3.11 1.132-4.242 0-1.17-1.17-1.17-3.073-.008-4.235zm5.028 8.481c.77-.353 1.492-.839 2.096-1.468 0 5.58-3.828 10.369-8.995 11.706v-2.066c3.631-1.145 6.368-4.311 6.899-8.172zm-8.899 4.633v2.77c0 1.007-.458 1.939-1.257 2.557-.573.443-1.273.674-1.974.674-.271 0-.528-.034-.797-.104-5.201-1.353-8.974-6.356-8.972-11.897-.046-3.085 1.241-6.178 3.532-8.468 2.285-2.286 5.391-3.532 8.468-3.532 1.333 0 2.458.194 3.586.548l-1.535 1.502c-.045.045-.083.094-.127.14-.623-.122-1.266-.19-1.924-.19-.005 0-.009-.003-.015-.003v.003c-2.579-.063-5.129 1.036-7.04 2.946-1.91 1.91-2.984 4.476-2.946 7.04-.002 4.66 3.142 8.849 7.476 9.975.367.097.745.016 1.044-.216.305-.236.48-.591.48-.975v-2.77c-2.206 0-4-1.794-4-4v-2h-1v-2h3v-4h2v4h1.681c.351.732.821 1.422 1.425 2h-5.105v2c0 1.103.897 2 2 2h2c1.103 0 2-.897 2-2v-1.26c.614.43 1.286.758 2 .97v.29c0 2.206-1.794 4-4 4z"/></svg>