<svg id="Layer_1" viewBox="0 0 24 24" xmlns="http://www.w3.org/2000/svg" data-name="Layer 1"><path d="m22 17.844c.213.684 1 3.394 1 6.156h-2c-.048-3.014-.899-5.535-1-5.838l.039-8.937c.545-1.91 1.961-7.29 1.961-9.225h2c0 2.442-1.711 8.614-2 9.639zm-20-17.844h-2c0 2.442 1.711 8.614 2 9.639v8.205c-.213.684-1 3.394-1 6.156h2c.044-3.003.905-5.553 1-5.838v-8.662c-.484-2.068-2.011-7.405-2-9.5zm10 13c.828 0 1.5-.672 1.5-1.5s-.672-1.5-1.5-1.5-1.5.672-1.5 1.5.672 1.5 1.5 1.5zm3 2.5 2.5 1.5-2.5 1.5v2.5l-3-1.643-3 1.643v-2.5l-2.5-1.5 2.5-1.5v-2.5l3 1.643 3-1.643zm-1.5 1.5c0-.828-.672-1.5-1.5-1.5s-1.5.672-1.5 1.5.672 1.5 1.5 1.5 1.5-.672 1.5-1.5zm-1.5 4c-.828 0-1.5.672-1.5 1.5s.672 1.5 1.5 1.5 1.5-.672 1.5-1.5-.672-1.5-1.5-1.5zm0-13c.828 0 1.5-.672 1.5-1.5s-.672-1.5-1.5-1.5-1.5.672-1.5 1.5.672 1.5 1.5 1.5zm0-5c.828 0 1.5-.672 1.5-1.5s-.672-1.5-1.5-1.5-1.5.672-1.5 1.5.672 1.5 1.5 1.5z"/></svg>