<?xml version="1.0" encoding="UTF-8"?>
<svg xmlns="http://www.w3.org/2000/svg" id="Layer_1" data-name="Layer 1" viewBox="0 0 24 24">
  <path d="M20.402,17c-1.513,0-2.672,.947-3.402,1.784-.73-.837-1.89-1.784-3.402-1.784-1.983,0-3.598,1.57-3.598,3.5s1.614,3.5,3.598,3.5c1.513,0,2.672-.947,3.402-1.784,.73,.837,1.89,1.784,3.402,1.784,1.983,0,3.598-1.57,3.598-3.5s-1.614-3.5-3.598-3.5Zm-6.805,5c-.881,0-1.598-.673-1.598-1.5s.717-1.5,1.598-1.5c.931,0,1.759,.859,2.221,1.5-.462,.641-1.29,1.5-2.221,1.5Zm6.805,0c-.931,0-1.759-.859-2.221-1.5,.462-.641,1.29-1.5,2.221-1.5,.881,0,1.598,.673,1.598,1.5s-.717,1.5-1.598,1.5Zm.598-20H12.236L8.236,0H3C1.346,0,0,1.346,0,3V22H8.217c-.138-.478-.217-.979-.217-1.5,0-.169,.011-.335,.026-.5H2V8H22v7.231c.743,.218,1.421,.583,2,1.061V5c0-1.654-1.346-3-3-3ZM2,6V3c0-.551,.448-1,1-1H7.764l4,2h9.236c.552,0,1,.449,1,1v1H2Z"/>
</svg>
