<?xml version="1.0" encoding="UTF-8"?>
<svg xmlns="http://www.w3.org/2000/svg" id="Layer_1" data-name="Layer 1" viewBox="0 0 24 24">
  <path d="M21,2H3C1.346,2,0,3.346,0,5V22H24V5c0-1.654-1.346-3-3-3Zm1,3v6.124L12.685,4h8.315c.551,0,1,.449,1,1Zm-2.146,7l-7.854,6.006-7.854-6.006,7.854-6.006,7.854,6.006ZM3,4H11.315L2,11.124V5c0-.551,.449-1,1-1Zm-1,8.876l9.315,7.124H2v-7.124Zm10.685,7.124l9.315-7.124v7.124H12.685Zm2.801-7.859c-2.201-1.83-4.669-2.392-6.004-2.563,.637-.662,1.527-1.078,2.518-1.078,1.933,0,3.5,1.567,3.5,3.5,0,.048-.012,.093-.014,.141Zm-6.986-.141c0-.171,.027-.334,.05-.498,.448,.016,3.713,.225,6.188,2.655-.641,.812-1.623,1.344-2.738,1.344-1.933,0-3.5-1.567-3.5-3.5Z"/>
</svg>
