<svg id="Layer_1" viewBox="0 0 24 24" xmlns="http://www.w3.org/2000/svg" data-name="Layer 1"><path d="m10.952 22h1.274l-.587 2h-.687c-6.039 0-10.952-4.935-10.952-11h2c0 4.963 4.016 9 8.952 9zm-.953-2.264v-2.087c-2.022-.718-3.547-2.488-3.912-4.65h3.913v-2h-4v-2h4v-2h-3.91c.478-2.833 2.942-5 5.91-5s5.431 2.167 5.91 5h-3.91v2h4v1h2v-2c0-4.41-3.589-7.999-8-7.999s-8 3.589-8 8v4c0 3.719 2.555 6.844 5.999 7.736zm9.827-3.373-1.283-4.363h-1.059l-1.285 4.363h-4.2v1.006l3.079 2.016-1.181 4.022.787.593 3.331-2.338 3.382 2.338.818-.571-1.271-3.982 3.054-2.083h.002v-1.001z"/></svg>