<svg id="Layer_1" viewBox="0 0 24 24" xmlns="http://www.w3.org/2000/svg" data-name="Layer 1"><path d="m18 13.07 2-2v12.929h-20v-20.999c0-1.654 1.346-3 3-3h13.93l-2 2h-11.93c-.552 0-1 .449-1 1v19h16zm6-10.07c0 .801-.313 1.555-.879 2.122l-7.879 7.878h-4.242v-4.243l7.879-7.878c1.17-1.17 3.072-1.17 4.242 0 .566.566.879 1.32.879 2.121zm-2 0c0-.267-.104-.518-.293-.707-.391-.391-1.023-.39-1.414 0l-7.293 7.292v1.415h1.414l7.293-7.293c.189-.189.293-.44.293-.707zm-13.456 6.366-2.547 2.547-1.282-1.213-1.375 1.453 1.431 1.353c.348.329.789.493 1.23.493.457.001.913-.175 1.265-.526l2.692-2.693zm-3.829 6.334-1.375 1.453 1.431 1.354c.348.329.789.493 1.229.493.457 0 .914-.177 1.266-.528l2.692-2.692-1.414-1.414-2.548 2.548zm7.364.3-2.042 2h5.963v-2zm-3.535-11.634-2.547 2.547-1.282-1.213-1.375 1.453 1.431 1.353c.348.329.789.493 1.23.493.457.001.913-.175 1.265-.526l2.692-2.693z"/></svg>