<svg id="Layer_1" viewBox="0 0 24 24" xmlns="http://www.w3.org/2000/svg" data-name="Layer 1"><path d="m7.254 17.744c1.021-.002.33-.004 1.468-.005v1.255l-2.722.006-.006-6h1.255c.001 1.289.003 3.273.005 4.744zm9.221 1.256c1.11 0 2.012-.891 2.012-1.985v-.015l-.004-1h-1.25v.004l-.766.002v1.255c.633 0 .498-.003.718-.004-.106.279-.378.485-.698.491-.402-.007-.725-.333-.724-.736 0-.138-.008-1.929-.008-2.024 0-.403.322-.729.724-.736.408.007.75.339.75.733v.015h1.25v-.015c0-1.094-.903-1.985-2.012-1.985-1.086 0-1.967.881-1.967 1.967l.008 2.066c0 1.086.881 1.967 1.967 1.967zm-2.996-4.015v.015l.008 2v.015c0 1.094-.902 1.985-2.012 1.985-1.086 0-1.967-.881-1.967-1.967l-.008-2.066c0-1.086.881-1.967 1.967-1.967 1.109 0 2.012.891 2.012 1.985zm-1.242 2.03-.008-2.015v-.015c0-.394-.342-.726-.75-.733-.402.007-.725.333-.724.736 0 .095.008 1.886.008 2.024 0 .403.322.729.724.736.408-.007.75-.338.75-.733zm9.763-9.429v16.414h-20v-21c0-1.654 1.346-3 3-3h9.414zm-7-.586h3.586l-3.586-3.586zm5 2h-7v-7h-8c-.551 0-1 .449-1 1v19h16z"/></svg>