<svg id="Layer_1" viewBox="0 0 24 24" xmlns="http://www.w3.org/2000/svg" data-name="Layer 1"><path d="m24 12v12h-12c-5.476 0-10.097-3.691-11.531-8.712.699.414 1.501.666 2.364.695 1.543 3.536 5.069 6.017 9.167 6.017h10v-10c0-5.514-4.486-10-10-10h-1.213c-.188-.662-.508-1.264-.913-1.8.691-.124 1.399-.2 2.126-.2 6.617 0 12 5.383 12 12zm-24-1v-7h2v-.5c0-1.93 1.57-3.5 3.5-3.5s3.5 1.57 3.5 3.5v.5h2v7c0 1.654-1.346 3-3 3h-5c-1.654 0-3-1.346-3-3zm4-7h3v-.5c0-.827-.673-1.5-1.5-1.5s-1.5.673-1.5 1.5zm-2 7c0 .552.449 1 1 1h5c.551 0 1-.448 1-1v-5h-7zm4.5-3h-2v2h2z"/></svg>