<svg id="Layer_1" viewBox="0 0 24 24" xmlns="http://www.w3.org/2000/svg" data-name="Layer 1"><path d="m11.886 2.5c0-1.381 1.119-2.5 2.5-2.5s2.5 1.119 2.5 2.5-1.119 2.5-2.5 2.5-2.5-1.119-2.5-2.5zm10.114 17.5c-1.105 0-2 .895-2 2s.895 2 2 2 2-.895 2-2-.895-2-2-2zm-6.188-2.638 2.565 5.852-1.832.803-2.358-5.379-4.887-3.741c-1.159-.729-1.652-2.274-1.099-3.623l2.101-4.224-3.935-1.899-3.14-3.824 1.546-1.269 2.86 3.483 15.187 7.328-.869 1.801-6.354-3.066-2.664 5.556 2.88 2.202zm-5.369-4.104.857.655 2.495-5.178-1.693-.817-2.081 4.181c-.154.384.011.898.422 1.159zm-3.625 1.917-1.99 1.538-3.586-2.657-1.204 1.598 4.793 3.565 3.408-2.617c-.543-.359-1.073-.899-1.421-1.427z"/></svg>