<svg id="Layer_1" viewBox="0 0 24 24" xmlns="http://www.w3.org/2000/svg" data-name="Layer 1"><path d="m21 14.424v-1.424h-2v1h-2v10h2c2.757 0 5-2.243 5-5 0-2.045-1.237-3.802-3-4.576zm-2 7.576v-6c1.654 0 3 1.346 3 3s-1.346 3-3 3zm-16-9v1.424c-1.763.774-3 2.531-3 4.576 0 2.757 2.243 5 5 5h2v-10h-2v-1c0-3.859 3.141-7 7-7 .695 0 1.366.105 2 .295v-2.063c-.644-.147-1.312-.232-2-.232-4.963 0-9 4.037-9 9zm2 9c-1.654 0-3-1.346-3-3s1.346-3 3-3zm16-16.5 3 2.5-4 3h-1v-3.243l-1.414 1.329-1.336-1.488 2.251-2.082-2.268-2.083 1.328-1.494 1.438 1.345v-3.284h1l4 3-3 2.5z"/></svg>