<?xml version="1.0" encoding="UTF-8"?>
<svg xmlns="http://www.w3.org/2000/svg" id="Layer_1" data-name="Layer 1" viewBox="0 0 24 24">
  <path d="M12,0C7.038,0,3,4.037,3,9v6c0,4.963,4.038,9,9,9s9-4.037,9-9v-6C21,4.037,16.962,0,12,0Zm-.354,15.017c-.099-.27-.146-.521-.146-.767,0-1.24,1.009-2.25,2.25-2.25,1.177,0,2.158,.928,2.231,2.111l.048,.771,.759,.147c.702,.137,1.211,.755,1.211,1.47,0,.827-.673,1.5-1.5,1.5h-5.674c-.456,0-.826-.371-.826-.826,0-.43,.339-.788,.772-.816l1.332-.088-.458-1.253Zm.354-13.017c2.785,0,5.189,1.639,6.315,4H5.685c1.126-2.361,3.53-4,6.315-4ZM5,15v-6c0-.34,.033-.672,.08-1h13.84c.047,.328,.08,.66,.08,1v5.065c-.318-.327-.696-.598-1.125-.781-.44-1.889-2.133-3.283-4.125-3.283-2.343,0-4.25,1.906-4.25,4.25,0,.141,.008,.282,.023,.424-.907,.474-1.523,1.422-1.523,2.5,0,1.559,1.268,2.826,2.826,2.826h5.674c.15,0,.293-.026,.438-.044-1.267,1.262-3.013,2.044-4.938,2.044-3.86,0-7-3.141-7-7Z"/>
</svg>
