<?xml version="1.0" encoding="UTF-8"?>
<svg xmlns="http://www.w3.org/2000/svg" id="Layer_1" data-name="Layer 1" viewBox="0 0 24 24">
  <path d="M11,3.115V15c0,3.309-2.691,6-6,6H0V12.823l2.994-1.197-.326,2.285-.668,.267v4.823h3c2.206,0,4-1.794,4-4v-4.072c0-.512-.416-.928-.928-.928-.459,0-.854,.343-.919,.797l-.663,4.644-1.98-.282,.663-4.645c.205-1.434,1.451-2.514,2.899-2.514,.326,0,.635,.066,.928,.165V3.115c0-.542-.362-1.026-.826-1.101-.301-.051-.591,.03-.817,.224-.224,.191-.353,.468-.353,.76v3.134c-.742,.168-1.423,.502-2.002,.967l.002-4.102c0-.879,.385-1.711,1.056-2.282C6.73,.145,7.618-.101,8.493,.04c1.43,.231,2.507,1.554,2.507,3.076Zm10.006,11.51l.326,2.285,.668,.267v4.823h-3c-2.206,0-4-1.794-4-4v-4.072c0-.512,.416-.928,.928-.928,.459,0,.854,.343,.919,.796l.663,4.645,1.98-.282-.663-4.645c-.205-1.433-1.451-2.514-2.899-2.514-.326,0-.635,.066-.928,.165V6.115c0-.542,.362-1.026,.825-1.101,.299-.05,.591,.03,.818,.224,.224,.191,.353,.468,.353,.761v3.134c.742,.168,1.423,.502,2.002,.967l-.002-4.101c0-.879-.385-1.711-1.056-2.283-.672-.571-1.556-.814-2.435-.676-1.429,.231-2.506,1.554-2.506,3.076v11.885c0,3.309,2.691,6,6,6h5V15.823l-2.994-1.197Z"/>
</svg>
