<svg id="Layer_1" viewBox="0 0 24 24" xmlns="http://www.w3.org/2000/svg" data-name="Layer 1"><path d="m18 18.5v1.5h-12v-1.5c0-.828.672-1.5 1.5-1.5h2.5s0 1 1 1h2s1 .105 1-1h2.5c.828 0 1.5.672 1.5 1.5zm-12-12.5h-2v-2h2.35c.826-2.327 3.043-4 5.65-4 3.309 0 6 2.691 6 6s-2.691 6-6 6-6-2.691-6-6zm10 0h-8c0 2.206 1.794 4 4 4s4-1.794 4-4zm-7.444-2h6.887c-.694-1.19-1.97-2-3.444-2s-2.75.81-3.444 2zm7.944 17h-2.5c0 1.105-1 1-1 1h-2c-1 0-1-1-1-1h-2.5c-.828 0-1.5.672-1.5 1.5v1.5h12v-1.5c0-.828-.672-1.5-1.5-1.5zm.5-8h-10c-2.757 0-5 2.243-5 5v6h2v-6c0-1.654 1.346-3 3-3h10c1.654 0 3 1.346 3 3v6h2v-6c0-2.757-2.243-5-5-5z"/></svg>