<?xml version="1.0" encoding="UTF-8"?>
<svg xmlns="http://www.w3.org/2000/svg" id="Layer_1" data-name="Layer 1" viewBox="0 0 24 24">
  <path d="M11,10h2v2h-2v-2Zm.405-4.792c.145-.112,.453-.285,.881-.171,.334,.087,.617,.39,.689,.735,.109,.525-.178,.938-.512,1.114-.583,.308-1.464,.773-1.464,2.114h2c0-.064,.005-.101,.003-.107,.046-.044,.179-.125,.395-.238,1.198-.632,1.815-1.954,1.537-3.292-.229-1.092-1.068-1.979-2.14-2.261-.915-.242-1.868-.05-2.61,.522-.741,.572-1.184,1.47-1.184,2.402h2c0-.317,.151-.623,.405-.819Zm11.595,4.792v9H13v3h5v2H6v-2h5v-3H1V10c0-1.654,1.346-3,3-3h1V3c0-1.654,1.346-3,3-3h8c1.654,0,3,1.346,3,3V7h1c1.654,0,3,1.346,3,3Zm-4-1v4h1c.352,0,.686,.072,1,.184v-3.184c0-.551-.449-1-1-1h-1ZM7,3V13h10V3c0-.551-.449-1-1-1H8c-.551,0-1,.449-1,1ZM3,10v3.184c.314-.112,.648-.184,1-.184h1v-4h-1c-.551,0-1,.449-1,1Zm0,7H21v-1c0-.551-.449-1-1-1H4c-.551,0-1,.449-1,1v1Z"/>
</svg>
