<svg id="Layer_1" viewBox="0 0 24 24" xmlns="http://www.w3.org/2000/svg" data-name="Layer 1"><path d="m0 14h5.079c-.359.619-.634 1.29-.817 2h-4.262zm24 1v1h-4.262c-.183-.71-.458-1.381-.817-2h3.046c-.149-2.213-.794-4.251-1.809-6h-20.158v-2h3v-4h-3v-2h10c7.851 0 14 6.589 14 15zm-19-9h4v-4h-4zm13.718 0c-1.96-2.231-4.657-3.687-7.718-3.949v3.949zm-.718 12c0 3.309-2.691 6-6 6s-6-2.691-6-6 2.691-6 6-6 6 2.691 6 6zm-2 0c0-2.206-1.794-4-4-4s-4 1.794-4 4 1.794 4 4 4 4-1.794 4-4zm-3-3h-2v3.423l2.079 2.02 1.393-1.436-1.472-1.43z"/></svg>