<svg id="Layer_1" viewBox="0 0 24 24" xmlns="http://www.w3.org/2000/svg" data-name="Layer 1"><path d="m3.771 9.377 1.002-3.377h2.227l-.694 2 1.493.006c.361.001.575.404.374.704l-2.448 3.29-.61-.002.492-1.998h-1.397c-.309-.001-.53-.327-.439-.623zm-3.771-.377c0-3.309 2.691-6 6-6s6 2.691 6 6-2.691 6-6 6-6-2.691-6-6zm2 0c0 2.206 1.794 4 4 4s4-1.794 4-4-1.794-4-4-4-4 1.794-4 4zm22 11.5c0 1.93-1.57 3.5-3.5 3.5s-3.5-1.57-3.5-3.5c0-1.326.75-2.468 1.84-3.062l-.69-2.931-3.677 4.493h-6.824c.219.456.351.961.351 1.5 0 1.93-1.57 3.5-3.5 3.5s-3.5-1.57-3.5-3.5c0-.539.133-1.044.351-1.5h-1.351v-2h13.526l4.047-4.947-2.183-9.282c-.106-.454-.507-.771-.974-.771h-3.416v-2h3.416c1.398 0 2.6.951 2.921 2.312l3.462 14.718c1.788.155 3.201 1.643 3.201 3.47zm-19.5-1.5c-.827 0-1.5.673-1.5 1.5s.673 1.5 1.5 1.5 1.5-.673 1.5-1.5-.673-1.5-1.5-1.5zm17.5 1.5c0-.827-.673-1.5-1.5-1.5s-1.5.673-1.5 1.5.673 1.5 1.5 1.5 1.5-.673 1.5-1.5z"/></svg>