<svg id="Layer_1" viewBox="0 0 24 24" xmlns="http://www.w3.org/2000/svg" data-name="Layer 1"><path d="m2 3c0-.551.449-1 1-1h8v7h7v2h2v-3.414l-7.586-7.586h-9.414c-1.654 0-3 1.346-3 3v21h12v-2h-10zm11 .414 3.586 3.586h-3.586zm-2 11.586h-7v-2h7.627zm-7 2h6.5l-.627 2h-5.873zm20 1.664v.336c0 1.104-.895 2-2 2s-2-.896-2-2v-.336l.842-2.664h-1.842v6h3v2h-8v-2h3v-6h-1.821l.93 2.599v.575h-.013c-.114 1.027-.984 1.826-2.042 1.826-1.135 0-2.054-.92-2.054-2.054v-.333l1.5-4.612h3.5v-1h2v1h3.5l1.5 4.664z"/></svg>