<svg id="Layer_1" viewBox="0 0 24 24" xmlns="http://www.w3.org/2000/svg" data-name="Layer 1"><path d="m23.756 14.394.265-.791c-.423-.226-.685-.396-1.21-.633.308-.318.568-.682.727-1.097.954-2.481.136-5.634.101-5.767l-.28-1.054c-.284.108-1.044.362-1.333.5.003-.49-.089-.99-.322-1.477-1.1-2.296-3.849-3.552-3.966-3.604l-.963-.433-.38.985c-.063.165-1.412 3.803.794 7.417.138.917.199 1.803.188 2.65-.001.004-.003.008-.004.012h.004c-.035 2.619-.77 4.861-2.155 6.47-.657.764-1.369 1.276-2.029 1.596l.557-5.17h-3.5l.556 5.161c-.654-.321-1.357-.831-2.007-1.586-1.384-1.608-2.12-3.851-2.155-6.468h.004c-.001-.005-.003-.009-.004-.013-.011-.847.05-1.733.188-2.65 2.206-3.614.858-7.252.794-7.417l-.379-.985-.963.433c-.117.052-2.866 1.307-3.966 3.604-.233.487-.326.987-.322 1.477-.283-.137-1.055-.395-1.333-.5l-.28 1.054c-.035.133-.854 3.285.102 5.767.158.412.415.773.72 1.09-.538.242-.794.409-1.225.639l.265.791c.031.095.664 1.915 2.693 3.221-1.051.978-.887.957-1.416 1.71l.534.576s1.428 1.491 3.557 2.019c-.231.525-.389 1.076-.556 1.544l1.073.252c.091.021 1.228.28 2.659.28 1.016 0 2.179-.134 3.222-.573 1.044.439 2.207.573 3.222.573 1.431 0 2.567-.259 2.658-.28l1.073-.252c-.168-.473-.323-1.013-.555-1.544 2.13-.529 3.491-1.946 3.558-2.019l.534-.576c-.533-.758-.366-.734-1.426-1.719 2.018-1.305 2.649-3.118 2.68-3.213zm-4.432-2.37c.013-.188.033-.373.04-.564.597-1.847 1.721-2.953 2.567-3.551.108.935.14 2.209-.26 3.247-.168.436-.727.828-1.259 1.037-.342-.073-.708-.128-1.088-.169zm-1.335-9.105c.674.457 1.492 1.149 1.909 2.021.404.845-.23 2.057-.773 2.823-1.263-1.812-1.296-3.68-1.136-4.845zm-13.866 2.02c.417-.871 1.235-1.564 1.909-2.021.16 1.167.127 3.033-1.136 4.844-.544-.767-1.178-1.979-.773-2.822zm-1.771 6.216c-.399-1.038-.369-2.312-.261-3.246.847.598 1.97 1.704 2.567 3.55.007.191.026.374.039.562-.382.041-.75.096-1.095.168-.53-.209-1.084-.6-1.251-1.034zm.225 3.403c.59-.221 1.433-.46 2.385-.555.152.714.368 1.388.628 2.031-.267.107-.517.217-.751.334-1.166-.501-1.868-1.244-2.262-1.809zm1.655 4.57c.456-.402 1.204-.906 2.266-1.302.275.419.566.824.909 1.185-.298.362-.557.719-.782 1.061-1.005-.128-1.847-.56-2.393-.944zm3.589 2.826c.253-.466.616-1.034 1.08-1.611.812.572 1.68.963 2.543 1.144-1.062.53-2.521.564-3.623.467zm4.758-.467c.863-.181 1.731-.572 2.543-1.144.464.576.827 1.144 1.08 1.611-1.105.097-2.561.063-3.623-.467zm4.818-1.416c-.225-.343-.485-.699-.782-1.061.343-.361.634-.766.909-1.184 1.063.397 1.812.901 2.267 1.301-.547.384-1.389.816-2.394.945zm1.777-3.709c-.232-.115-.479-.224-.742-.329.26-.642.476-1.315.627-2.028.937.096 1.774.335 2.362.554-.393.565-1.091 1.304-2.247 1.804zm-9.14-4.363c-.629-.55-1.035-1.349-1.035-2.25 0-.863.502-1.737 1-2.25 0 0 0 1.474.615 1.474.632 0 .474-2.359 1.385-3.41.948.948 3 2.449 3 4.186 0 .901-.406 1.7-1.035 2.25h-3.931z"/></svg>