<svg id="Layer_1" viewBox="0 0 24 24" xmlns="http://www.w3.org/2000/svg" data-name="Layer 1"><path d="m10 22h3v2h-3zm1.097-12.348c-1.032-.877-2.577-.862-3.598.043l-3.606 3.249 1.34 1.486 3.599-3.244c.273-.242.691-.247.971-.01.311.265.349.733.023 1.123l-3.825 5.538v4.163h-4.001v-10.726l3-2.697v-2.685l-5 4.464v13.644h8v-5.54l3.41-4.945c.979-1.151.838-2.884-.313-3.863zm3.903 14.348h3v-2h-3zm-8-17h2v-5h7v9h-2.017c.105.664.081 1.344-.099 2h2.116v1c0 .552-.448 1-1 1h-2.185l-1.379 2h3.564c1.654 0 3-1.346 3-3v-14h-11zm15 11h2v-3h-2zm0 3.5c0 .275-.225.499-.5.499h-1.5v2h1.5c1.379 0 2.5-1.121 2.5-2.499v-1.5h-2zm1.269-11.768c-.473-.471-1.099-.73-1.764-.73h-1.503s-.002 1.999-.002 1.999h1.502s0 .001 0 .001c.179 0 .297.091.352.146s.146.173.146.353v1.5s1.998 0 1.998 0v-1.5c0-.668-.259-1.296-.73-1.768z"/></svg>