<svg id="Layer_1" viewBox="0 0 24 24" xmlns="http://www.w3.org/2000/svg" data-name="Layer 1"><path d="m21 13c0-4-2.5-5-2.5-5 2 0 3 .5 3.5 1 0 0 0-5-4-5.5 1-.5 2-.5 3-.5 0 0-1.41-3-4.909-3-3.144 0-4.091 1.818-4.091 1.818s-.947-1.818-4.091-1.818c-3.499 0-4.909 3-4.909 3 1 0 2 0 3 .5-4 .5-4 5.5-4 5.5.5-.5 1.5-1 3.5-1 0 0-2.5 1-2.5 5 1.154-1.18 2-1 2-1 0 2.107-.512 4.067-.675 4.637-.815.89-1.325 2.064-1.325 3.363v4h2v-4c0-1.654 1.346-3 3-3h.021c.939 1.246 2.416 2 3.979 2s3.04-.754 3.979-2h.021c1.654 0 3 1.346 3 3v4h2v-4c0-1.299-.51-2.473-1.325-3.363-.163-.57-.675-2.53-.675-4.637 0 0 .846-.18 2 1zm-11 3.204v-2.626c-1.775-.807-2.991-2.568-3-4.578 3.64-.293 4.745-3.198 5-4.5.255 1.31 1.268 4.264 5 4.5-.009 2.01-1.225 3.771-3 4.578v2.626c-.542.502-1.241.796-2 .796s-1.458-.294-2-.796z"/></svg>