<svg id="Layer_1" viewBox="0 0 24 24" xmlns="http://www.w3.org/2000/svg" data-name="Layer 1"><path d="m17 7.5v6.5h2v-3.829c1.164.413 2 1.525 2 2.829 0 .351-.065.686-.176 1h2.075c.066-.323.101-.658.101-1 0-2.414-1.721-4.434-4-4.899v-.601c0-4.136-3.364-7.5-7.5-7.5s-7.5 3.364-7.5 7.5v.601c-2.279.465-4 2.484-4 4.899 0 2.757 2.243 5 5 5h1v-10.5c0-3.032 2.468-5.5 5.5-5.5s5.5 2.468 5.5 5.5zm-13 8.329c-1.164-.413-2-1.525-2-2.829s.836-2.416 2-2.829zm17.5.171h-2.5v8h1.6v-3h.922c1.375 0 2.492-1.125 2.478-2.5 0-1.381-1.119-2.5-2.5-2.5zm0 3.4h-.9v-1.8h.9c.496 0 .9.404.9.9s-.404.9-.9.9zm-11-3.4h-2.5v8h1.6v-3h.922c1.375 0 2.492-1.125 2.478-2.5 0-1.381-1.119-2.5-2.5-2.5zm0 3.4h-.9v-1.8h.9c.496 0 .9.404.9.9s-.404.9-.9.9zm5.2-3.4c-1.269 0-2.3 1.031-2.3 2.3v3.4c0 1.269 1.031 2.3 2.3 2.3s2.3-1.031 2.3-2.3v-3.4c0-1.269-1.031-2.3-2.3-2.3zm.7 5.7c0 .386-.314.7-.7.7s-.7-.314-.7-.7v-3.4c0-.386.314-.7.7-.7s.7.314.7.7zm-4.652-11.674 1.252 3.974h-1.744l-.968-3.401-.688.002v3.4h-1.6v-8.001h1.6v3h.784l.872-3h1.744zm3.252.773h-2v-1.6h2z"/></svg>