<?xml version="1.0" encoding="UTF-8"?>
<svg xmlns="http://www.w3.org/2000/svg" id="Layer_1" data-name="Layer 1" viewBox="0 0 24 24">
  <path d="m22.769,9.343l-1.769-1.694V3c0-1.654-1.346-3-3-3H6c-1.654,0-3,1.346-3,3v4.652l-1.767,1.691C.451,10.094.002,11.147.002,12.231l-.002,11.769h24v-11.769c0-1.086-.448-2.139-1.231-2.889ZM6,2h12c.552,0,1,.449,1,1v9.242l-4.879,4.879c-1.133,1.133-3.109,1.133-4.242,0l-4.879-4.879V3c0-.551.448-1,1-1Zm16,20H2s-.004-9.865,0-9.913l6.465,6.448c.944.944,2.199,1.464,3.535,1.464s2.591-.52,3.535-1.464l6.465-6.45c.004.049,0,9.915,0,9.915ZM6,8c0-2.206,1.794-4,4-4h5.5c1.379,0,2.5,1.122,2.5,2.5s-1.121,2.5-2.5,2.5h-5.5v-2h5.5c.275,0,.5-.224.5-.5s-.225-.5-.5-.5h-5.5c-1.103,0-2,.897-2,2s.897,2,2,2h6v2h-6c-2.206,0-4-1.794-4-4Z"/>
</svg>
