<svg id="Layer_1" viewBox="0 0 24 24" xmlns="http://www.w3.org/2000/svg" data-name="Layer 1"><path d="m12 0c-4.962 0-9 4.037-8.997 9.081l1.208 14.919h15.72l1.069-15c0-4.963-4.037-9-9-9zm-6.91 10.105c1.035.21 3.168.793 5.43 2.274-1.773 1.616-3.456 3.82-4.691 6.838l-.74-9.112zm12.98 11.895h-11.099c2.677-9.042 9.263-11.288 11.943-11.833l-.845 11.833zm-.494-13.533c-.523-.877-1.479-1.467-2.575-1.467-1.657 0-3 1.343-3 3 0 .364.022.745.144 1.066-.724-.512-1.439-.94-2.126-1.297.095-2.031 1.4-3.74 3.215-4.431-.641-.809-1.621-1.338-2.733-1.338-1.933 0-3.5 1.567-3.5 3.5 0 .384.079.745.195 1.089-.937-.299-1.683-.45-2.125-.523.459-3.418 3.388-6.066 6.93-6.066 3.57 0 6.52 2.687 6.943 6.145-.374.07-.835.172-1.368.322z"/></svg>