<?xml version="1.0" encoding="UTF-8"?>
<svg xmlns="http://www.w3.org/2000/svg" id="Layer_1" data-name="Layer 1" viewBox="0 0 24 24">
  <path d="M3.929,7.464c0,1.95,1.586,3.536,3.536,3.536s3.536-1.586,3.536-3.536-1.586-3.536-3.536-3.536-3.536,1.586-3.536,3.536Zm5.071,0c0,.847-.689,1.536-1.536,1.536s-1.536-.689-1.536-1.536,.689-1.536,1.536-1.536,1.536,.689,1.536,1.536Zm5.225,4.296l4.444,4.005-1.339,1.485-4.438-4c-.417-.368-1.06-.374-1.49-.009-.48,.408-.539,1.13-.131,1.61l4.728,6.835v2.312h-2v-1.688l-1.597-2.312H0V7.5C0,3.364,3.364,0,7.5,0s7.5,3.364,7.5,7.5v2.36c-.614-.411-1.293-.684-2-.802v-1.558c0-3.033-2.467-5.5-5.5-5.5S2,4.467,2,7.5v10.5H11.021l-1.334-1.932c-1.061-1.241-.899-3.229,.421-4.35,1.185-1.006,2.954-.987,4.117,.042Zm9.775,.739v11.5h-2V13.418l-5-4.75v-2.667l7,6.5Z"/>
</svg>
