<svg id="Layer_1" viewBox="0 0 24 24" xmlns="http://www.w3.org/2000/svg" data-name="Layer 1"><path d="m23.927 7.851-1.414-1.414-4.825 4.825-4.95-4.95 4.825-4.825-1.414-1.414-4.825 4.825-3.889-3.89-1.414 1.414 1.768 1.768-5.74 5.739c-1.36 1.36-2.088 3.168-2.049 5.092.037 1.816.765 3.523 2.049 4.808l.354.354-2.399 2.398 1.414 1.414 2.399-2.399.353.353c1.284 1.285 2.992 2.013 4.809 2.05 1.917.038 3.734-.689 5.091-2.05l5.74-5.739 1.768 1.768 1.414-1.414-3.889-3.889 4.825-4.825zm-11.271 12.685c-.971.972-2.246 1.51-3.637 1.464-1.297-.026-2.517-.546-3.434-1.464l-2.121-2.121c-.917-.917-1.438-2.137-1.463-3.435-.028-1.374.492-2.665 1.463-3.636l5.74-5.739 9.193 9.192-5.74 5.739zm-.352-9.323.392 1.961-3.472.693 1.435 1.435c.418.418.573 1.03.401 1.598-.171.566-.638.991-1.219 1.107l-3.937.482-.242-1.984 3.005-.367-1.388-1.388c-.36-.36-.53-.875-.456-1.378.086-.604.517-1.129 1.111-1.287z"/></svg>