<svg id="Layer_1" viewBox="0 0 24 24" xmlns="http://www.w3.org/2000/svg" data-name="Layer 1"><path d="m21.974 12.04 2.026 5.96h-2l-1.667-5h-1.333v5h-2v-12h2v5h1.333l1.667-5h2zm-12.974-6.04h-2.271l-2.228 4.608-2.234-4.608h-2.264l3.497 6.959v5.041h2v-4.894l3.5-7.105zm3.904 8.53c1.379-1.162 3.096-2.607 3.096-5.03 0-1.93-1.57-3.5-3.5-3.5s-3.5 1.57-3.5 3.5v.5h2v-.5c0-.827.673-1.5 1.5-1.5s1.5.673 1.5 1.5c0 1.493-1.158 2.468-2.384 3.5-1.227 1.032-2.616 2.203-2.616 4v1h7v-2h-4.621c.353-.482.914-.955 1.525-1.47z"/></svg>