<?xml version="1.0" encoding="UTF-8"?>
<svg xmlns="http://www.w3.org/2000/svg" id="Layer_1" data-name="Layer 1" viewBox="0 0 24 24">
  <path d="M2.5,2.5C2.5,1.119,3.619,0,5,0s2.5,1.119,2.5,2.5-1.119,2.5-2.5,2.5-2.5-1.119-2.5-2.5Zm-.5,6.5c0-.552,.449-1,1-1H7v-2H3c-1.654,0-3,1.346-3,3v8H2v7h2v-7h2v7h2V15H2v-6ZM19,5c1.381,0,2.5-1.119,2.5-2.5s-1.119-2.5-2.5-2.5-2.5,1.119-2.5,2.5,1.119,2.5,2.5,2.5Zm3.583,3.628c-.187-1.498-1.467-2.628-2.977-2.628h-2.606v2h2.606c.503,0,.93,.377,.992,.876l1.14,9.124h-5.739v6h2v-4h2v4h2v-4h2.004l-1.421-11.372Zm-7.839,7.328l-2.5-2.698,2.5-2.698-2.5-2.697,2.5-2.699-2.492-2.689L14.6,0h-2.757l-2.333,2.458,2.508,2.705-2.5,2.699,2.5,2.697-2.5,2.698,2.5,2.698-2.5,2.698,2.49,2.688-2.542,2.658h2.767l2.521-2.637-2.51-2.709,2.5-2.698Z"/>
</svg>
