<svg id="Layer_1" viewBox="0 0 24 24" xmlns="http://www.w3.org/2000/svg" data-name="Layer 1"><path d="m23.123 16.127-3.502-2.741c-.66-.517-1.581-.517-2.241 0l-3.503 2.741c-.557.436-.876 1.092-.876 1.8v6.073h11v-6.073c0-.708-.319-1.364-.877-1.8zm-1.123 5.873h-7v-4.073c0-.087.041-.171.109-.225l3.391-2.653 3.39 2.653c.069.054.11.138.11.226v4.073zm-15-18v-4h-3.5c-1.93 0-3.5 1.57-3.5 3.5v17c0 1.93 1.57 3.5 3.5 3.5h7.5v-2h-7.5c-.827 0-1.5-.673-1.5-1.5s.673-1.5 1.5-1.5h3.5v-13h15v6.705l2 1.565v-10.27zm-2 13h-1.5c-.537 0-1.045.122-1.5.338v-13.838c0-.827.673-1.5 1.5-1.5h1.5zm13-5.961v-1.039h-4v-2h6v3.32c-.636-.273-1.325-.37-2-.281zm-.5 6.961h2v2h-2zm-8.5-10h2v11h-2z"/></svg>