<svg id="Layer_1" viewBox="0 0 24 24" xmlns="http://www.w3.org/2000/svg" data-name="Layer 1"><path d="m24 0h-24v2.287l2.451 3.922-2.437 14.626-.014 3.165h24v-3l-2.451-14.791 2.451-3.922zm-2 21.083v.917h-20v-.917l2.347-14.083h15.305l2.347 14.083zm-2.055-16.083h-15.89l-1.875-3h19.64zm-7.945 3c-4.411 0-8 2.916-8 6.5s3.589 6.5 8 6.5 8-2.916 8-6.5-3.589-6.5-8-6.5zm-6 6.5c0-.625.172-1.221.48-1.763l3.365 1.763-3.365 1.763c-.309-.542-.48-1.137-.48-1.763zm7-4.432c1.188.15 2.257.562 3.1 1.156l-3.1 1.624zm-2 2.78-3.1-1.624c.843-.594 1.912-1.005 3.1-1.156zm0 3.305v2.78c-1.188-.15-2.257-.562-3.1-1.156zm2 0 3.1 1.624c-.843.594-1.912 1.005-3.1 1.156zm1.155-1.653 3.365-1.763c.309.542.48 1.137.48 1.763s-.172 1.221-.48 1.763z"/></svg>