<svg id="Layer_1" viewBox="0 0 24 24" xmlns="http://www.w3.org/2000/svg" data-name="Layer 1"><path d="m9 0h-.676l-8.156 20.331c-.367 1.01-.123 2.109.637 2.869.766.773 1.893.997 2.899.625l20.296-8.146v-.676c0-8.273-6.729-15.003-15-15.003zm-6.011 21.956c-.396.144-.671-.072-.771-.171s-.315-.374-.183-.74l6.623-16.502c.958 2.445 2.247 7.045 2.335 14.201l-8.004 3.211zm9.984-4.006c-.037-1.477-.123-2.851-.248-4.12 2.626.5 4.854 1.106 6.479 1.62zm2.27-5.639.706-2.599c.26-1.007-.656-1.923-1.663-1.663l-2.35.625c-.747-3.455-1.695-5.626-2.217-6.647 6.599.362 11.901 5.667 12.259 12.267-1.326-.515-3.702-1.294-6.735-1.982zm-3.243-6.807c0-.828.672-1.5 1.5-1.5s1.5.672 1.5 1.5-.672 1.5-1.5 1.5-1.5-.672-1.5-1.5zm5 5c0-.828.672-1.5 1.5-1.5s1.5.672 1.5 1.5-.672 1.5-1.5 1.5-1.5-.672-1.5-1.5z"/></svg>