<svg id="Layer_1" viewBox="0 0 24 24" xmlns="http://www.w3.org/2000/svg" data-name="Layer 1"><path d="m21.5 15.07v-3.57h-8.5v-1.5h1.65c1.93 0 3.5-1.57 3.5-3.5 0-1.45-.912-2.729-2.22-3.246-.35-1.851-1.979-3.254-3.93-3.254-2.27-.005-4 2-4 4.171-1.164.413-2 1.525-2 2.829 0 1.654 1.346 3 3 3h2v1.5h-8.5v3.57c-1.442.185-2.5.752-2.5 1.43v6.414s.5 1.086 3.5 1.086 3.5-1.086 3.5-1.086v-6.414c0-.678-1.058-1.245-2.5-1.43v-1.57h6.5v1.57c-1.442.185-2.5.752-2.5 1.43v6.414s.5 1.086 3.5 1.086 3.5-1.086 3.5-1.086v-6.414c0-.678-1.058-1.245-2.5-1.43v-1.57h6.5v1.57c-1.442.185-2.5.752-2.5 1.43v6.414s.5 1.086 3.5 1.086 3.5-1.086 3.5-1.086v-6.414c0-.678-1.058-1.245-2.5-1.43zm-13.5-8.07c0-.551.449-1 1-1h1v-2c0-1.103.897-2 2-2s2 .897 2 1.994l-.013 1.006.711.003c.796.046 1.456.695 1.451 1.497 0 .827-.673 1.5-1.5 1.5h-5.65c-.551 0-1-.449-1-1zm-3 11.853c-.288.072-.761.147-1.5.147s-1.212-.075-1.5-.147v-1.003c.456.093.961.15 1.5.15s1.044-.057 1.5-.15zm-1.5 3.147c-.736 0-1.211-.074-1.5-.146v-.965c.408.067.896.112 1.5.112s1.092-.045 1.5-.112v.965c-.289.072-.764.146-1.5.146zm10-3.147c-.288.072-.761.147-1.5.147s-1.212-.075-1.5-.147v-1.003c.456.093.961.15 1.5.15s1.044-.057 1.5-.15zm-1.5 3.147c-.736 0-1.211-.074-1.5-.146v-.965c.408.067.896.112 1.5.112s1.092-.045 1.5-.112v.965c-.289.072-.764.146-1.5.146zm10-3.147c-.288.072-.761.147-1.5.147s-1.212-.075-1.5-.147v-1.003c.456.093.961.15 1.5.15s1.044-.057 1.5-.15zm-1.5 3.147c-.736 0-1.211-.074-1.5-.146v-.965c.408.067.896.112 1.5.112s1.092-.045 1.5-.112v.965c-.289.072-.764.146-1.5.146z"/></svg>