<?xml version="1.0" encoding="UTF-8"?>
<svg xmlns="http://www.w3.org/2000/svg" id="Layer_1" data-name="Layer 1" viewBox="0 0 24 24">
  <path d="M9,3c0,.552,.449,1,1,1h8v.008c.684,0,1.369,.228,1.922,.693l2.771,2.661-1.387,1.441-2.721-2.616c-.157-.13-.368-.192-.586-.189h0c-.83-.028-1.33,1.053-.746,1.663l3.695,4.017c.188,.205,.457,.322,.736,.322h2.314v2h-2.314c-.836,0-1.641-.353-2.208-.969l-3.705-4.026c-.543-.605-.813-1.374-.769-2.173,.016-.29,.086-.566,.18-.832h-5.184c-1.654,0-3-1.346-3-3s1.346-3,3-3h12.231c.641,0,1.254,.215,1.769,.592V3.248l-1.098-.99c-.185-.166-.423-.258-.671-.258H10c-.551,0-1,.448-1,1Zm3,13.5s3.818-2.701,3.818-4.9c0-1.16-.855-2.1-1.909-2.1s-1.909,.94-1.909,2.1c0-1.16-.855-2.1-1.909-2.1s-1.909,.94-1.909,2.1c0,2.199,3.818,4.9,3.818,4.9Zm2,1.5h-5.184c.094-.266,.164-.542,.18-.832,.044-.799-.226-1.567-.769-2.173l-3.705-4.026c-.566-.616-1.371-.969-2.208-.969H0v2H2.314c.279,0,.547,.117,.736,.322l3.695,4.017c.584,.611,.084,1.689-.746,1.661h0c-.218,.004-.429-.057-.586-.188l-2.721-2.616-1.387,1.441,2.771,2.661c.554,.465,1.238,.695,1.922,.696v.005H14c.551,0,1,.448,1,1s-.449,1-1,1H1.769c-.248,0-.486-.092-.671-.258l-1.098-.99v2.656c.514,.377,1.127,.592,1.769,.592H14c1.654,0,3-1.346,3-3s-1.346-3-3-3Z"/>
</svg>
