<svg id="Layer_1" viewBox="0 0 24 24" xmlns="http://www.w3.org/2000/svg" data-name="Layer 1"><path d="m22 14.2c-.791.531-1.517.883-2 1.086v2.714h-4.914l-1 1h-4.172l-1-1h-4.914v-10h7.049c-.031-.266-.049-.539-.049-.819v-1.181h-9v12h-2v3c0 1.654 1.346 3 3 3h18c1.654 0 3-1.346 3-3v-3h-2zm0 6.8c0 .551-.448 1-1 1h-18c-.552 0-1-.449-1-1v-1h6.086l1 1h5.828l1-1h6.086zm.63-19.626-4.13-1.374-4.13 1.374c-.819.272-1.37 1.034-1.37 1.896v3.912c0 3.57 3.715 5.704 4.851 6.271l.605.304.627-.253c1.153-.464 4.917-2.29 4.917-6.322v-3.912c0-.862-.551-1.624-1.37-1.896zm-.63 5.807c0 2.582-2.422 3.924-3.455 4.378-.915-.49-3.545-2.097-3.545-4.378v-3.909s3.5-1.161 3.5-1.161l3.5 1.158z"/></svg>