<svg id="Layer_1" viewBox="0 0 24 24" xmlns="http://www.w3.org/2000/svg" data-name="Layer 1"><path d="m22.915 17.72-.178-.214-4.979-1.723-.943-1.887c3.998-2.073 7.725-6.892 7.185-13.887l-14.5 3.715c.237 2.684-.942 5.834-1.472 6.276h-4.528c-1.407 0-3.5.932-3.5 3.5v.5h4.061c.923.98 3.539 3.553 6.115 4.292l-.897 2.829c-1.071.225-2.279 1.069-2.279 2.879h2c0-.607.298-.925.872-.942h.549l1.04-1.634 2.339-2.924h2.057l3.877 4.518c1.563.218 3.449-.265 3.985-1.518.796-1.59-.298-3.174-.805-3.78zm-11.415-1.22c-2.33-.091-5.355-3.146-6.552-4.5h3.966c.527-.617 2.191-1.914 2.566-6.719l10.476-2.684c-.085 1.208-.296 2.27-.609 3.223l-7.847 2.18h6.839c-.46.74-1.005 1.401-1.627 2h-5.712l3.627 1.648c-.732.494-1.652 1.003-2.449 1.442l1.704 3.409h-4.382zm10.431 4.105c-.148.298-.683.433-1.244.45l-2.616-3.049 3.47 1.201c.324.45.579 1.022.391 1.397z"/></svg>