<svg id="Layer_1" viewBox="0 0 24 24" xmlns="http://www.w3.org/2000/svg" data-name="Layer 1"><path d="m12.096 23.96c-3.868-3.035-9.991-8.792-10.096-13.911 0-5.541 4.508-10.049 10.049-10.049 5.376-.105 10.29 4.662 10.049 10.071-.115 4.834-5.649 10.28-10.002 13.889zm-.047-21.96c-4.438 0-8.049 3.611-8.049 8.049 0 3.854 5.233 8.89 8.051 11.322 5.149-4.47 7.984-8.468 8.047-11.344.046-2.079-.746-4.059-2.229-5.576-1.523-1.558-3.646-2.452-5.82-2.452zm2.951 13h-6v-2h-2v-6h2v-2h6v2h2v6h-2zm-4-2h2v-2h2v-2h-2v-2h-2v2h-2v2h2z"/></svg>