<svg id="Layer_1" viewBox="0 0 24 24" xmlns="http://www.w3.org/2000/svg" data-name="Layer 1"><path d="m13.729 19.389.217 2.66c-1.471 1.218-3.358 1.951-5.412 1.951-4.688 0-8.501-3.813-8.501-8.5s3.813-8.5 8.5-8.5c1.563 0 3.023.431 4.283 1.17l.216 2.649c-1.169-1.124-2.753-1.819-4.498-1.819-3.584 0-6.5 2.916-6.5 6.5s2.916 6.5 6.5 6.5c2.125 0 4.009-1.03 5.196-2.611zm8.545-11.85-1.319 16.461h-4.845l-1.346-16.533-1.666-4.454c1.132-1.585 3.323-3.115 5.435-3.007 2.116-.114 4.303 1.414 5.435 2.999l-1.693 4.534zm-5.214 3.464h2.93l.16-2.003h-3.253zm-1.677-7.588 1.343 3.589h3.612l1.344-3.597c-.857-.816-2.161-1.531-3.148-1.398-.987-.12-2.292.589-3.15 1.406zm3.727 18.586.72-8.998h-2.608l.732 8.998h1.155zm-16.077-16.001 1-2 2-1-2-1-1-2-1 2-2 1 2 1zm5.666 7.667-1.667.833 1.667.833.833 1.667.833-1.667 1.667-.833-1.667-.833-.833-1.667z"/></svg>