<?xml version="1.0" encoding="UTF-8"?>
<svg xmlns="http://www.w3.org/2000/svg" id="Layer_1" data-name="Layer 1" viewBox="0 0 24 24">
  <path d="M8.257,8.153c-.962-.462-2.13,.205-2.325,1.236l-1.29,5.612h1.583l.24-.994h2.148l.221,.994h1.667l-1.266-5.572c-.128-.584-.494-1.061-.978-1.276Zm-1.407,4.254l.646-2.678c.019-.068,.05-.122,.097-.122,.014,.01,.057,.063,.082,.176l.583,2.624h-1.407Zm4.15-2.006h2v1.6h-2v-1.6Zm3-2.4h4.55v1.715l-2.562,3.686h2.562v1.6h-4.55v-1.715l2.562-3.686h-2.562v-1.6ZM22.922,1.697c-.686-.571-1.583-.809-2.458-.647l-6.181,1.123c-.912,.166-1.705,.634-2.283,1.288-.578-.654-1.371-1.122-2.284-1.288L3.537,1.05C1.755,.679-.044,2.184,0,4.001V20.835l12,2.182,12-2.182V4.001c0-.893-.393-1.732-1.078-2.304Zm-.922,17.468l-9,1.637v-3.802h-2v3.802l-9-1.637V4.001c.113-.758,.415-1.008,1.179-.984l6.179,1.123c.952,.174,1.643,1.001,1.643,1.968v.893h2v-.893c0-.967,.69-1.794,1.642-1.967l6.181-1.124c.765-.022,1.064,.226,1.178,.984v15.164Z"/>
</svg>
