<svg id="Layer_1" viewBox="0 0 24 24" xmlns="http://www.w3.org/2000/svg" data-name="Layer 1"><path d="m23 10v-1.5c0-1.378-1.122-2.5-2.5-2.5h-.873c.663-1.253 1.373-2.764 1.373-3.5 0-1.381-1.119-2.45-2.5-2.45s-2.5 1.069-2.5 2.45c0 .736.71 2.247 1.373 3.5h-.873c-1.378 0-2.5 1.122-2.5 2.5v1.5h-1v2h11v-2zm-7-1.5c0-.276.224-.5.5-.5h4c.276 0 .5.224.5.5v1.5h-5zm4 5.5h-2v3h-8v3.5c0 .827-.673 1.5-1.5 1.5s-1.5-.673-1.5-1.5v-17c0-.539-.133-1.044-.351-1.5h7.402c.084-.733.329-1.419.73-2h-11.281c-1.93 0-3.5 1.57-3.5 3.5v3.5h5v13.5c0 1.93 1.57 3.5 3.5 3.5h11.5c1.93 0 3.5-1.57 3.5-3.5v-3.5h-3.5zm-15-9h-3v-1.5c0-.827.673-1.5 1.5-1.5s1.5.673 1.5 1.5zm16.5 15.5c0 .827-.673 1.5-1.5 1.5h-8.338c.216-.455.338-.963.338-1.5v-1.5h9.5z"/></svg>