<?xml version="1.0" encoding="UTF-8"?>
<svg xmlns="http://www.w3.org/2000/svg" id="Layer_1" data-name="Layer 1" viewBox="0 0 24 24">
  <path d="M8.402,8h1.261l-.981,4.819c-.094,.485-.414,1.181-1.221,1.181s-1.132-.727-1.214-1.148l-1.036-4.852h1.31l.94,4.55,.94-4.55Zm8.53,3.047l-1.44-3.041v-.006h-1.28v6h1.28v-3.041l1.44,3.041h1.28v-6h-1.28v3.047Zm-3.242-1.062c0,1.094-.902,1.985-2.012,1.985l-.217,.003v2.027h-1.25v-6h1.467c1.109,0,2.012,.891,2.012,1.985Zm-1.25,0c0-.398-.349-.735-.762-.735h-.215l.005,1.473,.21-.003c.413,0,.762-.336,.762-.735Zm9.56-4.485v6.428c0,7.435-7.047,10.848-9.207,11.716l-.835,.337-.806-.404c-2.146-1.073-9.152-5.085-9.152-11.649V5.5c0-1.292,.826-2.435,2.054-2.842L12,.023l7.945,2.634c1.229,.407,2.055,1.549,2.055,2.842Zm-2,0c0-.429-.274-.808-.684-.944l-7.316-2.425-7.316,2.425c-.409,.136-.684,.515-.684,.944v6.428c0,5.417,6.159,8.917,8.047,9.861,1.868-.751,7.953-3.681,7.953-9.861V5.5Z"/>
</svg>
