<?xml version="1.0" encoding="UTF-8"?>
<svg xmlns="http://www.w3.org/2000/svg" id="Layer_1" data-name="Layer 1" viewBox="0 0 24 24">
  <path d="M21,0H3C1.346,0,0,1.346,0,3V24H24V3c0-1.654-1.346-3-3-3Zm1,22H2V3c0-.551,.448-1,1-1H21c.552,0,1,.449,1,1V22ZM11.5,13h1.6v7h-1.6v-7Zm7.5,2.25c0-1.243-1.007-2.25-2.25-2.25h-2.25v7h1.6v-2.5h.413l.909,2.5h1.703l-1.064-2.927c.567-.409,.94-1.07,.94-1.823Zm-2.25,.65h-.65v-1.3h.65c.358,0,.65,.292,.65,.65s-.292,.65-.65,.65Zm-8.493-2.747c-.962-.462-2.129,.205-2.325,1.236l-1.29,5.612h1.583l.24-.994h2.148l.221,.994h1.667l-1.266-5.572c-.128-.584-.494-1.061-.978-1.276Zm-1.407,4.254l.646-2.678c.019-.068,.05-.122,.097-.122,.095-.013,.622,2.716,.665,2.8h-1.407Zm9.057-6.406l-1.68-3.547v3.547h-1.493V4h1.493v.008l1.68,3.547v-3.555h1.493v7h-1.493ZM9.018,3.678c-1.289,0-2.333,1.045-2.333,2.333v2.871c0,1.289,1.045,2.333,2.333,2.333s2.333-1.045,2.333-2.333v-2.871c0-1.289-1.045-2.333-2.333-2.333Zm.733,5.204c0,.404-.329,.733-.733,.733s-.733-.329-.733-.733v-2.871c0-.404,.329-.733,.733-.733s.733,.329,.733,.733v2.871Z"/>
</svg>
