<?xml version="1.0" encoding="UTF-8"?>
<svg xmlns="http://www.w3.org/2000/svg" id="Layer_1" data-name="Layer 1" viewBox="0 0 24 24">
  <path d="M24,16c0,4.411-3.589,8-8,8H8C3.589,24,0,20.411,0,16c0-3.659,2.472-6.744,5.831-7.693,.353,.657,.81,1.247,1.345,1.757-2.919,.404-5.175,2.908-5.175,5.937,0,3.309,2.691,6,6,6h8c3.309,0,6-2.691,6-6,0-3.028-2.257-5.533-5.175-5.937,.535-.51,.992-1.1,1.345-1.757,3.359,.949,5.831,4.035,5.831,7.693ZM7,5C7,2.239,9.239,0,12,0s5,2.239,5,5-2.239,5-5,5-5-2.239-5-5Zm2,0c0,1.657,1.343,3,3,3,.556,0,1.069-.161,1.516-.425-1.156-.291-2.016-1.329-2.016-2.575s.859-2.284,2.016-2.575c-.446-.263-.96-.425-1.516-.425-1.657,0-3,1.343-3,3Zm3,11c0,2.206,1.794,4,4,4s4-1.794,4-4-1.794-4-4-4-4,1.794-4,4Z"/>
</svg>
