<svg id="Layer_1" viewBox="0 0 24 24" xmlns="http://www.w3.org/2000/svg" data-name="Layer 1"><path d="m14 16.576v-1.576h-4v1.576c-.8-.351-1.481-.912-1.997-1.604.015-1.09.904-1.972 1.997-1.972h4c1.094 0 1.982.882 1.997 1.972-.516.692-1.197 1.253-1.997 1.604zm-9.128-8.576h-4.872v-6c0-1.105.896-2 2-2l5 .002c1.1 0 2 .901 1.999 2.001l-.002 6.772c0 .638-.524 1.088-1.089 1.088-.196 0-.397-.054-.583-.173l-2.454-1.69zm-2.873-2h3.494l1.504 1.036.002-5.034-4.999-.002h-.003s.001 4 .001 4zm10.001 6c1.381 0 2.5-1.119 2.5-2.5s-1.119-2.5-2.5-2.5-2.5 1.119-2.5 2.5 1.119 2.5 2.5 2.5zm9 0c0-.537-.051-1.081-.153-1.625l3.052-1.756-2.99-5.201-3.051 1.754c-.841-.721-1.81-1.279-2.857-1.649v-3.523h-4.558c.345.591.557 1.268.557 2h2v3.036c1.776.333 3.373 1.254 4.542 2.624l2.629-1.512.997 1.734-2.631 1.513c.243.826.483 1.767.463 2.604.019.839-.221 1.777-.463 2.604l2.631 1.513-.997 1.734-2.629-1.512c-1.169 1.37-2.766 2.291-4.542 2.624v3.036h-2v-3.038c-1.775-.332-3.373-1.252-4.542-2.622l-2.629 1.512-.997-1.734 2.631-1.513c-.243-.826-.483-1.767-.463-2.604 0-.475.049-.939.139-1.388l-.889-.612h-1.018c-.147.644-.232 1.312-.232 2 0 .537.051 1.081.153 1.625l-3.051 1.757 2.991 5.201 3.05-1.754c.841.721 1.81 1.279 2.857 1.649v3.522h6v-3.522c1.047-.37 2.016-.929 2.857-1.649l3.051 1.754 2.99-5.201-3.052-1.756c.102-.544.153-1.088.153-1.625z"/></svg>