<?xml version="1.0" encoding="UTF-8"?>
<svg xmlns="http://www.w3.org/2000/svg" id="Layer_1" data-name="Layer 1" viewBox="0 0 24 24">
  <path d="M15,19h-6v-2h6v2Zm9-6v11H0L.021,12.799,2.167,2.355C2.485,.98,3.715,0,5.097,0h13.807c1.41,0,2.612,.96,2.926,2.335l2.171,10.665Zm-5-5.59l.834,4.59h1.939l-1.9-9.242c-.092-.406-.448-.7-.874-.741V7.41Zm-12.012-1.41h10.012V2H6.998l-.01,4Zm-.79,6h11.607l-.716-4H6.925l-.727,4Zm-3.972,0h1.939l.835-4.59V2.018c-.409,.046-.786,.358-.88,.764l-1.894,9.218Zm19.774,2H2v8H22V14Z"/>
</svg>
