<svg id="Layer_1" viewBox="0 0 24 24" xmlns="http://www.w3.org/2000/svg" data-name="Layer 1"><path d="m24 20h-9.184c-.302-.847-.969-1.514-1.816-1.816v-2.184h4c3.309 0 6-2.691 6-6 0-3.139-2.423-5.722-5.496-5.979-.985-2.391-3.336-4.021-6.004-4.021-2.947 0-5.446 1.955-6.225 4.706-2.475.651-4.275 2.892-4.275 5.544 0 3.171 2.58 5.75 5.75 5.75h4.25v2.184c-.847.302-1.514.969-1.816 1.816h-9.184v2h9.184c.414 1.161 1.514 2 2.816 2s2.402-.839 2.816-2h9.184zm-8.5-13h1.6v.009l1.3 2.991v-3h1.6v7h-1.6l-1.3-3v3h-1.6zm-7.706 5.577c-.169.835-.781 1.423-1.578 1.423s-1.418-.61-1.569-1.384l-1.229-5.616h1.632s1.164 5.292 1.166 5.3c.003-.013 1.139-5.3 1.139-5.3h1.644l-1.206 5.577zm2.206-5.577h2c1.381 0 2.5 1.119 2.5 2.5v.026c-.002 1.383-1.141 2.498-2.524 2.484l-.376-.009v2h-1.6zm2 15c-.551 0-1-.448-1-1s.449-1 1-1 1 .448 1 1-.449 1-1 1zm0-11.6h-.4v-1.8h.4c.496 0 .9.404.9.9s-.404.9-.9.9z"/></svg>