<svg id="Layer_1" viewBox="0 0 24 24" xmlns="http://www.w3.org/2000/svg" data-name="Layer 1"><path d="m24 5.235v5.88c0 1.867-.846 3.594-2.319 4.739-.487.397-1.105.678-1.681.964v.683c0 1.58-1.059 2.903-2.5 3.337v3.163h-2v-3.163c-1.441-.434-2.5-1.757-2.5-3.337v-1.396c0-1.612.663-3.181 1.819-4.305.606-.639 1.435-1.023 2.181-1.4v-2.721c-1.114.148-2.9.322-5 .322s-3.883-.173-5-.322v2.322h-2v-3.5c0-1.5 1.269-.964 1.269-.964.323.074 2.709.464 5.731.464s5.408-.39 5.722-.462c0 0 1.278-.412 1.278 1.025v4.139c0 .558-.304 1.065-.791 1.324-.651.347-1.521.707-1.966 1.177-.801.78-1.243 1.826-1.243 2.901v1.396c0 .827.673 1.5 1.5 1.5s1.5-.673 1.5-1.5v-.986c0-.556.301-1.062.784-1.32.516-.279 1.25-.581 1.652-.905 1-.777 1.563-1.929 1.563-3.173v-5.882c0-1.019-.466-1.954-1.279-2.563-.829-.625-1.885-.814-2.888-.52-1.749.507-4.093.849-5.833.849s-4.084-.341-5.833-.849c-1.003-.292-2.059-.104-2.888.52-.813.61-1.279 1.544-1.279 2.563v5.844c-.754.437-1.428.992-2 1.642v-7.486c.001-1.654.759-3.172 2.079-4.163 1.338-1.005 3.028-1.312 4.648-.842 1.56.453 3.729.77 5.274.77s3.715-.316 5.274-.77c1.62-.468 3.311-.163 4.647.841 1.32.991 2.078 2.509 2.078 4.163zm-12 12.765c0 3.309-2.691 6-6 6s-6-2.691-6-6 2.691-6 6-6 6 2.691 6 6zm-2 0c0-1.858-1.279-3.411-3-3.858v1.546c.5.688 1 1.562 1 2.312 0 1.105-.895 2-2 2s-2-.895-2-2c0-.75.5-1.625 1-2.312v-1.546c-1.721.447-3 2-3 3.858 0 2.206 1.794 4 4 4s4-1.794 4-4z"/></svg>