<svg id="Layer_1" viewBox="0 0 24 24" xmlns="http://www.w3.org/2000/svg" data-name="Layer 1"><path d="m5.196 12.98-.393-1.961c.543-.109 2.196-.439 2.196-3.02 0-.552.448-1 1-1s1 .448 1 1c0 2.682-1.386 4.497-3.804 4.98zm2.804-6.98c.436 0 .851.139 1.199.401l1.202-1.599c-.698-.525-1.528-.802-2.401-.802-2.206 0-4 1.794-4 4v1h2v-1c0-1.103.897-2 2-2zm3.368 5.66-1.837-.792c-.293.681-.73 1.292-1.336 1.869l1.38 1.448c.793-.756 1.396-1.605 1.793-2.525zm.632-3.66c0-.61-.135-1.196-.4-1.744l-1.8.873c.133.273.2.566.2.881.006.562-.009 1.231-.167 1.927l1.95.442c.205-.902.223-1.751.217-2.379zm-6 13h4v-2h-4zm18-19v7h-5.872l-2.454 1.69c-.186.119-.387.173-.583.173-.566 0-1.089-.45-1.089-1.088l-.002-7.772c0-1.1.899-2 1.999-2.001l6-.002c1.104 0 2 .895 2 2zm-1.279 1.58-1.398-1.43-2.778 2.866-1.639-1.724-1.387 1.441 1.605 1.691c.766.765 2.079.763 2.823.019l.004-.004zm-7.629 9.282c.306 0 .609-.049.908-.144v8.282c0 1.654-1.346 3-3 3h-10c-1.654 0-3-1.346-3-3v-21h12.558c-.345.591-.557 1.268-.558 2h-10v14h12v-3.347c.341.13.706.209 1.092.209zm-1.092 8.138v-3h-12v3c0 .551.449 1 1 1h10c.551 0 1-.449 1-1z"/></svg>