<?xml version="1.0" encoding="UTF-8"?>
<svg xmlns="http://www.w3.org/2000/svg" id="Layer_1" data-name="Layer 1" viewBox="0 0 24 24">
  <path d="M10.215,4.847l-2.212-1.231v-.615h2.899l.784-3h.648l.784,3h2.883v.611l-2.197,1.273,.884,2.686-.504,.349-2.173-1.68-2.183,1.687-.48-.362,.869-2.717Zm-3.529,5.723l-.884-2.686,2.197-1.273v-.611h-2.883l-.784-3h-.648l-.784,3H.001v.615l2.212,1.231-.869,2.717,.48,.362,2.183-1.687,2.173,1.68,.504-.349ZM23.999,6h-2.883l-.784-3h-.648l-.784,3h-2.899v.615l2.212,1.231-.869,2.717,.48,.362,2.183-1.687,2.173,1.68,.504-.349-.884-2.686,2.197-1.273v-.611Zm-8.999,12h-6c-1.654,0-3,1.346-3,3v3h2v-3c0-.552,.449-1,1-1h6c.551,0,1,.448,1,1v3h2v-3c0-1.654-1.346-3-3-3Zm-7-5c0-2.206,1.794-4,4-4s4,1.794,4,4-1.794,4-4,4-4-1.794-4-4Zm2,0c0,1.103,.897,2,2,2s2-.897,2-2-.897-2-2-2-2,.897-2,2Z"/>
</svg>
