<svg id="Layer_1" viewBox="0 0 24 24" xmlns="http://www.w3.org/2000/svg" data-name="Layer 1"><path d="m2 22v-18h3v4h10v1.869c.621-.328 1.291-.575 2-.719v-9.15h-2v2h-3v-2h-2v2h-3v-2h-2v2h-3v-2h-2v24h15.568l-2.155-2zm13-18v2h-3v-2zm-5 0v2h-3v-2zm-3 12h-3v-2h3zm-3 2h3v2h-3zm3-6h-3v-2h3zm5 0h-3v-2h3zm8 4.506c0 .828-.672 1.5-1.5 1.5s-1.5-.672-1.5-1.5.672-1.5 1.5-1.5 1.5.672 1.5 1.5zm2.389-3.895c-1.038-1.039-2.419-1.611-3.889-1.611s-2.851.572-3.889 1.61c-1.039 1.039-1.611 2.42-1.611 3.89s.576 2.855 1.649 3.925l3.851 3.573 3.889-3.609c1.039-1.039 1.611-2.42 1.611-3.89s-.572-2.851-1.611-3.889zm-1.387 6.338-2.502 2.321-2.464-2.285c-.668-.667-1.036-1.55-1.036-2.485s.364-1.814 1.025-2.475 1.539-1.025 2.475-1.025 1.813.364 2.475 1.025c.661.661 1.025 1.54 1.025 2.475s-.364 1.814-.998 2.449zm-9.568-4.926c-.226.639-.364 1.31-.41 2h-2.024v-2zm-2.434 4h2.153c.143.696.388 1.366.726 2h-2.879z"/></svg>