<?xml version="1.0" encoding="UTF-8"?>
<svg xmlns="http://www.w3.org/2000/svg" id="Layer_1" data-name="Layer 1" viewBox="0 0 24 24">
  <path d="M21.794,7.342c-1.26-1.112-1.707-1.736-1.794-3.537V0C18.654,0,17.533,.894,17.153,2.115c-3.185,.55-4.653,3.044-4.653,5.385v1.023c-1.027,.762-2.689,1.482-3.5,1.482-1.145,0-2.103,.376-2.8,1.022-3.441,.114-5.2,2.111-5.2,5.972H3c0-2.486,.787-3.49,2.068-3.836-.047,.266-.073,.545-.074,.836,0,1.808,1.483,3.744,2.301,4.673l-.976,1.952,1.1,1.375h-3.419v2H20v-2h-6.019l-1.3-1.625,.832-2.221c-1.2,1.227-1.846,1.846-3.193,2.471l1.1,1.375h-1.438l-1.3-1.625,.582-1.166c1.413-.78,2.356-1.755,2.787-2.281,1.055-.187,3.716-.838,5.169-2.746l2.047,.877-.599,1.835-.674,.397,1.016,1.723,1.326-.781,1.353-4.143-3.686-2.463v-2.557l4.122,1.166,.387-1.449c.2-.708-.164-.957-.716-1.444Zm-3.761-.342h-.032s-2,0-2,0v5.324c-.886,2.229-4.574,2.678-4.612,2.682l-.459,.057-.258,.379c-.008,.011-.679,.979-1.97,1.796-.799-.934-1.707-2.294-1.707-3.235,.001-.6,.199-1.996,2.006-1.996,1.547,0,3.963-1.19,5.165-2.259l.335-.298v-1.949c0-.557,.183-3.225,3.494-3.475l.017,.035c.087,1.422,.406,2.378,.989,3.215l-.967-.274Z"/>
</svg>
