<svg id="Layer_1" viewBox="0 0 24 24" xmlns="http://www.w3.org/2000/svg" data-name="Layer 1"><path d="m23.286 12.064c-.283-.333-.63-.594-1.015-.774.456-.65.729-1.437.729-2.29v-4c0-2.757-2.243-5-5-5h-12c-2.757 0-5 2.243-5 5v4c0 .856.275 1.645.735 2.296-1.021.479-1.735 1.485-1.735 2.704 0 .946.344 1.858 1 2.437v3.563c0 2.206 1.794 4 4 4h14c2.206 0 4-1.794 4-4v-3.799c.496-.44.851-1.027.96-1.698.143-.878-.103-1.768-.674-2.439zm-2.393 2.942c-.71 0-1.415.195-2.036.562-.564.333-1.093.711-1.57 1.125-.444.386-1.142.37-1.653-.068-.996-.845-2.373-1.032-3.509-.474-.849.417-1.635.938-2.338 1.548-.458.397-1.118.398-1.568.006-1.497-1.301-2.277-2.149-5.48-2.562-.482-.05-.794-.617-.738-1.139 0-.551.448-1.006 1-1.006h17.999c.606-.012 1.102.581.985 1.182-.075.462-.555.825-1.092.825zm-17.893-10.006c0-1.654 1.346-3 3-3h12c1.654 0 3 1.346 3 3v4c0 1.103-.897 2-2 2h-14c-1.103 0-2-.897-2-2zm18 15c0 1.103-.897 2-2 2h-14c-1.103 0-2-.897-2-2v-2.793c2.108.324 2.689.944 3.906 2.01.605.526 1.348.789 2.091.789.746 0 1.492-.265 2.102-.794.573-.497 1.215-.922 1.908-1.263.421-.207.942-.126 1.357.224 1.226 1.052 3.048 1.063 4.234.033.676-.548 1.471-1.23 2.401-1.208v3.003zm-10-12.5c0-.828.672-1.5 1.5-1.5s1.5.672 1.5 1.5-.672 1.5-1.5 1.5-1.5-.672-1.5-1.5zm4-2c0-.828.672-1.5 1.5-1.5s1.5.672 1.5 1.5-.672 1.5-1.5 1.5-1.5-.672-1.5-1.5z"/></svg>