<svg id="Layer_1" viewBox="0 0 24 24" xmlns="http://www.w3.org/2000/svg" data-name="Layer 1"><path d="m20 9h-2.008v-3h-15.992v3.636c.274.026.675.081 1.159.212.356-.619.707-1.024.841-1.17v-.678h12v8c0 1.103-.905 2-2.008 2h-2.804c.169.691.197 1.226.2 1.339l.017.661h2.588c2.206 0 4-1.794 4-4h2.008c2.168 0 4-1.767 4-3.857 0-1.938-1.532-3.143-4-3.143zm0 5h-2.008v-3h2.008c1.327 0 2 .385 2 1.143 0 .989-.935 1.857-2 1.857zm-9-10h-2v-4h2zm4 0h-2v-4h2zm-8 0h-2v-4h2zm-7 18h20v2h-20zm2.672-5.329c-1.019 1.076-1.061 2.718-1.061 2.718s1.641-.042 2.718-1.061c.04 1.482 1.171 2.672 1.171 2.672s1.131-1.19 1.171-2.672c1.076 1.019 2.718 1.061 2.718 1.061s-.042-1.641-1.061-2.718c1.482-.04 2.672-1.171 2.672-1.171s-1.19-1.131-2.672-1.172c1.019-1.076 1.061-2.718 1.061-2.718s-1.641.042-2.718 1.061c-.04-1.482-1.171-2.672-1.171-2.672s-1.131 1.19-1.171 2.672c-1.076-1.02-2.718-1.061-2.718-1.061s.042 1.642 1.061 2.718c-1.482.04-2.672 1.172-2.672 1.172s1.19 1.131 2.672 1.171zm2.078-1.919.75-1.752.759 1.741 1.741.759-1.751.751-.749 1.749-.757-1.743-1.743-.757z"/></svg>