<svg id="Layer_1" viewBox="0 0 24 24" xmlns="http://www.w3.org/2000/svg" data-name="Layer 1"><path d="m12 19.329 2 2v2.671c-.197 0-13.803 0-14 0v-21c0-1.654 1.346-3 3-3h8c1.654 0 3 1.346 3 3v2.06c.175-.031.356-.062.523-.093 2.67-.497 5.193-.967 6.977-.967 1.378 0 2.5 1.122 2.5 2.5s-1.122 2.5-2.5 2.5c-1.193 0-2.189-.841-2.438-1.96-1.402.052-3.024.173-4.562.46-.162.03-.333.053-.5.079v4c-.696.232-1.364.535-2 .903v-4.66c-2.193.188-4.448.178-6 .178v-2c1.414 0 3.772-.271 6-.61v-2.39c0-.551-.449-1-1-1h-8c-.551 0-1 .449-1 1v19h10zm-3.5-3.829c0-.828-.672-1.5-1.5-1.5s-1.5.672-1.5 1.5c0 .516.261.971.658 1.241l-.658 2.259h3l-.658-2.259c.397-.27.658-.725.658-1.241zm5.464 2.965 1.414 1.414c1.17-1.17 3.073-1.17 4.243 0l1.414-1.414c-1.949-1.949-5.122-1.949-7.071 0zm3.536 2.535c-.828 0-1.5.672-1.5 1.5s.672 1.5 1.5 1.5 1.5-.672 1.5-1.5-.672-1.5-1.5-1.5zm-6.364-5.364 1.414 1.414c2.729-2.729 7.17-2.729 9.899 0l1.414-1.414c-3.509-3.51-9.219-3.51-12.728 0z"/></svg>