<?xml version="1.0" encoding="UTF-8"?>
<svg xmlns="http://www.w3.org/2000/svg" id="Layer_1" data-name="Layer 1" viewBox="0 0 24 24">
  <path d="M3,22H7v2H3c-1.654,0-3-1.346-3-3v-4H2v4c0,.551,.449,1,1,1ZM2,3c0-.551,.449-1,1-1H7V0H3C1.346,0,0,1.346,0,3V7H2V3Zm10,7c-1.105,0-2,.895-2,2s.895,2,2,2,2-.895,2-2-.895-2-2-2ZM21,0h-4V2h4c.551,0,1,.449,1,1V7h2V3c0-1.654-1.346-3-3-3ZM12,18c-4.577,0-7.521-4.021-8.059-5.097-.287-.573-.287-1.23,0-1.805,.537-1.077,3.48-5.098,8.059-5.098s7.522,4.021,8.059,5.098h0c.285,.573,.285,1.23,0,1.803-.538,1.078-3.481,5.099-8.06,5.099Zm6.27-5.992c-.328-.657-2.736-4.008-6.27-4.008s-5.942,3.335-6.27,3.992c.328,.674,2.737,4.008,6.27,4.008s5.942-3.335,6.27-3.992Zm3.73,8.992c0,.551-.449,1-1,1h-4v2h4c1.654,0,3-1.346,3-3v-4h-2v4Z"/>
</svg>
