<svg id="Layer_1" viewBox="0 0 24 24" xmlns="http://www.w3.org/2000/svg" data-name="Layer 1"><path d="m10.894 10.894 4.484 13.105 2.307-4.9 4.858 4.858 1.414-1.414-4.858-4.858 4.9-2.308zm3.213 3.213 4.574 1.564-2.047.964-.963 2.045zm-3.84.781-1.414.815c-.501-.511-1.14-.876-1.853-1.062v-1.642h-2v1.642c-.713.185-1.352.551-1.853 1.062l-1.414-.815-.998 1.732 1.425.821c-.094.339-.16.689-.16 1.058s.066.719.16 1.058l-1.425.821.998 1.732 1.414-.815c.501.511 1.14.876 1.853 1.062v1.642h2v-1.642c.713-.185 1.352-.551 1.853-1.062l1.414.815.998-1.732-1.425-.821c.094-.339.16-.689.16-1.058s-.066-.719-.16-1.058l1.425-.821zm-4.267 5.611c-1.103 0-2-.897-2-2s.897-2 2-2 2 .897 2 2-.897 2-2 2zm0-16c0 .828-.672 1.5-1.5 1.5s-1.5-.672-1.5-1.5.672-1.5 1.5-1.5 1.5.672 1.5 1.5zm4 0c0 .828-.672 1.5-1.5 1.5s-1.5-.672-1.5-1.5.672-1.5 1.5-1.5 1.5.672 1.5 1.5zm11-4.499h-18c-1.654 0-3 1.346-3 3v11.014c.548-.732 1.225-1.36 2-1.85v-3.163h20v3.58l2 .684v-10.265c0-1.654-1.346-3-3-3zm-19 7v-4c0-.551.448-1 1-1h18c.552 0 1 .449 1 1v4z"/></svg>