<svg id="Layer_1" viewBox="0 0 24 24" xmlns="http://www.w3.org/2000/svg" data-name="Layer 1"><path d="m24 19v-15c0-1.654-1.346-3-3-3h-18c-1.654 0-3 1.346-3 3v15h11v2h-5v2h12v-2h-5v-2zm-21-16h18c.552 0 1 .449 1 1v9h-20v-9c0-.551.448-1 1-1zm-1 12h20v2h-20zm6.244-4.474h2.006l.262 1.474h1.488l-1.397-6.807c-.12-.668-.589-1.192-1.346-1.192s-1.281.587-1.385 1.167l-1.372 6.833h1.469l.275-1.474zm.992-4.82.638 3.295h-1.261l.624-3.295zm8.364 3.995v-3.4c0-1.269-1.031-2.3-2.3-2.3h-2.3v7.999h2.3c1.269 0 2.3-1.031 2.3-2.3zm-3-4.101s.314 0 .7 0 .7.314.7.7v3.4c0 .386-.314.7-.7.7s-.7 0-.7 0v-4.801z"/></svg>