<?xml version="1.0" encoding="UTF-8"?>
<svg xmlns="http://www.w3.org/2000/svg" id="Layer_1" data-name="Layer 1" viewBox="0 0 24 24">
  <path d="M0,2.5C0,1.119,1.119,0,2.5,0s2.5,1.119,2.5,2.5-1.119,2.5-2.5,2.5S0,3.881,0,2.5Zm20.742,14.771l3.136,5.75-1.756,.958-2.864-5.25-4.741-2.693c-1.148-.652-1.74-2.006-1.439-3.292l.805-3.31-3.613,2.068-4.124-2.042,1.731,6.988-1.96,.484,1.711,7.055h-2.058l-1.595-6.575-2.006,.495L.075,9.624c-.201-.887,.01-1.801,.576-2.509,.566-.708,1.411-1.114,2.317-1.114,.552,0,1.071,.158,1.52,.427l.008-.015,5.708,2.825,4.707-2.694c.661-.374,1.431-.568,2.159-.558,.901,.01,1.733,.425,2.282,1.14,.549,.714,.737,1.625,.515,2.498l-.173,.682,4.284,2.315-.951,1.76-3.841-2.076-.907,3.567,2.465,1.4Zm-15.287-2.284l-1.552-6.266c-.112-.424-.496-.721-.936-.721-.295,0-.571,.132-.755,.363-.185,.231-.253,.528-.188,.817l1.441,6.297,1.989-.491Zm12.31-6.643c-.173-.225-.435-.355-.718-.358-.261-.009-.529,.056-.788,.15l-1.235,5.073c-.098,.42,.099,.871,.482,1.088l.968,.55,1.453-5.716c.07-.274,.011-.561-.162-.786Zm-.265-3.344c1.381,0,2.5-1.119,2.5-2.5s-1.119-2.5-2.5-2.5-2.5,1.119-2.5,2.5,1.119,2.5,2.5,2.5Zm-4.478,12.132l-2.144,6.868h2.199l1.722-5.774-1.029-.585c-.259-.147-.508-.317-.747-.509Z"/>
</svg>
