<svg id="Layer_1" viewBox="0 0 24 24" xmlns="http://www.w3.org/2000/svg" data-name="Layer 1"><path d="m23.988 22.573-4.533-4.533c1.593-1.91 2.555-4.365 2.555-7.041 0-6.071-4.94-11.011-11.011-11.011s-11.011 4.94-11.011 11.011 4.939 11.011 11.011 11.011c2.676 0 5.13-.961 7.041-2.555l4.533 4.533zm-21.998-11.574c0-4.968 4.042-9.009 9.009-9.009s9.009 4.041 9.009 9.009-4.041 9.009-9.009 9.009-9.009-4.041-9.009-9.009zm13.435-3.011c.853.065 1.583-.644 1.58-1.494 0-.829-.672-1.501-1.501-1.501-.85-.004-1.559.727-1.494 1.58l-.622.622c-.422-.266-.887-.465-1.387-.58v-1.622h-2.002v1.622c-.5.114-.966.314-1.387.58l-.622-.622c.065-.853-.644-1.583-1.494-1.58-.829 0-1.501.672-1.501 1.501-.004.85.727 1.559 1.58 1.494l.622.622c-.266.422-.465.887-.58 1.387h-1.622v2.002h1.622c.114.5.314.966.58 1.387l-.622.622c-.853-.065-1.583.644-1.58 1.494 0 .829.672 1.501 1.501 1.501.85.004 1.559-.727 1.494-1.58l.622-.622c.422.266.887.465 1.387.58v1.622h2.002v-1.622c.5-.114.966-.314 1.387-.58l.622.622c-.065.853.644 1.583 1.494 1.58.829 0 1.501-.672 1.501-1.501.004-.85-.727-1.559-1.58-1.494l-.622-.622c.266-.422.465-.887.58-1.387h1.622v-2.002h-1.622c-.114-.5-.314-.966-.58-1.387zm-4.426 5.513c-1.38 0-2.502-1.122-2.502-2.502s1.123-2.502 2.502-2.502 2.502 1.122 2.502 2.502-1.123 2.502-2.502 2.502z"/></svg>