<?xml version="1.0" encoding="UTF-8"?>
<svg xmlns="http://www.w3.org/2000/svg" id="Layer_1" data-name="Layer 1" viewBox="0 0 24 24">
  <path d="m17.125,2.413l-.32-.442-.546.031C7.081,2.522.67,11.042.401,11.405l-.44.595.44.595c.269.363,6.68,8.883,15.857,9.403l.546.031.32-.442c.118-.162,2.875-4.032,2.875-9.587s-2.758-9.425-2.875-9.587Zm-1.328,17.543c-6.626-.663-11.757-6.124-13.306-7.956,1.549-1.832,6.68-7.293,13.306-7.956.221.369.543.967.871,1.724-2.694.794-4.667,3.285-4.667,6.233s1.974,5.439,4.667,6.233c-.329.756-.65,1.354-.871,1.724Zm1.998-5.569c-.114.698-.266,1.347-.443,1.946-1.923-.511-3.352-2.251-3.352-4.333s1.428-3.822,3.352-4.333c.177.6.329,1.248.443,1.946-1.035.306-1.795,1.253-1.795,2.387s.76,2.081,1.795,2.387Zm6.205-2.387c0,6.417-2.686,10.892-2.8,11.079l-1.708-1.041c.025-.041,2.508-4.208,2.508-10.038s-2.483-9.997-2.508-10.038l1.708-1.041c.114.188,2.8,4.662,2.8,11.079Z"/>
</svg>
