<svg id="Layer_1" viewBox="0 0 24 24" xmlns="http://www.w3.org/2000/svg" data-name="Layer 1"><path d="m16 4h2v3.5c0 .827-.673 1.5-1.5 1.5h-3.5v-2h1.644c-.716-.633-1.643-1-2.644-1-2.206 0-4 1.794-4 4s1.794 4 4 4c1.858 0 3.411-1.28 3.858-3h2.052c-.478 2.833-2.942 5-5.91 5-3.309 0-6-2.691-6-6s2.691-6 6-6c1.496 0 2.914.578 4 1.548zm8-1v17h-16.147l-4.44 3.583c-.409.276-.854.417-1.288.417-1.231 0-2.125-.988-2.125-2.15v-18.85c0-1.654 1.346-3 3-3h18c1.654 0 3 1.346 3 3zm-2 0c0-.551-.449-1-1-1h-18c-.551 0-1 .449-1 1v18.85c0 .148.137.18.229.123l4.917-3.973h14.853v-15z"/></svg>