<svg id="Layer_1" viewBox="0 0 24 24" xmlns="http://www.w3.org/2000/svg" data-name="Layer 1"><path d="m24 22.586-4.303-4.323 3.621-3.621-9.738-3.542c-.704-.253-1.486-.077-2.012.448-.533.532-.704 1.303-.446 2.012l3.541 9.737 3.62-3.621 4.303 4.323 1.414-1.414zm-10.998-9.567 6.681 2.43-4.221 4.221zm-6.502-5.519c0 1.93 1.57 3.5 3.5 3.5s3.5-1.57 3.5-3.5-1.57-3.5-3.5-3.5-3.5 1.57-3.5 3.5zm5 0c0 .827-.673 1.5-1.5 1.5s-1.5-.673-1.5-1.5.673-1.5 1.5-1.5 1.5.673 1.5 1.5zm-.907 10.46.708 1.946c-.427.056-.859.094-1.3.094-5.515 0-10.001-4.486-10.001-10s4.486-10 10-10 10 4.486 10 10c0 .433-.037.856-.091 1.275l-1.936-.704c.014-.189.027-.378.027-.571 0-4.411-3.589-8-8-8s-8 3.589-8 8c0 2.021.759 3.864 2 5.274v-.274c0-1.654 1.346-3 3-3h2.113c-.154.648-.139 1.332.057 2h-2.17c-.551 0-1 .449-1 1v1.918c1.178.684 2.542 1.082 4 1.082.201 0 .395-.025.593-.04z"/></svg>