<?xml version="1.0" encoding="UTF-8"?>
<svg xmlns="http://www.w3.org/2000/svg" id="Layer_1" data-name="Layer 1" viewBox="0 0 24 24">
  <path d="M24,5.358V3.199c-2.335-1.088-3.076-3.095-3.113-3.199h-1.771c-.055,.155-1.47,4-7.116,4S4.939,.148,4.887,0h-1.771c-.038,.109-.781,2.111-3.116,3.199v2.159c1.291-.455,2.268-1.1,3-1.763v7.405H0v6.93l.835,.14c2.413,.404,4.165,2.479,4.165,4.931v1h2v-1c0-2.757,2.243-5,5-5s5,2.243,5,5v1h2v-1c0-2.452,1.752-4.526,4.165-4.931l.835-.14v-6.93h-3V3.595c.732,.663,1.709,1.308,3,1.763Zm-11,.587c2.884-.205,4.79-1.244,6-2.35v7.405h-6V5.945ZM5,3.595c1.21,1.105,3.116,2.145,6,2.35v5.055H5V3.595ZM22,13v3.289c-1.717,.507-3.117,1.648-3.999,3.127-1.224-2.042-3.453-3.416-6.001-3.416s-4.777,1.374-6.001,3.416c-.881-1.479-2.281-2.62-3.999-3.127v-3.289H22Z"/>
</svg>
