<svg id="Layer_1" viewBox="0 0 24 24" xmlns="http://www.w3.org/2000/svg" data-name="Layer 1"><path d="m21.952 12.95c-.272 2.872-1.765 5.393-3.952 7.04v-.991c0-1.654-1.346-3-3-3h-6c-1.654 0-3 1.346-3 3v.981c-2.423-1.827-4-4.719-4-7.981 0-5.192 3.98-9.47 9.05-9.951.432-.758.986-1.436 1.633-2.014-.227-.013-.452-.035-.683-.035-6.617.001-12 5.384-12 12.001s5.383 12 12 12 12-5.383 12-12c0-.23-.022-.455-.035-.683-.577.647-1.255 1.201-2.014 1.633zm-13.952 8.209v-2.159c0-.552.448-1 1-1h6c.552 0 1 .448 1 1v2.154c-1.227.539-2.577.846-4 .846s-2.774-.303-4-.841zm10-9.159c3.309 0 6-2.691 6-6s-2.691-6-6-6-6 2.691-6 6 2.691 6 6 6zm-4-6c0-.74.215-1.424.567-2.019l5.453 5.453c-.595.351-1.28.567-2.019.567-2.206 0-4-1.794-4-4zm8 0c0 .74-.215 1.424-.567 2.019l-5.453-5.453c.595-.351 1.28-.567 2.019-.567 2.206 0 4 1.794 4 4zm-11.518 2.713c-.296.349-.482.794-.482 1.287 0 1.103.897 2 2 2 .213 0 .414-.042.606-.104.545.499 1.158.923 1.827 1.257-.676.523-1.513.847-2.433.847-2.206 0-4-1.794-4-4 0-1.485.823-2.769 2.027-3.459.051.758.207 1.486.455 2.172z"/></svg>