<?xml version="1.0" encoding="UTF-8"?>
<svg xmlns="http://www.w3.org/2000/svg" id="Layer_1" data-name="Layer 1" viewBox="0 0 24 24">
  <path d="M9,12c3.309,0,6-2.691,6-6S12.309,0,9,0,3,2.691,3,6s2.691,6,6,6Zm0-10c2.206,0,4,1.794,4,4s-1.794,4-4,4-4-1.794-4-4,1.794-4,4-4Zm15,10.06s-.597,4.644-4.143,7.508c-1.132,.914-2.295,1.47-3.357,1.807,0,0,1-3.375,4.066-6.941-3.103,1.718-5.314,4.825-6.277,7.412-.276,.704-.476,1.452-.648,2.155h-2.141c.203-.892,.46-1.864,.831-2.805,.166-1.36,.992-4.675,3.755-6.906,3.546-2.864,7.914-2.23,7.914-2.23Zm-11.934,3.94H5c-1.654,0-3,1.346-3,3v5H0v-5c0-2.757,2.243-5,5-5h7.5c.318,0,.628,.033,.932,.085-.548,.625-.992,1.273-1.365,1.915Z"/>
</svg>
