<?xml version="1.0" encoding="UTF-8"?>
<svg xmlns="http://www.w3.org/2000/svg" id="Layer_1" data-name="Layer 1" viewBox="0 0 24 24">
  <path d="M24,9.5c0,3.067-1.495,5.961-3.998,7.743-.999,.71-1.836,1.798-2.632,3.424-.458,.936-1.171,1.745-2.062,2.34-.983,.659-2.143,.986-3.302,.986-1.266,0-2.531-.39-3.569-1.163-.691-.515-1.241-1.155-1.647-1.871,.522-.598,.978-1.232,1.372-1.895,.231,.85,.731,1.611,1.471,2.162,1.321,.986,3.199,1.034,4.563,.119,.606-.405,1.069-.929,1.377-1.558,.949-1.938,1.988-3.264,3.269-4.175,1.978-1.406,3.158-3.691,3.158-6.113,0-2.132-.913-4.171-2.504-5.594-1.614-1.442-3.693-2.099-5.87-1.857-2.333,.262-4.362,1.666-5.541,3.614-.368-.604-.789-1.183-1.265-1.732C8.357,1.831,10.732,.362,13.403,.062c2.707-.307,5.412,.554,7.426,2.353,2.015,1.801,3.171,4.384,3.171,7.085ZM4.778,4.651l-1.414,1.414c3.509,3.509,3.509,9.219,0,12.728l1.414,1.414c4.289-4.289,4.289-11.267,0-15.556ZM1.993,7.437l-1.414,1.414c1.973,1.973,1.973,5.184,0,7.157l1.414,1.414c2.753-2.753,2.753-7.232,0-9.985Zm12.507-1.437c1.93,0,3.5,1.57,3.5,3.5h2c0-3.033-2.468-5.5-5.5-5.5-2.517,0-4.639,1.701-5.29,4.012,.349,.971,.587,1.972,.698,2.988h1.092c.551,0,1,.449,1,1s-.449,1-1,1v2c1.654,0,3-1.346,3-3,0-1.642-1.327-2.98-2.964-3,.243-1.694,1.704-3,3.464-3Z"/>
</svg>
