<?xml version="1.0" encoding="UTF-8"?>
<svg xmlns="http://www.w3.org/2000/svg" id="Layer_1" data-name="Layer 1" viewBox="0 0 24 24">
  <path d="M12.971,20.972c-.191,1.175-1.215,2.028-2.436,2.028-.965,0-1.873-.413-2.506-1.136l1.009-1.006c.373,.406,.925,.646,1.497,.646,.604,0,1.031-.404,1.096-.795,.089-.55-.602-.873-.817-.959-.915-.371-1.751-.78-1.753-.78-.692-.484-1.027-1.231-.921-2.049,.111-.845,.674-1.534,1.471-1.796,1.324-.437,2.462,.317,2.863,.686l-.86,1.113c-.219-.166-.881-.602-1.611-.367-.412,.136-.517,.447-.515,.577,.005,.442,.335,.57,.433,.615,.282,.128,.806,.368,1.366,.595,1.461,.591,1.828,1.745,1.685,2.627Zm8.896,.429v-6.401h-1.6v8h3.733v-1.599c-1.105,0-2.133,0-2.133,0Zm-3.134,.202l.998,.998-1.131,1.131-.998-.998c-.334,.165-.705,.267-1.102,.267-1.381,0-2.5-1.119-2.5-2.5v-3c0-1.381,1.119-2.5,2.5-2.5s2.5,1.119,2.5,2.5v3c0,.398-.101,.769-.267,1.102Zm-1.333-4.102c0-.496-.404-.9-.9-.9s-.9,.404-.9,.9v3c0,.496,.404,.9,.9,.9s.9-.404,.9-.9v-3Zm-11.4-.721v2.021c-1.591-.244-2.974-.704-4-1.342v2.327c0,.584,1.404,1.591,4,2.013v2.026c-3.259-.458-6-1.825-6-4.04V4.5C0,1.935,3.654,0,8.5,0s8.5,1.935,8.5,4.5V13h-2v-.541c-1.535,.954-3.835,1.541-6.5,1.541s-4.965-.588-6.5-1.541v2.041c0,.784,1.507,1.832,4,2.279ZM2,4.5c0,1.02,2.532,2.5,6.5,2.5s6.5-1.48,6.5-2.5-2.532-2.5-6.5-2.5S2,3.48,2,4.5Zm0,5c0,1.02,2.532,2.5,6.5,2.5s6.5-1.48,6.5-2.5v-2.041c-1.535,.954-3.835,1.541-6.5,1.541s-4.965-.588-6.5-1.541v2.041Z"/>
</svg>
