<svg id="Layer_1" viewBox="0 0 24 24" xmlns="http://www.w3.org/2000/svg" data-name="Layer 1"><path d="m24.052 12.755v11.245h-2v-11.245c0-6.031-5.048-10.755-11.492-10.755-1.374 0-2.474.225-3.325.527 4.476.275 8.766 3.078 8.766 8.973 0 .813-.161 1.618-.447 2.383.916 1.49 1.447 3.232 1.447 5.117v5h-2v-5c0-4.486-3.733-8-8.5-8-.912 0-1.784.202-2.517.486 1.498.192 2.843.749 3.869 1.639 1.405 1.219 2.148 2.999 2.148 5.15 0 3.156-2.574 5.725-5.737 5.725h-4.264v-2h4.263c2.061 0 3.737-1.671 3.737-3.725 0-1.43-.425-2.553-1.222-3.379-.33.651-.999 1.104-1.778 1.104-.872 0-1.607-.564-1.88-1.344-.32.217-.705.344-1.12.344-1.103 0-2-.897-2-2 0-2.253 3.494-4 6.5-4 2.951 0 5.582 1.104 7.472 2.912.012-.137.028-.274.028-.412 0-3.193-1.544-5.11-3.539-6.111-.182.917-.991 1.611-1.961 1.611-1.009 0-1.837-.753-1.972-1.725-.367.439-.912.725-1.528.725-1.103 0-2-.897-2-2 .006-.459.178-.929.469-1.272.965-1.37 3.401-2.728 7.09-2.728 7.565 0 13.492 5.603 13.492 12.755z"/></svg>