<svg id="Layer_1" viewBox="0 0 24 24" xmlns="http://www.w3.org/2000/svg" data-name="Layer 1"><path d="m23.018 9.785c-.595-.541-1.356-.822-2.169-.782-.804.037-1.545.386-2.085.981l-3.217 3.534c-.551-.91-1.55-1.519-2.689-1.519h-9.858c-1.654 0-3 1.346-3 3v6c0 1.654 1.346 3 3 3h11.452l8.783-9.984c1.094-1.226.996-3.123-.218-4.23zm-1.279 2.904-8.19 9.311h-10.549c-.551 0-1-.448-1-1v-6c0-.552.449-1 1-1h9.858c.629 0 1.142.513 1.142 1.143 0 .564-.421 1.051-.98 1.13l-5.161.737.283 1.98 5.161-.737c1.175-.168 2.129-.988 2.514-2.059l4.427-4.864c.181-.2.43-.316.699-.329.272-.005.529.082.728.262.407.372.44 1.009.068 1.426zm-8.739-8.414c0-.513-.236-.997-.64-1.312l-3.333-2.609c-.302-.236-.664-.354-1.027-.354s-.725.118-1.027.354l-3.333 2.609c-.404.316-.64.8-.64 1.312v5.725h10zm-2 3.725h-6v-3.562l3-2.348 3 2.348zm-4-3h2v2h-2z"/></svg>