<svg id="Layer_1" viewBox="0 0 24 24" xmlns="http://www.w3.org/2000/svg" data-name="Layer 1"><path d="m22 14v-1c0-2.206-1.794-4-4-4s-4 1.794-4 4v1h-2v7c0 1.654 1.346 3 3 3h6c1.654 0 3-1.346 3-3v-7zm-6-1c0-1.103.897-2 2-2s2 .897 2 2v1h-4zm6 8c0 .551-.449 1-1 1h-6c-.551 0-1-.449-1-1v-5h8zm-3-1h-2v-2h2zm-8.899 2c.152.743.482 1.416.924 2h-11.025v-15c0-1.654 1.346-3 3-3h1v-3c0-1.682 1.374-3 3.128-3h6.925l3.946 4.097v2.903h-2v-2h-3v-3h-5.872c-.654 0-1.128.42-1.128 1v3h1.236l4 2h3.455c-.771.512-1.413 1.198-1.879 2h-2.048l-4-2h-3.764c-.551 0-1 .449-1 1v13h8.101z"/></svg>