<?xml version="1.0" encoding="UTF-8"?>
<svg xmlns="http://www.w3.org/2000/svg" id="Layer_1" data-name="Layer 1" viewBox="0 0 24 24">
  <path d="M19.144,15l2.276-4.553-1.789-.895-2.724,5.447h-5.764l.944,6.435c.214,1.462,1.49,2.565,2.968,2.565h4.944c1.478,0,2.753-1.103,2.967-2.563l.946-6.437h-4.769Zm1.844,6.146c-.071,.487-.496,.854-.988,.854h-4.944c-.492,0-.917-.368-.989-.855l-.608-4.145h8.139l-.609,4.146ZM8,12c3.309,0,6-2.691,6-6S11.309,0,8,0,2,2.691,2,6s2.691,6,6,6Zm0-10c2.206,0,4,1.794,4,4s-1.794,4-4,4-4-1.794-4-4,1.794-4,4-4Zm.976,12l.294,2H5c-1.654,0-3,1.346-3,3v5H0v-5c0-2.757,2.243-5,5-5h3.976Z"/>
</svg>
