<svg id="Layer_1" viewBox="0 0 24 24" xmlns="http://www.w3.org/2000/svg" data-name="Layer 1"><path d="m6 4.5c0 .828-.672 1.5-1.5 1.5s-1.5-.672-1.5-1.5.672-1.5 1.5-1.5 1.5.672 1.5 1.5zm2.5-1.5c-.828 0-1.5.672-1.5 1.5s.672 1.5 1.5 1.5 1.5-.672 1.5-1.5-.672-1.5-1.5-1.5zm15.5 0v13.669l-2-.8v-6.869h-20v11h8.128c-.048.198-.099.396-.116.602-.039.478.03.947.161 1.398h-10.173v-19c0-1.654 1.346-3 3-3h18c1.654 0 3 1.346 3 3zm-2 4v-4c0-.551-.448-1-1-1h-18c-.552 0-1 .449-1 1v4zm-3 6.5c0-.827-.673-1.5-1.5-1.5s-1.5.673-1.5 1.5v6.75l-.622-.626c-.677-.678-1.772-.851-2.562-.285-.997.718-1.08 2.118-.249 2.949l1.777 1.711h3.656v-5.423l4 1.6v3.823h2v-5.177l-5-2v-3.323zm-9-2.5v1.137c1.747.441 3.049 1.993 3.1 3.863h.9v2h-10v-2h.9c.051-1.87 1.353-3.422 3.1-3.863v-1.137zm-1 3c-1.127 0-2.051.887-2.108 2h4.217c-.058-1.113-.981-2-2.108-2z"/></svg>