<svg id="Layer_1" viewBox="0 0 24 24" xmlns="http://www.w3.org/2000/svg" data-name="Layer 1"><path d="m5.5 11c.828 0 1.5.672 1.5 1.5s-.672 1.5-1.5 1.5-1.5-.672-1.5-1.5.672-1.5 1.5-1.5zm18.5-8v8.349c-.571-.706-1.244-1.325-2-1.831v-2.518h-20v9h6.059c-.036.329-.059.662-.059 1s.022.671.059 1h-8.059v-15c0-1.654 1.346-3 3-3h18c1.654 0 3 1.346 3 3zm-2 2v-2c0-.552-.449-1-1-1h-18c-.551 0-1 .448-1 1v2zm2 12c0 3.859-3.14 7-7 7s-7-3.141-7-7 3.14-7 7-7 7 3.141 7 7zm-2 0c0-2.757-2.243-5-5-5s-5 2.243-5 5 2.243 5 5 5 5-2.243 5-5zm-3.457-2.957-1.543 1.543-1.543-1.543-1.414 1.414 1.543 1.543-1.543 1.543 1.414 1.414 1.543-1.543 1.543 1.543 1.414-1.414-1.543-1.543 1.543-1.543z"/></svg>