<?xml version="1.0" encoding="UTF-8"?>
<svg xmlns="http://www.w3.org/2000/svg" id="Layer_1" data-name="Layer 1" viewBox="0 0 24 24">
  <path d="M3,12H0v-.5c0-.828,.672-1.5,1.5-1.5h1.851c-.219,.456-.351,.961-.351,1.5v.5Zm9.649-2c.219,.456,.351,.961,.351,1.5v.5h3v-.5c0-.828-.672-1.5-1.5-1.5h-1.851ZM6.341,4.852l.301,.226,1.364-1.055,1.359,1.051,.312-.218-.552-1.679,1.375-.796v-.382h-1.802l-.49-1.875h-.404l-.491,1.875h-1.812v.384l1.384,.77-.543,1.698Zm5.832,.43l.241,.181,1.091-.844,1.087,.841,.25-.174-.442-1.343,1.1-.636v-.305h-1.442l-.392-1.5h-.323l-.393,1.5h-1.45v.307l1.107,.616-.435,1.359ZM1.173,5.282l.241,.181,1.091-.844,1.087,.841,.25-.174-.442-1.343,1.1-.636v-.305h-1.442l-.392-1.5h-.323l-.393,1.5H.5v.307l1.107,.616-.435,1.359Zm1.327,.718c-.828,0-1.5,.672-1.5,1.5s.672,1.5,1.5,1.5,1.5-.672,1.5-1.5-.672-1.5-1.5-1.5Zm8.5,5.5c0-.828-.672-1.5-1.5-1.5h-3c-.828,0-1.5,.672-1.5,1.5v.5h6v-.5Zm-3-5.5c-.828,0-1.5,.672-1.5,1.5s.672,1.5,1.5,1.5,1.5-.672,1.5-1.5-.672-1.5-1.5-1.5Zm7,1.5c0-.828-.672-1.5-1.5-1.5s-1.5,.672-1.5,1.5,.672,1.5,1.5,1.5,1.5-.672,1.5-1.5Zm8.017,4.285c-1.17-1.121-3.19-1.019-4.254,.199l-3.224,3.543c-.551-.911-1.542-1.527-2.681-1.527H3c-1.654,0-3,1.346-3,3v7H2v-7c0-.552,.448-1,1-1H12.857c.63,0,1.143,.513,1.143,1.143,0,.564-.421,1.051-.98,1.13l-5.161,.737,.283,1.98,5.161-.737c1.171-.167,2.119-.985,2.506-2.051l4.433-4.872c.357-.41,1.033-.438,1.428-.067,.408,.372,.44,1.009,.073,1.421l-8.3,9.316h2.678l7.115-7.985c1.093-1.226,.995-3.123-.219-4.229Z"/>
</svg>
