<?xml version="1.0" encoding="UTF-8"?>
<svg xmlns="http://www.w3.org/2000/svg" id="Layer_1" data-name="Layer 1" viewBox="0 0 24 24">
  <path d="M10,17V9c0-1.654-1.346-3-3-3H3c-1.654,0-3,1.346-3,3v8H2v7h2v-7h2v7h2v-7h2ZM2,9c0-.552,.449-1,1-1H7c.551,0,1,.448,1,1v6H2v-6ZM4,2.5c0-1.381,1.119-2.5,2.5-2.5s2.5,1.119,2.5,2.5-1.119,2.5-2.5,2.5-2.5-1.119-2.5-2.5Zm10,.5h-3V1h3V3Zm-1.747,4.356l-2.603-1.611,1.053-1.701,2.603,1.611-1.053,1.701Zm9.917,6.881c-1.526-.646-3.287,.068-3.948,1.631l-1.298,3.466-2.62-3.334h-1.466l-3.228,8h2.156l2.134-5.288,3.279,4.185,.009-.007c.304,.373,.686,.678,1.142,.871,1.503,.643,3.287-.06,3.948-1.631l1.483-3.96c.646-1.522-.068-3.287-1.591-3.934Zm-.266,3.192l-1.484,3.961c-.199,.498-.822,.751-1.311,.529-.518-.22-.753-.816-.515-1.35l1.484-3.961c.215-.512,.815-.743,1.31-.53,.508,.215,.746,.804,.515,1.351Zm-5.815-6.93c0-1.381,1.119-2.5,2.5-2.5s2.5,1.119,2.5,2.5-1.119,2.5-2.5,2.5-2.5-1.119-2.5-2.5Z"/>
</svg>
