<svg id="Layer_1" viewBox="0 0 24 24" xmlns="http://www.w3.org/2000/svg" data-name="Layer 1"><path d="m21 16.803-2.121 2.076c-1.17 1.17-1.17 3.072 0 4.242.566.566 1.32.879 2.121.879s1.555-.312 2.121-.879c1.17-1.17 1.17-3.072-.008-4.25zm.707 4.904c-.377.379-1.036.377-1.414 0-.39-.39-.39-1.024-.008-1.406l.715-.699.707.691c.39.39.39 1.024 0 1.414zm.793-11.707-1 2h-4.828l3.2-4.359-6.701-6.692-1.801 1.409c-.138-.168-.284-.331-.438-.484-2.496-2.494-6.558-2.494-9.056 0-1.272 1.27-1.954 3.03-1.87 4.779l-.006 4.015 10.183 10.17 5.02-6.838h6.297l1 2h1.5v-6zm-20.495-3.393c-.059-1.235.41-2.445 1.285-3.318.859-.857 1.986-1.287 3.114-1.287s2.256.429 3.115 1.287c.097.096.188.197.275.301l-7.794 6.092.004-3.075zm7.944 11.17-6.611-6.602 9.672-7.561 4.233 4.228z"/></svg>