<svg id="Layer_1" viewBox="0 0 24 24" xmlns="http://www.w3.org/2000/svg" data-name="Layer 1"><path d="m8.957 6.457-1.043 1.043 1.043 1.043-1.414 1.414-1.043-1.043-1.043 1.043-1.414-1.414 1.043-1.043-1.043-1.043 1.414-1.414 1.043 1.043 1.043-1.043zm2 3.5 3.5-3.5-1.414-1.414-1.043 1.043-1.043-1.043-1.414 1.414 1.043 1.043-1.043 1.043zm10.043-8.957h-18c-1.654 0-3 1.346-3 3v10h10v-2h-8v-8c0-.552.448-1 1-1h18c.552 0 1 .448 1 1v3.708l1.183.392c.293.097.561.233.817.387v-4.487c0-1.654-1.346-3-3-3zm3 11v3.59c0 3.269-2.307 5.799-6.044 7.187-3.643-1.719-5.97-4.313-5.956-7.165v-3.611c0-.911.581-1.715 1.447-2.001l4.553-1.51 4.554 1.51c.865.286 1.446 1.09 1.446 2.001zm-2 0c0-.047-.029-.087-.074-.103l-3.926-1.301-3.925 1.301c-.046.016-.075.056-.075.103v3.59c.041 1.888 1.365 3.526 4.044 4.979 2.617-1.182 3.913-2.82 3.956-4.999z"/></svg>