<svg id="Layer_1" viewBox="0 0 24 24" xmlns="http://www.w3.org/2000/svg" data-name="Layer 1"><path d="m12.439 0h-8.878c-1.418 0-2.653 1.001-2.936 2.381-.286 1.392-.625 3.669-.625 6.619 0 6.054 1.947 13.911 2.03 14.243l.189.757h11.562l.188-.757c.083-.332 2.03-8.189 2.03-14.243 0-2.947-.34-5.226-.625-6.619-.282-1.38-1.517-2.381-2.936-2.381zm-8.878 2h8.878c.473 0 .884.329.977.783.118.578.245 1.328.351 2.217h-11.534c.106-.889.233-1.64.352-2.217.093-.454.503-.783.977-.783zm8.648 20h-8.418c-.486-2.118-1.791-8.251-1.791-13 0-.71.021-1.377.056-2h11.887c.035.623.056 1.29.056 2 0 4.749-1.305 10.882-1.791 13zm6.791-12c0-1.105.895-2 2-2s2 .895 2 2-.895 2-2 2-2-.895-2-2zm-11 0c-2.206 0-4 1.794-4 4s1.794 4 4 4 4-1.794 4-4-1.794-4-4-4zm0 6c-1.103 0-2-.897-2-2s.897-2 2-2 2 .897 2 2-.897 2-2 2zm13.328 1.11c.11-.265.172-.555.172-.86 0-1.243-1.007-2.25-2.25-2.25s-2.25 1.007-2.25 2.25c0 .766.384 1.44.969 1.846-.596.628-.969 1.471-.969 2.404 0 1.93 1.57 3.5 3.5 3.5s3.5-1.57 3.5-3.5c0-1.643-1.143-3.016-2.672-3.39zm-.828 4.89c-.827 0-1.5-.673-1.5-1.5s.673-1.5 1.5-1.5 1.5.673 1.5 1.5-.673 1.5-1.5 1.5z"/></svg>