<?xml version="1.0" encoding="UTF-8"?>
<svg xmlns="http://www.w3.org/2000/svg" id="Layer_1" data-name="Layer 1" viewBox="0 0 24 24">
  <path d="M5.269,16h3v1.6h-1.4v1.65h1.4v1.6h-1.4v1.551h1.4v1.6h-3v-8Zm17.131,4c0-.009-1.305-3.991-1.3-4h-1.6v8h1.6v-4l1.3,4h1.6v-8h-1.6v4Zm-4.693-2.584s1.101,6.584,1.101,6.584h-1.66l-.144-.9h-1.395l-.142,.9h-1.658s1.08-6.538,1.08-6.538c.106-1.859,2.694-1.82,2.819-.046Zm-.959,4.084l-.445-2.783-.44,2.783h.886Zm-5.464-2v1.6h.616c.332,1.065-.992,1.976-1.3,.65,0,0,0-3.5,0-3.5,.053-1.014,1.534-.712,1.3,.25h1.6c.323-3.061-4.511-3.335-4.5-.25,.084,1.838-.686,5.808,2.25,5.75,2.429,.039,2.348-2.779,2.25-4.5h-2.216Zm-9.03,1.731l-.637-5.231H0s.991,6.823,.991,6.823c.086,1.505,2.473,1.546,2.537-.046,0,0,.973-6.777,.972-6.778h-1.616l-.63,5.231ZM0,12v2H24v-2H0ZM8.971,7.484c-.471-1.984-1.292-2.994-3.471-5.484,0,0,2.238,.281,3.907,2.291,0,0,.606,.671,1.194,2.117,.237,.862,.399,2.011,.399,3.592h2c0-.451,.571-1.824,1.834-2.732,1.716,1.293,5.581,.557,7.166-4.268,0,0-3.396-2.043-6.557-.276-.971,1.004-1.397,1.931-1.446,2.714-.492,.313-.924,.678-1.297,1.075-.1-.478-.238-.961-.417-1.428,.489-1.524-.036-3.368-1.61-4.18-4.006-2.209-7.672,.321-7.672,.321,1.17,2.134,2.663,6.306,5.971,6.258Z"/>
</svg>
