<svg id="Layer_1" viewBox="0 0 24 24" xmlns="http://www.w3.org/2000/svg" data-name="Layer 1"><path d="m7 16s1-6 5-6c1.657 0 3 1.343 3 3s-1.343 3-3 3zm7.619-7.24 5.738-6.449c.348-.389.946-.422 1.334-.074.013.012.025.023.038.036.369.368.369.965 0 1.334s-6.042 6.044-6.042 6.044c.465.511.817 1.118 1.039 1.788l6.413-6.413c1.148-1.15 1.148-3.013 0-4.163-.58-.581-1.378-.863-2.139-.863-.786 0-1.454.292-2.023.861-.123.115-6.291 7.068-6.412 7.196.747.086 1.443.325 2.054.703zm-6.119-3.76c-.828 0-1.5.672-1.5 1.5s.672 1.5 1.5 1.5 1.5-.672 1.5-1.5-.672-1.5-1.5-1.5zm13.5 6v11h-20v-11h4.852c.526-.781 1.181-1.47 1.96-2h-6.812v-4c0-.551.449-1 1-1h10.498l1.78-2h-12.278c-1.654 0-3 1.346-3 3v19h24v-17.006l-4.006 4.006zm-19-4.5c0 .828.672 1.5 1.5 1.5s1.5-.672 1.5-1.5-.672-1.5-1.5-1.5-1.5.672-1.5 1.5zm2 13.5h14v-2h-14z"/></svg>