<svg id="Layer_1" viewBox="0 0 24 24" xmlns="http://www.w3.org/2000/svg" data-name="Layer 1"><path d="m15 15.5c0-2.481-2.019-4.5-4.5-4.5h-4c-2.481 0-4.5 2.019-4.5 4.5v1.5h-2v2h1v5h2v-5h11v5h2v-5h1v-2h-2zm-11 0c0-1.378 1.122-2.5 2.5-2.5h4c1.378 0 2.5 1.122 2.5 2.5v1.5h-9zm4.5-6.5c2.481 0 4.5-2.019 4.5-4.5s-2.019-4.5-4.5-4.5-4.5 2.019-4.5 4.5 2.019 4.5 4.5 4.5zm0-7c1.378 0 2.5 1.122 2.5 2.5s-1.122 2.5-2.5 2.5-2.5-1.122-2.5-2.5 1.122-2.5 2.5-2.5zm13.5-2-5.001.002c-1.103 0-1.999.898-1.999 2.001 0 0 .002 6.333.002 6.915 0 .733.525 1.083 1.074 1.083.259 0 .516-.093.721-.267.153-.121 1.716-1.269 2.349-1.734h4.854v-6c0-1.103-.897-2-2-2zm0 6h-3.511s-1.159.853-1.487 1.094l-.002-5.092 5-.002z"/></svg>