<?xml version="1.0" encoding="UTF-8"?>
<svg xmlns="http://www.w3.org/2000/svg" id="Layer_1" data-name="Layer 1" viewBox="0 0 24 24">
  <path d="M4,20h5V10H4v10Zm2-8h1v6h-1v-6Zm-1.5-6c0-1.105,.895-2,2-2s2,.895,2,2-.895,2-2,2-2-.895-2-2ZM21,0h-7c-.771,0-1.468,.301-2,.78-.532-.48-1.229-.78-2-.78H3C1.346,0,0,1.346,0,3V24H24V3c0-1.654-1.346-3-3-3ZM11,22H2V3c0-.552,.449-1,1-1h7c.551,0,1,.448,1,1V22Zm11,0H13V3c0-.552,.448-1,1-1h7c.552,0,1,.448,1,1V22Zm-7-2h5V10h-5v10Zm2-8h1v6h-1v-6Zm-1.5-6c0-1.105,.895-2,2-2s2,.895,2,2-.895,2-2,2-2-.895-2-2Z"/>
</svg>
