<?xml version="1.0" encoding="UTF-8"?>
<svg xmlns="http://www.w3.org/2000/svg" id="Layer_1" data-name="Layer 1" viewBox="0 0 24 24">
  <path d="M16.117,8.267l-3.08,3.733h1.463v1.6h-1.7v.8h1.7v1.6h-1.7v1h-1.6v-1h-1.7v-1.6h1.7v-.8h-1.7v-1.6h1.463l-3.08-3.733,1.234-1.019,2.883,3.495,2.883-3.495,1.234,1.019Zm7.333-5.592L20.792,.015l-1.414,1.414,1.571,1.571H12C7.038,3,3,7.038,3,12c0,1.055,.2,2.059,.536,3h2.151c-.436-.91-.687-1.925-.687-3,0-3.86,3.14-7,7-7h8.948l-1.571,1.571,1.414,1.414,2.659-2.659c.731-.731,.731-1.92,0-2.651Zm-5.138,6.326c.436,.91,.687,1.925,.687,3,0,3.859-3.14,7-7,7H3.052l1.57-1.57-1.414-1.414-2.658,2.658c-.729,.696-.729,1.955,0,2.651l2.659,2.659,1.414-1.414-1.57-1.57H12c4.962,0,9-4.037,9-9,0-1.055-.2-2.059-.536-3h-2.151Z"/>
</svg>
