<?xml version="1.0" encoding="UTF-8"?>
<svg xmlns="http://www.w3.org/2000/svg" id="Layer_1" data-name="Layer 1" viewBox="0 0 24 24">
  <path d="M12,0C7.589,0,4,3.589,4,8c0,2.836,1.525,5.486,3.98,6.914,.629,.366,1.02,1.031,1.02,1.735v4.303l3,3,3-3v-4.303c0-.704,.391-1.369,1.02-1.735,2.455-1.428,3.98-4.078,3.98-6.914C20,3.589,16.411,0,12,0Zm0,21.125l-1-1v-3.125h2v3.125l-1,1Zm3.014-7.939c-.735,.428-1.3,1.071-1.643,1.814h-.371v-5.184c1.161-.414,2-1.514,2-2.816h-2c0,.551-.448,1-1,1s-1-.449-1-1h-2c0,1.302,.839,2.402,2,2.816v5.184h-.371c-.343-.744-.907-1.386-1.643-1.814-1.842-1.072-2.986-3.059-2.986-5.186,0-3.309,2.691-6,6-6s6,2.691,6,6c0,2.127-1.145,4.114-2.986,5.186Z"/>
</svg>
