<?xml version="1.0" encoding="UTF-8"?>
<svg xmlns="http://www.w3.org/2000/svg" id="Layer_1" data-name="Layer 1" viewBox="0 0 24 24">
  <path d="M16.5,10c-1.381,0-2.5,1.119-2.5,2.5v3c0,1.381,1.119,2.5,2.5,2.5s2.5-1.119,2.5-2.5v-3c0-1.381-1.119-2.5-2.5-2.5Zm.9,5.5c0,.496-.404,.9-.9,.9s-.9-.404-.9-.9v-3c0-.496,.404-.9,.9-.9s.9,.404,.9,.9v3Zm-7.8-3v3c0,.496,.404,.9,.9,.9s.9-.404,.9-.9h1.6c0,1.381-1.119,2.5-2.5,2.5s-2.5-1.119-2.5-2.5v-3c0-1.381,1.119-2.5,2.5-2.5s2.5,1.119,2.5,2.5h-1.6c0-.496-.404-.9-.9-.9s-.9,.404-.9,.9Zm12.4,7.167h2v1.333h-4v-.654c0-1.506,2.667-2.346,2.667-3.346,0-.368-.298-.667-.667-.667s-.667,.298-.667,.667v.333h-1.333v-.333c0-1.105,.895-2,2-2s2,.895,2,2c0,1.423-1.425,2.141-2,2.667Zm-13.365-.373l1.414,1.414-2.758,2.758c-.679,.709-1.904,.708-2.583,0l-2.757-2.758,1.414-1.414,1.635,1.635v-5.929h2v5.929l1.635-1.635Zm-5.681-2.417l-1.41,1.41c-.948-.987-1.544-2.313-1.544-3.786,0-1.786,.85-3.425,2.266-4.45-.177-.666-.266-1.353-.266-2.05C2,3.589,5.589,0,10,0c3.281,0,6.246,2.048,7.44,5.059,3.73,.46,6.56,3.604,6.56,7.441,0,.344-.037,.679-.083,1.011-.583-.318-1.255-.529-1.964-.507,.016-.168,.047-.332,.047-.505,.024-3.294-2.817-5.721-6.042-5.52-.586-2.82-3.032-5.002-5.958-4.98-4.557-.082-7.39,5.044-5.291,8.974-1.491,.589-2.754,1.831-2.709,3.526,0,.923,.367,1.754,.954,2.377Z"/>
</svg>
