<svg id="Layer_1" viewBox="0 0 24 24" xmlns="http://www.w3.org/2000/svg" data-name="Layer 1"><path d="m5 14c-2.757 0-5 2.243-5 5s2.243 5 5 5 5-2.243 5-5-2.243-5-5-5zm0 8c-1.654 0-3-1.346-3-3s1.346-3 3-3 3 1.346 3 3-1.346 3-3 3zm14.24-7.976-2.263-3.66c-.145-.239.008-.364.267-.364h2.756v-2h-2.674c-.166 0-.328.023-.486.056l-3.656-1.678c-1.417-.789-3.231-.288-4.056 1.124l-1.19 2.116c-.446.733-.558 1.624-.305 2.444.245.794.809 1.451 1.555 1.813l1.812 1.169v4.955h2v-6.045l-2.912-1.866c-.551-.244-.76-.936-.424-1.46l1.2-2.133c.273-.467.879-.63 1.417-.336l2.867 1.318c-.238.382-.351 1.012-.066 1.56l2.036 3.335c-1.826.746-3.118 2.535-3.118 4.626 0 2.757 2.243 5 5 5s5-2.243 5-5c0-2.675-2.117-4.848-4.76-4.976zm-.24 7.976c-1.654 0-3-1.346-3-3s1.346-3 3-3 3 1.346 3 3-1.346 3-3 3zm-8-19.5c0-1.381 1.119-2.5 2.5-2.5s2.5 1.119 2.5 2.5-1.119 2.5-2.5 2.5-2.5-1.119-2.5-2.5z"/></svg>