<svg id="Layer_1" viewBox="0 0 24 24" xmlns="http://www.w3.org/2000/svg" data-name="Layer 1"><path d="m21 7h-2.294c.189.634.294 1.305.294 2h2c.071 0 .134.026.202.041l-7.08 7.081c-1.134 1.133-3.109 1.133-4.243 0l-7.081-7.081c.067-.014.13-.041.202-.041h11.988c0 .238-.015.478-.071.72-.244 1.07-1.127 1.954-2.198 2.198-.238.055-.48.082-.719.082-.552 0-1 .448-1 1s.448 1 1 1c.389 0 .781-.045 1.165-.133 1.831-.418 3.284-1.871 3.703-3.702.54-2.368-.609-4.719-2.795-5.717-.662-.301-1.072-.906-1.072-1.579v-2.869h-2v2.869c0 1.444.88 2.778 2.243 3.399.388.177.714.432.983.731h-5.225l-2-2v2h-4.002c-1.654 0-3 1.346-3 3v14h24v-13.999c0-1.654-1.346-3-3-3zm-19 15v-10.929l6.464 6.465c1.862 1.939 5.209 1.939 7.071 0l6.464-6.465v10.929z"/></svg>