<svg id="Layer_1" viewBox="0 0 24 24" xmlns="http://www.w3.org/2000/svg" data-name="Layer 1"><path d="m24 3.501c0-.935-.364-1.815-1.026-2.475-1.366-1.365-3.585-1.365-4.951 0l-8.028 8.028v-9.054h-2.001v8.885l-1.006-.503c-1.313-.656-2.89-.4-3.926.637l-1.277 1.277 1.415 1.415 1.277-1.277c.426-.426 1.076-.532 1.616-.262l1.121.56-5.968 5.968c-1.66 1.592-1.661 4.461 0 6.054 1.593 1.661 4.461 1.661 6.054 0l6.197-6.196 1.474 1.474 1.415-1.415-2.026-2.026 8.615-8.615c.661-.661 1.026-1.541 1.026-2.476zm-18.115 17.838c-.862.863-2.364.861-3.225 0-.885-.849-.884-2.376 0-3.225l6.196-6.196 3.225 3.226-6.197 6.196zm15.675-16.777-8.615 8.615-2.122-2.122 8.615-8.615c.584-.585 1.538-.585 2.122 0 .582.558.582 1.563 0 2.121z"/></svg>