<svg id="Layer_1" viewBox="0 0 24 24" xmlns="http://www.w3.org/2000/svg" data-name="Layer 1"><path d="m23.821 13.181c-.412-.901-1.401-2.758-3.099-4.476l2.683-3.351-1.561-1.25-2.631 3.286c-.629-.471-1.325-.902-2.096-1.266l1.329-3.887-1.893-.646-1.315 3.848c-.699-.191-1.443-.325-2.238-.387v-4.052h-2v4.052c-.796.062-1.539.196-2.238.387l-1.316-3.848-1.893.647 1.329 3.887c-.771.363-1.467.794-2.096 1.265l-2.631-3.286-1.562 1.25 2.683 3.351c-1.697 1.719-2.685 3.575-3.098 4.477-.238.521-.238 1.117 0 1.639.878 1.918 4.328 8.179 11.821 8.179s10.943-6.261 11.822-8.182c.237-.52.237-1.117 0-1.638zm-11.821 7.819c-6.302 0-9.25-5.367-10.003-6.987.753-1.645 3.699-7.013 10.003-7.013s9.25 5.368 10.003 6.987c-.753 1.645-3.699 7.013-10.003 7.013zm0-12c-2.757 0-5 2.243-5 5s2.243 5 5 5 5-2.243 5-5-2.243-5-5-5zm0 8c-1.654 0-3-1.346-3-3s1.346-3 3-3 3 1.346 3 3-1.346 3-3 3z"/></svg>