<svg id="Layer_1" viewBox="0 0 24 24" xmlns="http://www.w3.org/2000/svg" data-name="Layer 1"><path d="m21.5 6h2v.75c0 6.004-4.626 10.94-10.5 11.449v3.801h5v2h-12v-2h5v-3.801c-5.874-.509-10.5-5.445-10.5-11.449v-.75h2v.75c0 4.9 3.73 8.945 8.5 9.446v-1.766c-3.94-.495-7-3.859-7-7.931v-.5h2v.5c0 2.967 2.167 5.431 5 5.91v-1.531c-2-.457-3.5-2.242-3.5-4.379v-.5h2v.5c0 1.023.619 1.901 1.5 2.288v-2.788h2v2.788c.882-.387 1.5-1.266 1.5-2.288v-.5h2v.5c0 2.137-1.5 3.922-3.5 4.379v1.531c2.833-.478 5-2.942 5-5.91v-.5h2v.5c0 4.072-3.06 7.436-7 7.931v1.766c4.77-.502 8.5-4.546 8.5-9.446zm-9.5-2c.828 0 1.5-.672 1.5-1.5s-1.5-2.5-1.5-2.5-1.5 1.672-1.5 2.5.672 1.5 1.5 1.5zm3.5 0c.828 0 1.5-.672 1.5-1.5s-1.5-2.5-1.5-2.5-1.5 1.672-1.5 2.5.672 1.5 1.5 1.5zm3.5 0c.828 0 1.5-.672 1.5-1.5s-1.5-2.5-1.5-2.5-1.5 1.672-1.5 2.5.672 1.5 1.5 1.5zm-16-1.5c0-.828-1.5-2.5-1.5-2.5s-1.5 1.672-1.5 2.5.672 1.5 1.5 1.5 1.5-.672 1.5-1.5zm2 1.5c.828 0 1.5-.672 1.5-1.5s-1.5-2.5-1.5-2.5-1.5 1.672-1.5 2.5.672 1.5 1.5 1.5zm3.5 0c.828 0 1.5-.672 1.5-1.5s-1.5-2.5-1.5-2.5-1.5 1.672-1.5 2.5.672 1.5 1.5 1.5zm14-4s-1.5 1.672-1.5 2.5.672 1.5 1.5 1.5 1.5-.672 1.5-1.5-1.5-2.5-1.5-2.5z"/></svg>