<svg id="Layer_1" viewBox="0 0 24 24" xmlns="http://www.w3.org/2000/svg" data-name="Layer 1"><path d="m24 8c0 1.654-1.346 3-3 3v1h-2v-1c-1.654 0-3-1.346-3-3h2c0 .552.448 1 1 1h2c.552 0 1-.448 1-1 0-.379-.271-.698-.645-.761l-3.04-.506c-1.342-.224-2.315-1.374-2.315-2.733 0-1.654 1.346-3 3-3v-1h2v1c1.654 0 3 1.346 3 3h-2c0-.552-.448-1-1-1h-2c-.552 0-1 .448-1 1 0 .379.271.698.645.761l3.04.506c1.342.224 2.315 1.374 2.315 2.733zm-3 6h-2v8h-14v-9h1.551c-.061-.672 0-1.346.186-2h-1.736v-9h9.433c.355-.795.906-1.484 1.598-2h-14.032v2h1v9h-1v2h1v9h-1v2h20v-2h-1zm-9-6.396 2.467 2.414c1.372 1.372 1.372 3.593.008 4.957-.661.661-1.54 1.025-2.475 1.025s-1.813-.364-2.475-1.025c-1.364-1.364-1.364-3.585 0-4.949zm1.061 3.835-1.061-1.037-1.068 1.045c-.577.577-.577 1.528.008 2.113.566.566 1.555.566 2.121 0 .585-.585.585-1.536 0-2.121z"/></svg>