<svg id="Layer_1" viewBox="0 0 24 24" xmlns="http://www.w3.org/2000/svg" data-name="Layer 1"><path d="m20 4-2-1 2-1 1-2 1 2 2 1-2 1-1 2zm-18 17v-14c0-.551.449-1 1-1h13c.551 0 1 .449 1 1v1.076c.246-.039.493-.076.75-.076.436 0 .849.078 1.25.187v-1.187c0-1.654-1.346-3-3-3h-13c-1.654 0-3 1.346-3 3v16h6.319c-.236-.637-.335-1.315-.296-2zm19.25-9.002c-.291 0-.566.058-.829.142-.25-1.221-1.419-2.162-2.672-2.139-.971 0-1.821.51-2.31 1.272-.363-.172-.759-.272-1.173-.272-1.515 0-2.747 1.231-2.747 2.743l-.015 4.61c-.775-.137-1.586.019-2.236.488-1.499 1.032-1.687 3.319-.363 4.582l.606.578h2.898l-2.106-2.008c-.436-.42-.372-1.184.134-1.528.38-.274.975-.191 1.356.19l1.699 1.7.027-8.607c0-.411.335-.746.747-.746.391-.007.731.319.739.712l-.005 5.288h2l.004-6.256c0-.41.334-.744.746-.744.405-.007.756.346.745.754l.005 6.246h2v-4.254c0-.413.336-.749.75-.749.408-.007.76.348.75.759v9.244h2v-9.239c.038-1.483-1.267-2.795-2.75-2.764zm-13.25-.998-1-2-1 2-2 1 2 1 1 2 1-2 2-1z"/></svg>