<svg id="Layer_1" viewBox="0 0 24 24" xmlns="http://www.w3.org/2000/svg" data-name="Layer 1"><path d="m17 10c-3.859 0-7 3.141-7 7s3.141 7 7 7 7-3.141 7-7-3.141-7-7-7zm-1.262 11.819-.689-2.148h-2.262c-.451-.71-.72-1.538-.763-2.427l1.82-1.282-.664-2.148c.536-.641 1.217-1.151 2.008-1.46l1.811 1.316 1.811-1.316c.791.31 1.472.819 2.008 1.46l-.664 2.148 1.82 1.282c-.044.89-.312 1.718-.763 2.427h-2.262s-.689 2.149-.689 2.149c-.406.107-.823.181-1.262.181s-.856-.075-1.262-.181zm3.212-2.148h-3.901l-1.205-3.71 3.156-2.293 3.156 2.293-1.205 3.71zm5.05-16.671v4h-1c-1.085 0-1.967.87-1.995 1.949-.608-.303-1.253-.539-1.929-.699.29-1.52 1.439-2.74 2.924-3.123v-2.127c0-.552-.448-1-1-1h-18c-.552 0-1 .448-1 1v2.115c1.767.432 3.082 2.028 3.082 3.926s-1.315 3.494-3.082 3.926v2.033c0 .552.448 1 1 1h5.059c-.036.329-.059.662-.059 1s.022.671.059 1h-5.059c-1.654 0-3-1.346-3-3v-3.997l1.095-.003c1.101-.028 1.987-.852 1.987-1.959s-.884-2.01-1.982-2.04c-.008.004-1.055.003-1.1.003v-4.004c0-1.654 1.346-3 3-3h18c1.654 0 3 1.346 3 3z"/></svg>