<svg id="Layer_1" viewBox="0 0 24 24" xmlns="http://www.w3.org/2000/svg" data-name="Layer 1"><path d="m11 14.5c0 .828-.672 1.5-1.5 1.5s-1.5-.672-1.5-1.5.672-1.5 1.5-1.5 1.5.672 1.5 1.5zm3.5-1.5c-.828 0-1.5.672-1.5 1.5s.672 1.5 1.5 1.5 1.5-.672 1.5-1.5-.672-1.5-1.5-1.5zm9.5-2.926v13.926h-24v-13.926c0-.96.433-1.849 1.188-2.439l8.904-6.977c1.123-.879 2.692-.881 3.815 0l8.905 6.977c.754.591 1.188 1.479 1.188 2.439zm-2 0c0-.341-.153-.655-.42-.865l-8.906-6.977c-.396-.311-.952-.311-1.349 0l-8.904 6.977c-.268.21-.421.524-.421.865v11.926h20zm-3 2.926h1v3h-1v4h-14v-4h-1v-3h1v-1c0-1.654 1.346-3 3-3h3v-2h2v2h3c1.654 0 3 1.346 3 3zm-2-1c0-.552-.449-1-1-1h-8c-.551 0-1 .448-1 1v6h10z"/></svg>