<?xml version="1.0" encoding="UTF-8"?>
<svg xmlns="http://www.w3.org/2000/svg" id="Layer_1" data-name="Layer 1" viewBox="0 0 24 24">
  <path d="M11.73,19l5.005-4.838,6.004-2.92-.875-1.799-6.146,2.989-3.485,3.301-4.238-4.733h6.005v-2H5v.012c-.674-.022-1.357,.179-1.918,.632-.623,.502-1.003,1.218-1.071,2.015-.068,.797,.186,1.566,.712,2.165l4.527,5.176H0v2H24v-2H11.73Zm-7.727-7.171c.021-.249,.14-.472,.334-.628,.167-.135,.369-.201,.569-.201,.245,0,.488,.099,.662,.29l5.224,5.834-.623,.603c-.195,.186-.451,.292-.72,.272-.272-.01-.524-.127-.697-.318l-4.526-5.175c-.165-.188-.244-.427-.223-.676ZM1,5.5c0-1.381,1.119-2.5,2.5-2.5s2.5,1.119,2.5,2.5-1.119,2.5-2.5,2.5-2.5-1.119-2.5-2.5Z"/>
</svg>
