<svg id="Layer_1" viewBox="0 0 24 24" xmlns="http://www.w3.org/2000/svg" data-name="Layer 1"><path d="m21 20.5v3.5h-2v-3.5c0-1.379-1.122-2.5-2.5-2.5h-9c-1.378 0-2.5 1.121-2.5 2.5v3.5h-2v-3.5c0-2.481 2.019-4.5 4.5-4.5h9c2.481 0 4.5 2.019 4.5 4.5zm-14.982-9.883c-.642-1.057-1.018-2.292-1.018-3.617 0-3.86 3.14-7 7-7s7 3.14 7 7c0 1.325-.377 2.56-1.018 3.617-.037-.757-.174-1.387-.341-1.902-.535.417-1.137.79-1.784 1.025.083.355.143.77.143 1.261-.124 2.137-.53 2.286-1 2.999h-5.999c-.469-.711-.877-.864-1-2.999 0-.491.061-.907.143-1.261-.647-.235-1.25-.608-1.784-1.025-.167.515-.304 1.145-.341 1.902zm7.982.384c0-.435-.064-.767-.135-1.001h-3.73c-.069.232-.134.565-.134 1.001s.064.766.135.999h3.73c.07-.233.135-.565.135-.999zm-6.966-4.337c.901.841 1.804 1.336 2.466 1.336h5c.662 0 1.565-.495 2.466-1.336-.176-2.598-2.324-4.664-4.966-4.664s-4.79 2.066-4.966 4.664z"/></svg>