<svg id="Layer_1" viewBox="0 0 24 24" xmlns="http://www.w3.org/2000/svg" data-name="Layer 1"><path d="m21.5 18h-4c-.171 0-.338.017-.5.05v-.55c0-1.378-1.121-2.5-2.5-2.5h-5c-1.228 0-2.252.89-2.461 2.059-.174-.039-.354-.059-.539-.059h-4c-1.379 0-2.5 1.122-2.5 2.5v4.5h24v-3.5c0-1.378-1.121-2.5-2.5-2.5zm-14.5 4h-5v-2.5c0-.276.225-.5.5-.5h4c.275 0 .5.224.5.5zm8 0h-6v-4.5c0-.276.225-.5.5-.5h5c.275 0 .5.224.5.5zm7 0h-5v-1.5c0-.276.225-.5.5-.5h4c.275 0 .5.224.5.5zm-11.391-13.275c.124.061.258.098.391.139v.636c0 .827-.673 1.5-1.5 1.5h-1v2h7v-2h-1c-.827 0-1.5-.673-1.5-1.5v-.636c1.518-.519 2.707-1.813 3.434-2.864h2.566v-2h-1.496c.253-.64.218-.612.45-1.624.128-.581-.014-1.181-.387-1.645-.374-.465-.931-.731-1.527-.731h-8.08c-.597 0-1.153.267-1.527.731-.373.464-.515 1.064-.387 1.645.232 1.014.197.983.45 1.624h-1.496v2h2.566c.681.996 1.662 2.045 3.043 2.725zm5.38-6.725c-.102.464-.175.793-.205.895-.191.612-1.377 3.458-3.575 4.105h-.418c-2.199-.649-3.382-3.491-3.571-4.095-.035-.116-.113-.464-.26-.905z"/></svg>