<svg id="Layer_1" viewBox="0 0 24 24" xmlns="http://www.w3.org/2000/svg" data-name="Layer 1"><path d="m16.029 12v.007s1.128 6.138 1.128 6.138l1.111-6.111-.008-.034h1.64s-1.188 6.538-1.188 6.538c-.12.668-.62 1.462-1.555 1.462s-1.442-.837-1.546-1.416l-1.211-6.583s1.629 0 1.629 0zm5.371 0v8h1.6v-8zm-7.986-12 7.586 7.586v2.414h-2v-1h-7v-7h-8c-.552 0-1 .449-1 1v19h18v2h-20v-21c0-1.654 1.346-3 3-3zm.586 7h3.586l-3.586-3.586zm-1.139 6.627 1.339 6.373h-1.632l-.295-1.4h-2.379l-.309 1.4h-1.584l1.365-6.418c.168-.864.87-1.583 1.742-1.581.894.006 1.563.69 1.753 1.627zm-.924 3.373-.641-3.044c-.047-.231-.093-.355-.185-.355s-.15.153-.189.354l-.673 3.045z"/></svg>