<?xml version="1.0" encoding="UTF-8"?>
<svg xmlns="http://www.w3.org/2000/svg" id="Layer_1" data-name="Layer 1" viewBox="0 0 24 24">
  <path d="M22,1h-5V3h3.586l-3.833,3.833c-.791-.524-1.736-.833-2.753-.833-2.757,0-5,2.243-5,5,0,2.414,1.721,4.434,4,4.899v3.101h-3v2h3v3h2v-3h3v-2h-3v-3.101c2.279-.465,4-2.484,4-4.899,0-1.017-.309-1.962-.833-2.753l3.833-3.833v3.586h2V3c0-1.103-.897-2-2-2ZM14,14c-1.654,0-3-1.346-3-3s1.346-3,3-3,3,1.346,3,3-1.346,3-3,3Zm-6.784-1.303c.357,1.429,1.147,2.683,2.23,3.612l-2.446,2.691-.5-4-5,1.5,2.5-5.5L-.039,9.033l4.039-2.033L.107,.049,7,3.5,9.5,0l2,3,2-1.5,.229,2.514c-1.206,.046-2.331,.396-3.305,.977l-.98-1.47-1.81,2.534-2.6-1.302,1.733,3.095-2.298,1.157,2.158,1.051-1.484,3.264,2.073-.622Z"/>
</svg>
