<svg id="Layer_1" viewBox="0 0 24 24" xmlns="http://www.w3.org/2000/svg" data-name="Layer 1"><path d="m11 7.5-1-.75v-1.75h-7v1.75l-1 .75c-1.252.939-2 2.435-2 4v12.5h13v-12.5c0-1.565-.748-3.061-2-4zm0 9.5h-4v-3h4zm-6-5v7h6v3h-9v-10.5c0-.939.449-1.836 1.2-2.4l1.8-1.35v-.75h3v.75l1.8 1.35c.751.564 1.2 1.461 1.2 2.4v.5zm15.414 8.586c.781.781.781 2.047 0 2.828-.391.391-.902.586-1.414.586s-1.024-.195-1.414-.586c-.781-.781-.781-2.047 0-2.828l1.414-1.383zm3.586-13.586c-1.103 0-2-.897-2-2v-2c0-1.654-1.346-3-3-3s-3 1.346-3 3v2c0 1.103-.897 2-2 2v2h2v4.5c0 1.302.839 2.402 2 2.816v1.684h2v-1.684c1.161-.414 2-1.514 2-2.816v-4.5h2zm-6-2v-2c0-.552.449-1 1-1s1 .448 1 1v2c0 .728.195 1.411.537 2h-3.073c.341-.589.537-1.272.537-2zm2 8.5c0 .552-.449 1-1 1s-1-.448-1-1v-4.5h2z"/></svg>