<svg id="Layer_1" viewBox="0 0 24 24" xmlns="http://www.w3.org/2000/svg" data-name="Layer 1"><path d="m20 9h-2.008v-3h-15.992v6.511c.576-.596 1.266-1.053 2-1.414l-.008-3.097h12.008v8c0 1.103-.905 2-2.008 2h-2.465c-.344.676-.805 1.349-1.396 2h3.861c2.206 0 4-1.794 4-4h2.008c2.168 0 4-1.767 4-3.857 0-1.938-1.533-3.143-4-3.143zm0 5h-2.008v-3h2.008c1.327 0 2 .385 2 1.143 0 .989-.935 1.857-2 1.857zm-9-10h-2v-4h2zm4 0h-2v-4h2zm-8 0h-2v-4h2zm-7 18h20v2h-20zm0-3.117.562-1.919c1.517.445 1.666.358 2.56.373 1.553-.158 2.367-.55 2.367-.55 2.398-1.036 3.297-3.105 3.297-3.105-3.002 1.391-4.203 1.895-6.239 1.789.885-3.187 5.308-3.447 7.684-3.969 0 0 1.397 4.23-1.849 7.453-1.222 1.282-3.139 1.267-4.464.37-.498.04-1.778.188-3.919-.44zm2.548-3.413s0 0 0 0z"/></svg>