<svg id="Layer_1" viewBox="0 0 24 24" xmlns="http://www.w3.org/2000/svg" data-name="Layer 1"><path d="m24 5v16.834l-12 2.182-12-2.182v-16.834c-.045-1.817 1.757-3.319 3.537-2.951l1.375.25c-.311.595-.548 1.234-.702 1.905l-1.031-.187c-.765-.024-1.066.226-1.179.984v15.165l9 1.636v-5.802h2v5.802l9-1.636v-15.166c-.113-.758-.414-1.007-1.179-.984l-1.031.187c-.154-.671-.391-1.31-.702-1.905l1.375-.25c1.78-.369 3.581 1.135 3.537 2.952zm-17.89-.163c.441-2.324 2.287-4.213 4.594-4.7 1.811-.382 3.66.055 5.073 1.201s2.223 2.845 2.223 4.663c0 2.144-1.167 4.135-3.046 5.198-.276.156-.454.501-.454.88v1.922h-5v-1.902c0-.391-.183-.747-.467-.908-2.263-1.287-3.411-3.781-2.923-6.353zm3.911 4.614c.404.23.729.565.979.955v-3.684c-.595-.346-1-.984-1-1.723h4c0 .738-.405 1.376-1 1.723v3.677c.247-.385.569-.716.97-.943 1.252-.708 2.03-2.033 2.03-3.457 0-1.211-.541-2.345-1.483-3.109-.957-.776-2.164-1.06-3.4-.797-1.527.322-2.749 1.575-3.042 3.116-.326 1.719.438 3.384 1.946 4.242z"/></svg>