<svg id="Layer_1" viewBox="0 0 24 24" xmlns="http://www.w3.org/2000/svg" data-name="Layer 1"><path d="m24 7v-2h-2c0-1.654-1.346-3-3-3v-2h-2v2h-2v-2h-2v2h-2v-2h-2v2h-2v-2h-2v2c-1.654 0-3 1.346-3 3h-2v2h2v2h-2v2h2v2h-2v2h2v2h-2v2h2v3h3v2h2v-2h2v2h2v-2h2v2h2v-2h2v2h2v-2h3v-3h2v-2h-2v-2h2v-2h-2v-2h2v-2h-2v-2zm-4 13h-16v-15c0-.551.449-1 1-1h14c.551 0 1 .449 1 1zm-3.023-10.825-3.333-2.608c-.967-.756-2.319-.757-3.287 0l-3.333 2.608c-.65.509-1.023 1.274-1.023 2.1v6.725h12v-6.725c0-.826-.373-1.591-1.023-2.1zm-.977 6.825h-8v-4.725c0-.203.096-.399.256-.525l3.333-2.608c.242-.189.58-.189.822 0l3.333 2.608c.16.125.256.322.256.525zm-5.5-4.5h3v3h-3z"/></svg>