<svg id="Layer_1" viewBox="0 0 24 24" xmlns="http://www.w3.org/2000/svg" data-name="Layer 1"><path d="m21 0h-18c-1.654 0-3 1.346-3 3v17h11.026c-.51-.6-.933-1.274-1.263-2h-3.358c-.412-2.231-2.173-3.992-4.404-4.404v-7.191c2.231-.412 3.992-2.173 4.404-4.404h11.191c.412 2.231 2.173 3.992 4.404 4.404v.901c.752.47 1.431 1.047 2 1.723v-6.029c0-1.654-1.346-3-3-3zm-16.663 18h-2.337v-2.337c1.122.338 1.999 1.215 2.337 2.337zm-2.337-13.663v-1.337c0-.552.448-1 1-1h1.337c-.338 1.122-1.215 1.999-2.337 2.337zm17.663-2.337h1.337c.552 0 1 .448 1 1v1.337c-1.122-.338-1.999-1.215-2.337-2.337zm-2.163 6c-3.59 0-6.5 2.91-6.5 6.5 0 2.3 1.198 4.316 3 5.471v4.029l3.5-3 3.5 3v-4.029c1.802-1.155 3-3.172 3-5.471 0-3.59-2.91-6.5-6.5-6.5zm-1.479 5.24 3.286.548c1.271.211 2.193 1.3 2.193 2.588 0 1.447-1.177 2.624-2.624 2.624h-.376v1h-2v-1c-1.654 0-3-1.346-3-3h2c0 .551.449 1 1 1h2.376c.344 0 .624-.28.624-.624 0-.307-.22-.565-.521-.616l-3.286-.548c-1.27-.211-2.192-1.3-2.192-2.588 0-1.447 1.177-2.624 2.624-2.624h.376v-1h2v1c1.654 0 3 1.346 3 3h-2c0-.551-.448-1-1-1h-2.376c-.344 0-.624.28-.624.624 0 .307.219.565.521.616zm-4.995-4.24h-5.026v-2h7.528c-.954.508-1.807 1.183-2.502 2zm-5.026 2h3.76c-.285.629-.487 1.301-.611 2h-3.149z"/></svg>