<?xml version="1.0" encoding="UTF-8"?>
<svg xmlns="http://www.w3.org/2000/svg" id="Layer_1" data-name="Layer 1" viewBox="0 0 24 24">
  <path d="M19.993,20.696c-.032-2.992-.081-7.513,2.339-11.142l1.721-2.58-2.904,1.089c-1.367,.513-2.574,1.258-3.628,2.213,.743-2.727,1.807-5.465,3.311-7.722L22.489,.069l-2.819,.987c-4.103,1.436-6.624,4.674-8.179,8.132-1.846-2.98-4.245-5.011-7.161-6.031l-2.819-.986,1.657,2.485c1.623,2.434,2.755,5.372,3.515,8.153-1.134-.94-2.46-1.745-3.793-2.245L-.013,9.475l1.72,2.58c2.293,3.439,2.293,8.166,2.293,9.945H0v2H24v-2h-4.003l-.004-1.304Zm-.852-9.188c-1.211,3.375-1.173,6.889-1.148,9.209l.004,1.282h-1.997v-1c0-1.471,.147-3.66,.537-6.122,.693-1.362,1.558-2.495,2.604-3.369Zm-1.672-7.014c-1.501,3.16-3.47,9.005-3.47,17.505h-3v-1c0-.131,.096-11.612,6.47-16.506Zm-6.911,7.11c-.514,1.57-.861,3.111-1.091,4.477-.542-3.009-1.508-6.465-2.948-9.516,1.597,1.194,2.948,2.882,4.04,5.039Zm-5.727,2.283c1.227,.895,2.249,1.987,2.743,3.004,.296,1.792,.425,3.319,.425,4.308v.8h-2c0-2.249-.148-5.266-1.168-8.112Z"/>
</svg>
