<?xml version="1.0" encoding="UTF-8"?>
<svg xmlns="http://www.w3.org/2000/svg" id="Layer_1" data-name="Layer 1" viewBox="0 0 24 24">
  <path d="M24,11.5c0-1.434-.87-2.692-2.149-3.226C21.027,3.512,16.905,0,12,0,7.334,0,3.227,3.308,2.226,7.903l-.725,4.097h1.499c1.882,0,3.622-.47,5.184-1.205-.113,.211-.184,.449-.184,.705,0,.828,.672,1.5,1.5,1.5s1.5-.672,1.5-1.5c0-.783-.602-1.418-1.366-1.487,2.378-1.47,4.213-3.509,5.288-5.25-.579-.324-1.217-.552-1.893-.669-1.538,2.284-4.811,5.469-9.135,5.864l.295-1.669c.794-3.645,4.08-6.29,7.812-6.29,4.104,0,7.524,3.074,7.954,7.15l.078,.745,.737,.134c.713,.129,1.23,.749,1.23,1.471,0,.827-.673,1.5-1.5,1.5-.187,0-.893-.145-1.088-.172-.378,1.217-.916,2.318-1.851,3.343-.319-.316-.672-.656-1.138-1.008-1.049-.793-2.035-1.163-3.104-1.163-.548,0-.988,.13-1.319,.284-.331-.154-.771-.284-1.319-.284-1.069,0-2.056,.369-3.104,1.163-.463,.351-.815,.689-1.133,1.004-.649-.726-1.165-1.525-1.484-2.319-.675,.099-1.373,.158-2.08,.152,.416,1.257,1.058,2.337,2.009,3.434-.569,.322-2.283,.589-2.96,.755l1.493,1.314c.069,.061,1.733,1.497,4.578,1.497v3h2v-3.427c.739-.315,1.426-.79,2-1.401,.574,.61,1.261,1.086,2,1.401v3.427h2v-3c2.845,0,4.509-1.436,4.578-1.497l1.493-1.314-1.944-.415c-.413-.088-.735-.202-1.014-.339,.667-.761,1.227-1.584,1.619-2.443,1.822-.12,3.268-1.641,3.268-3.492Zm-12.869,5.506c-.689,1.211-1.918,1.994-3.131,1.994-.58,0-1.088-.077-1.521-.188,.466-.327,.832-.692,1.192-1.052,.715-.764,1.992-1.833,3.009-1.76,.385,0,.586,.155,.591,.155,0,0,0,0,0-.002l.224,.214-.363,.639Zm4.869,1.994c-1.213,0-2.441-.783-3.131-1.994l-.368-.647c.277-.208,.191-.304,.818-.359,1.017-.073,2.293,.996,3.009,1.76,.36,.36,.727,.726,1.192,1.052-.433,.111-.94,.188-1.521,.188Zm-3-7.5c0-.828,.672-1.5,1.5-1.5s1.5,.672,1.5,1.5-.672,1.5-1.5,1.5-1.5-.672-1.5-1.5Z"/>
</svg>
