<?xml version="1.0" encoding="UTF-8"?>
<svg xmlns="http://www.w3.org/2000/svg" id="Layer_1" data-name="Layer 1" viewBox="0 0 24 24">
  <path d="M23,6h-2l-3.026,2-1-1-1.231,1.128-3.756-1.436,.526-1-2.513-1.692,1-1V1h-2l-1.026-1h-2c.026,0,.026,1,.026,1l1.5,1.5h-.523c-.54,0-.977,.437-.977,.977,0,.327,.163,.632,.435,.813l1.065,.71-3.5,3H2v1l.903,1.204c.246,.328,.012,.796-.398,.796H1v2l.974,1h2.526c.09,.998,.302,2.009,.384,2.846,.058,.595,.241,1.166,.538,1.685l2.578,2.969,.051,2.5h2l1.103-2.051c1.949-1.692,1.846-4.051,1.846-4.051l2.5-1.897,1-2h.09c.779,0,1.41-.631,1.41-1.41v-2.59h2l-.587,.629c-.585,.433-.585,1.308,0,1.741l.587,.629h1l1-3-.026-2h1.026c.552,0,1-.448,1-1s-.448-1-1-1Zm-7,6h-.736l-1.344,2.689-2.129,1.616-.834,.633,.045,1.047c0,.014-.057,1.497-1.225,2.511l-.267-.307-2.429-2.797c-.112-.234-.181-.482-.207-.741-.043-.442-.34-2.356-.382-2.83l-.164-1.82h-1.823c.088-.118,.166-.245,.234-.381,.281-.562,.337-1.19,.178-1.772l4.482-3.841,.509,.343-.739,1.407,6.831,2.611v1.633Z"/>
</svg>
