<?xml version="1.0" encoding="UTF-8"?>
<svg xmlns="http://www.w3.org/2000/svg" id="Layer_1" data-name="Layer 1" viewBox="0 0 24 24">
  <path d="M13.63,11.184c.483-.938,.52-2.559-.13-4.184l-4.5,1c.661,1.322,1.376,2.631,2.183,3.376-3.12,1.372-6.183,6.286-6.183,9.005,0,.979,.303,1.777,.901,2.374,1.261,1.257,3.48,1.251,5.636,1.245,0,0,1.236,0,1.392,0,2,0,3.999-.079,5.169-1.246,.598-.597,.901-1.395,.901-2.374,0-2.599-2.618-8.16-5.37-9.197Zm3.056,10.154c-.674,.672-2.559,.667-4.218,.661h-.938c-1.659,.01-3.544,.011-4.218-.661-.135-.134-.313-.379-.313-.957,0-2.413,3.559-7.381,5.762-7.381,1.347,0,4.238,5.036,4.238,7.381,0,.578-.179,.823-.313,.957ZM5.293,3.707c-.834-.833-1.293-1.942-1.293-3.121V0h2V.586c0,.635,.258,1.258,.707,1.707,.834,.833,1.293,1.942,1.293,3.121v.586h-2v-.586c0-.635-.258-1.258-.707-1.707Zm11,0c-.834-.833-1.293-1.942-1.293-3.121V0h2V.586c0,.635,.258,1.258,.707,1.707,.834,.833,1.293,1.942,1.293,3.121v.586h-2v-.586c0-.635-.258-1.258-.707-1.707Zm-5.506-.55c-.83-.845-1.287-1.966-1.287-3.157h2c0,.654,.26,1.294,.713,1.756,.806,.82,1.287,2.033,1.287,3.244h-2c0-.689-.273-1.395-.713-1.843Zm13.213,17.224c0,.979-.303,1.777-.901,2.374-.822,.819-2.054,1.098-3.406,1.194,.552-.618,.932-1.356,1.13-2.185,.364-.097,.669-.231,.864-.425,.135-.134,.313-.379,.313-.957,0-2.314-1.485-5.606-2.987-6.258-.442-.806-.945-1.584-1.505-2.28,.035-1.534,.203-2.263,.542-2.991l3.341,1.157c-.354,.841-.894,1.736-1.489,2.333,2.442,1.171,4.098,5.182,4.098,8.038Zm-20.822,1.383c.198,.829,.578,1.565,1.13,2.184-1.352-.096-2.585-.374-3.407-1.194-.598-.597-.901-1.395-.901-2.374,0-2.97,1.789-7.199,4.393-8.172,0-.003,0-.004,0-.007-.47-.691-.78-1.728-.893-2.706l3.5-.5c.146,.949,0,2.504-.332,3.45-.437,.494-.849,1.018-1.225,1.563-1.641,.085-3.443,3.825-3.443,6.373,0,.578,.179,.823,.313,.957,.195,.195,.501,.328,.865,.426Z"/>
</svg>
