<svg id="Layer_1" viewBox="0 0 24 24" xmlns="http://www.w3.org/2000/svg" data-name="Layer 1"><path d="m11.287 18h.211l-1.352 3h-6.146v-2h4.854l.632-1.403c.556.257 1.166.403 1.801.403zm3.213 3c-.828 0-1.5.672-1.5 1.5s.672 1.5 1.5 1.5 1.5-.672 1.5-1.5-.672-1.5-1.5-1.5zm3 0c-.828 0-1.5.672-1.5 1.5s.672 1.5 1.5 1.5 1.5-.672 1.5-1.5-.672-1.5-1.5-1.5zm3 0c-.828 0-1.5.672-1.5 1.5s.672 1.5 1.5 1.5 1.5-.672 1.5-1.5-.672-1.5-1.5-1.5zm-17.5-4.5c0-.828-.672-1.5-1.5-1.5s-1.5.672-1.5 1.5.672 1.5 1.5 1.5 1.5-.672 1.5-1.5zm-3 3c0 .828.672 1.5 1.5 1.5s1.5-.672 1.5-1.5-.672-1.5-1.5-1.5-1.5.672-1.5 1.5zm0 3c0 .828.672 1.5 1.5 1.5s1.5-.672 1.5-1.5-.672-1.5-1.5-1.5-1.5.672-1.5 1.5zm24-12.5v2h-4.442l-2.436-2.676-2.107 4.676h3.985v6h-2v-4h-5.713c-.779 0-1.497-.391-1.92-1.045s-.484-1.469-.163-2.18l2.151-4.775h-2.914l-2.207 3.53-1.695-1.06 2.793-4.47h8.144c.869 0 1.693.375 2.263 1.03l2.704 2.97h3.558zm-11.18 4 2.7-5.99c-.015 0-.029-.01-.044-.01h-1.927l-2.522 5.597c-.057.124-.012.224.02.273s.104.13.24.13zm3.566-9c1.381 0 2.5-1.119 2.5-2.5s-1.119-2.5-2.5-2.5-2.5 1.119-2.5 2.5 1.119 2.5 2.5 2.5z"/></svg>