<svg id="Layer_1" viewBox="0 0 24 24" xmlns="http://www.w3.org/2000/svg" data-name="Layer 1"><path d="m3 20h7v2h-7zm10-5.829c-1.109 1.048-1.996 2.389-2.508 3.829h-7.23l-2.489-2.759c-.499-.555-.772-1.268-.772-2.01v-10.231c-.001-1.654 1.345-3 2.999-3s3 1.346 3 3v3.184c.266-.094.542-.164.832-.18.789-.042 1.567.226 2.163.761l2.005 1.844 1.995-1.836c.606-.543 1.391-.809 2.173-.769.29.016.566.086.832.18v-3.184c0-1.654 1.346-3 3-3s3 1.346 3 3v7h-2v-7c0-.551-.448-1-1-1s-1 .449-1 1v6h-.026c0 .339-.036.677-.15 1h-2.409l.398-.414c.13-.157.192-.368.188-.586 0-.238-.086-.478-.255-.668-.349-.406-1.014-.446-1.406-.077l-1.909 1.756c.366.507.57 1.122.57 1.755v2.405zm-2-2.405c0-.279-.117-.547-.322-.736l-3.026-2.784c-.382-.351-1.056-.319-1.396.085-.329.367-.339.928-.022 1.305l2.571 2.67-1.441 1.387-2.616-2.721c-.488-.58-.727-1.28-.732-1.973h-.014v-5.999c0-.551-.448-1-1-1s-1 .449-1 1v10.231c0 .248.092.486.258.671l1.893 2.098h6.85v-4.234zm13 8.956c0-2.605-2.055-5.702-4.688-6.514.604-.544 1.188-1.302 1.188-2.208h-5c0 .906.585 1.665 1.188 2.208-2.633.812-4.688 3.908-4.688 6.514 0 1.807 1.53 3.277 3.409 3.277h1.875v-1h-.201c-1.106 0-2.017-.852-2.11-1.934h1.492c.079.266.327.461.618.461h1.958c.291 0 .529-.237.529-.529 0-.251-.179-.469-.425-.519l-2.571-.515c-.933-.187-1.609-1.012-1.609-1.963 0-1.104.898-2.002 2.001-2.002h.318v-1h1.44v1h.201c1.106 0 2.017.852 2.11 1.934h-1.492c-.079-.266-.327-.461-.618-.461h-1.959c-.291 0-.528.237-.528.528 0 .251.179.469.425.518l2.572.515c.933.186 1.609 1.012 1.609 1.963 0 1.104-.898 2.002-2.002 2.002h-.317v1h1.867c1.88 0 3.409-1.471 3.409-3.278z"/></svg>