<svg id="Layer_1" viewBox="0 0 24 24" xmlns="http://www.w3.org/2000/svg" data-name="Layer 1"><path d="m24.009 22.632c-.76.869-1.856 1.368-3.009 1.368-1.2 0-2.266-.542-3-1.382-.734.84-1.8 1.382-3 1.382s-2.266-.542-3-1.382c-.734.84-1.8 1.382-3 1.382s-2.266-.542-3-1.382c-.734.84-1.8 1.382-3 1.382-1.152 0-2.249-.499-3.009-1.368l1.506-1.316c.38.435.928.684 1.503.684 1.103 0 2-.897 2-2h2c0 1.103.897 2 2 2s2-.897 2-2h2c0 1.103.897 2 2 2s2-.897 2-2h2c0 1.103.897 2 2 2 .575 0 1.123-.25 1.503-.684zm-9.009-18.632c1.105 0 2-.895 2-2s-.895-2-2-2-2 .895-2 2 .895 2 2 2zm-12.826 8.457c.226-.317.611-.457 1.116-.457 1.45 0 3.955 1.02 6.448 2.374l.907-1.433-1.782-1.169c-.58-.381-.978-.991-1.093-1.674s.061-1.39.483-1.939l1.596-2.158h-2.314l-1.703 2.555-1.664-1.109 2.297-3.445h4.816l9.578 5.854-1.043 1.706-4.921-3.008-1.638 2.234 2.056 1.117 2.007 6.097h-5.32l1.119-1.825c.644.333 1.252.673 1.858 1.009l-1.188-3.812-.786-.418-3.183 5.045h-2.833c-3.174-2.114-5.652-4.366-4.814-5.543zm7.788-2.357.89.585 2.33-3.179-1.348-.824-1.983 2.681c-.127.165-.122.322-.108.402.013.081.06.231.219.335z"/></svg>