<svg id="Layer_1" viewBox="0 0 24 24" xmlns="http://www.w3.org/2000/svg" data-name="Layer 1"><path d="m23.903 12-.691-.702c-.084-.085-1.607-1.608-3.799-2.37 1.011-2.092 1.013-4.253 1.012-4.36l-.008-.984-.984-.008c-.14 0-2.28.005-4.36 1.012-.762-2.192-2.285-3.715-2.37-3.799l-.702-.691-.702.691c-.085.084-1.608 1.607-2.37 3.799-2.076-1.006-4.205-1.009-4.36-1.011l-.984.008-.008.984c0 .107.001 2.268 1.012 4.36-2.192.762-3.715 2.285-3.799 2.37l-.691.702.691.702c.084.085 1.607 1.608 3.799 2.37-1.011 2.092-1.013 4.253-1.012 4.36l.008.984.984.008h.015c.219 0 2.315-.03 4.345-1.012.762 2.192 2.285 3.715 2.37 3.799l.702.691.702-.691c.085-.084 1.608-1.607 2.37-3.799 2.031.982 4.126 1.012 4.345 1.012h.015l.984-.008.008-.984c0-.107-.001-2.268-1.012-4.36 2.192-.762 3.715-2.285 3.799-2.37l.691-.702zm-5.577-6.326c-.119.786-.4 1.869-.978 2.843-.698-.055-1.381.045-2.084.22.175-.703.275-1.386.22-2.084.974-.579 2.057-.86 2.843-.978zm-7.326 6.326c0-.552.448-1 1-1s1 .448 1 1-.448 1-1 1-1-.448-1-1zm1.002-8.949c.645.87 1.498 2.329 1.498 3.949 0 .702-.167 1.436-.487 2.188-.318-.115-.656-.188-1.013-.188s-.695.073-1.013.188c-.32-.753-.487-1.486-.487-2.188 0-1.61.857-3.075 1.502-3.949zm-6.328 2.623c.786.119 1.869.4 2.843.978-.055.698.045 1.381.22 2.084-.703-.175-1.386-.275-2.084-.22-.579-.974-.86-2.057-.978-2.843zm1.326 4.826c.702 0 1.436.167 2.188.487-.115.318-.188.656-.188 1.013s.073.695.188 1.013c-.753.32-1.486.487-2.188.487-1.61 0-3.075-.857-3.949-1.502.87-.645 2.329-1.498 3.949-1.498zm-1.326 7.826c.119-.786.4-1.869.978-2.843.698.055 1.381-.045 2.084-.22-.175.703-.275 1.386-.22 2.084-.974.579-2.057.86-2.843.978zm6.324 2.623c-.645-.87-1.498-2.329-1.498-3.949 0-.702.167-1.436.487-2.188.318.115.656.188 1.013.188s.695-.073 1.013-.188c.32.753.487 1.486.487 2.188 0 1.61-.857 3.075-1.502 3.949zm6.328-2.623c-.786-.119-1.869-.4-2.843-.978.055-.698-.045-1.381-.22-2.084.703.175 1.386.275 2.084.22.579.974.86 2.057.978 2.843zm-1.326-4.826c-.702 0-1.436-.167-2.188-.487.115-.318.188-.656.188-1.013s-.073-.695-.188-1.013c.753-.32 1.486-.487 2.188-.487 1.61 0 3.075.857 3.949 1.502-.87.645-2.329 1.498-3.949 1.498z"/></svg>