<?xml version="1.0" encoding="UTF-8"?>
<svg xmlns="http://www.w3.org/2000/svg" id="Layer_1" data-name="Layer 1" viewBox="0 0 24 24">
  <path d="M23.391,6.698c-.898-1.425-1.839-2.633-2.796-3.591-.865-.865-1.884-1.687-3.03-2.441-1.738-1.144-4.021-.791-5.316,.819L7.672,7.18c-.81,1.007-.86,2.384-.204,3.44L0,18.086v5.914s4,0,4,0c1.103,0,2-.897,2-2v-.999h2v-2h2.41s2.7-2.662,2.7-2.662c.54,.43,1.192,.661,1.854,.661,.646,0,1.294-.208,1.836-.631l5.662-4.418c1.62-1.263,2.019-3.521,.929-5.252Zm-13.801,10.303h-3.59s0,1.999,0,1.999H4v2.999s-2,0-2,0v-3.086s6.82-6.818,6.82-6.818l2.852,2.852-2.082,2.054Zm11.642-6.627l-5.661,4.417c-.393,.308-.956,.271-1.307-.08l-4.961-4.961c-.357-.357-.388-.924-.072-1.318L13.807,2.738c.651-.812,1.804-.968,2.658-.402,1.033,.681,1.946,1.416,2.716,2.186,.853,.853,1.7,1.944,2.519,3.243,.541,.858,.34,1.979-.467,2.609Zm-5.024-5.581l3,3-1.414,1.414-3-3,1.414-1.414Z"/>
</svg>
