<svg id="Layer_1" viewBox="0 0 24 24" xmlns="http://www.w3.org/2000/svg" data-name="Layer 1"><path d="m24 18.5c0 1.856-.802 3.63-2.2 4.866l-.698.617-2.559-2.513 1.4-1.427 1.162 1.141c.576-.771.895-1.711.895-2.684 0-2.481-2.019-4.5-4.5-4.5s-4.5 2.019-4.5 4.5c0 .97.317 1.908.891 2.678l1.146-1.143 1.412 1.417-2.546 2.535-.703-.621c-1.398-1.235-2.2-3.009-2.2-4.866 0-3.584 2.916-6.5 6.5-6.5s6.5 2.916 6.5 6.5zm-19.5-15.5c-.828 0-1.5.672-1.5 1.5s.672 1.5 1.5 1.5 1.5-.672 1.5-1.5-.672-1.5-1.5-1.5zm4 0c-.828 0-1.5.672-1.5 1.5s.672 1.5 1.5 1.5 1.5-.672 1.5-1.5-.672-1.5-1.5-1.5zm15.5 0v10.028c-.57-.677-1.247-1.258-2-1.73v-2.298h-20v11h7.14c.125.701.335 1.37.62 2h-9.76v-19c0-1.654 1.346-3 3-3h18c1.654 0 3 1.346 3 3zm-2 4v-4c0-.551-.448-1-1-1h-18c-.551 0-1 .449-1 1v4zm-2.919 8.504-1.503 1.503c-.852-.065-1.581.643-1.578 1.492 0 .828.672 1.5 1.5 1.5.849.004 1.557-.726 1.492-1.578l1.503-1.503z"/></svg>