<svg id="Layer_1" viewBox="0 0 24 24" xmlns="http://www.w3.org/2000/svg" data-name="Layer 1"><path d="m13 10.396c0 2.587-1.648 4.875-4.103 5.692l-2.581.86-.633-1.897 2.581-.86c1.636-.545 2.735-2.07 2.735-3.795v-10.396h2v10.396zm11 7.604c0 3.314-2.686 6-6 6s-6-2.686-6-6 2.686-6 6-6 6 2.686 6 6zm-6 2.5c0-.828-.672-1.5-1.5-1.5s-1.5.672-1.5 1.5.672 1.5 1.5 1.5 1.5-.672 1.5-1.5zm1-4.5c0-1.105-.895-2-2-2s-2 .895-2 2 .895 2 2 2 2-.895 2-2zm3.5 2.5c0-.828-.672-1.5-1.5-1.5s-1.5.672-1.5 1.5.672 1.5 1.5 1.5 1.5-.672 1.5-1.5zm-12.49-.708c-.283.135-.757.288-1.06.387-.229 1.46-1.251 2.693-2.686 3.172-.463.141-1.792.658-2.27.649-1.064.016-2.022-.927-1.995-2.002 0-1.251.143-2.502.424-3.72l1.835-7.952c.315-1.37 1.518-2.326 2.923-2.326h1.818v-2h-1.818c-2.342 0-4.345 1.594-4.872 3.876l-1.834 7.952c-.314 1.364-.475 2.767-.475 4.169-.05 2.152 1.858 4.038 3.996 4.002.835.044 2.115-.514 2.901-.751s0 0 0 0c1.527-.509 2.741-1.588 3.441-2.953-.231-.788-.371-1.647-.328-2.504zm9.731-9.466.459 1.988c.829.237 1.605.599 2.301 1.073l-.81-3.511c-.527-2.282-2.53-3.875-4.872-3.875h-1.818v2h1.818c1.405 0 2.607.956 2.923 2.325z"/></svg>