<?xml version="1.0" encoding="UTF-8"?>
<svg xmlns="http://www.w3.org/2000/svg" id="Layer_1" data-name="Layer 1" viewBox="0 0 24 24">
  <path d="M14,12H4v-2H14v2ZM2,22V3c0-.551,.449-1,1-1H15c.552,0,1,.449,1,1V19.473s2-1.973,2-1.973V3c0-1.654-1.346-3-3-3H3C1.346,0,0,1.346,0,3V24H12.627s-1.936-2-1.936-2H2Zm20.417-6.096l-6.074,6.074c-.024,.026-.083,.025-.097,.011l-3.093-3.198-1.438,1.391,3.104,3.21c.393,.392,.914,.608,1.469,.608s1.076-.216,1.468-.608l6.074-6.074-1.414-1.414ZM14,5H4v2H14v-2ZM4,17h7v-2H4v2Z"/>
</svg>
