<?xml version="1.0" encoding="UTF-8"?>
<svg xmlns="http://www.w3.org/2000/svg" id="Layer_1" data-name="Layer 1" viewBox="0 0 24 24">
  <path d="M16.97,14.001c0,.249,.395,.456,.997,.745,.802,.383,1.899,.909,1.899,2.176,0,1.349-1.173,2.078-2.276,2.078-1.137,0-2.475-1.116-2.589-1.218l1.035-1.164c.264,.232,1.14,.824,1.554,.824,.074,0,.719-.015,.719-.52,0-.246-.299-.429-1.014-.771-.794-.38-1.882-.9-1.882-2.15,0-1.141,.914-2.001,2.127-2.001,1.23,0,2.152,.985,2.326,1.132l-1.008,1.189s-.704-.763-1.318-.763c-.058,0-.57,.012-.57,.444Zm-4.785-.444c.533,0,1.03,.494,1.32,.737l1.006-1.19c-.174-.147-1.1-1.105-2.326-1.105-1.213,0-2.127,.86-2.127,2.001,0,1.249,1.088,1.77,1.882,2.15,.715,.342,1.014,.525,1.014,.771,0,.505-.645,.52-.719,.52-.414,0-1.263-.559-1.527-.791l-1.035,1.164c.115,.102,1.425,1.185,2.563,1.185,1.103,0,2.276-.728,2.276-2.078,0-1.267-1.098-1.793-1.899-2.176-.602-.288-.996-.495-.996-.745,0-.432,.511-.444,.57-.444Zm-5.685,.043c.496,0,.9,.404,.9,.9h1.6c0-1.381-1.119-2.5-2.5-2.5s-2.5,1.119-2.5,2.5v2c0,1.381,1.119,2.5,2.5,2.5s2.5-1.119,2.5-2.5h-1.6c0,.496-.404,.9-.9,.9s-.9-.404-.9-.9v-2c0-.496,.404-.9,.9-.9ZM24,4V23H0V4C0,2.346,1.346,1,3,1H21c1.654,0,3,1.346,3,3ZM2,4v4H22V4c0-.552-.449-1-1-1H3c-.551,0-1,.448-1,1ZM22,21V10H2v11H22ZM4.5,7c.828,0,1.5-.672,1.5-1.5s-.672-1.5-1.5-1.5-1.5,.672-1.5,1.5,.672,1.5,1.5,1.5Zm4,0c.828,0,1.5-.672,1.5-1.5s-.672-1.5-1.5-1.5-1.5,.672-1.5,1.5,.672,1.5,1.5,1.5Z"/>
</svg>
