<svg id="Layer_1" viewBox="0 0 24 24" xmlns="http://www.w3.org/2000/svg" data-name="Layer 1"><path d="m.5 6.5c0-1.381 1.119-2.5 2.5-2.5s2.5 1.119 2.5 2.5-1.119 2.5-2.5 2.5-2.5-1.119-2.5-2.5zm5.5 11.5h3v6h-2v-4h-4c-1.654 0-3-1.346-3-3v-4c0-1.654 1.346-3 3-3s3 1.346 3 3zm-2 0v-5c0-.551-.449-1-1-1s-1 .449-1 1v4c0 .552.449 1 1 1zm17-9c1.381 0 2.5-1.119 2.5-2.5s-1.119-2.5-2.5-2.5-2.5 1.119-2.5 2.5 1.119 2.5 2.5 2.5zm3 4v4c0 1.654-1.346 3-3 3h-4v4h-2v-6h3v-5c0-1.654 1.346-3 3-3s3 1.346 3 3zm-2 0c0-.551-.449-1-1-1s-1 .449-1 1v5h1c.551 0 1-.448 1-1zm-6 2v-2h-8v2zm-16 9h5v-2h-5zm19 0h5v-2h-5zm-2-14h-10v-6c0-1.103.897-2 2-2v-.5c0-.827.673-1.5 1.5-1.5h3c.827 0 1.5.673 1.5 1.5v.5c1.103 0 2 .897 2 2zm-2-6h-2v2h-2v-2h-2v4h6z"/></svg>