<?xml version="1.0" encoding="UTF-8"?>
<svg xmlns="http://www.w3.org/2000/svg" id="Layer_1" data-name="Layer 1" viewBox="0 0 24 24">
  <path d="M21.364,23.864l-1.414-1.414c2.729-2.729,2.729-7.171,0-9.9l1.414-1.414c3.509,3.51,3.509,9.219,0,12.729Zm-2.83-9.898l-1.414,1.414c.566,.566,.878,1.319,.878,2.12s-.312,1.554-.878,2.12l1.414,1.414c1.949-1.948,1.949-5.12,0-7.068ZM11.8,4.419C9.363,1.164,5.491-.443,1.453,.105h0s0,0,0,0c-.491,.068-.976,.169-1.453,.304V2.53c.562-.2,1.135-.361,1.725-.443,0,0,0,0,0,0,3.314-.459,6.479,.865,8.497,3.56,1.035,1.279,2.146,3.827,3.22,6.291l.466,1.062h-1.991l-.678,5.131c-.066,.496-.492,.869-.992,.869H6v3H0v2H8v-3h2.247c1.499,0,2.777-1.12,2.975-2.606l.448-3.394h2.33v-2.212l-.724-1.648c-1.18-2.705-2.294-5.261-3.476-6.721Z"/>
</svg>
