<svg id="Layer_1" viewBox="0 0 24 24" xmlns="http://www.w3.org/2000/svg" data-name="Layer 1"><path d="m23.875.997-.094-.778-.778-.094c-.431-.053-10.622-1.215-16.358 4.521-5.097 5.097-4.746 13.705-4.568 15.863l-2.056 2.055 1.414 1.414 2.055-2.055c.457.037 1.199.082 2.133.082 3.503 0 9.71-.631 13.731-4.651 5.737-5.736 4.574-15.926 4.521-16.357zm-2.699 9.003h-5.762l6.579-6.579c.008 1.681-.138 4.12-.816 6.579zm-10.762 5 3-3h7.076c-.44 1.06-1.003 2.081-1.725 3zm-1.414-9.765c.92-.723 1.94-1.285 3-1.725v7.076l-3 3zm11.578-3.227-6.578 6.578v-5.762c2.459-.678 4.897-.824 6.578-.817zm-13.578 5.313v8.265l-2.993 2.993c-.013-2.796.395-7.697 2.993-11.257zm-1.578 12.671 2.992-2.992h8.265c-3.561 2.598-8.461 3.005-11.257 2.992z"/></svg>