<?xml version="1.0" encoding="UTF-8"?>
<svg xmlns="http://www.w3.org/2000/svg" id="Layer_1" data-name="Layer 1" viewBox="0 0 24 24">
  <path d="M23,9.682c-.022,3.121-2.006,5.558-2,8.715v2.104c0,1.93-1.57,3.5-3.5,3.5-1.391,0-2.585-.822-3.149-2h3.149c.827,0,1.5-.673,1.5-1.5v-2.104c0-1.952,.601-3.633,1.13-5.116,.447-1.253,.87-2.436,.87-3.599,0-1.461-.563-1.682-2.5-1.682-1.19,.046-2.317-.858-3.338-1-.35,0-1.162,.107-1.162,1.104,0,.625,.526,1.241,1.136,1.955,.717,.841,1.582,1.86,1.806,3.253-.698-.763-1.68-1.251-2.783-1.296-.171-.22-.356-.438-.545-.659-.757-.887-1.614-1.892-1.614-3.254,0-2.037,1.591-3.104,3.162-3.104,1.144-.044,2.297,.913,3.338,1,1.347,0,4.5,0,4.5,3.682ZM13.479,2.388C13.33,.785,12.464-.102,11.509,.009s-1.638,1.181-1.489,2.784c.149,1.603,1.044,2.811,1.999,2.699s1.608-1.502,1.459-3.105Zm5.134,1.753c.611-.017,1.103-.86,1.099-1.883s-.502-1.634-1.112-1.617c-.611,.017-1.103,.655-1.099,1.678s.502,1.838,1.113,1.821Zm-3-.641c.611-.017,1.103-.86,1.099-1.883-.004-1.023-.502-1.634-1.112-1.617-.611,.017-1.103,.655-1.099,1.678,.004,1.023,.502,1.838,1.113,1.821Zm5.845,2c.526-.015,.949-.737,.946-1.614-.003-.877-.432-1.4-.958-1.386-.526,.015-.95,.562-.946,1.438s.432,1.576,.958,1.561Zm1.906-.5c-.349,.01-.63,.374-.628,.959s.287,1.05,.636,1.041,.63-.491,.628-1.076c-.002-.585-.287-.934-.636-.924Zm-12.364,6.5v3c0,1.381-1.119,2.5-2.5,2.5s-2.5-1.119-2.5-2.5v-3c0-1.381,1.119-2.5,2.5-2.5s2.5,1.119,2.5,2.5Zm-1.6,0c0-.496-.404-.9-.9-.9s-.9,.404-.9,.9v3c0,.496,.404,.9,.9,.9s.9-.404,.9-.9v-3Zm-6.9-.9c.496,0,.9,.404,.9,.9h1.6c0-1.381-1.119-2.5-2.5-2.5s-2.5,1.119-2.5,2.5v3c0,1.381,1.119,2.5,2.5,2.5s2.5-1.119,2.5-2.5h-1.6c0,.496-.404,.9-.9,.9s-.9-.404-.9-.9v-3c0-.496,.404-.9,.9-.9Zm13.5,8.067h-2c.575-.526,2-1.244,2-2.667,0-1.105-.895-2-2-2s-2,.895-2,2v.333h1.333v-.333c0-.368,.298-.667,.667-.667s.667,.298,.667,.667c0,1-2.667,1.84-2.667,3.346v.654h4v-1.333Z"/>
</svg>
