<svg id="Layer_1" viewBox="0 0 24 24" xmlns="http://www.w3.org/2000/svg" data-name="Layer 1"><path d="m12 16c-1.474 0-2.75-.81-3.444-2h6.887c-.694 1.19-1.97 2-3.444 2zm10.159-2h-2.417c-1.391 1.83-3.858 4-7.742 4s-6.351-2.17-7.741-4h-2.418c1.385 2.269 4.52 6 10.159 6s8.773-3.731 10.159-6zm-.004-4h1.846v2h-24.001v-2h1.846c1.353-2.201 4.503-6 10.154-6s8.802 3.798 10.154 6zm-17.903 0h4.292c.706-1.217 2.014-2 3.456-2s2.751.783 3.456 2h4.292c-1.406-1.867-3.858-4-7.748-4s-6.342 2.133-7.748 4zm-2.252-7c0-.551.449-1 1-1h4v-2h-4c-1.654 0-3 1.346-3 3v4h2zm19-3h-4v2h4c.551 0 1 .449 1 1v4h2v-4c0-1.654-1.346-3-3-3zm-19 21v-4h-2v4c0 1.654 1.346 3 3 3h4v-2h-4c-.551 0-1-.448-1-1zm20 0c0 .552-.449 1-1 1h-4v2h4c1.654 0 3-1.346 3-3v-4h-2z"/></svg>