<svg id="Layer_1" viewBox="0 0 24 24" xmlns="http://www.w3.org/2000/svg" data-name="Layer 1"><path d="m18.975 11c.01-.166.025-.331.025-.5 0-4.687-3.813-8.5-8.5-8.5s-8.5 3.813-8.5 8.5 3.813 8.5 8.5 8.5c.169 0 .334-.016.5-.025v2c-.167.008-.331.025-.5.025-5.79 0-10.5-4.71-10.5-10.5s4.71-10.5 10.5-10.5 10.5 4.71 10.5 10.5c0 .169-.017.333-.025.5zm.025 13h2v-2h-2zm3-3h2v-2h-2zm-3 0h2v-2h-2zm-6-8h5v5h-5zm2 3h1v-1h-1zm-2 3h5v5h-5zm2 3h1v-1h-1zm9-9v5h-5v-5zm-2 2h-1v1h1zm-11.499-2c-.828 0-1.5.672-1.5 1.5s.672 1.5 1.5 1.5 1.5-.672 1.5-1.5-.672-1.5-1.5-1.5zm-3.537-2.036 1.414 1.414c1.17-1.169 3.073-1.169 4.243 0l1.414-1.414c-1.949-1.949-5.122-1.949-7.071 0zm8.132-1.061 1.414-1.414c-1.605-1.605-3.74-2.49-6.01-2.49s-4.405.884-6.01 2.49l1.414 1.414c1.228-1.228 2.86-1.904 4.596-1.904s3.369.676 4.596 1.904z"/></svg>