<svg id="Layer_1" viewBox="0 0 24 24" xmlns="http://www.w3.org/2000/svg" data-name="Layer 1"><path d="m19 5.734v-1.734c0-2.206-1.794-4-4-4h-6c-2.206 0-4 1.794-4 4v1.734c-3.131 2.151-5 5.642-5 9.463v8.803h2v-8.803c0-2.664 1.105-5.13 3-6.907v8.71c0 2.757 2.243 5 5 5h4c2.757 0 5-2.243 5-5v-8.71c1.895 1.777 3 4.243 3 6.907v8.803h2v-8.803c0-3.821-1.869-7.312-5-9.463zm-2 11.266c0 1.654-1.346 3-3 3h-4c-1.654 0-3-1.346-3-3v-13c0-1.103.897-2 2-2h6c1.103 0 2 .897 2 2zm-3.5-3.5 2 1-2 1-1 2-1-2-2-1 2-1 1-2zm-2.833-6.167-1.667-.833 1.667-.833.833-1.667.833 1.667 1.667.833-1.667.833-.833 1.667z"/></svg>