<svg id="Layer_1" viewBox="0 0 24 24" xmlns="http://www.w3.org/2000/svg" data-name="Layer 1"><path d="m20 20c0-3 4-4.989 4-10 0-3.188-2.172-5.779-6-7 2.193 1.82 3.069 3.894 3 6-.161 4.912-4.211 7.449-8 8.97v-1.286c.489-.487 1.148-.972 2-1.185 0 0-.278-.348-.627-.991 2.131-.922 3.627-3.043 3.627-5.509s-1.496-4.587-3.627-5.509c.349-.643.627-.991.627-.991-2-.5-3-2.5-3-2.5s-1 2-3 2.5c0 0 .278.348.627.991-2.131.922-3.627 3.043-3.627 5.509s1.496 4.587 3.627 5.509c-.349.643-.627.991-.627.991.852.213 1.511.698 2 1.185v1.286c-3.789-1.521-7.839-4.059-8-8.97-.069-2.106.807-4.18 3-6-3.828 1.221-6 3.812-6 7 0 5.011 4 7 4 10l3.395-1.801c.687.378 1.399.698 2.109.989-1.452.472-2.393.712-2.951 1.154l.003.002c-.337.275-.556.688-.556 1.157 0 .828.672 1.5 1.5 1.5s1.5-.672 1.5-1.5c0-.158-.031-.307-.076-.45.584-.2 1.291-.411 2.076-.65v.989c-.305.275-.5.668-.5 1.111 0 .828.672 1.5 1.5 1.5s1.5-.672 1.5-1.5c0-.443-.195-.836-.5-1.111v-.989c.785.239 1.492.451 2.076.65-.045.143-.076.292-.076.45 0 .828.672 1.5 1.5 1.5s1.5-.672 1.5-1.5c0-.469-.219-.882-.556-1.157l.003-.002c-.557-.441-1.5-.682-2.951-1.154.71-.29 1.422-.61 2.108-.989l3.395 1.801zm-4-11c0 1.642-.996 3.053-2.413 3.668-.329-1.001-.587-2.237-.587-3.668s.258-2.667.587-3.668c1.418.616 2.413 2.027 2.413 3.668zm-8 0c0-1.642.996-3.053 2.413-3.668.329 1.001.587 2.237.587 3.668s-.258 2.667-.587 3.668c-1.418-.616-2.413-2.027-2.413-3.668z"/></svg>