<svg id="Layer_1" viewBox="0 0 24 24" xmlns="http://www.w3.org/2000/svg" data-name="Layer 1"><path d="m12 0c-6.617 0-12 5.383-12 12s5.383 12 12 12 12-5.383 12-12-5.383-12-12-12zm10 12c0 2.398-.85 4.6-2.262 6.324l-2.138-2.138c2.05-2.739 1.838-6.648-.651-9.136-2.489-2.489-6.396-2.701-9.136-.651l-2.138-2.138c1.725-1.412 3.927-2.262 6.324-2.262 5.514 0 10 4.486 10 10zm-10-3.332-1.111.807-1.646-1.646c.298-.197.615-.354.94-.48l1.817 1.32 1.817-1.32c.626.243 1.214.611 1.719 1.116.108.108.188.233.284.348l-.664 2.148 1.819 1.282c-.043.88-.299 1.752-.803 2.514l-1.697-1.697.682-2.099-3.156-2.293zm-10 3.332c0-2.398.85-4.6 2.262-6.324l14.063 14.063c-1.725 1.412-3.927 2.262-6.324 2.262-5.514 0-10-4.486-10-10zm12.345 6.587c-.734.262-1.521.413-2.345.413-3.86 0-7-3.14-7-7 0-.823.15-1.61.413-2.345l2.185 2.185-.579.408c.046.887.319 1.713.769 2.421l2.262.002.725 2.159c.394.1.8.17 1.225.17.236 0 .461-.038.688-.07z"/></svg>