<svg id="Layer_1" viewBox="0 0 24 24" xmlns="http://www.w3.org/2000/svg" data-name="Layer 1"><path d="m15.025 19.5-.025 4.506-2-.012.025-4.5c0-1.373-1.121-2.494-2.5-2.494l-6.029-.022c-1.345-.028-2.533 1.169-2.496 2.516v4.484h-2v-4.478c-.065-2.422 2.074-4.574 4.5-4.522l6.029.022c2.478 0 4.496 2.019 4.496 4.5zm4.475-8.5h-5.475v2h5.475c1.379 0 2.5 1.122 2.5 2.494l-.025 4.5 2 .012.025-4.506c0-2.481-2.019-4.5-4.5-4.5zm-6.5-6.5c0-2.481 2.019-4.5 4.5-4.5s4.5 2.019 4.5 4.5-2.019 4.5-4.5 4.5-4.5-2.019-4.5-4.5zm2 0c0 1.378 1.121 2.5 2.5 2.5s2.5-1.122 2.5-2.5-1.121-2.5-2.5-2.5-2.5 1.122-2.5 2.5zm-12 4v-6.5l2.25 2.51 2.25-2.51 2.25 2.51 2.25-2.51v6.5c0 2.481-2.019 4.5-4.5 4.5s-4.5-2.019-4.5-4.5zm2-.5v.5c0 1.378 1.121 2.5 2.5 2.5s2.5-1.122 2.5-2.5v-.5z"/></svg>