<?xml version="1.0" encoding="UTF-8"?>
<svg xmlns="http://www.w3.org/2000/svg" id="Layer_1" data-name="Layer 1" viewBox="0 0 24 24">
  <path d="M21,2H12.236L8.236,0H3C1.346,0,0,1.346,0,3V22H11.079c-.359-.619-.634-1.29-.817-2H2V8H22v3.079c.754,.437,1.428,.992,2,1.642V5c0-1.654-1.346-3-3-3ZM2,6V3c0-.551,.448-1,1-1H7.764l4,2h9.236c.552,0,1,.449,1,1v1H2ZM22.7,14.139l-1.411,.813c-.605-.652-1.393-1.126-2.29-1.331v-1.621h-2v1.621c-.896,.205-1.685,.679-2.29,1.331l-1.411-.813-.998,1.732,1.416,.816c-.129,.418-.218,.853-.218,1.313s.089,.895,.218,1.313l-1.416,.816,.998,1.732,1.411-.813c.605,.652,1.393,1.126,2.29,1.331v1.621h2v-1.621c.896-.205,1.685-.679,2.29-1.331l1.411,.813,.998-1.732-1.416-.816c.129-.418,.218-.853,.218-1.313s-.089-.895-.218-1.313l1.416-.816-.998-1.732Zm-4.7,6.361c-1.379,0-2.5-1.121-2.5-2.5s1.121-2.5,2.5-2.5,2.5,1.121,2.5,2.5-1.121,2.5-2.5,2.5Z"/>
</svg>
