<svg id="Layer_1" viewBox="0 0 24 24" xmlns="http://www.w3.org/2000/svg" data-name="Layer 1"><path d="m19.013 12h2v-1c1.654 0 2.987-1.328 2.987-3 0-.963-.394-1.725-1.034-2.275.345-.488.547-1.083.547-1.725 0-1.483-1.084-2.71-2.5-2.949v-1.051h-2v1h-2v10h2zm0-9h1.5c.552 0 1 .448 1 1s-.448 1-1 1h-1.5zm0 4h2c.552 0 1 .448 1 1s-.448 1-1 1h-2zm-13.513 7c.828 0 1.5.672 1.5 1.5s-.672 1.5-1.5 1.5-1.5-.672-1.5-1.5.672-1.5 1.5-1.5zm16.5 0h2v7h-24v-15c0-1.654 1.346-3 3-3h12v2h-12c-.551 0-1 .448-1 1v2h13v2h-13v9h20z"/></svg>