<svg id="Layer_1" viewBox="0 0 24 24" xmlns="http://www.w3.org/2000/svg" data-name="Layer 1"><path d="m3 1c-1.103 0-2 .897-2 2v7h8v-6.414l-2.586-2.586zm4 7h-4v-5h2.586l1.414 1.414zm12.5 5c-2.65 0-4.5.617-4.5 1.5v7.333c0 1.377 1.641 2.167 4.5 2.167s4.5-.79 4.5-2.167v-7.333c0-.883-1.85-1.5-4.5-1.5zm2.5 2.773v1.738c-.266.18-1.026.488-2.5.488-1.498 0-2.247-.291-2.5-.457v-1.77c.698.144 1.544.227 2.5.227s1.802-.083 2.5-.227zm-2.5 6.227c-1.386 0-2.204-.233-2.5-.393v-1.928c.65.194 1.459.321 2.5.321 1.02 0 1.838-.129 2.5-.331v1.938c-.296.159-1.114.393-2.5.393zm-15-9c-2.65 0-4.5.617-4.5 1.5v7.333c0 1.377 1.641 2.167 4.5 2.167s4.5-.79 4.5-2.167v-7.333c0-.883-1.85-1.5-4.5-1.5zm2.5 2.773v1.738c-.266.18-1.026.488-2.5.488-1.498 0-2.247-.291-2.5-.457v-1.77c.698.144 1.544.227 2.5.227s1.802-.083 2.5-.227zm-2.5 6.227c-1.386 0-2.204-.233-2.5-.393v-1.928c.65.194 1.459.321 2.5.321 1.02 0 1.838-.129 2.5-.331v1.938c-.296.159-1.114.393-2.5.393zm7.5-20c-.549 0-1.085.054-1.606.152l-1.638-1.638c1.024-.329 2.112-.514 3.243-.514 3.747 0 7.136 2.004 9 5.102v-3.102h2v5c0 1.103-.897 2-2 2h-5v-2h3.746c-1.356-2.999-4.375-5-7.746-5z"/></svg>