<?xml version="1.0" encoding="UTF-8"?>
<svg xmlns="http://www.w3.org/2000/svg" id="Layer_1" data-name="Layer 1" viewBox="0 0 24 24">
  <path d="M5.14,5.01l-1.712-2.887,1.721-1.021,1.712,2.887-1.721,1.021Zm17.433,6.987c-.207,.676-3.611,7.168-10.572,7.503-7.257-.317-10.347-6.844-10.572-7.494,.205-.678,3.594-7.17,10.572-7.506,6.535,.148,9.997,5.992,10.572,7.497Zm-2.222-.016c-.785-1.301-3.671-5.481-8.35-5.481-4.502,0-7.492,4.157-8.351,5.52,.783,1.309,3.655,5.48,8.351,5.48,4.499,0,7.489-4.153,8.35-5.519Zm-4.35,.019c0,2.206-1.794,4-4,4s-4-1.794-4-4,1.794-4,4-4,4,1.794,4,4Zm-2,0c0-1.103-.897-2-2-2s-2,.897-2,2,.897,2,2,2,2-.897,2-2ZM13,0h-2V3h2V0Zm7.572,2.124l-1.721-1.021-1.712,2.887,1.721,1.021,1.712-2.887Zm-3.433,17.887l1.712,2.887,1.721-1.021-1.712-2.887-1.721,1.021Zm-6.14,3.99h2v-3h-2v3Zm-7.572-2.124l1.721,1.021,1.712-2.887-1.721-1.021-1.712,2.887Z"/>
</svg>
