<svg id="Layer_1" viewBox="0 0 24 24" xmlns="http://www.w3.org/2000/svg" data-name="Layer 1"><path d="m21 15.791c1.31-.282 2.393-.916 3-2.275-1.172.305-2.384.484-3.609.484h-1.391v-5.209c1.31-.282 2.393-.916 3-2.275-1.172.305-2.384.484-3.609.484h-2.391v-3c.878.026 1.724-.453 2.47-1-1.196-.304-2.357-.753-3.448-1.349-.045-.024-2.976-1.634-3.017-1.656-.054.029-2.927 1.627-2.98 1.656-1.091.596-2.252 1.045-3.448 1.349.732.537 1.562 1.018 2.423 1v3h-2.391c-1.225 0-2.437-.179-3.609-.484.607 1.359 1.69 1.993 3 2.275v5.209h-1.391c-1.225 0-2.437-.179-3.609-.484.607 1.359 1.69 1.993 3 2.275v6.209h-3v2h24v-2h-3zm-11-12.303c.696-.301 1.382-.686 2.024-1.027.627.333 1.296.712 1.976 1.01v3.528h-4zm-3 5.503c.121.002.24.008.363.008h9.273c.123 0 .242-.006.363-.008v5.008h-2v-3h-2v3h-2v-3h-2v3h-2v-5.008zm-2 7c.121.002.24.008.363.008h13.273c.123 0 .242-.006.363-.008v6.008h-2v-4h-2v4h-2v-4h-2v4h-2v-4h-2v4h-2v-6.008z"/></svg>