<svg id="Layer_1" viewBox="0 0 24 24" xmlns="http://www.w3.org/2000/svg" data-name="Layer 1"><path d="m2 22h8v2h-10v-21c0-1.654 1.346-3 3-3h14c1.654 0 3 1.346 3 3v7.478c-.609-.305-1.287-.478-2-.478v-7c0-.552-.449-1-1-1h-14c-.551 0-1 .448-1 1zm19.112-6c.087.313.177.653.264 1h2.623v2h-2.193c.062.378.099.718.106 1 1.133-.046 2.09.864 2.087 2v2h-2v-2h-.606c-.673 1.188-1.934 2-3.394 2s-2.72-.812-3.394-2h-.606v2h-2v-2c-.003-1.136.955-2.046 2.087-2 .007-.279.045-.62.108-1h-2.195v-2h2.626c.087-.347.177-.686.264-1h-.89c-1.103 0-2-.897-2-2v-2h2v2h1.511c.1-.255.206-.496.323-.7.476-.817 1.284-1.3 2.167-1.3.99 0 1.84.551 2.274 1.475.054.113.132.3.218.525h1.508v-2h2v2c0 1.103-.897 2-2 2zm-1.196 4.083c0-1.019-.84-4.058-1.184-5.076-.108-.322-.198-.538-.263-.671-.047-.099-.158-.336-.47-.336-.165 0-.323.108-.434.299-.1.175-.203.419-.295.696-.419 1.263-1.187 4.152-1.187 5.088 0 1.057.859 1.917 1.916 1.917s1.916-.86 1.916-1.917zm-13.641-5.456-1.447-1.44-1.387 1.441 1.987 2.011c.455.478 1.216.481 1.674.007l2.896-3.004-1.398-1.43-2.326 2.414zm1.84-10.584-1.543 1.543-1.543-1.543-1.414 1.414 1.543 1.543-1.543 1.543 1.414 1.414 1.543-1.543 1.543 1.543 1.414-1.414-1.543-1.543 1.543-1.543zm7.885 1.957h-5v2h5z"/></svg>