<?xml version="1.0" encoding="UTF-8"?>
<svg xmlns="http://www.w3.org/2000/svg" id="Layer_1" data-name="Layer 1" viewBox="0 0 24 24">
  <path d="M15.595,7h-.595V2h-2V7h-2V2h-2V7h-.595c-2.635,0-4.405,1.607-4.405,4v2h2v6h12v-6h2v-2c0-2.393-1.77-4-4.405-4Zm-7.19,2h.117c-.327,.574-.522,1.242-.522,2h-2c0-1.805,1.682-2,2.405-2Zm-.405,8v-4h2v4h-2Zm8-6v6h-4v-6h-2c0-1.541,1.223-1.906,2.031-1.98,.455,.593,1.163,.98,1.969,.98s1.513-.388,1.969-.98c.809,.074,2.031,.439,2.031,1.98h-2Zm6.004,13l-.003-20h-5.001V2h5V0s2,0,2,0l.004,24h-2ZM1.997,4l.003,20H0L-.004,0H1.996V2H7v2H1.997Z"/>
</svg>
