<svg id="Layer_1" viewBox="0 0 24 24" xmlns="http://www.w3.org/2000/svg" data-name="Layer 1"><path d="m23.273 18.766c-1.139-1.139-3.717-2.414-5.296-2.686.188-.182.371-.35.562-.54 4.248-4.249 5.225-9.991 5.446-12.263.088-.891-.226-1.765-.86-2.4-.635-.635-1.499-.95-2.401-.862-2.271.222-8.014 1.197-12.263 5.446-.187.187-.352.368-.532.553-.294-1.82-1.814-4.409-2.694-5.289-1.075-1.073-2.618-.934-4.029.478-.661.659-1.067 1.367-1.177 2.045-.119.735.115 1.403.697 1.987.967.967 3.996 2.693 5.815 2.721l9.481 9.481c.012 1.801 1.768 4.864 2.741 5.838.234.235.822.718 1.666.718.65 0 1.453-.287 2.363-1.196.661-.66 1.067-1.367 1.177-2.045.119-.735-.115-1.403-.697-1.986zm-2.354-16.761c.292-.026.581.075.791.285s.313.498.285.792c-.201 2.057-1.079 7.251-4.87 11.043-.274.274-.54.52-.809.777l-1.321-1.321c.269-.25.548-.494.805-.751 1.446-1.385 1.641-3.478.259-4.868-1.397-1.382-3.49-1.24-4.89.238-.259.259-.498.537-.749.806l-1.323-1.323c.257-.269.504-.535.778-.808 3.792-3.792 8.986-4.669 11.044-4.87zm-7.338 10.162-1.747-1.747c.249-.27.489-.547.749-.806.664-.681 1.412-.846 2.059-.241.605.638.395 1.394-.256 2.043-.256.256-.535.5-.805.75zm-11.577-8.601c.031-.193.209-.543.615-.949.451-.451.794-.611.964-.611 1.05.653 1.858 2.722 2.265 3.83-1.098-.396-3.219-1.204-3.844-2.27zm19.992 16.868c-.031.193-.209.543-.614.948-.844.842-1.105.578-1.204.479-.831-.831-1.684-2.616-2.024-3.695 1.148.412 3.242 1.235 3.843 2.268zm-12.811-7.006c-.893 1.162-1.622 2.28-2.042 2.955l.476.476c.67-.415 1.782-1.139 2.955-2.042l1.427 1.427c-2.775 2.105-3.579 2.456-4.706 3.119l-2.66-2.66c.664-1.116 1.05-1.964 3.124-4.702l1.426 1.426zm4.118 4.118 1.425 1.426c-2.565 2.065-5.309 3.66-8.446 5.031l-6.306-6.286c1.386-3.139 2.992-5.889 5.052-8.447l1.426 1.426c-1.619 2.051-2.914 4.145-4.077 6.59l4.336 4.321c2.442-1.152 4.534-2.44 6.591-4.062z"/></svg>