<svg id="Layer_1" viewBox="0 0 24 24" xmlns="http://www.w3.org/2000/svg" data-name="Layer 1"><path d="m2 8h1.35c.826 2.327 3.043 4 5.65 4s4.824-1.673 5.65-4h1.35c.552 0 1-.448 1-1v-2c0-.552-.448-1-1-1h-1.35c-.826-2.327-3.043-4-5.65-4s-4.824 1.673-5.65 4h-1.35c-.552 0-1 .448-1 1v2c0 .552.448 1 1 1zm7 2c-1.877 0-3.445-1.304-3.874-3.051.22.022.438.051.66.051 2.619 0 4.939-1.515 6.061-3.803.711.722 1.153 1.711 1.153 2.803 0 2.206-1.794 4-4 4zm0-8c.395 0 .769.075 1.13.182-.764 1.692-2.447 2.818-4.344 2.818-.211 0-.42-.021-.628-.049.464-1.695 2.002-2.951 3.843-2.951zm13.569 13.866c-.399-1.081-1.424-1.812-2.569-1.857v-1.009h-2v1h-3v-1h-2v1.009c-1.145.046-2.169.777-2.569 1.857-1.05 2.83-1.431 5.13-1.431 5.985 0 1.186.964 2.149 2.15 2.149 1.385 0 3.07-1.645 4.005-3h2.689c.936 1.355 2.621 3 4.006 3 1.186 0 2.149-.964 2.149-2.149 0-.855-.381-3.154-1.431-5.984zm-.714 6.134c-.45-.033-1.851-1.218-2.599-2.503l-.289-.497h-4.936l-.289.497c-.748 1.285-2.148 2.469-2.593 2.503-.081 0-.15-.068-.15-.149 0-.374.222-2.366 1.306-5.29.125-.335.448-.561.806-.561h6.777c.357 0 .682.225.806.56 1.084 2.925 1.306 4.917 1.306 5.291 0 .081-.068.149-.145.149zm-12.659-8c-.261.356-.483.744-.641 1.17-.104.281-.198.556-.292.83h-3.264c-1.654 0-3 1.346-3 3v5h-1.999v-5c0-2.757 2.243-5 5-5z"/></svg>