<?xml version="1.0" encoding="UTF-8"?>
<svg xmlns="http://www.w3.org/2000/svg" id="Layer_1" data-name="Layer 1" viewBox="0 0 24 24">
  <path d="M14,7H4v-2H14v2Zm-6,10v-2H4v2h4Zm16,0c0,3.86-3.14,7-7,7s-7-3.14-7-7,3.14-7,7-7,7,3.14,7,7Zm-2,0c0-2.757-2.243-5-5-5s-5,2.243-5,5,2.243,5,5,5,5-2.243,5-5Zm-6-1h2v-2h-2v2Zm0,4h2v-3h-2v3Zm-6.483,2H2S2,3,2,3c0-.551,.449-1,1-1H15c.551,0,1,.449,1,1v5.059c.328-.036,.661-.059,1-.059s.671,.022,1,.059V3c0-1.654-1.346-3-3-3H3C1.346,0,0,1.346,0,3V24H11.349c-.706-.571-1.325-1.244-1.831-2Zm1.831-12H4v2h5.518c.506-.756,1.125-1.429,1.831-2Z"/>
</svg>
