<svg id="Layer_1" viewBox="0 0 24 24" xmlns="http://www.w3.org/2000/svg" data-name="Layer 1"><path d="m22.976 13.024c-.879-.879-2.429-1.219-4.249-.922-1.728.278-3.351 1.069-4.453 2.172-2.371 2.372-3.025 6.926-1.25 8.701.671.671 1.731 1.026 3.006 1.026.396 0 .812-.034 1.243-.104 1.728-.278 3.351-1.069 4.453-2.172 2.371-2.372 3.025-6.926 1.25-8.701zm-2.664 7.287c-.8.8-2.055 1.402-3.357 1.612-1.281.206-2.186-.033-2.516-.362-.828-.828-.516-4.106 1.25-5.873.8-.8 2.055-1.402 3.357-1.612.787-.167 2.167-.058 2.516.362.828.828.516 4.106-1.25 5.873zm-1.519-4.519 1.414 1.414-3 3-1.414-1.414zm-8.307 1.207c.21-.696.492-1.369.828-2h-8.763c-.17-.608-.258-1.186-.333-1.779-.09-1.024.053-1.813.445-2.365.923-1.301 3.416-1.855 8.337-1.855 3.857 0 6.218.343 7.505 1.117 1.253-.192 2.429-.137 3.458.144-.384-5.721-5.147-10.261-10.963-10.261-6.065 0-11 4.935-11 11 0 .538.096 1.449.24 2.517.434 3.219 1.336 7.987 1.44 8.531.809.43 1.748 1.218 6.213 1.793 1.065.112 2.231.174 3.38.155-.465-.582-.792-1.265-.992-2.013-.356-.009-.709-.023-1.056-.042l-.716-4.94h1.976zm.514-15c4.088 0 7.543 2.743 8.635 6.483-1.351-.853-3.27-1.241-5.635-1.395v-1.089h-6v1.088c-2.369.15-4.284.543-5.635 1.396 1.092-3.739 4.547-6.482 8.635-6.482zm-3.826 19.732c-1.914-.287-3.136-.737-3.705-.987-.178-.956-.424-2.323-.664-3.745h3.683z"/></svg>