<svg id="Layer_1" viewBox="0 0 24 24" xmlns="http://www.w3.org/2000/svg" data-name="Layer 1"><path d="m2 7h-2v-4c0-1.654 1.346-3 3-3h4v2h-4c-.552 0-1 .448-1 1zm19-7h-4v2h4c.552 0 1 .448 1 1v4h2v-4c0-1.654-1.346-3-3-3zm1 21c0 .552-.448 1-1 1h-4v2h4c1.654 0 3-1.346 3-3v-4h-2zm-20 0v-4h-2v4c0 1.654 1.346 3 3 3h4v-2h-4c-.552 0-1-.448-1-1zm14-6c0 2.206-1.794 4-4 4s-4-1.794-4-4h-2c0 3.309 2.691 6 6 6s6-2.691 6-6zm2-4h6v2h-24v-2h6v-1c0-1.302.839-2.402 2-2.816v-4.184h8v4.184c1.161.414 2 1.514 2 2.816zm-8-4h4v-2h-4zm-2 4h8v-1c0-.552-.448-1-1-1h-6c-.552 0-1 .448-1 1z"/></svg>