<svg id="Layer_1" viewBox="0 0 24 24" xmlns="http://www.w3.org/2000/svg" data-name="Layer 1"><path d="m9 22c0 1.105-.895 2-2 2s-2-.895-2-2 .895-2 2-2 2 .895 2 2zm8-2c-1.105 0-2 .895-2 2s.895 2 2 2 2-.895 2-2-.895-2-2-2zm-1-16c0-2.206 1.794-4 4-4s4 1.794 4 4-1.794 4-4 4-4-1.794-4-4zm2 0c0 1.103.897 2 2 2s2-.897 2-2-.897-2-2-2-2 .897-2 2zm2.165 9h-14.746l-.941-8h9.522v-2h-9.758l-.041-.351c-.178-1.51-1.459-2.649-2.979-2.649h-1.222v2h1.222c.507 0 .934.38.993.883l1.584 13.468c.178 1.51 1.459 2.649 2.979 2.649h13.222v-2h-13.222c-.507 0-.934-.38-.993-.883l-.131-1.117h16.181l1.042-5.735c-.654.358-1.384.595-2.158.687l-.554 3.047z"/></svg>