<svg id="Layer_1" viewBox="0 0 24 24" xmlns="http://www.w3.org/2000/svg" data-name="Layer 1"><path d="m18.333 13.333-.833 1.667-.833-1.667-1.667-.833 1.667-.833.833-1.667.833 1.667 1.667.833zm-8.44-.333c1.415 0 2.641.136 3.419.25l.291-1.979c-1.229-.181-2.478-.272-3.71-.272-1.212 0-2.087.161-2.973.982-.573.534-.942 1.401-.919 2.16.026.842.367 1.627.934 2.154l1.361-1.465c-.207-.192-.289-.515-.296-.752-.005-.15.101-.463.282-.632.361-.335.645-.447 1.61-.447zm6.107 7c0 2.206-1.794 4-4 4s-4-1.794-4-4c0-.472.097-.918.247-1.339l-1.017-1.018 2.414-2.414 1.017 1.017c.421-.151.867-.247 1.339-.247 2.206 0 4 1.794 4 4zm-2 0c0-1.103-.897-2-2-2s-2 .897-2 2 .897 2 2 2 2-.897 2-2zm-9.5-17c-.828 0-1.5.672-1.5 1.5s.672 1.5 1.5 1.5 1.5-.672 1.5-1.5-.672-1.5-1.5-1.5zm4 0c-.828 0-1.5.672-1.5 1.5s.672 1.5 1.5 1.5 1.5-.672 1.5-1.5-.672-1.5-1.5-1.5zm15.5 0v19h-6.349c.222-.626.349-1.298.349-2h4v-11h-20v11h4c0 .702.127 1.374.349 2h-6.349v-19c0-1.654 1.346-3 3-3h18c1.654 0 3 1.346 3 3zm-2 4v-4c0-.551-.448-1-1-1h-18c-.552 0-1 .449-1 1v4z"/></svg>