<svg id="Layer_1" viewBox="0 0 24 24" xmlns="http://www.w3.org/2000/svg" data-name="Layer 1"><path d="m15 10.587v-1.587h-1.5v-.5c0-1.93-1.57-3.5-3.5-3.5s-3.5 1.57-3.5 3.5v.5h-1.5v6c0 1.103.897 2 2 2h3.069c.087-.699.262-1.369.518-2h-3.587v-4h6v.76c.602-.483 1.274-.879 2-1.173zm-6.5-2.087c0-.827.673-1.5 1.5-1.5s1.5.673 1.5 1.5v.5h-3zm14 9.5c0-.46-.089-.895-.218-1.313l1.416-.816-.998-1.732-1.411.813c-.605-.652-1.393-1.126-2.29-1.331v-1.621h-2v1.621c-.896.205-1.685.679-2.29 1.331l-1.411-.813-.999 1.732 1.417.816c-.129.418-.218.853-.218 1.313s.09.895.218 1.313l-1.417.816.999 1.732 1.411-.813c.605.652 1.393 1.126 2.29 1.331v1.621h2v-1.621c.896-.205 1.685-.679 2.29-1.331l1.411.813.998-1.732-1.416-.816c.129-.418.218-.853.218-1.313zm-4.5 2.5c-1.379 0-2.5-1.121-2.5-2.5s1.121-2.5 2.5-2.5 2.5 1.121 2.5 2.5-1.121 2.5-2.5 2.5zm-9-6.5v-2h2v2zm1.821 7.514c.299.61.669 1.176 1.107 1.686-.738.362-1.297.527-1.97.8-2.81-1.456-9.694-4.842-9.958-12.009v-6.515c0-1.292.826-2.435 2.054-2.842l7.946-2.634 7.945 2.635c1.229.407 2.055 1.549 2.055 2.842v4.786c-.64-.165-1.308-.262-2-.262v-4.523c0-.429-.274-.808-.684-.943l-7.316-2.426-7.316 2.426c-.409.136-.684.515-.684.943v6.515c0 5.416 6.158 8.917 8.046 9.861.208-.084.475-.199.774-.339z"/></svg>