<?xml version="1.0" encoding="UTF-8"?>
<svg xmlns="http://www.w3.org/2000/svg" id="Layer_1" data-name="Layer 1" viewBox="0 0 24 24">
  <path d="M7,19c0,1.105-.895,2-2,2s-2-.895-2-2,.895-2,2-2,2,.895,2,2Zm12-2c-1.105,0-2,.895-2,2s.895,2,2,2,2-.895,2-2-.895-2-2-2Zm-10.465-5.464l-3.535,3.458-3.527-3.45c-1.957-1.958-1.957-5.129-.008-7.079,1.86-1.94,5.208-1.939,7.07,0h0c1.949,1.95,1.949,5.122,0,7.072Zm-1.414-5.657c-1.118-1.163-3.126-1.164-4.242,0-1.17,1.17-1.17,3.073,0,4.243l2.121,2.074,2.129-2.082c1.162-1.162,1.162-3.065-.008-4.235Zm-2.121,.622c-.828,0-1.5,.672-1.5,1.5s.672,1.5,1.5,1.5,1.5-.672,1.5-1.5-.672-1.5-1.5-1.5Zm17.535,5.036l-3.535,3.458-3.527-3.45c-1.957-1.958-1.957-5.129-.008-7.079,1.86-1.94,5.208-1.939,7.07,0h0c1.949,1.95,1.949,5.122,0,7.072Zm-1.414-5.657c-1.118-1.163-3.126-1.164-4.242,0-1.17,1.17-1.17,3.073,0,4.243l2.121,2.074,2.129-2.082c1.162-1.162,1.162-3.065-.008-4.235Zm-2.121,.622c-.828,0-1.5,.672-1.5,1.5s.672,1.5,1.5,1.5,1.5-.672,1.5-1.5-.672-1.5-1.5-1.5Zm-10.141,11.5c.083,.321,.141,.653,.141,1s-.058,.679-.141,1h6.283c-.083-.321-.141-.653-.141-1s.058-.679,.141-1h-6.283Z"/>
</svg>
