<svg id="Layer_1" viewBox="0 0 24 24" xmlns="http://www.w3.org/2000/svg" data-name="Layer 1"><path d="m23.123 7.894c-1.133-1.133-3.109-1.133-4.243 0l-1.34 1.34-5.54-9.234-5.539 9.232-1.339-1.339c-1.134-1.133-3.11-1.133-4.243 0-1.17 1.17-1.17 3.072 0 4.242l2.855 2.855c-.301.143-.588.327-.837.576-1.164 1.116-1.165 3.126 0 4.243l3.022 3.023c.747.746 1.779 1.174 2.837 1.174l4.162-.003-2.006-2.006-2.161.009c-.528 0-1.045-.215-1.419-.588l-3.022-3.023c-.388-.373-.388-1.041 0-1.414.39-.392 1.025-.391 1.415 0s2.646 2.646 2.646 2.646l1.414-1.414-7.492-7.491c-.39-.39-.39-1.024 0-1.414.377-.379 1.036-.379 1.414 0l14.693 14.692h2.828l-2.156-2.156 2.033-2.033c1.165-1.117 1.164-3.127 0-4.243-.249-.249-.536-.433-.837-.576l2.855-2.855c1.17-1.17 1.17-3.072 0-4.242zm-12.123-4.894h2v3h-2zm0 4h2v2h-2zm5.773 3-4.773 4.772-4.773-4.772h9.545zm1.503 6.982c.39-.391 1.025-.392 1.415 0 .388.373.388 1.041 0 1.414l-2.033 2.033-1.414-1.414 2.033-2.033zm3.432-6.261-6.879 6.879-1.414-1.414 6.879-6.879c.378-.379 1.037-.379 1.414 0 .39.39.39 1.024 0 1.414z"/></svg>