<?xml version="1.0" encoding="UTF-8"?>
<svg xmlns="http://www.w3.org/2000/svg" id="Layer_1" data-name="Layer 1" viewBox="0 0 24 24">
  <path d="M12,10c-3.86,0-7,3.141-7,7s3.14,7,7,7,7-3.141,7-7-3.14-7-7-7Zm0,12c-2.757,0-5-2.243-5-5s2.243-5,5-5,5,2.243,5,5-2.243,5-5,5Zm2.957-6.543l-1.543,1.543,1.543,1.543-1.414,1.414-1.543-1.543-1.543,1.543-1.414-1.414,1.543-1.543-1.543-1.543,1.414-1.414,1.543,1.543,1.543-1.543,1.414,1.414ZM24,3v13h-3.025c-.038-.69-.149-1.36-.334-2h1.359V3c0-.551-.449-1-1-1h-7c-.551,0-1,.449-1,1v5h-2V3c0-.551-.449-1-1-1H3c-.551,0-1,.449-1,1V14h1.359c-.185,.64-.296,1.31-.334,2H0V3C0,1.346,1.346,0,3,0h7c.771,0,1.468,.301,2,.78,.532-.48,1.229-.78,2-.78h7c1.654,0,3,1.346,3,3Zm-15,3H4v-2h5v2Zm6-2h5v2h-5v-2ZM4,8h5v2H4v-2Zm11,0h5v2h-5v-2Z"/>
</svg>
