<?xml version="1.0" encoding="UTF-8"?>
<svg xmlns="http://www.w3.org/2000/svg" id="Layer_1" data-name="Layer 1" viewBox="0 0 24 24">
  <path d="M21,2H12.236L8.236,0H3C1.346,0,0,1.346,0,3V22H11.082c-.36-.619-.635-1.29-.819-2H2V8H22v2.87c.655,.585,1.363,1.258,2,2.037V5c0-1.654-1.346-3-3-3ZM2,3c0-.552,.449-1,1-1H7.764l4,2h9.236c.551,0,1,.448,1,1v1H2V3ZM20.045,11.814c-.411-.357-.796-.692-1.113-1.009l-.855-.855-.679,1.001c-.688,1.015-.94,2.06-1.144,2.898-.077,.317-.196,.81-.307,1.031-.114-.265-.236-.679-.298-1.038l-.334-1.94-1.369,1.412c-.967,.997-1.945,2.927-1.945,4.686,0,3.309,2.691,6,6,6s6-2.691,6-6c0-2.742-2.286-4.732-3.955-6.186Zm-.171,9.698c.257-.708,.107-1.53-.46-2.097l-1.414-1.415-1.415,1.415c-.567,.567-.717,1.389-.46,2.097-1.258-.675-2.125-1.987-2.125-3.512,0-.558,.167-1.186,.416-1.763,.311,.445,.737,.763,1.319,.763,1.816,0,2.19-1.549,2.464-2.681,.094-.39,.19-.785,.327-1.177,.068,.06,.137,.119,.206,.18,1.532,1.334,3.268,2.846,3.268,4.678,0,1.525-.868,2.838-2.126,3.512Z"/>
</svg>
