<svg id="Layer_1" viewBox="0 0 24 24" xmlns="http://www.w3.org/2000/svg" data-name="Layer 1"><path d="m8 2.5c0-1.381 1.119-2.5 2.5-2.5s2.5 1.119 2.5 2.5-1.119 2.5-2.5 2.5-2.5-1.119-2.5-2.5zm6 6.5c0-2.206 1.794-4 4-4s4 1.794 4 4-1.794 4-4 4-4-1.794-4-4zm2 0c0 1.103.897 2 2 2s2-.897 2-2-.897-2-2-2-2 .897-2 2zm6.503 12.316c-.38.435-.928.684-1.503.684-1.103 0-2-.897-2-2h-2c0 1.103-.897 2-2 2s-2-.897-2-2h-2c0 1.103-.897 2-2 2s-2-.897-2-2h-2c0 1.103-.897 2-2 2-.575 0-1.123-.25-1.503-.684l-1.497 1.316c.76.869 1.848 1.368 3 1.368 1.193 0 2.267-.525 3-1.357.733.832 1.807 1.357 3 1.357s2.267-.525 3-1.357c.733.832 1.807 1.357 3 1.357s2.267-.525 3-1.357c.733.832 1.807 1.357 3 1.357 1.153 0 2.241-.499 3-1.368l-1.497-1.315zm-16.258-3.316 3.598-5.097 7.43 5.097h3.535l-13.385-9.184c-.265-.187-.423-.492-.423-.816v-8h-2v8c0 .976.477 1.893 1.274 2.454v-.002s.006.006.009.008l1.91 1.311-4.39 6.229h2.441z"/></svg>