<?xml version="1.0" encoding="UTF-8"?>
<svg xmlns="http://www.w3.org/2000/svg" id="Layer_1" data-name="Layer 1" viewBox="0 0 24 24">
  <path d="M23.957,22.543l-6.219-6.219c1.412-1.725,2.262-3.927,2.262-6.324C20,4.486,15.514,0,10,0S0,4.486,0,10s4.486,10,10,10c2.397,0,4.599-.85,6.324-2.262l6.219,6.219,1.414-1.414Zm-13.957-4.543c-4.411,0-8-3.589-8-8S5.589,2,10,2s8,3.589,8,8-3.589,8-8,8Zm6.412-8.461c-.492-.947-2.411-4.039-6.412-4.039-4.403,.16-5.878,3.084-6.652,4.5,.772,1.414,2.254,4.342,6.652,4.5,4.403-.16,5.878-3.084,6.652-4.5l-.24-.461Zm-6.412,2.961c-2.381,0-3.735-1.504-4.371-2.5,.635-.996,1.989-2.5,4.371-2.5s3.736,1.504,4.371,2.5c-.635,.996-1.989,2.5-4.371,2.5Zm1.5-2.5c0,.829-.671,1.5-1.5,1.5s-1.5-.671-1.5-1.5,.671-1.5,1.5-1.5,1.5,.671,1.5,1.5Z"/>
</svg>
