<svg id="Layer_1" viewBox="0 0 24 24" xmlns="http://www.w3.org/2000/svg" data-name="Layer 1"><path d="m20.025 4.06v-4.06h-16v4.061l-4.025 2.445v1.24l4.025 2.487v10.768c0 1.654 1.346 3 3 3h10c1.654 0 3-1.346 3-3v-10.767l3.975-2.455v-1.265l-3.975-2.455zm-16 3.821-1.189-.735 1.189-.735zm14 13.119c0 .551-.449 1-1 1h-10c-.551 0-1-.449-1-1v-3h12zm0-5h-12v-4.532l6.001 3.707 5.999-3.706v4.53zm0-6.881-5.999 3.706-6.001-3.708v-7.117h12zm2-1.235v-1.474l1.193.737zm-8 2.616c.353 0 .706-.092 1.02-.277l2.48-1.455v-4.037l-2.48-1.455c-.628-.367-1.41-.369-2.04 0l-2.48 1.455v4.037l2.48 1.455c.314.184.667.276 1.02.276zm-1.5-4.701.986.541c.316.186.712.186 1.028 0l.986-.541v1.822l-1.508.878-1.492-.875v-1.824zm3.5 15.201h-4v-2h4z"/></svg>