<?xml version="1.0" encoding="UTF-8"?>
<svg xmlns="http://www.w3.org/2000/svg" id="Layer_1" data-name="Layer 1" viewBox="0 0 24 24">
  <path d="M14.68,13.32l1.632,1.164c-.865,1.495-2.464,2.515-4.313,2.515s-3.447-1.02-4.313-2.515l1.632-1.164c.49,.991,1.502,1.68,2.68,1.68s2.19-.689,2.68-1.68Zm-4.867-3.36c.548-.587,1.322-.96,2.187-.96s1.639,.373,2.187,.96l1.171-1.64c-.889-.812-2.061-1.32-3.357-1.32s-2.468,.508-3.357,1.32l1.171,1.64Zm13.137,4.346l-6.234-4.447-1.162,1.628,4.496,3.207-3.523,4.306H7.474l-3.523-4.306,4.496-3.207-1.162-1.628L1.05,14.306l4.95,6.05v3.643h2v-3h8v3h2v-3.643l4.95-6.05ZM5.401,6.053l1.459-1.459,1.694,2.541,.446-.446-.775-5.329c-.096-.475-.682-.651-1.024-.309l-1.45,1.45L4.541,0,2.5,2.041l1.918,3.866c.196,.366,.69,.439,.983,.146Zm11.699-1.546l1.432,1.432c.288,.288,.772,.216,.964-.143l1.882-3.793-2.002-2.002-1.187,2.454-1.422-1.422c-.336-.336-.911-.163-1.005,.303l-.76,5.228,.437,.438,1.662-2.493Z"/>
</svg>
