<?xml version="1.0" encoding="UTF-8"?>
<svg xmlns="http://www.w3.org/2000/svg" id="Layer_1" data-name="Layer 1" viewBox="0 0 24 24">
  <path d="M14.414,0H5c-1.654,0-3,1.346-3,3V24H22V7.586L14.414,0Zm.586,3.414l3.586,3.586h-3.586V3.414Zm5,18.586H4V3c0-.551,.449-1,1-1H13v7h7v13Zm-9-3h2v2h-2v-2Zm1.93-8.907c1.25,.328,2.229,1.363,2.493,2.639,.325,1.559-.396,3.102-1.793,3.838-.147,.078-.629,.372-.629,.882v.549h-2v-.549c0-1.1,.634-2.091,1.697-2.651,.5-.263,.931-.879,.768-1.661-.108-.522-.537-.979-1.042-1.111-.472-.124-.942-.032-1.318,.258-.378,.292-.604,.749-.604,1.221v.493h-2v-.493c0-1.088,.517-2.137,1.382-2.805,.865-.668,1.974-.892,3.047-.609Z"/>
</svg>
