<?xml version="1.0" encoding="UTF-8"?>
<svg xmlns="http://www.w3.org/2000/svg" id="Layer_1" data-name="Layer 1" viewBox="0 0 24 24">
  <path d="M17.5,9c-1.633,0-3.274,.308-4.5,.909V4.5c0-2.298-3.27-3.5-6.5-3.5S0,2.202,0,4.5V20.5c0,2.298,3.27,3.5,6.5,3.5,2.138,0,4.287-.53,5.5-1.552,1.213,1.022,3.362,1.552,5.5,1.552,3.23,0,6.5-1.202,6.5-3.5V12.5c0-2.298-3.27-3.5-6.5-3.5Zm0,2c2.923,0,4.5,1.064,4.5,1.5s-1.577,1.5-4.5,1.5-4.5-1.064-4.5-1.5,1.577-1.5,4.5-1.5ZM6.5,3c2.923,0,4.5,1.064,4.5,1.5s-1.577,1.5-4.5,1.5-4.5-1.064-4.5-1.5,1.577-1.5,4.5-1.5ZM2,7.091c1.226,.601,2.867,.909,4.5,.909s3.274-.308,4.5-.909v1.409c0,.436-1.577,1.5-4.5,1.5s-4.5-1.064-4.5-1.5v-1.409Zm0,4c1.226,.601,2.867,.909,4.5,.909s3.274-.308,4.5-.909v1.409c0,.436-1.577,1.5-4.5,1.5s-4.5-1.064-4.5-1.5v-1.409Zm0,4c1.226,.601,2.867,.909,4.5,.909s3.274-.308,4.5-.909v1.409c0,.436-1.577,1.5-4.5,1.5s-4.5-1.064-4.5-1.5v-1.409Zm4.5,6.909c-2.923,0-4.5-1.064-4.5-1.5v-1.409c1.226,.601,2.867,.909,4.5,.909s3.274-.308,4.5-.909v1.409c0,.436-1.577,1.5-4.5,1.5Zm11,0c-2.923,0-4.5-1.064-4.5-1.5v-1.409c1.226,.601,2.867,.909,4.5,.909s3.274-.308,4.5-.909v1.409c0,.436-1.577,1.5-4.5,1.5Zm0-4c-2.923,0-4.5-1.064-4.5-1.5v-1.409c1.226,.601,2.867,.909,4.5,.909s3.274-.308,4.5-.909v1.409c0,.436-1.577,1.5-4.5,1.5Zm-1.051-13.477l-1.414-1.414,2.514-2.514c.791-.792,2.08-.792,2.871,0l2.529,2.529-1.414,1.414-1.535-1.535v3.997h-2V2.998l-1.551,1.525Z"/>
</svg>
