<svg id="Layer_1" viewBox="0 0 24 24" xmlns="http://www.w3.org/2000/svg" data-name="Layer 1"><path d="m6 5.946v-.333l1.5-4.612h3.5v-1.001h2v1h3.5l1.5 4.664v.336c0 1.104-.895 2-2 2s-2-.896-2-2v-.336l.842-2.664h-1.842v6h3v2h-8v-2h3v-6h-1.821l.93 2.599v.575h-.013c-.114 1.027-.984 1.826-2.042 1.826-1.135 0-2.054-.92-2.054-2.054zm-1 11.054c1.381 0 2.5-1.119 2.5-2.5s-1.119-2.5-2.5-2.5-2.5 1.119-2.5 2.5 1.119 2.5 2.5 2.5zm11.5-2.5c0 1.381 1.119 2.5 2.5 2.5s2.5-1.119 2.5-2.5-1.119-2.5-2.5-2.5-2.5 1.119-2.5 2.5zm5 3.5h-5c-.889 0-1.666.47-2.11 1.171-.278-.107-.576-.171-.89-.171h-3c-.315 0-.613.065-.89.171-.443-.701-1.22-1.171-2.11-1.171h-5c-1.379 0-2.5 1.122-2.5 2.5v3.5h2v-3.5c0-.276.225-.5.5-.5h5c.275 0 .5.224.5.5v3.5h2v-2.5c0-.276.225-.5.5-.5h3c.275 0 .5.224.5.5v2.5h2v-3.5c0-.276.225-.5.5-.5h5c.275 0 .5.224.5.5v3.5h2v-3.5c0-1.378-1.121-2.5-2.5-2.5zm-11.5-2c0 1.105.895 2 2 2s2-.895 2-2-.895-2-2-2-2 .895-2 2z"/></svg>