<?xml version="1.0" encoding="UTF-8"?>
<svg xmlns="http://www.w3.org/2000/svg" id="Layer_1" data-name="Layer 1" viewBox="0 0 24 24">
  <path d="m22.361,13.854l-2.835-1.444c.396-2.287.974-5.824.974-6.409,0-1.654-1.346-3-3-3s-3,1.346-3,3c0,.585.577,4.122.974,6.409l-2.834,1.443c-1.012.514-1.64,1.538-1.64,2.674v7.474h13v-7.474c0-1.136-.628-2.16-1.639-2.673Zm-4.861-8.854c.552,0,1,.448,1,.99-.013.365-.434,3.169-1,6.399-.566-3.23-.987-6.034-1-6.39,0-.552.448-1,1-1Zm-3.953,10.635l3.953-2.014,3.954,2.015c.167.085.302.212.396.364h-8.701c.094-.153.23-.28.397-.365Zm3.078,6.365l-1.125-3-1.125,3h-1.375v-4h9v4h-5.375ZM10,4.5h1v1.5h2V0h-2v1.5h-1V0h-6C1.794,0,0,1.794,0,4v2h3.964l-.5,14h6.072l-.5-14h.964v-1.5Zm-8-.5c0-1.103.897-2,2-2h4v2H2Zm5.464,14h-1.928l.429-12h1.07l.429,12Z"/>
</svg>
