<?xml version="1.0" encoding="UTF-8"?>
<svg xmlns="http://www.w3.org/2000/svg" id="Layer_1" data-name="Layer 1" viewBox="0 0 24 24">
  <path d="M6.014,10.858l-2.803-2.803c-.314-.314-.509-.78-.58-1.385l-.081-.69L0,3.43v2.828l.644,.644c.108,.924,.443,1.857,1.153,2.567l4.203,4.203s.012-2.766,.014-2.814Z"/>
  <path d="M6.227,4l4.031,4.031c.468-.526,1.112-.884,1.845-.983l-2.692-2.692h1.419c.323,0,.615-.131,.827-.342,.212-.212,.343-.504,.343-.827,0-.646-.524-1.186-1.17-1.186H4.282L2.28,0H0V.549l3.454,3.451h2.773Z"/>
  <path d="M16,11c-.552,0-1,.448-1,1v4h-1.5v-6c0-.552-.448-1-1-1-.552,0-1,.448-1,1v6h-1.5v-5c0-.552-.448-1-1-1-.552,0-1,.448-1,1v7.346l-1.003-1.003c-.228-.228-.528-.343-.827-.343s-.599,.114-.827,.343c-.457,.457-.457,1.197,0,1.654l4.657,4.604v.4h2v-1.235l-2-1.977v-2.788h5v2.37c0,.444-.192,.912-.569,1.39l-.431,.545v1.695h2v-1c.577-.73,1-1.626,1-2.63V12c0-.552-.448-1-1-1Z"/>
  <path d="M24,1.426l-3.003,3.003,.016,2.812-2.944,2.944,.125,.125c.686,.688,.685,1.894,.685,1.894l1.821-1.821v1.419c0,.323,.131,.615,.342,.827s.504,.343,.827,.343c.646,0,1.17-.524,1.17-1.17l-.038-6.549,.999-.999V1.426Z"/>
  <path d="M19.077,3.521l3.521-3.521h-2.828l-1.615,1.615c-.924,.108-1.857,.443-2.567,1.153l-2.468,2.468,1.414,1.414,2.468-2.468c.314-.314,.78-.509,1.385-.58l.69-.081Z"/>
</svg>
