<?xml version="1.0" encoding="UTF-8"?>
<svg xmlns="http://www.w3.org/2000/svg" id="Layer_1" data-name="Layer 1" viewBox="0 0 24 24">
  <path d="M8.573,12.168c.323,.636,.771,1.189,1.316,1.639-.258,.341-.553,.657-.889,.934v5.673l-3.496,3.497-3.897-3.862,1.412-1.412-1.404-1.425,1.591-1.591-.277-.277C1.118,14.384,0,12.543,0,10.5,0,7.467,2.467,5,5.5,5c1.455,0,2.776,.572,3.761,1.498-.464,.536-.801,1.172-1.014,1.859-.641-.82-1.628-1.357-2.747-1.357-1.93,0-3.5,1.57-3.5,3.5-.005,1.391,.832,2.631,2.115,3.201l1.92,1.92-1.601,1.602,1.404,1.425-1.396,1.396,1.055,1.046,1.502-1.503v-5.879c.628-.384,1.242-.884,1.573-1.539ZM21,0H10.687L6.3,3.044c.881,.093,1.712,.345,2.475,.717l2.538-1.761h9.687c.552,0,1,.449,1,1v7c0,.551-.448,1-1,1h-7.857c-.63,0-1.143-.512-1.143-1.142,0-.564,.422-1.051,.981-1.131l5.161-.737-.283-1.979-5.161,.737c-1.538,.22-2.698,1.557-2.698,3.11,0,1.732,1.41,3.142,3.143,3.142h7.857c1.654,0,3-1.346,3-3V3C24,1.346,22.654,0,21,0ZM4,9.5c0,.828,.672,1.5,1.5,1.5s1.5-.672,1.5-1.5-.672-1.5-1.5-1.5-1.5,.672-1.5,1.5Z"/>
</svg>
