<svg id="Layer_1" viewBox="0 0 24 24" xmlns="http://www.w3.org/2000/svg" data-name="Layer 1"><path d="m23 10c0-1.654-1.346-3-3-3h-6.352l.393-3h2.38c1.709 0 2.908-.923 2.908-.923l-.148-.594c-.365-1.459-1.676-2.483-3.18-2.483h-.606c-1.316 0-2.485.784-3 1.958-.122.277-.187.575-.229.875l-.489 4.168h-2.64l-.371-3.168c-.042-.299-.107-.598-.229-.875-.516-1.174-1.684-1.958-3-1.958h-.606c-1.504 0-2.815 1.024-3.18 2.483l-.148.594s1.198.923 2.908.923h2.38l.262 2h-4.053v14c0 1.654 1.346 3 3 3h9c1.482 0 2.709-1.083 2.949-2.498 2.561-2.249 5.051-6.79 5.051-11.502zm-3-1c.552 0 1 .448 1 1 0 3.204-1.365 6.378-3 8.513v-9.513zm-15 4h3v5h-3zm11 8c0 .552-.448 1-1 1h-9c-.552 0-1-.448-1-1v-1h5v-9h-5v-2h11z"/></svg>