<?xml version="1.0" encoding="UTF-8"?>
<svg xmlns="http://www.w3.org/2000/svg" id="Layer_1" data-name="Layer 1" viewBox="0 0 24 24">
  <path d="M15.523,5.609l1.414-1.415,.807,.806L22.537,.207l1.414,1.414-4.793,4.793c-.78,.78-2.048,.78-2.828,0l-.807-.805ZM3.744,6.999c.512,0,1.024-.195,1.414-.585L9.951,1.621,8.537,.207,3.744,5,1.495,2.752,.081,4.166l2.249,2.248c.39,.39,.902,.585,1.414,.585Zm20.256,11.501l-4.528,5.5H3c-1.654,0-3-1.346-3-3v-5c0-1.654,1.346-3,3-3v-4h2v4h5v-4h2v4h5v-4h2v4h.472l4.528,5.5ZM7.522,15l2.881,3.5-2.881,3.5h4.409l2.883-3.5-2.883-3.5H7.522Zm-4.522,7h1.931l2.883-3.5-2.883-3.5h-1.931c-.552,0-1,.449-1,1v5c0,.551,.448,1,1,1Zm18.41-3.5l-2.882-3.5h-4.006l2.881,3.5-2.881,3.5h4.006l2.882-3.5ZM8.505,5.608l.806,.806c.78,.78,2.048,.78,2.828,0L16.932,1.621,15.518,.207l-4.793,4.793-.806-.806-1.414,1.414Z"/>
</svg>
