<svg id="Layer_1" viewBox="0 0 24 24" xmlns="http://www.w3.org/2000/svg" data-name="Layer 1"><path d="m16.5 9.135c.071-1.7-1.295-3.139-3-3.135-.524 0-1.043.141-1.5.408-.456-.267-.974-.408-1.5-.408-1.706-.004-3.072 1.436-3 3.136-.939.654-1.5 1.726-1.5 2.864 0 .925.374 1.859 1 2.499 0 1.931 1.57 3.501 3.5 3.501.523 0 1.028-.115 1.5-.344.471.228.975.344 1.5.344 1.93 0 3.5-1.57 3.5-3.5.626-.641 1-1.575 1-2.5 0-1.14-.56-2.21-1.5-2.865zm-6 6.865c-.827 0-1.5-.673-1.5-1.5v-.814c-.451-.445-1.041-.974-1-1.686-.065-.877.883-1.397 1.5-1.819v-1.181c0-.723.851-1.243 1.49-.865l.009.005v7.761c-.16.06-.326.099-.5.099zm5.069-2.897-.569.583v.814c0 .827-.673 1.5-1.5 1.5-.174 0-.339-.039-.5-.099v-7.761s.008-.005.008-.005c.151-.088.321-.135.491-.135.551 0 1 .448 1 1v1.18c.619.423 1.564.943 1.5 1.82 0 .408-.165.83-.431 1.103zm8.431-6.103v-2h-2c0-1.654-1.346-3-3-3v-2h-2v2h-2v-2h-2v2h-2v-2h-2v2h-2v-2h-2v2c-1.654 0-3 1.346-3 3h-2v2h2v2h-2v2h2v2h-2v2h2v2h-2v2h2v3h3v2h2v-2h2v2h2v-2h2v2h2v-2h2v2h2v-2h3v-3h2v-2h-2v-2h2v-2h-2v-2h2v-2h-2v-2zm-4 13h-16v-15c0-.552.449-1 1-1h14c.551 0 1 .448 1 1z"/></svg>