<?xml version="1.0" encoding="UTF-8"?>
<svg xmlns="http://www.w3.org/2000/svg" id="Layer_1" data-name="Layer 1" viewBox="0 0 24 24">
  <path d="M10.5,12c.524,0,1.033-.118,1.5-.344,.468,.227,.977,.344,1.5,.344,1.93,0,3.5-1.57,3.5-3.5,.635-.649,1-1.584,1-2.5,0-1.154-.572-2.219-1.5-2.865v-.135C16.5,1.346,15.154,0,13.5,0,12.97,0,12.453,.144,12,.408,11.548,.144,11.031,0,10.5,0,8.846,0,7.5,1.346,7.5,3v.136c-.928,.646-1.5,1.71-1.5,2.864,0,.916,.365,1.851,1,2.5,0,1.93,1.57,3.5,3.5,3.5ZM13,2.143c.128-.078,.293-.142,.5-.142,.552,0,1,.449,1,1l.002,1.37,.598,.262c.547,.24,.9,.777,.9,1.368,0,.485-.229,.928-.63,1.215l-.52,.373s.149,.814,.149,.912c0,.827-.673,1.5-1.5,1.5-.19,0-.356-.039-.5-.093V2.143Zm-4.099,2.49l.599-.263v-1.37c0-.551,.448-1,1-1,.207,0,.372,.064,.5,.142v7.765c-.144,.054-.31,.093-.5,.093-.827,0-1.5-.673-1.5-1.5,0-.098,.15-.912,.15-.912l-.52-.373c-.4-.288-.631-.731-.631-1.215,0-.591,.354-1.128,.901-1.368Zm15.099,5.367v9.231c0,.742-.273,1.455-.772,2.01l-2.489,2.759h-2.693l3.697-4.098c.166-.185,.258-.423,.258-.671V10c0-.551-.449-1-1-1s-1,.449-1,1v7h-.008c0,.684-.228,1.369-.693,1.922l-2.661,2.771-1.441-1.387,2.616-2.721c.13-.157,.192-.369,.189-.586h-.001v-.048c-.014-.22-.095-.443-.254-.621-.366-.408-.997-.444-1.405-.077l-4.018,3.696c-.205,.188-.323,.457-.323,.735v3.314h-2v-3.314c0-.633,.204-1.247,.569-1.754l-2.918-2.685c-.4-.36-1.031-.323-1.397,.086-.328,.366-.337,.927-.021,1.305l2.487,2.584-1.441,1.387-2.532-2.635c-.488-.58-.727-1.28-.732-1.973h-.015v-7c0-.551-.448-1-1-1s-1,.449-1,1h0v9.231c0,.248,.092,.486,.258,.671l3.697,4.098H3.262l-2.489-2.759C.274,20.687,0,19.974,0,19.231V10c0-1.654,1.345-3,3-3s3,1.346,3,3v4.186c.999-.352,2.152-.177,2.996,.579l3.004,2.764,2.996-2.756c.849-.761,2.004-.938,3.004-.587v-4.186c0-1.654,1.346-3,3-3s3,1.346,3,3h0Z"/>
</svg>
