<svg id="Layer_1" viewBox="0 0 24 24" xmlns="http://www.w3.org/2000/svg" data-name="Layer 1"><path d="m14.975 6c-.04-.691-.154-1.363-.351-2h3.411c-.195.145-.392.288-.569.465l-1.535 1.535h-.955zm7.025 15.854c0 .021 0 .089-.078.131-.08.044-.134.005-.152-.007l-4.467-2.979h-9.303v-4h-2v6h10.697l3.964 2.644c.661.44 1.507.48 2.205.104.699-.375 1.134-1.101 1.134-1.894v-9.782l-2 2v7.784zm-10-9.096 6.879-6.879c1.17-1.17 3.072-1.17 4.242 0 1.164 1.117 1.164 3.126 0 4.243l-6.879 6.878h-4.242zm2 2.242h1.414l6.293-6.293c.388-.372.388-1.042 0-1.414-.391-.391-1.023-.39-1.414 0l-6.293 6.293zm-7.5-2h-6.5v-6.5c0-3.59 2.91-6.5 6.5-6.5s6.5 2.91 6.5 6.5-2.91 6.5-6.5 6.5zm-3-7.973h2c.048-.65.488-1.144 1.287-.99.334.087.618.39.689.736.109.524-.178.937-.511 1.112-.4.211-1.465.772-1.465 2.116h2c0-.061 0-.137.397-.346 1.197-.631 1.814-1.953 1.537-3.289-.228-1.093-1.067-1.981-2.14-2.263-.915-.241-1.868-.05-2.61.522-.741.572-1.184 1.47-1.184 2.402zm2 5.973h2v-2h-2z"/></svg>