<svg id="Layer_1" viewBox="0 0 24 24" xmlns="http://www.w3.org/2000/svg" data-name="Layer 1"><path d="m19.868 14.088c-.988-3.36-2.036-6.171-2.577-7.554.351-.146.776-.315 1.222-.479.34-.127.726-.075 1.032.134.283.193.449.49.455.812l2-.034c-.018-.979-.501-1.865-1.326-2.429-.841-.574-1.907-.708-2.853-.359-1.951.745-1.994.814-3.117 1.311.553 1.349.504 1.137 1.516 3.889l-4.453 3.425-.616-.685c-.516.435-1.09.8-1.705 1.095l.732.813-1.755 1.35c-.896-.846-2.096-1.375-3.423-1.375-2.757 0-5 2.243-5 5s2.243 5 5 5 5-2.243 5-5c0-.709-.152-1.381-.419-1.992l7.333-5.641c.29.863.593 1.801.891 2.793-2.179.539-3.805 2.497-3.805 4.839 0 2.757 2.243 5 5 5s5-2.243 5-5c0-2.46-1.789-4.499-4.132-4.912zm-14.868 7.912c-1.654 0-3-1.346-3-3s1.346-3 3-3 3 1.346 3 3-1.346 3-3 3zm14 0c-1.654 0-3-1.346-3-3s1.346-3 3-3 3 1.346 3 3-1.346 3-3 3zm-15.229-15.623 1.002-3.377h2.227l-.694 2 1.493.006c.361.001.575.404.374.704l-2.448 3.29-.61-.002.492-1.998h-1.397c-.309-.001-.53-.327-.439-.623zm2.229 5.623c3.309 0 6-2.691 6-6s-2.691-6-6-6-6 2.691-6 6 2.691 6 6 6zm0-10c2.206 0 4 1.794 4 4s-1.794 4-4 4-4-1.794-4-4 1.794-4 4-4z"/></svg>