<svg id="Layer_1" viewBox="0 0 24 24" xmlns="http://www.w3.org/2000/svg" data-name="Layer 1"><path d="m15.844 21.807c.753.381 1.57.59 2.394.635l-.384.384c-1.566 1.566-4.114 1.566-5.681 0 0 0 0-.001-.001-.002-1.564-1.566-1.564-4.112.002-5.679l1.42-1.42c1.566-1.566 4.114-1.566 5.68 0l-1.42 1.42c-.783-.783-2.057-.783-2.84 0l-1.42 1.42c-.783.783-.783 2.057 0 2.84.608.608 1.509.738 2.25.402zm6.982-9.632c-1.566-1.566-4.114-1.566-5.681 0l-.384.384c.825.044 1.641.254 2.394.635.74-.336 1.642-.206 2.25.402.782.783.782 2.057 0 2.84l-1.42 1.42c-.784.783-2.058.783-2.841 0l-1.42 1.42c.783.783 1.811 1.174 2.84 1.174s2.057-.391 2.84-1.174l1.42-1.42c1.566-1.566 1.566-4.114 0-5.68zm1.174-7.175v5.565c-.6-.541-1.277-.941-2-1.198v-1.367h-20v12h7.003c.002.679.135 1.353.364 2h-9.367v-19c0-1.654 1.346-3 3-3h5.236l4 2h8.764c1.654 0 3 1.346 3 3zm-2 1v-1c0-.551-.448-1-1-1h-9.236l-4-2h-4.764c-.551 0-1 .449-1 1v3z"/></svg>