<svg id="Layer_1" viewBox="0 0 24 24" xmlns="http://www.w3.org/2000/svg" data-name="Layer 1"><path d="m10 12.624c0 .307.219.565.522.616l3.285.547c1.271.212 2.193 1.301 2.193 2.589 0 1.447-1.177 2.624-2.624 2.624h-.376v1h-2v-1c-1.654 0-3-1.346-3-3h2c0 .552.449 1 1 1h2.376c.344 0 .624-.28.624-.624 0-.307-.219-.565-.522-.616l-3.285-.547c-1.271-.212-2.193-1.301-2.193-2.589 0-1.447 1.177-2.624 2.624-2.624h.376v-1h2v1c1.654 0 3 1.346 3 3h-2c0-.552-.449-1-1-1h-2.376c-.344 0-.624.28-.624.624zm14-5.624v17h-24v-17c0-1.654 1.346-3 3-3h3v-2c0-1.103.897-2 2-2h8c1.103 0 2 .897 2 2v2h3c1.654 0 3 1.346 3 3zm-16-3h8v-2h-8zm14 3c0-.552-.449-1-1-1h-18c-.551 0-1 .448-1 1v15h20z"/></svg>