<svg id="Layer_1" viewBox="0 0 24 24" xmlns="http://www.w3.org/2000/svg" data-name="Layer 1"><path d="m24 11.5c0-1.434-.869-2.692-2.149-3.226-.825-4.762-4.947-8.274-9.851-8.274-4.904-.001-9.026 3.511-9.851 8.273-1.28.533-2.149 1.792-2.149 3.226 0 1.852 1.446 3.373 3.268 3.492.363.79.864 1.571 1.471 2.297-1.023.478-1.739 1.51-1.739 2.713v4h2v-4c0-.551.448-1 1-1h.527c1.56 1.198 3.46 2 5.473 2 2.014.001 3.914-.801 5.474-2h.526c.552 0 1 .449 1 1v4h2v-4c0-1.202-.715-2.234-1.738-2.712.607-.725 1.108-1.506 1.47-2.296 1.821-.12 3.268-1.64 3.268-3.492zm-4.588 1.328-.281.796c-.916 2.597-4.001 5.377-7.131 5.377-3.13-.001-6.215-2.782-7.131-5.379l-.281-.796c-.195.027-.901.172-1.088.172-.827 0-1.5-.673-1.5-1.5 0-.723.518-1.342 1.23-1.471l.737-.134.078-.745c.284-2.69 1.874-4.936 4.099-6.158-.085.324-.145.659-.145 1.009 0 2.206 1.794 4 4 4s4-1.794 4-4h-2c0 1.103-.897 2-2 2s-2-.897-2-2 .897-2 2-2c4.104 0 7.523 3.074 7.954 7.15l.078.745.737.134c.713.129 1.23.749 1.23 1.471 0 .827-.673 1.5-1.5 1.5-.088 0-1.088-.172-1.088-.172zm-9.912.172c-.828 0-1.5-.672-1.5-1.5s.672-1.5 1.5-1.5 1.5.672 1.5 1.5-.672 1.5-1.5 1.5zm6.5-1.5c0 .828-.672 1.5-1.5 1.5s-1.5-.672-1.5-1.5.672-1.5 1.5-1.5 1.5.672 1.5 1.5zm-6.999 3.5h5.998c-.49 1.174-1.648 2-2.999 2s-2.509-.826-2.999-2z"/></svg>