<svg id="Layer_1" viewBox="0 0 24 24" xmlns="http://www.w3.org/2000/svg" data-name="Layer 1"><path d="m21 22v2h-2v-2c0-1.509-1.12-2.762-2.573-2.97l-4.403 5.023-4.427-5.023c-1.454.207-2.575 1.46-2.575 2.97v2h-2.001v-2c0-2.757 2.243-5 5-5h.452l3.546 4.024 3.527-4.024h.453c2.757 0 5 2.243 5 5zm-15.004-6.691c-.867.267-1.662.699-2.351 1.259.87-3.702 2.038-8.652 2.153-9.017.055-.174.132-.335.202-.5v-7.051h12v7.05c.071.165.147.326.202.5.114.362 1.264 5.233 2.131 8.924-.689-.535-1.477-.944-2.335-1.193-.839-3.565-1.746-7.23-1.764-7.281h-3.204c-1.071 1.14-2.76 2-4.321 2h-.566c.447 1.72 2 3 3.858 3 1.229 0 2.331-.557 3.065-1.433.158.666.337 1.42.529 2.234-1.002.752-2.247 1.198-3.594 1.198-2.232 0-4.18-1.228-5.213-3.041-.242 1.021-.513 2.168-.791 3.35zm10.004-13.309h-3v1h1v2h-1v1h3zm-8 4h3v-1h-1v-2h1v-1h-3z"/></svg>