<svg id="Layer_1" viewBox="0 0 24 24" xmlns="http://www.w3.org/2000/svg" data-name="Layer 1"><path d="m24 7v12.231c0 .742-.273 1.455-.772 2.01l-2.489 2.759h-2.693l3.697-4.098c.166-.185.258-.423.258-.671v-12.231c0-.551-.449-1-1-1s-1 .449-1 1v8h-.009c0 .684-.228 1.369-.693 1.922l-2.578 2.685-1.441-1.387 2.533-2.634c.13-.157.192-.369.189-.586 0-.239-.085-.478-.254-.669-.351-.403-1.013-.45-1.407-.077l-2.909 2.677c.366.508.57 1.122.57 1.755v5.314h-2v-5.314c0-.278-.118-.547-.323-.736l-4.026-3.703c-.38-.368-1.053-.314-1.397.085-.329.367-.337.928-.021 1.306l2.57 2.67-1.441 1.387-2.616-2.721c-.488-.58-.727-1.28-.732-1.973h-.014v-8.001c0-.551-.449-1-1-1s-1 .449-1 1v12.231c0 .248.092.486.258.671l3.697 4.098h-2.695l-2.489-2.759c-.499-.555-.772-1.268-.772-2.01v-12.231c0-1.654 1.346-3 3-3s3 1.346 3 3v5.184c.266-.094.542-.164.832-.18.799-.045 1.567.226 2.164.761l3.004 2.764 2.995-2.755c.606-.542 1.373-.81 2.173-.77.29.016.566.086.832.18v-5.184c0-1.654 1.346-3 3-3s3 1.346 3 3zm-17.698 1.128 1.416-.816c-.129-.418-.218-.853-.218-1.313s.089-.895.218-1.313l-1.416-.816.998-1.733 1.411.813c.605-.652 1.393-1.125 2.289-1.33v-1.62h2v1.621c.896.205 1.685.678 2.289 1.33l1.411-.813.998 1.733-1.416.816c.129.418.218.853.218 1.313s-.089.895-.218 1.313l1.416.816-.998 1.733-1.411-.813c-.605.652-1.393 1.125-2.289 1.33v1.621h-2v-1.621c-.896-.205-1.685-.678-2.289-1.33l-1.411.813-.998-1.733zm4.698-1.714 2.043 2.043 1.414-1.414-1.457-1.457v-2.086h-2z"/></svg>