<?xml version="1.0" encoding="UTF-8"?>
<svg xmlns="http://www.w3.org/2000/svg" id="Layer_1" data-name="Layer 1" viewBox="0 0 24 24">
  <path d="m24,18.532v-1.529h-4.996c1.23-1.272,1.996-3.042,1.996-5,0-3.791-2.868-6.881-6.431-6.992.662-.162,1.387-.461,1.967-1.032C17.966,2.572,18,.01,18,.01c0,0-2.411-.176-3.841,1.231-.766.754-1.108,1.829-1.263,2.668-.24-1.757-.867-3.154-1.279-3.908l-1.756.957c.325.595,1.049,2.141,1.124,4.043h-1.358c-3.655,0-6.628,3.142-6.628,7.003,0,1.958.766,3.728,1.996,5h-1.496c-1.93,0-3.5,1.57-3.5,3.5s1.57,3.5,3.5,3.5h20.5l-.007-1.524-.294-.294c-.007-.007-.699-.707-.699-1.682s.692-1.675.692-1.676l.308-.295ZM9.628,7h4.744c2.552,0,4.628,2.244,4.628,5.003s-1.961,4.981-4.5,4.997c-.719-.008-1.36-.191-2.009-.558l-.491-.277-.491.277c-.649.366-1.29.55-2.009.558-2.539-.016-4.5-2.248-4.5-4.997s2.076-5.003,4.628-5.003Zm11.648,15.003H3.5c-.827,0-1.5-.673-1.5-1.5s.673-1.5,1.5-1.5h17.776c-.162.43-.276.934-.276,1.5s.114,1.07.276,1.5Z"/>
</svg>
