<svg id="Layer_1" viewBox="0 0 24 24" xmlns="http://www.w3.org/2000/svg" data-name="Layer 1"><path d="m15.214 6.735c.784-.784 1.269-1.866 1.269-3.059v-2.833c0-.459-.372-.831-.831-.831s-.831.372-.831.831v.677h-1.391v-.681c0-.457-.37-.827-.827-.827s-.827.37-.827.827v.671h-1.416v-.671c0-.457-.37-.827-.827-.827s-.827.37-.827.827v2.685l-1.008-.929c-.39-.39-1.023-.39-1.413 0s-.39 1.023 0 1.413l2.746 2.667c.545.545 1.214.966 1.957 1.167v16.145h1.998v-16.067c.86-.168 1.63-.588 2.227-1.185zm-4.509-3.226h3.78v.167c.026 1.249-.999 2.331-2.331 2.331-.535 0-.996-.145-1.45-.512v-1.985zm-10.681 1.498v1.998h3.063l-3.087 8.821v.669c0 2.479 2.017 4.495 4.495 4.495s4.495-2.017 4.495-4.495v-.668l-3.761-10.82zm6.563 9.99h-4.18l2.097-5.992zm-2.092 3.996c-1.206 0-2.215-.859-2.447-1.998h4.894c-.232 1.139-1.241 1.998-2.447 1.998zm16.418-11.988h3.062v-1.998h-5.206l-3.761 10.82v.668c0 2.479 2.017 4.495 4.495 4.495s4.495-2.017 4.495-4.495v-.669l-3.087-8.821zm-1.417 2 2.097 5.992h-4.18zm.009 9.988c-1.206 0-2.215-.859-2.447-1.998h4.894c-.232 1.139-1.241 1.998-2.447 1.998z"/></svg>