<svg id="Layer_1" viewBox="0 0 24 24" xmlns="http://www.w3.org/2000/svg" data-name="Layer 1"><path d="m16 8.195-8 5.001v-6.196h1v-2h-9v2h1v14c0 1.654 1.346 3 3 3h17c1.654 0 3-1.346 3-3v-12.805l-8 5zm6 3.61v9.195c0 .552-.449 1-1 1h-17c-.551 0-1-.448-1-1v-14h3v12h2v-3.446l6-3.749v5zm-12.242-8.243c.382.35.481.642.648.945.623 1.07 1.893 1.664 3.107 1.447.92.942 2.389 1.29 3.644.849.742.762 1.754 1.197 2.844 1.197 2.206 0 4-1.794 4-4s-1.794-4-4-4c-.745 0-1.46.203-2.081.583-1.017-.677-2.387-.764-3.473-.212-.416-.23-.885-.349-1.37-.361v-.01s-1.423 0-1.423 0c-1.654 0-4.654 1-5.654 3 0 0 2.484-.262 3.758.562zm3.242-1.562c.266 0 .517.104.707.293l.645.642.7-.581c.194-.161.516-.354.949-.354s.834.188 1.128.527l.701.812.761-.757c.377-.376.878-.583 1.41-.583 1.103 0 2 .897 2 2s-.897 2-2 2c-.7 0-1.337-.365-1.706-.977l-.555-.921-.879.621c-.689.486-1.696.272-2.136-.45l-.474-.779-.819.4c-.503.245-1.035.061-1.325-.449-.139-.28-.454-.899-1.096-1.445h1.989zm7 17h-2v-3h2zm-8 0h-2v-3h2z"/></svg>