<?xml version="1.0" encoding="UTF-8"?>
<svg xmlns="http://www.w3.org/2000/svg" id="Layer_1" data-name="Layer 1" viewBox="0 0 24 24">
  <path d="m24,1V0H8C4.146,0,0,1.096,0,3.5v17c0,2.404,4.146,3.5,8,3.5s8-1.096,8-3.5v-1.5h8v-1c0-.632-.216-1.247-.605-1.729-.258-.32-.395-.702-.395-1.104s.136-.784.394-1.104c.809-1.003.809-2.457,0-3.46-.258-.319-.394-.701-.394-1.104s.136-.784.394-1.104c.809-1.003.809-2.457,0-3.46-.258-.319-.394-.701-.394-1.104s.137-.784.393-1.103c.392-.483.607-1.099.607-1.73Zm-16,1c3.79,0,5.82,1.069,5.996,1.5-.176.431-2.206,1.5-5.996,1.5-3.838,0-5.869-1.095-6-1.48v-.005c.131-.42,2.162-1.515,6-1.515Zm0,20c-3.845,0-5.878-1.1-6-1.5V5.917c1.563.734,3.828,1.083,6,1.083s4.437-.348,6-1.083l.002,14.565c-.124.418-2.157,1.518-6.002,1.518Zm13.837-10.141c.218.271.218.678,0,.948-.548.68-.837,1.495-.837,2.359,0,.65.164,1.273.479,1.833h-5.479V3.5c0-.574-.242-1.072-.655-1.5h6.134c-.315.559-.479,1.183-.479,1.833,0,.864.289,1.68.837,2.359.218.271.218.678,0,.948-.548.68-.837,1.495-.837,2.359s.289,1.68.837,2.359Zm-12.837,1.141h3v2h-3v3h-2v-3h-3v-2h3v-3h2v3Z"/>
</svg>
