<?xml version="1.0" encoding="UTF-8"?>
<svg xmlns="http://www.w3.org/2000/svg" id="Layer_1" data-name="Layer 1" viewBox="0 0 24 24">
  <path d="M19.5,19c0,.828-.672,1.5-1.5,1.5s-1.5-.672-1.5-1.5,.672-1.5,1.5-1.5,1.5,.672,1.5,1.5ZM11,9V2H3c-.551,0-1,.448-1,1V22H10v2H0V3C0,1.346,1.346,0,3,0H12.414l7.586,7.586v2.414h-2v-1h-7Zm2-2h3.586l-3.586-3.586v3.586Zm11,7.961v9.039H12V14.5c0-1.379,1.122-2.5,2.5-2.5h6.539l2.961,2.961Zm-2,.828l-1.789-1.789h-.211v2h-4v-2h-1.5c-.276,0-.5,.225-.5,.5v7.5h8v-6.211ZM7,3h-2v2h2V3Zm-2,5h2v-2h-2v2Zm0,3h2v-2h-2v2Zm2,1h-2l-1,5v1H8v-1l-1-5Z"/>
</svg>
