<svg id="Layer_1" viewBox="0 0 24 24" xmlns="http://www.w3.org/2000/svg" data-name="Layer 1"><path d="m5.751 11-3.483 11h-.268v-17c0-.551.448-1 1-1h2.404l4 2h.596v-1.926l-4.123-2.074h-2.877c-1.654 0-3 1.346-3 3v19h20.475l3.525-13zm13.196 11h-14.582l2.851-9h14.187l-2.455 9zm-4.947-15.321c.65.194 1.459.321 2.5.321 1.02 0 1.838-.129 2.5-.331v2.331h2v-7.5c0-.883-1.85-1.5-4.5-1.5s-4.5.617-4.5 1.5v7.5h2zm0-3.906c.698.144 1.544.227 2.5.227s1.802-.083 2.5-.227v1.738c-.266.18-1.026.488-2.5.488-1.498 0-2.247-.291-2.5-.457v-1.77z"/></svg>