<svg id="Layer_1" viewBox="0 0 24 24" xmlns="http://www.w3.org/2000/svg" data-name="Layer 1"><path d="m17 7.5c0 .828-.672 1.5-1.5 1.5s-1.5-.672-1.5-1.5.672-1.5 1.5-1.5 1.5.672 1.5 1.5zm7 4.5c0 6.617-5.383 12-12 12s-12-5.383-12-12 5.383-12 12-12 12 5.383 12 12zm-12 10c2.397 0 4.599-.85 6.324-2.262l-14.062-14.062c-1.412 1.725-2.262 3.926-2.262 6.324 0 5.514 4.486 10 10 10zm10-10c0-5.514-4.486-10-10-10-2.398 0-4.6.85-6.325 2.262l1.992 1.991c.238-.16.525-.253.833-.253.828 0 1.5.672 1.5 1.5 0 .308-.094.595-.253.833l3.281 3.281c.174-.933 1.013-1.618 1.96-1.614h1.024c.883 0 1.662.579 1.916 1.425l1.072 4.575h-1v.586l1.738 1.738c1.412-1.725 2.262-3.927 2.262-6.324zm-18.143.311 1.287 1.531.854-.718h.002v3.876h2v-2h1v2h2v-1.773l-4.845-4.845-2.297 1.93z"/></svg>