<svg id="Layer_1" viewBox="0 0 24 24" xmlns="http://www.w3.org/2000/svg" data-name="Layer 1"><path d="m19.605 15.162c.762.817.827 1.646.793 2.075-.475.285-1.646.748-3.277-.257-.475-.293-1.049-.748-1.699-1.342.469-.34.845-.802 1.061-1.348.138-.277.204-.576.211-.877 1.87-.052 4.284-.322 7.18-1.484l-.746-1.856c-.977.392-1.882.664-2.732.863 2.207-1.828 2.198-3.913 1.8-5.162-.859-.84-2.424-1.67-4.735-.981.605-.649 1.31-1.32 2.169-2.015l-1.258-1.555c-2.766 2.237-4.19 4.313-5.168 6.01-.367-.168-.82-.271-1.218-.264-.428 0-.85.095-1.241.265-.159-.848-.243-1.564-.243-2.115 0-1.919.998-2.668 1.499-2.924.342.174.898.582 1.229 1.406.404-.521.863-1.062 1.385-1.616-.835-1.206-1.74-1.688-2.612-1.902-1.245.309-2.954 1.351-3.419 4.054-.328-.963-.616-2.045-.819-3.319l-1.976.314c.637 4.005 2.029 6.47 3.143 8.287-.07.307-.105.627-.073.947-.267.145-.51.342-.716.556-1.231-.423-2.206-.839-2.836-1.228-1.633-1.007-1.748-2.25-1.702-2.811.295-.18.841-.411 1.584-.347-.24-.604-.467-1.264-.677-1.982-1.325.146-2.104.629-2.705 1.218-.43 1.352-.412 3.778 2.45 5.623.356.22.802.441 1.298.663-.497.223-.941.445-1.298.665-2.863 1.846-2.88 4.27-2.45 5.623.662.648 1.599 1.211 3.144 1.242.886 0 1.902-.242 2.981-.907.191-.118.393-.257.603-.41-.021.259-.032.504-.032.729.069 3.405 2.123 4.694 3.5 5.037 1.377-.342 3.432-1.633 3.5-5.037 0-.227-.015-.479-.036-.742.208.153.417.306.606.423 1.08.666 2.095.907 2.981.907 1.546-.032 2.48-.594 3.144-1.242.299-.935.37-2.144-.447-3.625-.751.192-1.468.338-2.143.441zm-12.725 1.818c-1.633 1.008-2.795.552-3.275.259-.046-.569.071-1.808 1.701-2.813.484-.298 1.162-.609 1.996-.927.06.475.216.943.502 1.366.21.311.483.557.778.77-.65.593-1.224 1.05-1.701 1.344zm5.122 4.944c-.509-.259-1.501-1.01-1.501-2.924 0-.697.135-1.652.387-2.815.386-.06.762-.165 1.102-.363.337.201.723.336 1.132.393.249 1.151.379 2.091.379 2.785 0 1.918-.997 2.668-1.499 2.924zm2.697-8.506c-.167.758-1.155 1.069-1.766.633-.525-.355-.94-2.022-.94-2.022s-.416 1.667-.94 2.022c-.518.352-1.236.222-1.593-.307-.355-.525-.218-1.238.307-1.593.227-.154.673-.197 1.107-.197.57 0 1.119.075 1.119.075s-1.147-1.279-1.147-1.912c-.005-.633.525-1.148 1.14-1.148.61.002 1.157.523 1.155 1.148 0 .634-1.147 1.912-1.147 1.912s.549-.075 1.119-.075c.434 0 .88.044 1.107.197.415.28.585.808.48 1.268zm.428-3.054c.048-.48-.043-.967-.22-1.401.865-.834 1.611-1.453 2.213-1.824 1.632-1.006 2.796-.552 3.275-.259.047.569-.072 1.809-1.701 2.813-.639.395-1.609.81-2.853 1.235-.207-.219-.445-.419-.715-.564z"/></svg>