<svg id="Layer_1" viewBox="0 0 24 24" xmlns="http://www.w3.org/2000/svg" data-name="Layer 1"><path d="m9.5 12.999c.828 0 1.5.672 1.5 1.5s-.672 1.5-1.5 1.5-1.5-.672-1.5-1.5.672-1.5 1.5-1.5zm5 3c.828 0 1.5-.672 1.5-1.5s-.672-1.5-1.5-1.5-1.5.672-1.5 1.5.672 1.5 1.5 1.5zm7.5-4.638v-3.363h-2.113l-.603 2h.716v2.055l.011.787.762.187c.205.05 1.228.357 1.228 1.471 0 .827-.673 1.5-1.5 1.5-.182 0-.897-.145-1.088-.172l-.281.796c-.916 2.597-4.001 5.377-7.131 5.377s-6.215-2.78-7.131-5.377l-.281-.796c-.195.027-.901.172-1.088.172-.827 0-1.5-.673-1.5-1.5 0-1.114 1.022-1.421 1.217-1.469l.783-.174v-2.857h.716l-.603-2h-2.113v3.363c-.933.461-2 1.44-2 3.137 0 1.852 1.446 3.373 3.268 3.492 1.406 3.064 4.866 6.009 8.732 6.009s7.326-2.945 8.732-6.009c1.821-.12 3.268-1.64 3.268-3.492 0-1.697-1.067-2.676-2-3.137zm-9-4.361h-2v2h2zm0-7h-2v5h2zm-6.242 9.841 1.914-.577-.58-1.925-1.914.577zm.757-4.417-1.444-4.787-1.914.577 1.443 4.788 1.914-.577zm10.307 2.492-1.914-.577-.581 1.929 1.914.577zm2.021-6.702-1.914-.577-1.443 4.788 1.914.577z"/></svg>