<?xml version="1.0" encoding="UTF-8"?>
<svg xmlns="http://www.w3.org/2000/svg" id="Layer_1" data-name="Layer 1" viewBox="0 0 24 24">
  <path d="M12,0C5.383,0,0,5.383,0,12s5.383,12,12,12,12-5.383,12-12S18.617,0,12,0Zm10,12c0,2.398-.85,4.599-2.262,6.324l-5.218-5.218c.91-.737,1.48-1.859,1.48-3.106,0-2.206-1.794-4-4-4-1.226,0-2.355,.568-3.101,1.486l-3.224-3.224c1.725-1.412,3.927-2.262,6.324-2.262,5.514,0,10,4.486,10,10Zm-8.912-.326l-2.752-2.752c.364-.559,.978-.922,1.664-.922,1.103,0,2,.897,2,2,0,.699-.359,1.315-.912,1.674Zm-5.088,9.485v-2.159c0-.551,.448-1,1-1h4.758l-2-2h-2.758c-1.654,0-3,1.346-3,3v.981c-2.423-1.827-4-4.719-4-7.981,0-2.398,.85-4.599,2.262-6.324l14.063,14.062c-1.725,1.412-3.927,2.262-6.324,2.262-1.422,0-2.774-.303-4-.841Z"/>
</svg>
