<svg id="Layer_1" viewBox="0 0 24 24" xmlns="http://www.w3.org/2000/svg" data-name="Layer 1"><path d="m23 17.929v6.071h-2v-6.071c-.107-.711-.392-.945-1.111-.91l-6.001 1.206c-.515.104-.888.56-.888 1.084v4.691h-2v-4.691c0-.524-.374-.98-.888-1.084l-6.001-1.206c-.717-.035-1.004.199-1.111.91v6.071h-2v-6.071c-.046-1.793 1.757-3.269 3.504-2.871l6.002 1.206c.576.116 1.085.395 1.494.775.409-.38.917-.659 1.493-.775l6.002-1.206c1.753-.399 3.549 1.077 3.505 2.871zm-17-9.929h-1v-2h1v-.5c0-3.032 2.467-5.5 5.5-5.5h1c3.032 0 5.5 2.468 5.5 5.5v.5h1v2h-1v.785c0 3.18-2.378 5.897-5.414 6.187-.191.019-.383.027-.573.027-1.492 0-2.942-.553-4.049-1.559-1.249-1.136-1.964-2.754-1.964-4.44zm10 0h-8v1c0 1.125.478 2.203 1.31 2.961.843.768 1.939 1.128 3.086 1.021 2.021-.193 3.604-2.036 3.604-4.196v-.785zm-8-2h8v-.5c0-1.758-1.308-3.204-3-3.449v2.949h-2v-2.949c-1.692.245-3 1.691-3 3.449z"/></svg>