<?xml version="1.0" encoding="UTF-8"?>
<svg xmlns="http://www.w3.org/2000/svg" id="Layer_1" data-name="Layer 1" viewBox="0 0 24 24">
  <path d="M19.575,10.915l-1.842-.78,.781-1.842,1.842,.78-.781,1.842Zm3.283-8.272c-.751-.579-1.702-.775-2.608-.538-.906,.237-1.664,.892-2.027,1.75l1.842,.78c.124-.292,.382-.514,.692-.596,.179-.046,.528-.084,.878,.187,.273,.211,.417,.601,.348,.947-.104,.525-.529,.792-.904,.824-.408,.034-1.65,.138-2.175,1.376l1.842,.78c.024-.056,.053-.126,.5-.164,1.349-.114,2.433-1.089,2.699-2.428,.217-1.095-.21-2.241-1.087-2.918ZM3.636,9.081l.78,1.841,1.842-.78-.781-1.842-1.841,.781Zm.17-4.663c.305,.44,.201,.931-.037,1.223-.259,.317-1.048,1.282-.523,2.52l1.842-.78c-.024-.056-.054-.126,.23-.474,.856-1.048,.91-2.506,.132-3.627-.636-.918-1.755-1.41-2.853-1.249-.938,.136-1.741,.683-2.2,1.5-.459,.816-.516,1.815-.152,2.674l1.841-.781c-.124-.292-.104-.632,.054-.912,.09-.16,.307-.438,.745-.501,.341-.053,.72,.118,.922,.409Zm7.19,4.592h2v-2h-2v2Zm.405-6.792c.146-.112,.456-.283,.881-.171,.334,.088,.618,.39,.689,.736,.109,.524-.178,.937-.511,1.111-.363,.191-1.465,.771-1.465,2.116h2c0-.061,0-.138,.396-.346,1.198-.631,1.816-1.952,1.538-3.289-.228-1.093-1.067-1.981-2.14-2.263-.917-.242-1.868-.05-2.611,.522-.741,.572-1.184,1.47-1.184,2.402h2c0-.317,.151-.623,.405-.819Zm9.599,14.783c0,2.206-1.794,4-4,4h-5v3h-2v-2.369c-.734,.836-1.803,1.369-3,1.369-2.206,0-4-1.794-4-4,0-1.442,.781-2.75,2.005-3.453,.103-1.906,1.635-3.439,3.541-3.542,.703-1.224,2.011-2.005,3.454-2.005,1.219,0,2.368,.57,3.121,1.518,1.085,.107,2.06,.683,2.686,1.578,1.829,.376,3.193,1.997,3.193,3.904Zm-2,0c0-1.042-.821-1.913-1.869-1.982l-.57-.038-.257-.51c-.302-.598-.897-.97-1.554-.97-.041,.021-.653,.04-.717,.048l-.307-.534c-.364-.635-1.01-1.014-1.726-1.014-.85,0-1.606,.548-1.882,1.363l-.268,.79c-.201-.024-.912-.147-1.1-.153-.965,0-1.75,.785-1.75,1.75,.005,.19,.134,.9,.159,1.099l-.796,.27c-.815,.276-1.363,1.032-1.363,1.882,0,1.103,.897,2,2,2s2-.897,2-2c0-.493-.181-.967-.509-1.333l1.489-1.334c.658,.733,1.02,1.681,1.02,2.667h6c1.103,0,2-.897,2-2Z"/>
</svg>
