<svg id="Layer_1" viewBox="0 0 24 24" xmlns="http://www.w3.org/2000/svg" data-name="Layer 1"><path d="m23.276 11.141c-1.18-2.706-2.294-5.262-3.476-6.722-2.438-3.256-6.312-4.867-10.347-4.313-4.996.686-8.952 4.84-9.407 9.877-.265 2.936.622 5.793 2.497 8.045.295.354.457.802.457 1.263v4.709h6v-11c0-1.626 1.274-2.971 2.841-2.999 1.268-.027 2.47.209 3.624.688l3.164 1.311h2.841l.439 1h-7.908c-2.206 0-4 1.794-4 4v7h6v-3h2.247c1.5 0 2.778-1.121 2.974-2.606l.449-3.394h2.33v-2.212l-.724-1.647zm-4.249-1.141-2.797-1.159c-1.41-.584-2.895-.857-4.425-.84-2.649.047-4.806 2.289-4.806 4.999v9h-2v-2.709c0-.927-.327-1.831-.92-2.543-1.534-1.842-2.26-4.181-2.042-6.585.372-4.118 3.604-7.514 7.687-8.075 3.309-.454 6.479.865 8.498 3.559.762.942 1.565 2.574 2.365 4.353h-1.561zm.211 8.132c-.065.495-.491.868-.991.868h-4.247v3h-2v-5c0-1.103.897-2 2-2h5.653z"/></svg>