<?xml version="1.0" encoding="UTF-8"?>
<svg xmlns="http://www.w3.org/2000/svg" id="Layer_1" data-name="Layer 1" viewBox="0 0 24 24">
  <path d="m20.958,13.608L12.25,4.9c-1.17-1.17-3.072-1.17-4.242,0l-.913.913-2.178-2.038,2.255-2.305L5.743.073-.007,5.948l1.43,1.398,2.095-2.141,2.163,2.023-.844.844c-1.17,1.169-1.17,3.073,0,4.242l8.708,8.708h6l2.957,2.957,1.414-1.414-2.957-2.957v-6Zm-6.586,5.414L6.25,10.9c-.39-.39-.39-1.024,0-1.414l3.172-3.172c.39-.39,1.024-.39,1.414,0l1.145,1.145-2.356,2.356,1.414,1.414,2.356-2.355,1.586,1.586-2.355,2.355,1.414,1.414,2.355-2.355,1.586,1.586-2.355,2.355,1.414,1.414,1.918-1.918v3.711h-4.586Zm6.125-10.022h.002c.937,0,1.839-.365,2.476-1.001.661-.661,1.025-1.54,1.025-2.475s-.364-1.813-1.033-2.482l-2.467-2.414-2.481,2.428c-.657.657-1.019,1.533-1.019,2.468s.364,1.815,1.024,2.474c.636.637,1.537,1.002,2.473,1.002Zm-1.072-4.522l1.075-1.052,1.061,1.038c.283.284.439.66.439,1.061s-.156.777-.439,1.06c-.265.264-.651.416-1.062.416h0c-.409,0-.795-.151-1.06-.417-.283-.282-.438-.658-.438-1.059s.153-.775.425-1.046Z"/>
</svg>
