<svg id="Layer_1" viewBox="0 0 24 24" xmlns="http://www.w3.org/2000/svg" data-name="Layer 1"><path d="m19.302 19.204 2.698 4.796h-2.294l-2.025-3.599c-1.661 1.008-3.601 1.599-5.681 1.599s-4.021-.591-5.681-1.599l-2.025 3.599h-2.294l2.698-4.796c-2.263-2.016-3.698-4.942-3.698-8.204 0-6.065 4.935-11 11-11 1.249 0 2.446.219 3.566.605l-1.614 1.614c-.629-.14-1.281-.219-1.952-.219-4.962 0-9 4.038-9 9s4.038 9 9 9 9-4.038 9-9c0-.671-.08-1.323-.219-1.952l1.614-1.614c.386 1.12.605 2.317.605 3.566 0 3.262-1.435 6.188-3.698 8.204zm-4.302-15.204v2.586l-1.725 1.725c.309.139.6.322.846.568s.433.531.578.835l1.714-1.714h2.586l3-3h-4v-4l-3 3zm-3 2c.342 0 .677.035 1 .101v-2.021c-.328-.047-.66-.08-1-.08-3.86 0-7 3.14-7 7s3.14 7 7 7 7-3.14 7-7c0-.34-.033-.672-.08-1h-2.021c.066.323.101.658.101 1 0 2.757-2.243 5-5 5s-5-2.243-5-5 2.243-5 5-5zm0 6c-.552 0-1-.448-1-1 0-.276.112-.526.293-.707l1.982-1.982c-1.112-.501-2.51-.319-3.397.568s0 0 0 0c-.566.566-.878 1.32-.878 2.121s.312 1.555.878 2.121 1.32.879 2.122.879 1.555-.312 2.121-.878.879-1.32.879-2.122c0-.454-.11-.888-.3-1.286l-1.992 1.992c-.181.181-.431.293-.707.293z"/></svg>