<svg id="Layer_1" viewBox="0 0 24 24" xmlns="http://www.w3.org/2000/svg" data-name="Layer 1"><path d="m17 14c3.859 0 7-3.14 7-7s-3.141-7-7-7-7 3.14-7 7 3.141 7 7 7zm0-12c2.757 0 5 2.243 5 5s-2.243 5-5 5-5-2.243-5-5 2.243-5 5-5zm-2.957 6.543 1.543-1.543-1.543-1.543 1.414-1.414 1.543 1.543 1.543-1.543 1.414 1.414-1.543 1.543 1.543 1.543-1.414 1.414-1.543-1.543-1.543 1.543zm9.957 4.108v11.349h-24l.002-11.769c0-1.084.449-2.137 1.231-2.888l1.767-1.691v-4.652c0-1.654 1.346-3 3-3h5.349c-.706.571-1.325 1.244-1.831 2h-3.518c-.552 0-1 .449-1 1v9.242l4.879 4.879c.566.566 1.319.878 2.121.878s1.555-.312 2.121-.878l1.273-1.273c.522.094 1.057.151 1.606.151.391 0 .774-.034 1.153-.082l-2.618 2.618c-.943.944-2.199 1.464-3.535 1.464s-2.592-.52-3.535-1.464l-6.448-6.448c-.004.048-.015.096-.015.144l-.002 9.769h20v-7.518c.756-.506 1.429-1.125 2-1.831z"/></svg>