<svg id="Layer_1" viewBox="0 0 24 24" xmlns="http://www.w3.org/2000/svg" data-name="Layer 1"><path d="m24 14c0-3.921-9.624-8.93-11.553-9.895l-.812-.405c-.934 1.592-2.894 4.223-4.635 4.3-2.928-.175-4.601-2.588-5.035-3.001l-1.965.004v12.997h2v2h2v-2h2v2h2v-2h4v2h2v-2h2v2h2v-2h2v2h2v-2h2zm-2 2h-20v-8.118c1.139.958 2.942 2.118 5 2.118 2.302 0 4.378-2.412 5.328-3.709.599.313 1.198.641 1.79.98l-1.45 2.175 1.664 1.109 1.504-2.256c.671.419 1.312.845 1.917 1.269l-1.585 2.377 1.664 1.109 1.525-2.287c1.594 1.281 2.643 2.453 2.643 3.233z"/></svg>