<?xml version="1.0" encoding="UTF-8"?>
<svg xmlns="http://www.w3.org/2000/svg" id="Layer_1" data-name="Layer 1" viewBox="0 0 24 24">
  <path d="M2.991,18c-1.153,0-2.25-.499-3.009-1.368l1.506-1.316c.38,.436,.928,.685,1.503,.685,1.103,0,2-.897,2-2h2c0,1.103,.897,2,2,2s2-.897,2-2h2c0,1.103,.897,2,2,2s2-.897,2-2h2c0,1.103,.897,2,2,2,.575,0,1.123-.249,1.503-.685l1.506,1.316c-.759,.869-1.856,1.368-3.009,1.368-1.193,0-2.267-.525-3-1.357-.733,.832-1.807,1.357-3,1.357s-2.267-.525-3-1.357c-.733,.832-1.807,1.357-3,1.357s-2.267-.525-3-1.357c-.733,.832-1.807,1.357-3,1.357Zm18,4c-1.103,0-2-.897-2-2h-2c0,1.103-.897,2-2,2s-2-.897-2-2h-2c0,1.103-.897,2-2,2s-2-.897-2-2h-2c0,1.103-.897,2-2,2-.575,0-1.123-.249-1.503-.685L-.018,22.632c.759,.869,1.856,1.368,3.009,1.368,1.193,0,2.267-.525,3-1.357,.733,.832,1.807,1.357,3,1.357s2.267-.525,3-1.357c.733,.832,1.807,1.357,3,1.357s2.267-.525,3-1.357c.733,.832,1.807,1.357,3,1.357,1.153,0,2.25-.499,3.009-1.368l-1.506-1.316c-.38,.436-.928,.685-1.503,.685ZM9,3.5c0-1.93,1.57-3.5,3.5-3.5s3.5,1.57,3.5,3.5-1.57,3.5-3.5,3.5-3.5-1.57-3.5-3.5Zm2,0c0,.827,.673,1.5,1.5,1.5s1.5-.673,1.5-1.5-.673-1.5-1.5-1.5-1.5,.673-1.5,1.5Zm-4.488,5.017l-.932,3.483h2.072l.763-2.857,4.452,1.254-.429,1.603h2.071l.333-1.245,4.334-.771,4.704-1.905-.759-1.85-4.401,1.805-4.208,.749-6.787-1.912-2.547-2.868L2.524,.022,.86,1.132,3.553,5.17l2.96,3.347Z"/>
</svg>
