<?xml version="1.0" encoding="UTF-8"?>
<svg xmlns="http://www.w3.org/2000/svg" id="Layer_1" data-name="Layer 1" viewBox="0 0 24 24">
  <path d="M21,3H12.236L8.236,1H3C1.346,1,0,2.346,0,4V23H24V6c0-1.654-1.346-3-3-3ZM3,3H7.764l4,2h9.236c.552,0,1,.449,1,1v1H2v-3c0-.551,.448-1,1-1Zm-1,18V9H22v12H2ZM14,10.5c-.782,0-1.477,.27-2,.727-.523-.457-1.218-.727-2-.727-1.654,0-3,1.417-3,3.16,0,2.651,3.689,5.348,4.43,5.861l.57,.396,.57-.396c.74-.514,4.43-3.21,4.43-5.861,0-1.743-1.346-3.16-3-3.16Zm-2.001,6.958c-1.395-1.087-2.999-2.746-2.999-3.797,0-.64,.448-1.16,1-1.16,.498,0,1,.309,1,1h2c0-.691,.502-1,1-1,.552,0,1,.521,1,1.16,0,1.048-1.605,2.708-3.001,3.797Z"/>
</svg>
