<?xml version="1.0" encoding="UTF-8"?>
<svg xmlns="http://www.w3.org/2000/svg" id="Layer_1" data-name="Layer 1" viewBox="0 0 24 24">
  <path d="M21.841,2c-.815,2.378-3.198,4.709-4.422,5.624-.989-.999-2.451-1.624-3.919-1.624h-3c-1.467,0-2.929,.625-3.918,1.624-1.224-.914-3.608-3.247-4.422-5.624H0v7.834c0,4.708,4.56,9.65,11.616,12.589l.384,.16,.384-.16c7.056-2.939,11.616-7.88,11.616-12.589V2h-2.159Zm.159,7.834c0,3.759-4.001,7.976-10,10.579C6.001,17.811,2,13.593,2,9.834V5.812c1.787,2.396,4.082,3.941,4.208,4.025l.873,.581,.539-.898c.528-.88,1.74-1.519,2.881-1.519h3c1.142,0,2.353,.639,2.881,1.519l.539,.898,.872-.581c.126-.083,2.422-1.629,4.208-4.025v4.023Zm-6.755,2.47c0,.014-.008,.027-.021,.033-1.012,.417-2.258,.663-3.223,.663-.96,0-2.29-.242-3.29-.655v-.076c.011-1.248,1.041-2.27,2.29-2.27h1.962c1.269,0,2.295,1.035,2.283,2.305Z"/>
</svg>
