<svg id="Layer_1" viewBox="0 0 24 24" xmlns="http://www.w3.org/2000/svg" data-name="Layer 1"><path d="m10 11c0 2.947 0 8.434-4.514 11.143l-1.029-1.715c3.543-2.127 3.543-6.697 3.543-9.428 0-1.654 1.346-3 3-3 1.084 0 2.027.584 2.554 1.448-.638.238-1.23.566-1.764.969-.182-.246-.461-.417-.79-.417-.551 0-1 .448-1 1zm-3.931-.833-1.972-.334c-.065.382-.098.774-.098 1.167 0 4.645-1.346 7-4 7v2c3.869 0 6-3.196 6-9 0-.281.023-.562.069-.833zm-4.069.833c0-4.963 4.038-9 9-9 1.963 0 3.83.624 5.399 1.804l1.202-1.598c-1.918-1.443-4.201-2.206-6.601-2.206-6.065 0-11 4.935-11 11v3h2zm20.545 12.959-3.792-3.792c-.791.524-1.736.833-2.753.833-2.757 0-5-2.243-5-5s2.243-5 5-5 5 2.243 5 5c0 1.017-.309 1.962-.833 2.753l3.792 3.792zm-3.545-7.959c0-1.654-1.346-3-3-3s-3 1.346-3 3 1.346 3 3 3 3-1.346 3-3zm2.987-3.613c.012-.536.013-1.007.013-1.387 0-1.679-.37-3.292-1.101-4.794l-1.799.875c.484.994.764 2.051.857 3.147.822.565 1.512 1.303 2.03 2.159zm-11.753 7.579c-.525.964-1.165 1.81-1.923 2.531l1.378 1.449c.758-.721 1.406-1.55 1.965-2.463-.545-.433-1.025-.942-1.42-1.516zm.766-15.966c-1.984 0-3.885.851-5.213 2.333l1.489 1.334c.95-1.06 2.307-1.667 3.724-1.667 2.053 0 3.819 1.246 4.587 3.021.137-.008.273-.021.413-.021.611 0 1.2.086 1.765.233-.786-3.006-3.517-5.233-6.765-5.233z"/></svg>