<svg id="Layer_1" viewBox="0 0 24 24" xmlns="http://www.w3.org/2000/svg" data-name="Layer 1"><path d="m10.5 3.5c0-1.381 1.119-2.5 2.5-2.5s2.5 1.119 2.5 2.5-1.119 2.5-2.5 2.5-2.5-1.119-2.5-2.5zm-5.5 3.5c0-1.105-.895-2-2-2s-2 .895-2 2 .895 2 2 2 2-.895 2-2zm19 2.241v1.759h-6.686l-2.08-.8-2.172 6.121 2.937 2.175v5.504h-2v-4.496l-4.986-3.692-3.005 8.188h-2.13l5.54-15.095v-.004c.265-.718.794-1.287 1.49-1.603.696-.317 1.473-.339 2.186-.064l4.591 1.766h3.893l-4.452-8.015 1.748-.97 5.126 9.227zm-10.632.241-.991-.381c-.209-.082-.437-.074-.642.019s-.36.26-.438.471v.004s0 0 0 0l-1.563 4.26 1.65 1.222 1.985-5.594z"/></svg>