<svg id="Layer_1" viewBox="0 0 24 24" xmlns="http://www.w3.org/2000/svg" data-name="Layer 1"><path d="m9 9h-4c.249-1.291 1.031-2.501 1.999-2.5.967.001 1.751 1.209 2.001 2.5zm1 7c1.987-.004 3.651-1.071 4.53-2.8-.371-.179-.729-.38-1.065-.612-1.23.358-2.349.412-3.465.412-1.563.001-3.126-.096-5.002-1 .626 2.434 2.582 4.004 5.002 4zm9.5-10c0-.828-.672-1.5-1.5-1.5s-1.5.672-1.5 1.5.672 1.5 1.5 1.5 1.5-.672 1.5-1.5zm-2.5 7h2v-4h-2zm1-13c-3.309 0-6 2.691-6 6 0 2.215 1.21 4.149 3 5.188v-2.568c-.615-.703-1-1.613-1-2.62 0-2.209 1.791-4 4-4s4 1.791 4 4c0 1.008-.385 1.917-1 2.62v2.568c1.79-1.039 3-2.973 3-5.188 0-3.309-2.691-6-6-6zm-.835 16.38s0 .002 0 .002c-1.794 2.721-5.863 4.803-7.14 5.408-2.567-1.192-8.022-4.422-8.024-7.765v-10.896c1.348-.372 4.513-1.127 8-1.129.359 0 .712.013 1.062.028.409-.713.925-1.354 1.525-1.907-.825-.074-1.693-.121-2.587-.121-5.826.119-8.717 1.287-10.001 1.659v12.367c.229 5.832 9.282 9.614 10.027 9.951.688-.321 6.024-2.484 8.808-6.496.544-.826.888-1.656 1.043-2.481h-2.058c-.133.449-.345.909-.655 1.38z"/></svg>