<?xml version="1.0" encoding="UTF-8"?>
<svg xmlns="http://www.w3.org/2000/svg" id="Layer_1" data-name="Layer 1" viewBox="0 0 24 24">
  <path d="M9.431,2.174c.27-.787-.287-1.615-1.118-1.661L3.24,.003C2.109-.06,1.253,1.011,1.565,2.1l.435,.818v1.583c0,1.93,1.57,3.5,3.5,3.5s3.5-1.57,3.5-3.5v-1.5s.431-.826,.431-.826Zm-5.431,2.326v-1.5s3,0,3,0v1.5c0,.827-.673,1.5-1.5,1.5s-1.5-.673-1.5-1.5Zm2.658,4.5L1,14v-2.5c0-1.381,1.119-2.5,2.5-2.5h3.158Zm3.342,2.5v2.5H4.02l5.031-4.446c.574,.458,.949,1.155,.949,1.946Zm.569,7.496c.57,.546,.571,1.532,0,2.079l-2.862,2.862-1.414-1.414,1.523-1.523H0v-2H7.745l-1.452-1.452,1.414-1.414,2.862,2.862Zm13.431,2.004h-7.816l1.523,1.523-1.414,1.414-2.862-2.862c-.571-.547-.57-1.533,0-2.079l2.862-2.862,1.414,1.414-1.452,1.452h7.745v2Zm-8-7h-2v-2.5c0-1.378,1.121-2.5,2.5-2.5h4c1.379,0,2.5,1.122,2.5,2.5v2.5h-2v-2.5c0-.276-.225-.5-.5-.5h-4c-.275,0-.5,.224-.5,.5v2.5Zm2.5-6c-1.93,0-3.5-1.57-3.5-3.5s1.57-3.5,3.5-3.5,3.5,1.57,3.5,3.5-1.57,3.5-3.5,3.5Zm0-5c-.827,0-1.5,.673-1.5,1.5s.673,1.5,1.5,1.5,1.5-.673,1.5-1.5-.673-1.5-1.5-1.5Z"/>
</svg>
