<svg id="Layer_1" viewBox="0 0 24 24" xmlns="http://www.w3.org/2000/svg" data-name="Layer 1"><path d="m23.301 13.982-2.247-4.161 2.034-3.798c.63-1.183.337-2.66-.683-3.438-.628-.479-1.426-.657-2.188-.49-.764.167-1.412.658-1.776 1.342l-.417.773-.415-.768c-.367-.689-1.016-1.18-1.779-1.346-.764-.167-1.562.011-2.189.49-1.019.777-1.312 2.255-.681 3.438l1.17 2.189c-.347.088-.677.246-.97.469-.494.377-.814.92-.944 1.513-.61-.02-1.213.162-1.711.54-.579.441-.915 1.111-.989 1.822-.54.023-1.069.202-1.511.539-1.019.777-1.312 2.254-.684 3.433l1.963 3.72c1.27 2.38 3.714 3.74 6.251 3.739 1.134 0 2.287-.271 3.361-.845l1.974-1.155c2.877-1.536 3.969-5.125 2.432-8.007zm-3.098-9.6c.219-.343.569-.482.989-.206.244.186.302.584.131.904l-1.409 2.631-.754-1.397zm-.31 15.861-1.974 1.155c-2.474 1.319-5.554.379-6.87-2.086l-1.963-3.72c-.171-.321-.114-.719.129-.905.414-.275.772-.136.987.199l1.469 2.808 1.772-.927-1.857-3.537c-.171-.321-.114-.719.13-.905.407-.267.733-.145.96.17l1.923 3.639 1.77-.931-2.128-4.026c-.172-.321-.114-.719.13-.905.378-.243.641-.161.896.072l2.263 4.233 1.766-.938-4.572-8.557c-.172-.321-.115-.719.128-.905.423-.275.772-.139.994.211l5.693 10.541c1.016 1.904.293 4.281-1.646 5.316zm-8.893-16.747c0-2.025-1.367-3.496-3.25-3.496-.869 0-1.671.362-2.262.94-.592-.576-1.39-.94-2.238-.94-1.883 0-3.25 1.47-3.25 3.496.264 3.582 4.489 6.18 5.5 6.974 1.005-.787 5.242-3.398 5.5-6.974zm-5.5 4.511c-1.542-1.198-3.5-3.167-3.5-4.511 0-.922.479-1.496 1.25-1.496.673 0 1.25.688 1.25 1.25v.25h2v-.25c0-.666.584-1.25 1.25-1.25.771 0 1.25.573 1.25 1.496 0 1.345-1.958 3.313-3.5 4.511z"/></svg>