<?xml version="1.0" encoding="UTF-8"?>
<svg xmlns="http://www.w3.org/2000/svg" id="Layer_1" data-name="Layer 1" viewBox="0 0 24 24">
  <path d="M21,10v-2h2V3h-1.382l1.5-3H5c-1.654,0-3,1.346-3,3V7c0,1.654,1.346,3,3,3h5.057l-2.006,5.351c-.146,.389-.522,.649-.937,.649H2v-4H0v10H2v-4H7.114c1.243,0,2.372-.782,2.81-1.946l2.27-6.054h8.807ZM4,7V3c0-.552,.449-1,1-1h14.882l-.882,1.764v4.236H5c-.551,0-1-.448-1-1Zm19.803,12.044c-.486-.948-2.379-4.044-6.329-4.044s-5.842,3.095-6.328,4.044l-.234,.456,.234,.456c.486,.949,2.381,4.044,6.328,4.044s5.842-3.095,6.329-4.044l.234-.456-.233-.456Zm-6.329,2.956c-2.336,0-3.666-1.506-4.289-2.5,.623-.994,1.953-2.5,4.289-2.5s3.667,1.506,4.29,2.5c-.623,.994-1.953,2.5-4.29,2.5Zm1.5-2.5c0,.829-.671,1.5-1.5,1.5s-1.5-.671-1.5-1.5,.671-1.5,1.5-1.5,1.5,.671,1.5,1.5Z"/>
</svg>
