<svg id="Layer_1" viewBox="0 0 24 24" xmlns="http://www.w3.org/2000/svg" data-name="Layer 1"><path d="m24 5.514c0-3.033-2.467-5.5-5.5-5.5s-5.5 2.467-5.5 5.5v5.5h5.5c3.033 0 5.5-2.467 5.5-5.5zm-5-2.514h1v3h1v-3h1v5h-1v-1h-1c-.551 0-1-.449-1-1zm-1 4v1h-3v-.5c0-1 .666-1.499 1.2-1.9.511-.383.8-.624.8-1.1 0-.276-.224-.5-.5-.5s-.5.224-.5.5h-1c0-.827.673-1.5 1.5-1.5s1.5.673 1.5 1.5c0 1-.666 1.499-1.2 1.9-.298.224-.521.398-.654.6zm-3.8 9.262c-2.96-1.282-5.08-3.407-6.453-6.468l3.406-3.406-6.266-6.266-3.171 3.17c-1.106 1.105-1.716 2.599-1.716 4.208 0 7.248 9.252 16.5 16.5 16.5 1.609 0 3.104-.609 4.207-1.715l3.171-3.171-6.265-6.265-3.414 3.414zm5.092 4.609c-.726.728-1.718 1.129-2.792 1.129-6.233 0-14.5-8.266-14.5-14.5 0-1.074.401-2.066 1.129-2.793l1.757-1.757 3.437 3.437-2.936 2.936.246.613c1.641 4.085 4.482 6.924 8.447 8.437l.605.231 2.927-2.927 3.437 3.437-1.758 1.758z"/></svg>