<?xml version="1.0" encoding="UTF-8"?>
<svg xmlns="http://www.w3.org/2000/svg" id="Layer_1" data-name="Layer 1" viewBox="0 0 24 24">
  <path d="M11,16.509l2,1.417v1.418l-3.596,4.616-1.578-1.229,3.174-4.075v-2.147Zm-6.005-1.679l2.88-1.323-.375-.507H2c-.484,.024-.745,.578-.458,.967l1.218,1.649-2.761,.895,1.844,2.296,4.087-1.367c.391-.139,.537-.617,.29-.951l-1.226-1.66ZM1.542,10.033c-.288,.39-.026,.943,.458,.967H7.5l.375-.507-2.88-1.323,1.226-1.66c.247-.334,.101-.811-.29-.951L1.844,5.193,0,7.489l2.761,.895-1.218,1.649Zm17.982-.514l-3.782,5.448,4.258,3.017v6.017h-2v-4.983l-5.854-4.146c-1.335-.904-1.676-2.883-.718-4.181l3.25-4.689h-2.155s-2.701,3.898-2.701,3.898l-1.645-1.14,3.299-4.758h4.118c.778-.028,1.665,.246,2.393,.761l.817,.577c1.35,.955,1.673,2.83,.72,4.181Zm-1.874-2.548l-.813-.573-3.77,5.439c-.16,.226-.22,.491-.175,.753,.046,.263,.19,.494,.409,.648l.809,.573,3.775-5.439c.322-.457,.215-1.083-.235-1.401ZM21.5,0c-1.381,0-2.5,1.119-2.5,2.5s1.119,2.5,2.5,2.5,2.5-1.119,2.5-2.5-1.119-2.5-2.5-2.5Z"/>
</svg>
