<svg id="Layer_1" viewBox="0 0 24 24" xmlns="http://www.w3.org/2000/svg" data-name="Layer 1"><path d="m16.701 16.64c.181-.517.299-1.063.299-1.64 0-2.1-1.305-3.894-3.143-4.634.628 1.373 1.027 2.848 1.145 4.366-.694-.039-1.381-.186-2.044-.429-.118-1.528-.617-2.99-1.436-4.254-2.53.245-4.522 2.359-4.522 4.952 0 .31.037.61.091.905.839-1.442 1.957-2.711 3.313-3.716.32.738.513 1.529.568 2.346-1.181.925-2.085 2.123-2.681 3.465h-2.605c-.435-.911-.685-1.925-.685-3 0-3.86 3.14-7 7-7s7 3.14 7 7c0 1.075-.251 2.089-.685 3h-6.721c-.298-.093-.596-.187-.888-.303.398-.587.891-1.109 1.456-1.558 1.045.399 2.141.609 3.237.609.436 0 .871-.042 1.303-.108zm5.802 4.676c-.38.435-.928.684-1.503.684-1.103 0-2-.897-2-2h-2c0 1.103-.897 2-2 2s-2-.897-2-2h-2c0 1.103-.897 2-2 2s-2-.897-2-2h-2c0 1.103-.897 2-2 2-.575 0-1.123-.25-1.503-.684l-1.497 1.316c.76.869 1.848 1.368 3 1.368 1.193 0 2.267-.525 3-1.357.733.832 1.807 1.357 3 1.357s2.267-.525 3-1.357c.733.832 1.807 1.357 3 1.357s2.267-.525 3-1.357c.733.832 1.807 1.357 3 1.357 1.153 0 2.241-.499 3-1.368l-1.497-1.315zm-20.756-3.316h-1.747v-15c0-1.654 1.346-3 3-3h18c1.654 0 3 1.346 3 3v15h-1.661l-1.49-1.49c.094-.521.151-1.055.151-1.604 0-.393-.034-.777-.083-1.157l1.083 1.083v-3.243l-1.248 1.248c-.171-.726-.427-1.419-.763-2.065l1.029-1.03-2.052-2.052-.733.733c-.485-.467-1.024-.876-1.603-1.225l.922-.922-2.05-2.05-1.837 1.839c-.54-.101-1.096-.16-1.666-.16-.547 0-1.081.057-1.601.15l-1.83-1.831-2.052 2.052.896.896c-.582.346-1.122.754-1.61 1.218l-.699-.699-2.052 2.052.982.982c-.338.643-.596 1.334-.771 2.057l-1.263-1.263v3.396l1.068-1.069c-.041.348-.068.7-.068 1.059 0 .574.059 1.133.162 1.677l-1.415 1.417zm20.253-13.342-1.619 1.619 1.619 1.619zm-5.084-1.846 2.051 2.051 2.639-2.639c-.17-.133-.374-.225-.605-.225h-3.272l-.812.812zm-6.933 0 2.055 2.055 2.051-2.054-.813-.813h-2.48l-.812.812zm-7.547-.615 2.667 2.667 2.052-2.052-.811-.812h-3.344c-.214 0-.401.082-.564.197zm-.436 5.769 1.689-1.689-1.689-1.689z"/></svg>