<svg id="Layer_1" viewBox="0 0 24 24" xmlns="http://www.w3.org/2000/svg" data-name="Layer 1"><path d="m22.527 2h-6.527v-2h-8v2h-6.527c-.472 1.087-1.331 2.21-1.473 7 .143 4.796.999 5.907 1.473 7h21.054c.472-1.087 1.473-2.208 1.473-7 0-4.5-1.473-7-1.473-7zm-1.294 12h-18.466c-.291-.83-.767-2.56-.767-5s.476-4.172.766-5h18.467c.291.83.767 2.56.767 5s-.476 4.17-.767 5zm-7.466-6.268c.976.976.976 2.559 0 3.536-.488.488-1.128.732-1.768.732s-1.28-.244-1.768-.732c-.976-.976-.976-2.559 0-3.536l1.768-1.732zm4.732 9.268c-1.391 0-2.585.822-3.149 2h-6.702c-.564-1.178-1.758-2-3.149-2-1.93 0-3.5 1.57-3.5 3.5s1.57 3.5 3.5 3.5c1.758 0 3.204-1.308 3.449-3h6.101c.245 1.692 1.691 3 3.449 3 1.93 0 3.5-1.57 3.5-3.5s-1.57-3.5-3.5-3.5zm-13 5c-.827 0-1.5-.673-1.5-1.5s.673-1.5 1.5-1.5 1.5.673 1.5 1.5-.673 1.5-1.5 1.5zm13 0c-.827 0-1.5-.673-1.5-1.5s.673-1.5 1.5-1.5 1.5.673 1.5 1.5-.673 1.5-1.5 1.5z"/></svg>