<svg id="Layer_1" viewBox="0 0 24 24" xmlns="http://www.w3.org/2000/svg" data-name="Layer 1"><path d="m23.431 24h-20.414c-1.655 0-3-1.346-3-3v-20.414zm-21.414-18.586v15.586c0 .552.449 1 1 1h15.586zm19.527 9.586h-4.119l-2.409-2.468v-2.689l2.775-2.843h3.237l2.971 4.134-2.456 3.866zm-3.276-2h2.178l1.141-1.797-1.583-2.203h-1.369l-1.618 1.657v1.061zm-5.402-6h-3.746l-2.104-2.155v-2.377l2.409-2.468h3.004l2.592 3.605zm-2.903-2h1.803l.842-1.325-1.204-1.675h-1.136l-1.251 1.282v.748zm7.054-2.25 1.22 1.25h2.219l1.199-1.888-1.518-2.112h-1.656l-1.464 1.5z"/></svg>