<?xml version="1.0" encoding="UTF-8"?>
<svg xmlns="http://www.w3.org/2000/svg" id="Layer_1" data-name="Layer 1" viewBox="0 0 24 24">
  <path d="M10,5.5c0,1.381-1.119,2.5-2.5,2.5s-2.5-1.119-2.5-2.5,1.119-2.5,2.5-2.5,2.5,1.119,2.5,2.5Zm14-2.5V22h-7.876l-.907-2h5.806l-2.943-3h-6.385l3.113,7h-2.188l-.89-2H0V3C0,1.346,1.346,0,3,0H21c1.654,0,3,1.346,3,3ZM10.805,15h2.086l-2.294-5.144s-1.656,.89-1.679,.903l1.886,4.241Zm8.115,0l3.08,3.14V3c0-.551-.448-1-1-1H3c-.552,0-1,.449-1,1V20H10.84l-3.331-7.489-2.097,5.489H3.27l2.453-6.421c.432-1.127,1.255-2.06,2.318-2.627l5.963-3.181,1.212-1.771h2.423l-2.26,3.306-3.013,1.607,2.715,6.087h3.839Z"/>
</svg>
