<svg id="Layer_1" viewBox="0 0 24 24" xmlns="http://www.w3.org/2000/svg" data-name="Layer 1"><path d="m23.999 13.5v10.5h-2v-10.5c0-1.928-.727-3.73-2-5.098v4.598c0 2.757-2.243 5-5 5h-2c-.331 0-.654-.036-.968-.098l1.902-1.902h1.066c1.654 0 3-1.346 3-3v-9c0-1.103-.897-2-2-2h-4c-.608 0-1.147.279-1.514.708l-1.413-1.414c.731-.791 1.768-1.294 2.927-1.294h4c2.206 0 4 1.794 4 4v1.776c2.507 1.784 4 4.621 4 7.724zm-14.415-2.509-2.334-2.328-1.769 1.769-4.749-4.75c-.975-.974-.975-2.561 0-3.536l1.414-1.414c.974-.975 2.561-.975 3.536 0l4.75 4.75-1.767 1.767 2.359 2.353 4.081 2.398-3.096 3.096-2.424-4.106zm-4.102-3.387 2.121-2.121-3.335-3.336c-.195-.195-.513-.195-.708 0l-1.414 1.414c-.195.195-.195.512 0 .708zm-1.483 5.896v10.5h2v-10.5c0-.169.021-.333.032-.5h-2c-.009.167-.032.331-.032.5z"/></svg>