<?xml version="1.0" encoding="UTF-8"?>
<svg xmlns="http://www.w3.org/2000/svg" id="Layer_1" data-name="Layer 1" viewBox="0 0 24 24">
  <path d="M5.676,7.535l-1.752-.999c.634-1.108,1.56-2.028,2.676-2.651l.981,1.765c-.796,.445-1.453,1.093-1.906,1.884ZM22.75,3h-1.25l-1.929-2.421c-.195-.357-.569-.579-.975-.579h-1.096l1.184,3h-2.241l-1.11-.772c-.146-.146-.345-.228-.551-.228-.599,0-.974,.647-.677,1.167l1.546,1.833h3.017l-1.167,3h1.113c.407,0,.781-.222,.975-.579l1.911-2.421h2.5v-1c0-.552-.448-1-1.25-1Zm-13.25,13.5c0,1.381,1.119,2.5,2.5,2.5s2.5-1.119,2.5-2.5-1.119-2.5-2.5-2.5-2.5,1.119-2.5,2.5Zm.5-11.5h2V3h-2c-.367,0-.725,.037-1.077,.092l.31,1.986c.252-.039,.505-.078,.768-.078Zm-5,5c0-.267,.038-.525,.079-.781l-1.984-.315c-.057,.358-.095,.722-.095,1.096v2h2v-2Zm17.5,6.5c0-1.381-1.119-2.5-2.5-2.5s-2.5,1.119-2.5,2.5,1.119,2.5,2.5,2.5,2.5-1.119,2.5-2.5Zm-1,3.5h-3c-1.378,0-2.5,1.122-2.5,2.5,0-1.378-1.122-2.5-2.5-2.5h-3c-1.378,0-2.5,1.122-2.5,2.5,0-1.378-1.122-2.5-2.5-2.5H2.5c-1.378,0-2.5,1.122-2.5,2.5v1.5H2v-1.5c0-.276,.224-.5,.5-.5h3c.276,0,.5,.224,.5,.5v1.5h4v-1.5c0-.276,.224-.5,.5-.5h3c.276,0,.5,.224,.5,.5v1.5h4v-1.5c0-.276,.224-.5,.5-.5h3c.276,0,.5,.224,.5,.5v1.5h2v-1.5c0-1.378-1.122-2.5-2.5-2.5Zm-17.5-1c1.379,0,2.5-1.121,2.5-2.5s-1.121-2.5-2.5-2.5-2.5,1.121-2.5,2.5,1.121,2.5,2.5,2.5Z"/>
</svg>
