<svg id="Layer_1" viewBox="0 0 24 24" xmlns="http://www.w3.org/2000/svg" data-name="Layer 1"><path d="m6.56 5.931-1.367-4.087 2.296-1.844.895 2.761 1.649-1.218c.39-.288.943-.026.967.458v5.499l-.507.375-1.323-2.88-1.66 1.226c-.334.247-.811.101-.951-.29zm8.27-.937 1.66 1.226c.334.247.811.101.951-.29l1.367-4.087-2.296-1.844-.895 2.761-1.649-1.218c-.39-.288-.943-.026-.967.458v5.5l.507.375 1.323-2.88zm.67 14.005h-7c-1.93 0-3.5 1.57-3.5 3.5v1.5h2v-1.5c0-.827.673-1.5 1.5-1.5h7c.827 0 1.5.673 1.5 1.5v1.5h2v-1.5c0-1.93-1.57-3.5-3.5-3.5zm-3.5-10c2.481 0 4.5 2.019 4.5 4.5s-2.019 4.5-4.5 4.5-4.5-2.019-4.5-4.5 2.019-4.5 4.5-4.5zm-2.5 4.5c0 1.379 1.122 2.5 2.5 2.5s2.5-1.121 2.5-2.5-1.121-2.5-2.5-2.5-2.5 1.121-2.5 2.5zm-7.109 4.076c-.143-1.213-.391-3.659-.391-6.076s.248-4.863.391-6.076c.45-.038 1.088-.088 1.844-.14l-.655-1.959c-2.078.158-1.845.15-2.958.258-.17 1.343-.564 3.457-.621 7.917.058 4.469.45 6.565.621 7.917 1.146.111.934.106 3.16.273.461-.771 1.103-1.418 1.87-1.885-1.401-.081-2.554-.169-3.26-.228zm21.099-13.217-.111-.775c-1.112-.108-.88-.1-2.958-.258l-.655 1.959c.756.052 1.394.102 1.843.14.144 1.213.391 3.659.391 6.076s-.247 4.863-.391 6.076c-.706.06-1.86.148-3.26.228.767.467 1.409 1.114 1.87 1.885 2.227-.166 2.013-.161 3.16-.273.171-1.343.564-3.457.621-7.917 0-3.53-.489-6.996-.51-7.142z"/></svg>