<svg id="Layer_1" viewBox="0 0 24 24" xmlns="http://www.w3.org/2000/svg" data-name="Layer 1"><path d="m7.692 14.038-5.683 3.352-1.006-1.729 3.943-2.295c-.17-.434-.289-.893-.363-1.367h-4.583v-2h4.585c.074-.476.197-.935.369-1.371l-3.956-2.302 1.006-1.729 3.957 2.304c.287-.352.61-.672.964-.958l-2.298-3.951 1.729-1.006 2.302 3.958c.428-.166.877-.286 1.343-.359v-4.585h2v4.58c.468.072.924.192 1.359.362l2.299-3.955 1.729 1.005-2.299 3.953c.349.283.669.606.957.961l3.966-2.309 1.006 1.729-3.968 2.31c.117.299.216.604.287.916-.722-.293-1.494-.475-2.295-.532-.747-1.536-2.335-2.528-4.042-2.52-2.481 0-4.5 2.019-4.5 4.5.005 1.17.437 2.234 1.192 3.038zm11.717-.022c-.927-1.83-2.82-3.017-4.909-3.017-2.906 0-5.293 2.266-5.487 5.123-1.729.441-3.013 2.012-3.013 3.877 0 2.206 1.794 4 4 4h1.008c-.455-.605-.758-1.289-.902-2-1.138.054-2.108-.857-2.105-2 0-1.103.897-2 2.027-2h1.113c-.026-.298-.147-1.212-.141-1.5 0-1.93 1.57-3.5 3.5-3.5 1.481 0 2.808.938 3.302 2.333l.235.667h.963c1.654 0 3 1.346 3 3 0 1.334-.876 2.466-2.082 2.855-.13.763-.44 1.499-.926 2.145h.008c2.757 0 5-2.243 5-5 0-2.619-2.024-4.774-4.591-4.983zm-2.296 4.854c1.178 1.178 1.178 3.08.008 4.25-.566.566-1.32.879-2.121.879s-1.555-.312-2.121-.879c-1.17-1.17-1.17-3.072 0-4.242l2.121-2.076zm-1.406 1.422-.707-.691-.715.699c-.382.382-.382 1.017.008 1.406.379.377 1.035.377 1.414 0 .39-.39.39-1.024 0-1.414z"/></svg>