<?xml version="1.0" encoding="UTF-8"?>
<svg xmlns="http://www.w3.org/2000/svg" id="Layer_1" data-name="Layer 1" viewBox="0 0 24 24">
  <path d="M6.793,8.793l-1,1,1.414,1.414,1-1,.793,.793v2h1.586c1.414-1,2.386-2.5,2.386-4.35h0c1.622-1.793,2.951-4.106,3.949-6.874,.403-1.018-.683-2.099-1.696-1.697-2.795,1.007-5.019,2.282-6.835,3.921h-.006c-1.883,0-3.383,1-4.383,2.415v1.586h2l.793,.793Zm4.728-1.519l-1.703,1.715-1.805-1.806,1.714-1.703c1.285-1.166,2.849-2.141,4.749-2.959-.819,1.893-1.815,3.492-2.955,4.752Zm11.715,8.74l-7.115,7.985h-2.678l8.3-9.316c.367-.412,.334-1.049-.073-1.421-.395-.372-1.07-.343-1.428,.067l-4.433,4.872c-.387,1.066-1.335,1.883-2.506,2.051l-5.161,.737-.283-1.98,5.161-.737c.56-.079,.98-.565,.98-1.13,0-.63-.513-1.143-1.143-1.143H3c-.552,0-1,.448-1,1v7H0v-7c0-1.654,1.346-3,3-3H12.857c1.14,0,2.13,.616,2.681,1.527l3.224-3.543c1.065-1.219,3.084-1.32,4.254-.199,1.214,1.107,1.312,3.004,.219,4.229Z"/>
</svg>
