<svg id="Layer_1" viewBox="0 0 24 24" xmlns="http://www.w3.org/2000/svg" data-name="Layer 1"><path d="m23.957 22.543-6.219-6.219c1.412-1.725 2.262-3.927 2.262-6.324 0-5.514-4.486-10-10-10s-10 4.486-10 10 4.486 10 10 10c2.398 0 4.6-.85 6.324-2.262l6.219 6.219zm-13.957-4.543c-4.411 0-8-3.589-8-8s3.589-8 8-8 8 3.589 8 8-3.589 8-8 8zm4-9.908v-3.092h-1.624c-.513.889-.679 1.464-2.376 1.5h-3c-1.103 0-2 .897-2 2v2c0 .459.162.878.423 1.216l1.709 4.268h.457c.479 0 .922-.24 1.183-.642s.301-.903.106-1.342l-.551-1.5h1.673c2.166.146 1.76.654 2.345 1.5h1.655v-3.092c.581-.207 1-.757 1-1.408s-.419-1.201-1-1.408zm-2 2.745c-.527-.208-1.183-.337-2-.337h-3v-2h3c.764 0 1.429-.117 2-.354z"/></svg>