<svg id="Layer_1" viewBox="0 0 24 24" xmlns="http://www.w3.org/2000/svg" data-name="Layer 1"><path d="m12.676 6.783c.811.811 1.753 1.217 2.686 1.217.706 0 1.403-.243 2.034-.711.254.31.447.68.516 1.092.206 1.213 1.122 2.13 2.337 2.336.626.115 1.137.402 1.46.895v.003c.259 1.195 1.14 2.182 2.289 2.35-.013-.562.063-1.819-.086-2.332-.181-.669-.562-1.254-.982-1.69-.624-.623-1.457-1.048-2.347-1.198-.368-.062-.636-.33-.697-.696-.148-.885-.571-1.713-1.188-2.334.601-1.324.298-2.828-.913-4.039-1.582-1.58-4.691-2.333-6.067-.958-.652.652-.874 1.769-.608 3.064.235 1.148.806 2.242 1.565 3.001zm.456-4.65c.087-.087.294-.135.571-.135.714 0 1.89.316 2.666 1.092 1.022 1.023.618 1.857.099 2.377-.521.52-1.354.925-2.378-.098-.482-.482-.863-1.226-1.021-1.989-.151-.736-.02-1.165.062-1.248zm-1.3 19.633c-.657-.174-.973-.922-1.08-1.513-.205-1.214-1.122-2.131-2.337-2.337-.414-.07-.811-.26-1.124-.522.443-.604.696-1.29.708-1.987.012-.679-.189-1.703-1.216-2.73-.759-.759-1.853-1.33-3.001-1.565-1.295-.266-2.412-.044-3.064.608-1.375 1.375-.623 4.485.958 6.065.999.999 1.995 1.217 2.673 1.217h.058c.453-.008.903-.117 1.329-.312 0 0 0 .001.002.002.624.624 1.457 1.05 2.346 1.199.368.062.636.329.698.697.15.89.576 1.724 1.231 2.377.412.382 1.042.82 1.657.951.508.149 1.776.074 2.332.087-.169-1.074-1.032-1.933-2.168-2.235zm-6.365-5.299c-.238.238-.622.524-1.098.533-.441-.005-.854-.205-1.28-.631-1.077-1.077-1.268-2.927-.958-3.236.172-.164.872-.158 1.248-.063.763.157 1.506.538 1.989 1.021.426.426.638.856.63 1.28-.008.475-.294.858-.532 1.097zm16.747 5.103c-.16-.083-.465-.335-.564-.416-.582-.582-.98-1.367-1.122-2.211-.275-1.626-1.504-2.854-3.131-3.13-.844-.143-1.629-.541-2.211-1.123s-.98-1.367-1.123-2.211c-.256-1.514-1.393-2.677-3.042-3.112-1.041-.274-1.42-.666-1.993-1.259.611-.779.955-1.654.972-2.573.022-1.205-.505-2.38-1.524-3.398-1.96-1.961-5.939-2.954-7.616-1.277s-.683 5.656 1.277 7.616c.999.999 2.147 1.524 3.326 1.524.719.001 1.409-.211 2.052-.578.716.735 1.353 1.44 2.995 1.878.417.11 1.406.477 1.58 1.511.211 1.25.808 2.419 1.681 3.292s2.043 1.471 3.292 1.682c.775.131 1.36.716 1.491 1.49.209 1.241.801 2.401 1.664 3.272v.002s.003.003.005.004c.005.005.008.01.013.015l.003-.003c.932.851 2.223 1.36 3.761 1.435-.131-1.01-.778-1.9-1.786-2.431zm-15.022-14.378c-.361.361-.948.794-1.693.808-.694.04-1.314-.304-1.948-.938-.688-.688-1.23-1.742-1.451-2.821-.21-1.021-.057-1.736.174-1.967.154-.154.524-.274 1.057-.274.265 0 .571.03.91.1 1.079.221 2.133.764 2.821 1.451.634.635.95 1.29.938 1.948-.013.745-.447 1.332-.808 1.693z"/></svg>