<svg id="Layer_1" viewBox="0 0 24 24" xmlns="http://www.w3.org/2000/svg" data-name="Layer 1"><path d="m13 17v4c0 .552.448 1 1 1s1-.448 1-1h2c0 1.654-1.346 3-3 3s-3-1.346-3-3v-4c0-1.654 1.346-3 3-3s3 1.346 3 3h-2c0-.552-.448-1-1-1s-1 .448-1 1zm-8 7h5v-2h-3v-2h2v-2h-2v-2h3v-2h-5zm15-19v2h4v2h-4v3h-2v-1h-4.5c-1.93 0-3.5-1.57-3.5-3.5v-.5h-6c-1.103 0-2 .897-2 2v11c0 .737.405 1.375 1 1.722v2.136c-1.721-.447-3-1.999-3-3.858v-11c0-2.206 1.794-4 4-4h6v-.5c0-1.93 1.57-3.5 3.5-3.5h4.5v-1h2v3h4v2zm-2-2h-4.5c-.827 0-1.5.673-1.5 1.5v3c0 .827.673 1.5 1.5 1.5h4.5zm6 14v4c0 1.654-1.346 3-3 3s-3-1.346-3-3v-4c0-1.654 1.346-3 3-3s3 1.346 3 3zm-2 0c0-.552-.448-1-1-1s-1 .448-1 1v4c0 .552.448 1 1 1s1-.448 1-1z"/></svg>