<svg id="Layer_1" viewBox="0 0 24 24" xmlns="http://www.w3.org/2000/svg" data-name="Layer 1"><path d="m21.627 15.165-.906-.488 2.685-5.754-1.812-.846-2.637 5.65-.774-.417c-1.192-.644-2.658-.268-3.408.879-1.035 1.631-2.552 3.264-4.066 4.639 3.291 3.172 6.214 4.223 9.161 5.068 1.228-1.535 2.483-3.277 3.074-5.904.237-1.122-.306-2.285-1.317-2.827zm-.64 2.414c-.334 1.581-1.127 2.978-1.854 3.996-.358-.123-.719-.271-1.08-.419.263-.818.446-1.717.446-2.656-.678.848-1.411 1.459-2.086 1.905-.986-.506-1.923-1.076-2.726-1.677 1.054-1.092 1.999-2.269 2.764-3.447.176-.271.505-.359.782-.21l3.447 1.855c.231.124.36.398.306.652zm-12.487 4.421c-4.206 0-6.5-1.463-6.5-2.214v-2.327c1.535.954 3.835 1.541 6.5 1.541.17 0 .334-.007.5-.014v-1.998c-.165.006-.329.012-.5.012-3.968 0-6.5-1.48-6.5-2.5v-2.041c1.535.954 3.835 1.541 6.5 1.541 4.846 0 8.5-1.935 8.5-4.5v-5c0-2.565-3.654-4.5-8.5-4.5s-8.5 1.935-8.5 4.5v15.286c0 2.767 4.276 4.214 8.5 4.214 1.811 0 3.455-.271 4.804-.743-.793-.467-1.546-.965-2.223-1.486-.769.143-1.633.229-2.581.229zm0-20c3.968 0 6.5 1.48 6.5 2.5s-2.532 2.5-6.5 2.5-6.5-1.48-6.5-2.5 2.532-2.5 6.5-2.5zm-6.5 5.459c1.535.954 3.835 1.541 6.5 1.541s4.965-.588 6.5-1.541v2.041c0 1.02-2.532 2.5-6.5 2.5s-6.5-1.48-6.5-2.5z"/></svg>