<svg id="Layer_1" viewBox="0 0 24 24" xmlns="http://www.w3.org/2000/svg" data-name="Layer 1"><path d="m20 16.5c0 1.915-1.241 3.602-3 4.228v3.272h-2v-4.917l.857-.124c1.222-.176 2.143-1.234 2.143-2.46 0-1.378-1.121-2.5-2.5-2.5-.675 0-1.309.268-1.785.755l-.715.731-.715-.731c-.477-.487-1.11-.755-1.785-.755-1.379 0-2.5 1.122-2.5 2.5 0 1.226.921 2.284 2.143 2.46l.857.124v4.917h-2v-3.272c-1.759-.625-3-2.312-3-4.228 0-1.122.427-2.137 1.109-2.926-.486-.221-.938-.519-1.327-.907-1.354-1.354-1.669-3.425-.867-5.11l-4.915-4.729v-2.828l7.491 7.305-.519.694c-.739.988-.643 2.387.224 3.254.946.946 2.592.944 3.536 0 .478-.477.736-1.115.729-1.796l-.011-1.022 1.022.012c1.355.032 2.557-1.135 2.527-2.496 0-.667-.26-1.295-.732-1.768-.867-.868-2.266-.964-3.255-.225l-.693.519-4.613-4.477h2.864l2.002 1.9c1.689-.802 3.759-.485 5.11.868.851.85 1.318 1.979 1.318 3.182s-.468 2.332-1.318 3.182c-.639.639-1.437 1.061-2.305 1.23-.148.759-.499 1.456-1.009 2.048.218.1.431.215.632.35.734-.494 1.597-.76 2.5-.76 2.481 0 4.5 2.019 4.5 4.5zm-1.05-9.78c-.155 1.322-.711 2.551-1.604 3.551 1.379.409 2.563 1.266 3.394 2.399.168-.527.26-1.088.26-1.67 0-1.73-.801-3.272-2.05-4.28z"/></svg>