<svg id="Layer_1" viewBox="0 0 24 24" xmlns="http://www.w3.org/2000/svg" data-name="Layer 1"><path d="m21 2h-3v-2h-2v2h-8v-2h-2v2h-3c-1.654 0-3 1.346-3 3v19h6v-2h-4v-12h20v4.065c.748.13 1.428.453 2 .909v-9.974c0-1.654-1.346-3-3-3zm-19 6v-3c0-.551.448-1 1-1h18c.552 0 1 .449 1 1v3zm19.5 8h-2.5v8h1.6v-3h.922c1.366 0 2.477-1.108 2.478-2.474v-.026c0-1.381-1.119-2.5-2.5-2.5zm0 3.4h-.9v-1.8h.9c.496 0 .9.404.9.9s-.404.9-.9.9zm-7.5-3.4h3.5v1.6h-1.9v1.65h1.9v1.6h-1.9v1.551h1.9v1.6h-3.5v-8zm-1.037 5.972c-.191 1.175-1.215 2.028-2.436 2.028-.965 0-1.873-.413-2.506-1.136l1.009-1.006c.373.406.925.646 1.497.646.604 0 1.031-.404 1.096-.795.089-.55-.602-.873-.817-.959-.915-.371-1.751-.78-1.753-.78-.692-.484-1.027-1.231-.921-2.049.111-.845.674-1.534 1.471-1.796 1.324-.437 2.462.317 2.863.686l-.86 1.113c-.219-.166-.881-.602-1.611-.367-.412.136-.517.447-.515.577.005.442.335.57.433.615.282.128.806.368 1.366.595 1.461.591 1.828 1.745 1.685 2.627z"/></svg>