<svg id="Layer_1" viewBox="0 0 24 24" xmlns="http://www.w3.org/2000/svg" data-name="Layer 1"><path d="m23.546 3.941-3.339-3.339-1.414 1.414 1.984 1.984h-17.554l1.984-1.984-1.414-1.414-3.339 3.338c-.292.292-.454.681-.454 1.095s.161.803.454 1.096l3.339 3.339 1.414-1.414-2.056-2.056h17.698l-2.056 2.056 1.414 1.414 3.339-3.339c.293-.292.454-.682.454-1.096s-.162-.802-.454-1.094zm-18.046 14.059c-1.93 0-3.5-1.57-3.5-3.5s1.57-3.5 3.5-3.5 3.5 1.57 3.5 3.5-1.57 3.5-3.5 3.5zm0-5c-.827 0-1.5.673-1.5 1.5s.673 1.5 1.5 1.5 1.5-.673 1.5-1.5-.673-1.5-1.5-1.5zm5.5 8.5c0-1.378-1.122-2.5-2.5-2.5h-6c-1.378 0-2.5 1.122-2.5 2.5v2.5h2v-2.5c0-.276.224-.5.5-.5h6c.276 0 .5.224.5.5v2.5h2zm13 0c0-1.378-1.122-2.5-2.5-2.5h-6c-1.378 0-2.5 1.122-2.5 2.5v2.5h2v-2.5c0-.276.224-.5.5-.5h6c.276 0 .5.224.5.5v2.5h2zm-1.159-3.233c-.447-.17-.93-.267-1.436-.267h-.649l-.641-3.462c-.097-.654-.616-1.538-1.616-1.538-.802 0-1.452.65-1.452 1.452 0 .744.561 1.35 1.282 1.435l.392 2.113h-3.116c-.531 0-1.038.105-1.503.292l.816-4.122c.275-1.81 1.809-3.17 3.582-3.17s3.307 1.361 3.582 3.17l.76 4.097z"/></svg>