<?xml version="1.0" encoding="UTF-8"?>
<svg xmlns="http://www.w3.org/2000/svg" id="Layer_1" data-name="Layer 1" viewBox="0 0 24 24">
  <path d="M19.857,0h-3.857V6h-7v-1.5C9,2.019,6.981,0,4.5,0S0,2.019,0,4.5v15c0,2.481,2.019,4.5,4.5,4.5h15c2.361,0,4.304-1.828,4.486-4.143l.014-15.714c0-2.285-1.858-4.143-4.143-4.143ZM4.5,2c1.379,0,2.5,1.122,2.5,2.5V15.762c-.716-.48-1.575-.762-2.5-.762s-1.784,.282-2.5,.762V4.5c0-1.378,1.121-2.5,2.5-2.5ZM2,19.5c0-1.379,1.121-2.5,2.5-2.5s2.5,1.121,2.5,2.5-1.121,2.5-2.5,2.5-2.5-1.121-2.5-2.5Zm17.5,2.5H8.238c.48-.716,.762-1.575,.762-2.5V8h7v9h3.5c1.379,0,2.5,1.121,2.5,2.5s-1.121,2.5-2.5,2.5Zm2.5-6.24c-.716-.479-1.576-.76-2.5-.76h-1.5V2h1.857c1.182,0,2.143,.961,2.143,2.143V15.76Z"/>
</svg>
