<?xml version="1.0" encoding="UTF-8"?>
<svg xmlns="http://www.w3.org/2000/svg" id="Layer_1" data-name="Layer 1" viewBox="0 0 24 24">
  <path d="M20.015,14h-.149c.042-.199,.088-.394,.123-.598,.14-.818-.094-1.661-.642-2.312-.582-.69-1.432-1.087-2.334-1.088l-13.996-.003c-.901,0-1.751,.396-2.334,1.087C.134,11.738-.1,12.581,.04,13.399c1.031,6.014,5.096,10.135,5.268,10.308l.293,.293H14.429l.293-.293c.082-.082,1.044-1.064,2.14-2.707h3.153c2.168,0,4-1.767,4-3.857,0-1.938-1.533-3.143-4-3.143Zm-6.437,8H6.452c-.884-.994-3.665-4.419-4.44-8.938-.056-.323,.102-.568,.2-.686,.199-.235,.5-.376,.805-.376l13.995,.003c.306,0,.607,.141,.806,.377,.098,.117,.255,.361,.2,.685-.774,4.517-3.555,7.941-4.439,8.936Zm6.437-3h-1.967c.471-.897,.914-1.903,1.279-3h.688c1.327,0,2,.385,2,1.143,0,.989-.935,1.857-2,1.857ZM9.471,8.849l.529,.33,.529-.33c.458-.286,4.471-2.87,4.471-5.648,0-1.765-1.346-3.2-3-3.2-.752,0-1.46,.311-2,.806-.54-.495-1.248-.806-2-.806-1.654,0-3,1.436-3,3.2,0,2.778,4.013,5.362,4.471,5.648Zm-1.471-6.849c.554,0,1,.547,1,1h2c0-.453,.446-1,1-1s1,.538,1,1.2c0,1.062-1.613,2.617-3,3.598-1.387-.98-3-2.536-3-3.598,0-.662,.449-1.2,1-1.2Z"/>
</svg>
