<?xml version="1.0" encoding="UTF-8"?>
<svg xmlns="http://www.w3.org/2000/svg" id="Layer_1" data-name="Layer 1" viewBox="0 0 24 24">
  <path d="M15.251,19.801c0,1.886-3.274,4.202-3.274,4.202,0,0-3.274-2.316-3.274-4.202,0-.995,.733-1.801,1.637-1.801s1.637,.806,1.637,1.801c0-.995,.733-1.801,1.637-1.801s1.637,.806,1.637,1.801ZM6,6C6,2.691,8.691,0,12,0s6,2.691,6,6-2.691,6-6,6-6-2.691-6-6Zm2,0c0,2.206,1.794,4,4,4s4-1.794,4-4-1.794-4-4-4-4,1.794-4,4Zm8,8H8c-2.757,0-5,2.243-5,5v5h2v-5c0-1.654,1.346-3,3-3h8c1.654,0,3,1.346,3,3v5h2v-5c0-2.757-2.243-5-5-5Z"/>
</svg>
