<svg id="Layer_1" viewBox="0 0 24 24" xmlns="http://www.w3.org/2000/svg" data-name="Layer 1"><path d="m24 9v12.231c0 .742-.273 1.455-.772 2.01l-.685.759h-2.693l1.893-2.098c.166-.185.258-.423.258-.671v-12.231c0-.551-.448-1-1-1s-1 .449-1 1v8h-.009c0 .684-.228 1.369-.693 1.922l-2.578 2.685-1.441-1.387 2.533-2.634c.13-.157.192-.368.188-.586 0-.238-.086-.478-.255-.668-.348-.406-1.015-.444-1.406-.077l-2.908 2.676c.365.507.569 1.121.569 1.755v3.314h-2v-3.314c0-.279-.118-.547-.323-.735l-4.026-3.705c-.398-.357-1.03-.323-1.397.086-.328.367-.337.928-.021 1.305l2.57 2.671-1.441 1.386-2.616-2.721c-.488-.579-.727-1.279-.732-1.972h-.014v-8c0-.551-.449-1-1-1s-1 .449-1 1v12.231c0 .248.092.486.258.671l1.893 2.098h-2.695l-.685-.759c-.499-.555-.772-1.268-.772-2.01v-12.231c0-1.654 1.346-3 3-3s3 1.346 3 3v5.186c.999-.352 2.152-.177 2.996.579l3.004 2.765 2.995-2.756c.605-.543 1.379-.813 2.173-.769.29.016.566.086.832.18v-5.184c0-1.654 1.346-3 3-3s3 1.346 3 3zm-15.946-1c1.057 0 1.928-.799 2.042-1.826h.013v-.575l-.93-2.599h1.821v6h-3v2h8v-2h-3v-6h1.842l-.842 2.664v.336c0 1.104.895 2 2 2s2-.896 2-2v-.336l-1.5-4.664h-3.5v-1h-2v1h-3.5l-1.5 4.612v.333c0 1.134.919 2.054 2.054 2.054z"/></svg>