<svg id="Layer_1" viewBox="0 0 24 24" xmlns="http://www.w3.org/2000/svg" data-name="Layer 1"><path d="m16.347 8.14c-.917-.312-1.916-.099-2.581.524l-1.766 1.518-1.735-1.489c-.697-.652-1.698-.863-2.612-.553-.867.295-1.471.998-1.616 1.879-.115.693.042 1.424.485 2.076l1.879 2.327c.58.869 1.327 1.532 2.162 1.918.495.229.979.344 1.437.344s.941-.115 1.438-.344c.821-.38 1.559-1.029 2.135-1.88l1.957-2.435c.391-.583.548-1.313.434-2.005-.145-.883-.749-1.586-1.616-1.881zm-.427 2.701-1.986 2.472c-.375.562-.837.981-1.334 1.211-.456.209-.747.209-1.2 0-.499-.229-.96-.648-1.389-1.283l-1.881-2.33c-.257-.34-.131-.949.358-.908.138 0 .296.045.44.18l3.07 2.637 3.101-2.665c.187-.176.442-.175.602-.12.326.039.356.62.218.808zm8.08 5.159c0 1.105-.895 2-2 2-.366 0-.705-.106-1-.277v6.277h-2v-7.732c-.589-.271-1-.863-1-1.554 0-.947.768-1.714 1.714-1.714.74 0 1.364.471 1.604 1.127.214-.078.441-.127.681-.127 1.105 0 2 .895 2 2zm-18-1.286c0 .691-.411 1.283-1 1.554v7.732h-2v-6.277c-.295.172-.634.277-1 .277-1.105 0-2-.895-2-2s.895-2 2-2c.24 0 .468.049.681.127.24-.656.865-1.127 1.604-1.127.947 0 1.714.768 1.714 1.714zm9.5 6.286c.347 0 .92-.366 1.5-.867v2.432c-.488.259-.997.435-1.5.435-1.209 0-2.077-.78-2.775-1.407-.246-.222-.618-.556-.767-.597-.066.041-.438.375-.684.597-.698.627-1.566 1.407-2.775 1.407-.503 0-1.012-.176-1.5-.435v-2.432c.58.502 1.153.867 1.5.867.442 0 .948-.455 1.438-.895.604-.544 1.229-1.105 2.062-1.105s1.458.562 2.062 1.105c.489.439.995.895 1.438.895zm-14.655-8.81c-.536-1.25-.845-2.559-.845-3.69 0-3.584 2.916-6.5 6.5-6.5 1.695 0 3.295.66 4.5 1.82v-3.82h2v3.82c1.205-1.16 2.805-1.82 4.5-1.82 3.584 0 6.5 2.916 6.5 6.5 0 1.131-.309 2.441-.845 3.69-.286-.087-.582-.143-.891-.164-.277-.263-.595-.478-.942-.646.417-.96.678-1.978.678-2.881 0-2.481-2.019-4.5-4.5-4.5-1.52-.016-2.89.783-3.771 2h-3.457c-.881-1.217-2.252-2.016-3.771-2-2.481 0-4.5 2.019-4.5 4.5 0 .903.261 1.921.678 2.881-.347.168-.665.383-.942.646-.309.021-.605.077-.891.164z"/></svg>