<?xml version="1.0" encoding="UTF-8"?>
<svg xmlns="http://www.w3.org/2000/svg" id="Layer_1" data-name="Layer 1" viewBox="0 0 24 24">
  <path d="M24,6v15H11v-2h11V6c0-.551-.448-1-1-1H11V3h10c1.654,0,3,1.346,3,3ZM5,19H2V6c0-.551,.449-1,1-1h2V3H3c-1.654,0-3,1.346-3,3v15H5v-2Zm12-2V9h3v-2H12v2h3v8h2Zm-8,4V3c0-.551,.449-1,1-1h1.5V0h-1.5c-.771,0-1.468,.301-2,.78-.532-.48-1.229-.78-2-.78h-1.5V2h1.5c.551,0,1,.449,1,1V21c0,.552-.449,1-1,1h-1.5v2h1.5c.771,0,1.468-.301,2-.78,.532,.48,1.229,.78,2,.78h1.5v-2h-1.5c-.551,0-1-.448-1-1Z"/>
</svg>
