<?xml version="1.0" encoding="UTF-8"?>
<svg xmlns="http://www.w3.org/2000/svg" id="Layer_1" data-name="Layer 1" viewBox="0 0 24 24">
  <path d="M17.74,22l2,2h-5.74v.013H2.117L.056,7.569c-.187-.832,.053-1.859,.712-2.541l1.422,1.422c-.158,.229-.227,.505-.165,.779l.097,.771h1.618l2,2H2.373l1.509,12.013h4.681c-.349-.594-.563-1.276-.563-2.013v-4c0-1.036,.406-1.973,1.055-2.685l1.414,1.414c-.288,.347-.469,.786-.469,1.271v1h2.74l2,2h-4.74v1c0,1.103,.897,2,2,2h5.74Zm6.26-2c0,.719-.213,1.407-.57,2.015l.528,.528-1.414,1.414L.043,1.457,1.457,.043l3.97,3.97h4.176L10.117,.013h6.883v1.987h-5.117l-.26,2.013h2.376c.916,0,1.769,.41,2.342,1.125,.572,.714,.786,1.636,.586,2.53l-.54,4.333h3.613c2.206,0,4,1.794,4,4v4Zm-4-6h-4.586l3,3h3.586v-1c0-1.103-.897-2-2-2Zm-5.628-2l.251-2h-3.209l2,2h.958Zm-3.008-5.987l-.257,1.987h3.766l.085-.676c.171-.704-.286-1.301-.96-1.312h-2.634Zm-3.938,0l1.699,1.699,.219-1.699h-1.918Zm14.499,14.499c.044-.166,.075-.336,.075-.511v-1h-1.586l1.511,1.511Z"/>
</svg>
