<?xml version="1.0" encoding="UTF-8"?>
<svg xmlns="http://www.w3.org/2000/svg" id="Layer_1" data-name="Layer 1" viewBox="0 0 24 24">
  <path d="m24,5.546v.454c0,1.654-1.346,3-3,3h-3v2.153c.89.227,2.212.797,3.3,2.247l-1.6,1.199c-.557-.742-1.186-1.135-1.7-1.348v2.248c0,.71-.123,1.395-.339,2.044-.332-1.177-.908-2.247-1.661-3.175v-7.368h5c.552,0,1-.448,1-1v-.454c0-1.715-1.28-3.191-2.979-3.434-2.066-.297-4.138.441-5.545,1.969-2.168,2.353-5.141,6.078-6.992,10.467-.386.914-1.295,1.451-2.37,1.451-.221,0-.449-.022-.682-.069-.24-.049-.482-.132-.721-.233,1.058,2.25,3.205,3.875,5.802,4.143.836.087,1.708.137,2.603.161,0,0,2.18.003,2.846-.025-.158-1.369-1.002-4.725-5.497-4.949.289-.66.606-1.301.941-1.927,5.166.673,6.594,5.012,6.594,7.401v1.5h2.5v2h-4.5v-2.032l-2,.032v2h-2v-2.043c-.574-.031-1.142-.071-1.692-.128C3.572,21.34,0,17.334,0,12.51v-4.51h2v3.278c0,1.832,1.15,2.554,1.829,2.691.325.066.716.031.812-.199,1.963-4.654,5.088-8.575,7.364-11.045C13.86.713,16.59-.252,19.305.132c2.677.383,4.695,2.71,4.695,5.414Z"/>
</svg>
