<svg id="Layer_1" viewBox="0 0 24 24" xmlns="http://www.w3.org/2000/svg" data-name="Layer 1"><path d="m24 3v4h-1c-1.085 0-1.967.87-1.995 1.949-.608-.303-1.253-.539-1.929-.699.29-1.52 1.439-2.74 2.924-3.123v-2.127c0-.552-.449-1-1-1h-18c-.551 0-1 .448-1 1v2.115c1.767.432 3.082 2.028 3.082 3.926s-1.315 3.494-3.082 3.926v2.033c0 .552.449 1 1 1h5.059c-.036.329-.059.662-.059 1s.022.671.059 1h-5.059c-1.654 0-3-1.346-3-3v-4h1.094c1.101-.028 1.987-.852 1.987-1.959s-.884-2.009-1.982-2.04c-.008.004-1.055.003-1.1.003v-4.004c.001-1.654 1.347-3 3.001-3h18c1.654 0 3 1.346 3 3zm-8.08 13h2.16c.282-1.955 1.369-3.651 2.92-4.736-1.135-.794-2.513-1.264-4-1.264s-2.865.47-4 1.264c1.551 1.085 2.638 2.781 2.92 4.736zm-5.84 2c.178 1.236.677 2.367 1.414 3.308 1.214-.706 2.116-1.89 2.405-3.308zm1.414-5.308c-.737.94-1.236 2.072-1.414 3.308h3.819c-.289-1.418-1.191-2.602-2.405-3.308zm8.607 3.308h3.819c-.178-1.236-.677-2.367-1.414-3.308-1.214.706-2.116 1.89-2.405 3.308zm-2.021 2h-2.16c-.282 1.955-1.369 3.651-2.92 4.736 1.135.794 2.513 1.264 4 1.264s2.865-.47 4-1.264c-1.551-1.085-2.638-2.781-2.92-4.736zm4.426 3.308c.737-.94 1.236-2.072 1.414-3.308h-3.819c.289 1.418 1.191 2.602 2.405 3.308z"/></svg>