<svg id="Layer_1" viewBox="0 0 24 24" xmlns="http://www.w3.org/2000/svg" data-name="Layer 1"><path d="m17 10c-2.785 0-5.188 1.639-6.315 4h-1.685v4h1.08c.488 3.386 3.401 6 6.92 6 3.859 0 7-3.141 7-7s-3.141-7-7-7zm0 12c-2.757 0-5-2.243-5-5s2.243-5 5-5 5 2.243 5 5-2.243 5-5 5zm2.957-6.543-1.543 1.543 1.543 1.543-1.414 1.414-1.543-1.543-1.543 1.543-1.414-1.414 1.543-1.543-1.543-1.543 1.414-1.414 1.543 1.543 1.543-1.543zm-10.439 6.543h-6.518c-.551 0-1-.448-1-1v-11h9.349c1.545-1.249 3.51-2 5.651-2v-1c0-3.86-3.141-7-7-7s-7 3.14-7 7v1h-3v13c0 1.654 1.346 3 3 3h8.349c-.706-.571-1.325-1.244-1.831-2zm-4.518-15c0-2.757 2.243-5 5-5s5 2.243 5 5v1h-10z"/></svg>