<?xml version="1.0" encoding="UTF-8"?>
<svg xmlns="http://www.w3.org/2000/svg" id="Layer_1" data-name="Layer 1" viewBox="0 0 24 24">
  <path d="M21,2H12.236L8.236,0H3C1.346,0,0,1.346,0,3V22H9.518c-.412-.616-.743-1.289-.995-2H2V8H22v1.518c.756,.506,1.429,1.125,2,1.831V5c0-1.654-1.346-3-3-3ZM2,6V3c0-.551,.449-1,1-1H7.764l4,2h9.236c.552,0,1,.449,1,1v1H2Zm15,4c-3.859,0-7,3.141-7,7s3.141,7,7,7,7-3.141,7-7-3.141-7-7-7Zm0,12c-2.757,0-5-2.243-5-5s2.243-5,5-5,5,2.243,5,5-2.243,5-5,5Zm1-6h2v2h-2v2h-2v-2h-2v-2h2v-2h2v2Z"/>
</svg>
