<svg id="Layer_1" viewBox="0 0 24 24" xmlns="http://www.w3.org/2000/svg" data-name="Layer 1"><path d="m19.5 0c-1.496 0-2.815.742-3.634 1.869-.917-1.13-2.3-1.869-3.866-1.869s-2.949.738-3.866 1.869c-.819-1.127-2.137-1.869-3.634-1.869-2.481 0-4.5 2.019-4.5 4.5v19.5h2v-.5c0-1.378 1.121-2.5 2.5-2.5s2.5 1.122 2.5 2.5v.5h2c0-1.654 1.346-3 3-3s3 1.346 3 3h2v-.5c0-1.378 1.121-2.5 2.5-2.5s2.5 1.122 2.5 2.5v.5h2v-19.5c0-2.481-2.019-4.5-4.5-4.5zm-2.5 4.5c0-1.378 1.121-2.5 2.5-2.5s2.5 1.122 2.5 2.5v2.262c-.716-.48-1.575-.762-2.5-.762s-1.784.282-2.5.762zm-2 8.526c-.838-.635-1.87-1.026-3-1.026s-2.162.391-3 1.026v-2.026c0-1.654 1.346-3 3-3s3 1.346 3 3zm-3-11.026c1.654 0 3 1.346 3 3v2.026c-.838-.635-1.87-1.026-3-1.026s-2.162.391-3 1.026v-2.026c0-1.654 1.346-3 3-3zm-7.5 0c1.379 0 2.5 1.122 2.5 2.5v2.262c-.716-.48-1.575-.762-2.5-.762s-1.784.282-2.5.762v-2.262c0-1.378 1.121-2.5 2.5-2.5zm0 6c1.379 0 2.5 1.122 2.5 2.5v2.262c-.716-.48-1.575-.762-2.5-.762s-1.784.282-2.5.762v-2.262c0-1.378 1.121-2.5 2.5-2.5zm0 11c-.925 0-1.784.282-2.5.762v-3.262c0-1.378 1.121-2.5 2.5-2.5s2.5 1.122 2.5 2.5v3.262c-.716-.48-1.575-.762-2.5-.762zm7.5 0c-1.125 0-2.164.374-3 1.002v-3.002c0-1.654 1.346-3 3-3s3 1.346 3 3v3.002c-.836-.629-1.875-1.002-3-1.002zm10 .762c-.716-.48-1.575-.762-2.5-.762s-1.784.282-2.5.762v-3.262c0-1.378 1.121-2.5 2.5-2.5s2.5 1.122 2.5 2.5zm0-7c-.716-.48-1.575-.762-2.5-.762s-1.784.282-2.5.762v-2.262c0-1.378 1.121-2.5 2.5-2.5s2.5 1.122 2.5 2.5z"/></svg>