<svg id="Layer_1" viewBox="0 0 24 24" xmlns="http://www.w3.org/2000/svg" data-name="Layer 1"><circle cx="10.5" cy="2.5" r="2.5"/><path d="m6 2h-6v10h6zm-4 2h2v2h-2zm2 6h-2v-2h2z"/><path d="m22 17.351v-.851l-2.231-8.5h-3.576l-4.821-1.929c-.914-.252-1.938.011-2.572.566-.516.45-.799 1.092-.799 1.809v4.277c0 1.126.622 2.148 1.627 2.667l3.373 1.722v2.888h-2v2h6.351c.564 1.178 1.758 2 3.149 2 1.93 0 3.5-1.57 3.5-3.5 0-1.391-.822-2.585-2-3.149zm-12-4.628v-4.277c0-.179.058-.253.115-.303.134-.117.37-.181.644-.162l.241.096v5.769l-.459-.234c-.334-.173-.541-.513-.541-.889zm7.051 7.277h-2.051v-4.112l-2-1.021v-5.99l2.808 1.123h2.424l1.769 6.631v.42c-1.527.221-2.728 1.423-2.949 2.949zm3.449 2c-.827 0-1.5-.673-1.5-1.5s.673-1.5 1.5-1.5 1.5.673 1.5 1.5-.673 1.5-1.5 1.5z"/><path d="m8.32 17.124-2.037-3.124h-6.283v2h1.706c-1.032.825-1.706 2.079-1.706 3.5 0 2.481 2.019 4.5 4.5 4.5s4.5-2.019 4.5-4.5c0-.872-.26-1.679-.691-2.369zm-3.82 4.876c-1.379 0-2.5-1.122-2.5-2.5s1.121-2.5 2.5-2.5c1.387 0 2.501 1.138 2.5 2.5 0 1.378-1.121 2.5-2.5 2.5z"/></svg>