<svg id="Layer_1" viewBox="0 0 24 24" xmlns="http://www.w3.org/2000/svg" data-name="Layer 1"><path d="m24 3v17c0 2.206-1.794 4-4 4h-16c-2.206 0-4-1.794-4-4v-17h2c0 1.103.897 2 2 2h3c0 .712.154 1.387.422 2h-3.422c-.732 0-1.409-.212-2-.556v13.556c0 1.103.897 2 2 2h16c1.103 0 2-.897 2-2v-13.556c-.591.344-1.268.556-2 .556h-3.422c.268-.613.422-1.288.422-2h3c1.103 0 2-.897 2-2zm-15 2c0-1.302.839-2.402 2-2.816v-2.184h2v2.184c1.161.414 2 1.514 2 2.816 0 .841-.35 1.599-.909 2.145l2.241 4.855h2.668v2h-1.745l1.653 3.581-1.816.838-2.04-4.419h-6.104l-2.04 4.419-1.816-.838 1.653-3.581h-1.745v-2h2.668l2.241-4.855c-.559-.545-.909-1.304-.909-2.145zm3.27 2.973c-.179.032-.361.032-.54 0l-1.859 4.027h4.258zm-1.27-2.973c0 .551.448 1 1 1s1-.449 1-1-.448-1-1-1-1 .449-1 1z"/></svg>