<svg id="Layer_1" viewBox="0 0 24 24" xmlns="http://www.w3.org/2000/svg" data-name="Layer 1"><path d="m22 2c0 1.609-.643 3.101-1.857 4.311-1.742 1.735-4.497 2.689-7.643 2.689h-.5v-2h-2v2h-2v-2h-2v2l-2.495.006h-.008c-.933 0-1.81.362-2.471 1.021-.662.661-1.026 1.54-1.026 2.476 0 1.929 1.568 3.497 3.497 3.497h2.503v3h-3.5l-2.5-1v4l2.5-1h12c1.93 0 3.5-1.57 3.5-3.5s-1.57-3.5-3.5-3.5h-2.5v-3h.5c3.115 0 5.938.962 7.649 2.666 1.211 1.206 1.851 2.704 1.851 4.334h2v-16zm-18.503 12c-.825 0-1.497-.672-1.497-1.497 0-.4.156-.777.439-1.06.282-.282.661-.443 1.061-.443h2.5v3zm4.503 2h2v3h-2zm6.5 0c.827 0 1.5.673 1.5 1.5s-.673 1.5-1.5 1.5h-2.5v-3zm-4.5-2h-2v-3h2zm11.561-1.751c-.967-.964-2.175-1.712-3.544-2.25 1.363-.548 2.567-1.305 3.538-2.271.158-.157.303-.322.446-.488v5.49c-.141-.164-.284-.326-.439-.481z"/></svg>