<svg id="Layer_1" viewBox="0 0 24 24" xmlns="http://www.w3.org/2000/svg" data-name="Layer 1"><path d="m10 4c0 .551-.449 1-1 1h-1c-.551 0-1-.449-1-1s.449-1 1-1h1c.551 0 1 .449 1 1zm14 14.5c0 1.378-1.122 2.5-2.5 2.5-1.193 0-2.189-.841-2.438-1.96-1.402.052-3.024.173-4.562.46-2.817.524-6.341.5-8.5.5v-2c2.108-.001 6.188-.583 9-1.122v-9.878c0-.551-.449-1-1-1h-1v6h-9v-6h-1c-.551 0-1 .449-1 1v17h-2v-17c0-1.654 1.346-3 3-3h1v-2c0-1.105.895-2 2-2h5c1.105 0 2 .895 2 2v2h1c1.654 0 3 1.346 3 3v9.518c1.718-.297 3.283-.518 4.5-.518 1.378 0 2.5 1.122 2.5 2.5zm-13-14.5c0-1.103-.897-2-2-2h-1c-1.103 0-2 .897-2 2s.897 2 2 2v4h2v-1h-1v-3c1.103 0 2-.897 2-2zm4 20h2v-2.815c-.715.068-1.389.151-2 .261z"/></svg>