<?xml version="1.0" encoding="UTF-8"?>
<svg xmlns="http://www.w3.org/2000/svg" id="Layer_1" data-name="Layer 1" viewBox="0 0 24 24">
  <path d="M24.062,24H-.04L2.675,8.483h0c.221-1.256,1.197-2.211,2.412-2.433,.102,.679,.303,1.334,.598,1.95h-.054c-.487,0-.901,.348-.985,.828,0,0,0,0,0,0l-2.305,13.171H11v-2h2v2h8.679l-2.317-13.173h0c-.085-.479-.499-.827-.985-.827h-.058c.293-.615,.493-1.271,.595-1.952,1.217,.22,2.195,1.175,2.417,2.431,0,0,0,0,0,0h0s2.729,15.52,2.729,15.52ZM8.482,8.552c-.959-.957-1.482-2.216-1.482-3.552C6.944,2.312,9.313-.055,12,0c2.687-.055,5.056,2.312,5,5,0,1.336-.521,2.592-1.465,3.536l-3.535,3.458-3.518-3.442Zm.518-3.552c0,.802,.315,1.558,.888,2.129l2.112,2.067,2.129-2.083c.559-.559,.871-1.312,.871-2.114,.033-1.613-1.388-3.033-3-3-1.612-.033-3.033,1.387-3,3Zm3,1.5c.828,0,1.5-.672,1.5-1.5s-.672-1.5-1.5-1.5-1.5,.672-1.5,1.5,.672,1.5,1.5,1.5Zm-1,11.5h2v-4h-2v4Z"/>
</svg>
