<svg id="Layer_1" viewBox="0 0 24 24" xmlns="http://www.w3.org/2000/svg" data-name="Layer 1"><path d="m17.5 0c-3.584 0-6.5 2.916-6.5 6.5s2.916 6.5 6.5 6.5 6.5-2.916 6.5-6.5-2.916-6.5-6.5-6.5zm0 11c-2.481 0-4.5-2.019-4.5-4.5s2.019-4.5 4.5-4.5 4.5 2.019 4.5 4.5-2.019 4.5-4.5 4.5zm2.942-5h-1.942v3h-2v-3h-2.058l2.342-2.342c.363-.363.952-.363 1.316 0zm-8.442 15.5v2.5h-2v-2.5c0-.827-.673-1.5-1.5-1.5h-5c-.827 0-1.5.673-1.5 1.5v2.5h-2v-2.5c0-1.93 1.57-3.5 3.5-3.5h5c1.93 0 3.5 1.57 3.5 3.5zm-6-5.5c2.206 0 4-1.794 4-4s-1.794-4-4-4-4 1.794-4 4 1.794 4 4 4zm0-6c1.103 0 2 .897 2 2s-.897 2-2 2-2-.897-2-2 .897-2 2-2z"/></svg>