<?xml version="1.0" encoding="UTF-8"?>
<svg xmlns="http://www.w3.org/2000/svg" id="Layer_1" data-name="Layer 1" viewBox="0 0 24 24">
  <path d="M11.951,20.691l.189,.177c-.535,.085-1.082,.132-1.64,.132C4.71,21,0,16.29,0,10.5S4.71,0,10.5,0c5.332,0,9.74,3.999,10.404,9.154-.287-.091-.587-.154-.904-.154-.392,0-.764,.08-1.107,.217-.622-4.078-4.143-7.217-8.393-7.217C5.813,2,2,5.813,2,10.5s3.813,8.5,8.5,8.5c.187,0,.366-.028,.549-.039,.102,.66,.406,1.268,.901,1.731Zm12.049-6.691v6c0,2.206-1.794,4-4,4-.864,0-1.66-.282-2.314-.75-.074-.04-4.369-4.02-4.369-4.02-.403-.377-.424-1.01-.047-1.413,.377-.404,1.011-.425,1.414-.048l1.317,1.232v-5.501c0-.553,.448-1,1-1s1,.447,1,1v3.5h1v-5c0-.553,.448-1,1-1s1,.447,1,1v5h1v-3c0-.553,.448-1,1-1s1,.447,1,1Zm-2,6v-1h-4v1c0,1.103,.897,2,2,2s2-.897,2-2ZM10.5,5c3.033,0,5.5,2.468,5.5,5.5s-2.467,5.5-5.5,5.5-5.5-2.468-5.5-5.5,2.467-5.5,5.5-5.5Zm0,2c-1.93,0-3.5,1.57-3.5,3.5s1.57,3.5,3.5,3.5,3.5-1.57,3.5-3.5-1.57-3.5-3.5-3.5Zm-1.5,3.5c0,.828,.672,1.5,1.5,1.5s1.5-.672,1.5-1.5-.672-1.5-1.5-1.5-1.5,.672-1.5,1.5Z"/>
</svg>
