<svg id="Layer_1" viewBox="0 0 24 24" xmlns="http://www.w3.org/2000/svg" data-name="Layer 1"><path d="m24 15v-12c0-1.654-1.346-3-3-3h-18c-1.654 0-3 1.346-3 3v12h11v3.184c-.847.302-1.514.969-1.816 1.816h-9.184v2h9.184c.414 1.161 1.514 2 2.816 2s2.402-.839 2.816-2h9.184v-2h-9.184c-.302-.847-.969-1.514-1.816-1.816v-3.184zm-2-12v4h-4v-5h3c.551 0 1 .449 1 1zm-19-1h3v5h-4v-4c0-.551.449-1 1-1zm9 20c-.551 0-1-.449-1-1s.449-1 1-1 1 .449 1 1-.449 1-1 1zm-4.446-9h-5.554v-4h4c0-1.256.481-2.269.976-3 .426-.619.729-.919 1.024-1.226v-2.774h8v2.653c.38.41.736.86 1.047 1.347.557.873.953 1.865.953 3h4v4h-5.554c-1.098 1.221-2.678 2-4.446 2s-3.348-.779-4.446-2zm4.446-9.333c-1.214 1.402-.97 4-1.812 4-.404 0-.858-1.391-.858-1.391-.663.685-1.33 1.574-1.33 2.725 0 2.209 1.791 4 4 4s4-1.791 4-4c0-2.316-2.737-4.07-4-5.333zm.884 7.967c-.244.244-.564.366-.883.366-.32 0-.64-.122-.884-.366-.488-.489-.488-1.28 0-1.767l.884-.884.884.884c.488.489.488 1.279 0 1.767z"/></svg>