<svg id="Layer_1" viewBox="0 0 24 24" xmlns="http://www.w3.org/2000/svg" data-name="Layer 1"><path d="m9.014 10.488c1.62-1.058 4.407-3.304 4.908-6.487h-9.842c.506 3.157 3.298 5.414 4.934 6.487zm1.947-4.488c-.561.801-1.274 1.481-1.943 2.018-.643-.52-1.371-1.206-1.95-2.018zm6.039 4c-3.866 0-7 3.134-7 7s3.134 7 7 7 7-3.134 7-7-3.134-7-7-7zm-1.479 5.74 3.286.548c1.271.211 2.193 1.3 2.193 2.588 0 1.447-1.177 2.624-2.624 2.624h-.376v1h-2v-1c-1.654 0-3-1.346-3-3h2c0 .551.449 1 1 1h2.376c.344 0 .624-.28.624-.624 0-.307-.22-.565-.521-.616l-3.286-.548c-1.27-.211-2.192-1.3-2.192-2.588 0-1.447 1.177-2.624 2.624-2.624h.376v-1h2v1c1.654 0 3 1.346 3 3h-2c0-.551-.448-1-1-1h-2.376c-.344 0-.624.28-.624.624 0 .307.219.565.521.616zm-4.172 8.26h-11.349v-3c0-4.006 2.24-7.013 4.442-9-2.202-1.987-4.442-4.994-4.442-9 0-1.653 1.346-3 3-3h12c1.668-.009 2.971 1.369 3 2.999 0 1.899-.511 3.566-1.272 5.014-.927.028-1.817.194-2.653.482 1.099-1.488 1.925-3.326 1.925-5.496 0-.552-.449-1-1-1h-12c-.551 0-1 .449-1 1 0 3.774 2.508 6.551 4.612 8.216l.991.784-.991.784c-2.104 1.665-4.612 4.441-4.612 8.216v1h7.518c.506.756 1.125 1.429 1.831 2z"/></svg>