<svg id="Layer_1" viewBox="0 0 24 24" xmlns="http://www.w3.org/2000/svg" data-name="Layer 1"><path d="m21.833 11.367c-1.142-.822-2.79-.656-3.834.386l-1.769 1.769c-.137-.275-.307-.538-.535-.767-.522-.521-1.194-.791-1.878-.834-.045-.709-.33-1.372-.837-1.88-.229-.229-.491-.399-.766-.536l2.449-2.449c1.043-1.043 1.209-2.69.387-3.834-.994-1.45-3.228-1.64-4.443-.368l-5.147 5.147-2.457-.003c-1.654 0-3 1.346-3 3v13h14.009l8.189-8.189c1.269-1.212 1.083-3.45-.368-4.443zm-7.551 4.103-1.36 1.36c-.348.349-.955.347-1.3 0-.358-.341-.358-.958 0-1.301l1.357-1.357c.358-.359.942-.359 1.301 0 .359.358.359.94.003 1.299zm-3.368-4.283c.235 0 .471.09.65.27.357.343.357.958 0 1.301l-1.357 1.358c-.36.36-.943.358-1.302 0-.358-.359-.358-.942 0-1.302l1.357-1.357c.18-.18.415-.27.651-.27zm1.105-6.917c.431-.364.958-.415 1.405.123.252.35.174.899-.178 1.251l-4.057 4.057c-.276-.567-.723-1.028-1.276-1.327l4.105-4.105zm8.768 10.127-7.604 7.604h-11.183v-11.001c0-.552.448-1 .999-1l3.501.004c.552 0 1 .448 1 1s-.448 1-.998 1l-2.5-.004-.004 2 2.502.004c.064 0 .124-.015.187-.019.102.566.368 1.108.804 1.544.522.522 1.195.793 1.879.837.045.709.33 1.371.836 1.878.552.552 1.284.855 2.064.855s1.513-.304 2.064-.855l5.077-5.076c.353-.353.901-.431 1.25-.178.467.315.525 1.019.124 1.406zm3.063-9.993s-4.508 4.597-4.508 4.597h-1.342l1.5-3.002h-1.574c-.609.01-1.066-.611-.883-1.19l2.787-4.809h3.401l-1.731 2.998h1.595c.705-.019 1.156.829.755 1.405z"/></svg>