<?xml version="1.0" encoding="UTF-8"?>
<svg xmlns="http://www.w3.org/2000/svg" id="Layer_1" data-name="Layer 1" viewBox="0 0 24 24">
  <path d="M13.314,2.919l-.326-.457-.559,.04C4.96,3.036,.589,11.188,.407,11.535l-.245,.465,.245,.465c.183,.347,4.553,8.499,12.022,9.032l.559,.04,.326-.457c.109-.153,2.686-3.821,2.686-9.081S13.423,3.072,13.314,2.919Zm-1.329,16.521c-5.097-.719-8.575-5.852-9.538-7.44,.963-1.588,4.442-6.723,9.54-7.44,.204,.347,.489,.891,.78,1.569-2.719,.57-4.766,2.985-4.766,5.871s2.046,5.298,4.762,5.87c-.29,.677-.574,1.222-.777,1.57Zm1.861-5.456c-.1,.702-.238,1.358-.407,1.959-1.938-.276-3.439-1.93-3.439-3.943s1.502-3.669,3.443-3.944c.168,.6,.306,1.256,.405,1.959-1.032,.079-1.848,.932-1.848,1.985s.815,1.905,1.846,1.984Z"/>
  <path d="M21.122,8.378l-1.414,1.414,1.208,1.208h-2.915v2h2.915l-1.208,1.208,1.414,1.414,2.405-2.405c.67-.671,.67-1.762,0-2.433l-2.405-2.405Z"/>
  <path d="M16.637,5h4.278l-1.208,1.208,1.414,1.414,2.405-2.405c.67-.671,.67-1.762,0-2.433L21.122,.378l-1.414,1.414,1.208,1.208h-5.214c.286,.524,.615,1.194,.936,2Z"/>
  <path d="M21.121,16.378l-1.414,1.414,1.208,1.208h-4.278c-.321,.806-.65,1.476-.936,2h5.214l-1.208,1.208,1.414,1.414,2.405-2.405c.67-.671,.67-1.762,0-2.433l-2.405-2.405Z"/>
</svg>
