<?xml version="1.0" encoding="UTF-8"?>
<svg xmlns="http://www.w3.org/2000/svg" id="Layer_1" data-name="Layer 1" viewBox="0 0 24 24">
  <path d="M21,5H3c-1.654,0-3,1.346-3,3v10H24V8c0-1.654-1.346-3-3-3Zm1,11H2V8c0-.552,.448-1,1-1H21c.552,0,1,.448,1,1v8ZM8.5,8h1.6v7h-1.6v-7Zm-1,0v1.6h-1.2v5.4h-1.6v-5.4h-1.2v-1.6H7.5Zm6.25,0h-2.25v7h1.6v-2.5h.65c1.243,0,2.25-1.007,2.25-2.25s-1.007-2.25-2.25-2.25Zm0,2.9h-.65v-1.3h.65c.358,0,.65,.292,.65,.65s-.292,.65-.65,.65Zm7.25,2.023c0,1.386-1.205,2.134-2.339,2.134-1.168,0-2.234-.919-2.353-1.023l1.064-1.195c.271,.238,.863,.619,1.288,.619,.075,0,.739-.016,.739-.534,0-.253-.308-.44-1.042-.792-.815-.391-1.933-.925-1.933-2.208,0-1.172,.939-2.056,2.185-2.056,.938,0,1.877,.756,2.056,.907l-1.033,1.222c-.299-.25-.792-.529-1.022-.529-.06,0-.585,.013-.585,.456,0,.256,.405,.469,1.023,.765,.823,.394,1.951,.933,1.951,2.235Z"/>
</svg>
