<svg id="Layer_1" viewBox="0 0 24 24" xmlns="http://www.w3.org/2000/svg" data-name="Layer 1"><path d="m12 10c2.757 0 5-2.243 5-5s-2.243-5-5-5-5 2.243-5 5 2.243 5 5 5zm0-8c1.654 0 3 1.346 3 3s-1.346 3-3 3-3-1.346-3-3 1.346-3 3-3zm-11 4.5c0-.828.672-1.5 1.5-1.5s1.5.672 1.5 1.5-.672 1.5-1.5 1.5-1.5-.672-1.5-1.5zm13 11c0 .828-.672 1.5-1.5 1.5s-1.5-.672-1.5-1.5.672-1.5 1.5-1.5 1.5.672 1.5 1.5zm6-9c0-.828.672-1.5 1.5-1.5s1.5.672 1.5 1.5-.672 1.5-1.5 1.5-1.5-.672-1.5-1.5zm4 9.538v-2.263l-6.375-3.312c-.575-.304-1.222-.464-1.871-.464h-7.51c-.649 0-1.296.161-1.872.466l-6.372 3.388v2.263l6-3.188v7.073h-6v2h24v-2h-6v-7.086l6 3.125zm-16 3.962v-7.97c.082-.01.163-.03.245-.03h7.51c.082 0 .163.02.245.03v7.97z"/></svg>