<svg id="Layer_1" viewBox="0 0 24 24" xmlns="http://www.w3.org/2000/svg" data-name="Layer 1"><path d="m20.268 12.746c.586.586.586 1.536 0 2.121-.586.586-1.536.586-2.121 0s-.586-1.536 0-2.121c.586-.586 1.536-.586 2.121 0zm2.121 5.657c-1.168 1.168-2.783 1.739-4.413 1.585l-4.012 4.011h-4.944s-.024-5.485-.024-5.485h1.997l.015-2h2.25v-.393c-.602-1.96-.091-4.052 1.354-5.496 2.145-2.145 5.634-2.145 7.778 0s2.144 5.634 0 7.778zm-1.414-6.364c-1.365-1.364-3.585-1.364-4.95 0-.986.979-1.273 2.448-.768 3.759v2.716h-2.265l-.015 2h-1.974l.007 1.486h2.125s4.157-4.158 4.157-4.158c1.293.365 2.724.135 3.682-.853 1.364-1.365 1.364-3.586 0-4.95zm-18.975-1.996c0-.31.14-.597.384-.788l9-7.043c.362-.284.87-.284 1.232 0l6.134 4.8c2.024.067 3.843.931 5.153 2.294-.16-.638-.522-1.21-1.055-1.627l-8.999-7.042c-1.089-.852-2.608-.852-3.697 0l-9.001 7.043c-.731.572-1.151 1.434-1.151 2.363v13.957h7v-2h-5zm10.49-.016c.498-.667 1.098-1.253 1.786-1.723-2.99-.777-6.302-.006-8.64 2.333l1.414 1.414c1.489-1.489 3.487-2.159 5.439-2.023zm-1.474 4.151c.031-.739.168-1.45.398-2.119-1.078.127-2.124.581-2.949 1.406l1.414 1.414c.331-.331.723-.557 1.137-.701z"/></svg>