<svg id="Layer_1" viewBox="0 0 24 24" xmlns="http://www.w3.org/2000/svg" data-name="Layer 1"><path d="m5.689 14.593c-.426.759-.689 1.628-.689 2.567 0 .356.048.704.12 1.048-.07.254-.12.516-.12.792v5h-2v-5c0-1.919 1.099-3.569 2.689-4.407zm12.622 0c.426.759.689 1.628.689 2.567 0 .356-.048.704-.12 1.048.07.254.12.516.12.792v5h2v-5c0-1.919-1.099-3.569-2.689-4.407zm-1.311 2.567c-.228 3.133-3.803 5.36-5 6.258-1.192-.893-4.776-3.129-5-6.258 0-1.742 1.346-3.16 3-3.16.782 0 1.477.267 2 .718.523-.451 1.218-.718 2-.718 1.654 0 3 1.418 3 3.16zm-2 0c0-.64-.449-1.16-1-1.16-.473-.008-1.025.284-1 1h-2c.025-.716-.527-1.008-1-1-.551 0-1 .521-1 1.16 0 1.047 1.605 2.707 3 3.797 1.395-1.09 3-2.75 3-3.797zm3-11.16c0 3.309-2.691 6-6 6s-6-2.691-6-6 2.691-6 6-6 6 2.691 6 6zm-2 0c0-2.206-1.794-4-4-4s-4 1.794-4 4 1.794 4 4 4 4-1.794 4-4z"/></svg>