<svg id="Layer_1" viewBox="0 0 24 24" xmlns="http://www.w3.org/2000/svg" data-name="Layer 1"><path d="m10.4 16h1.6v8h-1.6l-1.8-4.054v4.054h-1.6v-8h1.6v.009l1.8 4.054zm7.4 2.3v3.4c0 1.269-1.031 2.3-2.3 2.3s-2.3-1.031-2.3-2.3v-3.4c0-1.269 1.031-2.3 2.3-2.3s2.3 1.031 2.3 2.3zm-1.6 0c0-.386-.314-.7-.7-.7s-.7.314-.7.7v3.4c0 .386.314.7.7.7s.7-.314.7-.7zm6.16-2.3.008.034-1.111 6.111-1.129-6.138v-.007s-1.628 0-1.628 0 1.211 6.584 1.211 6.584c.103.58.61 1.416 1.546 1.416s1.435-.794 1.555-1.462l1.188-6.538s-1.64 0-1.64 0zm1.64-11v9h-2v-4h-20v12h3v2h-5v-19c0-1.654 1.346-3 3-3h3v-2h2v2h8v-2h2v2h3c1.654 0 3 1.346 3 3zm-2 3v-3c0-.552-.449-1-1-1h-18c-.551 0-1 .448-1 1v3z"/></svg>