<svg id="Layer_1" viewBox="0 0 24 24" xmlns="http://www.w3.org/2000/svg" data-name="Layer 1"><path d="m24 14h-24v2h3.011c-.656.738-1.138 1.646-1.371 2.67s-1.211 5.33-1.211 5.33h2.051l1.11-4.886c.416-1.833 2.021-3.114 3.9-3.114h6.008c.63 0 1.142.512 1.142 1.142 0 .565-.422 1.051-.98 1.131l-5.161.737.283 1.979 5.161-.737c.625-.089 1.178-.339 1.625-.737l.016-.015 3.728-3.247c.394-.37 1.08-.318 1.428.099.361.416.319 1.052-.093 1.418s0 0 0 0l-7.002 6.228h3.009l5.322-4.733s.001-.002.002-.003c.939-.837 1.224-2.142.824-3.263h1.197v-2zm-20.771-12.608c-.497-.535-.122-1.388.507-1.392h17.264v2h-6.207c-1.861 1.529-3.756 2.037-5.462 1.998-3.077-.121-5.25-1.666-6.102-2.606zm9.271 7.608h-9.5v-2h9.5v-.5c0-1.378 1.121-2.5 2.5-2.5h6v2h-6c-.275 0-.5.224-.5.5v.5h6.5v2h-6.5v.5c0 .276.225.5.5.5h6v2h-6c-1.379 0-2.5-1.122-2.5-2.5z"/></svg>