<svg id="Layer_1" viewBox="0 0 24 24" xmlns="http://www.w3.org/2000/svg" data-name="Layer 1"><path d="m22 19v5h-2v-5c0-1.654-1.346-3-3-3h-1v2.184c1.161.414 2 1.514 2 2.816v3h-2v-3c0-.552-.448-1-1-1s-1 .448-1 1v3h-2v-3c0-1.302.839-2.402 2-2.816v-2.184h-5.021v2.277c.595.346 1 .984 1 1.723 0 1.105-.895 2-2 2s-2-.895-2-2c0-.738.405-1.376 1-1.723v-2.275c-1.644.012-2.979 1.351-2.979 2.998v5h-2v-5c0-2.757 2.243-5 5-5h10c2.757 0 5 2.243 5 5zm-16-13c0-3.309 2.691-6 6-6s6 2.691 6 6-2.691 6-6 6-6-2.691-6-6zm10 0c0-1.092-.442-2.081-1.153-2.803-1.123 2.288-3.442 3.803-6.062 3.803-.221 0-.44-.03-.659-.051.429 1.747 1.996 3.051 3.874 3.051 2.206 0 4-1.794 4-4zm-7.843-1.049c.208.028.418.049.628.049 1.898 0 3.581-1.125 4.344-2.818-.36-.107-.734-.182-1.129-.182-1.841 0-3.379 1.256-3.843 2.951z"/></svg>