<?xml version="1.0" encoding="UTF-8"?>
<svg xmlns="http://www.w3.org/2000/svg" id="Layer_1" data-name="Layer 1" viewBox="0 0 24 24">
  <path d="M23,21.877v1.295l-1.237,.828h-3.595l2.712-1.816-1.819-4.139c-.707-1.262-2.044-2.045-3.49-2.045h-7.141c-1.446,0-2.783,.783-3.49,2.045l-1.819,4.139,2.712,1.816H2.237l-1.237-.828v-1.295l2.195-4.81c1.061-1.893,3.066-3.067,5.234-3.067h7.141c2.168,0,4.174,1.175,5.234,3.066l2.195,4.811ZM6,6C6,2.691,8.691,0,12,0s6,2.691,6,6-2.691,6-6,6-6-2.691-6-6Zm2,0c0,2.206,1.794,4,4,4s4-1.794,4-4-1.794-4-4-4-4,1.794-4,4Zm7.5,11.5c-1.381,0-2.5,1.119-2.5,2.5s1.119,2.5,2.5,2.5,2.5-1.119,2.5-2.5-1.119-2.5-2.5-2.5Zm-4.5,.5h-2v4.049l2.538,1.951h3.423l-3.962-3.049v-2.951Z"/>
</svg>
