<svg id="Layer_1" viewBox="0 0 24 24" xmlns="http://www.w3.org/2000/svg" data-name="Layer 1"><path d="m17.952 0-.011.015v-.015c-.027 0-1.995.018-1.995 2.004 0 2.656-1.761 3.546-2.943 3.845v-2.128c.594-.347.997-.984.997-1.721 0-1.105-.895-2-2-2s-2 .895-2 2c0 .74.406 1.379 1.004 1.725v2.137c-1.181-.283-3.003-1.155-3.003-3.858 0-1.987-1.968-2.004-1.995-2.004v.015l-.011-.015h-6.048c0 1.455.933 1.904 1.5 2h4.559c-.003.348.036.684.08 1.002l-4.086-.002c0 1.998 2 2 2 2h2.717c.203.375.445.704.712 1.002h-3.431c0 1.998 1.995 1.998 1.995 1.998h5.01v2h-2.896c-1.516 0-2.835 1.076-3.067 2.503-.333 1.776 1.157 3.538 2.96 3.497h3.001v2h-1.001c-1.654 0-3 1.346-3 3s1.346 3 3 3h3v-4h2c1.654 0 3-1.346 3-3s-1.346-3-3-3h-1.998v-2h3.063c1.331 0 2.51-.831 2.935-2h-5.997v-2h4.951s1.995 0 1.995-1.998h-3.432c.267-.298.509-.627.712-1.002h2.717s2-.002 2-2l-4.086.002c.044-.318.083-.654.08-1.002h4.559c.567-.096 1.5-.545 1.5-1.999h-6.048zm-6.952 21.999h-1c-.552 0-1-.448-1-1s.448-1 1-1h1.001v2zm3.999-6c.552 0 1 .448 1 1s-.448 1-1 1h-1.999v-2zm-3.998-2h-3.002c-.606.011-1.102-.575-.985-1.175.075-.462.555-.825 1.093-.825h2.895v2z"/></svg>