<?xml version="1.0" encoding="UTF-8"?>
<svg xmlns="http://www.w3.org/2000/svg" id="Layer_1" data-name="Layer 1" viewBox="0 0 24 24">
  <path d="M19.445,19.418l-1.29,1.29c-.188,.188-.438,.292-.706,.292h-2.449v-4h1v1.006c0,.422,.179,.826,.491,1.11,.312,.284,.733,.418,1.151,.384,.761-.072,1.357-.737,1.357-1.516v-1.484c0-1.379-1.121-2.5-2.5-2.5h-3.5V7.5c0-.829-.671-1.5-1.5-1.5s-1.5,.671-1.5,1.5v6.55c-1.14,.232-2,1.242-2,2.449v7.5h9.534c1.069,0,2.074-.416,2.829-1.171l1.246-1.247c.597-.597,.597-1.567,0-2.164-.578-.578-1.586-.578-2.164,0Zm-6.445-2.418v5h-3v-5.5c0-.275,.224-.5,.5-.5h2.769c-.171,.294-.269,.636-.269,1Zm11-8.26v.523l-.133,.252c-.096,.167-1.401,2.384-3.781,4.363-.404-.56-.935-1.012-1.547-1.338,1.018-.806,1.836-1.68,2.432-2.406-1.155,.2-3.421,.562-5.971,.747v-3.765c2.704,.201,5.113,.605,6.182,.797-1.765-2.719-3.839-4.79-5.292-5.739-.428-.279-1.003-.219-1.368,.147l-2.521,2.522-2.521-2.522c-.365-.365-.94-.427-1.368-.147-1.368,.893-3.466,2.986-5.279,5.725,.926-.164,2.867-.482,5.111-.693v3.583c-2.094-.197-3.924-.486-4.909-.658,.876,1.069,2.228,2.453,3.992,3.472-.435,.513-.758,1.117-.929,1.788C2.327,13.254,.254,9.717,.132,9.504l-.132-.23v-.529l.129-.27C2.286,4.663,5.143,1.722,7.017,.498c1.215-.794,2.845-.624,3.875,.408l1.107,1.107,1.107-1.107c1.031-1.031,2.662-1.2,3.876-.408,1.788,1.168,4.666,3.968,6.893,8.017l.124,.225Z"/>
</svg>
