<svg id="Layer_1" viewBox="0 0 24 24" xmlns="http://www.w3.org/2000/svg" data-name="Layer 1"><path d="m6.2 11.998h.078c1.292-.028 2.224-.339 2.889-.71.844.454 1.809.713 2.833.713s1.989-.259 2.834-.714c.664.371 1.597.682 2.889.711h.077c1.53 0 2.842-1.014 3.134-2.435.276-1.339-.334-2.682-1.52-3.341-.413-.23-1.469-1.118-1.589-1.661h-.006c-.647-2.613-3.007-4.561-5.819-4.561s-5.173 1.948-5.819 4.564h-.006c-.12.541-1.176 1.428-1.59 1.659-1.184.659-1.794 2.001-1.519 3.34.294 1.421 1.605 2.435 3.134 2.435zm12.774-2.838c-.102.49-.619.84-1.207.838-.462-.01-.848-.068-1.17-.15.56-.668.971-1.46 1.199-2.326.362.277.638.445.645.449.322.179.654.598.532 1.189zm-6.974-7.16c2.206 0 4 1.794 4 4s-1.794 4-4 4-4-1.794-4-4 1.794-4 4-4zm-6.444 5.97c.008-.004.284-.172.646-.449.228.867.64 1.659 1.199 2.327-.321.083-.707.14-1.169.15h-.031c-.574 0-1.077-.356-1.177-.839-.122-.591.211-1.01.531-1.189zm10.443 6.03h-7.999c-2.757 0-5 2.243-5 5v5h2v-5c0-1.302.839-2.402 2-2.816v5.867l5-3.75 5 3.75v-5.867c1.161.414 2 1.514 2 2.816v5h2v-5c0-2.757-2.243-5-5-5zm-7 2h2.735l-2.735 2.051zm3.265 0h2.735v2.051zm-.265 4.801 1 .75v2.449h-2v-2.449z"/></svg>