<svg id="Layer_1" viewBox="0 0 24 24" xmlns="http://www.w3.org/2000/svg" data-name="Layer 1"><path d="m9.395 3h-1.523l1.4-3h-6.547l-2.636 6.521c-.397 1.188.588 2.515 1.84 2.479h1.927l-.973 4h2.981l5.118-7.042c.854-1.201-.115-3.006-1.588-2.958zm-3.674 6.797.68-2.797h-4.366l2.038-5h2.059l-1.4 3 4.512-.049-3.522 4.846zm18.279 2.991v2.212h-2.33l-.449 3.394c-.195 1.485-1.474 2.606-2.974 2.606h-2.247v3h-13v-4.709c0-.46-.163-.909-.458-1.263s0 0 0 0c-.765-.919-1.357-1.943-1.781-3.028h2.185c.308.617.682 1.206 1.133 1.748.593.713.92 1.616.92 2.543v2.709h9.001v-3h4.247c.5 0 .926-.373.991-.868l.68-5.132h1.99l-.465-1.06c-1.075-2.465-2.187-5.014-3.221-6.293-1.529-2.04-3.732-3.304-6.173-3.586-.345-.329-.737-.598-1.17-.777l.587-1.257c3.306.138 6.325 1.71 8.334 4.392 1.182 1.46 2.296 4.016 3.476 6.722z"/></svg>