<?xml version="1.0" encoding="UTF-8"?>
<svg xmlns="http://www.w3.org/2000/svg" id="Layer_1" data-name="Layer 1" viewBox="0 0 24 24">
  <path d="M24,15c0-1.654-1.346-3-3-3H3c-1.654,0-3,1.346-3,3v7H2v2h2v-2H20v2h2v-2h2v-7Zm-2,5H2v-5c0-.552,.448-1,1-1H21c.552,0,1,.448,1,1v5Zm-5.321-12.062c-1.25-1.249-2.911-1.938-4.679-1.938s-3.429,.688-4.679,1.938l-1.414-1.414c1.627-1.627,3.791-2.523,6.093-2.523s4.466,.896,6.093,2.523l-1.414,1.414Zm-4.679,.062c1.181,0,2.289,.459,3.122,1.293l-1.416,1.414c-.91-.912-2.502-.912-3.412,0l-1.416-1.414c.833-.834,1.941-1.293,3.122-1.293Zm-7.325-2.966l-1.414-1.414C5.594,1.286,8.697,0,12,0s6.406,1.286,8.739,3.62l-1.414,1.414c-1.956-1.957-4.558-3.034-7.325-3.034s-5.369,1.077-7.325,3.034Zm2.325,11.966c0,.828-.672,1.5-1.5,1.5s-1.5-.672-1.5-1.5,.672-1.5,1.5-1.5,1.5,.672,1.5,1.5Zm4,0c0,.828-.672,1.5-1.5,1.5s-1.5-.672-1.5-1.5,.672-1.5,1.5-1.5,1.5,.672,1.5,1.5Z"/>
</svg>
