<svg id="Layer_1" viewBox="0 0 24 24" xmlns="http://www.w3.org/2000/svg" data-name="Layer 1"><path d="m14 11h-2c0-1.344 1.064-1.904 1.465-2.116.333-.175.62-.587.511-1.112-.072-.346-.355-.648-.689-.736-.425-.111-.736.06-.881.171-.254.196-.405.475-.405.792h-2c0-.932.442-1.803 1.184-2.376s1.695-.763 2.61-.522c1.073.282 1.913 1.17 2.14 2.263.278 1.336-.339 2.658-1.537 3.289-.397.209-.397.285-.397.346zm-2 3h2v-2h-2zm10.182-6.682-1.768 1.768-1.768-1.768-1.414 1.414 1.768 1.768-1.768 1.768 1.414 1.414 1.768-1.768 1.768 1.768 1.414-1.414-1.768-1.768 1.768-1.768zm-1.792-2.49s3.25-3.339 3.252-3.341l-1.399-1.43-3.255 3.344-1.974-2.059-1.387 1.441 1.94 2.026c.766.765 2.079.763 2.823.019zm-.469 11.92c-.593.713-.92 1.616-.92 2.543v2.709h-9.001v-3h-4.247c-.5 0-.926-.374-.992-.869l-.678-5.131h-1.99c1.106-2.513 2.509-5.923 3.707-7.382 1.722-2.299 4.346-3.618 7.2-3.618.188 0 .378.027.568.039l1.728-1.796c-.749-.167-1.533-.243-2.296-.243-3.49 0-6.697 1.61-8.777 4.389-1.437 1.738-2.97 5.59-4.223 8.399v2.212h2.33l.449 3.394c.197 1.486 1.476 2.606 2.974 2.606h2.247v3h13v-4.709c0-.46.163-.909.458-1.263.525-.631.964-1.313 1.331-2.028h-2.31c-.173.257-.358.507-.558.748z"/></svg>