<svg id="Layer_1" viewBox="0 0 24 24" xmlns="http://www.w3.org/2000/svg" data-name="Layer 1"><path d="m12.688 14.5h.398l.693.693c-.462.256-.779.742-.779 1.307 0 .828.672 1.5 1.5 1.5s1.5-.672 1.5-1.5c0-.237-.06-.459-.158-.658.199.098.421.158.658.158.828 0 1.5-.672 1.5-1.5s-.672-1.5-1.5-1.5c-.565 0-1.052.317-1.307.779l-.693-.693v-.428c-.02-.668-.192-4.073-1.591-5.472-1.577-1.578-4.145-1.578-5.723 0-.765.764-1.186 1.78-1.186 2.861s.421 2.097 1.186 2.861c1.399 1.399 4.804 1.571 5.502 1.592zm-4.088-5.9c.75-.75 2.132-.794 2.895 0 .594.594.931 2.577.998 3.891-1.34-.07-3.302-.406-3.892-.997-.794-.762-.75-2.145 0-2.895zm15.4-6.6h-24v2h1.105l1.703 15.332c.169 1.521 1.451 2.668 2.981 2.668h12.42c1.53 0 2.812-1.147 2.981-2.669l1.703-15.331h1.105v-2zm-4.796 17.11c-.057.507-.484.89-.994.89h-12.42c-.51 0-.938-.383-.994-.89l-1.679-15.11h17.766z"/></svg>