<svg id="Layer_1" viewBox="0 0 24 24" xmlns="http://www.w3.org/2000/svg" data-name="Layer 1"><path d="m24 12c0-.932-.275-1.816-.797-2.559-.271-.385-.271-.989 0-1.374.521-.741.797-1.626.797-2.559 0-.938-.355-1.675-.67-2.325-.291-.491-.116-1.473.009-1.883l.409-1.298h-6.087c-1.014 0-1.928.569-2.387 1.487-.43.861-.346 1.863.244 2.648.22.285.481.753.481 1.372 0 .519-.149 1.005-.433 1.408-.75 1.065-.75 2.611 0 3.675.284.403.434.89.434 1.408s-.149 1.005-.433 1.407c-.75 1.064-.75 2.61 0 3.676.279.397.434.9.434 1.417 0 .611-.262 1.079-.507 1.396-.564.752-.648 1.754-.219 2.615.458.918 1.372 1.488 2.387 1.489l6.062-.005-.38-1.283c-.168-.558-.276-1.536.076-2.098.272-.595.581-1.269.581-2.123 0-.932-.275-1.816-.797-2.558-.271-.386-.271-.99 0-1.375.521-.742.797-1.627.797-2.559zm-2.434-1.408c.284.403.434.89.434 1.408s-.149 1.005-.434 1.409c-.759 1.081-.759 2.592 0 3.674.284.403.434.891.434 1.408 0 .418-.185.822-.399 1.29-.362.679-.465 1.53-.401 2.218h-3.537c-.3 0-.506-.197-.599-.382-.065-.132-.114-.33.037-.531.589-.762.899-1.656.899-2.586 0-.924-.283-1.836-.798-2.567-.271-.386-.271-.988 0-1.374.521-.742.797-1.627.797-2.559s-.275-1.816-.798-2.559c-.271-.385-.271-.988 0-1.374.521-.741.797-1.626.797-2.559s-.311-1.833-.907-2.605c-.144-.19-.095-.388-.029-.521.093-.185.298-.382.599-.382h3.526c-.052.637.004 1.413.341 2.053.253.523.471.975.471 1.455 0 .519-.149 1.005-.434 1.408-.748 1.065-.748 2.61 0 3.675zm-8.566-1.092c0-2.481-2.019-4.5-4.5-4.5s-4.5 2.019-4.5 4.5 2.019 4.5 4.5 4.5 4.5-2.019 4.5-4.5zm-4.5 2.5c-1.379 0-2.5-1.122-2.5-2.5s1.121-2.5 2.5-2.5 2.5 1.122 2.5 2.5-1.121 2.5-2.5 2.5zm1 4c.828 0 1.5.672 1.5 1.5s-.672 1.5-1.5 1.5-1.5-.672-1.5-1.5.672-1.5 1.5-1.5zm3.984 7.403c.053.106.118.202.178.303-.688.191-1.414.294-2.163.294-3.18 0-6.016-1.852-7.304-4.741-2.632-2.032-4.195-5.192-4.195-8.509 0-5.928 4.822-10.75 10.75-10.75.989 0 1.943.145 2.853.396-.038.068-.083.13-.118.2-.273.547-.423 1.129-.463 1.714-.726-.196-1.486-.31-2.273-.31-4.824 0-8.749 3.925-8.749 8.75-.005 2.873 1.453 5.597 3.832 7.23.859 2.406 3.11 4.028 5.668 4.02.531 0 1.037-.091 1.529-.219.051.552.196 1.102.456 1.622z"/></svg>