<?xml version="1.0" encoding="UTF-8"?>
<svg xmlns="http://www.w3.org/2000/svg" id="Layer_1" data-name="Layer 1" viewBox="0 0 24 24">
  <path d="M23.526,16.166l-1.803-1.014c.172-.701,.277-1.421,.277-2.152h2c0,1.081-.167,2.145-.474,3.166ZM12,2c2.967,0,5.431,2.167,5.91,5h-3.91v2h4v2h-3.66l5.381,3.026c.172-.657,.279-1.333,.279-2.026v-4C20,3.589,16.411,0,12,0S4,3.589,4,8v4c0,4.411,3.589,8,8,8v-2c-2.967,0-5.431-2.167-5.91-5h3.91v-2H6v-2h4v-2h-3.91c.478-2.833,2.942-5,5.91-5ZM2,13H0c0,6.065,4.935,11,11,11h1v-2h-1c-4.963,0-9-4.038-9-9Zm12,.104l9.708,5.459-9.708,5.459V13.104Zm2,7.5l3.628-2.041-3.628-2.041v4.081Z"/>
</svg>
