<svg id="Layer_1" viewBox="0 0 24 24" xmlns="http://www.w3.org/2000/svg" data-name="Layer 1"><path d="m21.052 19v5h-2v-5c0-1.654-1.346-3-3-3h-2l-1.333 2 1.333 6h-4l1.333-6-1.333-2h-2c-1.654 0-3 1.346-3 3v5h-2.001v-5c0-2.757 2.243-5 5-5h8c2.757 0 5 2.243 5 5zm-15.056-6.691c-.867.267-1.662.699-2.351 1.259.87-3.702 2.038-8.652 2.153-9.017.767-2.445 2.86-4.157 5.346-4.483.28-.04.565-.068.856-.068 2.855 0 5.348 1.829 6.202 4.55.114.362 1.264 5.233 2.131 8.924-.689-.535-1.477-.944-2.335-1.193-.839-3.565-1.614-6.829-1.704-7.131-.313-.997-.949-1.813-1.767-2.368-.966 2.533-3.674 4.34-6.387 4.21.444 1.725 1.999 3.009 3.861 3.009 1.229 0 2.331-.557 3.065-1.433.158.666.337 1.42.529 2.234-1.002.752-2.247 1.198-3.594 1.198-2.232 0-4.18-1.228-5.213-3.041-.242 1.021-.513 2.168-.791 3.35zm6.004-10.309c-1.857 0-3.409 1.279-3.857 2.998.929.032 1.846-.212 2.651-.715.856-.534 1.491-1.314 1.863-2.23-.215-.031-.434-.052-.657-.052z"/></svg>