<svg id="Layer_1" viewBox="0 0 24 24" xmlns="http://www.w3.org/2000/svg" data-name="Layer 1"><path d="m8.218 10.748c.628.43 1.517.376 1.78-.633 0-.5.002-8.112.002-8.112 0-1.104-.897-2.001-2-2.001l-6-.002c-1.103 0-2 .897-2 2v7h5.854c.643.474 2.241 1.653 2.364 1.748zm-6.218-8.748 6 .003-.002 6.094c-.328-.242-1.486-1.097-1.486-1.097h-4.512zm16.146 7h5.854v-7c0-1.103-.897-2-2-2l-6 .002c-1.103 0-2 .897-2 2.001 0 0 .002 7.612.002 8.112.263 1.008 1.152 1.063 1.78.633.123-.095 1.722-1.274 2.364-1.748zm3.854-2h-4.512s-1.158.854-1.486 1.097l-.002-6.094 6-.003zm-11 16v1h-2v-1c0-.552-.448-1-1-1h-5c-.552 0-1 .448-1 1v1h-2v-1c0-1.654 1.346-3 3-3h5c1.654 0 3 1.346 3 3zm13 0v1h-2v-1c0-.552-.448-1-1-1h-5c-.552 0-1 .448-1 1v1h-2v-1c0-1.654 1.346-3 3-3h5c1.654 0 3 1.346 3 3zm-18.5-11c-1.93 0-3.5 1.57-3.5 3.5s1.57 3.5 3.5 3.5 3.5-1.57 3.5-3.5-1.57-3.5-3.5-3.5zm0 5c-.827 0-1.5-.673-1.5-1.5s.673-1.5 1.5-1.5 1.5.673 1.5 1.5-.673 1.5-1.5 1.5zm13 2c1.93 0 3.5-1.57 3.5-3.5s-1.57-3.5-3.5-3.5-3.5 1.57-3.5 3.5 1.57 3.5 3.5 3.5zm0-5c.827 0 1.5.673 1.5 1.5s-.673 1.5-1.5 1.5-1.5-.673-1.5-1.5.673-1.5 1.5-1.5z"/></svg>