<svg id="Layer_1" viewBox="0 0 24 24" xmlns="http://www.w3.org/2000/svg" data-name="Layer 1"><path d="m24 15.753v-.802c0-9.484-9.621-14.951-12.677-14.951h-1.22l3.619 18.047zm-2.027-1.597-6.692 1.494-2.679-13.36c3.044 1.112 8.921 5.375 9.372 11.866zm-21.973-10.656c0-1.381 1.119-2.5 2.5-2.5s2.5 1.119 2.5 2.5-1.119 2.5-2.5 2.5-2.5-1.119-2.5-2.5zm24 19.131c-.76.87-1.847 1.369-3 1.369-1.193 0-2.267-.525-3-1.357-.733.832-1.807 1.357-3 1.357s-2.267-.525-3-1.357c-.733.832-1.807 1.357-3 1.357s-2.267-.525-3-1.357c-.733.832-1.807 1.357-3 1.357-1.153 0-2.241-.499-3-1.368l1.497-1.316c.38.436.928.685 1.503.685 1.103 0 2-.897 2-2h2c0 1.103.897 2 2 2s2-.897 2-2h2c0 1.103.897 2 2 2s2-.897 2-2h2c0 1.103.897 2 2 2 .575 0 1.123-.249 1.502-.684zm-23.951-12.438c-.03-.159-.049-.316-.049-.471 0-1.416.826-2.372 2.094-2.613.864-.162 1.525.097 2.227.373l2.262.812 3.171-.602.373 1.965-3.707.703-2.803-1.006c-.642-.253-.867-.33-1.15-.28-.375.071-.512.43-.452.746l.438 2.311c.11.578.454 1.221.974 1.352l5.048 1.061.87 4.585-1.965.373-.622-3.274-3.782-.796c-1.506-.379-2.266-1.759-2.488-2.927z"/></svg>