<?xml version="1.0" encoding="UTF-8"?>
<svg xmlns="http://www.w3.org/2000/svg" id="Layer_1" data-name="Layer 1" viewBox="0 0 24 24">
  <path d="M0,20v-2c2.654,0,4-2.355,4-7,0-.393,.033-.786,.098-1.167l1.972,.335c-.046,.271-.069,.551-.069,.833,0,5.804-2.131,9-6,9ZM2,11C2,6.038,6.038,2,11,2c1.963,0,3.83,.624,5.399,1.804l1.202-1.599C15.683,.763,13.401,0,11,0,4.935,0,0,4.935,0,11v3H2v-3Zm8,.349v-.349c0-.551,.449-1,1-1,.097,0,.186,.029,.275,.056,.562-.464,1.187-.852,1.851-1.17-.544-.547-1.296-.886-2.126-.886-1.654,0-3,1.346-3,3v2c0,3.728-1.886,8.054-7.179,9.017l.357,1.967c3.476-.632,5.745-2.49,7.115-4.74-.185-.718-.293-1.467-.293-2.243,0-2.142,.751-4.106,2-5.651Zm11.878-1.905c-.159-1.121-.477-2.207-.979-3.237l-1.799,.875c.206,.423,.363,.86,.499,1.304,.815,.246,1.579,.606,2.278,1.059ZM11,4c-1.985,0-3.885,.85-5.213,2.333l1.49,1.334c.949-1.059,2.307-1.667,3.724-1.667,1.718,0,3.236,.872,4.136,2.196,.602-.127,1.225-.196,1.864-.196,.109,0,.215,.012,.323,.016-1.123-2.37-3.531-4.016-6.323-4.016Zm13,13c0,3.859-3.14,7-7,7s-7-3.141-7-7,3.14-7,7-7,7,3.141,7,7Zm-2,0c0-2.757-2.243-5-5-5s-5,2.243-5,5,2.243,5,5,5,5-2.243,5-5Zm-2.411-2.308l-3.229,3.175-1.63-1.58-1.393,1.436,1.846,1.789c.315,.315,.733,.488,1.179,.488s.864-.174,1.172-.482l3.457-3.399-1.402-1.426Z"/>
</svg>
