<?xml version="1.0" encoding="UTF-8"?>
<svg xmlns="http://www.w3.org/2000/svg" id="Layer_1" data-name="Layer 1" viewBox="0 0 24 24">
  <path d="M14.199,16.262c-2.96-1.282-5.079-3.407-6.453-6.469l3.406-3.406L4.887,.122,1.716,3.292C.609,4.397,0,5.891,0,7.5c0,7.248,9.252,16.5,16.5,16.5,1.609,0,3.104-.609,4.207-1.716l3.172-3.171-6.266-6.265-3.414,3.413Zm5.092,4.609c-.726,.728-1.718,1.129-2.792,1.129-6.233,0-14.5-8.266-14.5-14.5,0-1.074,.401-2.066,1.129-2.793l1.757-1.757,3.437,3.437-2.936,2.936,.247,.613c1.641,4.085,4.482,6.924,8.446,8.438l.605,.23,2.927-2.927,3.437,3.437-1.758,1.758Zm-2.292-11.871v-2h-2v-2h2V3h2v2h2v2h-2v2h-2Zm7-3c0-3.309-2.691-6-6-6s-6,2.691-6,6v6h6c3.309,0,6-2.691,6-6Zm-10,0c0-2.206,1.794-4,4-4s4,1.794,4,4-1.794,4-4,4h-4V6Z"/>
</svg>
