<svg id="Layer_1" viewBox="0 0 24 24" xmlns="http://www.w3.org/2000/svg" data-name="Layer 1"><path d="m22 7c1.103 0 2-.897 2-2v-5h-2v5h-4.081c-.991-2.395-3.328-3.996-5.919-4-2.589.003-4.926 1.604-5.918 4h-4.082v-5h-2v5c0 1.103.897 2 2 2h3.526l-1.009 4h-4.517v2h4.013c-.172.562-.28 1.308-.264 1.843 0 .751.108 1.471.293 2.157h-2.042c-1.103 0-2 .897-2 2v5h2v-5h2.882c1.42 2.406 4.045 3.997 7.119 4 3.07-.003 5.693-1.592 7.113-4h2.886v5h2v-5c0-1.103-.897-2-2-2h-2.046c.186-.69.294-1.416.295-2.172.015-.55-.094-1.267-.263-1.828h4.014v-2h-4.517l-1.006-4zm-9.999 14c-3.501-.004-6.248-2.709-6.252-6.143.005-.337.018-.594.057-.792l2.059-8.183c.653-1.724 2.309-2.88 4.133-2.882 1.826.002 3.481 1.158 4.136 2.882l2.052 8.157c.047.241.06.501.063.802-.004 3.45-2.75 6.155-6.248 6.159zm-6.001-5h12l-6-10.286zm7-1h-2v-2h2zm0-3h-2v-3h2z"/></svg>