<svg id="Layer_1" viewBox="0 0 24 24" xmlns="http://www.w3.org/2000/svg" data-name="Layer 1"><path d="m5.005 16.097c.344.291.727.503 1.128.654-1.973 2.568-2.202 5.447-2.18 7.249h-2.798c-.46-1.641-1.155-4.526-1.155-7 0-1.754.284-3.494.642-4.992.468.631 1.059 1.205 1.669 1.795-.186 1.023-.311 2.113-.311 3.197 0 1.036.142 2.177.338 3.255.341-1.476.987-3.081 2.126-4.605.189.155.376.308.541.446zm4.989-2.642c-.497.414-.961.784-1.353 1.115-.68.574-1.665.574-2.345 0-.39-.33-.853-.698-1.348-1.11.314-1.349.802-3.018 1.523-4.46-1.608 1.149-2.472 2.294-2.942 3.2-.429-.41-.853-.853-1.252-1.332-.486-.583-.464-1.443.04-2.011.776-.875 1.715-1.904 2.655-2.857-1.927.228-3.393 1.176-4.395 2.092-.279-.672-.479-1.441-.565-2.233-.094-.859.378-1.689 1.182-2.005.924-.364 1.888-.68 2.778-.854-1.298-.679-2.514-.791-3.538-.663.555-1.352 1.65-2.337 3.533-2.337 3.001 0 3.502 2.001 3.502 2.001s.5-2.001 3.502-2.001c1.883 0 2.978.985 3.533 2.336-1.022-.126-2.236-.013-3.531.664.888.173 1.849.489 2.771.851.804.316 1.276 1.146 1.183 2.005-.086.792-.285 1.56-.564 2.232-1.002-.915-2.466-1.86-4.39-2.088.939.952 1.876 1.979 2.651 2.853.503.568.526 1.427.04 2.01-.399.479-.823.922-1.251 1.332-.47-.905-1.335-2.049-2.94-3.196.72 1.44 1.208 3.107 1.522 4.455zm.778-4.048c.128.107.305.21.452.131.217-.128.135-.427.014-.6-.191-.314-.739-1.135-1.188-.776-.448.359.449 1.017.722 1.244zm-7.339-4.774c-.516-.66-1.497.13-1.922.521-.159.131-.323.381-.165.569.158.129.398.164.598.172.476-.024 1.965-.653 1.489-1.262zm20.562 13.785c.013-.593 0-1.206-.057-1.827-.069-.756-.692-1.347-1.45-1.393-1.166-.07-2.555-.133-3.892-.143 1.521-1.2 3.225-1.566 4.58-1.628-.278-.672-.681-1.356-1.18-1.977-.541-.673-1.462-.926-2.254-.581-.909.396-1.811.852-2.561 1.357.437-1.394 1.215-2.332 2.027-2.966-1.348-.563-2.818-.485-4.15.846-2.122 2.122-1.061 3.891-1.061 3.891s-1.769-1.061-3.891 1.061c-1.331 1.331-1.409 2.802-.846 4.15.634-.814 1.573-1.595 2.971-2.033-.507.753-.964 1.657-1.36 2.568-.345.792-.092 1.713.582 2.254.621.499 1.306.901 1.978 1.179.061-1.357.427-3.063 1.628-4.587.009 1.339.073 2.73.143 3.898.046.758.638 1.381 1.394 1.45.621.057 1.234.07 1.828.057-.309-.973-.508-2.394-.183-4.344.51 1.529 1.345 3.055 2.076 4.231.641-.058 1.229-.125 1.738-.168.886-.075 1.583-.772 1.658-1.658.043-.511.11-1.101.169-1.745-1.176-.731-2.699-1.565-4.227-2.074 1.946-.324 3.366-.127 4.339.181zm-11.15 2.24c-.147.136-.341.281-.545.301-.245-.021-.305-.314-.285-.519.024-.577.159-1.829.991-1.727.767.094.159 1.592-.161 1.945zm7.661-.198c.217-.279.588-.176.836.022.165.13.314.281.441.448.216.283.187.69.038 1-.377.781-1.074-.188-1.321-.649-.123-.273-.2-.562.007-.82z"/></svg>