<svg id="Layer_1" viewBox="0 0 24 24" xmlns="http://www.w3.org/2000/svg" data-name="Layer 1"><path d="m19 14c-2.761 0-5 2.239-5 5s2.239 5 5 5 5-2.239 5-5-2.239-5-5-5zm3 6h-2v2h-2v-2h-2v-2h2v-2h2v2h2zm-11 2.512c-.548-.763-1.454-1.307-2.241-1.773-.825-.488-1.759-1.043-1.759-1.539 0-1.316 1.607-2.2 4-2.2.457 0 .874.042 1.267.103.322-1.145.924-2.171 1.733-2.997v-3.251c.336.69.884 1.269 1.643 1.675.626.319 1.298.472 1.958.472 1.397 0 2.743-.681 3.495-1.899.731-1.186.865-2.337.865-4.179 0-1.303-.379-4.537-3.889-6.419-1.937-1.042-4.425-.402-5.548 1.418-.515.835-.656 1.824-.397 2.786.252.934.87 1.745 1.701 2.308l-.656.656c-.755.755-1.172 1.76-1.172 2.828v4.565c-.324-.03-.642-.065-1-.065s-.676.035-1 .065v-4.565c0-1.068-.417-2.073-1.172-2.828l-.656-.656c.831-.563 1.449-1.375 1.701-2.308.259-.962.118-1.951-.397-2.786-1.123-1.821-3.61-2.46-5.547-1.419-3.511 1.882-3.889 5.116-3.889 6.419 0 1.842.134 2.993.865 4.178.745 1.208 2.073 1.888 3.48 1.888.684 0 1.386-.16 2.049-.499.698-.374 1.233-.946 1.567-1.633v4.632c-2.038.739-3 2.223-3 3.712 0 1.636 1.519 2.536 2.74 3.26.825.488 1.76 1.043 1.76 1.54h3c0-.302.347-.625.803-.942-.388-.544-.699-1.145-.92-1.789-.527.347-1.028.75-1.383 1.244zm3.226-19.539c.386-.626 1.094-.976 1.826-.976.365 0 .735.087 1.075.269 2.466 1.323 2.834 3.485 2.834 4.657 0 1.714-.127 2.415-.567 3.129-.564.914-1.812 1.219-2.881.676-.41-.221-.694-.563-.819-.993-.14-.478-.069-1.024.196-1.5.336-.604.43-1.136.287-1.623-.193-.658-.736-.95-1.028-1.106-.547-.294-.944-.773-1.09-1.317-.081-.3-.117-.754.167-1.215zm-7.919 6.761c-.125.43-.409.772-.858 1.014-1.029.522-2.278.219-2.842-.697-.44-.713-.567-1.414-.567-3.128 0-1.172.368-3.334 2.834-4.657.34-.182.71-.269 1.075-.269.731 0 1.44.35 1.826.975.285.462.249.916.167 1.216-.146.544-.543 1.023-1.091 1.317-.292.156-.834.448-1.027 1.106-.143.487-.049 1.019.288 1.623.265.476.336 1.022.196 1.5z"/></svg>