<svg id="Layer_1" viewBox="0 0 24 24" xmlns="http://www.w3.org/2000/svg" data-name="Layer 1"><path d="m19 17h-2c-.365-3.062-1.485-5.048-3.077-5-.855 0-1.473.416-1.923.856-.448-.439-1.066-.856-1.923-.856-1.583 0-2.616 1.744-3.069 5h-2.008v2h14zm-4 0h-6c.262-2.289 1.012-3.076 1.077-3 .297 0 .554.289.932.754.153.198.81.938.986 1.142.195-.223.85-.947 1.017-1.166.357-.44.614-.729.911-.729.068-.07.813.707 1.077 3zm-9-11.5c0 .828-.672 1.5-1.5 1.5s-1.5-.672-1.5-1.5.672-1.5 1.5-1.5 1.5.672 1.5 1.5zm15-4.5h-18c-1.654 0-3 1.346-3 3v19h24v-19c0-1.654-1.346-3-3-3zm1 20h-20v-11h20zm0-13h-20v-4c0-.552.448-1 1-1h18c.552 0 1 .448 1 1zm-12-2.5c0 .828-.672 1.5-1.5 1.5s-1.5-.672-1.5-1.5.672-1.5 1.5-1.5 1.5.672 1.5 1.5z"/></svg>