<?xml version="1.0" encoding="UTF-8"?>
<svg xmlns="http://www.w3.org/2000/svg" id="Layer_1" data-name="Layer 1" viewBox="0 0 24 24">
  <path d="M24,7.264c0,1.271-1.034,2.305-2.306,2.305h-.346v1.431h-1.697v-1.431h-.212c-1.274,0-2.322-.981-2.43-2.227h1.718c.091,.306,.376,.53,.712,.53h2.255c.336,0,.609-.273,.609-.609,0-.289-.206-.54-.49-.597l-2.96-.592c-1.074-.215-1.853-1.165-1.853-2.261,0-1.271,1.034-2.305,2.305-2.305h.347V0h1.697V1.508h.212c1.274,0,2.322,.981,2.43,2.227h-1.718c-.091-.306-.376-.53-.712-.53h-2.256c-.336,0-.608,.273-.608,.609,0,.289,.206,.54,.489,.597l2.961,.593c1.074,.214,1.853,1.165,1.853,2.261ZM5.5,11C2.462,11,0,8.538,0,5.5S2.462,0,5.5,0c2.696,0,4.934,1.941,5.405,4.5h2.095V1.75l3.089,3.161c.325,.325,.325,.853,0,1.178l-3.089,3.161v-2.75h-2.095c-.471,2.559-2.709,4.5-5.405,4.5Zm.705-3.557l.004-.004,3.045-3.186-1.398-1.43-3.053,3.192-1.916-2.001-1.387,1.441,1.882,1.968c.766,.765,2.079,.763,2.823,.019Zm8.795,5.664c0-1.516-1.076-2.835-2.503-3.067-1.776-.334-3.538,1.157-3.497,2.96v6.688l-.438-.356-.003,.004c-1.21-1.08-3.071-1.007-4.183,.184-1.13,1.208-1.066,3.11,.13,4.23l.281,.251h2.881l-1.784-1.7c-.403-.378-.424-1.013-.046-1.416,.375-.402,1.008-.421,1.41-.048,.017,.016,3.752,3.066,3.752,3.066V13c-.01-.604,.573-1.104,1.175-.985,.462,.075,.825,.555,.825,1.093v6.048l8,3v1.845h2v-3.231l-8-3v-4.661Z"/>
</svg>
