<svg id="Layer_1" viewBox="0 0 24 24" xmlns="http://www.w3.org/2000/svg" data-name="Layer 1"><path d="m5.983 8.171 2.025-1.443 2.058 1.467c.894.534 1.927.802 2.934.805v-2c-.629 0-1.241-.158-1.822-.469l-1.446-1.031 1.446-1.031c.581-.312 1.193-.469 1.822-.469v-2c-.974 0-1.955.257-2.837.744l-2.151 1.531-2.029-1.446c-.091-1.573-1.387-2.829-2.983-2.829-1.654 0-3 1.346-3 3 0 1.044.537 1.962 1.348 2.5-.811.538-1.348 1.456-1.348 2.5 0 1.654 1.346 3 3 3 1.596 0 2.892-1.255 2.983-2.829zm-.629-3.334.933.665-.932.663c-.2-.256-.432-.485-.703-.664.271-.18.503-.408.702-.663zm-2.354-2.837c.552 0 1 .449 1 1s-.448 1-1 1-1-.449-1-1 .448-1 1-1zm-1 6c0-.551.448-1 1-1s1 .449 1 1-.448 1-1 1-1-.449-1-1zm22 6.152v1.848h-2.145l-.385 2.569c-.182 1.378-1.383 2.431-2.792 2.431h-1.679v3h-11.999v-3.856c0-.454-.155-.894-.438-1.239-1.401-1.713-2.265-3.868-2.479-5.997.298.055.603.092.917.092.374 0 .736-.048 1.087-.126.2 1.687.901 3.393 2.024 4.765.573.702.889 1.591.889 2.505v1.856h8v-3h3.679c.409 0 .758-.305.812-.71l.643-4.29h1.619c-.909-2.115-2.178-5.513-3.189-6.748-.936-1.25-2.17-2.18-3.562-2.72v-2.084c2.018.617 3.84 1.853 5.14 3.575 1.38 1.704 2.715 5.608 3.859 8.128z"/></svg>