<svg id="Layer_1" viewBox="0 0 24 24" xmlns="http://www.w3.org/2000/svg" data-name="Layer 1"><path d="m15.782 11.477c-.928 1.558-2.685 2.523-3.782 2.523-1.187.043-3.15-1.25-4.012-2.876-.027.864-.329 1.652-.82 2.294.543.647 1.181 1.182 1.845 1.599-.788.736-1.098 1.842-.915 2.961l1.446 6.023h4.802l1.645-6.093c.172-1.054-.156-2.192-.956-2.917.65-.412 1.272-.939 1.8-1.57-.499-.651-.806-1.453-.826-2.332-.078.133-.148.255-.227.389zm-3.101 4.523c.762-.046 1.474.787 1.358 1.481l-1.223 4.519h-1.696l-1.064-4.421c-.153-.8.523-1.599 1.337-1.579zm-.681-16c-2.761 0-5 2.239-5 5s2.239 5 5 5 5-2.239 5-5-2.239-5-5-5zm3 6h-2v2h-2v-2h-2v-2h2v-2h2v2h2zm9 .857c0 2.004-.978 6.143-4 6.143-1.103 0-2-.897-2-2s.897-2 2-2c.557 0 1.061.23 1.424.599.377-.886.576-1.998.576-2.742 0-1.231-.387-1.857-2.5-1.857h-.5c0-.683-.102-1.342-.285-1.966.251-.019.507-.034.785-.034 2.986 0 4.5 1.298 4.5 3.857zm-18 4.143c0 1.103-.897 2-2 2-3.022 0-4-4.139-4-6.143 0-2.56 1.514-3.857 4.5-3.857.278 0 .534.015.785.034-.182.624-.285 1.283-.285 1.966h-.5c-2.113 0-2.5.626-2.5 1.857 0 .743.199 1.856.576 2.742.363-.369.867-.599 1.424-.599 1.103 0 2 .897 2 2z"/></svg>