<?xml version="1.0" encoding="UTF-8"?>
<svg xmlns="http://www.w3.org/2000/svg" id="Layer_1" data-name="Layer 1" viewBox="0 0 24 24">
  <path d="M4.5,8.5l-2-1,2-1,1-2,1,2,2,1-2,1-1,2-1-2ZM3.333,3.333l1.667-.833-1.667-.833-.833-1.667-.833,1.667-1.667,.833,1.667,.833,.833,1.667,.833-1.667Zm17.635,6.167C20.969,4.262,16.945,0,12,0V.006c-.011,0-.02-.006-.031-.006-2.066,0-3.965,.751-5.483,1.998,.001,.003,.002,.005,.003,.007l.919,1.837c1.224-1.144,2.816-1.843,4.561-1.843,.011,0,.02-.006,.031-.006v.006c3.843,0,6.969,3.364,6.969,7.5s-3.126,7.5-6.969,7.5v.006c-.011,0-.02-.006-.031-.006-3.027,0-5.603-2.092-6.562-5H3.326c.908,3.517,3.674,6.229,7.109,6.86l-.487,2.681c-.233,1.281,.751,2.46,2.053,2.46s2.286-1.179,2.053-2.46l-.49-2.694c4.202-.787,7.406-4.673,7.406-9.346Z"/>
</svg>
