<svg id="Layer_1" viewBox="0 0 24 24" xmlns="http://www.w3.org/2000/svg" data-name="Layer 1"><path d="m10.5 12c.828 0 1.5.672 1.5 1.5s-.672 1.5-1.5 1.5-1.5-.672-1.5-1.5.672-1.5 1.5-1.5zm7 5c-.828 0-1.5.672-1.5 1.5s.672 1.5 1.5 1.5 1.5-.672 1.5-1.5-.672-1.5-1.5-1.5zm-.5-3.5c0-.828-.672-1.5-1.5-1.5s-1.5.672-1.5 1.5.672 1.5 1.5 1.5 1.5-.672 1.5-1.5zm3 9c0 .828.672 1.5 1.5 1.5s1.5-.672 1.5-1.5-.672-1.5-1.5-1.5-1.5.672-1.5 1.5zm1.65-8.905c.232-.809.35-1.632.35-2.453v-6.17c0-.881-.385-1.714-1.057-2.285s-1.563-.814-2.44-.675c-1.427.232-2.503 1.552-2.503 3.067v.939l-5.218-5.217c-.511-.511-1.199-.801-1.914-.801-.898 0-1.726.422-2.246 1.146-.063.088-.111.184-.162.278-.543-.445-1.225-.676-1.942-.621-.801.064-1.532.479-2.005 1.137-.43.596-.562 1.337-.435 2.047-.559.177-1.053.529-1.405 1.018-.77 1.069-.616 2.611.359 3.586l.344.344c-.344.194-.646.463-.883.792-.771 1.069-.617 2.611.344 3.571l4.727 4.924c1.599 1.645 3.711 2.609 5.988 2.744l3.033 3.033h2.828l-5.011-5.012c-2.031.056-3.991-.691-5.4-2.155l-4.737-4.934c-.285-.284-.351-.725-.15-1.003.358-.429.779-.398 1.122-.1l2.765 2.765 1.414-1.414-4.969-4.969c-.284-.284-.35-.726-.15-1.003.356-.43.78-.394 1.121-.101l5.037 5.037 1.414-1.414-5.583-5.582c-.285-.286-.351-.727-.15-1.005.357-.43.784-.395 1.122-.1l5.649 5.648 1.414-1.414-3.925-3.925c-.285-.284-.351-.726-.15-1.003.356-.43.782-.394 1.123-.101l8.632 8.632v-5.768c0-.538.362-1.018.824-1.093.599-.117 1.187.38 1.176.985v6.17c.018.996-.271 2.036-.646 2.984l4.646 4.646v-2.828l-2.35-2.35z"/></svg>