<svg id="Layer_1" viewBox="0 0 24 24" xmlns="http://www.w3.org/2000/svg" data-name="Layer 1"><path d="m24 7v-2h-2c0-1.654-1.346-3-3-3v-2h-2v2h-2v-2h-2v2h-2v-2h-2v2h-2v-2h-2v2c-1.654 0-3 1.346-3 3h-2v2h2v2h-2v2h2v2h-2v2h2v2h-2v2h2v3h3v2h2v-2h2v2h2v-2h2v2h2v-2h2v2h2v-2h3v-3h2v-2h-2v-2h2v-2h-2v-2h2v-2h-2v-2zm-4 13h-16v-15c0-.552.449-1 1-1h14c.552 0 1 .448 1 1zm-13.749-8.999v2.067c0 .449.358.751.749.751.443-.006.789-.393.75-.819h1.25c.045 1.12-.864 2.063-2 2.068-1.109.001-2-.889-2-1.984v-2.099c0-1.094.891-1.985 2-1.985 1.104.008 2 .91 2 2h-1.25c0-.394-.342-.743-.75-.75-.391 0-.749.302-.749.751zm11.499-2.001h1.25v4.084c0 1.094-.891 1.985-2 1.985-1.104-.008-2-.895-2-1.985v-.016h-.001v-4.068h1.251v4.084c0 .394.342.728.75.735.391 0 .749-.302.749-.751v-4.068zm-5.782 0h-1.967v6.069h1.25v-2.096l.717-.003c1.109 0 2.012-.891 2.012-1.985s-.902-1.985-2.012-1.985zm0 2.72-.71.003-.005-1.473h.715c.413 0 .762.336.762.735s-.349.735-.762.735z"/></svg>