<svg id="Layer_1" viewBox="0 0 24 24" xmlns="http://www.w3.org/2000/svg" data-name="Layer 1"><path d="m24 22.585-6.248-6.248c1.413-1.726 2.263-3.93 2.263-6.329 0-5.518-4.489-10.008-10.007-10.008s-10.008 4.49-10.008 10.008 4.49 10.008 10.008 10.008c2.399 0 4.603-.85 6.329-2.263l6.248 6.248 1.415-1.415zm-21.998-12.577c0-4.415 3.591-8.006 8.006-8.006s8.006 3.592 8.006 8.006-3.592 8.006-8.006 8.006-8.006-3.591-8.006-8.006zm11.008-4.003h-1.19c-.412-.622-1.058-1.001-1.812-1.001-.722 0-1.376.376-1.802 1.001h-1.201v-1.001h-2.002v1.001c0 1.104.898 2.002 2.002 2.002h.417c-.085.3-.179.642-.271 1.001h-2.147v2.002h1.726c-.056.399-.081.676-.021 1.031-.962.145-1.705.969-1.705 1.972v1.001h2.002v-1.001h.626c.606.616 1.446 1.001 2.376 1.001s1.771-.385 2.376-1.001h.626v1.001h2.002v-1.001c0-1.002-.743-1.827-1.705-1.972.06-.354.035-.634-.02-1.031h1.725v-2.002h-2.146c-.092-.36-.187-.702-.272-1.001h.416c1.103 0 2.002-.898 2.002-2.002v-1.001h-2.002zm-3.002 7.005c-.736 0-1.334-.599-1.334-1.335 0-.718.618-3.037.94-4.011.069-.21.148-.392.22-.52.019-.032.088-.139.174-.139.103 0 .148.054.195.156.05.102.118.267.201.514.24.714.937 3.198.937 4 0 .736-.598 1.335-1.334 1.335z"/></svg>