<svg id="Layer_1" viewBox="0 0 24 24" xmlns="http://www.w3.org/2000/svg" data-name="Layer 1"><path d="m6 4.5c0 .828-.672 1.5-1.5 1.5s-1.5-.672-1.5-1.5.672-1.5 1.5-1.5 1.5.672 1.5 1.5zm2.5-1.5c-.828 0-1.5.672-1.5 1.5s.672 1.5 1.5 1.5 1.5-.672 1.5-1.5-.672-1.5-1.5-1.5zm15.5 0v19h-9.518c.412-.616.743-1.289.995-2h6.523v-11h-20v.518c-.756.506-1.429 1.125-2 1.831v-8.349c0-1.654 1.346-3 3-3h18c1.654 0 3 1.346 3 3zm-2 4v-4c0-.551-.449-1-1-1h-18c-.551 0-1 .449-1 1v4zm-8 3v1.37c.406.505.765 1.049 1.056 1.636 1.078.03 1.944.909 1.944 1.994 0 .744-.411 1.385-1.014 1.73.003.091.014.179.014.27 0 .66-.076 1.301-.21 1.92.798-.161 1.502-.569 2.052-1.129l.992.571.998-1.733-.99-.57c.094-.339.158-.69.158-1.059s-.063-.721-.157-1.059l.989-.57-.998-1.733-.996.574c-.501-.505-1.128-.885-1.837-1.069v-1.142h-2zm-6.256 4.313c-.417-.417-1.093-.417-1.51 0l-2.687 2.687h2.454v3h2v-3h2.431zm6.256 2.687c0 3.86-3.14 7-7 7s-7-3.14-7-7 3.14-7 7-7 7 3.14 7 7zm-2 0c0-2.757-2.243-5-5-5s-5 2.243-5 5 2.243 5 5 5 5-2.243 5-5z"/></svg>