<svg id="Layer_1" viewBox="0 0 24 24" xmlns="http://www.w3.org/2000/svg" data-name="Layer 1"><path d="m2 22h5v2h-7v-21c0-1.654 1.346-3 3-3h10c1.654 0 3 1.346 3 3v5h-2v-5c0-.552-.448-1-1-1h-10c-.552 0-1 .448-1 1zm2-7h3v-2h-3zm0 4h3v-2h-3zm0-12h3v-2h-3zm8-2h-3v2h3zm-8 6h3v-2h-3zm20 11h-2v2h-3v-2h-5v2h-3v-2h-2v-2.268c0-1.265.216-2.51.642-3.7l1.443-4.041c.425-1.191 1.56-1.991 2.824-1.991h5.182c1.265 0 2.399.8 2.824 1.991l1.443 4.042c.426 1.189.642 2.435.642 3.699zm-11.032-9.337-.834 2.337h8.733l-.834-2.337c-.142-.396-.521-.663-.941-.663h-5.182c-.421 0-.8.267-.941.663zm9.032 7.069c0-.931-.151-1.848-.433-2.732h-1.567v1c0 .553-.447 1-1 1s-1-.447-1-1v-1h-3v1c0 .553-.447 1-1 1s-1-.447-1-1v-1h-1.567c-.282.885-.433 1.801-.433 2.732v.268h11zm-13-8.732h.344c.353-.806.9-1.491 1.583-2h-1.927z"/></svg>