<svg id="Layer_1" viewBox="0 0 24 24" xmlns="http://www.w3.org/2000/svg" data-name="Layer 1"><path d="m7 16h-3v-2h3zm-3 4h3v-2h-3zm20-11v2.349c-.571-.706-1.244-1.325-2-1.831v-.518c0-.551-.448-1-1-1h-7.414l-1.586-1.586-5.586 5.586h-4.414v10h7.518c.506.756 1.125 1.429 1.831 2h-11.349v-15c0-1.654 1.346-3 3-3h6.586l1.414-1.414v-4.586h2l4 2.5-3.745 2.341 1.159 1.159h6.586c1.654 0 3 1.346 3 3zm-16.414-1h-4.586c-.551 0-1 .449-1 1v1h3.586zm16.414 9c0 3.859-3.141 7-7 7s-7-3.141-7-7 3.141-7 7-7 7 3.141 7 7zm-2 0c0-2.757-2.243-5-5-5s-5 2.243-5 5 2.243 5 5 5 5-2.243 5-5zm-3.457-2.957-1.543 1.543-1.543-1.543-1.414 1.414 1.543 1.543-1.543 1.543 1.414 1.414 1.543-1.543 1.543 1.543 1.414-1.414-1.543-1.543 1.543-1.543z"/></svg>