<svg id="Layer_1" viewBox="0 0 24 24" xmlns="http://www.w3.org/2000/svg" data-name="Layer 1"><path d="m2 3c0-.551.448-1 1-1h8v7h7v2h2v-3.414l-7.586-7.586h-9.414c-1.654 0-3 1.346-3 3v21h13v-2h-11zm11 .414 3.586 3.586h-3.586zm-8 16.586v-4h2v4zm4 0v-9h2v9zm10.5-7c-2.65 0-4.5.617-4.5 1.5v7.333c0 1.377 1.641 2.167 4.5 2.167s4.5-.79 4.5-2.167v-7.333c0-.883-1.85-1.5-4.5-1.5zm2.5 2.773v1.738c-.266.18-1.026.488-2.5.488-1.498 0-2.247-.291-2.5-.457v-1.77c.698.144 1.544.227 2.5.227s1.802-.083 2.5-.227zm-2.5 6.227c-1.386 0-2.204-.233-2.5-.393v-1.928c.65.194 1.459.321 2.5.321 1.02 0 1.838-.129 2.5-.331v1.938c-.296.16-1.114.393-2.5.393z"/></svg>