<?xml version="1.0" encoding="UTF-8"?>
<svg xmlns="http://www.w3.org/2000/svg" id="Layer_1" data-name="Layer 1" viewBox="0 0 24 24">
  <path d="M7,8.667L2,13.418v10.582H0V12.5L7,6v2.667ZM24,0V19c0,1.654-1.346,3-3,3H12c-.527,0-1.046-.139-1.5-.402l-.5,.713v1.688h-2v-2.312l4.667-6.756c.469-.559,.41-1.282-.069-1.689-.43-.364-1.071-.358-1.498,.016l-4.43,3.993-1.34-1.485,4.438-4c1.17-1.035,2.941-1.053,4.125-.048,.698,.594,1.062,1.43,1.093,2.282h7.014V2H11v7.062c-.705,.119-1.384,.39-2,.8V0h15Zm-2,16h-7.646c-.036,.048-2.709,3.927-2.709,3.927,.114,.043,.232,.073,.355,.073h9c.552,0,1-.449,1-1v-3Zm-4,3v-2h-3v2h3Z"/>
</svg>
