<svg id="Layer_1" viewBox="0 0 24 24" xmlns="http://www.w3.org/2000/svg" data-name="Layer 1"><path d="m21 11h-18c-1.654 0-3 1.346-3 3v10h24v-10c0-1.654-1.346-3-3-3zm1 11h-20v-8c0-.552.449-1 1-1h18c.552 0 1 .448 1 1zm-13.043-5.543-1.043 1.043 1.043 1.043-1.414 1.414-1.043-1.043-1.043 1.043-1.414-1.414 1.043-1.043-1.043-1.043 1.414-1.414 1.043 1.043 1.043-1.043zm5.5 0-1.043 1.043 1.043 1.043-1.414 1.414-1.043-1.043-1.043 1.043-1.414-1.414 1.043-1.043-1.043-1.043 1.414-1.414 1.043 1.043 1.043-1.043zm5.5 0-1.043 1.043 1.043 1.043-1.414 1.414-1.043-1.043-1.043 1.043-1.414-1.414 1.043-1.043-1.043-1.043 1.414-1.414 1.043 1.043 1.043-1.043zm-13.614-12.114-1.414-1.414c1.889-1.889 4.4-2.929 7.071-2.929s5.183 1.04 7.071 2.929l-1.414 1.414c-1.511-1.511-3.521-2.343-5.657-2.343s-4.146.832-5.657 2.343zm8.485 2.828c-1.512-1.511-4.146-1.511-5.657 0l-1.414-1.414c1.133-1.133 2.64-1.757 4.243-1.757s3.109.624 4.242 1.757zm-4.242 1.415c.779-.78 2.049-.78 2.828 0l-1.414 1.414z"/></svg>