<svg id="Layer_1" viewBox="0 0 24 24" xmlns="http://www.w3.org/2000/svg" data-name="Layer 1"><path d="m7.381 13.277c-.87 0-1.679-.389-2.221-1.069-.542-.678-.742-1.552-.55-2.398.285-1.257.646-2.862.961-4.304.766-3.5 3.109-5.507 6.428-5.507.503 0 .975.061 1.432.152-.472.563-.841 1.214-1.087 1.923-.118-.007-.22-.032-.345-.032-2.958 0-4.043 2.121-4.433 3.901-.316 1.446-.679 3.057-.965 4.318-.073.325.065.561.154.672.089.112.29.3.625.3h9.237c.335 0 .536-.188.625-.3.113-.108.241-.471.131-.772.247.03.497.051.753.051.443 0 .875-.05 1.291-.139.1.761-.093 1.526-.579 2.134-.542.679-1.351 1.069-2.221 1.069h-2.576c0 1.128-.914 2.043-2.043 2.043s-2.043-.914-2.043-2.043h-2.576zm-.487 10.212h15.319v-2.043h-15.319zm-3.575-2.553c-.846 0-1.532.686-1.532 1.532s.686 1.532 1.532 1.532 1.532-.686 1.532-1.532-.686-1.532-1.532-1.532zm3.575-2.553h15.319v-2.043h-15.319zm-3.575-2.553c-.846 0-1.532.686-1.532 1.532s.686 1.532 1.532 1.532 1.532-.686 1.532-1.532-.686-1.532-1.532-1.532zm10.724-11.745c0-2.252 1.833-4.085 4.085-4.085s4.085 1.833 4.085 4.085-1.833 4.085-4.085 4.085-4.085-1.833-4.085-4.085zm2.042 0c0 1.126.916 2.043 2.043 2.043s2.043-.916 2.043-2.043-.916-2.043-2.043-2.043-2.043.916-2.043 2.043z"/></svg>