<svg id="Layer_1" viewBox="0 0 24 24" xmlns="http://www.w3.org/2000/svg" data-name="Layer 1"><path d="m18 12c-3.314 0-6 2.686-6 6s2.686 6 6 6c.341 0 .674-.035 1-.09v-3.368c0-.808.621-1.503 1.427-1.541.663-.031 1.237.368 1.466.942.132.33.438.556.793.556h.034c.337 0 .646-.2.776-.511.282-.672.455-1.401.493-2.166-.094-3.231-2.737-5.823-5.991-5.823zm-2 9.5c-.828 0-1.5-.672-1.5-1.5s.672-1.5 1.5-1.5 1.5.672 1.5 1.5-.672 1.5-1.5 1.5zm0-4c-.828 0-1.5-.672-1.5-1.5s.672-1.5 1.5-1.5 1.5.672 1.5 1.5-.672 1.5-1.5 1.5zm4 0c-.828 0-1.5-.672-1.5-1.5s.672-1.5 1.5-1.5 1.5.672 1.5 1.5-.672 1.5-1.5 1.5zm-17.523-11.079c-.105.456-.163.924-.163 1.393 0 3.411 2.775 6.186 6.186 6.186s6.186-2.775 6.186-6.186c0-.285-.025-.565-.062-.842l.768-2.745c.197-.589.127-1.179-.198-1.661-.321-.479-.838-.773-1.396-.804l-4.297-.328v-1.434h-2v1.281l-3.5-.267c-1.598-.109-2.91 1.544-2.381 3.135l.858 2.272zm6.023 5.579c-2.308 0-4.186-1.877-4.186-4.186 0-.278.033-.549.085-.814h8.194c.053.267.093.537.093.814 0 2.308-1.877 4.186-4.186 4.186zm-4.912-8.837c.089-.111.203-.156.272-.153l9.59.731-.354 1.26h-9.019l-.561-1.478c-.037-.13-.012-.254.072-.359zm1.412 12.837h5.263c-.166.641-.263 1.308-.263 2h-5c-1.654 0-3 1.346-3 3v3h-2v-3c0-2.757 2.243-5 5-5z"/></svg>