<?xml version="1.0" encoding="UTF-8"?>
<svg xmlns="http://www.w3.org/2000/svg" id="Layer_1" data-name="Layer 1" viewBox="0 0 24 24">
  <path d="M18,8c2.206,0,4-1.794,4-4S20.206,0,18,0s-4,1.794-4,4,1.794,4,4,4Zm0-6c1.103,0,2,.897,2,2s-.897,2-2,2-2-.897-2-2,.897-2,2-2ZM8,11c0,2.206,1.794,4,4,4s4-1.794,4-4-1.794-4-4-4-4,1.794-4,4Zm4-2c1.103,0,2,.897,2,2s-.897,2-2,2-2-.897-2-2,.897-2,2-2Zm-6-1c2.206,0,4-1.794,4-4S8.206,0,6,0,2,1.794,2,4s1.794,4,4,4Zm0-6c1.103,0,2,.897,2,2s-.897,2-2,2-2-.897-2-2,.897-2,2-2Zm12,17.5c0-1.93-1.57-3.5-3.5-3.5h-5c-1.93,0-3.5,1.57-3.5,3.5v2.5H0v2H24v-2h-6v-2.5Zm-10,0c0-.827,.673-1.5,1.5-1.5h5c.827,0,1.5,.673,1.5,1.5v2.5H8v-2.5Zm16-6v2.5h-2v-2.5c0-.827-.673-1.5-1.5-1.5h-2.59c.055-.326,.09-.659,.09-1s-.035-.674-.09-1h2.59c1.93,0,3.5,1.57,3.5,3.5ZM2,16H0v-2.5c0-1.93,1.57-3.5,3.5-3.5h2.59c-.055,.326-.09,.659-.09,1s.035,.674,.09,1H3.5c-.827,0-1.5,.673-1.5,1.5v2.5Z"/>
</svg>
