<svg id="Layer_1" viewBox="0 0 24 24" xmlns="http://www.w3.org/2000/svg" data-name="Layer 1"><path d="m23.74 6.013c.488-3.293.151-4.934.111-5.11l-.14-.615-.614-.139c-.177-.04-1.819-.378-5.152.118-1.349.259-2.779 1.02-3.726 1.6l-.654-1.69-.941.38c-.087.035-1.704.703-3.184 2.272l-.504-1.401-1.102.951c-.329.283-.646.579-.95.882-.967.966-1.986 2.597-2.358 4.586l-1.187-.62-.38 1.096c-1.511 4.36-.862 10.116-.603 11.906l-2.323 2.325 1.414 1.414 2.324-2.324c.907.13 2.828.359 5.073.359 2.191 0 4.686-.22 6.833-.963l1.097-.38-.62-1.188c1.987-.372 3.619-1.391 4.586-2.357.304-.304.598-.62.883-.949l.952-1.102-1.411-.508c1.574-1.505 2.232-3.174 2.267-3.264l.37-.958-1.649-.585c.579-.951 1.328-2.376 1.59-3.736zm-1.972-.335c-.344 1.786-1.944 3.97-1.96 3.991l-.802 1.086 2.074.736c-.461.747-1.266 1.794-2.487 2.535l-1.791 1.086 2.275.819c-.946.824-2.593 1.688-4.499 1.688h-1.651l.971 1.857c-2.88.702-6.254.559-8.326.363l12.058-12.055-1.414-1.414-12.057 12.058c-.198-2.078-.34-5.446.363-8.327l1.858.971v-1.651c0-1.908.864-3.554 1.689-4.499l.819 2.275 1.086-1.791c.743-1.226 1.771-2.038 2.502-2.504l.801 2.069 1.054-.78c.605-.448 2.502-1.674 3.949-1.953 1.773-.263 2.999-.259 3.696-.214.045.692.051 1.909-.208 3.653z"/></svg>