<?xml version="1.0" encoding="UTF-8"?>
<svg xmlns="http://www.w3.org/2000/svg" id="Layer_1" data-name="Layer 1" viewBox="0 0 24 24">
  <path d="M21.076,11.006l-7.592-.006-4.483,4.593v4.297l3.778,4.11h8.197l3.01-5.402-2.91-7.592Zm-1.275,10.994h-6.145l-2.656-2.89v-2.703l3.325-3.407,5.375,.004,2.083,5.438-1.983,3.559ZM11,4.184L5.268,.153,0,3.445v6.723l7.022,2.555,3.978-3.315V4.184Zm-2,4.286l-2.375,1.979-4.625-1.682V4.555l3.203-2.003,3.797,2.671v3.247Zm11.606,.53l3.256-3.223-1.885-5.777h-5.543l-3.31,4.137,3.688,4.863h3.795Zm-3.212-7h3.131l1.052,3.225-1.794,1.775h-1.979l-2.146-2.83,1.735-2.17ZM0,16.657v3.697l3.675,1.798,2.996-3.596-2.565-3.715-4.106,1.815Zm3.144,3.009l-1.144-.56v-1.146l1.401-.62,.761,1.104-1.019,1.223Zm14.856,.334h-3.439l-1.797-1.955,1.473-1.354,1.203,1.309h2.561v2Z"/>
</svg>
