<svg id="Layer_1" viewBox="0 0 24 24" xmlns="http://www.w3.org/2000/svg" data-name="Layer 1"><path d="m24 3v18.85c.025 1.158-.999 2.17-2.149 2.149-.416 0-.83-.121-1.19-.361l-4.514-3.638h-16.147v-5.026c.584.442 1.257.773 2 .924v2.101h14.853l4.902 3.957c.093.077.245.043.245-.107v-18.849c0-.552-.449-1-1-1h-10.208c-.212-.747-.591-1.418-1.074-2h11.282c1.654 0 3 1.346 3 3zm-24 8v-7h2v-.5c0-1.93 1.57-3.5 3.5-3.5s3.5 1.57 3.5 3.5v.5h2v7c0 1.654-1.346 3-3 3h-5c-1.654 0-3-1.346-3-3zm4-7h3v-.5c0-.827-.673-1.5-1.5-1.5s-1.5.673-1.5 1.5zm-2 7c0 .552.449 1 1 1h5c.551 0 1-.448 1-1v-5h-7zm4.5-3h-2v2h2z"/></svg>