<svg id="Layer_1" viewBox="0 0 24 24" xmlns="http://www.w3.org/2000/svg" data-name="Layer 1"><path d="m7 16h2v8h-2zm5 8h2v-11h-2zm-10 0h2v-5h-2zm16-19.5c-.828 0-1.5.672-1.5 1.5s.672 1.5 1.5 1.5 1.5-.672 1.5-1.5-.672-1.5-1.5-1.5zm-1 8.5h2v-4h-2zm4-1.812c1.79-1.039 3-2.973 3-5.188 0-3.309-2.691-6-6-6s-6 2.691-6 6c0 2.215 1.21 4.149 3 5.188v-2.568c-.615-.703-1-1.613-1-2.62 0-2.209 1.791-4 4-4s4 1.791 4 4c0 1.008-.385 1.917-1 2.62zm-13-2.188c0-1.36-.974-2.51-2.315-2.733l-3.041-.507c-.373-.062-.644-.382-.644-.76 0-.551.448-1 1-1h2c.552 0 1 .449 1 1h2c0-1.654-1.346-3-3-3v-2h-2v2c-1.654 0-3 1.346-3 3 0 1.36.974 2.51 2.315 2.733l3.041.507c.373.062.644.382.644.76 0 .551-.448 1-1 1h-2c-.552 0-1-.449-1-1h-2c0 1.654 1.346 3 3 3v2h2v-2c1.654 0 3-1.346 3-3zm9 15h2v-9h-2zm5 0h2v-12.721c-.571.649-1.249 1.197-2 1.634z"/></svg>