<?xml version="1.0" encoding="UTF-8"?>
<svg xmlns="http://www.w3.org/2000/svg" id="Layer_1" data-name="Layer 1" viewBox="0 0 24 24">
  <path d="M7,2.5c0-1.381,1.119-2.5,2.5-2.5s2.5,1.119,2.5,2.5-1.119,2.5-2.5,2.5-2.5-1.119-2.5-2.5Zm-3.611,14.628l-1.623,6.872h2.252l1.15-5.317-1.388-1.178c-.141-.117-.267-.246-.392-.376ZM11.323,7.322c-.453-.815-1.313-1.322-2.246-1.322h-1.577c-.696,0-1.384,.111-2.044,.332l-4.309,1.958L.03,12.757l1.94,.485,.883-3.533,2.126-.969-.896,4.257c-.26,1.112,.124,2.258,.994,2.982l2.923,2.483v5.537h2v-6.463l-3.636-3.088c-.293-.244-.42-.625-.329-1.018l1.051-4.992c.061-.259,.289-.439,.554-.439h1.589l-1.355,5.108,1.701,1.445,.946-3.666,.667,1.802,3.815,2.18,.992-1.736-3.185-1.82-1.489-3.99Zm12.103,3.327l-2.719-2.719-1.414,1.414,1.69,1.656h-3.983v2h4.02l-1.727,1.727,1.414,1.414,2.72-2.719c.763-.764,.763-2.008,0-2.773Z"/>
</svg>
