<svg id="Layer_1" viewBox="0 0 24 24" xmlns="http://www.w3.org/2000/svg" data-name="Layer 1"><path d="m14 16h-12v-14h10v-2h-12v21c0 1.654 1.346 3 3 3h10c1.654 0 3-1.346 3-3v-9h-2zm-1 6h-10c-.551 0-1-.449-1-1v-3h12v3c0 .551-.448 1-1 1zm-7-3h4v2h-4zm18-9h-2c0-4.411-3.589-8-8-8v-2c5.514 0 10 4.486 10 10zm-4 0h-2c0-2.206-1.794-4-4-4v-2c3.309 0 6 2.691 6 6zm-4 0h-2v-2c1.103 0 2 .897 2 2zm-7.178-4.717c-.241-.189-.531-.283-.822-.283s-.58.094-.822.283l-2.667 2.087c-.323.253-.512.64-.512 1.05v4.58h8.001v-4.58c0-.41-.189-.797-.512-1.05l-2.667-2.087zm.178 5.717h-2v-2h2z"/></svg>