<?xml version="1.0" encoding="UTF-8"?>
<svg xmlns="http://www.w3.org/2000/svg" id="Layer_1" data-name="Layer 1" viewBox="0 0 24 24">
  <path d="M6.5,5c0-.828,.672-1.5,1.5-1.5s1.5,.672,1.5,1.5-.672,1.5-1.5,1.5-1.5-.672-1.5-1.5Zm17.5,1.12s-.671-1.68-1-2.12c-.012,.004-.988-.004-1,0-.041,.337,.023,1.662,0,2-.044,.628-.381,.956-1,1,0,0-1.347,2.076-1.875,2.636-.172,.182-.554,.364-.825,.364-.172,0-.3-.074-.3-.268v-2.732s-1.688-.471-3.108-.804c-.114,.667-.324,1.308-.623,1.909,.559,.128,1.182,.285,1.731,.428v1.199c0,1.272,1.01,2.268,2.3,2.268,.565,0,1.186-.197,1.7-.521,0,.017,0,.034,0,.051,.005,.362,0,2.207,0,2.207-.001,.002-.002,.003-.003,.005-.099,.142-.599,.922-.803,1.21-.303,.427-.616,.868-.869,1.349-.123,.234-.216,.493-.277,.768-.315-.044-.663-.067-1.047-.067-1,0-1.764,.407-2.27,1h-1.378l-.525,.38c-.23,.167-.624,.452-1.328,1.807-.478-.6-1.224-.976-2.229-1.122-.01-.017-.019-.034-.029-.052-.935-1.649-3.539-2.777-5.514-3.001-.271-.031-.552-.028-.817,.005-.514-1.118-.908-2.429-.908-3.498v-1.256c0-.589,.133-1.409,.3-2.215-.649-.911-1.063-1.949-1.221-3.048h-.079s-1,3.344-1,5.263v1.256c0,2.038,1,4.481,2,5.981,.362-.241,.829-.509,1.34-.509,1.577,.179,3.652,1.113,4.16,2.009,.254,.448,.5,1,.5,1,.472,0,1.756,.051,2,.538,.5,1,2,2.462,2,2.462,0,0,1.4-3.566,2-4h2s0-1,1-1c.617,0,2,0,2,1,0,.656,.613,1.587,1,2l1.23,.004c.185-.718,.019-1.295-.276-1.847-.335-.625-.658-1.234-.915-1.89-.084-.216,.015-.958,.056-1.037,.351-.669,.977-1.402,1.355-2.059,.21-.365,.55-.67,.55-1.17,0-1,.009-1.925,0-2.5-.007-.463,2-4.5,2-4.5v-.88ZM4.472,8.543c-.952-.952-1.472-2.207-1.472-3.543C2.944,2.312,5.313-.055,8,0c2.687-.055,5.056,2.312,5,5,0,1.336-.52,2.591-1.464,3.535l-3.536,3.458-3.528-3.45Zm.528-3.543c0,.802,.312,1.555,.878,2.121l2.122,2.075,2.129-2.083c.559-.559,.871-1.312,.871-2.113,.033-1.613-1.388-3.033-3-3-1.612-.033-3.033,1.387-3,3Z"/>
</svg>
