<?xml version="1.0" encoding="UTF-8"?>
<svg xmlns="http://www.w3.org/2000/svg" id="Layer_1" data-name="Layer 1" viewBox="0 0 24 24">
  <path d="M24,8.175c0-.878-.342-1.703-.974-2.335L17.993,.962c-1.28-1.281-3.365-1.281-4.651,.004L.963,13.502c-1.279,1.231-1.277,3.424,.011,4.657l5.033,4.878c1.222,1.275,3.425,1.275,4.646,0l12.384-12.538c.621-.621,.963-1.446,.963-2.324Zm-12.042-2.96l6.827,6.742-6.743,6.827-6.827-6.742,6.743-6.828ZM7.41,21.612l-5.033-4.878c-.5-.483-.5-1.339,.005-1.822l1.428-1.446,6.827,6.742-1.4,1.417c-.484,.483-1.318,.494-1.826-.014Zm14.208-12.523l-1.427,1.445L13.363,3.791l1.397-1.415c.506-.505,1.323-.497,1.829,.011l5.033,4.878c.501,.483,.5,1.339-.005,1.823Zm1.419,4.258c1.275,1.222,1.275,3.425,0,4.646l-4.878,5.033c-1.233,1.288-3.426,1.29-4.657,.011l1.414-1.414c.486,.486,1.332,.486,1.818,0l4.878-5.033c.512-.491,.513-1.34,.011-1.829l1.414-1.414ZM.963,10.654C-.313,9.431-.312,7.23,.963,6.007L5.841,.974c1.293-1.292,3.378-1.292,4.657-.011l-1.414,1.414c-.502-.501-1.316-.501-1.818,0L2.388,7.41c-.511,.491-.514,1.341-.011,1.829l-1.414,1.415Zm12.537,1.346c0-.828,.672-1.5,1.5-1.5s1.5,.672,1.5,1.5-.672,1.5-1.5,1.5-1.5-.672-1.5-1.5Zm0,3c0,.828-.672,1.5-1.5,1.5s-1.5-.672-1.5-1.5,.672-1.5,1.5-1.5,1.5,.672,1.5,1.5Zm-3-6c0-.828,.672-1.5,1.5-1.5s1.5,.672,1.5,1.5-.672,1.5-1.5,1.5-1.5-.672-1.5-1.5Zm-3,3c0-.828,.672-1.5,1.5-1.5s1.5,.672,1.5,1.5-.672,1.5-1.5,1.5-1.5-.672-1.5-1.5Z"/>
</svg>
