<?xml version="1.0" encoding="UTF-8"?>
<svg xmlns="http://www.w3.org/2000/svg" id="Layer_1" data-name="Layer 1" viewBox="0 0 24 24">
  <path d="M23.525,4.423c-.536-1.229-1.374-2.186-2.301-2.624-.603-.29-1.301-.374-1.95-.227l-.86-.86c-.949-.949-2.487-.949-3.435,0l1.431,1.431c.308,.308,.681,.506,1.074,.614-.146,.21-.26,.448-.328,.695-2.967,3.772-6.31,4.474-6.736,4.549-3.762,.034-6.909,2.993-7.178,6.764-.148,2.078-.333,4.101-.462,5.433-.099,1.028-.955,1.804-1.99,1.804H0v2H.791c2.147,0,6.209-1.463,6.209-7h-1.924c.056-.675,.111-1.38,.162-2.094,.196-2.806,2.582-4.955,5.386-4.914,.152-.019,3.202-.446,6.376-3.42v3.928l-4,3v.5c0,3.47-3.245,3.962-3.61,4.006l-1.137,.127,1.467,5.867h5.281v-2h-3.719l-.561-2.245c1.792-.558,4.042-2.075,4.263-5.242l2.196-1.647c.286,.833,.904,1.518,1.719,1.833,1.045,.403,2.103,1.323,2.103,2.302h2c0-1.977-1.698-3.518-3.383-4.167-.369-.143-.617-.545-.617-1V7.144c.912,.409,1.844,.713,2.594,.834,.825,.168,1.962,.061,2.241-.669,.305-.642,.187-1.747-.31-2.886Zm-1.611,1.58c-.624-.101-1.511-.398-2.313-.779-.255-.12-.447-.324-.541-.573-.323-.78,.611-1.421,1.309-1.045,.474,.225,.994,.859,1.323,1.616,.135,.31,.214,.575,.258,.787l-.035-.006Z"/>
</svg>
