<svg id="Layer_1" viewBox="0 0 24 24" xmlns="http://www.w3.org/2000/svg" data-name="Layer 1"><path d="m9.5 13c-.828 0-1.5-.672-1.5-1.5 0-.829.672-1.501 1.5-1.501s1.5.672 1.5 1.5c0 .829-.672 1.501-1.5 1.501zm14.5-1.5c0 1.852-1.446 3.373-3.268 3.492-.892 1.942-2.61 3.834-4.732 4.961v4.047h-2v-3.263c-.648.168-1.317.264-2 .264s-1.352-.096-2-.264v3.263h-2v-4.047c-2.123-1.127-3.841-3.019-4.732-4.961-1.822-.12-3.268-1.64-3.268-3.492 0-1.434.87-2.692 2.15-3.226.823-4.762 4.945-8.274 9.85-8.274s9.027 3.512 9.851 8.274c1.279.534 2.149 1.792 2.149 3.226zm-6.362-4.132c.132.12.282.225.446.312.463.246.856.59 1.164 1.003.166-.148.359-.271.569-.374-.154-.722-.402-1.405-.733-2.036-.438.485-.947.847-1.446 1.095zm-12.721-1.095c-.331.631-.579 1.315-.733 2.036.209.103.402.226.568.374.309-.413.702-.757 1.165-1.003.164-.087.314-.192.446-.312-.499-.249-1.008-.611-1.446-1.095zm17.083 5.227c0-.689-.477-1.271-1.138-1.437-.58.095-.743 1.069-.745 1.08l-.129.849c-.481.007-1.502.009-1.988.008v-1c0-.668-.335-1.278-.854-1.554-.936-.497-1.628-1.302-1.952-2.268l-.342-1.019 1.041-.268c.567-.146 1.513-.505 1.987-1.327-1.466-1.586-3.564-2.566-5.88-2.566s-4.414.98-5.88 2.566c.473.822 1.419 1.18 1.987 1.327l1.04.268-.341 1.019c-.324.966-1.017 1.771-1.951 2.268-.519.276-.854.886-.854 1.554v1h-2l-.119-.864s-.163-.978-.743-1.073c-.661.166-1.138.748-1.138 1.437 0 .827.673 1.5 1.5 1.5.182 0 .897-.145 1.088-.172l.281.796c.917 2.597 4.001 5.377 7.131 5.377s6.215-2.78 7.131-5.377l.281-.796c.195.027.901.172 1.088.172.827 0 1.5-.673 1.5-1.5zm-12.999 3.499s0 0 0 .001c.49 1.174 1.648 2 2.999 2s2.509-.826 2.999-2 0 0 0-.001zm5.499-5c-.828 0-1.5.672-1.5 1.5 0 .829.672 1.501 1.5 1.501s1.5-.672 1.5-1.5c0-.829-.672-1.501-1.5-1.501z"/></svg>