<?xml version="1.0" encoding="UTF-8"?>
<svg xmlns="http://www.w3.org/2000/svg" id="Layer_1" data-name="Layer 1" viewBox="0 0 24 24">
  <path d="M15.758,10.291c-.489,.441-.758,1.048-.758,1.709,0,.647,.277,1.268,.753,1.693l8.247,7.547V2.75l-8.242,7.541Zm6.242,6.408l-4.904-4.488c-.061-.054-.096-.131-.096-.211,0-.092,.032-.165,.103-.229l4.897-4.48v9.408ZM0,2.75V21.24l8.239-7.539c.483-.434,.761-1.054,.761-1.701,0-.661-.269-1.268-.753-1.705L0,2.75ZM6.896,12.219l-4.896,4.48V7.291l4.902,4.484c.066,.06,.098,.133,.098,.225,0,.08-.035,.157-.104,.219ZM11,0h2V24h-2V0Z"/>
</svg>
