<svg id="Layer_1" viewBox="0 0 24 24" xmlns="http://www.w3.org/2000/svg" data-name="Layer 1"><path d="m17 12-7 12h14zm1 11h-2v-2h2zm-2-3v-4h2v4zm-12.074 2-.846-11h17.84l-.255 3.313 1.772 3.038.643-8.352h-4.245c.105-.799.165-1.493.165-2 0-3.86-3.141-7-7-7s-7 3.141-7 7.001c0 .591.074 1.313.166 2h-4.246l.769 10h-1.689v2c0 1.654 1.346 3 3 3h4.685l1.167-2zm6.559-14.5c0-.827.673-1.5 1.5-1.5s1.5.673 1.5 1.5c0 .383-.041.898-.116 1.5h-2.742c-.114-.778-.142-1.238-.142-1.5zm-3.485-.5c0-2.757 2.243-5 5-5s5 2.243 5 5c0 .472-.065 1.177-.182 2h-1.436c.066-.581.103-1.089.103-1.5 0-1.93-1.57-3.5-3.5-3.5s-3.5 1.57-3.5 3.5c0 .386.045.896.126 1.5h-1.429c-.117-.824-.182-1.53-.182-2z"/></svg>