<?xml version="1.0" encoding="UTF-8"?>
<svg xmlns="http://www.w3.org/2000/svg" id="Layer_1" data-name="Layer 1" viewBox="0 0 24 24">
  <path d="M15,2.5c0-1.381,1.119-2.5,2.5-2.5s2.5,1.119,2.5,2.5-1.119,2.5-2.5,2.5-2.5-1.119-2.5-2.5Zm6.079,15.095l2.831,5.348-1.768,.936-2.594-4.9-6.161-4.113,.782-5.236-3.262,4.062-1.56-1.252,3.973-4.948c.764-.947,1.899-1.49,3.115-1.49h.633c.867,0,1.69,.374,2.26,1.027s.829,1.52,.712,2.379l-.165,1.151,4.081,2.331-.992,1.736-3.394-1.939-.51,3.56,2.02,1.348Zm-5.527-3.689l1.664,1.111,.844-5.887c.039-.284-.046-.565-.238-.786-.193-.221-.46-.343-.753-.343h-.633s0,0,0,0l-.882,5.905Zm-2.923,10.095h2.034l.901-5.365-1.799-1.2-1.136,6.565ZM5.329,12.589c-.746,.099-1.408,.483-1.853,1.071l-2.913,3.724c-.919,1.215-.688,2.964,.517,3.899l2.184,1.692c.343,.609,.988,1.025,1.736,1.025,1.105,0,2-.895,2-2s-.895-2-2-2c-.583,0-1.103,.254-1.469,.652l-1.226-.95c-.343-.267-.41-.765-.157-1.099l2.913-3.724c.129-.171,.318-.28,.531-.309,.212-.03,.423,.028,.592,.159l1.521,1.18-1.702,2.233c.675,.176,1.283,.515,1.77,.986l2.75-3.565-3.115-2.415c-.595-.46-1.336-.66-2.08-.561Z"/>
</svg>
