<svg id="Layer_1" viewBox="0 0 24 24" xmlns="http://www.w3.org/2000/svg" data-name="Layer 1"><path d="m24 16h-1.346l-.394-3.351c-.178-1.51-1.458-2.649-2.979-2.649h-14.561c-1.521 0-2.802 1.139-2.979 2.649l-.394 3.351h-1.347v2h1.346l.394 3.351c.178 1.51 1.458 2.649 2.979 2.649h14.561c1.521 0 2.802-1.139 2.979-2.649l.394-3.351h1.346v-2zm-20.273-3.117c.059-.503.486-.883.993-.883h14.561c.507 0 .935.379.993.883l.367 3.117h-17.281zm16.547 8.234c-.059.503-.486.883-.993.883h-14.561c-.507 0-.935-.379-.993-.883l-.367-3.117h5.859l.499 2h4.562l.499-2h5.859l-.367 3.117zm-12.274-13.117c1.859 0 3.411-1.28 3.858-3h10.142v-2h-10.142c-.447-1.72-1.999-3-3.858-3-2.061 0-6 1.558-6 4s3.939 4 6 4zm0-6c1.103 0 2 .897 2 2s-.897 2-2 2c-1.495 0-4-1.252-4-2s2.505-2 4-2z"/></svg>