<svg id="Layer_1" viewBox="0 0 24 24" xmlns="http://www.w3.org/2000/svg" data-name="Layer 1"><path d="m7.5 8.5c.828 0 1.5.672 1.5 1.5s-.672 1.5-1.5 1.5-1.5-.672-1.5-1.5.672-1.5 1.5-1.5zm7.5 9.5h-10c-2.206 0-4 1.794-4 4v2h2v-2c0-1.103.897-2 2-2h10c1.103 0 2 .897 2 2v2h2v-2c0-2.206-1.794-4-4-4zm-13-2h15v-2h-13v-7c0-.551.448-1 1-1h6v-5h-2v3h-4c-1.654 0-3 1.346-3 3v1h-2v4h2zm20-16h-2.7v1.2h.2c1.201 0 2.189.925 2.291 2.1h-1.62c-.086-.289-.355-.5-.671-.5h-2.127c-.316 0-.573.258-.573.574 0 .271.194.508.461.562l2.792.559c1.013.202 1.747 1.098 1.747 2.131 0 1.199-.975 2.174-2.174 2.174h-.326v1.2h4.7v-8c0-1.105-.896-2-2-2zm-7.908 11.862c.196 0 .397-.054.583-.173l2.454-1.69h.572v-1.2h-.2c-1.201 0-2.189-.925-2.291-2.1h1.62c.086.289.355.5.671.5h2.126c.316 0 .574-.258.574-.574 0-.272-.194-.509-.462-.563l-2.791-.559c-1.013-.202-1.747-1.098-1.747-2.131 0-1.198.975-2.173 2.173-2.173h.327v-1.198h-2.701c-1.1.001-2 .901-1.999 2.001l.002 8.772c0 .638.524 1.088 1.089 1.088z"/></svg>