<svg id="Layer_1" viewBox="0 0 24 24" xmlns="http://www.w3.org/2000/svg" data-name="Layer 1"><path d="m20 12c-2.206 0-4 1.794-4 4 0 1.474.81 2.75 2 3.444v4.556l2-2 2 2v-4.556c1.19-.694 2-1.97 2-3.444 0-2.206-1.794-4-4-4zm0 6c-1.103 0-2-.897-2-2s.897-2 2-2 2 .897 2 2-.897 2-2 2zm-14-13.5c0 .828-.672 1.5-1.5 1.5s-1.5-.672-1.5-1.5.672-1.5 1.5-1.5 1.5.672 1.5 1.5zm4 0c0 .828-.672 1.5-1.5 1.5s-1.5-.672-1.5-1.5.672-1.5 1.5-1.5 1.5.672 1.5 1.5zm11-4.5h-18c-1.654 0-3 1.346-3 3v19h16v-2h-14v-11h20v1.349c.746.264 1.423.67 2 1.188v-8.537c0-1.654-1.346-3-3-3zm-19 7v-4c0-.551.449-1 1-1h18c.551 0 1 .449 1 1v4zm8 11v-.5c0-.276-.224-.5-.5-.5h-3c-.276 0-.5.224-.5.5v.5h-2v-.5c0-1.378 1.122-2.5 2.5-2.5h3c1.378 0 2.5 1.122 2.5 2.5v.5zm-4-5.997c0-1.105.895-2 2-2s2 .895 2 2-.895 2-2 2-2-.895-2-2z"/></svg>