<?xml version="1.0" encoding="UTF-8"?>
<svg xmlns="http://www.w3.org/2000/svg" id="Layer_1" data-name="Layer 1" viewBox="0 0 24 24">
  <path d="M24,13c-.579,0-2.53,.281-4.638,1.403l-2.41-2.41,5.755-5.75,1.245-3.812c.329-1.425-1.004-2.749-2.48-2.357l-3.714,1.218-5.756,5.752L6.242,1.292,2.431,.048C1.007-.285-.316,1.053,.074,2.527l1.219,3.716,5.758,5.749-2.413,2.411c-2.108-1.122-4.058-1.403-4.638-1.403v2c.028,0,2.812,.204,5.328,2.249L.788,21.788l1.414,1.414,4.54-4.539c2.05,2.521,2.258,5.309,2.258,5.338h2c0-.581-.283-2.536-1.411-4.65l2.412-2.41,2.411,2.41c-1.128,2.114-1.411,4.069-1.411,4.649h2c0-.028,.208-2.816,2.258-5.337l4.54,4.539,1.414-1.414-4.54-4.539c2.516-2.044,5.3-2.249,5.328-2.249v-2ZM3.043,5.165l-1.038-3.157,3.16,1.036,5.422,5.414-2.122,2.12L3.043,5.165Zm4.446,11.336c-.366-.366-.745-.695-1.13-.991L18.835,3.044l3.157-1.037-1.036,3.158-12.475,12.466c-.296-.385-.625-.764-.991-1.13Zm5.926-.974l2.122-2.12,2.103,2.103c-.767,.583-1.537,1.354-2.121,2.121l-2.104-2.103Z"/>
</svg>
