<?xml version="1.0" encoding="UTF-8"?>
<svg xmlns="http://www.w3.org/2000/svg" id="Layer_1" data-name="Layer 1" viewBox="0 0 24 24">
  <path d="M22.781,11.375c-.911-1.14-1.743-2.49-1.781-2.875V3.561c0-1.418-1.002-2.653-2.381-2.936-1.393-.286-3.671-.625-6.619-.625S6.773,.34,5.381,.625c-1.38,.282-2.381,1.517-2.381,2.936v4.926c-.038,.398-.87,1.749-1.781,2.888l-.219,.274v12.351H23V11.649l-.219-.274ZM14.539,2.093l-2.538,6.98-2.538-6.98c.773-.056,1.616-.093,2.538-.093s1.765,.037,2.539,.093ZM3,12.346c.737-.953,2-2.747,2-3.846V3.561c0-.473,.329-.884,.783-.977,.445-.091,.995-.188,1.629-.276l3.589,9.869v9.823H3V12.346Zm18,9.654H13V12.176l3.588-9.868c.634,.089,1.184,.185,1.63,.276,.453,.093,.782,.503,.782,.977v4.939c0,1.1,1.263,2.893,2,3.846v9.654Zm-2.307-9c.772,0,1.398,.688,1.398,1.538,0,1.61-2.795,3.587-2.795,3.587,0,0-2.795-1.977-2.795-3.587,0-.849,.626-1.538,1.398-1.538s1.398,.688,1.398,1.538c0-.849,.626-1.538,1.398-1.538Z"/>
</svg>
