<?xml version="1.0" encoding="UTF-8"?>
<svg xmlns="http://www.w3.org/2000/svg" id="Layer_1" data-name="Layer 1" viewBox="0 0 24 24">
  <path d="m24,10.737C24,4.716,18.729,0,12,0S0,4.716,0,10.737v.42l6,5.871v3.972c0,1.654,1.346,3,3,3h6c1.654,0,3-1.346,3-3v-3.972l6-5.871v-.42Zm-8.428,3.32l1.404-3.607c.616-.552,1.861-1.451,3.024-1.451,1.068,0,1.703.914,1.952,1.363l-4.736,4.634c-.427-.473-.996-.813-1.645-.939Zm-8.788.939l-4.735-4.633c.251-.445.896-1.364,1.952-1.364,1.164,0,2.409.899,3.024,1.45l1.404,3.607c-.65.126-1.218.466-1.645.939ZM12,2.418c.829.924,2.219,2.799,2.765,5.397-.785-.444-1.745-.815-2.765-.815s-1.979.371-2.765.815c.546-2.599,1.937-4.474,2.765-5.397Zm-1.448,11.582l-1.43-3.674c.652-.553,1.798-1.326,2.879-1.326s2.228.774,2.879,1.326l-1.43,3.674h-2.897Zm10.608-6.816c-.351-.112-.734-.184-1.16-.184-1.197,0-2.308.511-3.155,1.052-.383-2.493-1.437-4.454-2.398-5.788,3.042.647,5.495,2.471,6.712,4.92ZM9.553,2.264c-.961,1.334-2.014,3.295-2.398,5.788-.846-.541-1.958-1.052-3.155-1.052-.426,0-.809.072-1.16.184,1.218-2.449,3.67-4.274,6.713-4.92Zm-.553,19.736c-.551,0-1-.449-1-1v-4c0-.551.449-1,1-1h2v2h-2v2h2v2h-2Zm7-1c0,.551-.448,1-1,1h-2v-2h2v-2h-2v-2h2c.552,0,1,.449,1,1v4Z"/>
</svg>
