<svg id="Layer_1" viewBox="0 0 24 24" xmlns="http://www.w3.org/2000/svg" data-name="Layer 1"><path d="m21 0c-1.654 0-3 1.346-3 3v2.508c-.193-.319-.447-.602-.755-.832l-1.541-1.146c-1.292-.961-3.125-.692-4.085.599-.454.61-.625 1.341-.551 2.044-.652.163-1.229.529-1.635 1.076-.44.592-.61 1.296-.554 1.979-.695.147-1.31.526-1.738 1.101-.191.256-.323.54-.42.834l-2.006-1.493c-1.183-.88-2.838-.805-3.849.174-1.291 1.191-1.151 3.435.276 4.447l12.927 9.707h1.917l8.016-10.153v-10.845c0-1.654-1.346-3-3-3zm-7.777 5.323c.304-.409.884-.49 1.287-.188l1.541 1.146c.402.287.492.897.188 1.287-.258.365-.813.491-1.182.228 0 0-1.645-1.206-1.695-1.24-.355-.313-.427-.846-.14-1.233zm-2.187 3.12c.255-.357.821-.505 1.182-.228 0 0 1.649 1.214 1.703 1.249.347.314.417.84.132 1.224-.303.406-.88.491-1.288.189l-1.54-1.146c-.407-.303-.492-.881-.189-1.288zm-2.465 3.764c-.036-.243.025-.485.172-.683.288-.403.895-.493 1.288-.189l1.54 1.146c.407.303.492.88.189 1.288-.304.406-.881.492-1.288.189l-1.542-1.148c-.196-.146-.324-.361-.36-.603zm13.429.946-6.984 8.847h-.281l-12.398-9.309c-.427-.371-.547-.889-.082-1.41.31-.298.865-.302 1.263-.005l5.761 4.287c.522.389 1.133.576 1.739.576.893 0 1.774-.407 2.347-1.176.439-.591.609-1.293.555-1.975.671-.142 1.297-.513 1.738-1.106.454-.611.624-1.341.551-2.044.652-.163 1.228-.529 1.635-1.075.14-.188.247-.392.337-.602l1.82 1.339v-6.5c0-.551.449-1 1-1s1 .449 1 1v10.153z"/></svg>