<svg id="Layer_1" viewBox="0 0 24 24" xmlns="http://www.w3.org/2000/svg" data-name="Layer 1"><path d="m15 9.5c0-.749-.551-1.365-1.268-1.477.18-.705.298-1.463.258-2.22 1.797 1.036 3.01 2.973 3.01 5.197 0 3.314-2.686 6-6 6-2.224 0-4.16-1.213-5.197-3.01.841.041 1.681-.095 2.454-.318l1.035 1.035c.912-.912 2.502-.912 3.414 0l1.414-1.414c-.773-.773-1.786-1.207-2.869-1.268.475-.415.9-.883 1.267-1.398.264.23.604.374.981.374.828 0 1.5-.672 1.5-1.5zm4.777-5.11c-2.063-2.735-5.143-4.286-8.476-4.37.712.632 1.314 1.383 1.764 2.231 2.02.472 3.829 1.625 5.134 3.367 1.168 1.42 2.609 4.881 3.709 7.382h-1.99l-.68 5.132c-.065.495-.491.868-.991.868h-4.247v3h-9v-2.709c0-.927-.327-1.831-.92-2.543-.903-1.084-1.518-2.344-1.833-3.685-.849-.452-1.603-1.056-2.235-1.771.065 2.466.936 4.82 2.531 6.736.295.354.457.802.457 1.263v4.709h13v-3h2.247c1.5 0 2.778-1.121 2.974-2.606l.449-3.394h2.33v-2.212c-1.24-2.794-2.805-6.664-4.223-8.398zm-19.777 1.61c0-3.314 2.686-6 6-6s6 2.686 6 6-2.686 6-6 6-6-2.686-6-6zm7-1.5c0 .828.672 1.5 1.5 1.5s1.5-.672 1.5-1.5-.672-1.5-1.5-1.5-1.5.672-1.5 1.5zm-2.707 2.793-1.414 1.414c.834.834 1.942 1.293 3.121 1.293s2.287-.459 3.121-1.293l-1.414-1.414c-.912.912-2.502.912-3.414 0zm-2.293-2.793c0 .828.672 1.5 1.5 1.5s1.5-.672 1.5-1.5-.672-1.5-1.5-1.5-1.5.672-1.5 1.5z"/></svg>