<?xml version="1.0" encoding="UTF-8"?>
<svg xmlns="http://www.w3.org/2000/svg" id="Layer_1" data-name="Layer 1" viewBox="0 0 24 24">
  <path d="M18.065,22l2.251-16.898-2.44-.323,.469-3.599L9.519,.01l-.47,3.599-2.608-.346L3.947,22H0v2H24v-2h-5.935ZM11.243,2.256l4.861,.645-.211,1.615-4.861-.644,.211-1.616Zm-3.083,3.252l9.909,1.313-2.022,15.179h-1.076l.581-3.98c.073-.547-.312-1.05-.86-1.123-.547-.073-1.05,.312-1.123,.86l-.619,4.243h-1.01l.638-4.374c.073-.547-.312-1.05-.86-1.123-.547-.073-1.05,.312-1.123,.86l-.677,4.637h-1.01l.696-4.768c.073-.547-.312-1.05-.86-1.123-.547-.073-1.05,.312-1.123,.86l-.734,5.031h-.923L8.16,5.508Zm5.305,5.354l-1.983-.263,.263-1.983c.073-.547,.575-.932,1.123-.86,.548,.073,.933,.575,.86,1.123l-.263,1.983Zm-2.974-.394l-1.983-.263,.263-1.983c.073-.547,.575-.932,1.123-.86,.548,.073,.933,.575,.86,1.123l-.263,1.983Zm2.397,4.847l-1.983-.263,.263-1.983c.073-.547,.575-.932,1.123-.86,.547,.073,.932,.575,.86,1.123l-.263,1.983Zm-2.974-.394l-1.983-.263,.263-1.983c.073-.547,.575-.932,1.123-.86,.547,.073,.932,.575,.86,1.123l-.263,1.983Zm6.525-3.664l-1.983-.263,.263-1.983c.073-.548,.575-.933,1.123-.86,.548,.073,.933,.575,.86,1.123l-.263,1.983Zm-.577,4.453l-1.983-.263,.263-1.983c.073-.548,.575-.933,1.123-.86,.547,.073,.932,.575,.86,1.123l-.263,1.983Z"/>
</svg>
