<?xml version="1.0" encoding="UTF-8"?>
<svg xmlns="http://www.w3.org/2000/svg" id="Layer_1" data-name="Layer 1" viewBox="0 0 24 24">
  <polygon points="24 0 19 0 19 2 21.086 2 19 4.086 19 6 24 6 24 4 21.914 4 24 1.915 24 0"/>
  <path d="M15.5,7h-1.375c-.02-.033-3.843-6.25-3.843-6.25l-1.628,3.37c-2.009,.125-3.747,1.248-4.728,2.881H.123l3.859,6.207,.007-.004c1.019,1.622,2.795,2.717,4.832,2.787-.182,.289-.355,.584-.502,.894,.491,.722,.973,1.281,1.468,1.707,.818-2.655,3.293-4.591,6.213-4.591h1v-2h-1c-.48,0-.947,.05-1.406,.127,.242-.648,.381-1.345,.381-2.076,0-.359-.037-.709-.099-1.05h.623c3.584,0,6.5,2.916,6.5,6.5s-2.916,6.5-6.5,6.5c-4.128,0-6.835-.354-9.582-5.177-.34-.754-.953-1.33-1.727-1.622-.774-.293-1.614-.267-2.368,.074-.754,.34-1.33,.953-1.623,1.728-.292,.773-.266,1.614,.075,2.368l.091,.159c3.111,4.47,7.525,4.47,13.634,4.47v-.024c.487,.019,.986,.024,1.5,.024,4.687,0,8.5-3.813,8.5-8.5s-3.813-8.5-8.5-8.5Zm-10.424,3.05c0-2.178,1.772-3.95,3.95-3.95s3.949,1.772,3.949,3.95-1.771,3.949-3.949,3.949-3.95-1.771-3.95-3.949Zm-3.009,8.423c-.091-.247-.09-.516,.004-.765,.104-.273,.308-.49,.575-.611,.267-.119,.564-.128,.838-.026,.273,.104,.49,.308,.653,.657,.997,1.755,2.011,3.021,3.065,3.935-2.16-.4-3.773-1.275-5.136-3.189Z"/>
</svg>
