<svg id="Layer_1" viewBox="0 0 24 24" xmlns="http://www.w3.org/2000/svg" data-name="Layer 1"><path d="m22 10v-5.771c0-1.209-.715-2.293-1.821-2.761-1.103-.465-2.759-.987-4.96-1.265.705.599 1.235 1.382 1.523 2.284 1.11.245 1.999.545 2.659.823.364.154.6.515.6.918v.771h-3.101c-.151.744-.481 1.416-.922 2h4.023v6h-7v-3h-2v3h-7.001v-5.999h4.023c-.441-.584-.771-1.256-.922-2h-3.101v-.771c0-.404.235-.764.599-.918.66-.278 1.55-.579 2.659-.824.288-.902.818-1.686 1.523-2.284-2.2.279-3.857.8-4.96 1.265-1.106.467-1.821 1.551-1.821 2.761v5.771h-2v3c0 1.105.895 2 2 2v7h2v2h5v-2h6v2h5v-2h2v-7c1.105 0 2-.895 2-2v-3zm-18 10v-5h2v1c0 .552.448 1 1 1s1-.448 1-1v-1h8v1c0 .552.447 1 1 1s1-.448 1-1v-1h2v5zm4.992-15.805 1.336-4.17h2.923l-.925 3 2.036.008c.481.002.766.539.499.938l-3.264 4.029-.626-.002.655-2.973h-2.05c-.412-.002-.706-.436-.585-.83z"/></svg>