<svg id="Layer_1" viewBox="0 0 24 24" xmlns="http://www.w3.org/2000/svg" data-name="Layer 1"><path d="m24 4v1h-2.5l-1.911 2.421c-.195.357-.569.579-.975.579h-1.113l1.167-3h-3.017l-1.546-1.833c-.297-.52.078-1.167.677-1.167.207 0 .405.082.551.228l1.11.772h2.241l-1.184-3h1.096c.407 0 .781.222.975.579l1.929 2.421h1.25c.802 0 1.25.448 1.25 1zm-12-1v-1c-7 1-12 5.359-12 12.5 0 3.317 1.149 6.56 3.235 9.13l1.553-1.261c-1.798-2.215-2.788-5.01-2.788-7.87 0-6.036 4-10.499 10-11.499zm9.552 5.161c1.516 1.682 2.448 3.9 2.448 6.339 0 5.238-4.262 9.5-9.5 9.5s-9.5-4.262-9.5-9.5c0-4.541 3.205-8.343 7.47-9.276.258-.056.483-.098.691-.13l1.725 2.032-.384.561c-.8 1.199-1.832 3.336-2.063 5.813h4.001c-.125-1.283-.463-2.479-.871-3.5h2.137c.361 1.051.641 2.235.744 3.5h3.473c-.205-1.483-.848-2.824-1.791-3.9.441-.248.824-.6 1.103-1.038l.316-.4zm-9.107 7.339c.243 2.4 1.287 4.484 2.039 5.709.725-1.229 1.728-3.311 1.961-5.709zm-5.362-2h3.346c.188-2.521 1.052-4.711 1.935-6.186-2.787.83-4.885 3.241-5.281 6.186zm5.369 8.209c-.835-1.472-1.806-3.671-2.019-6.209h-3.359c.399 2.978 2.547 5.403 5.378 6.209zm9.473-6.209h-3.469c-.206 2.546-1.15 4.751-1.958 6.221 2.854-.791 5.024-3.227 5.426-6.221z"/></svg>