<svg id="Layer_1" viewBox="0 0 24 24" xmlns="http://www.w3.org/2000/svg" data-name="Layer 1"><path d="m12 3c0-.552-.448-1-1-1s-1 .448-1 1v4.562l-7.437 4.536c-.364.2-.563.536-.563.902v.934l8-2.852v7.007l-2.552 1.69c-.28.186-.448.497-.448.833v.491l3-1.107v2.132c-1.052.388-3.911 1.442-5 1.843v-3.36c0-1.007.505-1.946 1.344-2.501l1.656-1.096v-3.097l-8 2.853v-3.77c0-1.099.599-2.107 1.563-2.634l6.437-3.928v-3.438c0-1.657 1.343-3 3-3s3 1.343 3 3v3.438l1.683 1.026c-.69.289-1.313.706-1.843 1.218l-1.839-1.122v-4.56zm7 15h-2v2h2zm5-4v7c0 1.654-1.346 3-3 3h-6c-1.654 0-3-1.346-3-3v-7h2v-1c0-2.206 1.794-4 4-4s4 1.794 4 4v1zm-8 0h4v-1c0-1.103-.897-2-2-2s-2 .897-2 2zm6 2h-8v5c0 .552.449 1 1 1h6c.551 0 1-.448 1-1z"/></svg>