<svg id="Layer_1" viewBox="0 0 24 24" xmlns="http://www.w3.org/2000/svg" data-name="Layer 1"><path d="m19.621 6.879c-1.133-1.133-3.109-1.133-4.242 0l-1.414-1.414c.943-.944 2.199-1.465 3.535-1.465s2.592.521 3.535 1.465zm-7.071-2.829c2.73-2.729 7.17-2.729 9.9 0l1.414-1.414c-3.51-3.508-9.219-3.508-12.729 0l1.414 1.414zm3.45 5.45c0 .828.672 1.5 1.5 1.5s1.5-.672 1.5-1.5-.672-1.5-1.5-1.5-1.5.672-1.5 1.5zm8-.5v12h-5v3h-14v-3h-5v-12c0-1.654 1.346-3 3-3h2v-6h6.193c-.515.361-1.011.761-1.471 1.221l-.779.779h-1.942v4h4.671l.878.878s1.122 1.122 1.122 1.122h-10.672c-.552 0-1 .448-1 1v10h3v-5h14v5h3v-10c0-.455-.311-.824-.727-.945l1.178-1.177s.302-.302.302-.302c.752.546 1.247 1.426 1.247 2.424zm-7 7h-10v6h10z"/></svg>