<svg id="Layer_1" viewBox="0 0 24 24" xmlns="http://www.w3.org/2000/svg" data-name="Layer 1"><path d="m22 16.899c-.323.066-.658.101-1 .101h-1v1h-4.914l-1 1h-4.172l-1-1h-4.914v-10h6v-2h-8v12h-2v3c0 1.654 1.346 3 3 3h18c1.654 0 3-1.346 3-3v-3h-2zm0 4.101c0 .551-.449 1-1 1h-18c-.551 0-1-.449-1-1v-1h6.086l1 1h5.828l1-1h6.086zm0-16v-1c0-2.206-1.794-4-4-4s-4 1.794-4 4v1h-2v7c0 1.654 1.346 3 3 3h6c1.654 0 3-1.346 3-3v-7zm-6-1c0-1.103.897-2 2-2s2 .897 2 2v1h-4zm6 8c0 .551-.449 1-1 1h-6c-.551 0-1-.449-1-1v-5h8zm-3-1h-2v-2h2z"/></svg>