<?xml version="1.0" encoding="UTF-8"?>
<svg xmlns="http://www.w3.org/2000/svg" id="Layer_1" data-name="Layer 1" viewBox="0 0 24 24">
  <path d="M16,8.5c0-.828,.448-1.5,1-1.5s1,.672,1,1.5-.448,1.5-1,1.5-1-.672-1-1.5Zm8,13.5v2H12c-2.206,0-4-1.794-4-4v-3h-2.75c-3.042,0-5.25-3.575-5.25-8.5S2.208,0,5.25,0h11.75c2.804,0,5,3.733,5,8.5v11.5c0,.953,1.047,2,2,2ZM17,2c-1.419,0-3,2.669-3,6.5s1.581,6.5,3,6.5,3-2.669,3-6.5-1.581-6.5-3-6.5Zm-3.251,13c-1.075-1.547-1.749-3.864-1.749-6.5s.674-4.953,1.749-6.5H5.25c-1.822,0-3.25,2.855-3.25,6.5s1.428,6.5,3.25,6.5H13.749Zm-1.749,7h8.627c-.385-.606-.627-1.293-.627-2v-4.667c-.831,1.047-1.864,1.667-3,1.667h-7v3c0,1.103,.897,2,2,2Zm-3.586-13.5l1.793-1.793-1.414-1.414-1.793,1.793-1.793-1.793-1.414,1.414,1.793,1.793-1.793,1.793,1.414,1.414,1.793-1.793,1.793,1.793,1.414-1.414-1.793-1.793Z"/>
</svg>
