<?xml version="1.0" encoding="UTF-8"?>
<svg xmlns="http://www.w3.org/2000/svg" id="Layer_1" data-name="Layer 1" viewBox="0 0 24 24">
  <path d="M5.614,10.786c.862,.845,1.701,1.55,2.387,2.089-.378,.586-.647,1.229-.81,1.902-.789-.599-1.87-1.478-2.977-2.563C1.417,9.473,0,6.955,0,4.73,0,2.122,2.131,0,4.75,0c1.512,0,2.873,.813,3.75,2.031,.877-1.218,2.238-2.031,3.75-2.031,2.619,0,4.75,2.122,4.75,4.73,0,.913-.251,1.833-.659,2.731-.633-.262-1.307-.413-1.993-.447,.408-.785,.653-1.559,.653-2.285,0-1.506-1.233-2.73-2.75-2.73-1.465,0-2.75,1.435-2.75,3.069h-2c0-1.635-1.285-3.069-2.75-3.069-1.517,0-2.75,1.225-2.75,2.73,0,1.62,1.283,3.771,3.614,6.056Zm17.245,8.324c.039,.218,.058,.429,.058,.64,0,2.344-1.907,4.25-4.25,4.25-.766,0-1.512-.211-2.167-.604-.654,.394-1.401,.604-2.167,.604-2.343,0-4.25-1.906-4.25-4.25,0-.211,.019-.422,.058-.64-.732-.781-1.142-1.801-1.142-2.881,0-1.057,.397-2.063,1.108-2.842-.017-.138-.024-.273-.024-.408,0-2.194,1.785-3.979,3.979-3.979,.892,0,1.748,.302,2.438,.839,.69-.537,1.546-.839,2.438-.839,2.194,0,3.979,1.785,3.979,3.979,0,.135-.008,.27-.024,.408,.71,.778,1.108,1.785,1.108,2.842,0,1.08-.41,2.1-1.142,2.881Zm-7.358-7.465c-.373-.402-.887-.646-1.438-.646-1.091,0-1.979,.888-1.979,1.979,0,.128,.019,.267,.058,.432l.246,.615-.558,.478c-.527,.435-.829,1.063-.829,1.726,0,.687,.319,1.329,.874,1.763l.554,.434-.22,.668c-.086,.261-.125,.463-.125,.656,0,1.24,1.009,2.25,2.25,2.25,.411,0,.814-.118,1.167-.338V11.646Zm6.5,4.584c0-.662-.302-1.291-.829-1.726l-.513-.423,.199-.661c.041-.169,.06-.311,.06-.44,0-1.092-.888-1.979-1.979-1.979-.551,0-1.065,.244-1.438,.646v10.017c.353,.219,.755,.338,1.167,.338,1.241,0,2.25-1.01,2.25-2.25,0-.193-.039-.396-.125-.656l-.22-.668,.554-.434c.555-.434,.874-1.076,.874-1.763Z"/>
</svg>
