<svg id="Layer_1" viewBox="0 0 24 24" xmlns="http://www.w3.org/2000/svg" data-name="Layer 1"><path d="m24 10v2.721c-.572-.65-1.246-1.205-2-1.642v-1.005c0-.335-.157-.658-.421-.865l-8.905-6.976c-.397-.312-.952-.311-1.348 0l-8.906 6.976c-.263.207-.42.53-.42.865v11.926h9.079c.437.754.992 1.428 1.642 2h-12.721v-13.926c0-.958.433-1.847 1.187-2.439l8.905-6.976c1.123-.881 2.693-.881 3.816 0l8.905 6.977c.734.576 1.156 1.435 1.178 2.365h.008zm-.302 5.872-1.416.816c.129.418.218.853.218 1.313s-.089.895-.218 1.313l1.416.816-.998 1.733-1.411-.813c-.605.652-1.393 1.125-2.289 1.33v1.621h-2v-1.621c-.896-.205-1.685-.678-2.289-1.33l-1.411.813-.998-1.733 1.416-.816c-.129-.418-.218-.853-.218-1.313s.089-.895.218-1.313l-1.416-.816.998-1.733 1.411.813c.605-.652 1.393-1.125 2.289-1.33v-1.621h2v1.621c.896.205 1.685.678 2.289 1.33l1.411-.813zm-3.198 2.128c0-1.378-1.121-2.5-2.5-2.5s-2.5 1.122-2.5 2.5 1.121 2.5 2.5 2.5 2.5-1.122 2.5-2.5z"/></svg>