<?xml version="1.0" encoding="UTF-8"?>
<svg xmlns="http://www.w3.org/2000/svg" id="Layer_1" data-name="Layer 1" viewBox="0 0 24 24">
  <path d="M18,4h-5v2h5c2.206,0,4,1.794,4,4v1H10.5C4.71,11,0,15.71,0,21.5v2.5H24V10c0-3.309-2.691-6-6-6Zm4,18H2v-.5c0-4.687,3.813-8.5,8.5-8.5h11.5v9ZM3.107,8h.343l2,2.667,2-2.667h.55c1.654,0,3-1.346,3-3,0-1.434-1.01-2.635-2.356-2.931-.555-1.233-1.798-2.069-3.194-2.069-1.407,0-2.658,.849-3.207,2.097-.59,.153-1.125,.485-1.529,.96C.143,3.729-.103,4.617,.041,5.497c.232,1.427,1.551,2.503,3.066,2.503Zm-.869-3.647c.19-.224,.468-.353,.762-.353h.817l.163-.801c.141-.695,.759-1.199,1.47-1.199s1.329,.504,1.47,1.199l.163,.801h.917c.551,0,1,.448,1,1s-.449,1-1,1h-1.55l-1,1.333-1-1.333h-1.343c-.906,.022-1.448-.987-.869-1.647Z"/>
</svg>
