<svg id="Layer_1" viewBox="0 0 24 24" xmlns="http://www.w3.org/2000/svg" data-name="Layer 1"><path d="m19.667 19.385 1.325-1.855-.992-1.53h-1.5l-1.513-4.077-.833-.48-.401-.98-.619-.417-.634-2.047h-3l1.533-1.053-.802-.768 2.769-1.846v-1.333h-5v-.5l2-1.5v-.999h-1.385l-2.115 1-.5 1-1.146.6-.854 1.4 1.128 1-1.128 1v2h1v1l1.5 2h2.5v1.5l1 1.5v1h-3v1l.5 1-1.5 1v1l1.713.322 1.492 1.678-2.186-.013-.519 1.013h-1.5v1l2 1h2l1-1h1.782l.5-1h4.218l2.5-.5v-1.5zm-2.897.615h-3.777l-1.633-1.836.719-.479-.342-.685h2.264v-3.606l-1-1.5v-1.894h.026l.406 1.312.7.471.43 1.051.801.461 1.746 4.704h1.089l-1.429 2z"/><path d="m5 5v-2l2-2v-1h-2l-1 1v1.5l-1 1 1 1.5z"/><path d="m6 10h-1l-2 1.245v1.755l1.5-.5 1 .5 1.5-1z"/></svg>