<?xml version="1.0" encoding="UTF-8"?>
<svg xmlns="http://www.w3.org/2000/svg" id="Layer_1" data-name="Layer 1" viewBox="0 0 24 24">
  <path d="M12,0C5.383,0,0,5.383,0,12s5.383,12,12,12,12-5.383,12-12S18.617,0,12,0Zm0,22c-5.514,0-10-4.486-10-10S6.486,2,12,2s10,4.486,10,10-4.486,10-10,10Zm.561-18h-1.561v5.438l-2.583-2.423-1.368,1.459,3.745,3.513-3.792,3.536,1.364,1.463,2.633-2.456v5.47h1.561l4.911-4.491-3.75-3.518,3.752-3.499-4.913-4.493Zm1.967,11.491l-1.528,1.398v-2.832l1.528,1.434Zm-1.528-5.561v-2.819l1.526,1.396-1.526,1.423Z"/>
</svg>
