<svg id="Layer_1" viewBox="0 0 24 24" xmlns="http://www.w3.org/2000/svg" data-name="Layer 1"><path d="m21 8h-1.069c-.453-3.612-3.319-6.477-6.931-6.931v-1.069h-2v1.069c-3.593.451-6.446 3.295-6.92 6.931h-1.08v2h1.069l1 14h13.862l1-14h1.069zm-3.091 0h-4.909v-4.91c2.507.423 4.486 2.403 4.909 4.91zm-6.909-4.91v4.91h-4.91c.423-2.507 2.403-4.486 4.91-4.91zm0 6.91v4.107c-.373-.061-.773-.107-1.242-.107-1.344 0-2.516.373-3.347.736l-.339-4.736zm-4.069 12-.366-5.115c.529-.298 1.757-.885 3.193-.885.973 0 1.589.207 2.302.447.769.26 1.64.553 2.94.553.857 0 1.734-.192 2.455-.406l-.386 5.406zm10.678-7.57c-.791.296-1.79.57-2.61.57-.833 0-1.406-.154-2-.349v-4.651h4.926l-.317 4.43z"/></svg>