<svg id="Layer_1" viewBox="0 0 24 24" xmlns="http://www.w3.org/2000/svg" data-name="Layer 1"><path d="m14.097 5.908 1.611 1.185c-.063.086-.922 1.223-2.464 2.249l1.009 1.634-1.701 1.051-1.077-1.743c-.764.315-1.621.558-2.573.66v2.058h-2v-2.058c-.952-.102-1.808-.345-2.572-.66l-1.077 1.743-1.701-1.051 1.009-1.634c-1.542-1.027-2.4-2.164-2.464-2.25l.806-.592.804-.595c.023.031 2.353 3.096 6.196 3.096 3.877 0 6.172-3.062 6.194-3.092zm2.306-5.908c-2.877 0-3.806 1.329-4.625 2.501-.194.278-.394.566-.678.901-.049.065-1.227 1.597-3.197 1.597s-3.148-1.532-3.198-1.597l-1.607 1.189c.072.099 1.805 2.408 4.806 2.408s4.733-2.31 4.76-2.35c.286-.334.525-.674.755-1.003.742-1.062 1.151-1.647 2.985-1.647h7.5v-1.999h-7.5zm6.646 7.396c.559.828.854 1.794.854 2.794v10.81c0 1.654-1.346 3-3 3s-3-1.346-3-3v-10.81c0-1 .295-1.966.854-2.794l2.146-3.186zm-1.146 2.794c0-.6-.177-1.18-.512-1.676l-.488-.725-.488.725c-.335.497-.512 1.076-.512 1.676v10.81c0 .551.448 1 1 1s1-.449 1-1z"/></svg>