<svg id="Layer_1" viewBox="0 0 24 24" xmlns="http://www.w3.org/2000/svg" data-name="Layer 1"><path d="m8 0v10h16v-10zm3 8.5c-.828 0-1.5-.672-1.5-1.5s.672-1.5 1.5-1.5 1.5.672 1.5 1.5-.672 1.5-1.5 1.5zm0-4c-.828 0-1.5-.672-1.5-1.5s.672-1.5 1.5-1.5 1.5.672 1.5 1.5-.672 1.5-1.5 1.5zm5 3c-1.383 0-2.5-1.117-2.5-2.5s1.117-2.5 2.5-2.5 2.5 1.117 2.5 2.5-1.117 2.5-2.5 2.5zm5 1c-.828 0-1.5-.672-1.5-1.5s.672-1.5 1.5-1.5 1.5.672 1.5 1.5-.672 1.5-1.5 1.5zm0-4c-.828 0-1.5-.672-1.5-1.5s.672-1.5 1.5-1.5 1.5.672 1.5 1.5-.672 1.5-1.5 1.5zm1 7.5h-2v6h-4.914l-1 1h-4.172l-1-1h-4.914v-10h2v-2h-4v12h-2v3c0 1.654 1.346 3 3 3h18c1.654 0 3-1.346 3-3v-3h-2zm0 9c0 .551-.449 1-1 1h-18c-.551 0-1-.449-1-1v-1h6.086l1 1h5.828l1-1h6.086z"/></svg>