<svg id="Layer_1" viewBox="0 0 24 24" xmlns="http://www.w3.org/2000/svg" data-name="Layer 1"><path d="m0 17v4c0 1.654 1.346 3 3 3s3-1.346 3-3v-4h2v-3h-5c-1.654 0-3 1.346-3 3zm4 4c0 .552-.449 1-1 1s-1-.448-1-1v-4c0-.552.449-1 1-1h1zm19-7h.12c-.752 2.321-2.661 4.646-5.12 5.947v4.053h-2v-3.273c-.647.168-1.315.27-2 .274-.682.009-1.341-.124-2-.271v3.27h-2v-6.428c1.198.859 2.594 1.429 4 1.429 3.026 0 6.023-2.619 7.041-5.153.638.093 1.289.152 1.959.152zm-7.412-14h-3.176c-4.639 0-8.412 3.773-8.412 8.412v3.588h1c1.951 0 3.685-.489 5.204-1.242-.126.22-.204.471-.204.742 0 .828.672 1.5 1.5 1.5s1.5-.672 1.5-1.5c0-.823-.663-1.489-1.483-1.498.925-.597 1.762-1.276 2.493-1.987.804.78 1.637 1.433 2.49 1.985-.828 0-1.5.672-1.5 1.5s.672 1.5 1.5 1.5 1.5-.672 1.5-1.5c0-.281-.082-.542-.217-.766 1.662.832 3.404 1.266 5.217 1.266h1v-3.588c0-4.639-3.773-8.412-8.412-8.412zm-9.588 9.946v-1.534c0-3.536 2.876-6.412 6.412-6.412h3.176c.152 0 .304.005.453.016-.899 1.643-4.397 7.314-10.041 7.931zm16 .001c-2.348-.252-4.573-1.392-6.631-3.4 1.595-1.905 2.492-3.668 2.681-4.056 2.317.968 3.95 3.257 3.95 5.921z"/></svg>