<?xml version="1.0" encoding="UTF-8"?>
<svg xmlns="http://www.w3.org/2000/svg" id="Layer_1" data-name="Layer 1" viewBox="0 0 24 24">
  <path d="M8.728,22l.456,2H3.279l-.403-2h5.851ZM21.123,2l-.403-2h-5.905l.456,2h5.851ZM12,10.414l-.293,.293c-.146,.145-1.492,1.418-4.082,1.418-.211,0-.422-.012-.633-.037,.153,1.753,.49,4.044,.991,6.728l.221,1.184H2.377l-.136-.84c-.566-3.497-1.241-8.511-1.241-12.535C1,4.571,1.973,2.607,3.604,1.36c.315-.289,1.646-1.36,4.021-1.36,2.59,0,3.937,1.273,4.082,1.418l.293,.293V10.414Zm-2-7.797c-.393-.247-1.18-.617-2.375-.617-1.765,0-2.738,.891-2.774,.925-1.159,.869-1.851,2.252-1.851,3.7,0,3.583,.561,8.021,1.082,11.375h1.72c-.531-3.012-.831-5.418-.893-7.165l-.053-1.487,1.396,.513c.483,.178,.933,.264,1.372,.264,1.191,0,1.979-.368,2.375-.618V2.617Zm13,14.758c0,2.054-.973,4.018-2.604,5.265-.315,.289-1.646,1.36-4.021,1.36-2.59,0-3.937-1.273-4.082-1.418l-.293-.293V13.586l.293-.293c.146-.145,1.492-1.418,4.082-1.418,.211,0,.422,.012,.633,.037-.153-1.753-.49-4.044-.991-6.728l-.221-1.184h5.827l.136,.84c.566,3.497,1.241,8.511,1.241,12.535Zm-2,0c0-3.583-.561-8.021-1.082-11.375h-1.72c.531,3.012,.831,5.418,.893,7.165l.053,1.487-1.396-.513c-.483-.178-.933-.264-1.372-.264-1.191,0-1.979,.368-2.375,.618v6.89c.393,.247,1.18,.617,2.375,.617,1.765,0,2.738-.891,2.774-.925,1.159-.869,1.851-2.252,1.851-3.7Z"/>
</svg>
