<svg id="Layer_1" viewBox="0 0 24 24" xmlns="http://www.w3.org/2000/svg" data-name="Layer 1"><path d="m14.016 12.398-1.088 1.089 5.063 4.513h6.01v2h-5.531l-5.125 4h-2.688l-5.125-4h-5.532v-2h6.219l5.125 4h1.312l3.634-2.836-4.026-3.589-1.604 1.494c-.273.274-.671.437-1.087.437-.506 0-.986-.245-1.283-.658-.453-.629-.373-1.493.189-2.055l2.027-1.874-.521-.521c-.407-.407-1.028-.508-1.544-.25l-1.704.853h-6.737v-2h6.264l1.282-.641c1.288-.644 2.835-.392 3.853.625l.602.602.602-.602c1.018-1.018 2.568-1.27 3.853-.625l1.282.641h6.264v2h-6.736l-1.704-.852c-.516-.258-1.137-.158-1.544.25zm.984-5.898c0-.828-.672-1.5-1.5-1.5h-3c-.828 0-1.5.672-1.5 1.5v1.5h6zm-3-2.5c1.105 0 2-.895 2-2s-.895-2-2-2-2 .895-2 2 .895 2 2 2zm7 0v2.013l-1.281-1.282-1.414 1.414 2.26 2.26c.396.395.915.592 1.436.592s1.04-.198 1.437-.593l2.282-2.283-1.414-1.414-1.305 1.28v-1.988c0-1.654-1.346-3-3-3h-2v2h2c.552 0 1 .449 1 1zm-15 4.999c.52 0 1.04-.198 1.437-.593l2.259-2.259-1.414-1.414-1.281 1.257v-1.988c0-.551.448-1 1-1h2v-2.002h-2c-1.654 0-3 1.346-3 3v2.013l-1.305-1.305-1.414 1.414 2.283 2.284c.396.395.915.592 1.436.592z"/></svg>