<?xml version="1.0" encoding="UTF-8"?>
<svg xmlns="http://www.w3.org/2000/svg" id="Layer_1" data-name="Layer 1" viewBox="0 0 24 24">
  <path d="M24,4h-1V2h-2V1h-2v1H2v1c0,.551-.449,1-1,1H0v6H1c1.4,.033,2.326,.455,1.943,1.814L0,20.332v1.668H7.422l1.987-6h3.93c1.558,0,2.905-1.002,3.353-2.494l1.052-3.506h5.256v-2h1V4ZM5.978,20H2.23l2.62-7.585c.299-1.048,.179-1.843-.067-2.415h4.507l-3.312,10Zm8.798-7.069c-.188,.629-.779,1.069-1.437,1.069h-3.268l.662-2h2.265v-2h2.656l-.879,2.931Zm6.224-4.931H2v-2.171c.851-.302,1.527-.978,1.829-1.829H21v4Z"/>
</svg>
