<svg id="Layer_1" viewBox="0 0 24 24" xmlns="http://www.w3.org/2000/svg" data-name="Layer 1"><path d="m24 4h-4v-3h-8.862c-1.798 0-3.466.972-4.352 2.538l-6.39 11.296c-.82 1.436-.32 3.272 1.116 4.094l.599.342-2.133 3.734 1.736.992 2.134-3.734.599.342c1.37.828 3.321.297 4.078-1.091l1.536-2.514h9.939v-3h4zm-6 11h-9.061l-2.136 3.496c-.257.473-.902.647-1.364.372l-2.935-1.677c-.479-.273-.646-.887-.371-1.369l6.394-11.299c.532-.939 1.532-1.523 2.611-1.523h6.862zm4-3h-2v-6h2zm-11.731-4.49 2.444-3.126 1.574 1.233-1.866 2.383h.975c.592 0 1.133.324 1.413.846s.25 1.151-.077 1.645l-2.444 3.126-1.574-1.233 1.866-2.383h-.975c-.592 0-1.133-.324-1.413-.846s-.25-1.151.077-1.645z"/></svg>