<?xml version="1.0" encoding="UTF-8"?>
<svg xmlns="http://www.w3.org/2000/svg" id="Layer_1" data-name="Layer 1" viewBox="0 0 24 24">
  <path d="M24,8h-2c0-3.309-2.691-6-6-6V0c4.411,0,8,3.589,8,8Zm-6,0h2c0-2.206-1.794-4-4-4v2c1.103,0,2,.897,2,2Zm-7,3.492c.828,0,1.5-.672,1.5-1.5s-.672-1.5-1.5-1.5-1.5,.672-1.5,1.5,.672,1.5,1.5,1.5Zm3,3.008c.828,0,1.5-.672,1.5-1.5s-.672-1.5-1.5-1.5-1.5,.672-1.5,1.5,.672,1.5,1.5,1.5Zm-6-.008c.828,0,1.5-.672,1.5-1.5s-.672-1.5-1.5-1.5-1.5,.672-1.5,1.5,.672,1.5,1.5,1.5Zm3,.008c-.828,0-1.5,.672-1.5,1.5s.672,1.5,1.5,1.5,1.5-.672,1.5-1.5-.672-1.5-1.5-1.5Zm-.01-11.415l9.924,9.905-9.968,10.008c-1.263,1.324-3.688,1.322-4.952,0L1.026,18.045c-1.358-1.302-1.36-3.65-.002-4.952L10.99,3.085Zm.004,2.83L2.439,14.505c-.582,.559-.581,1.567,0,2.125l4.968,4.954c.519,.548,1.603,.551,2.122,.003l8.558-8.593-7.093-7.079Z"/>
</svg>
