<svg id="Layer_1" viewBox="0 0 24 24" xmlns="http://www.w3.org/2000/svg" data-name="Layer 1"><path d="m9 15v-1h-3v1h-2v-1c0-1.103.897-2 2-2h3c1.103 0 2 .897 2 2v1zm-1.5-4c1.105 0 2-.895 2-2s-.895-2-2-2-2 .895-2 2 .895 2 2 2zm16.5-7v7c0 1.654-1.346 3-3 3h-5c-1.654 0-3-1.346-3-3v-7h2v-.5c0-1.93 1.57-3.5 3.5-3.5s3.5 1.57 3.5 3.5v.5zm-7 0h3v-.5c0-.827-.673-1.5-1.5-1.5s-1.5.673-1.5 1.5zm5 2h-7v5c0 .551.448 1 1 1h5c.552 0 1-.449 1-1zm-2.5 2h-2v2h2zm2.5 10h-20v-13c0-.551.448-1 1-1h8v-2h-8c-1.654 0-3 1.346-3 3v15h11v2h-5v2h12v-2h-5v-2h11v-5.026c-.584.442-1.257.773-2 .924v2.101z"/></svg>