<svg id="Layer_1" viewBox="0 0 24 24" xmlns="http://www.w3.org/2000/svg" data-name="Layer 1"><path d="m13.56 13h-1.053v-2.095c2.559-.471 4.5-2.709 4.5-5.405 0-3.038-2.462-5.5-5.5-5.5s-5.5 2.462-5.5 5.5c0 2.696 1.941 4.934 4.5 5.405v2.095h-.172l-1.368-1.368c-.841-.841-2.316-.882-3.052 0l-1.891 2.368h-4.017v9h4.338l3 1h7.399s1.263-7.82 1.263-8.658c0-1.313-1.075-2.342-2.447-2.342zm-5.08-5.934h1.492c.079.266.327.461.618.461h1.958c.291 0 .529-.237.529-.529 0-.251-.179-.469-.425-.519l-2.571-.515c-.933-.187-1.609-1.012-1.609-1.963 0-1.104.898-2.002 2.001-2.002h.318v-1h1.44v1h.201c1.106 0 2.017.852 2.11 1.934h-1.492c-.079-.266-.327-.461-.618-.461h-1.959c-.291 0-.528.237-.528.528 0 .251.179.469.425.518l2.572.515c.933.186 1.609 1.012 1.609 1.963 0 1.104-.898 2.002-2.002 2.002h-.317v1h-1.44v-1h-.201c-1.106 0-2.017-.852-2.11-1.934zm4.562 14.934h-5.373l-3-1h-2.662v-5h2.982l2.364-2.974c.06-.041.143-.035.199.02l1.954 1.954h4.053c.074 0 .447.017.447.341-.004.436-.473 3.587-.965 6.659zm9.537-9.482-1.572-1.572v6.055h-2v-6.055l-1.598 1.598-1.414-1.414 2.505-2.505c.83-.832 2.184-.832 3.014 0l2.479 2.479z"/></svg>