<svg id="Layer_1" viewBox="0 0 24 24" xmlns="http://www.w3.org/2000/svg" data-name="Layer 1"><path d="m13.5 13h3.663c.434 1.441 1.757 2.5 3.337 2.5 1.93 0 3.5-1.57 3.5-3.5s-1.57-3.5-3.5-3.5c-1.58 0-2.903 1.059-3.337 2.5h-3.663c-.263 0-.521-.107-.707-.293l-2.957-2.957 2.457-2.457c.187-.186.444-.293.707-.293h4.163c.434 1.441 1.757 2.5 3.337 2.5 1.93 0 3.5-1.57 3.5-3.5s-1.57-3.5-3.5-3.5c-1.58 0-2.903 1.059-3.337 2.5h-4.163c-.801 0-1.555.312-2.121.879l-2.457 2.457-1.645-1.645c.136-.374.223-.771.223-1.191 0-1.93-1.57-3.5-3.5-3.5s-3.5 1.57-3.5 3.5 1.57 3.5 3.5 3.5c.776 0 1.486-.262 2.067-.691l1.441 1.441-1.441 1.441c-.581-.429-1.292-.691-2.067-.691-1.93 0-3.5 1.57-3.5 3.5s1.57 3.5 3.5 3.5c.776 0 1.486-.262 2.067-.691l1.441 1.441-1.441 1.441c-.581-.429-1.292-.691-2.067-.691-1.93 0-3.5 1.57-3.5 3.5s1.57 3.5 3.5 3.5 3.5-1.57 3.5-3.5c0-.42-.086-.818-.223-1.191l1.645-1.645 2.457 2.457c.566.567 1.32.879 2.121.879h4.163c.434 1.441 1.757 2.5 3.337 2.5 1.93 0 3.5-1.57 3.5-3.5s-1.57-3.5-3.5-3.5c-1.58 0-2.903 1.059-3.337 2.5h-4.163c-.263 0-.521-.107-.707-.293l-2.457-2.457 2.957-2.957c.187-.186.444-.293.707-.293zm7-2.5c.827 0 1.5.673 1.5 1.5s-.673 1.5-1.5 1.5-1.5-.673-1.5-1.5.673-1.5 1.5-1.5zm0-8c.827 0 1.5.673 1.5 1.5s-.673 1.5-1.5 1.5-1.5-.673-1.5-1.5.673-1.5 1.5-1.5zm-17 2.5c-.827 0-1.5-.673-1.5-1.5s.673-1.5 1.5-1.5 1.5.673 1.5 1.5-.673 1.5-1.5 1.5zm0 17c-.827 0-1.5-.673-1.5-1.5s.673-1.5 1.5-1.5 1.5.673 1.5 1.5-.673 1.5-1.5 1.5zm17-3.5c.827 0 1.5.673 1.5 1.5s-.673 1.5-1.5 1.5-1.5-.673-1.5-1.5.673-1.5 1.5-1.5zm-17-5c-.827 0-1.5-.673-1.5-1.5s.673-1.5 1.5-1.5 1.5.673 1.5 1.5-.673 1.5-1.5 1.5zm3.277-.309c.136-.374.223-.771.223-1.191s-.086-.818-.223-1.191l1.645-1.645 2.836 2.836-2.836 2.836z"/></svg>