<svg id="Layer_1" viewBox="0 0 24 24" xmlns="http://www.w3.org/2000/svg" data-name="Layer 1"><path d="m1.707 17.142-1.414-1.414 14.849-14.849c1.17-1.171 3.073-1.17 4.243 0l4.243 4.242-1.414 1.414-4.243-4.242c-.39-.392-1.025-.392-1.415 0l-.707.707 4.95 4.95-.702.702c-.621-.333-1.314-.552-2.049-.624l-3.613-3.614-1.414 1.414 2.559 2.559c-.625.24-1.21.609-1.739 1.089l-2.234-2.234-1.415 1.415 2.361 2.361c-.412.668-.676 1.336-.845 1.983l-2.93-2.93-1.414 1.414 3.991 3.991c-.035.518-.068 1.052-.162 1.407-.08.304-.271.55-.511.748l-4.732-4.732zm11.639-1.477c-.041.616-.08 1.198-.22 1.729-.418 1.583-1.645 2.605-3.125 2.605-1.942-.034-3.451-1.027-5.5-1-2.649 0-4.5 2.056-4.5 5h1.999c0-1.851.958-3 2.5-3 1.942.034 3.451 1.027 5.5 1 2.379 0 4.413-1.646 5.059-4.095.254-.964.249-1.866.335-2.812l-1.991-.186c-.024.252-.041.506-.058.758zm8.654 4.335c0 1.103-.897 2-2 2s-2-.897-2-2c0-1.998 1.005-3.001 1.893-3.885 1.43-1.324 1.48-3.673.099-5.051-.876-.875-2.078-1.244-3.214-.981-.638.146-1.238.485-1.734.982l1.414 1.414c.605-.627 1.483-.645 2.121 0 .604.574.538 1.697-.097 2.219-.988.985-2.48 2.474-2.48 5.302 0 2.206 1.794 4 4 4s4-1.794 4-4h-2z"/></svg>