<svg id="Layer_1" viewBox="0 0 24 24" xmlns="http://www.w3.org/2000/svg" data-name="Layer 1"><path d="m2 22v-13c0-.551.449-1 1-1h3.764l4 2h7.236v-5.903l-3.947-4.097h-6.924c-1.754 0-3.128 1.318-3.128 3v3h-1c-1.654 0-3 1.346-3 3v15h14.662c-1.171-.597-2.282-1.275-3.265-2zm4-19c0-.58.475-1 1.128-1h5.872v3h3v3h-4.764l-4-2h-1.236zm15.628 12.165-.907-.488 2.685-5.754-1.812-.846-2.637 5.65-.774-.417c-1.193-.645-2.658-.269-3.407.879-1.036 1.631-2.552 3.265-4.066 4.639 3.112 3.044 6.349 4.249 9.162 5.068 1.227-1.536 2.483-3.277 3.073-5.904.236-1.122-.306-2.285-1.316-2.827zm-.641 2.414c-.334 1.581-1.127 2.978-1.854 3.996-.358-.123-.719-.271-1.08-.419.263-.818.446-1.717.446-2.656-.678.848-1.411 1.459-2.087 1.905-.985-.506-1.922-1.076-2.726-1.677 1.055-1.092 1.999-2.269 2.764-3.447.178-.271.506-.359.783-.21l3.447 1.855c.23.124.359.398.306.652z"/></svg>