<?xml version="1.0" encoding="UTF-8"?>
<svg xmlns="http://www.w3.org/2000/svg" id="Layer_1" data-name="Layer 1" viewBox="0 0 24 24">
  <path d="M24,4v2h-3.965l-2.451,3.678-3.166-5.752-1.383,2.074h-5.035v-2h3.965L14.582,.074l3.166,5.752,1.218-1.826h5.035Zm0,7v13h-2v-3H2v3H0V4H2V15h1.351c-.219-.456-.351-.961-.351-1.5,0-1.93,1.57-3.5,3.5-3.5,.565,0,1.091,.147,1.564,.386,.284-1.361,1.492-2.386,2.936-2.386h3.377l1.101,2h-4.478c-.551,0-1,.448-1,1v4h12v-4c0-.552-.448-1-1-1h-1.227l1.326-1.99c1.61,.054,2.901,1.367,2.901,2.99ZM6.5,15c.827,0,1.5-.673,1.5-1.5s-.673-1.5-1.5-1.5-1.5,.673-1.5,1.5,.673,1.5,1.5,1.5Zm15.5,4v-2H2v2H22Z"/>
</svg>
