<svg id="Layer_1" viewBox="0 0 24 24" xmlns="http://www.w3.org/2000/svg" data-name="Layer 1"><path d="m1.44 4.921-1.414-1.414 3.5-3.5 1.414 1.414-1.053 1.053 1.383 1.383.435-.435c.562-.562 1.474-.562 1.905-.132l.647.647-2.179 2.179 1.414 1.414 2.179-2.179 1.574 1.574-2.148 2.148 1.414 1.414 2.148-2.148.34.34v2.907l1.707 1.707-1.414 1.414-1.707-1.707h-2.907l-5.256-5.257c-.562-.562-.562-1.474 0-2.037l.435-.435-1.383-1.383-1.033 1.033zm21.836 6.22c-1.171-2.686-2.305-5.256-3.5-6.751-2.125-2.818-5.327-4.396-8.776-4.39-1.115 0-2.276.17-3.337.513l1.65 1.65c.137-.026.272-.056.411-.075 3.316-.453 6.479.865 8.475 3.53 1.034 1.279 2.169 3.857 3.244 6.322l.465 1.06h-1.99l-.68 5.132c-.065.495-.491.868-.991.868h-4.247v3h-9v-2.709c0-.928-.327-1.831-.92-2.542-1.534-1.843-2.259-4.182-2.042-6.586.026-.288.069-.572.123-.853l-1.637-1.637c-.237.742-.406 1.513-.478 2.31-.265 2.935.622 5.792 2.497 8.046.295.353.457.801.457 1.262v4.709h13v-3h2.247c1.5 0 2.778-1.121 2.974-2.606l.449-3.394h2.33v-2.212z"/></svg>