<?xml version="1.0" encoding="UTF-8"?>
<svg xmlns="http://www.w3.org/2000/svg" id="Layer_1" data-name="Layer 1" viewBox="0 0 24 24">
  <path d="M24,22c0,1.103-.897,2-2,2h-6.608c-1.459,0-2.844-.641-3.8-1.757-3.232-3.775-6.24-6.371-7.85-6.773-2.343-.585-3.742-2.179-3.742-4.263,0-1.775,1.028-2.626,1.854-3.31,.488-.404,.949-.786,1.242-1.355L6.151,0h2.208l-3.467,7.423c-.498,.968-1.199,1.549-1.763,2.016-.782,.647-1.128,.968-1.128,1.769,0,1.46,1.211,2.069,2.227,2.323,2.809,.702,6.772,4.945,8.884,7.412,.575,.672,1.406,1.058,2.28,1.058h3.155l-.299-.342c-1.967-2.248-3.163-4.682-4.217-6.829-.866-1.763-1.684-3.428-2.779-4.667l-.431-.487L15.254,0h2.201l-4.283,9.345c1.053,1.343,1.833,2.932,2.654,4.603,.991,2.018,2.014,4.101,3.636,6.053h2.539c1.103,0,2,.897,2,2Z"/>
</svg>
