<svg id="Layer_1" viewBox="0 0 24 24" xmlns="http://www.w3.org/2000/svg" data-name="Layer 1"><path d="m23.636 19.299c-.552 1.037-1.622 1.68-2.793 1.68l-6.847.004-.005 2.035c-.048-.048-2.816-2.574-2.862-2.626-.225-.248-.206-.631.042-.855l2.836-2.573-.005 2.019 6.831-.004c.441 0 .835-.237 1.038-.62.191-.359.169-.796-.059-1.14l-2.87-4.359 1.67-1.1 2.869 4.355c.631.955.691 2.175.155 3.183zm-12.849-15.771c.212-.342.588-.545 1.024-.545.376.015.724.188.941.527l3.417 5.173-1.659 1.053 3.694 1.006c.323.088.655-.102.743-.425.019-.066.66-3.759.674-3.825l-1.764 1.12-3.43-5.192c-.576-.899-1.548-1.437-2.585-1.437-1.168-.034-2.171.542-2.752 1.484l-2.987 4.712 1.689 1.071 2.993-4.722zm-8.651 14.842c-.192-.346-.18-.77.035-1.109l2.896-4.605 1.632 1.124-.52-3.793c-.045-.331-.351-.563-.682-.518-.068.008-3.717.865-3.784.877l1.705 1.174-2.939 4.674c-.605.956-.64 2.162-.093 3.146.561 1.015 1.623 1.646 2.78 1.646h5.84v-2.002h-5.847c-.422.001-.813-.233-1.023-.614zm8.963-1.387 3.709-4.559c.267-.404-.073-.941-.557-.94h-2l1-2.5h-3l-1.509 4.222c-.12.398.178.798.593.798l2.064-.002-.93 2.983h.631z"/></svg>