<svg id="Layer_1" viewBox="0 0 24 24" xmlns="http://www.w3.org/2000/svg" data-name="Layer 1"><path d="m10 7.182v-2.182h-3v-2h3c0-1.657-1.343-3-3-3s-3 1.343-3 3v3h-1c-1.654 0-3 1.346-3 3v3c0 1.654 1.346 3 3 3h1.323c.346.807.953 1.493 1.749 1.931l3.928 2.16v4.909h2v-6.091l-2-1.1v-6.588l1.544 1.779h3.456v-2h-2.544s-2.437-2.796-2.456-2.818zm-8 4.818v-3c0-.551.449-1 1-1h1v5h-1c-.551 0-1-.449-1-1zm5.036 3.179c-.639-.352-1.036-1.023-1.036-1.753v-5.426h1.51c.155 0 .327.055.49.132v7.577zm12.964-3.679c0 .828-.672 1.5-1.5 1.5s-1.5-.672-1.5-1.5.672-1.5 1.5-1.5 1.5.672 1.5 1.5zm1-3c0-.828.672-1.5 1.5-1.5s1.5.672 1.5 1.5-.672 1.5-1.5 1.5-1.5-.672-1.5-1.5zm3 6c0 .828-.672 1.5-1.5 1.5s-1.5-.672-1.5-1.5.672-1.5 1.5-1.5 1.5.672 1.5 1.5zm-19.809 3.678 1.823 1.003-1.027 4.819h-2.03z"/></svg>