<?xml version="1.0" encoding="UTF-8"?>
<svg xmlns="http://www.w3.org/2000/svg" id="Layer_1" data-name="Layer 1" viewBox="0 0 24 24">
  <path d="M24.009,22.632c-.759,.869-1.856,1.368-3.009,1.368-1.2,0-2.266-.542-3-1.382-.734,.84-1.8,1.382-3,1.382s-2.266-.542-3-1.382c-.734,.84-1.8,1.382-3,1.382s-2.266-.542-3-1.382c-.734,.84-1.8,1.382-3,1.382-1.153,0-2.25-.499-3.009-1.368l1.506-1.316c.38,.436,.928,.685,1.503,.685,1.103,0,2-.897,2-2h2c0,1.103,.897,2,2,2s2-.897,2-2h2c0,1.103,.897,2,2,2s2-.897,2-2h2c0,1.103,.897,2,2,2,.575,0,1.123-.249,1.503-.685l1.506,1.316ZM7,18H0V2.313C1.198,1.909,5.278,.116,12,0c6.733,.119,10.79,1.906,12,2.313v15.687h-7v-1c0-2.757-2.243-5-5-5s-5,2.243-5,5v1ZM22,3.71c-.703-.233-1.944-.611-3.5-.953v3.121c1.432,.368,2.638,.783,3.5,1.116V3.71Zm-11-1.688c-1.222,.049-2.404,.181-3.5,.356v3.058c1.1-.204,2.278-.355,3.5-.411V2.022Zm2,3.003c1.222,.055,2.4,.207,3.5,.411V2.378c-1.096-.175-2.278-.307-3.5-.356v3.003ZM2,3.71v3.284c.862-.333,2.068-.748,3.5-1.116V2.757c-1.556,.341-2.797,.719-3.5,.953Zm10,6.29c3.521,0,6.442,2.612,6.929,6h3.071v-6.847c-1.464-.613-5.58-2.153-10-2.153s-8.536,1.54-10,2.153v6.847h3.071c.487-3.388,3.408-6,6.929-6Z"/>
</svg>
