<svg id="Layer_1" viewBox="0 0 24 24" xmlns="http://www.w3.org/2000/svg" data-name="Layer 1"><path d="m22.101 12.732c.26-.3.506-.617.725-.96 1.57-2.462 1.555-5.764-.039-8.215-1.296-1.992-3.369-3.274-5.687-3.517-2.142-.216-4.234.459-5.838 1.857l-3.529-.815c-1.101-.252-2.236.072-3.034.871l-2.744 2.743c-.799.799-1.125 1.934-.871 3.034l.817 3.535c-2.24 2.474-2.514 6.389-.686 9.175 2.409 3.916 8.144 4.752 11.53 1.662l3.525.814c.246.057.494.085.74.084.852 0 1.675-.335 2.294-.955l2.744-2.743c.799-.799 1.125-1.933.871-3.033l-.816-3.537zm-18.733-6.621 2.745-2.744c.307-.308.747-.436 1.17-.335l2.509.579c-.224.357-.424.729-.587 1.122-.896 2.156-2.363 3.697-4.134 4.34-.517.188-.996.447-1.455.736l-.583-2.527c-.098-.425.027-.862.335-1.171zm17.264 11.778-2.744 2.743c-.309.308-.748.435-1.17.336l-2.509-.579c.224-.357.424-.729.587-1.122.896-2.156 2.363-3.697 4.134-4.34.517-.189.996-.447 1.455-.737l.584 2.529c.098.425-.027.861-.335 1.17zm.507-7.192c-.705 1.105-1.705 1.918-2.892 2.349-2.304.837-4.185 2.773-5.298 5.454-.284.686-.697 1.302-1.227 1.832-1.218 1.22-2.899 1.819-4.614 1.637-1.716-.179-3.253-1.133-4.218-2.617-1.174-1.805-1.186-4.236-.029-6.049.705-1.106 1.705-1.918 2.892-2.35 2.304-.836 4.186-2.772 5.298-5.453.284-.686.697-1.302 1.227-1.832 1.076-1.077 2.513-1.669 4.015-1.669.199 0 .398.011.599.031 1.715.18 3.253 1.134 4.218 2.617 1.174 1.806 1.186 4.236.029 6.05z"/></svg>