<svg id="Layer_1" viewBox="0 0 24 24" xmlns="http://www.w3.org/2000/svg" data-name="Layer 1"><path d="m24 2v5c0 1.103-.897 2-2 2h-5v-2h3.665c-1.766-3.079-5.026-5-8.665-5-5.514 0-10 4.486-10 10 0 4.469 2.947 8.262 7 9.539v2.066c-5.167-1.337-9-6.026-9-11.605 0-6.617 5.383-12 12-12 4.109 0 7.811 2.044 10 5.362v-3.362zm0 16v3c0 1.654-1.346 3-3 3s-3-1.346-3-3v-3c0-1.654 1.346-3 3-3s3 1.346 3 3zm-2 0c0-.551-.449-1-1-1s-1 .449-1 1v3c0 .551.449 1 1 1s1-.449 1-1zm-9-12h-2v5h-4v2h6zm3.116 13.242c.28-.431.446-.942.446-1.492 0-1.517-1.233-2.75-2.75-2.75h-2.812v2h2.812c.414 0 .75.336.75.75s-.336.75-.75.75h-1.812v2h2.25c.414 0 .75.336.75.75s-.336.75-.75.75h-3.25v2h3.25c1.517 0 2.75-1.233 2.75-2.75 0-.794-.343-1.505-.884-2.008z"/></svg>