<?xml version="1.0" encoding="UTF-8"?>
<svg xmlns="http://www.w3.org/2000/svg" id="Layer_1" data-name="Layer 1" viewBox="0 0 24 24">
  <path d="M18,0c-3.42,0-6,5.159-6,12s2.58,12,6,12,6-5.159,6-12S21.42,0,18,0Zm0,22c-1.888,0-4-4.276-4-10s2.112-10,4-10c.832,0,1.706,.831,2.425,2.248-1.53,1.796-3.042,5.645-4.336,8.54v2.212h2.33l.449,3.394c.109,.829,.548,1.544,1.185,2.015-.638,1.011-1.36,1.591-2.052,1.591Zm2.97-3.522c-.058-.106-.103-.221-.119-.347l-.678-5.132h-1.991l.465-1.062c.87-1.995,1.764-4.034,2.635-5.437,.441,1.557,.719,3.431,.719,5.499,0,2.521-.41,4.761-1.03,6.478Zm-11.055-5.884l.086,.193v2.212h-2.33l-.449,3.394c-.197,1.486-1.476,2.606-2.974,2.606H2v3H0v-5H4.247c.5,0,.926-.373,.992-.869l.678-5.131h1.991c-.292-.671-.583-1.37-.875-2.07-.941-2.259-1.915-4.595-2.81-5.701l.006-.005C3.111,3.761,1.657,2.686,0,2.108V0C2.265,.638,4.287,1.995,5.777,3.971h0c1.456,1.787,2.922,5.906,4.137,8.623Z"/>
</svg>
