<?xml version="1.0" encoding="UTF-8"?>
<svg xmlns="http://www.w3.org/2000/svg" id="Layer_1" data-name="Layer 1" viewBox="0 0 24 24">
  <path d="M20.667,8.579l.833-1.667,.833,1.667,1.667,.833-1.667,.833-.833,1.667-.833-1.667-1.667-.833,1.667-.833Zm-2.668-1.579l1.167-2.333,2.333-1.167-2.333-1.167-1.167-2.333-1.167,2.333-2.333,1.167,2.333,1.167,1.167,2.333Zm-14.999-.5C3,3.467,5.468,1,8.5,1s5.5,2.467,5.5,5.5-2.468,5.5-5.5,5.5S3,9.533,3,6.5Zm2,0c0,1.93,1.57,3.5,3.5,3.5s3.5-1.57,3.5-3.5-1.57-3.5-3.5-3.5-3.5,1.57-3.5,3.5Zm10.953,5.5c-.151,0-.322,0-6.056,1.23-1.094,.235-2.09,.841-2.804,1.708l-4.519,5.481,.917-7.294-1.984-.249L.109,24H2.215l5.324-6.459,2.369,6.459h2.092l-2.93-8.21c.364-.294,.789-.507,1.248-.605,3.888-.834,5.508-1.162,5.636-1.186,1.035,0,1.967,.576,2.43,1.502l3.249,6.498H13.483l.62,2h9.896v-1.736l-3.828-7.657c-.805-1.608-2.421-2.607-4.219-2.607Z"/>
</svg>
