<svg id="Layer_1" viewBox="0 0 24 24" xmlns="http://www.w3.org/2000/svg" data-name="Layer 1"><path d="m13 9.5c0 .5-.519 1.152-.62 1.311l1.62 2.189h-1.894l-.712-.964c-.598.12-.793.543-.793.964 0 .496.404.9.9.9s2.004 0 2.5 0v1.6h-2.5c-1.381 0-2.5-1.119-2.5-2.5 0-1.053.653-1.95 1.574-2.318-.307-.346-.574-.762-.574-1.182 0-.828.672-1.5 1.5-1.5s1.5.672 1.5 1.5zm-8.555-4.967 1.055 3.467h-1.744l-.872-3h-.784v3h-1.6v-8h2.5c1.381 0 2.5 1.119 2.5 2.5 0 .841-.419 1.58-1.055 2.033zm-.545-2.033c0-.496-.404-.9-.9-.9h-.9v1.8h.9c.496 0 .9-.404.9-.9zm2.047 18.032 1.042 3.422-1.732.046-.872-3h-.784v3h-1.6v-8h2.5c1.381 0 2.5 1.119 2.5 2.5 0 .84-.418 1.578-1.053 2.032zm-.547-2.032c0-.496-.404-.9-.9-.9h-.9v1.8h.9c.496 0 .9-.404.9-.9zm7.2-.2v3.4c0 1.269-1.031 2.3-2.3 2.3s-2.3-1.031-2.3-2.3v-3.4c0-1.269 1.031-2.3 2.3-2.3s2.3 1.031 2.3 2.3zm-1.6 0c0-.386-.314-.7-.7-.7s-.7.314-.7.7v3.4c0 .386.314.7.7.7s.7-.314.7-.7zm12.5-18.3h-1.744l-.872 3h-.784v-3h-1.6v8h1.6v-3.4l.688-.002.968 3.401h1.744l-1.252-3.974 1.252-4.026zm-3.4 16h-1.6v8h3.5v-1.6h-1.9zm-5.1-14.4c.496 0 .9.404.9.9h1.6c0-1.381-1.119-2.5-2.5-2.5s-2.5 1.119-2.5 2.5v3c0 1.381 1.119 2.5 2.5 2.5s2.5-1.119 2.5-2.5h-1.6c0 .496-.404.9-.9.9s-.9-.404-.9-.9v-3c0-.496.404-.9.9-.9zm-6.2 6.4c-1.269 0-2.3-1.031-2.3-2.3v-3.4c0-1.269 1.031-2.3 2.3-2.3s2.3 1.031 2.3 2.3v3.4c0 1.269-1.031 2.3-2.3 2.3zm0-1.6c.386 0 .7-.314.7-.7v-3.4c0-.386-.314-.7-.7-.7s-.7.314-.7.7v3.4c0 .386.314.7.7.7zm6.8 9.6h-1.6v8h3.5v-1.6h-1.9z"/></svg>