<?xml version="1.0" encoding="UTF-8"?>
<svg xmlns="http://www.w3.org/2000/svg" id="Layer_1" data-name="Layer 1" viewBox="0 0 24 24">
  <path d="m21.002,15.519c-.164-.041-1.501-.321-2.002-.436v-1.901l-5-1v-7.181h-2V0h-2v5h-6V0h-2v5H0v12c0,3.859,3.14,7,7,7h12v-2h1.718c1.797,0,3.27-1.457,3.282-3.249.011-1.552-1.109-2.76-2.998-3.232ZM2,7h3.803l-3.803,3.479v-3.479Zm0,9.729v-3.539l6.767-6.191h3.233v.581L2,16.729Zm.443,2.306l9.557-8.744v3.161l-7.918,7.59c-.708-.513-1.278-1.201-1.639-2.007Zm4.557,2.965c-.316,0-.623-.037-.924-.093l2.855-2.713,3.022,2.806h-4.954Zm10,0h-2.107l-4.508-4.186,1.866-1.773,4.723,4.316.027-.029v1.672Zm0-4.328l-3.295-3.012.434-.413,2.861.572v2.853Zm3.718,2.328h-1.718v-2.867c.332.073,1.372.289,1.518.325.679.171,1.488.53,1.482,1.279-.005.685-.592,1.263-1.282,1.263Z"/>
</svg>
