<svg id="Layer_1" viewBox="0 0 24 24" xmlns="http://www.w3.org/2000/svg" data-name="Layer 1"><path d="m10 2c0-1.105.895-2 2-2s2 .895 2 2-.895 2-2 2-2-.895-2-2zm2 18c-1.105 0-2 .895-2 2s.895 2 2 2 2-.895 2-2-.895-2-2-2zm-2.5-10.4c-.221 0-.4.179-.4.4v4c0 .221.179.4.4.4s.4-.179.4-.4v-4c0-.221-.179-.4-.4-.4zm14.5-6.6h-5.695c2.835 1.992 4.695 5.28 4.695 9s-1.861 7.008-4.695 9h5.695v2h-8.141c.083-.321.141-.653.141-1 0-.63-.159-1.218-.418-1.748 1.196-.521 2.257-1.294 3.117-2.252h-13.398c.86.958 1.921 1.731 3.117 2.252-.259.53-.418 1.118-.418 1.748 0 .347.058.679.141 1h-8.141v-2h5.695c-2.835-1.992-4.695-5.28-4.695-9s1.861-7.008 4.695-9h-5.695v-2h8.141c-.083.321-.141.653-.141 1 0 .63.159 1.218.418 1.748-1.196.521-2.257 1.294-3.117 2.252h13.398c-.86-.958-1.921-1.731-3.117-2.252.259-.53.418-1.118.418-1.748 0-.347-.058-.679-.141-1h8.141zm-17 11.4h-1.4v-6.4h-1.6v8h3zm4.5-4.4c0-1.103-.897-2-2-2s-2 .897-2 2v4c0 1.103.897 2 2 2s2-.897 2-2zm4.5-.038c0-1.103-.897-2-2-2s-2 .897-2 2v4c0 1.103.897 2 2 2s2-.897 2-2v-2h-2v1.5h.4v.5c0 .221-.179.4-.4.4s-.4-.179-.4-.4v-4c0-.221.179-.4.4-.4s.4.179.4.4v.5h1.6zm2.5-1.962c-1.103 0-2 .897-2 2v4c0 1.103.897 2 2 2s2-.897 2-2v-4c0-1.103-.897-2-2-2zm-.4 2v4c0 .221.179.4.4.4s.4-.179.4-.4v-4c0-.221-.179-.4-.4-.4s-.4.179-.4.4z"/></svg>