<svg id="Layer_1" viewBox="0 0 24 24" xmlns="http://www.w3.org/2000/svg" data-name="Layer 1"><path d="m21.647 15.046c-.686.623-1.863 1.144-3.038 1.506 1.519-3.122 2.391-6.496 2.391-9.552v-3.038l-1.805 2.443c-1.447 1.961-2.733 3.584-3.897 4.926-.579-2.458-1.355-5.232-2.352-8.353l-.953-2.978-.953 2.978c-.758 2.374-1.668 5.337-2.388 8.293-1.159-1.339-2.426-2.939-3.849-4.865l-1.805-2.443v3.038c0 3.329.959 6.668 2.368 9.545-1.167-.362-2.334-.881-3.015-1.5l-2.309-2.099.661 3.051c.331 1.524 1.033 2.946 2.087 4.225 2.036 2.472 5.221 3.777 9.209 3.777h.556c3.567-.076 6.753-1.426 8.653-3.777 1.055-1.278 1.757-2.7 2.087-4.225l.661-3.051-2.311 2.099zm-3.021-4.595c-.473 2.261-1.348 4.406-2.327 6.211-.11-.893-.275-1.874-.479-2.918.875-.943 1.795-2.018 2.805-3.293zm-6.637-3.785c1.161 3.933 1.913 7.2 2.268 9.802-1.425-1.16-2.624-1.998-3.964-3.408.478-2.151 1.086-4.365 1.696-6.394zm-.894 9.843c.944.749 1.804 1.398 2.792 2.259.739.598.825 1.903.151 2.605-.593.728-1.899.81-2.591.164-2.508-2.186-5.144-6.494-6.086-11.106 2.214 2.79 4.07 4.754 5.734 6.078zm-6.762 2.442c-.232-.282-.442-.571-.631-.867 1.033.407 2.11.688 3 .845.631.993 1.306 1.897 2 2.682-1.823-.466-3.29-1.351-4.369-2.66zm15.333 0c-.869 1.054-1.991 1.831-3.345 2.34.11-.362.16-.742.161-1.13.285-.399.551-.814.812-1.231.891-.157 1.969-.439 3.003-.846-.189.296-.399.586-.631.867z"/></svg>