<?xml version="1.0" encoding="UTF-8"?>
<svg xmlns="http://www.w3.org/2000/svg" id="Layer_1" data-name="Layer 1" viewBox="0 0 24 24">
  <path d="M15,6.5c0-1.381,1.119-2.5,2.5-2.5s2.5,1.119,2.5,2.5-1.119,2.5-2.5,2.5-2.5-1.119-2.5-2.5Zm9,15.5v2h-5v-4h-5v4h-2v-6h3v-6h-3.28l-3.957-2.401,1.111,9.401h-3.875v5H3v-5H.069L1.239,8.932c.184-1.663,1.584-2.921,3.261-2.93v-.002s.007,0,.011,0c.003,0,.005,0,.007,0h0c1.269,.008,2.393,.685,3.348,1.322l4.414,2.678h6.22c1.379,0,2.5,1.122,2.5,2.5v9.5h3ZM6.625,17l-1.029-8.698c-.373-.178-.742-.299-1.087-.301-.66,.004-1.211,.499-1.283,1.156l-.911,7.843H6.625Zm12.375,1v-5.5c0-.276-.225-.5-.5-.5h-1.5v6h2ZM4.5,5c1.381,0,2.5-1.119,2.5-2.5S5.881,0,4.5,0,2,1.119,2,2.5s1.119,2.5,2.5,2.5Z"/>
</svg>
