<svg id="Layer_1" viewBox="0 0 24 24" xmlns="http://www.w3.org/2000/svg" data-name="Layer 1"><path d="m17.5 11c-1.379 0-2.5 1.122-2.5 2.5v4c0 1.378 1.121 2.5 2.5 2.5s2.5-1.122 2.5-2.5v-4c0-1.378-1.121-2.5-2.5-2.5zm.5 6.5c0 .276-.225.5-.5.5s-.5-.224-.5-.5v-4c0-.276.225-.5.5-.5s.5.224.5.5zm-12-4.5v1h.5c1.379 0 2.5 1.122 2.5 2.5v1c0 1.378-1.121 2.5-2.5 2.5s-2.5-1.122-2.5-2.5h2c0 .276.225.5.5.5s.5-.224.5-.5v-1c0-.276-.225-.5-.5-.5h-2.5v-5h5v2zm15-11h-2v-2h-2v2h-10v-2h-2v2h-2c-1.654 0-3 1.346-3 3v19h24v-19c0-1.654-1.346-3-3-3zm-18 2h18c.552 0 1 .449 1 1v2h-20v-2c0-.551.448-1 1-1zm-1 5h9v13h-9zm11 13v-13h9v13z"/></svg>