<svg id="Layer_1" viewBox="0 0 24 24" xmlns="http://www.w3.org/2000/svg" data-name="Layer 1"><path d="m24 3h-4.586l-1.414-1.414-2 2-2-2-2 2-2-2-2 2-2-2-1.414 1.414h-4.586v4h2v2h-2v2h2v2h-2v2h2v2h-2v4h4.586l1.414 1.414 2-2 2 2 2-2 2 2 2-2 2 2 1.414-1.414h4.586zm-19 15.586v-13.172l1-1 1 1v13.172l-1 1zm4 0v-13.172l1-1 1 1v13.172l-1 1zm4 0v-13.172l1-1 1 1v13.172l-1 1zm4 0v-13.172l1-1 1 1v13.172l-1 1zm4.5-.586c-.828 0-1.5-.672-1.5-1.5s.672-1.5 1.5-1.5 1.5.672 1.5 1.5-.672 1.5-1.5 1.5zm0-4.5c-.828 0-1.5-.672-1.5-1.5s.672-1.5 1.5-1.5 1.5.672 1.5 1.5-.672 1.5-1.5 1.5zm0-4.5c-.828 0-1.5-.672-1.5-1.5s.672-1.5 1.5-1.5 1.5.672 1.5 1.5-.672 1.5-1.5 1.5z"/></svg>