<svg id="Layer_1" viewBox="0 0 24 24" xmlns="http://www.w3.org/2000/svg" data-name="Layer 1"><path d="m24 8v-2.214l-16.833-5.786h-.898l-6.269 6.077v1.923h4v14h-4v2h15v-2h-4v-14h9v7.54c0 1.102.564 2.089 1.473 2.578.325.175.527.513.527.882 0 .551-.448 1-1 1s-1-.449-1-1h-2c0 1.654 1.346 3 3 3s3-1.346 3-3c0-1.105-.605-2.118-1.58-2.643-.255-.138-.42-.458-.42-.817v-7.54zm-15 12.086-2.586-2.586 2.586-2.586zm-3-5v-5.172l2.586 2.586zm0 4.828 2.086 2.086h-2.086zm3-9.828-2.086-2.086h2.086zm-6.048-4.086 4.062-3.938 11.455 3.938z"/></svg>