<svg id="Layer_1" viewBox="0 0 24 24" xmlns="http://www.w3.org/2000/svg" data-name="Layer 1"><path d="m24 20.5c0 1.93-1.57 3.5-3.5 3.5h-7.526c.442-.584.773-1.257.924-2h6.601c.827 0 1.5-.673 1.5-1.5s-.673-1.5-1.5-1.5h-6.5v-.743c.047-.278.119-.701.21-1.257h3.861c1.063 0 1.929-.865 1.929-1.929 0-.853-.237-1.604-.705-2.232l-.436-.585c-.261.409-.57.979-.97 1.262-.621.483-1.46.477-2.03.483h-1.178c.094-.629.192-1.303.29-2h.529c1 0 1.5-.67 1.5-1.5v-1.235l1.321.449c.15.051 3.679 1.295 3.679 5.357 0 .758-.226 1.46-.599 2.061 1.492.401 2.599 1.751 2.599 3.368zm-12-2.414v2.914c0 1.654-1.346 3-3 3h-4c-1.654 0-3-1.346-3-3v-2.914c-.195-1.132-2-11.748-2-17.086v-1h14v1c0 5.338-1.805 15.954-2 17.086zm-9.98-16.086c.17 4.697 1.405 12.463 1.826 15h6.309c.421-2.537 1.656-10.303 1.826-15zm7.98 17h-6v2c0 .552.449 1 1 1h4c.551 0 1-.448 1-1z"/></svg>