<svg id="Layer_1" viewBox="0 0 24 24" xmlns="http://www.w3.org/2000/svg" data-name="Layer 1"><path d="m24 10.999s0-.001 0-.002c-.002-7.555-6.221-10.997-12-10.997s-11.998 3.441-12 10.997v.002c0 5.033 3.058 8.993 8 10.433v2.566h1v-4.647c.952.405 1.965.648 3 .648s2.048-.243 3-.648v4.647h1v-2.565c4.943-1.439 8-5.4 8-10.433zm-12-9.999c4.624 0 9.553 2.385 10.734 7.559-.491-.35-1.086-.56-1.734-.56h-2.75c-.992.02-1.861-.569-2.409-1.389-.471.248-.856.4-1.493.391-.899.029-1.749-.434-2.348-1.107-.588.643-1.363 1.128-2.261 1.106-.675.025-1.085-.128-1.579-.39-.548.82-1.417 1.409-2.41 1.39h-2.75c-.647-.001-1.243.209-1.734.559 1.181-5.174 6.11-7.559 10.734-7.559zm-4 19.391c-3.566-1.124-5.952-3.617-6.725-6.945.489.346 1.082.553 1.725.553h.6c.763 1.833 2.388 3.705 4.4 4.86zm8 0v-1.531c2.013-1.155 3.638-3.028 4.401-4.861h.599c.643 0 1.236-.207 1.725-.553-.772 3.329-3.159 5.822-6.725 6.945zm5-7.392h-1.292c-.929 2.913-4.137 5.976-7.708 6.001-3.57-.026-6.778-3.088-7.707-6.001h-1.293c-1.102 0-2-.897-2-2 0 0 0-.001 0-.002 0-1.102.898-1.998 2-1.998h2.75c1.028.001 1.994-.42 2.702-1.167.352.113.75.17 1.186.17.835-.002 1.685-.245 2.362-.757.648.49 1.431.756 2.239.756.489.006.929-.046 1.31-.168.708.747 1.674 1.168 2.701 1.168h2.75c1.102-.001 1.999.895 2 1.997v.002c0 1.103-.898 2-2 2zm-12-1c-.552 0-1-.448-1-1s.448-1 1-1 1 .448 1 1-.448 1-1 1zm7-1c0 .552-.448 1-1 1s-1-.448-1-1 .448-1 1-1 1 .448 1 1zm-1.001 4s0 .001-.001.002c-.49 1.174-1.648 2-2.999 2s-2.509-.826-2.999-2h.002s0-.001-.001-.002z"/></svg>