<?xml version="1.0" encoding="UTF-8"?>
<svg xmlns="http://www.w3.org/2000/svg" id="Layer_1" data-name="Layer 1" viewBox="0 0 24 24">
  <path d="M23.7,.303c-.264-.264-.635-.363-.997-.267-2.488,.674-4.727,1.697-6.655,3.042-1.261,.881-4.31,3.727-6.026,5.443l-4.888,4.885c-1.374-1.475-2.134-3.38-2.134-5.407h-1c0,2.392,.931,4.639,2.622,6.328l1.422,1.422-3.913,3.913-1.396-1.396L.026,18.974l5,5,.707-.707-1.396-1.396,3.913-3.913,1.422,1.422c1.691,1.69,3.939,2.621,6.329,2.621v-1c-2.031,0-3.94-.764-5.417-2.143l4.889-4.886c1.688-1.688,4.603-4.786,5.499-6.078,1.316-1.896,2.323-4.114,2.993-6.593,.099-.359,0-.732-.263-.997ZM3.63,21.163l-.793-.793,3.913-3.913,.793,.793-3.913,3.913ZM20.148,7.322c-.823,1.188-3.656,4.214-5.384,5.941l-4.898,4.896-1.659-1.659L16.776,7.931l-.707-.707L7.5,15.793l-1.669-1.669,4.898-4.895c1.648-1.647,4.694-4.494,5.892-5.33,1.833-1.278,3.967-2.253,6.377-2.861-.64,2.369-1.599,4.484-2.85,6.285Z"/>
</svg>
