<svg id="Layer_1" viewBox="0 0 24 24" xmlns="http://www.w3.org/2000/svg" data-name="Layer 1"><path d="m20.354 19.646c-1.354-1.354-1.354-6.652-1.354-8.646-.083-2.47-1.33-5.067-3.635-7.364-4.236-4.251-9.492-4.801-13.083-1.37-2.978 3.096-2.971 7.448-.175 11.309.22-.255.462-.487.734-.687-.21-.294-.396-.59-.57-.887h8.729v5.974c-.405-.015-.813-.053-1.225-.138-.101.323-.234.629-.401.917.546.125 1.088.228 1.626.247 2.182 0 7.293 0 8.646 1.354l3.615 3.615.707-.707-3.615-3.615zm-8.354-17.382c.905.53 1.799 1.218 2.658 2.079.542.54 1.012 1.095 1.423 1.657h-4.081zm0 4.736h4.736c.78 1.332 1.2 2.688 1.248 4h-5.984zm-6 4h-4.25c-.604-1.35-.842-2.707-.7-4h4.95zm0-5h-4.755c.294-1.084.867-2.107 1.737-3.019.911-.869 1.935-1.44 3.019-1.736v4.755zm5 5h-4v-4h4zm0-5h-4v-4.952c1.293-.144 2.65.093 4 .696zm1 6h5.952c-.162 1.456-.801 2.831-1.933 4.019-1.188 1.132-2.563 1.76-4.019 1.921zm2.824 6.105c.671-.356 1.325-.812 1.907-1.389l.003.003c.571-.598 1.022-1.245 1.374-1.922.1 1.477.265 2.861.611 3.924-1.047-.345-2.407-.516-3.895-.615zm-9.324-4.105c-1.378 0-2.5 1.122-2.5 2.5s1.122 2.5 2.5 2.5 2.5-1.122 2.5-2.5-1.122-2.5-2.5-2.5zm0 4c-.827 0-1.5-.673-1.5-1.5s.673-1.5 1.5-1.5 1.5.673 1.5 1.5-.673 1.5-1.5 1.5z"/></svg>