<svg id="Layer_1" viewBox="0 0 24 24" xmlns="http://www.w3.org/2000/svg" data-name="Layer 1"><path d="m16.514 14.455 1.458-.863-1.847-.925c-.122-.368-.285-.742-.482-1.125-.099-.416.279-.888.634-1.126.896-.597 1.622-.574 2.349.068l1.477 2.214-.623 1.768 1.667-.342.768-.512-2.277-3.411c.892-1.202.536-2.763-.399-3.904.243-1.032.949-2.182 1.408-3.083-.72.452-2.008 1.158-2.586 1.775-.139-1.354.002-3.109.15-4.561-1.116 1.128-2.199 2.003-2.997 3.688-.783-1.372-1.55-2.791-2.08-4.061-.33.563-.796 1.311-.916 1.946h-1.219c-.117-.009-2.41-.024-4.564 1.245l-3.436-.245 1.247 2.325c-.258.398-.475.829-.653 1.291l-2.632.422 2.089 2.026c-.062.582-.05 1.424-.05 2.026l-2.5.449 2.512 2.206c.014.324.029 1.025-.023 1.926l-2.489.83 2.155 1.724c-.382 1.811-1.148 3.667-2.655 4.63v1.139c4.565-2.188 4.025-10.186 4-10.492v-3.365c-.176-5.271 3.99-7.179 7-7.135h1.062c-.057 1.206.269 2.361.542 3.093-1.652-.106-2.581.386-3.83.853.975.435 1.992.873 2.923 1.494-3.116 1.509-1.279 5.164-.095 7.176 1.124 1.96 2.398 4.182 2.398 8.383h1c0-4.468-1.403-6.915-2.53-8.881-.946-1.452-2.935-5.647.28-5.869 0 0 .811.821 1.121 1.314 1.124 1.353 1.81 3.84 1.675 5.287l.989.149 1.808-.606-1.829-.94zm-5.047-7.326c.647-.131 2.094.051 2.771.084-.466-1.107-1.383-2.024-1.101-4.807 1.231 2.309 1.618 2.907 2.387 4.243.225-1.221.675-2.635 1.486-3.528-.048 1.49.122 2.756.366 4.105l.698-.811s.767 1.083.767 1.083c.394.591.421 1.403.103 1.962-1.194-.917-3.122-.409-3.997.912-.75-1.372-2.184-2.569-3.479-3.244zm12.483 11.625c-.416-1.861-2.294-3.063-4.181-2.684-1.849.333-3.133 2.266-2.686 4.093.472 2.092 3.019 3.13 5.033 3.845l.198-.403c.643-1.311-.25-2.198-.84-2.785-.418-.416-.593-.625-.521-.772.015-.01.1-.031.242 0 1.001.311 1.556 1.047 2.118 1.634.49-.797.839-2.158.637-2.928zm-1.007 1.146c-.677-.626-2.327-1.424-2.892-.285-.685 1.309 1.49 2.108 1.485 3.111-1.549-.603-3.18-1.456-3.477-2.782-.374-1.487.898-2.988 2.417-2.945 1.173 0 2.237.806 2.498 1.973.042.188.034.558-.031.928z"/></svg>