<svg id="Layer_1" viewBox="0 0 24 24" xmlns="http://www.w3.org/2000/svg" data-name="Layer 1"><path d="m9 16c-.936 0-1.442.837-1.546 1.416l-1.211 6.583h1.017s.368-1.999.368-1.999h2.736l.363 2h1.016s-1.188-6.538-1.188-6.538c-.12-.668-.62-1.462-1.555-1.462zm-1.188 5 .626-3.403c.002-.011.133-.597.562-.597.444 0 .559.573.571.638l.611 3.362zm7.688-5h-2.5v8h1v-3h1.5c1.379 0 2.5-1.122 2.5-2.5s-1.121-2.5-2.5-2.5zm0 4h-1.5v-3h1.5c.827 0 1.5.673 1.5 1.5s-.673 1.5-1.5 1.5zm8.5-1.5c0-1.378-1.121-2.5-2.5-2.5h-2.5v8h1v-3h1.5c.101 0 .197-.018.295-.03l.922 3.03h1.046l-1.018-3.345c.747-.433 1.256-1.232 1.256-2.155zm-2.5 1.5h-1.5v-3h1.5c.827 0 1.5.673 1.5 1.5s-.673 1.5-1.5 1.5zm0-18h-3.5v-2h-1v2h-10v-2h-1v2h-3.5c-1.379 0-2.5 1.122-2.5 2.5v19.5h3.951l.206-1h-3.157v-14h22v5.307c.359.158.696.36 1 .602v-10.409c0-1.378-1.121-2.5-2.5-2.5zm-20.5 6v-3.5c0-.827.673-1.5 1.5-1.5h19c.827 0 1.5.673 1.5 1.5v3.5z"/></svg>