<?xml version="1.0" encoding="UTF-8"?>
<svg xmlns="http://www.w3.org/2000/svg" id="Layer_1" data-name="Layer 1" viewBox="0 0 24 24">
  <path d="M24,10v-1h-2.004l.004-3.505c-.003-1.375-1.125-2.495-2.5-2.495h-4.551S12,.049,12,.049l-2.948,2.948H4.5c-1.378-.001-2.5,1.12-2.5,2.499v3.504H0v1H9v13H5v1h14v-1h-4V10h9Zm-9-1h-1v-2h1v2Zm4,0h-1v-2h1v2ZM12,1.463l1.535,1.535h-3.069s1.534-1.535,1.534-1.535ZM3,5.496c0-.827,.673-1.5,1.5-1.5h4.941s.013,.014,.013,.014l.013-.013h5.069s.011,.013,.011,.013l.011-.011h4.942c.825,.001,1.498,.673,1.5,1.497l-.004,3.505h-.996v-3h-3v3h-1v-3h-3v3h-2v-3h-3v3h-1v-3h-3v3h-1v-3.504Zm7,3.504h-1v-2h1v2Zm-4,0h-1v-2h1v2Zm7.043,1l-3.043,3.043v-3.043h3.043Zm.957,8.043l-3.793-3.793,3.793-3.793v7.586Zm-4-2.586l3.793,3.793-3.75,3.75h-.043v-7.543Zm1.457,7.543l2.543-2.543v2.543h-2.543Z"/>
</svg>
