<?xml version="1.0" encoding="UTF-8"?>
<svg xmlns="http://www.w3.org/2000/svg" id="Layer_1" data-name="Layer 1" viewBox="0 0 24 24">
  <path d="M24.049,21l-2.566-5.008h1.516l-2.453-4.992h1.664l-3.499-6.016c-.604-1.151-2.051-1.364-2.789-.287l-2.166-3.658c-.829-1.383-2.689-1.38-3.519,.013l-2.157,3.643c-.746-1.076-2.185-.869-2.806,.315L1.791,11h1.664L1.002,15.992h1.516L-.049,21H6.5v3h1v-3h4v3h1v-3h4v3h1v-3h6.549ZM1.588,20l2.566-5.008h-1.547l2.453-4.992h-1.531l2.593-4.46c.366-.548,.486-.548,.673-.548,.182,0,.302,0,.651,.521l.074,.127-1.397,2.36h1.776l-3.077,6h1.821l-3.077,6H1.588Zm10.912,0V12h-1v8H4.69l3.59-7h-1.821l3.077-6h-1.659L11.089,1.576c.455-.763,1.36-.766,1.813-.013l3.221,5.438h-1.659l3.077,6h-1.821l3.59,7h-6.81Zm4.856-6h1.821l-3.077-6h1.776l-1.398-2.36,.058-.1c.64-.791,.69-.797,1.324-.026l2.609,4.486h-1.531l2.453,4.992h-1.547l2.566,5.008h-1.979l-3.077-6Z"/>
</svg>
