<?xml version="1.0" encoding="UTF-8"?>
<svg xmlns="http://www.w3.org/2000/svg" id="Layer_1" data-name="Layer 1" viewBox="0 0 24 24">
  <path d="M17.792,7.208c-.826-3.617-4.051-6.208-7.792-6.208C5.589,1,2,4.589,2,9c0,1.271,.308,2.526,.894,3.659-1.774,.953-2.894,2.797-2.894,4.841,0,3.032,2.467,5.5,5.5,5.5h6.5v-1H5.5c-2.481,0-4.5-2.019-4.5-4.5,0-1.825,1.092-3.457,2.783-4.157l.539-.223-.303-.499c-.667-1.097-1.019-2.35-1.019-3.621,0-3.859,3.14-7,7-7,3.373,0,6.265,2.406,6.877,5.722l.062,.338,.338,.062c3.315,.613,5.722,3.506,5.722,6.878,0,3.519-2.613,6.432-6,6.92v1.01c3.94-.495,7-3.859,7-7.931,0-3.741-2.591-6.965-6.208-7.792Z"/>
  <path d="M18.104,16.354l.707-.707-3.25-3.251c-.564-.564-1.557-.564-2.121,0l-3.25,3.251,.707,.707,3.104-3.104v10.751h1V13.249l3.104,3.104Z"/>
</svg>
