<svg id="Layer_1" viewBox="0 0 24 24" xmlns="http://www.w3.org/2000/svg" data-name="Layer 1"><path d="m7 0h11v13c0 1.654-1.346 3-3 3h-3.361l.678-1h2.683c1.103 0 2-.897 2-2v-1h-3.089c.06-.332.087-.666.068-1h3.021v-10h-9v6.409c-.353.16-.691.363-1 .624v-2.887l-6 5.572v12.282h6v-5.505l3.672-5.409c.476-.564.412-1.349-.109-1.792-.465-.396-1.165-.389-1.626.017l-3.536 3.243-.676-.737 3.543-3.249c.835-.74 2.096-.754 2.943-.036.94.8 1.056 2.216.256 3.158l-3.467 5.111v6.198h-8v-13.718l7-6.499zm3 24h3v-1h-3zm5 0h3v-1h-3zm8-6h1v-3h-1zm0 4c0 .551-.448.999-1 .999h-2v1h2c1.103 0 2-.896 2-1.999v-2h-1zm.414-12.415c-.378-.377-.88-.585-1.413-.585h-2.001v1h2.001c.536-.011 1.01.462.999.999v2.001h1v-2.001c0-.534-.208-1.036-.586-1.414z"/></svg>