<svg id="Layer_1" viewBox="0 0 24 24" xmlns="http://www.w3.org/2000/svg" data-name="Layer 1"><path d="m21.8 15.328-1.501-.808 3.648-7.297-.895-.447-3.635 7.269-1.436-.773c-1.041-.562-2.322-.231-2.977.771-1.077 1.671-2.546 3.353-4.114 4.793 1.177 1.084 2.711 2.16 4.328 3.05.806-.31 1.657-.766 2.625-1.555-.19.779-.609 1.581-.948 2.343.999.43 2.031.812 3.021 1.093 1.157-1.449 2.466-3.383 3.033-5.966.207-.981-.267-1.998-1.152-2.473zm.173 2.266c-.433 2.048-1.514 3.818-2.42 5.017-.428-.136-.868-.292-1.314-.467.421-.933.761-1.805.761-3.144v-1.343l-.878 1.016c-.871 1.008-2.022 1.737-2.833 2.104-1.036-.595-2.096-1.317-2.91-1.978 1.333-1.313 2.524-2.76 3.466-4.21.367-.562 1.083-.749 1.665-.436l3.818 2.056c.496.267.762.836.646 1.385zm-13.473 5.406c-4.065 0-7.5-1.603-7.5-3.5v-2.857c1.347 1.34 3.935 2.255 7.008 2.344l.991-.999c-.166.005-.331.012-.5.012-4.065 0-7.5-1.603-7.5-3.5v-2.851c1.419 1.411 4.213 2.351 7.5 2.351 4.767 0 8.5-1.977 8.5-4.5v-5c0-2.523-3.733-4.5-8.5-4.5s-8.499 1.977-8.499 4.5v15c0 2.523 3.733 4.5 8.5 4.5 1.912 0 3.651-.322 5.056-.865-.368-.219-.73-.447-1.091-.686-1.159.346-2.52.551-3.965.551zm0-22c4.065 0 7.5 1.603 7.5 3.5s-3.435 3.5-7.5 3.5-7.5-1.603-7.5-3.5 3.435-3.5 7.5-3.5zm-7.5 5.649c1.419 1.411 4.213 2.351 7.5 2.351s6.081-.94 7.5-2.351v2.851c0 1.897-3.435 3.5-7.5 3.5s-7.5-1.603-7.5-3.5z"/></svg>