<svg id="Layer_1" viewBox="0 0 24 24" xmlns="http://www.w3.org/2000/svg" data-name="Layer 1"><path d="m24 8.879c.032-1.354-.792-2.58-2.04-3.122 1.324-1.512 2.067-3.399 2.04-5.264l-.007-.493h-3.993c-3.472 0-4.934 1.72-5.37 2.384-.844-.426-1.832-.464-2.723-.046-1.051.493-1.753 1.467-1.878 2.594-.057.411-.009.812.089 1.198-.725-.19-1.498-.153-2.21.169-.88.398-1.494 1.145-1.751 2.03-.186-.26-.42-.509-.759-.739-.761-.517-1.683-.705-2.59-.529-.359.07-.691.207-1.003.377-.181-.259-.466-.439-.805-.439-.552 0-1 .448-1 1 0 .34.181.626.44.807-.849 1.552-.407 3.524 1.088 4.53.626.421 1.709.663 2.972.663 2.435 0 3.211-.3 4.371-.842.373.284.786.581 1.23.881l-.01.012.586.484c1.477 1.466 2.323 3.5 2.323 5.581v3.991h1v-3.991c0-1.58-.442-3.131-1.244-4.493.778.402 1.618.779 2.506 1.115 1.104 1.194 1.738 2.781 1.738 4.411v2.958h1v-2.958c0-1.36-.386-2.694-1.078-3.851.919.266 1.888.468 2.892.602.758.966 1.186 2.158 1.186 3.39v2.816h1v-2.816c0-1.171-.322-2.313-.912-3.311 1.512-.091 2.931-1.499 2.91-3.013.041-1.329-.73-2.537-1.916-3.092 1.166-.528 1.925-1.718 1.918-2.996zm-4-7.879h2.986c-.108 1.579-.838 3.153-2.045 4.395-1.963-.635-3.726-1.451-5.439-2.519.357-.521 1.568-1.876 4.498-1.876zm-12.043 11.474c-.843.359-1.584.526-3.457.526-1.037 0-1.962-.188-2.413-.492-1.127-.759-1.427-2.293-.668-3.42.451-.68 1.238-1.089 2.054-1.089 2.22 0 1.912 2.438 4.484 4.476zm15.041 2.474c.012 1.22-1.289 2.195-2.476 2.04-6.315-.894-10.307-3.572-13.252-6.684-.619-1.088-.128-2.596 1.05-3.093 1.021-.508 2.088-.031 2.911.625 2.219 1.812 6.509 3.774 10.113 4.818 1.007.304 1.687 1.242 1.654 2.293zm-.959-4.197c-.633.459-1.428.581-2.181.333-2.98-.944-5.576-2.372-8.051-4.066-.595-.454-.891-1.197-.786-1.963.12-1.548 2.057-2.602 3.374-1.682 2.159 1.421 4.347 2.435 6.887 3.19 1.038.308 1.745 1.252 1.718 2.297.004.756-.347 1.447-.961 1.891zm-18.039-.751c0 .552-.448 1-1 1s-1-.448-1-1 .448-1 1-1 1 .448 1 1zm1.09 6.014c-1.846 2.242-2.4 4.495-3.033 5.964 1.339-.669 1.256-.837 3.479-1.515-.676 2.218-.845 2.142-1.512 3.479 1.459-.629 3.729-1.19 5.962-3.032 1.35-1.35 1.35-3.546 0-4.896s-3.547-1.35-4.896 0zm4.189 4.189c-.626.625-2.087 1.355-3.214 1.853.315-.748.607-1.916.736-2.857-.943.13-2.108.421-2.858.736.498-1.126 1.229-2.588 1.854-3.214.961-.96 2.521-.96 3.482 0 .959.96.959 2.522 0 3.482z"/></svg>