<svg id="Layer_1" viewBox="0 0 24 24" xmlns="http://www.w3.org/2000/svg" data-name="Layer 1"><path d="m11 5h2v2h-2zm10.5-2c-1.379 0-2.5 1.122-2.5 2.5v6.997c-.391-.294-.86-.466-1.359-.494-.661-.041-1.306.188-1.808.638l-3.833 3.526-3.838-3.531c-.497-.445-1.137-.668-1.803-.633-.5.027-.969.199-1.359.493v-6.996c0-1.378-1.121-2.5-2.5-2.5s-2.5 1.122-2.5 2.5v13.231c0 .618.229 1.214.645 1.676l3.197 3.593h1.344l-3.799-4.263c-.25-.277-.387-.635-.387-1.006v-13.231c0-.827.673-1.5 1.5-1.5s1.5.673 1.5 1.5v9h.01c.003.574.198 1.152.597 1.627l3.075 3.179.719-.695-3.052-3.152c-.476-.566-.462-1.409.032-1.96.52-.611 1.523-.658 2.107-.12l4.026 3.703c.308.284.484.687.484 1.104v5.814h1v-5.814c0-.445-.132-.874-.353-1.254l3.858-3.55c.577-.547 1.591-.495 2.112.116.484.538.515 1.381.056 1.934l-3.075 3.179.719.695 3.099-3.205c.387-.461.576-1.031.577-1.601h.007v-9c0-.827.673-1.5 1.5-1.5s1.5.673 1.5 1.5v13.231c0 .371-.137.729-.387 1.006l-3.799 4.263h1.344l3.197-3.593c.416-.462.645-1.058.645-1.676v-13.231c0-1.378-1.121-2.5-2.5-2.5zm-4.5 7h-10v-5.652c0-.62.279-1.194.768-1.575l2.999-2.348c.699-.549 1.768-.549 2.467 0l3 2.348c.487.381.767.955.767 1.575v5.652zm-1-5.652c0-.31-.14-.597-.383-.787l-3.001-2.348c-.35-.274-.883-.274-1.232 0l-3 2.348c-.244.191-.384.478-.384.788v4.652h8z"/></svg>