<svg id="Layer_1" viewBox="0 0 24 24" xmlns="http://www.w3.org/2000/svg" data-name="Layer 1"><path d="m16.885 3.793-3.996 3.996 2.282 2.281c-.465 1.082-1.235 2.221-2.064 3.04-.816.826-1.956 1.596-3.036 2.061l-2.282-2.281-3.995 3.996 1.967 1.966c.741.741 1.742 1.149 2.818 1.149 2.343 0 5.183-1.428 7.601-3.824 2.393-2.414 3.821-5.254 3.821-7.597 0-1.077-.408-2.078-1.148-2.819l-1.967-1.967zm-1.413 11.676c-2.198 2.178-4.84 3.531-6.894 3.531-.81 0-1.56-.304-2.111-.856l-1.26-1.259 2.581-2.582 2.038 2.038c1.434-.505 2.906-1.43 3.987-2.524 1.098-1.084 2.021-2.556 2.528-3.991l-2.039-2.038 2.582-2.582 1.26 1.26c.552.552.855 1.302.855 2.112 0 2.054-1.354 4.695-3.528 6.89zm6.028-15.469h-19c-1.379 0-2.5 1.122-2.5 2.5v21.5h24v-21.5c0-1.378-1.121-2.5-2.5-2.5zm1.5 23h-22v-20.5c0-.827.673-1.5 1.5-1.5h19c.827 0 1.5.673 1.5 1.5z"/></svg>