<svg id="Layer_1" viewBox="0 0 24 24" xmlns="http://www.w3.org/2000/svg" data-name="Layer 1"><path d="m2.5 13h5c1.378 0 2.5-1.121 2.5-2.5v-6.5h-2v-1c0-1.654-1.346-3-3-3s-3 1.346-3 3v1h-2v6.5c0 1.379 1.122 2.5 2.5 2.5zm.5-10c0-1.103.897-2 2-2s2 .897 2 2v1h-4zm-2 2h8v5.5c0 .827-.673 1.5-1.5 1.5h-5c-.827 0-1.5-.673-1.5-1.5zm23 7v12h-12c-4.574 0-8.817-2.662-10.809-6.782-.441-.912-.748-1.866-.944-2.845.353.206.733.367 1.138.471.177.663.403 1.313.706 1.939 1.826 3.777 5.715 6.218 9.909 6.218h11v-11.001c0-6.065-4.935-11-11-11-.801 0-1.579.091-2.332.254-.121-.322-.27-.628-.451-.915.895-.214 1.824-.339 2.783-.339 6.617 0 12 5.383 12 12zm-20-3.5c0-.552.448-1 1-1s1 .448 1 1-.448 1-1 1-1-.448-1-1z"/></svg>