<svg id="Layer_1" viewBox="0 0 24 24" xmlns="http://www.w3.org/2000/svg" data-name="Layer 1"><path d="m14.151 17.213c-3.396-1.381-5.871-3.857-7.361-7.369l3.373-3.373-5.679-5.678-2.879 2.879c-1.035 1.033-1.605 2.432-1.605 3.941 0 7.198 9.189 16.387 16.387 16.387 1.508 0 2.908-.57 3.941-1.604l2.879-2.879-5.679-5.679-3.377 3.376zm5.47 4.475c-.845.846-1.993 1.312-3.234 1.312-6.615 0-15.387-8.772-15.387-15.387 0-1.241.466-2.39 1.312-3.234l2.172-2.172 4.265 4.265-3.135 3.135c1.615 4.267 4.63 7.293 8.783 8.774l3.131-3.13 4.265 4.265zm1.879-21.688h-7c-1.379 0-2.5 1.121-2.5 2.5l.002 7.912c-.024.86.741 1.601 1.588 1.59.296 0 .591-.085.855-.255l2.702-1.747h6.853s0-7.5 0-7.5c0-1.378-1.121-2.5-2.5-2.5zm1.5 9h-6.147s-2.948 1.906-2.948 1.906c-.184.116-.407.125-.597.02-.191-.104-.306-.297-.306-.514l-.002-7.912c0-.827.673-1.5 1.5-1.5h7c.827 0 1.5.673 1.5 1.5zm-3.5-7h-3c-1.379 0-2.5 1.122-2.5 2.5v1c0 1.378 1.121 2.5 2.5 2.5h3c1.379 0 2.5-1.122 2.5-2.5v-1c0-1.378-1.121-2.5-2.5-2.5zm-3 1h3c.827 0 1.5.673 1.5 1.5h-6c0-.827.673-1.5 1.5-1.5zm3 4h-3c-.827 0-1.5-.673-1.5-1.5h1.667l1.333 1 1.333-1h1.667c0 .827-.673 1.5-1.5 1.5z"/></svg>