<svg id="Layer_1" viewBox="0 0 24 24" xmlns="http://www.w3.org/2000/svg" data-name="Layer 1"><path d="m12 9c.552 0 1 .448 1 1s-.448 1-1 1-1-.448-1-1 .448-1 1-1zm-2.262 1h-2.41l4.672-8.008 4.672 8.008h-2.41v1h4.15l-6.412-11-6.412 11h4.15zm2.762-5h-1v3h1zm7.954 8-1.33 3.5h-1.124v-3.5h-1v8h1v-3.5h1.124l1.33 3.5h1.046l-1.5-4 1.5-4zm-11.454 8h1v-8h-1zm12-11h-1v1h1c1.103 0 2 .897 2 2v10h-22v-10c0-1.103.897-2 2-2h1v-1h-1c-1.654 0-3 1.346-3 3v11h24v-11c0-1.654-1.346-3-3-3zm-7.545 11c1.462 0 2.404-.758 2.458-1.979.057-1.307-1.029-1.95-1.902-2.467-.895-.53-1.438-.899-1.438-1.555 0-.806.785-1.008 1.144-1 .629 0 1.178.404 1.45.647l.666-.746c-.381-.339-1.156-.901-2.109-.901-1.03-.004-2.15.687-2.15 2 0 1.271 1.069 1.905 1.928 2.414.895.53 1.441.89 1.412 1.564-.039.889-.93 1.021-1.458 1.021-.65 0-1.42-.257-1.752-.585l-.703.711c.608.601 1.699.874 2.455.874zm-10.455-8h2.25c1.24 0 2.25 1.01 2.25 2.25 0 .841-.47 1.567-1.155 1.953l1.155 3.797h-1.046l-1.069-3.514c-.015.018-1.322.014-1.385.014v3.5h-1zm1 3.5h1.25c.689 0 1.25-.561 1.25-1.25s-.561-1.25-1.25-1.25h-1.25z"/></svg>