<svg id="Layer_1" viewBox="0 0 24 24" xmlns="http://www.w3.org/2000/svg" data-name="Layer 1"><path d="m11 7c1.103 0 2-.897 2-2s-.897-2-2-2-2 .897-2 2 .897 2 2 2zm0-3c.551 0 1 .449 1 1s-.449 1-1 1-1-.449-1-1 .449-1 1-1zm-3 10c-1.103 0-2 .897-2 2s.897 2 2 2 2-.897 2-2-.897-2-2-2zm0 3c-.551 0-1-.449-1-1s.449-1 1-1 1 .449 1 1-.449 1-1 1zm4-17c-6.617 0-12 5.383-12 12s5.383 12 12 12 12-5.383 12-12-5.383-12-12-12zm11 12c0 2.853-1.101 5.447-2.889 7.404l-3.404-3.404h2.293v-1h-3.017l-2.829-6h4.846v-1h-7.299c-.538 0-1.063.181-1.493.502l-4.612-4.613c1.957-1.788 4.551-2.889 7.404-2.889 6.065 0 11 4.935 11 11zm-10.951-3 2.09 4.431-4.199-4.199c.232-.139.49-.232.762-.232zm-11.049 3c0-2.853 1.101-5.447 2.889-7.404l15.515 15.515c-1.957 1.788-4.551 2.889-7.404 2.889-6.065 0-11-4.935-11-11zm11 3.536v3.464h-1v-4.464zm-4.443-4.443-1.912 1.529-.624-.781 1.824-1.459.711.711z"/></svg>