<?xml version="1.0" encoding="UTF-8"?>
<svg xmlns="http://www.w3.org/2000/svg" id="Layer_1" data-name="Layer 1" viewBox="0 0 24 24">
  <path d="M20.287,2.761L12,.014,3.713,2.762c-1.024,.34-1.713,1.293-1.713,2.373v6.738c0,6.61,7.159,10.703,9.354,11.8l.628,.313,.648-.261c2.198-.884,9.37-4.353,9.37-11.852V5.134c0-1.079-.688-2.033-1.713-2.373Zm.713,9.111c0,6.873-6.692,10.099-8.743,10.924l-.232,.093-.224-.112c-2.064-1.032-8.801-4.87-8.801-10.906V5.135c0-.648,.413-1.22,1.027-1.424L12,1.067l7.973,2.643c.614,.204,1.027,.776,1.027,1.424v6.738Z"/>
  <polygon points="12.5 7 11.5 7 11.5 11 7.5 11 7.5 12 11.5 12 11.5 16 12.5 16 12.5 12 16.5 12 16.5 11 12.5 11 12.5 7"/>
</svg>
