<?xml version="1.0" encoding="UTF-8"?>
<svg xmlns="http://www.w3.org/2000/svg" id="Layer_1" data-name="Layer 1" viewBox="0 0 24 24">
  <path d="m14.755,1.485C4.462,2.051.074,11.903.032,12c.042.097,4.404,10.026,14.724,10.515.126-.174,3.245-4.538,3.245-10.515S14.881,1.659,14.755,1.485Zm-.499,19.997C5.852,20.846,1.787,13.332,1.13,12c.656-1.332,4.721-8.846,13.126-9.482.257.4.807,1.319,1.348,2.628-3.203.654-5.604,3.51-5.604,6.854s2.402,6.2,5.604,6.854c-.54,1.309-1.09,2.228-1.348,2.628Zm1.706-3.572c-2.825-.495-4.963-2.987-4.963-5.91s2.137-5.415,4.963-5.91c.304.864.579,1.85.771,2.937-1.528.137-2.733,1.41-2.733,2.973s1.205,2.836,2.733,2.973c-.191,1.087-.466,2.073-.771,2.937Zm-.963-5.91c0-1.061.833-1.924,1.878-1.988.075.637.122,1.299.122,1.988s-.046,1.351-.122,1.988c-1.045-.064-1.878-.927-1.878-1.988ZM17.567.842l-.641.697c-.246-.331,3.074,4.228,3.074,10.461s-3.165,10.556-3.194,10.595l.858.496c.248-.171,6.336-4.434,6.336-11.091S17.815,1.013,17.567.842Zm1.672,19.578c.834-1.848,1.761-4.73,1.761-8.42s-.911-6.548-1.734-8.392c1.637,1.714,3.734,4.641,3.734,8.392,0,3.771-2.12,6.71-3.761,8.42Z"/>
</svg>
