<?xml version="1.0" encoding="UTF-8"?>
<svg xmlns="http://www.w3.org/2000/svg" id="Layer_1" data-name="Layer 1" viewBox="0 0 24 24">
  <path d="M0,6.5C0,2.916,2.916,0,6.5,0h4c3.584,0,6.5,2.916,6.5,6.5,0,1.289-.382,2.488-1.032,3.5h-1.229c.787-.952,1.261-2.172,1.261-3.5,0-3.033-2.468-5.5-5.5-5.5H6.5C3.468,1,1,3.467,1,6.5s2.468,5.5,5.5,5.5h.531c.307,.36,.641,.695,1.003,1h-1.534C2.916,13,0,10.084,0,6.5ZM20.267,15.148l-.707,.707,3.144,3.145H0v1H22.704l-3.145,3.145,.707,.707,3.299-3.299c.579-.581,.579-1.524,0-2.105l-3.299-3.299ZM17.5,1c3.032,0,5.5,2.467,5.5,5.5s-2.468,5.5-5.5,5.5h-4c-3.032,0-5.5-2.467-5.5-5.5,0-1.328,.474-2.548,1.261-3.5h-1.229c-.65,1.012-1.032,2.211-1.032,3.5,0,3.584,2.916,6.5,6.5,6.5h4c3.584,0,6.5-2.916,6.5-6.5S21.084,0,17.5,0h-1.534c.362,.305,.696,.64,1.003,1h.531Z"/>
</svg>
