<?xml version="1.0" encoding="UTF-8"?>
<svg xmlns="http://www.w3.org/2000/svg" id="Layer_1" data-name="Layer 1" viewBox="0 0 24 24">
  <path d="M3.5,12c1.379,0,2.5-1.122,2.5-2.5s-1.121-2.5-2.5-2.5-2.5,1.122-2.5,2.5,1.121,2.5,2.5,2.5Zm0-4c.827,0,1.5,.673,1.5,1.5s-.673,1.5-1.5,1.5-1.5-.673-1.5-1.5,.673-1.5,1.5-1.5Zm4.5,12h8v4h-1v-3h-6v3h-1v-4Zm3-2v-1h-2.793s-3.111-3.156-3.265-3.286c-.672-.571-1.562-.816-2.442-.673-1.425,.231-2.5,1.562-2.5,3.093v7.866H6v-7.793l1.793,1.793h3.207Zm-6,5H1v-6.866c0-1.047,.714-1.952,1.66-2.106,.602-.101,1.181,.062,1.635,.448,.448,.381,.705,.937,.705,1.524v7Zm15.5-11c1.379,0,2.5-1.122,2.5-2.5s-1.121-2.5-2.5-2.5-2.5,1.122-2.5,2.5,1.121,2.5,2.5,2.5Zm0-4c.827,0,1.5,.673,1.5,1.5s-.673,1.5-1.5,1.5-1.5-.673-1.5-1.5,.673-1.5,1.5-1.5Zm1,5.041c-.881-.142-1.771,.102-2.442,.673-.154,.131-3.265,3.286-3.265,3.286h-2.793v1h3.207l1.793-1.793v7.793h6v-7.866c0-1.532-1.075-2.862-2.5-3.093Zm1.5,9.959h-4v-7c0-.588,.257-1.144,.705-1.524,.454-.385,1.031-.547,1.635-.448,.946,.154,1.66,1.059,1.66,2.106v6.866ZM12.5,2h-1V0h1V2Zm3.389,1.818l-.707-.707,1.415-1.414,.707,.707-1.415,1.414Zm-7.777,0l-1.415-1.414,.707-.707,1.415,1.414-.707,.707Zm1.468,7.354c.268,.204,.421,.498,.421,.808v2.021h4v-2.021c0-.31,.154-.606,.424-.811,1.002-.763,1.576-1.917,1.576-3.168,0-1.225-.55-2.366-1.51-3.13-.961-.765-2.209-1.042-3.432-.762-1.464,.336-2.623,1.502-2.954,2.971-.354,1.564,.212,3.133,1.475,4.092Zm1.421,1.829v-1h2v1h-2Zm-1.921-5.701c.244-1.079,1.129-1.97,2.204-2.216,.921-.21,1.863-.004,2.584,.569,.72,.573,1.133,1.429,1.133,2.348,0,.936-.431,1.801-1.182,2.373-.23,.175-.408,.391-.544,.627h-2.547c-.136-.235-.313-.451-.542-.625-.947-.72-1.371-1.898-1.105-3.077Z"/>
</svg>
