<?xml version="1.0" encoding="UTF-8"?>
<svg xmlns="http://www.w3.org/2000/svg" id="Layer_1" data-name="Layer 1" viewBox="0 0 24 24">
  <path d="M19.172,15h-4.119L11.023,6.155l3.213-1.714,3.296-3.728-.754-.657-3.094,3.546-6.503,3.468c-.674,.359-1.249,.889-1.663,1.531L.618,16.19l.84,.542,4.899-7.589c.026-.041,.065-.071,.093-.111l6.724,14.968h1.095l-3.592-8h8.075l3.813,3.889,.715-.7-4.108-4.188ZM7.206,8.269c.146-.11,2.933-1.642,2.933-1.642l3.816,8.373h-3.726l-3.022-6.731Zm-.706-3.269c1.379,0,2.5-1.122,2.5-2.5S7.879,0,6.5,0s-2.5,1.122-2.5,2.5,1.121,2.5,2.5,2.5Zm0-4c.827,0,1.5,.673,1.5,1.5s-.673,1.5-1.5,1.5-1.5-.673-1.5-1.5,.673-1.5,1.5-1.5Z"/>
</svg>
