<svg id="Layer_1" viewBox="0 0 24 24" xmlns="http://www.w3.org/2000/svg" data-name="Layer 1"><path d="m15.838 6.232c-.357-.261-.812-.306-1.186-.117-.415.209-.653.662-.653 1.242v12.643h1v-3.744c2.037-1.404 3-3.079 3-5.256 0-2.069-1.277-4.131-2.162-4.768zm-.838 8.792v-7.667c.012-.277.061-.438.253-.314.61.438 1.747 2.183 1.747 3.957 0 1.662-.607 2.905-2 4.024zm-6-9.024c-1.448 0-3 2.935-3 5 0 1.565 1.027 2.735 2.5 2.954v6.046h1v-6.046c1.473-.219 2.5-1.389 2.5-2.954 0-2.065-1.552-5-3-5zm0 7c-1.196 0-2-.804-2-2 0-1.759 1.356-4 2-4s2 2.241 2 4c0 1.196-.804 2-2 2zm14 0c0-5.897-4.667-10.711-10.5-10.975v-2.025h-1v2.025c-5.833.264-10.5 5.078-10.5 10.975 0 3.054 1.253 5.819 3.269 7.814l-2.138 2.35.739.673 2.139-2.35c1.902 1.57 4.338 2.514 6.991 2.514s5.089-.944 6.991-2.514l2.139 2.35.739-.673-2.138-2.35c2.016-1.995 3.269-4.76 3.269-7.814zm-21 0c0-5.514 4.486-10 10-10s10 4.486 10 10-4.486 10-10 10-10-4.486-10-10zm16.797-11.667.504-.863c1.646.961 3.068 2.218 4.228 3.734l-.795.607c-1.079-1.413-2.404-2.583-3.937-3.479zm-17.548 3.501-.796-.605c1.161-1.526 2.587-2.79 4.238-3.755l.505.863c-1.538.899-2.866 2.076-3.948 3.497z"/></svg>