<svg id="Layer_1" viewBox="0 0 24 24" xmlns="http://www.w3.org/2000/svg" data-name="Layer 1"><path d="m.763 17.942 11.519-11.519c2.079 2.306 3.529 5.03 3.932 7.579l1.772-.022c.1-4.1-.981-7.734-3.17-10.093l1.087-1.086-.707-.707-1.086 1.084c-2.352-2.195-5.999-3.28-10.11-3.178v1.8c2.557.405 5.294 1.857 7.575 3.915l-11.519 11.52zm13.004-13.734c2.004 2.009 3.081 4.879 3.207 8.54-.632-2.477-2.242-5.255-4.326-7.411-2.169-2.094-5.001-3.717-7.519-4.328 3.714.108 6.617 1.183 8.638 3.199zm10.233-4.208v13.707l-3 3v4.293h-4.293l-3 3h-13.707v-1h13.293l3-3h3.707v-3.707l3-3v-13.293zm-15 15.65 3.028 2.226 2.1-3.189-2.258-2.564-2.87 1.296zm1-1.586 1.608-.726 1.264 1.436-1.1 1.672-1.772-1.302zm-5 5.259 1.32-1.5 1.68.758v1.242l-1.8 1.323z"/></svg>