<svg id="Layer_1" viewBox="0 0 24 24" xmlns="http://www.w3.org/2000/svg" data-name="Layer 1"><path d="m13 6c1.379 0 2.5-1.121 2.5-2.5s-1.121-2.5-2.5-2.5-2.5 1.121-2.5 2.5 1.122 2.5 2.5 2.5zm0-4c.827 0 1.5.673 1.5 1.5s-.673 1.5-1.5 1.5-1.5-.673-1.5-1.5.673-1.5 1.5-1.5zm-8 5c0-1.103-.897-2-2-2s-2 .897-2 2 .897 2 2 2 2-.897 2-2zm-2 1c-.551 0-1-.448-1-1s.449-1 1-1 1 .448 1 1-.449 1-1 1zm15.13-7.972-.876.482 4.675 8.489h-4.336l-4.677-1.799c-.588-.227-1.227-.208-1.8.053-.573.26-1.009.729-1.225 1.317l-5.745 15.429h1.068l3.258-8.748 5.53 4.003v4.745h1v-5.255l-2.666-1.93 2.856-7.668 2.13.819 5.68.033v-1.129zm-6.637 16.178-2.661-1.926 1.996-5.359s.001-.003.001-.003c.124-.337.373-.604.7-.753.328-.149.693-.159 1.028-.03l1.7.654-2.763 7.418z"/></svg>