<svg id="Layer_1" viewBox="0 0 24 24" xmlns="http://www.w3.org/2000/svg" data-name="Layer 1"><path d="m1.423 8h1.855l-1.5 4h1.5l5.486-5.818c.287-.432.312-.984.067-1.441-.246-.457-.72-.741-1.238-.741h-1.848l1.642-4h-4.908l-2.417 6.166c-.132.436-.052.895.219 1.26s.688.575 1.143.575zm-.418-1.507 2.155-5.493h2.735l-1.641 4h3.339c.219 0 .322.149.357.213s.102.234.034.349l-4.516 4.781 1.254-3.343h-3.299c-.135 0-.259-.062-.339-.171-.081-.108-.104-.245-.079-.336zm22.995 7.007v1.5h-2.396l-.793 3.988c-.232 1.166-1.264 2.012-2.452 2.012h-2.358v3h-13.001v-4.349c0-.574-.197-1.129-.556-1.562-.317-.383-.611-.795-.871-1.224-.538-.886-.937-1.852-1.202-2.865h1.035c.24.827.579 1.617 1.022 2.345.235.388.5.76.787 1.106.506.612.786 1.393.786 2.2v3.349h10.999v-3h3.358c.713 0 1.332-.508 1.472-1.208l.953-4.792h2.217v-.395c-.354-.802-.708-1.653-1.062-2.504-.997-2.396-2.027-4.873-3.009-6.086-1.988-2.653-5.131-4.14-8.408-4.006s0 0 0 0c-.483.02-.972.085-1.458.174l.447-1.09c.323-.042.647-.069.968-.083s0 0 0 0c3.609-.153 7.064 1.487 9.24 4.391 1.061 1.312 2.072 3.743 3.143 6.317.365.878 1.139 2.782 1.139 2.782z"/></svg>