<?xml version="1.0" encoding="UTF-8"?>
<svg xmlns="http://www.w3.org/2000/svg" id="Layer_1" data-name="Layer 1" viewBox="0 0 24 24">
  <path d="M13,10c0,.552-.448,1-1,1s-1-.448-1-1,.448-1,1-1,1,.448,1,1Zm6,8.5h-1v2h1v-2Zm-12-3.5h-3v1h3v-1Zm-3,5h3v-1h-3v1Zm18-5h2v6.5c0,1.378-1.121,2.5-2.5,2.5h-6c-1.379,0-2.5-1.122-2.5-2.5v-6.5h2v-1.5c0-1.93,1.57-3.5,3.5-3.5s3.5,1.57,3.5,3.5v1.5Zm-6,0h5v-1.5c0-1.378-1.121-2.5-2.5-2.5s-2.5,1.122-2.5,2.5v1.5Zm-2,1v5.5c0,.827,.673,1.5,1.5,1.5h6c.827,0,1.5-.673,1.5-1.5v-5.5H14Zm10-7.5v4.5h-.025c-.089-.976-.443-1.87-.975-2.633v-1.867c0-.827-.673-1.5-1.5-1.5h-6.397l1.419,1.374c-.332,.129-.648,.288-.946,.476l-3.576-3.462-5.798,5.612H1v12h7.962v-5.923c0-1.302,.839-2.402,2-2.816v1.094c-.595,.347-1,.985-1,1.722v5.923h1.315c.126,.353,.28,.693,.485,1H0V8.5c0-1.378,1.121-2.5,2.5-2.5h7.43l1.07-1.035V0h1.118l5,2.5-4.394,2.197,1.346,1.303h7.43c1.379,0,2.5,1.122,2.5,2.5Zm-15.103-1.5H2.5c-.827,0-1.5,.673-1.5,1.5v1.5H5.798l3.099-3Zm3.103-3.059l2.882-1.441-2.882-1.441V3.941Z"/>
</svg>
