<?xml version="1.0" encoding="UTF-8"?>
<svg xmlns="http://www.w3.org/2000/svg" id="Layer_1" data-name="Layer 1" viewBox="0 0 24 24">
  <path d="m6.027,9h-3.527c-.827,0-1.5.673-1.5,1.5v3.5H0v-3.5c0-1.378,1.122-2.5,2.5-2.5h5c.22,0,.431.033.634.087-.782.137-1.494.457-2.106.913ZM2,3c0-1.654,1.346-3,3-3s3,1.346,3,3-1.346,3-3,3-3-1.346-3-3Zm1,0c0,1.103.897,2,2,2s2-.897,2-2-.897-2-2-2-2,.897-2,2Zm7,0c0-1.654,1.346-3,3-3s3,1.346,3,3-1.346,3-3,3-3-1.346-3-3Zm1,0c0,1.103.897,2,2,2s2-.897,2-2-.897-2-2-2-2,.897-2,2Zm13.024,18.678l-1.447,1.447c-.562.564-1.325.875-2.145.875-3.704,0-8.432-4.729-8.432-8.432,0-.82.311-1.583.875-2.146l1.447-1.447,3.19,3.189-1.577,1.577c.658,1.524,1.75,2.614,3.327,3.319l1.573-1.573,3.189,3.19Zm-1.414,0l-1.775-1.776-1.338,1.338-.306-.123c-2.088-.838-3.539-2.29-4.312-4.316l-.115-.303,1.333-1.333-1.776-1.775-.74.74c-.375.375-.582.885-.582,1.438,0,3.195,4.237,7.432,7.432,7.432.553,0,1.063-.207,1.438-.581l.741-.741Zm-5.61-11.178v1.157l1,1v-2.156c0-1.378-1.122-2.5-2.5-2.5h-5c-.22,0-.431.033-.634.087.782.137,1.494.457,2.106.913h3.527c.827,0,1.5.673,1.5,1.5Zm-10.5,7.5c-1.378,0-2.5,1.122-2.5,2.5v3.5h1v-3.5c0-.827.673-1.5,1.5-1.5h4.363c-.158-.331-.293-.665-.41-1h-3.953Zm2.5-8c-1.654,0-3,1.346-3,3s1.346,3,3,3c.359,0,.698-.074,1.017-.19-.003-.081-.017-.162-.017-.242,0-.304.035-.601.086-.893-.313.204-.685.325-1.086.325-1.103,0-2-.897-2-2s.897-2,2-2c.972,0,1.782.697,1.961,1.617.154-.212.313-.422.501-.61l.256-.256c-.476-1.03-1.512-1.75-2.719-1.75Z"/>
</svg>
