<?xml version="1.0" encoding="UTF-8"?>
<svg xmlns="http://www.w3.org/2000/svg" id="Layer_1" data-name="Layer 1" viewBox="0 0 24 24">
  <path d="M1,23V2.5c0-.827,.673-1.5,1.5-1.5H12v7h7v1.14c.34,.061,.675,.135,1,.235v-2.082L12.707,0H2.5C1.122,0,0,1.122,0,2.5V24H12.028c-.362-.305-.696-.64-1.003-1H1ZM13,1.707l5.293,5.293h-5.293V1.707Zm4.5,9.293c-3.584,0-6.5,2.916-6.5,6.5s2.916,6.5,6.5,6.5,6.5-2.916,6.5-6.5-2.916-6.5-6.5-6.5Zm0,12c-3.033,0-5.5-2.467-5.5-5.5s2.467-5.5,5.5-5.5,5.5,2.467,5.5,5.5-2.467,5.5-5.5,5.5Zm.991-8.588c-.527-.547-1.479-.547-2.003,.003l-3.075,3.584h3.587v3h1v-3h3.593l-3.102-3.588Zm-1.284,.698c.133-.143,.428-.14,.552-.017l1.648,1.907h-3.82l1.62-1.89Z"/>
</svg>
