<?xml version="1.0" encoding="UTF-8"?>
<svg xmlns="http://www.w3.org/2000/svg" id="Layer_1" data-name="Layer 1" viewBox="0 0 24 24">
  <path d="M12.5,11h6.922l4.499-4.499-4.5-4.501h-6.921V0h-1V2H2V11H11.5v2H4.579L.079,17.501l4.499,4.499h6.922v2h1v-2h9.5V13H12.5v-2ZM3,3H19.007l3.5,3.501-3.499,3.499H3V3ZM21,21H4.992l-3.499-3.499,3.5-3.501H21v7ZM14.697,4.51l-1.99,1.99,1.99,1.99-.707,.707-1.99-1.99-1.99,1.99-.707-.707,1.99-1.99-1.99-1.99,.707-.707,1.99,1.99,1.99-1.99,.707,.707Zm-4.16,15.147l-1.85-1.793,.695-.719,1.856,1.8c.099,.1,.157,.089,.24,.007l3.46-3.403,.701,.713-3.456,3.399c-.43,.449-1.216,.449-1.647-.004Z"/>
</svg>
