<svg id="Layer_1" viewBox="0 0 24 24" xmlns="http://www.w3.org/2000/svg" data-name="Layer 1"><path d="m23.994 23.287-7.717-7.717c2.266-2.115 5.167-3.539 5.198-3.553l1.43-.695-1.57-.249c-.18-.027-4.27-.628-7.406 2.148l-.574-.574-.707.707.574.574c-2.776 3.135-2.176 7.228-2.148 7.407l.249 1.57.695-1.43c.015-.031 1.439-2.933 3.554-5.198l7.717 7.717.707-.707zm-9.73-9.023c1.621-1.62 3.665-2.106 5.108-2.226-1.188.716-2.807 1.814-4.163 3.171s-2.455 2.977-3.171 4.164c.12-1.444.605-3.488 2.226-5.109zm-5.764-.264c.791 0 1.55-.056 2.271-.152.252-.39.539-.774.865-1.15-.932.19-1.984.302-3.136.302-4.486 0-7.5-1.672-7.5-3.233v-3.117c1.419 1.411 4.213 2.351 7.5 2.351s6.081-.94 7.5-2.351v3.061c.339-.122.672-.221 1-.306v-4.905c0-2.523-3.733-4.5-8.5-4.5s-8.5 1.977-8.5 4.5v15.571c0 2.203 3.733 3.929 8.5 3.929.334 0 .662-.01.985-.027-.051-.216-.139-.765-.174-.991-.265.012-.535.018-.811.018-4.42 0-7.5-1.544-7.5-2.929v-3.283c1.419 1.327 4.213 2.211 7.5 2.211.186 0 .365-.011.547-.018.028-.316.07-.648.13-.997-.223.009-.447.016-.677.016-4.486 0-7.5-1.672-7.5-3.233v-2.978c1.419 1.327 4.213 2.211 7.5 2.211zm0-13c4.065 0 7.5 1.603 7.5 3.5s-3.435 3.5-7.5 3.5-7.5-1.603-7.5-3.5 3.435-3.5 7.5-3.5z"/></svg>