<svg id="Layer_1" viewBox="0 0 24 24" xmlns="http://www.w3.org/2000/svg" data-name="Layer 1"><path d="m22 15v-1.5c0-1.93-1.57-3.5-3.5-3.5s-3.5 1.57-3.5 3.5v1.5h-2v6.5c0 1.379 1.122 2.5 2.5 2.5h6c1.378 0 2.5-1.121 2.5-2.5v-6.5zm-6-1.5c0-1.378 1.122-2.5 2.5-2.5s2.5 1.122 2.5 2.5v1.5h-5zm7 8c0 .827-.673 1.5-1.5 1.5h-6c-.827 0-1.5-.673-1.5-1.5v-5.5h9zm-4-1h-1v-2h1zm-4.394-14.216c-1.077-1.568-1.766-3.38-2.005-5.264-.199-.012-.399-.02-.601-.02-5.5 0-11 4.935-11 11 0 4.578 2.883 8.725 7.174 10.316.994.368 2.032.581 3.092.651.125.361.28.719.489 1.032-1.349-.027-2.67-.279-3.928-.746-4.682-1.736-7.827-6.259-7.827-11.253 0-6.617 5.5-12 12-12 .503 0 1.017.046 1.514.093l.038.415c.169 1.864.819 3.666 1.879 5.209.622.905 1.372 1.688 2.206 2.357-.407.064-.799.171-1.172.319-.69-.624-1.319-1.325-1.858-2.11zm-4.606 3.716c0 .552-.448 1-1 1s-1-.448-1-1 .448-1 1-1 1 .448 1 1zm7-9c0-.552.448-1 1-1s1 .448 1 1-.448 1-1 1-1-.448-1-1zm3 5c0-.552.448-1 1-1s1 .448 1 1-.448 1-1 1-1-.448-1-1zm-10 8c0 .552-.448 1-1 1s-1-.448-1-1 .448-1 1-1 1 .448 1 1z"/></svg>