<?xml version="1.0" encoding="UTF-8"?>
<svg xmlns="http://www.w3.org/2000/svg" id="Layer_1" data-name="Layer 1" viewBox="0 0 24 24">
  <path d="M17.134,5.634l.957,.95c.469,.488,1.332,.36,1.637-.262l1.836-3.849L19.093,.002l-.986,2.02-.731-.731c-.536-.573-1.581-.257-1.71,.517l-.696,4.778,.823,.854,1.341-1.805Zm-.486-3.641l1.743,1.726,.986-2.02,.979,.979-1.559,3.197-1.777-1.766-.845,1.138,.474-3.255ZM5.035,6.873c.324,.049,.643-.058,.872-.288l.959-.951,1.341,1.805,.823-.854-.691-4.752c-.11-.789-1.169-1.125-1.715-.543l-.731,.731L4.907,.002,2.435,2.474l1.847,3.869c.154,.289,.429,.482,.753,.53Zm-.412-5.174l.986,2.02,1.743-1.722s0,0,0,0l.473,3.25-.845-1.138-1.806,1.782-1.532-3.212,.981-.981Zm12.377,13.801v1c-1.93,0-3.5-1.57-3.5-3.5h1c0,1.379,1.122,2.5,2.5,2.5Zm2.18-3.892c-.659-.98-1.654-1.682-2.785-1.964-.867-1.614-2.565-2.645-4.395-2.645-1.59,0-3.073,.759-4.014,2.043-2.632,.244-4.699,2.311-4.943,4.942-1.284,.941-2.042,2.424-2.042,4.015,0,2.757,2.243,5,5,5,1.113-.006,2.132-.354,3-1.023v2.023h1v-3h1v3h1v-3h6.25c2.619,0,4.75-2.131,4.75-4.75,0-2.285-1.593-4.202-3.82-4.642Zm-.93,8.392h-7.674c.142-.327,.257-.667,.328-1.024,.261-1.31-.004-2.643-.747-3.753l-.831,.555c1.81,2.513-.249,6.3-3.326,6.223-2.206,0-4-1.794-4-4-.007-1.427,.779-2.734,2.012-3.464-.012-2.503,2.021-4.538,4.525-4.524,.73-1.232,2.036-2.019,3.463-2.012,1.642-.009,3.082,1.002,3.712,2.524,1.208,.164,2.274,.91,2.858,1.999,1.942,.184,3.438,1.775,3.429,3.727,0,2.067-1.682,3.75-3.75,3.75Z"/>
</svg>
