<svg id="Layer_1" viewBox="0 0 24 24" xmlns="http://www.w3.org/2000/svg" data-name="Layer 1"><path d="m18.979 3.515c-.396-.92-1.297-1.515-2.298-1.515h-5.682v-2h-3v2h-.682c-1.001 0-1.902.595-2.298 1.515l-1.021 2.383v2.636s1.032 15.467 1.032 15.467h13.936l1.032-15.5v-2.5l-1.021-2.485zm.021 3.485v1s-14 0-14 0v-1zm-10-6h1v1h-1zm-3.06 2.909c.236-.553.777-.909 1.378-.909h9.363c.601 0 1.142.356 1.378.909l.896 2.091h-13.911zm.027 19.091-.2-3h3.232v-1h-3.299l-.2-3h3.499v-1h-3.566l-.2-3h3.766v-1h-3.833l-.133-2h13.932l-.933 14h-12.064z"/></svg>