<?xml version="1.0" encoding="UTF-8"?>
<svg xmlns="http://www.w3.org/2000/svg" id="Layer_1" data-name="Layer 1" viewBox="0 0 24 24">
  <path d="M19.465,23l.959,.959c-.141,.015-.28,.041-.424,.041H2.056L.052,6.991c-.21-.876,.175-1.917,.931-2.473l.721,.721c-.536,.316-.808,.981-.668,1.585l.137,1.164,3.282,.003,1.001,1.001-4.164-.003,1.653,14.012h7.438c-.84-.734-1.382-1.8-1.382-3v-3c0-1.221,.562-2.303,1.427-3.037l.707,.707c-.686,.55-1.134,1.385-1.134,2.33v1h4.465l1,1h-5.465v1c0,1.654,1.346,3,3,3h6.465Zm4.539,.296l-.707,.707L-.004,.704,.703-.003,4.709,4.003l4.848,.005,.501-4.008h6.941V1h-6.059l-.376,3.009,3.435,.004c1.552-.04,2.818,1.539,2.439,3.045l-.576,5.942h4.136c2.206,0,4,1.794,4,4v3c0,.9-.309,1.743-.852,2.44l.856,.856Zm-1.004-3.296v-1h-3.293l2.734,2.734c.359-.504,.558-1.102,.558-1.734Zm-3-6h-5.293l4,4h4.293v-1c0-1.654-1.346-3-3-3Zm-5.142-1l.39-4.001-5.547-.005,4.005,4.005h1.151Zm-4.418-7.991l-.373,2.986,5.279,.004,.107-1.099c.24-.97-.488-1.895-1.454-1.888l-3.559-.004Zm-4.73-.005l2.99,2.99h.359s.373-2.986,.373-2.986l-3.722-.004Z"/>
</svg>
