<svg id="Layer_1" viewBox="0 0 24 24" xmlns="http://www.w3.org/2000/svg" data-name="Layer 1"><path d="m20 0c-2.206 0-4 1.794-4 4s1.794 4 4 4 4-1.794 4-4-1.794-4-4-4zm0 7c-1.654 0-3-1.346-3-3s1.346-3 3-3 3 1.346 3 3-1.346 3-3 3zm-13 3v6h10v-6c0-1.103-.897-2-2-2h-6c-1.103 0-2 .897-2 2zm9 5h-8v-5c0-.03.014-.055.017-.084l2.569 2.569c.39.39.902.584 1.414.584s1.024-.195 1.414-.584l2.569-2.569c.003.029.017.054.017.084zm-.6-5.914-2.693 2.693c-.391.39-1.023.39-1.414 0l-2.693-2.693c.123-.054.257-.086.4-.086h6c.143 0 .277.032.4.086zm3.6.824c.326.055.659.09 1 .09v8.5c0 1.207-.86 2.217-2 2.449v3.051h-1v-3h-10v3h-1v-3.051c-1.14-.232-2-1.242-2-2.449v-13c0-1.207.86-2.217 2-2.449v-3.051h1v3h7.09c-.055.326-.09.659-.09 1h-7.5c-.827 0-1.5.673-1.5 1.5v13c0 .827.673 1.5 1.5 1.5h11c.827 0 1.5-.673 1.5-1.5z"/></svg>