<?xml version="1.0" encoding="UTF-8"?>
<svg xmlns="http://www.w3.org/2000/svg" id="Layer_1" data-name="Layer 1" viewBox="0 0 24 24">
  <path d="M13.5,7c-1.379,0-2.5,1.121-2.5,2.5s1.121,2.5,2.5,2.5,2.5-1.121,2.5-2.5-1.121-2.5-2.5-2.5Zm0,4c-.827,0-1.5-.673-1.5-1.5s.673-1.5,1.5-1.5,1.5,.673,1.5,1.5-.673,1.5-1.5,1.5Zm7-1c1.379,0,2.5-1.121,2.5-2.5s-1.121-2.5-2.5-2.5-2.5,1.121-2.5,2.5,1.121,2.5,2.5,2.5Zm0-4c.827,0,1.5,.673,1.5,1.5s-.673,1.5-1.5,1.5-1.5-.673-1.5-1.5,.673-1.5,1.5-1.5Zm3.5,7c0-1.103-.897-2-2-2h-3c-1.103,0-2,.897-2,2v6h1.5v5h1v-5h2v5h1v-5h1.5v-6Zm-1,5h-5v-5c0-.552,.448-1,1-1h3c.552,0,1,.448,1,1v5ZM6.5,9c-1.379,0-2.5,1.121-2.5,2.5s1.121,2.5,2.5,2.5,2.5-1.121,2.5-2.5-1.121-2.5-2.5-2.5Zm0,4c-.827,0-1.5-.673-1.5-1.5s.673-1.5,1.5-1.5,1.5,.673,1.5,1.5-.673,1.5-1.5,1.5ZM16,1V5h-1V1.694l-6.026,5.796-2.377-2.378L.854,10.854l-.707-.707L6.597,3.697l2.391,2.392L14.279,1h-3.279V0h4c.552,0,1,.448,1,1ZM4,20h4.5v4h-1v-3h-2v3h-1v-3h-1.5v-4c0-1.103,.897-2,2-2h3v1h-3c-.552,0-1,.448-1,1v3Zm7-1h4.5v5h-1v-4h-2v4h-1v-4h-1.5v-5c0-1.103,.897-2,2-2h3v1h-3c-.552,0-1,.448-1,1v4Z"/>
</svg>
