<svg id="Layer_1" viewBox="0 0 24 24" xmlns="http://www.w3.org/2000/svg" data-name="Layer 1"><path d="m21.806 11.185c-.615-1.227-4.294-6.185-9.806-6.185s-9.19 4.958-9.805 6.184c-.129.257-.188.536-.189.816h-2.006v1h24v-1h-2c0-.278-.065-.556-.195-.815zm-11.806.815c0-1.103.897-2 2-2s2 .897 2 2zm2-3c-1.654 0-3 1.346-3 3h-5.994c0-.125.024-.25.083-.367.561-1.118 3.907-5.633 8.911-5.633s8.351 4.515 8.911 5.633c.059.117.088.242.088.367h-5.999c0-1.654-1.346-3-3-3zm-11-2h-1v-4.5c0-1.378 1.121-2.5 2.5-2.5h4.5v1h-4.5c-.827 0-1.5.673-1.5 1.5zm1.5 16h4.5v1h-4.5c-1.379 0-2.5-1.122-2.5-2.5v-4.5h1v4.5c0 .827.673 1.5 1.5 1.5zm20.5-6h1v4.5c0 1.378-1.121 2.5-2.5 2.5h-4.5v-1h4.5c.827 0 1.5-.673 1.5-1.5zm1-14.5v4.5h-1v-4.5c0-.827-.673-1.5-1.5-1.5h-4.5v-1h4.5c1.379 0 2.5 1.122 2.5 2.5zm-12 16.5c-3.651 0-6.491-2.175-8.176-4h1.381c1.568 1.49 3.903 3 6.795 3s5.229-1.51 6.796-3h1.381c-1.685 1.826-4.524 4-8.176 4z"/></svg>