<svg id="Layer_1" viewBox="0 0 24 24" xmlns="http://www.w3.org/2000/svg" data-name="Layer 1"><path d="m22 4v-1c0-1.654-1.346-3-3-3s-3 1.346-3 3v1h-2v6.5c0 1.379 1.122 2.5 2.5 2.5h5c1.378 0 2.5-1.121 2.5-2.5v-6.5zm-5-1c0-1.103.897-2 2-2s2 .897 2 2v1h-4zm6 7.5c0 .827-.673 1.5-1.5 1.5h-5c-.827 0-1.5-.673-1.5-1.5v-5.5h8zm-4.5-3h1v2h-1zm-9.5 2.5c0 1.654 1.346 3 3 3 .246 0 .482-.038.711-.094.194.304.419.583.678.831-.434.162-.898.263-1.388.263-2.206 0-4-1.794-4-4s1.794-4 4-4v1c-1.654 0-3 1.346-3 3zm9 11.209v-2.709c0-1.379-1.122-2.5-2.5-2.5h-7c-1.378 0-2.5 1.121-2.5 2.5v2.708c-3.006-1.966-5-5.356-5-9.208 0-6.065 4.935-11 11-11 .801 0 1.579.091 2.332.254.121-.322.27-.628.451-.915-.895-.214-1.824-.339-2.783-.339-6.617 0-12 5.383-12 12s5.383 12 12 12c5.806 0 10.661-4.146 11.763-9.633-.356.209-.74.371-1.149.477-.71 2.646-2.381 4.901-4.614 6.366zm-11 .577v-3.286c0-.827.673-1.5 1.5-1.5h7c.827 0 1.5.673 1.5 1.5v3.284c-1.501.772-3.198 1.216-5 1.216s-3.498-.444-5-1.214z"/></svg>