<svg id="Layer_1" viewBox="0 0 24 24" xmlns="http://www.w3.org/2000/svg" data-name="Layer 1"><path d="m1.5 18c-.508 0-1.003-.094-1.471-.279l.368-.93c.351.139.722.209 1.103.209 1.654 0 3-1.346 3-3h1c0 1.654 1.346 3 3 3s3-1.346 3-3h1c0 1.654 1.346 3 3 3s3-1.346 3-3h1c0 1.654 1.346 3 3 3 .383 0 .757-.071 1.11-.212l.37.929c-.472.188-.97.283-1.48.283-1.504 0-2.817-.834-3.5-2.065-.683 1.23-1.996 2.065-3.5 2.065s-2.817-.834-3.5-2.065c-.683 1.23-1.996 2.065-3.5 2.065s-2.817-.834-3.5-2.065c-.683 1.23-1.996 2.065-3.5 2.065zm21 5c-1.654 0-3-1.346-3-3h-1c0 1.654-1.346 3-3 3s-3-1.346-3-3h-1c0 1.654-1.346 3-3 3s-3-1.346-3-3h-1c0 1.654-1.346 3-3 3-.382 0-.755-.071-1.107-.211l-.369.93c.471.187.967.281 1.477.281 1.504 0 2.817-.834 3.5-2.065.683 1.23 1.996 2.065 3.5 2.065s2.817-.834 3.5-2.065c.683 1.23 1.996 2.065 3.5 2.065s2.817-.834 3.5-2.065c.683 1.23 1.996 2.065 3.5 2.065.509 0 1.006-.095 1.477-.281l-.369-.93c-.353.14-.725.211-1.107.211zm-20.298-11c-.132-.646-.202-1.315-.202-2 0-5.514 4.486-10 10-10s10 4.486 10 10c0 .685-.07 1.354-.202 2h-1.046c.07-.3.125-.606.167-.915-1.288.633-2.603.949-4.105.949-1.792.091-3.544-.704-4.805-1.458-.713.378-1.366.859-1.941 1.424h-1.39c.778-.926 1.732-1.712 2.822-2.293.054-1.495-.257-2.96-.896-4.271-2.849 1.668-4.934 3.873-6.234 6.564h-1.122c1.369-3.077 3.674-5.57 6.861-7.433-.611-.966-1.407-1.815-2.359-2.498-2.826 1.52-4.752 4.504-4.752 7.931 0 .688.086 1.356.234 2h-1.032zm12.988-10.405c1.967 2.849 2.939 6.116 2.783 9.366 1.068-.135 2.037-.471 3.023-1.035-.031-3.806-2.438-7.048-5.806-8.331zm-3.19-.595c-1.134 0-2.216.22-3.217.605 2.427 1.963 3.816 4.964 3.715 8.099 1.261.756 2.837 1.445 4.475 1.325.197-3.459-.999-6.951-3.372-9.878-.521-.094-1.054-.151-1.601-.151z"/></svg>