<svg id="Layer_1" viewBox="0 0 24 24" xmlns="http://www.w3.org/2000/svg" data-name="Layer 1"><path d="m22 19v-13h-5.911c-.497-.662-1.153-1.211-1.944-1.565-.951-.426-1.542-1.278-1.542-2.225v-2.21h-1v2.209c0 1.346.817 2.549 2.133 3.138.374.168.711.391 1.007.652h-6.64v-.5l-1-1v1.5h-5.103v13h-2v2.5c0 1.378 1.122 2.5 2.5 2.5h19c1.378 0 2.5-1.122 2.5-2.5v-2.5h-2zm-19-12h12.564c.408.707.601 1.539.52 2.395-.193 2.021-2.027 3.605-4.175 3.605h-.307c-.276 0-.5.224-.5.5s.224.5.5.5h.307c2.658 0 4.929-1.981 5.17-4.511.083-.874-.073-1.724-.408-2.489h4.329v12h-5.707l-1 1h-4.586l-1-1h-5.707zm20 14.5c0 .827-.673 1.5-1.5 1.5h-19c-.827 0-1.5-.673-1.5-1.5v-1.5h7.293l1 1h5.414l1-1h7.293z"/></svg>