<?xml version="1.0" encoding="UTF-8"?>
<svg xmlns="http://www.w3.org/2000/svg" id="Layer_1" data-name="Layer 1" viewBox="0 0 24 24">
  <path d="m14.15,17.214c-3.396-1.381-5.869-3.857-7.359-7.369l3.372-3.373L4.483.793,1.604,3.672c-1.034,1.033-1.604,2.433-1.604,3.941,0,7.198,9.188,16.386,16.387,16.386,1.509,0,2.908-.57,3.94-1.604l2.88-2.879-5.68-5.679-3.377,3.376Zm5.47,4.475c-.845.845-1.992,1.311-3.233,1.311C9.771,23,1,14.229,1,7.614c0-1.241.466-2.39,1.312-3.234l2.172-2.172,4.266,4.265-3.135,3.135.123.307c1.625,4.046,4.437,6.856,8.356,8.353l.303.115,3.131-3.13,4.266,4.265-2.173,2.173Zm-1.12-10.689c3.032,0,5.5-2.467,5.5-5.5S21.532,0,18.5,0s-5.5,2.467-5.5,5.5,2.468,5.5,5.5,5.5Zm0-10c2.481,0,4.5,2.019,4.5,4.5s-2.019,4.5-4.5,4.5-4.5-2.019-4.5-4.5,2.019-4.5,4.5-4.5Zm1.301,6.507l-1.801-1.8v-2.707h1v2.293l1.508,1.507-.707.707Z"/>
</svg>
