<?xml version="1.0" encoding="UTF-8"?>
<svg xmlns="http://www.w3.org/2000/svg" id="Layer_1" data-name="Layer 1" viewBox="0 0 24 24">
  <path d="M7.499,19c1.378,0,2.5-1.122,2.5-2.5s-1.122-2.5-2.5-2.5-2.5,1.122-2.5,2.5,1.122,2.5,2.5,2.5Zm0-4c.827,0,1.5,.673,1.5,1.5s-.673,1.5-1.5,1.5-1.5-.673-1.5-1.5,.673-1.5,1.5-1.5Zm16.5-7h-1c0-3.86-3.14-7-7-7V0c4.411,0,8,3.589,8,8ZM15.999,4v-1c2.757,0,5,2.243,5,5h-1c0-2.206-1.794-4-4-4Zm-4.5,5c0-.552,.448-1,1-1s1,.448,1,1-.448,1-1,1-1-.448-1-1Zm2.5,2.5c0-.552,.448-1,1-1s1,.448,1,1-.448,1-1,1-1-.448-1-1Zm-5,0c0-.552,.448-1,1-1s1,.448,1,1-.448,1-1,1-1-.448-1-1Zm2.5,2.5c0-.552,.448-1,1-1s1,.448,1,1-.448,1-1,1-1-.448-1-1Zm-10.623-.054c-1.17,1.17-1.169,3.074,.002,4.245l4.969,4.954c1.076,1.128,3.168,1.13,4.244,0l11.012-11.043L11.887,2.904,.877,13.946Zm18.812-1.842l-10.306,10.335c-.704,.742-2.124,.739-2.829-.002L1.585,17.483c-.775-.743-.776-2.087,0-2.831L11.889,4.318l7.8,7.786Z"/>
</svg>
