<svg id="Layer_1" viewBox="0 0 24 24" xmlns="http://www.w3.org/2000/svg" data-name="Layer 1"><path d="m12.5 8h-1v-3h1zm-.5 3c.552 0 1-.448 1-1s-.448-1-1-1-1 .448-1 1 .448 1 1 1zm11.268.268-3.488 3.489c.543.062 1.068.282 1.467.681.975.975.975 2.561 0 3.535l-2.892 2.847 2.181 2.181h-1.414l-15.561-15.562c-.566-.566-1.555-.566-2.121 0-.585.585-.585 1.536 0 2.121l7.128 7.128-.707.707-2.278-2.251c-.585-.584-1.537-.584-2.122 0-.584.585-.584 1.536 0 2.121l3.787 3.729c.659.648 1.531 1.006 2.456 1.006h3.297v1h-3.297c-1.188 0-2.31-.459-3.157-1.293l-3.79-3.731c-.977-.978-.977-2.563-.003-3.538.406-.405.918-.632 1.448-.7l-3.47-3.47c-.975-.975-.975-2.561 0-3.535.943-.945 2.592-.945 3.535 0l2.045 2.045 5.688-9.751 5.687 9.75 2.045-2.045c.976-.977 2.562-.975 3.535 0 .975.975.975 2.561 0 3.535zm-11.268-9.256-4.66 7.988h2.16v1h-1.965l4.465 4.465 4.465-4.465h-1.965v-1h2.16zm10.561 6.428c-.584-.584-1.537-.584-2.121 0l-7.733 7.732 4.941 4.941 2.895-2.849c.582-.582.582-1.533-.003-2.118-.566-.567-1.555-.565-2.121 0l-2.201 2.175-.707-.707 7.051-7.052c.585-.585.585-1.536 0-2.121z"/></svg>