<svg id="Layer_1" viewBox="0 0 24 24" xmlns="http://www.w3.org/2000/svg" data-name="Layer 1"><path d="m23.956 23.249-.707.707-12.603-12.602c-2.424-2.376-1.484-5.338-1.177-6.112-.864-2.775-2.752-4.241-5.469-4.241-1.654 0-3 1.346-3 3 0 1.103.897 2 2 2 .551 0 1-.448 1-1v-.5c0-.276.224-.5.5-.5s.5.224.5.5c-.003.228.008.472-.008.579-.042 1.065-.916 1.921-1.992 1.921-1.654 0-3-1.346-3-3 0-2.207 1.794-4.001 4-4.001 3.278-.018 5.631 1.948 6.534 5.314-.133.321-1.518 2.927.816 5.328l12.606 12.606zm-7.761-17.462-2.601-1.301 2.601-1.3 1.3-2.601 1.3 2.601 2.601 1.3-2.601 1.301-1.3 2.6zm-.364-1.301 1.109.555.555 1.109.555-1.109 1.109-.555-1.109-.554-.555-1.11-.555 1.11zm-10.69 8.346 2.246 1.123-2.246 1.123-1.123 2.245-1.123-2.245-2.246-1.123 2.246-1.123 1.123-2.245zm.009 1.123-.754-.377-.377-.755-.377.755-.754.377.754.377.377.755.377-.755z"/></svg>