<?xml version="1.0" encoding="UTF-8"?>
<svg xmlns="http://www.w3.org/2000/svg" id="Layer_1" data-name="Layer 1" viewBox="0 0 24 24">
  <path d="M16.977,11.391l-.782-.782c1.309-.46,2.462-.96,2.913-1.411,1.187-1.188,1.187-3.119,0-4.307-1.188-1.188-3.12-1.187-4.308,0-.45,.45-.951,1.603-1.411,2.912l-.782-.782c.459-1.229,.973-2.325,1.485-2.837,1.579-1.579,4.145-1.577,5.722,0,1.577,1.577,1.577,4.144,0,5.721-.512,.512-1.608,1.026-2.838,1.486Zm-12.792,2.702c-1.579,1.579-1.577,4.145,0,5.722,1.577,1.577,4.144,1.577,5.721,0,.512-.512,1.026-1.608,1.486-2.838l-.782-.782c-.46,1.309-.961,2.462-1.411,2.913-1.188,1.187-3.119,1.187-4.307,0-1.188-1.188-1.187-3.12,0-4.308,.45-.45,1.603-.951,2.912-1.411l-.782-.782c-1.229,.459-2.326,.973-2.837,1.485Zm7.058,7.148c-2.233,2.328-6.252,2.328-8.485,0C.43,19.01,.43,14.99,2.757,12.758c.535-.535,1.552-1.089,2.785-1.63l-.749-.749c-1.194,.548-2.186,1.113-2.743,1.671-2.716,2.606-2.716,7.292,0,9.898,2.606,2.716,7.294,2.716,9.899,0,.558-.558,1.123-1.549,1.671-2.743l-.749-.749c-.541,1.233-1.094,2.25-1.629,2.784ZM21.949,2.05c-2.606-2.716-7.292-2.716-9.898,0-.558,.558-1.123,1.549-1.671,2.743l.749,.749c.541-1.233,1.095-2.25,1.63-2.785,2.233-2.328,6.252-2.328,8.484,0,2.328,2.233,2.328,6.252,0,8.485-.534,.535-1.551,1.089-2.784,1.629l.749,.749c1.194-.548,2.185-1.113,2.743-1.671,2.716-2.606,2.716-7.294,0-9.899ZM6.313,9.071l8.628,8.628,.707-.707L7.021,8.364l-.707,.707Zm2.051-2.051l8.628,8.628,.707-.707L9.071,6.313l-.707,.707Zm9.298-.68c-.437-.438-1.199-.436-1.633,0-.5,.605-.683,1.779-.875,2.508,.727-.192,1.904-.375,2.508-.875,.45-.45,.45-1.183,0-1.632ZM6.328,17.662c.45,.45,1.182,.45,1.632,0,.5-.605,.683-1.78,.875-2.508-.727,.192-1.904,.376-2.508,.875-.435,.434-.437,1.196,0,1.633Z"/>
</svg>
