<?xml version="1.0" encoding="UTF-8"?>
<svg xmlns="http://www.w3.org/2000/svg" id="Layer_1" data-name="Layer 1" viewBox="0 0 24 24">
  <path d="M21.5,2H2.5C1.121,2,0,3.121,0,4.5V22H24V4.5c0-1.379-1.121-2.5-2.5-2.5ZM1,8H5.1L1,11.354v-3.354ZM7,3h4.211l-4.211,3.445V3Zm-1,0v3.445L1.929,3.114c.176-.073,.369-.114,.571-.114h3.5ZM1.184,3.796l3.916,3.204H1v-2.5c0-.256,.07-.493,.184-.704ZM23,21H1V12h.789l4.211-3.445v3.445h1v-3.445l4.211,3.445h.789v-.646l-4.1-3.354h4.1v-1H7.9l4.1-3.354v-.646h9.5c.827,0,1.5,.673,1.5,1.5V21ZM15,11c-.552,0-1-.448-1-1s.448-1,1-1,1,.448,1,1-.448,1-1,1Zm3.5,2c0,.552-.448,1-1,1s-1-.448-1-1,.448-1,1-1,1,.448,1,1Zm-10.5,5c0,.552-.448,1-1,1s-1-.448-1-1,.448-1,1-1,1,.448,1,1Zm8.5-1c0,.552-.448,1-1,1s-1-.448-1-1,.448-1,1-1,1,.448,1,1Zm4.5-7c0,.552-.448,1-1,1s-1-.448-1-1,.448-1,1-1,1,.448,1,1Zm-2.5-3c0,.552-.448,1-1,1s-1-.448-1-1,.448-1,1-1,1,.448,1,1Z"/>
</svg>
