<svg id="Layer_1" viewBox="0 0 24 24" xmlns="http://www.w3.org/2000/svg" data-name="Layer 1"><path d="m19 10c0-1.103-.897-2-2-2s-2 .897-2 2 .897 2 2 2 2-.897 2-2zm-3 0c0-.551.448-1 1-1s1 .449 1 1-.448 1-1 1-1-.449-1-1zm-8 7c0 .552-.448 1-1 1s-1-.448-1-1 .448-1 1-1 1 .448 1 1zm2.82-5.828c-2.704 1.226-4.834 2.48-6.503 3.831-1.682.056-3.303.966-4.317 2.407v1.589h2.707l.793.793-1.354 1.354.707.707 1.354-1.354.793.793v2.707h1.59c1.44-1.016 2.351-2.637 2.407-4.319 1.372-1.714 2.626-3.844 3.829-6.502.264-.579.142-1.245-.309-1.696-.451-.452-1.118-.571-1.697-.311zm1.096 1.593c-1.24 2.731-2.478 4.812-3.916 6.557.048 1.414-.582 2.754-1.746 3.678h-.254v-2.121l-2.879-2.879h-2.121v-.254c.923-1.165 2.265-1.794 3.68-1.746 1.7-1.42 3.77-2.651 6.553-3.917.304-.138.519.046.578.106s.241.276.105.576zm4.084-12.765c-4.411 0-8 3.589-8 8 0 .75.111 1.472.305 2.161.298-.15.603-.299.916-.448-.139-.549-.221-1.121-.221-1.713 0-3.253 2.233-5.986 5.245-6.768-.156.4-.245.826-.245 1.268 0 1.93 1.57 3.5 3.5 3.5 1.741 0 3.178-1.282 3.444-2.95 1.269 1.268 2.056 3.019 2.056 4.95 0 3.86-3.141 7-7 7-.596 0-1.172-.083-1.725-.224-.147.31-.294.621-.443.917.69.195 1.416.307 2.168.307 4.411 0 8-3.589 8-8s-3.589-8-8-8zm4 2.5c0 1.378-1.121 2.5-2.5 2.5s-2.5-1.122-2.5-2.5c0-.538.171-1.044.488-1.474.17-.012.339-.026.512-.026 1.478 0 2.848.463 3.979 1.248.009.083.021.166.021.252z"/></svg>