<svg id="Layer_1" viewBox="0 0 24 24" xmlns="http://www.w3.org/2000/svg" data-name="Layer 1"><path d="m22 19h-4.5c-.364 0-.706.098-1 .269v-1.269c0-1.103-.897-2-2-2h-5c-1.103 0-2 .897-2 2v.269c-.294-.171-.636-.269-1-.269h-4.5c-1.103 0-2 .897-2 2v4h24v-3c0-1.103-.897-2-2-2zm-14.5 4h-6.5v-3c0-.551.448-1 1-1h4.5c.552 0 1 .449 1 1zm8 0h-7v-5c0-.551.448-1 1-1h5c.552 0 1 .449 1 1zm7.5 0h-6.5v-2c0-.551.448-1 1-1h4.5c.552 0 1 .449 1 1zm-18.498-20.458c.005.062.586 6.064 5.998 6.424v2.534c0 .827-.673 1.5-1.5 1.5h-.5v1h7v-1h-.5c-.827 0-1.5-.673-1.5-1.5v-2.534c5.784-.634 5.937-6.367 6.043-6.966h-2.089c.12-.517-.001-1.079-.331-1.476-.275-.333-.67-.524-1.083-.524h-8.08c-.413 0-.808.191-1.083.524-.33.397-.451.958-.331 1.476h-2.089zm12.75.458h1.171c-.23 1.223-1.078 4.118-4.005 4.836 1.857-1.745 2.569-3.873 2.835-4.836zm-9.605-1.838c.062-.074.165-.162.312-.162h8.08c.369.033.5.41.446.735-.118.619-.202 1.046-.234 1.154-.206.838-1.423 3.949-3.752 5.091v3.521c0 .562.187 1.082.501 1.5h-2.002c.314-.418.501-.938.501-1.5v-3.521c-2.33-1.143-3.545-4.251-3.752-5.091-.032-.108-.116-.535-.234-1.154-.04-.208.01-.423.134-.573zm-.899 1.838c.265.961.978 3.093 2.835 4.836-2.927-.718-3.775-3.612-4.005-4.836h1.171z"/></svg>