<?xml version="1.0" encoding="UTF-8"?>
<svg xmlns="http://www.w3.org/2000/svg" id="Layer_1" data-name="Layer 1" viewBox="0 0 24 24">
  <path d="M17,4c0,1.654,1.346,3,3,3,.568,0,1.094-.168,1.547-.443,.709,1.241,1.174,2.584,1.36,4.007l.992-.129c-.212-1.622-.748-3.151-1.583-4.553,.421-.516,.683-1.166,.683-1.883,0-1.654-1.346-3-3-3-.721,0-1.375,.266-1.893,.692-1.393-.824-2.942-1.382-4.542-1.591l-.129,.991c1.406,.183,2.769,.66,4.005,1.364-.274,.452-.441,.977-.441,1.543Zm5,0c0,1.103-.897,2-2,2s-2-.897-2-2,.897-2,2-2,2,.897,2,2ZM7,20c0-1.654-1.346-3-3-3-.568,0-1.094,.168-1.547,.443-.71-1.242-1.175-2.585-1.36-4.007l-.991,.129c.211,1.62,.747,3.149,1.582,4.553-.42,.516-.683,1.166-.683,1.882,0,1.654,1.346,3,3,3,.716,0,1.366-.263,1.882-.683,1.404,.834,2.933,1.371,4.553,1.582l.129-.991c-1.422-.185-2.765-.65-4.007-1.36,.275-.453,.443-.979,.443-1.547Zm-3,2c-1.103,0-2-.897-2-2s.897-2,2-2,2,.897,2,2-.897,2-2,2ZM1.093,10.564c.185-1.422,.65-2.765,1.36-4.007,.453,.275,.979,.443,1.547,.443,1.654,0,3-1.346,3-3,0-.568-.168-1.094-.443-1.547,1.242-.71,2.585-1.175,4.007-1.36l-.129-.991c-1.62,.211-3.149,.747-4.553,1.581-.516-.42-1.166-.683-1.882-.683-1.654,0-3,1.346-3,3,0,.716,.263,1.366,.683,1.882C.849,7.286,.312,8.815,.102,10.436l.991,.129ZM4,2c1.103,0,2,.897,2,2s-.897,2-2,2-2-.897-2-2,.897-2,2-2ZM22.907,13.436c-.186,1.423-.65,2.766-1.36,4.007-.453-.275-.979-.443-1.547-.443-1.654,0-3,1.346-3,3,0,.568,.168,1.094,.443,1.547-1.242,.71-2.585,1.175-4.007,1.36l.129,.991c1.621-.211,3.15-.747,4.553-1.582,.516,.421,1.166,.683,1.883,.683,1.654,0,3-1.346,3-3,0-.716-.263-1.365-.683-1.882,.834-1.403,1.37-2.932,1.582-4.554l-.992-.129Zm-2.907,8.564c-1.103,0-2-.897-2-2s.897-2,2-2,2,.897,2,2-.897,2-2,2Zm-2-11.612c0-1.899-1.428-3.388-3.25-3.388-1.186,0-2.184,.528-2.75,1.356-.566-.828-1.565-1.356-2.75-1.356-1.822,0-3.25,1.488-3.25,3.388,.144,3.635,5.531,7.142,6,7.478,.466-.334,5.858-3.846,6-7.478Zm-6,6.266c-1.621-1.155-5-4.027-5-6.266,0-1.361,.967-2.388,2.25-2.388,1.304,0,2.25,.841,2.25,2h1c0-1.159,.946-2,2.25-2,1.282,0,2.25,1.026,2.25,2.388,0,2.239-3.38,5.111-5,6.266Z"/>
</svg>
