<svg id="Layer_1" viewBox="0 0 24 24" xmlns="http://www.w3.org/2000/svg" data-name="Layer 1"><path d="m21.5 0h-19c-1.379 0-2.5 1.122-2.5 2.5v15.5h9.025c-.01-.166-.025-.331-.025-.5s.016-.334.025-.5h-8.025v-9h22v3.026c.36.306.695.641 1 1.003v-9.529c0-1.378-1.121-2.5-2.5-2.5zm-19 1h19c.827 0 1.5.673 1.5 1.5v1.5h-22v-1.5c0-.827.673-1.5 1.5-1.5zm-1.5 6v-2h22v2zm1.942 6c0 1.103.897 2 2 2s2-.897 2-2-.897-2-2-2-2 .897-2 2zm3 0c0 .551-.448 1-1 1s-1-.449-1-1 .448-1 1-1 1 .449 1 1zm11.558-2c-3.584 0-6.5 2.916-6.5 6.5s2.916 6.5 6.5 6.5 6.5-2.916 6.5-6.5-2.916-6.5-6.5-6.5zm0 12c-3.032 0-5.5-2.467-5.5-5.5s2.468-5.5 5.5-5.5 5.5 2.467 5.5 5.5-2.468 5.5-5.5 5.5zm2.939-7.451.701.713-3.456 3.399c-.217.217-.51.339-.822.339s-.604-.122-.824-.342l-1.851-1.793.695-.718 1.856 1.799c.097.097.158.087.241.006l3.459-3.402z"/></svg>