<svg id="Layer_1" viewBox="0 0 24 24" xmlns="http://www.w3.org/2000/svg" data-name="Layer 1"><path d="m19.786 13.811c.448.425 1.05.689 1.714.689 1.379 0 2.5-1.121 2.5-2.5s-1.121-2.5-2.5-2.5c-.665 0-1.266.265-1.714.689-.305-1.311-.932-2.497-1.795-3.473l1.276-1.276c.49.349 1.086.56 1.733.56 1.654 0 3-1.346 3-3s-1.346-3-3-3-3 1.346-3 3c0 .647.21 1.243.56 1.733l-1.276 1.276c-.977-.863-2.162-1.49-3.473-1.795.425-.448.689-1.05.689-1.714 0-1.379-1.121-2.5-2.5-2.5s-2.5 1.121-2.5 2.5c0 .665.265 1.266.689 1.714-1.311.305-2.497.932-3.473 1.795l-1.276-1.276c.349-.49.56-1.086.56-1.733 0-1.654-1.346-3-3-3s-3 1.346-3 3 1.346 3 3 3c.647 0 1.243-.21 1.733-.56l1.276 1.276c-.863.977-1.49 2.162-1.795 3.473-.448-.425-1.05-.689-1.714-.689-1.379 0-2.5 1.121-2.5 2.5s1.121 2.5 2.5 2.5c.665 0 1.266-.265 1.714-.689.305 1.311.932 2.497 1.795 3.473l-1.276 1.276c-.49-.349-1.086-.56-1.733-.56-1.654 0-3 1.346-3 3s1.346 3 3 3 3-1.346 3-3c0-.647-.21-1.243-.56-1.733l1.276-1.276c.977.863 2.162 1.49 3.473 1.795-.425.448-.689 1.05-.689 1.714 0 1.379 1.121 2.5 2.5 2.5s2.5-1.121 2.5-2.5c0-.665-.265-1.266-.689-1.714 1.311-.305 2.497-.932 3.473-1.795l1.276 1.276c-.349.49-.56 1.086-.56 1.733 0 1.654 1.346 3 3 3s3-1.346 3-3-1.346-3-3-3c-.647 0-1.243.21-1.733.56l-1.276-1.276c.863-.977 1.49-2.162 1.795-3.473zm1.714-3.311c.827 0 1.5.673 1.5 1.5s-.673 1.5-1.5 1.5-1.5-.673-1.5-1.5.673-1.5 1.5-1.5zm-.5-9.5c1.103 0 2 .897 2 2s-.897 2-2 2-2-.897-2-2 .897-2 2-2zm-10.5 1.5c0-.827.673-1.5 1.5-1.5s1.5.673 1.5 1.5-.673 1.5-1.5 1.5-1.5-.673-1.5-1.5zm-7.5 2.5c-1.103 0-2-.897-2-2s.897-2 2-2 2 .897 2 2-.897 2-2 2zm-.5 8.5c-.827 0-1.5-.673-1.5-1.5s.673-1.5 1.5-1.5 1.5.673 1.5 1.5-.673 1.5-1.5 1.5zm.5 9.5c-1.103 0-2-.897-2-2s.897-2 2-2 2 .897 2 2-.897 2-2 2zm2-11c0-3.859 3.141-7 7-7s7 3.141 7 7-3.141 7-7 7-7-3.141-7-7zm8.5 9.5c0 .827-.673 1.5-1.5 1.5s-1.5-.673-1.5-1.5.673-1.5 1.5-1.5 1.5.673 1.5 1.5zm7.5-2.5c1.103 0 2 .897 2 2s-.897 2-2 2-2-.897-2-2 .897-2 2-2zm-5.5-4h-1v-6h.813l1.687 3.419v-3.419h1v6h-.813l-1.687-3.385zm-1.75-2v-2c0-1.103-.897-2-2-2h-1.5v6h1.5c1.103 0 2-.897 2-2zm-1 0c0 .552-.448 1-1 1h-.5v-4h.5c.552 0 1 .448 1 1zm-3.25-2.25v.25h-1v-.25c0-.413-.337-.75-.75-.75s-.75.337-.75.75v2.5c0 .413.337.75.75.75s.75-.337.75-.75v-.25h1v.25c0 .965-.785 1.75-1.75 1.75s-1.75-.785-1.75-1.75v-2.5c0-.965.785-1.75 1.75-1.75s1.75.785 1.75 1.75z"/></svg>