<svg id="Layer_1" viewBox="0 0 24 24" xmlns="http://www.w3.org/2000/svg" data-name="Layer 1"><path d="m24 4v1h-4v4h-1v-4h-4v-1h4v-4h1v4zm-12 2c2.206 0 4 1.794 4 4s-1.794 4-4 4-4-1.794-4-4 1.794-4 4-4zm0 1c-1.654 0-3 1.346-3 3s1.346 3 3 3 3-1.346 3-3-1.346-3-3-3zm11.718 2.44c.18.826.282 1.681.282 2.56 0 6.617-5.383 12-12 12s-12-5.383-12-12 5.383-12 12-12c.879 0 1.734.101 2.56.282-.239.279-.451.58-.641.897-.625-.111-1.264-.179-1.92-.179-6.064 0-10.999 4.935-10.999 11 0 3.852 1.994 7.242 5 9.208v-2.708c0-1.378 1.122-2.5 2.5-2.5h7c1.379 0 2.5 1.122 2.5 2.5v2.708c3.006-1.966 5-5.356 5-9.208 0-.656-.068-1.295-.179-1.92.317-.189.618-.402.897-.641zm-11.718 13.56c1.801 0 3.498-.444 5-1.214v-3.286c0-.827-.673-1.5-1.5-1.5h-7c-.827 0-1.5.673-1.5 1.5v3.286c1.502.771 3.199 1.214 5 1.214z"/></svg>