<svg id="Layer_1" viewBox="0 0 24 24" xmlns="http://www.w3.org/2000/svg" data-name="Layer 1"><path d="m12 12c3.309 0 6-2.691 6-6s-2.691-6-6-6-6 2.691-6 6 2.691 6 6 6zm0-11c.534 0 1.04.106 1.523.262-.683 2.21-2.702 3.738-5.023 3.738h-1.399c.465-2.279 2.484-4 4.899-4zm-3.5 5c2.723 0 5.095-1.769 5.939-4.338 1.521.859 2.561 2.471 2.561 4.338 0 2.757-2.243 5-5 5s-5-2.243-5-5zm12.5 12.756v5.244h-1v-5.244c0-1.997-1.566-3.635-3.535-3.749l-4.453 5.078-4.477-5.078c-1.969.114-3.536 1.752-3.536 3.749v5.244h-1v-5.244c0-2.622 2.133-4.756 4.756-4.756h.226l4.029 4.571 4.007-4.571h.227c2.623 0 4.756 2.134 4.756 4.756z"/></svg>