<?xml version="1.0" encoding="UTF-8"?>
<svg xmlns="http://www.w3.org/2000/svg" id="Layer_1" data-name="Layer 1" viewBox="0 0 24 24">
  <path d="M24,17.5v6.5H0v-6.5c0-1.379,1.121-2.5,2.5-2.5h2.581l1,1H2.5c-.827,0-1.5,.673-1.5,1.5v5.5H23v-5.5c0-.827-.673-1.5-1.5-1.5h-3.577l1-1h2.577c1.379,0,2.5,1.121,2.5,2.5Zm0-15.5v6h-5v2.5c0,.827-.673,1.5-1.5,1.5h-5l.002,5.179,2.897-2.897,.707,.707-3.094,3.094c-1.593,1.737-4.029-2.404-5.113-3.094l.707-.707,2.896,2.895-.002-5.178H6.5c-.827,0-1.5-.673-1.5-1.5v-2.5H0V2C0,.897,.897,0,2,0h7c1.103,0,2,.897,2,2v6H6v2.5c0,.276,.225,.5,.5,.5h11c.275,0,.5-.224,.5-.5v-2.5h-5V2c0-1.103,.897-2,2-2h7c1.103,0,2,.897,2,2ZM1,7H10V2c0-.551-.448-1-1-1H2c-.552,0-1,.449-1,1V7ZM23,2c0-.551-.448-1-1-1h-7c-.552,0-1,.449-1,1V7h9V2Z"/>
</svg>
