<svg id="Layer_1" viewBox="0 0 24 24" xmlns="http://www.w3.org/2000/svg" data-name="Layer 1"><path d="m23 13h1c0 6.065-4.892 11-10.905 11h-2.19c-6.013 0-10.905-4.935-10.905-11h1c0 5.514 4.443 10 9.905 10h2.19c5.461 0 9.905-4.486 9.905-10zm-7.793-2.793c.39-.39.39-1.024 0-1.414s-1.024-.39-1.414 0-.39 1.024 0 1.414 1.024.39 1.414 0zm7.793-1.207h1c0-4.963-4.038-9-9-9v1c4.411 0 8 3.589 8 8zm-3 0h1c0-3.309-2.691-6-6-6v1c2.757 0 5 2.243 5 5zm-3 0h1c0-1.654-1.346-3-3-3v1c1.103 0 2 .897 2 2zm-5 11c4.411 0 8-3.589 8-8v-1h-1v1c0 3.859-3.14 7-7 7-3.165 0-5.842-2.113-6.705-5h4.705v-1h-4.92c-.047-.328-.08-.66-.08-1v-1.5h5v-1h-5v-1.5c0-.34.033-.672.08-1h4.92v-1h-4.705c.863-2.888 3.541-5 6.705-5 .34 0 .672.033 1 .08v-1.011c-.328-.041-.661-.069-1-.069-4.411 0-8 3.589-8 8v4c0 4.411 3.589 8 8 8z"/></svg>