<svg id="Layer_1" viewBox="0 0 24 24" xmlns="http://www.w3.org/2000/svg" data-name="Layer 1"><path d="m21.5 4h-3.5v-2.5c0-.827-.673-1.5-1.5-1.5h-9c-.827 0-1.5.673-1.5 1.5v2.5h-3.5c-1.378 0-2.5 1.121-2.5 2.5v17.5h24v-17.5c0-1.379-1.122-2.5-2.5-2.5zm-14.5-2.5c0-.275.224-.5.5-.5h9c.276 0 .5.225.5.5v2.5h-10zm16 21.5h-22v-16.5c0-.827.673-1.5 1.5-1.5h19c.827 0 1.5.673 1.5 1.5zm-7-11.5v.5h-1v-.5c0-.827-.673-1.5-1.5-1.5h-3c-.827 0-1.5.673-1.5 1.5 0 .875.628 1.612 1.493 1.752l3.173.509c1.353.219 2.334 1.37 2.334 2.739 0 1.379-1.122 2.5-2.5 2.5h-1v2h-1v-2h-1c-1.378 0-2.5-1.121-2.5-2.5v-.5h1v.5c0 .827.673 1.5 1.5 1.5h3c.827 0 1.5-.673 1.5-1.5 0-.875-.628-1.612-1.493-1.752l-3.173-.509c-1.353-.219-2.334-1.37-2.334-2.739 0-1.379 1.122-2.5 2.5-2.5h1v-2h1v2h1c1.378 0 2.5 1.121 2.5 2.5z"/></svg>