<?xml version="1.0" encoding="UTF-8"?>
<svg xmlns="http://www.w3.org/2000/svg" id="Layer_1" data-name="Layer 1" viewBox="0 0 24 24">
  <path d="m19,11.995l3.535-3.459c.944-.944,1.465-2.2,1.465-3.536s-.521-2.592-1.465-3.536c-.944-.944-2.2-1.464-3.535-1.464s-2.591.52-3.535,1.464c-.944.944-1.465,2.2-1.465,3.536s.524,2.596,1.479,3.55l3.521,3.445Zm-2.828-9.823c.756-.755,1.76-1.171,2.828-1.171s2.072.416,2.828,1.171,1.172,1.76,1.172,2.829-.416,2.073-1.168,2.825l-2.832,2.771-2.817-2.756c-.763-.762-1.183-1.77-1.183-2.839s.416-2.073,1.172-2.829Zm2.828,4.829c1.103,0,2-.897,2-2s-.897-2-2-2-2,.897-2,2,.897,2,2,2Zm0-3c.552,0,1,.449,1,1s-.448,1-1,1-1-.449-1-1,.448-1,1-1Zm-4.849,13.213c-3.396-1.381-5.87-3.857-7.36-7.369l3.372-3.373L4.484.793,1.606,3.672c-1.036,1.033-1.606,2.432-1.606,3.941,0,7.198,9.188,16.386,16.387,16.386,1.508,0,2.908-.57,3.941-1.604l2.879-2.879-5.679-5.679-3.377,3.376Zm5.47,4.475c-.845.846-1.993,1.312-3.234,1.312C9.771,23,1,14.228,1,7.613c0-1.242.466-2.39,1.312-3.234l2.172-2.172,4.265,4.265-3.135,3.135.123.307c1.625,4.046,4.437,6.856,8.357,8.353l.303.115,3.131-3.13,4.265,4.265-2.172,2.172Z"/>
</svg>
