<?xml version="1.0" encoding="UTF-8"?>
<svg xmlns="http://www.w3.org/2000/svg" id="Layer_1" data-name="Layer 1" viewBox="0 0 24 24">
  <path d="m12.635,7.354l.707-.707,4,4-.707.707-1.646-1.646-2.293,2.293,1.646,1.646-.707.707-1.646-1.646-2.293,2.293,1.646,1.646-.707.707-4-4,.707-.707,1.646,1.646,2.293-2.293-1.646-1.646.707-.707,1.646,1.646,2.293-2.293-1.646-1.646Zm11.142,2.688c-.582,3.608-2.219,6.981-4.492,9.255s-5.646,3.91-9.255,4.492c-.884.143-1.737.212-2.546.212-2.445,0-4.475-.638-5.666-1.829C.231,20.586-.373,17.516.2,13.959c.582-3.608,2.219-6.981,4.492-9.255S10.339.794,13.947.212c3.557-.573,6.627.032,8.212,1.617,1.586,1.585,2.19,4.655,1.617,8.212Zm-13.725,12.729L1.218,13.937c-.515,3.193-.033,6.188,1.306,7.527s4.331,1.821,7.527,1.306Zm12.463-11.537L12.755,1.474c-2.862.701-5.542,2.123-7.356,3.937s-3.236,4.494-3.937,7.356l9.759,9.759c2.862-.701,5.542-2.123,7.356-3.937s3.236-4.494,3.937-7.356Zm-1.062-8.697c-1.339-1.339-4.331-1.818-7.527-1.306l8.833,8.833c.515-3.193.033-6.188-1.306-7.527Z"/>
</svg>
