<svg id="Layer_1" viewBox="0 0 24 24" xmlns="http://www.w3.org/2000/svg" data-name="Layer 1"><path d="m23.27 14.278-2.505-4.638 2.279-4.256c.537-1.008.295-2.262-.565-2.917-1.056-.848-2.744-.483-3.351.719l-.924 1.712-.923-1.709c-.61-1.205-2.293-1.569-3.354-.721-.858.656-1.102 1.91-.564 2.917l1.623 3.037c-.552-.045-1.111.114-1.563.459-.551.42-.845 1.087-.846 1.776-.661-.203-1.393-.036-1.947.383-.632.482-.927 1.288-.836 2.062-.627-.12-1.278.028-1.794.421-.859.655-1.102 1.909-.566 2.915l2.064 3.911c.867 1.625 2.314 2.815 4.076 3.351.662.202 1.338.3 2.012.3 1.119 0 2.232-.275 3.257-.822l2.096-1.226c2.759-1.471 3.806-4.913 2.332-7.674zm-3.261-10.619c.339-.67 1.277-.873 1.864-.397.474.361.598 1.071.289 1.651l-1.967 3.673-1.424-2.637 1.237-2.29zm.441 17.42-2.096 1.226c-1.39.74-2.984.896-4.49.438s-2.744-1.476-3.484-2.863l-2.063-3.911c-.31-.58-.186-1.29.289-1.651.586-.474 1.523-.273 1.862.394l1.545 2.953.886-.464-1.952-3.715c-.31-.58-.185-1.29.289-1.651.561-.453 1.444-.293 1.811.319l2.045 3.87.885-.465-2.237-4.232c-.31-.58-.186-1.29.289-1.651.521-.418 1.37-.348 1.824.367l2.32 4.341.884-.47-4.811-9c-.31-.58-.186-1.29.288-1.651.594-.475 1.524-.273 1.866.399l5.989 11.09c1.212 2.272.35 5.106-1.938 6.328zm-9.388-17.806c0-1.927-1.233-3.273-3-3.273-1.041 0-1.979.563-2.519 1.395-.53-.793-1.423-1.395-2.481-1.395-1.767 0-3 1.346-3 3.273.115 3.37 5.09 6.684 5.5 7.003.406-.316 5.389-3.637 5.5-7.003zm-5.5 5.777c-1.481-1.096-4.5-3.75-4.5-5.777 0-1.359.804-2.273 2-2.273 1.126 0 2 1.075 2 2h1c0-1.084.916-2 2-2 1.196 0 2 .914 2 2.273 0 2.024-3.019 4.68-4.5 5.777z"/></svg>