<?xml version="1.0" encoding="UTF-8"?>
<svg xmlns="http://www.w3.org/2000/svg" id="Layer_1" data-name="Layer 1" viewBox="0 0 24 24">
  <path d="M24,8.5v-.5h-3v.5c0,1.882-.983,2.759-2,3.17V0h-3V2h-1v1h1V24h5v-1.5l-1.252-5.047,4.252,.865v-3.062l-3.743-.766c3.68-1.513,3.743-5.936,3.743-5.99ZM17,1h1V14h-1V1Zm3,21.562v.438h-3V15h1.161l1.839,7.562Zm3-6.489v1.021l-3.519-.716-.268-1.08,3.787,.774Zm-4-2.228v-1.108c1.187-.377,2.785-1.327,2.98-3.736h.986c-.131,1.195-.778,4.137-3.967,4.844Zm-15.264-.842L.048,20.786l.903,.428,3.688-7.784c.095-.2,.22-.379,.36-.543v11.114H14v-1H6v-1H14v-1H7.943l6.057-7.878v-2.122H6.898c-1.346,0-2.587,.786-3.163,2.002Zm9.879-1.002l-6.941,9h-.673v-1.146l6.239-7.854h1.375Zm-7.614,6.231v-6.04c.285-.112,.583-.191,.898-.191h4.009l-4.908,6.231ZM13.313,.513L7.297,.001c-1.078-.076-1.971,1.005-1.663,2.086l.366,1.001v1.912c0,2.206,1.794,4,4,4s4-1.794,4-4v-1.5l.466-1.412c.219-.705-.385-1.567-1.152-1.575Zm-.313,4.487c0,1.654-1.346,3-3,3s-3-1.346-3-3v-1h6v1Zm.066-2H7l-.41-1.202c-.116-.39,.249-.828,.637-.8l6.032,.513c.135-.026,.262,.21,.26,.259l-.452,1.23Z"/>
</svg>
