<svg id="Layer_1" viewBox="0 0 24 24" xmlns="http://www.w3.org/2000/svg" data-name="Layer 1"><path d="m22.643 22.569c-.125-.065-.531-.388-.699-.521-.645-.652-1.088-1.522-1.245-2.455-.239-1.414-1.307-2.481-2.721-2.721-.945-.159-1.826-.607-2.481-1.263s-1.104-1.536-1.263-2.481c-.223-1.315-1.223-2.329-2.677-2.711-1.178-.311-1.641-.79-2.228-1.397l-.571-.575c1.732-1.876 1.639-4.294-.291-6.223-2.172-2.176-6.193-2.927-7.683-1.437s-.737 5.51 1.437 7.683c1.02 1.02 2.177 1.531 3.318 1.531.858 0 1.705-.301 2.48-.881l.592.596c.64.663 1.244 1.288 2.692 1.669 1.079.284 1.788.981 1.945 1.911.194 1.148.741 2.222 1.542 3.022s1.874 1.348 3.022 1.542c.987.167 1.733.913 1.9 1.9.193 1.145.739 2.214 1.538 3.013l.002-.002c.843.797 1.748 1.083 2.747 1.231-.245-.586-.719-1.095-1.357-1.431zm-14.735-14.661c-.699.699-1.507 1.077-2.335 1.092-.928.031-1.819-.412-2.645-1.238-1.861-1.861-2.435-5.272-1.437-6.27.327-.327.912-.485 1.616-.485 1.448 0 3.402.669 4.654 1.921 1.605 1.605 1.66 3.467.147 4.98zm4.424 14.873c-.15-.043-.498-.304-.615-.41-.404-.405-.682-.95-.78-1.536-.169-1.001-.926-1.757-1.927-1.927-.586-.099-1.131-.375-1.536-.78-.084-.083-.247-.298-.378-.482 1.291-1.491 1.191-3.376-.32-4.886-.796-.796-1.949-1.396-3.164-1.645-1.289-.265-2.37-.072-2.97.528-1.292 1.292-.466 4.551 1.117 6.134.817.816 1.744 1.227 2.66 1.227.67 0 1.333-.225 1.942-.666.135.185.289.383.405.498.55.551 1.288.927 2.076 1.06.575.097 1.01.531 1.107 1.106.133.789.509 1.526 1.076 2.093.156.171 1.007.78 1.425.832.378.118 1.123.073 1.55.074-.294-.602-.938-1.038-1.668-1.219zm-6.149-5.597c-1.129 1.128-2.518 1.083-3.716-.114-1.409-1.409-1.861-3.976-1.117-4.72.347-.348 1.137-.445 2.062-.255 1.013.208 2.006.721 2.658 1.372 1.199 1.199 1.242 2.589.114 3.717zm17.735-4.739c-.052-.417-.661-1.268-.832-1.425-.566-.566-1.304-.942-2.093-1.076-.575-.097-1.01-.532-1.106-1.107-.133-.789-.509-1.526-1.06-2.076-.116-.116-.313-.27-.498-.405.441-.609.666-1.272.666-1.942 0-.916-.41-1.843-1.227-2.66-1.582-1.583-4.841-2.409-6.133-1.117-.6.6-.792 1.681-.528 2.97.25 1.215.849 2.368 1.645 3.164 1.511 1.511 3.395 1.611 4.886.32.184.131.399.294.482.378.405.404.682.95.78 1.536.17 1.001.926 1.757 1.927 1.927.586.099 1.131.376 1.536.78.106.117.366.466.41.615.182.73.618 1.374 1.219 1.668-.001-.426.044-1.172-.074-1.55zm-6.742-6.267c-1.128 1.127-2.518 1.085-3.717-.114-.651-.651-1.165-1.645-1.372-2.658-.19-.925-.093-1.715.255-2.062.744-.744 3.311-.292 4.72 1.117 1.197 1.198 1.242 2.587.114 3.716z"/></svg>