<?xml version="1.0" encoding="UTF-8"?>
<svg xmlns="http://www.w3.org/2000/svg" id="Layer_1" data-name="Layer 1" viewBox="0 0 24 24">
  <path d="M19.5,0H4.5c-1.379,0-2.5,1.122-2.5,2.5V24H22V2.5c0-1.378-1.121-2.5-2.5-2.5Zm1.5,23H3V2.5c0-.827,.673-1.5,1.5-1.5h15c.827,0,1.5,.673,1.5,1.5V23ZM19.639,1.654l.723,.691-1.384,1.444-.723-.691,1.384-1.444Zm-2.075,2.167l.723,.691-1.383,1.445-.723-.691,1.383-1.445Zm-2.075,2.167l.723,.691-1.383,1.444-.723-.691,1.383-1.444Zm-2.072,2.164l-1.416,1.461-1.416-1.461-.719,.696,1.479,1.526-1.328,4.998-.017,1.628h4v-1.5l-1.345-5.125,1.48-1.527-.719-.696Zm-.416,7.848h-2v-.434l1-3.707,1,3.707v.434ZM5.745,3.099l-.723,.691-1.384-1.444,.723-.691,1.384,1.444Zm2.074,2.167l-.723,.691-1.383-1.445,.723-.691,1.383,1.445Zm2.075,2.167l-.723,.691-1.383-1.444,.723-.691,1.383,1.444Z"/>
</svg>
