<svg id="Layer_1" viewBox="0 0 24 24" xmlns="http://www.w3.org/2000/svg" data-name="Layer 1"><path d="m18 12h-3v-1.5c0-.827-.673-1.5-1.5-1.5h-3c-.827 0-1.5.673-1.5 1.5v1.5h-3c-1.103 0-2 .897-2 2v10h16v-10c0-1.103-.897-2-2-2zm-8-1.5c0-.276.225-.5.5-.5h3c.275 0 .5.224.5.5v1.5h-4zm-4 2.5h12c.552 0 1 .449 1 1v2h-14v-2c0-.551.448-1 1-1zm-1 10v-6h6.5v2h1v-2h6.5v6zm4.35-19.606-.699-.715 2.328-2.276c.512-.51 1.525-.513 2.045.003l2.325 2.272-.699.715-2.15-2.101v5.708h-1v-5.707zm13.801 4-2.15-2.101v6.09c-.286-.328-.622-.605-1-.826v-5.264l-2.15 2.101-.699-.715 2.329-2.276c.512-.51 1.525-.513 2.045.003l2.325 2.272-.699.715zm-20.151 3.988v-6.089l-2.15 2.101-.699-.715 2.329-2.276c.512-.51 1.525-.513 2.045.003l2.325 2.272-.699.715-2.15-2.101v5.264c-.378.221-.714.498-1 .826z"/></svg>