<svg id="Layer_1" viewBox="0 0 24 24" xmlns="http://www.w3.org/2000/svg" data-name="Layer 1"><path d="m14.707 0h-10.207c-1.378 0-2.5 1.122-2.5 2.5v21.5h20v-16.707zm.293 1.707 5.293 5.293h-5.293zm-12 21.293v-20.5c0-.827.673-1.5 1.5-1.5h9.5v7h7v15zm3.5-10h1v6h-1zm10 0c-1.103 0-2 .897-2 2v2c0 1.103.897 2 2 2s2-.897 2-2v-2c0-1.103-.897-2-2-2zm1 4c0 .552-.449 1-1 1s-1-.448-1-1v-2c0-.552.449-1 1-1s1 .448 1 1zm-7.242-2.425c.193.822.774.544 1.515.978 1.175.441 1.471 1.294 1.356 1.945-.153.87-.976 1.502-1.959 1.502-.808 0-1.566-.33-2.079-.906l-.343-.384.756-.697.343.384c.315.354.81.565 1.323.565.544 0 .897-.333.953-.648.08-.459-.521-.719-.706-.788-.748-.281-1.432-.59-1.435-.59-.552-.357-.82-.908-.736-1.51.089-.624.54-1.132 1.177-1.325 1.284-.4 2.372.521 2.385.531l.391.334-.658.793-.386-.33c-.007-.005-.68-.569-1.438-.335-.367.112-.459.372-.459.481z"/></svg>