<?xml version="1.0" encoding="UTF-8"?>
<svg xmlns="http://www.w3.org/2000/svg" id="Layer_1" data-name="Layer 1" viewBox="0 0 24 24">
  <path d="M23.181,9.655c-.982-.924-2.66-.853-3.548,.166l-3.732,4.102c-.314-1.108-1.335-1.922-2.543-1.922H2.5c-1.379,0-2.5,1.122-2.5,2.5v7c0,1.378,1.121,2.5,2.5,2.5H13.725l9.638-10.818c.912-1.021,.831-2.604-.182-3.527Zm-.564,2.862l-9.341,10.483H2.5c-.827,0-1.5-.673-1.5-1.5v-7c0-.827,.673-1.5,1.5-1.5H13.357c.905,0,1.643,.737,1.643,1.642,0,.812-.606,1.511-1.403,1.625l-5.661,.737,.129,.991,5.668-.738c1.021-.146,1.844-.878,2.145-1.824l4.496-4.94c.535-.613,1.541-.656,2.134-.1,.609,.555,.658,1.507,.109,2.123ZM13,5c0-.552,.448-1,1-1s1,.448,1,1-.448,1-1,1-1-.448-1-1Zm-4.311,2.5c.896,1.55,2.521,2.5,4.311,2.5,2.757,0,5-2.243,5-5S15.757,0,13,0c-1.79,0-3.414,.95-4.311,2.5h-1.331l-1.019,1.076-1.052-1.051-1.414,1.414-1.414-1.415L-.015,5l2.501,2.5h6.203ZM2.46,3.939l1.414,1.415,1.414-1.414,1.071,1.07,1.429-1.51h1.509c.645-1.499,2.077-2.511,3.703-2.5,2.206,0,4,1.794,4,4s-1.794,4-4,4c-1.626,.011-3.058-1.001-3.703-2.5H2.9l-1.501-1.5,1.061-1.061Z"/>
</svg>
