<?xml version="1.0" encoding="UTF-8"?>
<svg xmlns="http://www.w3.org/2000/svg" id="Layer_1" data-name="Layer 1" viewBox="0 0 24 24">
  <path d="M8,5h-3v-1h3v1Zm-5-1H0v1H3v-1Zm16.56,4.144l.707,.707,3.299-3.298c.58-.581,.58-1.525,0-2.105L20.267,.149l-.707,.707,3.144,3.144H10v1h12.704l-3.145,3.144Zm4.44,5.356v8c0,1.378-1.122,2.5-2.5,2.5H2.5c-1.378,0-2.5-1.122-2.5-2.5V13.5c0-1.378,1.122-2.5,2.5-2.5H21.5c1.378,0,2.5,1.122,2.5,2.5ZM2.5,23H11.5V12H2.5c-.827,0-1.5,.673-1.5,1.5v8c0,.827,.673,1.5,1.5,1.5ZM23,13.5c0-.827-.673-1.5-1.5-1.5H12.5v11h9c.827,0,1.5-.673,1.5-1.5V13.5Zm-14.417,4.911l1.133,.653-.499,.866-1.134-.654c-.401,.47-.95,.806-1.582,.923v1.301h-1v-1.301c-.632-.117-1.18-.453-1.582-.923l-1.134,.654-.499-.866,1.133-.653c-.102-.287-.167-.59-.167-.911s.066-.625,.167-.911l-1.133-.653,.499-.866,1.134,.654c.401-.47,.95-.806,1.582-.923v-1.301h1v1.301c.632,.117,1.18,.453,1.582,.923l1.134-.654,.499,.866-1.133,.653c.102,.287,.167,.59,.167,.911s-.066,.625-.167,.911Zm-.833-.911c0-.965-.785-1.75-1.75-1.75s-1.75,.785-1.75,1.75,.785,1.75,1.75,1.75,1.75-.785,1.75-1.75Zm12.661,1.956l.916,.312c-.807,.629-1.767,1.281-2.827,1.232-1.93,0-3.5-1.57-3.5-3.5s1.57-3.5,3.5-3.5c1.059-.05,2.02,.604,2.826,1.232-1.128,.269-2.375,.946-2.326,2.268,0,.882,.567,1.667,1.411,1.956Zm-1.238,.45c-.727-.571-1.173-1.45-1.173-2.406s.446-1.834,1.173-2.406c-.218-.062-.444-.094-.673-.094-1.378,0-2.5,1.122-2.5,2.5s1.122,2.5,2.5,2.5c.229,0,.455-.032,.673-.094Z"/>
</svg>
