<svg id="Layer_1" viewBox="0 0 24 24" xmlns="http://www.w3.org/2000/svg" data-name="Layer 1"><path d="m22.182 12.613 1.733 2.579-.83.558-1.71-2.545c-.355.216-.748.403-1.185.54l.66 2.94-.976.219-.662-2.949c-.229.028-.464.046-.712.046-.259 0-.505-.021-.744-.051l-.64 2.949-.978-.212.64-2.949c-.425-.136-.807-.321-1.154-.532l-1.71 2.545-.83-.558 1.733-2.579c-.997-.87-1.556-1.913-1.773-2.386l.909-.416c.342.748 1.682 3.189 4.545 3.189s4.203-2.441 4.545-3.189l.909.416c-.216.473-.775 1.516-1.773 2.386z"/><path d="m9.182 12.613 1.733 2.579-.83.558-1.71-2.545c-.355.216-.748.403-1.185.54l.66 2.94-.976.219-.662-2.949c-.229.028-.464.046-.712.046-.259 0-.505-.021-.744-.051l-.64 2.949-.978-.212.64-2.949c-.425-.136-.807-.321-1.154-.532l-1.71 2.545-.83-.558 1.733-2.579c-.997-.87-1.556-1.913-1.773-2.386l.909-.416c.342.748 1.682 3.189 4.545 3.189s4.203-2.441 4.545-3.189l.909.416c-.216.473-.775 1.516-1.773 2.386z"/></svg>