<?xml version="1.0" encoding="UTF-8"?>
<svg xmlns="http://www.w3.org/2000/svg" id="Layer_1" data-name="Layer 1" viewBox="0 0 24 24">
  <path d="M4.5,5c1.379,0,2.5-1.121,2.5-2.5S5.879,0,4.5,0,2,1.121,2,2.5s1.121,2.5,2.5,2.5Zm0-4c.827,0,1.5,.673,1.5,1.5s-.673,1.5-1.5,1.5-1.5-.673-1.5-1.5,.673-1.5,1.5-1.5Zm1.5,8h1v15h-1v-7H3v7h-1v-7H0V8.5c0-1.379,1.121-2.5,2.5-2.5H15v1H2.5c-.827,0-1.5,.673-1.5,1.5v7.5H6v-7ZM24,2.5V15H9v-1h14V2.5c0-.827-.673-1.5-1.5-1.5H8.734c-.124-.356-.287-.692-.494-1h13.26c1.379,0,2.5,1.121,2.5,2.5Z"/>
</svg>
