<?xml version="1.0" encoding="UTF-8"?>
<svg xmlns="http://www.w3.org/2000/svg" id="Layer_1" data-name="Layer 1" viewBox="0 0 24 24">
  <path d="M18,13c3.309,0,6-2.691,6-6s-2.691-6-6-6h-1V0h-1V1h-7.5C3.813,1,0,4.813,0,9.5v1c0,1.378,1.122,2.5,2.5,2.5h13.5v3.033c-2.442,.165-3,1.482-3,2.61v2.715c0,1.205,.607,2.643,3.5,2.643s3.5-1.438,3.5-2.643v-2.715c0-1.128-.558-2.445-3-2.61v-3.033h1Zm-4,8.357v-2.715c0-.7,.257-1.487,2-1.616v5.947c-1.743-.129-2-.916-2-1.616Zm5-2.715v2.715c0,.7-.257,1.487-2,1.616v-5.947c1.743,.129,2,.916,2,1.616ZM1,10.5v-1c0-4.136,3.364-7.5,7.5-7.5h9.5c2.757,0,5,2.243,5,5s-2.243,5-5,5H2.5c-.827,0-1.5-.673-1.5-1.5ZM20,5c0-1.103-.897-2-2-2h-7c-1.103,0-2,.897-2,2s.897,2,2,2h7c1.103,0,2-.897,2-2Zm-10,0c0-.551,.449-1,1-1h7c.552,0,1,.449,1,1s-.448,1-1,1h-7c-.551,0-1-.449-1-1Z"/>
</svg>
