<svg id="Layer_1" viewBox="0 0 24 24" xmlns="http://www.w3.org/2000/svg" data-name="Layer 1"><path d="m22.285 13.826c-.365-.983-1.26-1.669-2.285-1.793v-1.034h-1v1.008h-7v-1.008h-1v1.034c-1.025.124-1.92.809-2.285 1.793-1.292 3.487-1.715 7.328-1.715 8.259 0 1.056.859 1.915 1.915 1.915 1.625 0 4.467-3.073 5.31-4.976h2.588c.84 1.902 3.664 4.976 5.272 4.976 1.056 0 1.915-.859 1.915-1.915 0-.931-.422-4.771-1.715-8.259zm-.2 9.174c-1.062 0-3.894-2.944-4.457-4.634l-.114-.342h-3.99l-.114.342c-.563 1.688-3.42 4.634-4.496 4.634-.504 0-.915-.41-.915-.915 0-.762.396-4.521 1.652-7.911.259-.697.933-1.166 1.677-1.166h8.341c.744 0 1.418.469 1.677 1.166 1.257 3.391 1.652 7.149 1.652 7.911 0 .505-.411.915-.915.915zm-6.085-17h-12v-1h12zm-12 3h5v1h-5zm1.119 14c.086.356.226.689.402 1h-5.521v-21.5c0-1.379 1.122-2.5 2.5-2.5h15c1.378 0 2.5 1.121 2.5 2.5v6.5h-1v-6.5c0-.827-.673-1.5-1.5-1.5h-15c-.827 0-1.5.673-1.5 1.5v20.5z"/></svg>