<?xml version="1.0" encoding="UTF-8"?>
<svg xmlns="http://www.w3.org/2000/svg" id="Layer_1" data-name="Layer 1" viewBox="0 0 24 24">
  <path d="M21.5,9h-1.996l-.667,1h2.662c.827,0,1.5,.673,1.5,1.5v4.5H9v-4.5c0-.827,.673-1.5,1.5-1.5h5.4l-.462-1h-4.939c-1.378,0-2.5,1.121-2.5,2.5v.28c-.532-.48-1.229-.78-2-.78-1.654,0-3,1.346-3,3,0,.771,.301,1.468,.78,2H1V4H0V24H1v-3H23v3h1V11.5c0-1.379-1.122-2.5-2.5-2.5ZM4,14c0-1.103,.897-2,2-2s2,.897,2,2-.897,2-2,2-2-.897-2-2Zm-3,6v-3H23v3H1ZM24,4v1h-4.232l-2.347,3.521-2.968-6.43-1.663,2.909h-4.79v-1h4.21L14.547-.091l3.032,6.57,1.653-2.479h4.768Z"/>
</svg>
