<?xml version="1.0" encoding="UTF-8"?>
<svg xmlns="http://www.w3.org/2000/svg" id="Layer_1" data-name="Layer 1" viewBox="0 0 24 24">
  <path d="M12,0C5.383,0,0,5.383,0,12s5.383,12,12,12h12V12C24,5.383,18.617,0,12,0Zm11,23H12c-6.065,0-11-4.935-11-11S5.935,1,12,1s11,4.935,11,11v11ZM13.943,9.986l-1.516-4.328h-.853l-1.52,4.339H5.717v.829l3.128,2.52-1.169,3.896,.667,.513,3.66-2.37,3.647,2.368,.671-.508-1.17-3.91,3.135-2.424-.007-.924h-4.338Zm.059,2.991l.933,3.118-2.93-1.902-2.941,1.904,.933-3.109-2.473-1.991h3.24l1.237-3.532,1.233,3.521h3.241l-2.473,1.991Z"/>
</svg>
