<?xml version="1.0" encoding="UTF-8"?>
<svg xmlns="http://www.w3.org/2000/svg" id="Layer_1" data-name="Layer 1" viewBox="0 0 24 24">
  <path d="m12.5,19.5h1.5v1h-1.5v1.5h-1v-1.5h-1.5v-1h1.5v-1.5h1v1.5Zm4.473-1.271c.01.09.027.178.027.271v3c0,1.378-1.121,2.5-2.5,2.5h-5c-1.378,0-2.5-1.122-2.5-2.5v-3c0-.093.018-.181.027-.271L0,10.881C0,4.59,5.271,0,12,0s12,4.769,12,10.881l-7.027,7.348ZM13.186,1.056c1.161,1.393,3.134,4.29,3.451,8.182.743-.561,1.932-1.238,3.363-1.238,1.213,0,2.175.531,2.842,1.074-.786-4.3-4.672-7.568-9.656-8.019Zm-1.186.167c-.894.981-3.277,3.95-3.636,8.043.838-.559,2.178-1.265,3.636-1.265s2.798.706,3.636,1.265c-.359-4.093-2.742-7.061-3.636-8.043Zm0,7.778c-1.628,0-3.156,1.113-3.659,1.517l2.008,5.483h3.301l2.008-5.482c-.505-.404-2.038-1.518-3.659-1.518Zm-10.842.074c.668-.543,1.63-1.074,2.842-1.074,1.432,0,2.62.677,3.363,1.237.316-3.892,2.29-6.788,3.451-8.182C5.83,1.507,1.944,4.774,1.158,9.074Zm8.134,6.947l-2.043-5.578c-.459-.427-1.709-1.443-3.249-1.443-1.51,0-2.548,1.099-2.921,1.563l6.314,6.603c.408-.642,1.1-1.077,1.898-1.144Zm6.708,2.479c0-.827-.673-1.5-1.5-1.5h-5c-.827,0-1.5.673-1.5,1.5v3c0,.827.673,1.5,1.5,1.5h5c.827,0,1.5-.673,1.5-1.5v-3Zm.606-1.335l6.313-6.601c-.376-.464-1.421-1.564-2.92-1.564-1.548,0-2.791,1.014-3.248,1.442l-2.044,5.579c.799.067,1.49.502,1.898,1.144Z"/>
</svg>
