<?xml version="1.0" encoding="UTF-8"?>
<svg xmlns="http://www.w3.org/2000/svg" id="Layer_1" data-name="Layer 1" viewBox="0 0 24 24">
  <path d="M24,13.5v1.5h-2.396l-.793,3.987c-.231,1.166-1.263,2.013-2.452,2.013h-2.358v3H3v-4.35c0-.574-.197-1.129-.556-1.561C.843,16.156-.029,13.637-.01,10.997l1,.007c-.017,2.406,.773,4.696,2.225,6.448,.506,.611,.786,1.393,.786,2.199v3.35H15v-3h3.358c.713,0,1.333-.508,1.472-1.208l.953-4.792h2.217v-.395c-.354-.803-.709-1.656-1.064-2.508-.996-2.394-2.025-4.869-3.006-6.082-1.906-2.543-4.792-4.001-7.932-4.015h-.997l-.002-1h1.003c3.456,.015,6.632,1.619,8.716,4.401,1.06,1.311,2.07,3.74,3.141,6.312,.364,.959,.846,1.858,1.141,2.787ZM1,2c.552,0,1-.448,1-1S1.552,0,1,0,0,.448,0,1s.448,1,1,1Zm5,3c0,.552,.448,1,1,1s1-.448,1-1-.448-1-1-1-1,.448-1,1ZM1,8c0,.552,.448,1,1,1s1-.448,1-1-.448-1-1-1-1,.448-1,1Zm2-3c.552,0,1-.448,1-1s-.448-1-1-1-1,.448-1,1,.448,1,1,1Zm3-3c.552,0,1-.448,1-1s-.448-1-1-1-1,.448-1,1,.448,1,1,1Zm1,12c.751,0,1.454-.294,2-.788v6.788h1v-7.011c.82-.048,1.537-.408,2.095-.989h1.905c1.654,0,3-1.346,3-3,0-1.304-.844-2.447-2.076-2.846-.613-.821-1.563-1.283-2.667-1.127-.567-.648-1.389-1.027-2.257-1.027v1c.653,0,1.267,.322,1.642,.862l.196,.283c.228-.056,.575-.154,.787-.145,.635,0,1.222,.321,1.571,.858l.106,.164,.189,.048c.888,.226,1.508,1.02,1.508,1.93,0,1.103-.897,2-2,2h-2.365l-.15,.182c-.429,.52-1.062,.818-1.735,.818-.248,.01-.63-.098-.898-.167l-.198,.291c-.374,.549-.992,.877-1.654,.877-1.103,0-2-.897-2-2s.897-2,2-2v-1c-1.654,0-3,1.346-3,3s1.346,3,3,3Z"/>
</svg>
