<?xml version="1.0" encoding="UTF-8"?>
<svg xmlns="http://www.w3.org/2000/svg" id="Layer_1" data-name="Layer 1" viewBox="0 0 24 24">
  <path d="M19.731,9.76l-5.731-4.503V0h-1.801L0,12.293v11.707H1V12.707L13,.62V5.743l3.059,2.403-4.758,5.84-2.28-1.986H3v1h5.646l4.557,3.968c-.073,.01-.143,.035-.217,.032H6.753l-3.217,4.195,.793,.609,2.918-3.805h5.729c.814-.003,1.721-.458,2.412-1.274l4.427-5.425c.243,.348,.429,.735,.532,1.15l.653,2.611v4.938h1v-5l-.683-2.792c-.24-.964-.804-1.833-1.586-2.448Zm-5.113,6.326c-.12,.142-.27,.283-.43,.415l-2.133-1.858,4.79-5.879,2.269,1.783s.009,.009,.013,.012l-4.509,5.527ZM21.48,3.02c-1.379,0-2.5,1.121-2.5,2.5s1.121,2.5,2.5,2.5,2.5-1.121,2.5-2.5-1.121-2.5-2.5-2.5Zm0,4c-.827,0-1.5-.673-1.5-1.5s.673-1.5,1.5-1.5,1.5,.673,1.5,1.5-.673,1.5-1.5,1.5Z"/>
</svg>
