<?xml version="1.0" encoding="UTF-8"?>
<svg xmlns="http://www.w3.org/2000/svg" id="Layer_1" data-name="Layer 1" viewBox="0 0 24 24">
  <path d="M23,11.49c.36-.271,.694-.573,1-.903v13.413H0V6.5c0-1.378,1.121-2.5,2.5-2.5H11v1H2.5c-.534,0-1,.282-1.266,.703L9.506,13.975c1.366,1.366,3.586,1.364,4.95,0l1.411-1.46c.35,.131,.709,.244,1.082,.322l-1.786,1.845c-.877,.877-2.029,1.315-3.182,1.315s-2.306-.438-3.183-1.315L1,6.883V23H23V11.49Zm0-11.49V2.368c-.183-.265-.378-.524-.611-.757-1.038-1.039-2.42-1.611-3.889-1.611s-2.851,.572-3.889,1.611c-1.039,1.039-1.611,2.42-1.611,3.889s.572,2.851,1.611,3.889c1.038,1.039,2.42,1.611,3.889,1.611s2.851-.572,3.889-1.611c.919-.919,1.447-2.111,1.562-3.389h-1c-.112,1.011-.539,1.952-1.27,2.682-.85,.85-1.979,1.318-3.182,1.318s-2.332-.468-3.182-1.318c-.851-.85-1.318-1.98-1.318-3.182s.468-2.332,1.318-3.182c.85-.85,1.979-1.318,3.182-1.318s2.332,.468,3.182,1.318c.209,.208,.38,.441,.537,.682h-2.218v1h3c.552,0,1-.449,1-1V0h-1Z"/>
</svg>
