<?xml version="1.0" encoding="UTF-8"?>
<svg xmlns="http://www.w3.org/2000/svg" id="Layer_1" data-name="Layer 1" viewBox="0 0 24 24">
  <path d="M1,23V2.5c0-.827,.673-1.5,1.5-1.5H12v7h7v1.773l1,1v-3.48L12.707,0H2.5C1.122,0,0,1.122,0,2.5V24H14.59l-1-1H1ZM13,1.707l5.293,5.293h-5.293V1.707Zm10.262,22.262l.707-.707-5.432-5.432,2.139-2.139,.891,.891,.707-.707-5.574-5.574-.707,.707,.89,.89-5.076,5.076-.89-.89-.707,.707,5.574,5.574,.707-.707-.89-.89,2.23-2.23,5.432,5.432Zm-10.748-6.288l5.076-5.076,2.379,2.379-5.076,5.076-2.379-2.379Zm-3.514-10.681v1H4v-1h5Zm5,4H4v-1H14v1Zm-10,5h4.172l-1,1h-3.172v-1Zm7.952-2H4v-1H12.952l-1,1Z"/>
</svg>
