<?xml version="1.0" encoding="UTF-8"?>
<svg xmlns="http://www.w3.org/2000/svg" id="Layer_1" data-name="Layer 1" viewBox="0 0 24 24">
  <path d="M23.821,11.18c-.877-1.919-4.321-8.18-11.821-8.18S1.056,9.264,.178,11.185c-.236,.519-.235,1.116,.003,1.636,.875,1.919,4.315,8.18,11.819,8.18s10.945-6.264,11.823-8.184c.236-.52,.236-1.116-.002-1.637Zm-.908,1.221c-.814,1.783-4.011,7.6-10.913,7.6S1.903,14.187,1.09,12.405c-.118-.257-.118-.551-.003-.806,.815-1.783,4.012-7.599,10.913-7.599s10.096,5.813,10.911,7.596c.118,.257,.118,.55,.002,.805ZM12,6c-3.309,0-6,2.691-6,6s2.691,6,6,6,6-2.691,6-6-2.691-6-6-6Zm0,11c-2.757,0-5-2.243-5-5s2.243-5,5-5,5,2.243,5,5-2.243,5-5,5Zm.5-4h-1v-5h1v5Zm.5,2c0,.552-.448,1-1,1s-1-.448-1-1,.448-1,1-1,1,.448,1,1Z"/>
</svg>
