<?xml version="1.0" encoding="UTF-8"?>
<svg xmlns="http://www.w3.org/2000/svg" id="Layer_1" data-name="Layer 1" viewBox="0 0 24 24">
  <path d="M24,10.959c0-1.499-.733-2.71-2.181-3.606v-.804c0-1.732-1.361-3.024-3.3-3.204-.228-1.842-1.745-3.33-3.516-3.345-1.003,.028-2.033,.412-2.724,1.097-.125,.124-.234,.256-.332,.392-.643-.922-1.816-1.489-2.949-1.489-1.773,0-3.294,1.489-3.52,3.345-1.938,.18-3.3,1.472-3.3,3.204v.804c-1.447,.896-2.181,2.107-2.181,3.606,0,.985,.313,1.926,.949,2.778-.58,.752-.896,1.668-.896,2.623,0,1.703,1.031,3.26,2.588,3.943,1.039,2.419,2.832,3.696,5.196,3.696,1.572,0,3.325-.931,4.162-2.306,.837,1.376,2.59,2.306,4.162,2.306,2.364,0,4.157-1.277,5.196-3.696,1.557-.683,2.588-2.241,2.588-3.943,0-.953-.313-1.866-.892-2.618,.619-.821,.945-1.78,.945-2.784Zm-1.979,3.112c.597,.623,.926,1.436,.926,2.289,0,1.385-.843,2.598-2.146,3.091l-.205,.078-.082,.204c-.873,2.167-2.337,3.267-4.351,3.267-1.659,0-3.662-1.338-3.662-3h-1c0,1.662-2.003,3-3.662,3-2.014,0-3.478-1.099-4.351-3.267l-.082-.204-.205-.078c-1.304-.493-2.146-1.707-2.146-3.091,0-.854,.329-1.667,.926-2.289l.293-.432-.446-.393c-.54-.669-.826-1.46-.826-2.287,0-1.213,.63-2.156,1.926-2.884l.255-.144v-1.382c0-1.529,1.437-2.226,2.771-2.226h.5v-.5c0-1.531,1.167-2.824,2.549-2.824,1.157,0,2.446,.821,2.446,2h1c0-.545,.293-.949,.538-1.193,.501-.497,1.268-.837,2.012-.807,1.384,.012,2.553,1.305,2.553,2.824v.5h.5c1.334,0,2.771,.696,2.771,2.226v1.382l.255,.144c1.296,.728,1.926,1.671,1.926,2.884,0,.827-.286,1.618-.777,2.235l-.559,.506,.356,.371Zm-6.521-5.072h-2.344l1.79-4h-4.893l-2.988,7.058c-.14,.461-.055,.947,.232,1.334s.728,.608,1.209,.608h2.202l-1.636,4h1.58l6.086-6.69c.304-.458,.331-1.042,.071-1.526-.26-.483-.762-.784-1.311-.784Zm.452,1.696l-5.103,5.604,1.35-3.3h-3.692c-.161,0-.31-.075-.406-.205s-.125-.293-.097-.398l2.712-6.397h2.688l-1.79,4h3.887c.263,0,.388,.179,.43,.256,.041,.078,.122,.281,.022,.44Z"/>
</svg>
