<svg id="Layer_1" viewBox="0 0 24 24" xmlns="http://www.w3.org/2000/svg" data-name="Layer 1"><path d="m24 19.232c0-1.207-.206-2.396-.612-3.531l-1.443-4.042c-.354-.992-1.3-1.659-2.354-1.659h-6.182c-1.054 0-1.999.667-2.354 1.659l-1.443 4.042c-.406 1.136-.612 2.324-.612 3.531v2.768h2v2h3v-2h5v2h3v-2h2zm-12.003-7.237c.213-.595.78-.995 1.412-.995h6.182c.632 0 1.199.4 1.412.995l1.43 4.005h-11.866zm1.003 11.005h-1v-1h1zm8 0h-1v-1h1zm2-2h-13v-1.768c0-.756.096-1.503.272-2.232h2.728v1.5c0 .276.224.5.5.5s.5-.224.5-.5v-1.5h5v1.5c0 .276.224.5.5.5s.5-.224.5-.5v-1.5h2.728c.177.73.272 1.477.272 2.232zm-22 2h6v1h-7v-21.5c0-1.379 1.121-2.5 2.5-2.5h11c1.379 0 2.5 1.121 2.5 2.5v5.5h-1v-5.5c0-.827-.673-1.5-1.5-1.5h-11c-.827 0-1.5.673-1.5 1.5zm3-10h3v1h-3zm0 4h3v1h-3zm0-12h3v1h-3zm8 1h-3v-1h3zm-8 3h3v1h-3zm5 0h1.604c-.354.283-.664.619-.92 1h-.684z"/></svg>