<svg id="Layer_1" viewBox="0 0 24 24" xmlns="http://www.w3.org/2000/svg" data-name="Layer 1"><path d="m24 3.001c0-.802-.313-1.555-.879-2.122-1.17-1.17-3.073-1.17-4.243 0l-9.882 9.881v-10.76h-1v10.753l-.819-.423c-1.119-.559-2.464-.34-3.349.544l-1.88 1.88.707.707 1.88-1.88c.579-.579 1.46-.723 2.188-.359l.468.242-6.09 6.09c-1.466 1.407-1.467 3.939 0 5.346 1.408 1.467 3.94 1.467 5.347 0l6.306-6.306 1.828 1.828.707-.707-2.379-2.379 10.212-10.212c.567-.567.879-1.32.879-2.122zm-18.26 19.191c-1.049 1.052-2.881 1.052-3.932 0-1.079-1.034-1.078-2.898 0-3.932l6.306-6.306 3.932 3.932zm16.674-17.777-10.212 10.212-2.83-2.829 10.213-10.212c.78-.78 2.049-.78 2.829 0 .776.745.776 2.084 0 2.829z"/></svg>