<?xml version="1.0" encoding="UTF-8"?>
<svg xmlns="http://www.w3.org/2000/svg" id="Layer_1" data-name="Layer 1" viewBox="0 0 24 24">
  <path d="M9.879,11.121c.391,.391,.391,1.024,0,1.414-.391,.391-1.024,.391-1.414,0-.391-.391-.391-1.024,0-1.414s1.024-.391,1.414,0Zm2.121,.879c-.552,0-1,.448-1,1s.448,1,1,1,1-.448,1-1-.448-1-1-1Zm3.536-5.121c.391-.391,.391-1.024,0-1.414-.391-.391-1.024-.391-1.414,0-.391,.391-.391,1.024,0,1.414,.391,.391,1.024,.391,1.414,0Zm-6.536,2.121c0-.552-.448-1-1-1s-1,.448-1,1,.448,1,1,1,1-.448,1-1Zm-.536-3.536c-.391,.391-.391,1.024,0,1.414,.391,.391,1.024,.391,1.414,0,.391-.391,.391-1.024,0-1.414-.391-.391-1.024-.391-1.414,0Zm7.536,2.536c-.552,0-1,.448-1,1s.448,1,1,1,1-.448,1-1-.448-1-1-1Zm-4-4c-.552,0-1,.448-1,1s.448,1,1,1,1-.448,1-1-.448-1-1-1ZM23.999,.435v15.575c-.564,.196-3.44,1.438-6.999,1.49-3.182,.009-7.347-1.975-10.5-2-2.468,0-4.807,1.401-5.5,1.854v6.646s-1,0-1,0V2.337C.371,2.103,2.991,.049,6.5,0c3.183-.009,7.347,1.975,10.5,2,3,0,6.966-1.553,6.999-1.565Zm-1,1.447c-1.163,.394-3.624,1.119-5.999,1.119-3.182,.009-7.347-1.975-10.5-2C4.031,1,1.691,2.402,.999,2.855v13.321c1.104-.647,3.216-1.677,5.501-1.677,3.182-.009,7.348,1.975,10.5,2,2.461,0,5.104-.859,5.999-1.179V1.881ZM14.121,11.121c-.391,.391-.391,1.024,0,1.414,.391,.391,1.024,.391,1.414,0,.391-.391,.391-1.024,0-1.414s-1.024-.391-1.414,0Z"/>
</svg>
