<svg id="Layer_1" viewBox="0 0 24 24" xmlns="http://www.w3.org/2000/svg" data-name="Layer 1"><path d="m17.001 10c-3.859 0-6.999 3.141-6.999 7s3.14 7 6.999 7 6.999-3 6.999-7c0-3.859-3.14-7-6.999-7zm1.668 9h-3.276l-.946-2.893 2.507-1.802 2.641 1.923zm1.775-2.155 2.341 1.704.009-.012c-.042.157-.089.311-.143.462h-2.926l.719-2.155zm-9.257 1.605 2.408-1.73.746 2.281h-2.988c-.064-.18-.119-.363-.166-.55zm2.934-3.341-.9-2.752-.025.008c.174-.143.359-.274.549-.397l2.358 1.717zm3.688-1.418 2.421-1.74c.222.143.436.298.637.468l-.94 2.814zm1.425-2.256-2.276 1.635-2.227-1.621c.701-.288 1.467-.449 2.271-.449.789 0 1.541.157 2.232.435zm-6.812 1.698.847 2.589-2.249 1.616c-.006-.112-.017-.224-.017-.338 0-1.473.536-2.822 1.419-3.867zm-.608 6.867h2.853l.924 2.826c-1.61-.39-2.966-1.428-3.777-2.826zm4.882 2.985-.976-2.985h2.615l-.996 2.983c-.213.019-.43.021-.643.002zm1.754-.169.94-2.816h2.798c-.804 1.386-2.145 2.418-3.739 2.816zm4.527-5.362-2.202-1.603.879-2.631c.84 1.033 1.346 2.348 1.346 3.78 0 .153-.012.303-.023.454zm1.023-14.954v3.483l-.429.062c-1.448.208-2.54 1.453-2.566 2.903-.312-.155-.634-.292-.965-.411.194-1.62 1.372-2.985 2.96-3.396v-2.642c0-.827-.673-1.5-1.5-1.5h-18.996c-.827 0-1.5.673-1.5 1.5 0 .002-.006 1.652-.006 2.641 1.741.447 3.005 2.036 3.005 3.859s-1.264 3.412-3.005 3.859c0 .69 0 1.727.002 2.645 0 .825.675 1.496 1.5 1.496h5.503c0 .338.022.671.059 1h-5.562c-1.375.001-2.497-1.118-2.5-2.493v-3.489c1.626-.072 3.016-1.359 3.003-3.017.013-1.658-1.377-2.945-3.004-3.017l.005-3.485c.001-1.377 1.122-2.498 2.5-2.498h18.996c1.379 0 2.499 1.121 2.499 2.5z"/></svg>