<?xml version="1.0" encoding="UTF-8"?>
<svg xmlns="http://www.w3.org/2000/svg" id="Layer_1" data-name="Layer 1" viewBox="0 0 24 24">
  <path d="M6.5,5c1.378,0,2.5-1.121,2.5-2.5S7.878,0,6.5,0s-2.5,1.121-2.5,2.5,1.122,2.5,2.5,2.5Zm0-4c.827,0,1.5,.673,1.5,1.5s-.673,1.5-1.5,1.5-1.5-.673-1.5-1.5,.673-1.5,1.5-1.5Zm10.965,18.572l-3.418-3.419,.707-.707,3.246,3.247V3h1v15.692l3.246-3.246,.707,.707-3.417,3.418c-.571,.57-1.5,.57-2.071,0Zm-8.465,3.428v-6h2V8.5c0-1.379-1.122-2.5-2.5-2.5H4.5c-1.378,0-2.5,1.121-2.5,2.5v8.5h2v6H0v1H24v-1H9ZM3,8.5c0-.827,.673-1.5,1.5-1.5h4c.827,0,1.5,.673,1.5,1.5v7.5H3v-7.5Zm2,8.5h3v6h-3v-6Z"/>
</svg>
