<?xml version="1.0" encoding="UTF-8"?>
<svg xmlns="http://www.w3.org/2000/svg" id="Layer_1" data-name="Layer 1" viewBox="0 0 24 24">
  <path d="M14.707,0H4.5c-1.378,0-2.5,1.122-2.5,2.5V24H22V7.293L14.707,0Zm.293,1.707l5.293,5.293h-5.293V1.707ZM3,23V2.5c0-.827,.673-1.5,1.5-1.5H14v7h7v15H3Zm10-3v.013c0,.552-.448,1-1,1s-1-.448-1-1v-.013c0-.552,.448-1,1-1s1,.448,1,1Zm1.898-8.791c.337,1.304-.195,2.648-1.324,3.344-.672,.416-1.074,1.079-1.074,1.774v.672h-1v-.672c0-1.044,.579-2.026,1.549-2.625,.765-.472,1.111-1.353,.881-2.244-.173-.67-.718-1.216-1.388-1.389-.628-.162-1.271-.036-1.765,.347-.494,.382-.777,.959-.777,1.583h-1c0-.935,.424-1.8,1.165-2.373,.741-.574,1.7-.767,2.627-.524,1.017,.263,1.844,1.09,2.106,2.107Z"/>
</svg>
