<?xml version="1.0" encoding="UTF-8"?>
<svg xmlns="http://www.w3.org/2000/svg" id="Layer_1" data-name="Layer 1" viewBox="0 0 24 24">
  <path d="M13,12c0,.552-.448,1-1,1s-1-.448-1-1,.448-1,1-1,1,.448,1,1ZM10.798,3.417c.502-.388,1.125-.51,1.75-.346,.692,.182,1.257,.781,1.406,1.491,.188,.899-.224,1.787-1.024,2.209-.883,.466-1.431,1.001-1.431,2.229v1h1v-1c0-.746,.224-.99,.897-1.345,1.198-.633,1.815-1.958,1.536-3.298-.227-1.089-1.063-1.974-2.13-2.254-.921-.242-1.874-.051-2.615,.521-.744,.574-1.188,1.475-1.188,2.409h1c0-.627,.298-1.231,.798-1.617Zm12.202,7.083v8.5H12.5v4h5.5v1H6v-1h5.5v-4H1V10.5c0-1.378,1.122-2.5,2.5-2.5h1.5V2.5c0-1.378,1.122-2.5,2.5-2.5h9c1.378,0,2.5,1.122,2.5,2.5v5.5h1.5c1.378,0,2.5,1.122,2.5,2.5Zm-4-1.5v5h1.5c.565,0,1.081,.195,1.5,.513v-4.013c0-.827-.673-1.5-1.5-1.5h-1.5ZM6,2.5V14h12V2.5c0-.827-.673-1.5-1.5-1.5H7.5c-.827,0-1.5,.673-1.5,1.5ZM2,10.5v4.013c.419-.317,.935-.513,1.5-.513h1.5v-5h-1.5c-.827,0-1.5,.673-1.5,1.5Zm0,7.5H22v-1.5c0-.827-.673-1.5-1.5-1.5H3.5c-.827,0-1.5,.673-1.5,1.5v1.5Z"/>
</svg>
