<svg id="Layer_1" viewBox="0 0 24 24" xmlns="http://www.w3.org/2000/svg" data-name="Layer 1"><path d="m7 20c0 .552-.448 1-1 1s-1-.448-1-1 .448-1 1-1 1 .448 1 1zm-3-3.5c-.552 0-1 .448-1 1s.448 1 1 1 1-.448 1-1-.448-1-1-1zm3-.5c-.552 0-1 .448-1 1s.448 1 1 1 1-.448 1-1-.448-1-1-1zm4 2.5c0 3.033-2.467 5.5-5.5 5.5s-5.5-2.467-5.5-5.5c0-2.852 2.183-5.203 4.966-5.473-.158-1.265-.873-2.356-.881-2.368l.831-.557c.034.05.658.999.942 2.239.198-.471.488-1.009.904-1.426 1.373-1.137 2.556-.866 3.202-.902-.008.648.328 1.657-.826 3.033-.301.297-.631.504-.961.653 1.682.942 2.824 2.739 2.824 4.801zm-4.343-5.465c.496-.019 1.223-.153 1.778-.7.374-.369.504-.914.548-1.307-.487.058-1.137.217-1.515.594-.398.398-.66.981-.812 1.413zm3.343 5.465c0-2.481-2.019-4.5-4.5-4.5s-4.5 2.019-4.5 4.5 2.019 4.5 4.5 4.5 4.5-2.019 4.5-4.5zm14-11v16.5h-13.413c.33-.306.632-.64.903-1h6.51v-15.5c0-.565.195-1.081.513-1.5h-10.013c-.827 0-1.5.673-1.5 1.5v1.5h-1v-1.5c0-1.378 1.122-2.5 2.5-2.5h6.961l.596-5h5.942v1h-5.049l-.523 4h5.072c1.379 0 2.5 1.122 2.5 2.5zm-1 0c0-.827-.673-1.5-1.5-1.5h-1c-.827 0-1.5.673-1.5 1.5v15.5h4z"/></svg>