<?xml version="1.0" encoding="UTF-8"?>
<svg xmlns="http://www.w3.org/2000/svg" id="Layer_1" data-name="Layer 1" viewBox="0 0 24 24">
  <path d="M6.898,11h7.102v1H6.898c-.315,0-.613,.079-.898,.191v10.809H14v1H5V12.886c-.14,.164-.266,.343-.36,.543L.952,21.214l-.903-.428,3.688-7.784c.576-1.216,1.817-2.002,3.163-2.002Zm13.359,3.49l3.743,.766v3.062l-4.252-.865,1.252,5.047v1.5h-5V3h-1v-1h1V0h3V11.67c1.017-.412,2-1.289,2-3.17v-.5h3v.5c0,.054-.063,4.477-3.743,5.99Zm-3.257-.49h1V1h-1V14Zm1.134,1h-1.134v8h3v-.438l-1.866-7.562Zm1.079,.298l.268,1.08,3.519,.716v-1.021l-3.787-.774Zm3.754-6.298h-.986c-.195,2.409-1.793,3.359-2.98,3.736v1.108c3.189-.707,3.836-3.649,3.967-4.844ZM14,5c0,2.206-1.794,4-4,4s-4-1.794-4-4S7.794,1,10,1s4,1.794,4,4Zm-1,0c0-1.654-1.346-3-3-3s-3,1.346-3,3,1.346,3,3,3,3-1.346,3-3Z"/>
</svg>
