<?xml version="1.0" encoding="UTF-8"?>
<svg xmlns="http://www.w3.org/2000/svg" id="Layer_1" data-name="Layer 1" viewBox="0 0 24 24">
  <path d="M2.997,6.555c.186-1.683,1.405-3.022,3.003-3.428v1.874h.691c1.625-.007,4.652,.003,7.4-.508,1.189-.222,2.535-.365,4.104-.436,.435,1.148,1.554,1.944,2.804,1.944,1.654,0,3-1.346,3-3s-1.346-3-3-3c-1.829,0-4.627,.521-7.323,1.023-.8,.149-1.608,.299-2.398,.437-1.221-.943-2.73-1.459-4.278-1.459C3.362,0,.296,2.838,.021,6.462l-.041,.538H2.948l.049-.445ZM14.12,1.958c2.646-.493,5.144-.958,6.88-.958,1.103,0,2,.897,2,2s-.897,2-2,2c-.928,0-1.748-.66-1.949-1.568l-.09-.407-.417,.016c-1.786,.066-3.302,.22-4.635,.468-2.494,.464-5.261,.491-6.909,.492v-1h.02c1.905-.074,4.674-.59,7.1-1.042ZM1.083,6C1.563,3.156,4.064,1,7,1c.984,0,1.951,.244,2.811,.7-1.027,.155-1.987,.268-2.811,.3-2.416,0-4.46,1.69-4.928,4h-.989Zm11.917,5.782V7c0-.109-.012-.216-.018-.324,.332-.043,.662-.092,.992-.146,.01,.157,.026,.312,.026,.471v4.079c-.355,.206-.685,.445-1,.703Zm-1.222,11.218c.286,.359,.598,.696,.943,1H0V11.5c0-1.378,1.122-2.5,2.5-2.5h6.5c1.215,0,2-.785,2-2,0-.043-.011-.083-.013-.126,.329-.023,.66-.052,.992-.084,.003,.071,.021,.138,.021,.21,0,1.767-1.233,3-3,3H2.5c-.827,0-1.5,.673-1.5,1.5v11.5H11.778Zm6.222-11c-3.309,0-6,2.691-6,6s2.691,6,6,6,6-2.691,6-6-2.691-6-6-6Zm0,11c-2.757,0-5-2.243-5-5,0-1.198,.441-2.284,1.146-3.146l7,7c-.862,.706-1.948,1.147-3.147,1.147Zm3.854-1.854l-7-7c.862-.706,1.948-1.147,3.147-1.147,2.757,0,5,2.243,5,5,0,1.198-.441,2.284-1.146,3.146Z"/>
</svg>
