<?xml version="1.0" encoding="UTF-8"?>
<svg xmlns="http://www.w3.org/2000/svg" id="Layer_1" data-name="Layer 1" viewBox="0 0 24 24">
  <path d="M11.711,16.908l.289,.204c.652-.505,4.194-2.859,4.318-5.513,0-1.434-1.081-2.6-2.409-2.6-.776,0-1.468,.398-1.909,1.016-.441-.617-1.133-1.016-1.909-1.016-1.329,0-2.409,1.166-2.409,2.6,0,2.39,3.617,5.017,4.03,5.309Zm-1.621-6.908c.777,0,1.409,.718,1.409,1.6v.4h1v-.4c0-.882,.632-1.6,1.409-1.6s1.409,.718,1.409,1.6c0,1.454-2.179,3.412-3.318,4.279-1.14-.867-3.318-2.825-3.318-4.279,0-.882,.632-1.6,1.409-1.6ZM7,2.5c0,.827,.673,1.5,1.5,1.5h9v.007c.57,0,1.14,.19,1.601,.577l3.206,3.099-.695,.719-3.179-3.075c-1.358-1.148-3.278,.862-2.05,2.168l3.7,4.021c.283,.308,.685,.484,1.104,.484h2.814v1h-2.814c-.697,0-1.368-.294-1.839-.807l-3.705-4.026c-.795-.857-.853-2.251-.144-3.167h-6.997c-1.378,0-2.5-1.121-2.5-2.5S7.122,0,8.5,0h13.231c.618,0,1.214,.229,1.676,.645l.593,.527v1.34l-1.263-1.125c-.277-.25-.635-.387-1.006-.387H8.5c-.827,0-1.5,.673-1.5,1.5Zm11,19c0,1.379-1.122,2.5-2.5,2.5H2.269c-.618,0-1.214-.229-1.676-.645l-.593-.527v-1.34l1.263,1.125c.277,.25,.635,.387,1.006,.387H15.5c.827,0,1.5-.673,1.5-1.5s-.673-1.5-1.5-1.5H6.5v-.004c-.57,0-1.14-.193-1.601-.58l-3.206-3.099,.695-.719,3.179,3.075c1.357,1.148,3.279-.862,2.05-2.168l-3.7-4.021c-.283-.308-.685-.484-1.104-.484H0v-1H2.814c.697,0,1.368,.294,1.839,.807l3.705,4.026c.795,.857,.853,2.251,.144,3.167h6.997c1.378,0,2.5,1.121,2.5,2.5Z"/>
</svg>
