<svg id="Layer_1" viewBox="0 0 24 24" xmlns="http://www.w3.org/2000/svg" data-name="Layer 1"><path d="m19 15c-1.103 0-2 .897-2 2s.897 2 2 2 2-.897 2-2-.897-2-2-2zm0 3c-.552 0-1-.449-1-1s.448-1 1-1 1 .449 1 1-.448 1-1 1zm3.535-4.542c-.944-.944-2.199-1.464-3.535-1.464s-2.592.52-3.535 1.464c-.944.944-1.465 2.2-1.465 3.536s.524 2.596 1.489 3.559l3.511 3.258 3.535-3.281c.944-.944 1.465-2.2 1.465-3.536s-.521-2.591-1.465-3.536zm-.693 6.351-2.842 2.637-2.817-2.614c-.763-.761-1.183-1.769-1.183-2.838s.416-2.073 1.172-2.829c.755-.755 1.76-1.171 2.828-1.171s2.073.416 2.828 1.171c.756.755 1.172 1.76 1.172 2.829s-.416 2.073-1.158 2.815zm-14.842-3.81h-3v-1h3zm5 0h-3v-1h3zm-8 3h3v1h-3zm5 0h3v1h-3zm-2-7h-3v-1h3zm5 0h-3v-1h3zm-11 11.001v-19h4v4h10v3.254c.318-.223.653-.414 1-.579v-10.675h-1v3h-4v-3h-1v3h-4v-3h-1v3h-4v-3h-1v24h16.264l-1.078-1zm14-19v3h-4v-3zm-5 0v3h-4v-3z"/></svg>