<svg id="Layer_1" viewBox="0 0 24 24" xmlns="http://www.w3.org/2000/svg" data-name="Layer 1"><path d="m5.092 16.917-.704.704 2.341 2.34h-4.183c-.823 0-1.493-.67-1.493-1.493v-3.483h-.995v3.483c0 1.372 1.116 2.488 2.488 2.488h4.184l-2.341 2.34.704.704 2.495-2.494c.576-.578.576-1.517 0-2.095l-2.495-2.494zm16.362-13.873h-4.184l2.341-2.34-.704-.704-2.495 2.494c-.576.578-.576 1.517 0 2.095l2.495 2.494.704-.704-2.341-2.34h4.184c.823 0 1.493.67 1.493 1.493v3.483h.995v-3.483c0-1.372-1.116-2.488-2.488-2.488zm-14.43 5.971h5.971v-6.469c0-1.372-1.116-2.488-2.488-2.488h-7.961c-1.372 0-2.488 1.116-2.488 2.488v6.468h5.971v2.985h-2.488v.995h5.971v-.995h-2.488v-2.985zm-5.971-6.469c0-.823.67-1.493 1.493-1.493h7.961c.823 0 1.493.67 1.493 1.493v5.473h-10.947zm20.401 8.459h-7.961c-1.372 0-2.488 1.116-2.488 2.488v6.468h5.971v2.985h-2.488v.995h5.971v-.995h-2.488v-2.985h5.971v-6.468c0-1.372-1.116-2.488-2.488-2.488zm1.493 7.961h-10.947v-5.473c0-.823.67-1.493 1.493-1.493h7.961c.823 0 1.493.67 1.493 1.493z"/></svg>