<svg id="Layer_1" viewBox="0 0 24 24" xmlns="http://www.w3.org/2000/svg" data-name="Layer 1"><path d="m24 10.652v9.348h-11.5v3h5.5v1h-12v-1h5.5v-3h-11.5v-15.5c0-1.378 1.122-2.5 2.5-2.5h8.079c-.185.32-.346.654-.486 1h-7.593c-.827 0-1.5.673-1.5 1.5v14.5h22v-7.209c.366-.35.704-.727 1-1.139zm-8.5-4.652c0-1.103.897-2 2-2s2 .897 2 2-.897 2-2 2-2-.897-2-2zm1 0c0 .551.449 1 1 1s1-.449 1-1-.449-1-1-1-1 .449-1 1zm-4.933 1.748 1.527-.897c-.064-.299-.094-.576-.094-.85s.03-.551.094-.85l-1.527-.897 1.521-2.586 1.516.892c.408-.34.881-.606 1.396-.786v-1.774h3v1.771c.515.18.988.446 1.396.786l1.516-.892 1.521 2.586-1.527.897c.064.299.094.576.094.85s-.03.551-.094.85l1.527.897-1.521 2.586-1.516-.892c-.408.34-.881.606-1.396.786v1.771h-3v-1.771c-.515-.18-.988-.446-1.396-.786l-1.516.892-1.521-2.586zm1.37.355.507.862 1.306-.768c.574.663 1.368 1.105 2.251 1.274v1.529h1v-1.529c.883-.169 1.677-.611 2.251-1.274l1.306.768.507-.862-1.32-.776c.126-.418.27-.949.257-1.327.013-.377-.131-.91-.257-1.327l1.32-.776-.507-.862-1.306.768c-.574-.663-1.369-1.106-2.251-1.274v-1.529h-1v1.529c-.883.168-1.677.61-2.251 1.274l-1.306-.768-.507.862 1.32.776c-.126.418-.27.949-.257 1.327-.013.377.131.91.257 1.327z"/></svg>