<svg id="Layer_1" viewBox="0 0 24 24" xmlns="http://www.w3.org/2000/svg" data-name="Layer 1"><path d="m21.5 2h-14.551c-.232-1.14-1.242-2-2.449-2h-2c-1.378 0-2.5 1.121-2.5 2.5v21.5h24v-19.5c0-1.379-1.122-2.5-2.5-2.5zm-20.5.5c0-.827.673-1.5 1.5-1.5h2c.827 0 1.5.673 1.5 1.5v16.5h-5zm22 20.5h-22v-3h6v-17h14.5c.827 0 1.5.673 1.5 1.5zm-7-7c0 .552-.448 1-1 1s-1-.448-1-1 .448-1 1-1 1 .448 1 1zm-4 0c0 .552-.448 1-1 1s-1-.448-1-1 .448-1 1-1 1 .448 1 1zm8 0c0 .552-.448 1-1 1s-1-.448-1-1 .448-1 1-1 1 .448 1 1zm-4 4c0 .552-.448 1-1 1s-1-.448-1-1 .448-1 1-1 1 .448 1 1zm-4 0c0 .552-.448 1-1 1s-1-.448-1-1 .448-1 1-1 1 .448 1 1zm8 0c0 .552-.448 1-1 1s-1-.448-1-1 .448-1 1-1 1 .448 1 1zm-10-7h10v-8h-10zm6.5-1h-3v-.5c0-.275.224-.5.5-.5h2c.276 0 .5.225.5.5zm-5.5-6h8v6h-1.5v-.5c0-.827-.673-1.5-1.5-1.5h-2c-.827 0-1.5.673-1.5 1.5v.5h-1.5zm4 3.5c.827 0 1.5-.673 1.5-1.5s-.673-1.5-1.5-1.5-1.5.673-1.5 1.5.673 1.5 1.5 1.5zm0-2c.276 0 .5.225.5.5s-.224.5-.5.5-.5-.225-.5-.5.224-.5.5-.5z"/></svg>