<svg id="Layer_1" viewBox="0 0 24 24" xmlns="http://www.w3.org/2000/svg"><path d="m15 10.6v-1.6h-2v-1c0-1.7-1.3-3-3-3s-3 1.3-3 3v1h-2v5.5c0 1.4 1.1 2.5 2.5 2.5h2.6c0-.3.1-.7.2-1h-2.8c-.8 0-1.5-.7-1.5-1.5v-4.5h8v1.1c.3-.2.7-.4 1-.5zm-3-1.6h-4v-1c0-1.1.9-2 2-2s2 .9 2 2zm-.1 14.1c-.8.4-1.2.6-1.9.8l-.6-.3c-2.2-1-9.4-5.1-9.4-11.7v-6.7c0-1.2.7-2.1 1.7-2.4l8.3-2.8 8.3 2.8c1 .3 1.7 1.3 1.7 2.4v4.9h-1v-4.9c0-.6-.4-1.2-1-1.4l-8-2.6-7.9 2.5c-.6.2-1 .8-1 1.4v6.7c0 6 6.7 9.9 8.8 10.9h.2c.4 0 .6-.1 1.2-.4 0 0 .4.6.6.8zm6.1-7.1c-1.1 0-2 .9-2 2s.9 2 2 2 2-.9 2-2-.9-2-2-2zm0 3c-.6 0-1-.4-1-1s.4-1 1-1 1 .4 1 1-.4 1-1 1zm4.5-1v-.9l1.5-.9-1.5-2.6-1.5.9c-.4-.3-.9-.6-1.4-.8v-1.8h-3v1.8c-.5.2-1 .4-1.4.8l-1.5-.9-1.5 2.6 1.5.9v1.8l-1.5.9 1.5 2.6 1.5-.9c.4.3.9.6 1.4.8v1.8h3v-1.8c.5-.2 1-.4 1.4-.8l1.5.9 1.5-2.6-1.5-.9zm.1 2.1-.5.9-1.3-.8c-.6.7-1.4 1.1-2.3 1.3v1.5h-1v-1.5c-.9-.2-1.7-.6-2.3-1.3l-1.3.8-.5-.9 1.3-.8c-.1-.4-.3-1-.3-1.3s.1-.9.3-1.3l-1.3-.8.5-.9 1.3.8c.6-.7 1.4-1.1 2.3-1.3v-1.5h1v1.5c.9.2 1.7.6 2.3 1.3l1.3-.8.5.9-1.3.8c.1.4.3 1 .3 1.3s-.1.9-.3 1.3zm-13.1-6.1v-2h1v2z"/></svg>