<svg id="Layer_1" viewBox="0 0 24 24" xmlns="http://www.w3.org/2000/svg" data-name="Layer 1"><path d="m17.879 9.499c1.152.217 2.814.607 4.121.902v-3.284l-1.653-.992c-.423-.598-.789-1.165-1.129-1.695-1.656-2.571-2.853-4.43-7.217-4.43s-5.562 1.858-7.218 4.43c-.341.53-.706 1.098-1.129 1.695l-1.653.992v3.253c1.355-.4 2.923-.828 3.922-1.01.1 1.671.883 3.159 2.078 4.187v2.453h-5.001v8h18v-8h-5v-2.636c1.052-.988 1.752-2.343 1.879-3.865zm-14.879-.456v-1.359c.113-.071 1.369-.8 1.407-.893.459-.644.852-1.253 1.217-1.819 1.595-2.477 2.558-3.972 6.376-3.972s4.782 1.495 6.376 3.972c.365.566.757 1.176 1.217 1.819l1.407.893v1.466l-.043-.01c-3.331-.759-5.003-1.14-8.957-1.14s-5.271 0-9 1.043zm1 13.957v-4h2.614l-.286-1h-2.328v-1h4.123l1.714 6zm6.877 0-1.607-5.625c.755.292 1.81.625 2.73.625s1.975-.333 2.73-.625l-1.607 5.625h-2.245zm-1.877-6.818v-1.935c.727.404 1.628.659 2.5.729l-.017 1.983c-.947-.131-1.996-.558-2.483-.776zm3.5-1.208c.939-.08 1.734-.38 2.5-.844v2.052c-.493.222-1.559.658-2.517.782zm7.5 2.026v1h-2.424l-.286 1h2.71v4h-5.837l1.714-6zm-8.096-3c-2.69 0-4.875-2.14-4.98-4.804 1.44-.195 2.803-.196 5.076-.196 2.062 0 3.488.111 4.871.325-.171 2.603-2.322 4.675-4.967 4.675zm3.096-7c1.103 0 2-.897 2-2s-.897-2-2-2-2 .897-2 2 .897 2 2 2zm0-3c.551 0 1 .448 1 1s-.449 1-1 1-1-.448-1-1 .449-1 1-1z"/></svg>