<?xml version="1.0" encoding="UTF-8"?>
<svg xmlns="http://www.w3.org/2000/svg" id="Layer_1" data-name="Layer 1" viewBox="0 0 24 24">
  <path d="m23.414.585c-.378-.377-.88-.585-1.413-.585h0l-6,.002c-1.103,0-2,.898-2,2.001l.002,7.858c0,.438.244.831.637,1.024.162.08.335.119.507.119.246,0,.489-.08.694-.237l2.302-1.767h5.858V2c0-.534-.208-1.036-.586-1.414Zm-.414,7.415h-5.198l-2.571,1.974c-.057.044-.112.034-.149.015-.036-.018-.079-.055-.079-.127l-.002-7.858c0-.552.448-1,1-1.001l6-.002h0c.267,0,.518.104.706.292.188.189.293.44.293.707v6Zm-8.849,9.213c-3.396-1.381-5.87-3.857-7.36-7.369l3.372-3.373L4.484.793,1.606,3.672c-1.036,1.033-1.606,2.432-1.606,3.941,0,7.198,9.188,16.386,16.387,16.386,1.508,0,2.908-.57,3.941-1.604l2.879-2.879-5.679-5.679-3.377,3.376Zm5.47,4.475c-.845.846-1.993,1.312-3.234,1.312C9.771,23,1,14.228,1,7.613c0-1.242.466-2.39,1.312-3.234l2.172-2.172,4.265,4.265-3.135,3.135.123.307c1.625,4.046,4.437,6.856,8.357,8.353l.303.115,3.131-3.13,4.265,4.265-2.172,2.172Z"/>
</svg>
