<svg id="Layer_1" viewBox="0 0 24 24" xmlns="http://www.w3.org/2000/svg" data-name="Layer 1"><path d="m6 20h3v1h-3zm.395-6h.605v1h1v-1h.605c1.321 0 2.395-1.074 2.395-2.395 0-1.176-.842-2.169-2.001-2.362l-2.833-.473c-.675-.112-1.166-.691-1.166-1.376 0-.769.626-1.395 1.395-1.395h2.21c.769 0 1.395.626 1.395 1.395v.605h1v-.605c0-1.32-1.074-2.395-2.395-2.395h-.605v-1h-1v1h-.605c-1.321 0-2.395 1.074-2.395 2.395 0 1.176.842 2.169 2.001 2.362l2.833.473c.675.112 1.166.691 1.166 1.376 0 .769-.626 1.395-1.395 1.395h-2.21c-.769 0-1.395-.626-1.395-1.395v-.605h-1v.605c0 1.32 1.074 2.395 2.395 2.395zm17.605 5h-2v1c0 1.654-1.346 3-3 3s-3-1.346-3-3v-1h-1v2.5c0 1.379-1.121 2.5-2.5 2.5h-10c-1.378 0-2.5-1.121-2.5-2.5v-21.5h15v2h3.2c.986 0 1.884.583 2.285 1.484l3.127 7.037c.257.577.388 1.192.388 1.827v6.651zm-9-16v7h7.286l-2.715-6.109c-.24-.541-.779-.891-1.371-.891zm-14-2v16h13v-16zm13 20.5v-3.5h-13v3.5c0 .827.673 1.5 1.5 1.5h10c.827 0 1.5-.673 1.5-1.5zm7-2.5h-4v1c0 1.103.897 2 2 2s2-.897 2-2zm2-6.651c0-.467-.098-.92-.278-1.349h-7.722v7h8z"/></svg>