<svg id="Layer_1" viewBox="0 0 24 24" xmlns="http://www.w3.org/2000/svg" data-name="Layer 1"><path d="m5.5 2h3.5s0 .999 0 .999h-3.5c-.827.001-1.5.674-1.5 1.501v4.191l2.266-2.265.707.707-2.439 2.439c-.275.276-.643.428-1.033.428s-.758-.152-1.033-.428l-2.441-2.439.707-.707 2.266 2.265v-4.191c0-1.378 1.121-2.5 2.5-2.5zm3.5 12.75v7.583c0 1.315-2.829 1.667-4.5 1.667s-4.5-.351-4.5-1.667v-7.583c0-1.381 2.829-1.75 4.5-1.75s4.5.369 4.5 1.75zm-7.986 0c.183.238 1.363.75 3.486.75 2.216 0 3.405-.558 3.505-.779-.1-.163-1.289-.721-3.505-.721-2.123 0-3.304.512-3.486.75zm-.014 5.04c.153.218 1.329.71 3.5.71 2.194 0 3.375-.504 3.508-.718l-.002-1.339c-.976.42-2.465.557-3.506.557s-2.524-.136-3.5-.555v1.344zm7.004-2.504-.002-1.369c-.976.44-2.463.583-3.502.583s-2.524-.143-3.5-.582v1.372c.153.218 1.329.71 3.5.71 2.183 0 3.361-.498 3.504-.714zm.008 4.992-.002-1.337c-.976.422-2.468.558-3.51.558s-2.524-.136-3.5-.555v1.388c.111.157 1.295.667 3.5.667s3.389-.509 3.512-.722zm10.987-3.778c0 .827-.673 1.5-1.5 1.5h-4.192l2.265-2.265-.707-.707-2.438 2.438c-.276.276-.429.644-.429 1.034s.152.758.429 1.034l2.438 2.438.707-.707-2.265-2.265h4.191c1.379 0 2.5-1.122 2.5-2.5v-3.5s-.999 0-.999 0zm-4.999-9.5c-.552 0-1 .448-1 1s.448 1 1 1 1-.448 1-1-.448-1-1-1zm-3-2h13v6h-13zm1 5h11v-4h-11zm5-1.5h4v-1h-4zm-3-8.5c-.552 0-1 .448-1 1s.448 1 1 1 1-.448 1-1-.448-1-1-1zm10 0v4h-13v-4c0-1.103.897-2 2-2h9c1.103 0 2 .897 2 2zm-1 0c0-.551-.448-1-1-1h-9c-.552 0-1 .449-1 1v3h11zm-6 1.5h4v-1h-4z"/></svg>