<svg id="Layer_1" viewBox="0 0 24 24" xmlns="http://www.w3.org/2000/svg" data-name="Layer 1"><path d="m24 2v18.5c0 1.93-1.57 3.5-3.5 3.5h-17c-1.93 0-3.5-1.57-3.5-3.5v-18.5h1v.5c0 1.378 1.121 2.5 2.5 2.5h3.5c0 .343.035.677.101 1h-3.601c-.98 0-1.864-.407-2.5-1.058v15.558c0 1.378 1.121 2.5 2.5 2.5h17c1.379 0 2.5-1.122 2.5-2.5v-15.558c-.636.651-1.52 1.058-2.5 1.058h-3.601c.066-.323.101-.657.101-1h3.5c1.379 0 2.5-1.122 2.5-2.5v-.5zm-15 3c0-1.483 1.084-2.71 2.5-2.949v-2.051h1v2.051c1.416.24 2.5 1.466 2.5 2.949 0 .832-.341 1.585-.89 2.129l2.71 5.871h2.18v1h-1.718l1.75 3.791-.908.419-1.943-4.209h-8.361l-1.943 4.209-.908-.419 1.75-3.791h-1.718v-1h2.18l2.71-5.871c-.549-.544-.89-1.297-.89-2.129zm4.275 2.705c-.388.184-.817.295-1.275.295s-.886-.111-1.275-.295l-2.444 5.295h7.437l-2.444-5.295zm-3.275-2.705c0 1.103.897 2 2 2s2-.897 2-2-.897-2-2-2-2 .897-2 2z"/></svg>