<svg id="Layer_1" viewBox="0 0 24 24" xmlns="http://www.w3.org/2000/svg" data-name="Layer 1"><path d="m12 9.359-2.829 2.813c-1.56 1.559-1.56 4.097 0 5.657.756.755 1.76 1.171 2.829 1.171s2.073-.416 2.828-1.171 1.172-1.76 1.172-2.829-.416-2.073-1.173-2.829zm2.121 7.763c-1.133 1.133-3.109 1.133-4.243 0-1.169-1.17-1.169-3.073 0-4.242l2.123-2.111 2.121 2.11c.567.566.879 1.32.879 2.121s-.312 1.555-.879 2.122zm8.216-13.389-3.57-3.57-1.642 1.641-1.804-1.804h-10.821c-1.378 0-2.5 1.122-2.5 2.5v21.5h20v-17.322l-1.304-1.304 1.641-1.642zm-3.57-2.156 2.156 2.156-.934.935-2.157-2.157zm2.233 21.423h-18v-20.5c0-.827.673-1.5 1.5-1.5h10.408l6.092 6.092zm-17-20.4v3.4h8.5c1.378 0 2.5-1.122 2.5-2.5v-1.5h-10.4c-.331 0-.6.269-.6.6zm1 .4h9v.5c0 .827-.673 1.5-1.5 1.5h-7.5z"/></svg>