<svg id="Layer_1" viewBox="0 0 24 24" xmlns="http://www.w3.org/2000/svg" data-name="Layer 1"><path d="m19.07 2.929c-1.889-1.889-4.399-2.929-7.07-2.929s-5.182 1.04-7.071 2.929c-3.899 3.899-3.899 10.243.004 14.146l7.067 6.911 7.07-6.915c3.899-3.899 3.899-10.243 0-14.143zm-.703 13.431-6.367 6.228-6.364-6.224c-3.509-3.51-3.509-9.219 0-12.729 1.7-1.699 3.961-2.636 6.364-2.636s4.663.937 6.363 2.636c3.509 3.51 3.509 9.219.004 12.725zm-3.128-8.438c-.152.152-.239.362-.239.578v4c0 .275-.225.5-.5.5h-.5v-5.5c0-.827-.673-1.5-1.5-1.5h-3c-.827 0-1.5.673-1.5 1.5v7.5h6v-1h.5c.827 0 1.5-.673 1.5-1.5v-3.925l1.126-1.126-.707-.707zm-5.739-.922h3c.275 0 .5.225.5.5v1.5h-4v-1.5c0-.275.225-.5.5-.5zm-.5 7v-4h4v4z"/></svg>