<svg id="Layer_1" viewBox="0 0 24 24" xmlns="http://www.w3.org/2000/svg" data-name="Layer 1"><path d="m17.104 9.365-3.667-2.869c-.847-.663-2.029-.663-2.876 0l-3.667 2.869c-.569.445-.896 1.115-.896 1.837v6.797h12v-6.797c0-.723-.326-1.393-.896-1.837zm-.104 7.635h-10v-5.797c0-.413.187-.795.512-1.05l3.667-2.869c.484-.379 1.159-.378 1.644 0l3.667 2.869c.325.255.512.637.512 1.05v5.797zm-7-2h4v-4h-4zm1-3h2v2h-2zm13-6v-1h-2v-.5c0-1.378-1.122-2.5-2.5-2.5h-.5v-2h-1v2h-2v-2h-1v2h-2.5v-2h-1v2h-2.5v-2h-1v2h-2v-2h-1v2h-.5c-1.378 0-2.5 1.122-2.5 2.5v.5h-2v1h2v2h-2v1h2v2.5h-2v1h2v2.5h-2v1h2v2h-2v1h2v3h3v2h1v-2h2v2h1v-2h2.5v2h1v-2h2.5v2h1v-2h2v2h1v-2h3v-3h2v-1h-2v-2h2v-1h-2v-2.5h2v-1h-2v-2.5h2v-1h-2v-2zm-3 15h-18v-16.5c0-.827.673-1.5 1.5-1.5h15c.827 0 1.5.673 1.5 1.5z"/></svg>