<?xml version="1.0" encoding="UTF-8"?>
<svg xmlns="http://www.w3.org/2000/svg" id="Layer_1" data-name="Layer 1" viewBox="0 0 24 24">
  <path d="m3.5,11.598v2.402h4v-2.422c0-.564.271-1.068.708-1.315,1.723-.974,2.792-2.799,2.792-4.762,0-1.666-.743-3.224-2.038-4.274C7.666.175,5.969-.226,4.307.126,2.195.572.505,2.302.102,4.431c-.447,2.359.604,4.646,2.679,5.825.444.252.72.767.72,1.343Zm3-.021v1.422h-2v-1.402c0-.206-.031-.404-.075-.598h2.148c-.041.187-.073.379-.073.578ZM1.084,4.617c.329-1.737,1.708-3.149,3.43-3.513,1.367-.289,2.759.039,3.818.898,1.06.86,1.668,2.134,1.668,3.498,0,1.604-.875,3.095-2.284,3.892-.266.15-.477.367-.661.608h-1.055v-3.071c.86-.224,1.5-1,1.5-1.929h-1c0,.551-.448,1-1,1s-1-.449-1-1h-1c0,.929.64,1.705,1.5,1.929v3.071h-1.062c-.185-.243-.397-.462-.664-.614-1.697-.965-2.557-2.837-2.19-4.769Zm20.878,6.609c-1.296-1.051-2.993-1.452-4.655-1.1-2.111.446-3.802,2.176-4.205,4.305-.447,2.359.604,4.646,2.679,5.825.444.252.72.767.72,1.343v2.402h4v-2.422c0-.564.271-1.068.708-1.315,1.723-.974,2.792-2.799,2.792-4.762,0-1.666-.743-3.224-2.038-4.274Zm-2.462,10.352v1.422h-2v-1.402c0-.206-.031-.404-.075-.598h2.148c-.041.187-.073.379-.073.578Zm1.216-2.186c-.266.15-.477.367-.661.608h-1.055v-3.071c.86-.224,1.5-1,1.5-1.929h-1c0,.551-.448,1-1,1s-1-.449-1-1h-1c0,.929.64,1.705,1.5,1.929v3.071h-1.062c-.185-.243-.397-.462-.664-.614-1.697-.965-2.557-2.837-2.19-4.769.329-1.737,1.708-3.149,3.43-3.513,1.367-.29,2.759.039,3.818.898,1.06.86,1.668,2.134,1.668,3.498,0,1.604-.875,3.095-2.284,3.892Zm-13.216,3.608h4.5v1h-4.5c-1.379,0-2.5-1.122-2.5-2.5v-4.191l-2.266,2.265-.707-.707,2.439-2.439c.551-.552,1.516-.552,2.066,0l2.439,2.439-.707.707-2.266-2.265v4.191c0,.827.673,1.5,1.5,1.5ZM16.5,1h-4.5V0h4.5c1.379,0,2.5,1.122,2.5,2.5v4.191l2.266-2.265.707.707-2.439,2.438c-.275.276-.643.428-1.033.428s-.758-.152-1.033-.428l-2.439-2.438.707-.707,2.266,2.265V2.5c0-.827-.673-1.5-1.5-1.5Z"/>
</svg>
