<svg id="Layer_1" viewBox="0 0 24 24" xmlns="http://www.w3.org/2000/svg" data-name="Layer 1"><path d="m12 4c1.103 0 2-.897 2-2s-.897-2-2-2-2 .897-2 2 .897 2 2 2zm0-3c.552 0 1 .449 1 1s-.448 1-1 1-1-.449-1-1 .448-1 1-1zm-2 5.552v5.448h1v-2h2v2h1v-5.449l2.179 1.832.643-.766-2.461-2.069c-.441-.353-.996-.548-1.562-.548h-1.598c-.565 0-1.12.195-1.57.556l-2.452 2.062.643.766 2.179-1.831zm2.799-.552c.069 0 .133.025.201.034v2.966h-2v-2.966c.068-.009.132-.034.201-.034zm11.201-.5v13.231c0 .618-.229 1.214-.645 1.676l-3.197 3.593h-1.344l3.799-4.263c.25-.277.387-.635.387-1.006v-13.231c0-.827-.673-1.5-1.5-1.5s-1.5.673-1.5 1.5v9h-.007c0 .57-.19 1.14-.577 1.601l-3.099 3.205-.719-.695 3.075-3.179c.46-.553.428-1.395-.056-1.934-.521-.611-1.536-.663-2.112-.116l-3.858 3.55c.221.379.353.808.353 1.254v5.814h-1v-5.814c0-.418-.177-.82-.484-1.104l-4.026-3.703c-.583-.538-1.588-.491-2.107.12-.494.551-.508 1.394-.032 1.96l3.052 3.152-.719.695-3.075-3.179c-.399-.474-.594-1.053-.597-1.627h-.01v-9c0-.827-.673-1.5-1.5-1.5s-1.5.673-1.5 1.5v13.231c0 .371.137.729.387 1.006l3.799 4.263h-1.344l-3.197-3.593c-.416-.462-.645-1.058-.645-1.676v-13.231c0-1.378 1.121-2.5 2.5-2.5s2.5 1.122 2.5 2.5v6.997c.391-.294.86-.466 1.359-.493.669-.035 1.306.188 1.803.633l3.838 3.531 3.833-3.526c.502-.45 1.142-.679 1.808-.638.5.027.969.199 1.359.494v-6.998c0-1.378 1.121-2.5 2.5-2.5s2.5 1.122 2.5 2.5z"/></svg>