<?xml version="1.0" encoding="UTF-8"?>
<svg xmlns="http://www.w3.org/2000/svg" id="Layer_1" data-name="Layer 1" viewBox="0 0 24 24">
  <path d="M5.706,10L23.684,5.483l-.783-3.521c-.288-1.348-1.621-2.212-2.985-1.917L1.978,4.578C.654,4.836-.253,6.238,.058,7.555l.942,4.049v12.396H24V10H5.706Zm3.307-1.862l-4.509,1.133,3.32-5.14,4.509-1.14-3.321,5.147ZM13.756,2.632l4.629-1.17-3.243,5.136-4.709,1.183,3.322-5.149Zm8.167-.458l.573,2.576-5.949,1.495,3.244-5.139,.35-.088c.897-.249,1.631,.449,1.781,1.156ZM2.204,5.552l4.197-1.061-3.309,5.122,.014,.009-1.464,.368-.608-2.652c-.174-.81,.344-1.608,1.17-1.786ZM23,23H2V11H23v12Z"/>
</svg>
