<?xml version="1.0" encoding="UTF-8"?>
<svg xmlns="http://www.w3.org/2000/svg" id="Layer_1" data-name="Layer 1" viewBox="0 0 24 24">
  <path d="M2,3v1c0,1.93,1.57,3.5,3.5,3.5s3.5-1.57,3.5-3.5v-1.081l.408-.768C9.807,1.08,8.892-.068,7.737,.004L2.708,.512c-.864,.046-1.435,.888-1.108,1.735l.4,.753Zm3.5,3.5c-1.379,0-2.5-1.122-2.5-2.5v-1h5v1c0,1.378-1.121,2.5-2.5,2.5ZM2.545,1.623c.047-.07,.119-.107,.241-.115l5.018-.507c.416-.018,.758,.341,.688,.743l-.137,.256H2.597l-.082-.15c-.027-.078-.017-.158,.03-.227Zm15.955,5.877c1.654,0,3-1.346,3-3s-1.346-3-3-3-3,1.346-3,3,1.346,3,3,3Zm0-5c1.103,0,2,.897,2,2s-.897,2-2,2-2-.897-2-2,.897-2,2-2Zm-7.931,16.995c.572,.574,.572,1.507,0,2.081l-2.417,2.415-.707-.707,2.285-2.284H0v-1H9.659l-2.213-2.213,.707-.707,2.416,2.415Zm13.431,1.505H14.27l2.284,2.284-.707,.707-2.416-2.415c-.572-.574-.572-1.507,0-2.081l2.417-2.415,.707,.707-2.214,2.213h9.66v1Zm-9-6h-1v-3.5c0-1.378,1.121-2.5,2.5-2.5h4c1.379,0,2.5,1.122,2.5,2.5v3.5h-1v-3.5c0-.827-.673-1.5-1.5-1.5h-4c-.827,0-1.5,.673-1.5,1.5v3.5Zm-12.04,0l5.167-4.858c.514,.238,.873,.756,.873,1.358v3.5h1v-3.5c0-1.378-1.121-2.5-2.5-2.5H3.5c-1.379,0-2.5,1.122-2.5,2.5v3.5h1.96Zm.54-5h3.318L2,14.53v-3.03c0-.827,.673-1.5,1.5-1.5Z"/>
</svg>
