<?xml version="1.0" encoding="UTF-8"?>
<svg xmlns="http://www.w3.org/2000/svg" id="Layer_1" data-name="Layer 1" viewBox="0 0 24 24">
  <path d="M11.189,18h-2.689c-2.481,0-4.5-2.019-4.5-4.5V7.259c-1.892,1.511-3,3.78-3,6.241v10.5H0V13.5c0-3.026,1.496-5.791,4-7.468V3.5c0-1.93,1.57-3.5,3.5-3.5h5c1.93,0,3.5,1.57,3.5,3.5v2.532c2.405,1.611,3.865,4.227,3.978,7.112l-1.642-2.814c-.513-1.186-1.302-2.244-2.336-3.07v2.494l-1,1.714V3.5c0-1.378-1.122-2.5-2.5-2.5H7.5c-1.378,0-2.5,1.122-2.5,2.5V13.5c0,.969,.397,1.846,1.035,2.481,.946-1.24,2.414-1.981,3.965-1.981,1.072,0,2.099,.36,2.946,.988l-.508,.871c-.693-.543-1.547-.858-2.439-.858-1.23,0-2.396,.585-3.154,1.565,.495,.268,1.053,.435,1.654,.435h3c.096,0,.19-.011,.284-.019l-.595,1.019Zm8.311,6h4.496l-6.996-11.992-6.996,11.992h4.496v-1h-2.754l5.254-9.008,5.254,9.008h-2.754v1Zm-2-7h-1v4h1v-4Zm-.5,5c-.552,0-1,.448-1,1s.448,1,1,1,1-.448,1-1-.448-1-1-1Z"/>
</svg>
