<svg id="Layer_1" viewBox="0 0 24 24" xmlns="http://www.w3.org/2000/svg" data-name="Layer 1"><path d="m15 17h-14v-16h10.76c.29-.361.613-.694.96-1h-12.72v21.5c0 1.379 1.122 2.5 2.5 2.5h11c1.379 0 2.5-1.121 2.5-2.5v-7.762c-.342-.088-.677-.194-1-.325zm-1.5 6h-11c-.827 0-1.5-.673-1.5-1.5v-3.5h14v3.5c0 .827-.673 1.5-1.5 1.5zm-7.5-3h4v1h-4zm12-20c-3.309 0-6 2.691-6 6s2.691 6 6 6 6-2.691 6-6-2.691-6-6-6zm0 11c-2.757 0-5-2.243-5-5s2.243-5 5-5 5 2.243 5 5-2.243 5-5 5zm2.666-6.818.701.713-3.169 3.116c-.215.215-.498.322-.781.322s-.569-.108-.786-.324l-1.696-1.645.695-.719 1.701 1.649c.049.049.12.05.163.006l3.172-3.119zm-14.553 9.818c.591 0 1.132-.322 1.368-.77l1.761-2.23h2.758v-1.5c0-.883-.72-1.5-1.75-1.5h-1.01l-1.729-2.16c-.282-.518-.824-.84-1.415-.84h-1.831l1.184 3h-.352l-.911-.625c-.568-.569-1.609-.433-2.012.262-.231.399-.233.877.047 1.353l1.696 2.011h1.518l-1.167 3h1.844zm-1.732-4-1.343-1.581c-.073-.127-.024-.238 0-.28.036-.062.151-.323.508 0l1.238.861h2.133l-1.184-3h.361c.224 0 .429.122.584.391l2.079 2.609h1.491c.363 0 .75.132.75.5v.5h-2.242l-2.109 2.682c-.106.196-.312.318-.536.318h-.382l1.167-3h-2.516z"/></svg>