<svg id="Layer_1" viewBox="0 0 24 24" xmlns="http://www.w3.org/2000/svg" data-name="Layer 1"><path d="m9 17v-5h3.5c.275 0 .5.225.5.5v3.137l1-1v-2.137c0-.827-.673-1.5-1.5-1.5h-3.5v-4.5c0-.827-.673-1.5-1.5-1.5h-3c-.827 0-1.5.673-1.5 1.5v11.5h7.637l1-1zm-1 0h-4v-10.5c0-.275.225-.5.5-.5h3c.275 0 .5.225.5.5zm-7-14.5c0-.827.673-1.5 1.5-1.5h9.5v7h7v1.762c.315-.21.652-.365 1-.488v-1.981l-7.293-7.293h-10.207c-1.379 0-2.5 1.121-2.5 2.5v21.5h9v-1h-8zm12-.793 5.293 5.293h-5.293zm-8 6.293h2v1h-2zm0 3h2v1h-2zm0 3h2v1h-2zm5 1v-1h2v1zm13.268-3.268c-.975-.975-2.561-.975-3.535 0l-8.732 8.732v3.535h3.535l8.732-8.732c.975-.975.975-2.561 0-3.535zm-.707 2.828-8.439 8.439h-2.121v-2.121l8.439-8.439c.584-.584 1.537-.584 2.121 0s.585 1.536 0 2.121z"/></svg>