<svg id="Layer_1" viewBox="0 0 24 24" xmlns="http://www.w3.org/2000/svg" data-name="Layer 1"><path d="m24 20v4h-1v-4c0-.552-.448-1-1-1h-4.5c-.552 0-1 .448-1 1v4h-1v-2c0-.552-.448-1-1-1h-5c-.551 0-1 .448-1 1v2h-1v-4c0-.552-.449-1-1-1h-4.5c-.551 0-1 .448-1 1v4h-1v-4c0-1.103.897-2 2-2h4.5c1.103 0 2 .897 2 2v.278c.295-.172.634-.278 1-.278h5c.366 0 .705.106 1 .278v-.278c0-1.103.897-2 2-2h4.5c1.103 0 2 .897 2 2zm-22-5.5c0-1.379 1.122-2.5 2.5-2.5s2.5 1.121 2.5 2.5-1.122 2.5-2.5 2.5-2.5-1.121-2.5-2.5zm1 0c0 .827.673 1.5 1.5 1.5s1.5-.673 1.5-1.5-.673-1.5-1.5-1.5-1.5.673-1.5 1.5zm9-.5c1.379 0 2.5 1.121 2.5 2.5s-1.121 2.5-2.5 2.5-2.5-1.121-2.5-2.5 1.122-2.5 2.5-2.5zm0 1c-.827 0-1.5.673-1.5 1.5s.673 1.5 1.5 1.5 1.5-.673 1.5-1.5-.673-1.5-1.5-1.5zm7.5-3c1.379 0 2.5 1.121 2.5 2.5s-1.121 2.5-2.5 2.5-2.5-1.121-2.5-2.5 1.121-2.5 2.5-2.5zm-1.5 2.5c0 .827.673 1.5 1.5 1.5s1.5-.673 1.5-1.5-.673-1.5-1.5-1.5-1.5.673-1.5 1.5zm-8-8.5c0-1.103.897-2 2-2s2 .897 2 2-.897 2-2 2-2-.897-2-2zm1 0c0 .551.449 1 1 1s1-.449 1-1-.449-1-1-1-1 .449-1 1zm-4.933 1.748 1.527-.897c-.064-.299-.094-.576-.094-.85s.03-.551.094-.85l-1.527-.897 1.521-2.586 1.516.892c.408-.34.881-.606 1.396-.786v-1.774h3v1.771c.515.18.988.446 1.396.786l1.516-.892 1.521 2.586-1.526.897c.063.299.094.576.094.85s-.03.551-.094.85l1.526.897-1.521 2.586-1.516-.892c-.408.34-.882.606-1.396.786v1.771h-3v-1.771c-.515-.18-.988-.446-1.396-.786l-1.516.892-1.521-2.586zm1.369.355.507.862 1.306-.768c.574.663 1.368 1.105 2.251 1.274v1.529h1v-1.529c.883-.169 1.678-.61 2.252-1.274l1.305.768.507-.862-1.32-.776c.127-.417.27-.949.257-1.327.013-.377-.13-.91-.257-1.327l1.32-.776-.507-.862-1.305.768c-.575-.663-1.37-1.106-2.252-1.274v-1.529h-1v1.529c-.883.168-1.677.61-2.251 1.274l-1.306-.768-.507.862 1.32.776c-.126.418-.27.949-.257 1.327-.013.377.131.91.257 1.327z"/></svg>