<svg id="Layer_1" viewBox="0 0 24 24" xmlns="http://www.w3.org/2000/svg" data-name="Layer 1"><path d="m0 15h4.587c-.131.323-.237.658-.325 1h-4.262zm18 3c0 3.309-2.691 6-6 6s-6-2.691-6-6 2.691-6 6-6 6 2.691 6 6zm-1 0c0-2.757-2.243-5-5-5s-5 2.243-5 5 2.243 5 5 5 5-2.243 5-5zm-4.5-3.208h-1v3.415l1.979 1.979.707-.707-1.687-1.687v-3.001zm11.5-1.292v2.5h-4.262c-.088-.342-.194-.677-.325-1h3.587v-1.5c0-1.975-.473-3.838-1.292-5.5h-21.708v-1h4v-6h-4v-1h10.5c7.444 0 13.5 6.056 13.5 13.5zm-19-6.5h6v-5.975c-.167-.007-.331-.025-.5-.025h-5.5zm16.157 0c-1.951-3.186-5.279-5.434-9.157-5.901v5.901z"/></svg>