<svg id="Layer_1" viewBox="0 0 24 24" xmlns="http://www.w3.org/2000/svg" data-name="Layer 1"><path d="m21.5 3h-7c-1.378 0-2.5 1.121-2.5 2.5l.002 7.912c-.023.86.74 1.601 1.588 1.59.296 0 .591-.085.855-.255l2.702-1.747h6.853s0-7.5 0-7.5c0-1.378-1.122-2.5-2.5-2.5zm1.5 9h-6.147s-2.948 1.906-2.948 1.906c-.183.117-.408.125-.597.02-.191-.104-.305-.297-.305-.514l-.002-7.912c0-.827.673-1.5 1.5-1.5h7c.827 0 1.5.673 1.5 1.5v6.5zm-3.5-7h-3c-1.378 0-2.5 1.122-2.5 2.5v1c0 1.378 1.122 2.5 2.5 2.5h3c1.378 0 2.5-1.122 2.5-2.5v-1c0-1.378-1.122-2.5-2.5-2.5zm-3 1h3c.827 0 1.5.673 1.5 1.5h-6c0-.827.673-1.5 1.5-1.5zm3 4h-3c-.827 0-1.5-.673-1.5-1.5h1.667l1.333 1 1.333-1h1.667c0 .827-.673 1.5-1.5 1.5zm-18.5-9h15v-1h-16v21.5c0 1.378 1.122 2.5 2.5 2.5h11c1.378 0 2.5-1.122 2.5-2.5v-4.5h-15zm14 17v3.5c0 .827-.673 1.5-1.5 1.5h-11c-.827 0-1.5-.673-1.5-1.5v-3.5zm-5 3h-4v-1h4z"/></svg>