<?xml version="1.0" encoding="UTF-8"?>
<svg xmlns="http://www.w3.org/2000/svg" id="Layer_1" data-name="Layer 1" viewBox="0 0 24 24">
  <path d="M17,5h-3V1.5c0-.827-.673-1.5-1.5-1.5h-3c-.827,0-1.5,.673-1.5,1.5v3.682c-2.862,.68-5,3.251-5,6.318v12.5H21V9c0-2.206-1.794-4-4-4Zm-8,0V1.5c0-.275,.224-.5,.5-.5h3c.276,0,.5,.225,.5,.5v3.5h-4Zm2,7v6H4v-6h7Zm9,11H4v-4H12V11H4.025c.254-2.799,2.611-5,5.475-5h7.5c1.654,0,3,1.346,3,3v14Zm-3-16h-2V15c0,1.103,.897,2,2,2h2V9c0-1.103-.897-2-2-2Zm1,9h-1c-.551,0-1-.448-1-1v-7h1c.551,0,1,.448,1,1v7Z"/>
</svg>
