<svg id="Layer_1" viewBox="0 0 24 24" xmlns="http://www.w3.org/2000/svg" data-name="Layer 1"><path d="m22 16h-1v3h-5.707l-1 1h-4.586l-1-1h-5.707v-12h8v-1h-9v13h-2v2.5c0 1.378 1.122 2.5 2.5 2.5h19c1.378 0 2.5-1.122 2.5-2.5v-2.5h-2zm1 5.5c0 .827-.673 1.5-1.5 1.5h-19c-.827 0-1.5-.673-1.5-1.5v-1.5h7.293l1 1h5.414l1-1h7.293zm-1-16.5v-1.5c0-1.93-1.57-3.5-3.5-3.5s-3.5 1.57-3.5 3.5v1.5h-2v6.5c0 1.378 1.122 2.5 2.5 2.5h6c1.378 0 2.5-1.122 2.5-2.5v-6.5zm-6-1.5c0-1.378 1.122-2.5 2.5-2.5s2.5 1.122 2.5 2.5v1.5h-5zm7 8c0 .827-.673 1.5-1.5 1.5h-6c-.827 0-1.5-.673-1.5-1.5v-5.5h9zm-4-1h-1v-2h1z"/></svg>