<svg id="Layer_1" viewBox="0 0 24 24" xmlns="http://www.w3.org/2000/svg" data-name="Layer 1"><path d="m15 15c0-2.206-1.794-4-4-4h-5c-2.206 0-4 1.794-4 4v2.5h-2v1h1v5.5h1v-5.5h13v5.5h1v-5.5h1v-1h-2zm-12 0c0-1.654 1.346-3 3-3h5c1.654 0 3 1.346 3 3v2.5h-11zm5.5-6c2.481 0 4.5-2.019 4.5-4.5s-2.019-4.5-4.5-4.5-4.5 2.019-4.5 4.5 2.019 4.5 4.5 4.5zm0-8c1.93 0 3.5 1.57 3.5 3.5s-1.57 3.5-3.5 3.5-3.5-1.57-3.5-3.5 1.57-3.5 3.5-3.5zm14.914-.414c-.378-.378-.88-.586-1.414-.586l-4.972.002c-1.103 0-2 .898-2 2.001l.002 6.858c-.014.618.47 1.143 1.144 1.143.246 0 .489-.08.694-.237l2.302-1.767h4.83v-6c0-.534-.208-1.036-.586-1.414zm-.414 6.414h-4.17l-2.571 1.974c-.107.07-.229.026-.229-.112l-.002-6.858c0-.552.449-1 1-1.001l4.972-.002c.537-.011 1.01.463.999 1v5z"/></svg>