<svg id="Layer_1" viewBox="0 0 24 24" xmlns="http://www.w3.org/2000/svg"><path d="m24 0v5.5c0 .8-.7 1.5-1.5 1.5h-4.3l.5 2c-.3 0-.7 0-1 0l-.9-3.6c-.7-2-2.7-3.4-4.8-3.4s-4.1 1.4-4.8 3.4l-2.1 8.6v1c0 3.9 3.1 7 7 7 .4 0 .9 0 1.3-.1.3.3.6.6 1 .8-.7.2-2.3.3-2.3.3-3.4 0-6.3-2-7.4-5h-3.2c-.3 0-.5.2-.5.5v5.5h-1v-5.5c0-.8.7-1.5 1.5-1.5h2.8c-.2-.6-.3-1.3-.3-2s.4-2.3.6-3h-4.6v-1h4.8l1-4h-4.3c-.8 0-1.5-.7-1.5-1.5v-5.5h1v5.5c0 .3.2.5.5.5h4.5l.2-.9c.9-2.5 3.2-4.1 5.7-4.1 2.6 0 4.9 1.6 5.7 4.1 0 0 .2.9.2.9h4.5c.3 0 .5-.2.5-.5v-5.5h1zm-3.3 11.5-.7-.3v3.3c0 .8-.7 1.5-1.5 1.5s-1.5-.7-1.5-1.5v-3.3l-.7.3c-2 .9-3.3 2.9-3.3 5s1.2 4 3 4.9v2.6h1v-3.2h-.3c-1.6-.8-2.7-2.5-2.7-4.3s.8-2.9 2-3.7v1.7c0 1.4 1.1 2.5 2.5 2.5s2.5-1.1 2.5-2.5v-1.7c1.2.8 2 2.2 2 3.7s-1.1 3.4-2.7 4.1h-.3v3.4h1v-2.6c1.8-.9 3-2.8 3-4.9s-1.3-4.2-3.3-5z"/></svg>