<?xml version="1.0" encoding="UTF-8"?>
<svg xmlns="http://www.w3.org/2000/svg" id="Layer_1" data-name="Layer 1" viewBox="0 0 24 24">
  <path d="m12,11c2.206,0,4-1.794,4-4s-1.794-4-4-4-4,1.794-4,4,1.794,4,4,4Zm0-7c1.654,0,3,1.346,3,3s-1.346,3-3,3-3-1.346-3-3,1.346-3,3-3Zm12,5v1c-2.303,0-4.284-1.216-5.437-3.336l-.502-.925c-1.312-2.964-3.572-4.721-6.063-4.737-2.486.016-4.746,1.772-6.04,4.7l-.521.961c-1.153,2.12-3.134,3.336-5.437,3.336v-1c1.925,0,3.586-1.026,4.558-2.814l.502-.925C6.5,2,9.1.02,11.997.002c2.903.018,5.502,1.998,6.96,5.296l.484.888c.972,1.788,2.633,2.814,4.558,2.814Zm-1.53,3.486c.441.336.97.514,1.53.514v1c-.781,0-1.52-.248-2.136-.718-.492-.375-1.235-.375-1.728,0-1.232.939-3.039.939-4.272,0-.492-.375-1.235-.375-1.728,0-1.232.939-3.039.939-4.272,0-.492-.375-1.235-.375-1.728,0-1.232.939-3.039.939-4.272,0-.492-.375-1.235-.375-1.728,0-.616.47-1.355.718-2.136.718v-1c.56,0,1.089-.178,1.53-.513.853-.648,2.088-.648,2.94,0,.882.672,2.179.672,3.06,0,.853-.648,2.088-.648,2.94,0,.882.672,2.179.672,3.06,0,.853-.648,2.088-.648,2.94,0,.882.672,2.179.672,3.06,0,.853-.648,2.088-.648,2.94,0Zm-15.47,7.514c0,.552-.448,1-1,1s-1-.448-1-1,.448-1,1-1,1,.448,1,1Zm3-3c0,.552-.448,1-1,1s-1-.448-1-1,.448-1,1-1,1,.448,1,1Zm-6,0c0,.552-.448,1-1,1s-1-.448-1-1,.448-1,1-1,1,.448,1,1Zm12,0c0,.552-.448,1-1,1s-1-.448-1-1,.448-1,1-1,1,.448,1,1Zm6,0c0,.552-.448,1-1,1s-1-.448-1-1,.448-1,1-1,1,.448,1,1Zm-12,6c0,.552-.448,1-1,1s-1-.448-1-1,.448-1,1-1,1,.448,1,1Zm-6,0c0,.552-.448,1-1,1s-1-.448-1-1,.448-1,1-1,1,.448,1,1Zm12,0c0,.552-.448,1-1,1s-1-.448-1-1,.448-1,1-1,1,.448,1,1Zm6,0c0,.552-.448,1-1,1s-1-.448-1-1,.448-1,1-1,1,.448,1,1Zm-9-3c0,.552-.448,1-1,1s-1-.448-1-1,.448-1,1-1,1,.448,1,1Zm6,0c0,.552-.448,1-1,1s-1-.448-1-1,.448-1,1-1,1,.448,1,1Z"/>
</svg>
