<?xml version="1.0" encoding="UTF-8"?>
<svg xmlns="http://www.w3.org/2000/svg" id="Layer_1" data-name="Layer 1" viewBox="0 0 24 24">
  <path d="M6,13H14.106l-.583,1H6v-1Zm0,4h5.772l.583-1H6v1Zm4.004,7h4.496v-1h-2.754l5.254-9.008,5.255,9.008h-2.755v1h4.495l-6.995-11.993-6.996,11.993Zm7.496-7h-1v4h1v-4Zm-.5,5c-.552,0-1,.448-1,1s.448,1,1,1,1-.448,1-1-.448-1-1-1Zm7-10C24,5.383,18.617,0,12,0S0,5.383,0,12v12H7.689s.583-1,.583-1H1s0-11,0-11C1,5.934,5.935,1,12,1s11,4.934,11,11c0,0,0,0,0,0,0,1.638-.37,3.188-1.014,4.585l.607,1.041c.896-1.679,1.407-3.593,1.407-5.626h0s0,0,0,0ZM6,7v1h12v-1H6Zm0,4h12v-1H6v1Z"/>
</svg>
