<?xml version="1.0" encoding="UTF-8"?>
<svg xmlns="http://www.w3.org/2000/svg" id="Layer_1" data-name="Layer 1" viewBox="0 0 24 24">
  <path d="m12,0C5.383,0,0,5.383,0,12s5.383,12,12,12,12-5.383,12-12S18.617,0,12,0Zm10.974,11.254c-1.27.852-2.532,1.364-3.975,1.597-.036-4.11-1.581-8.152-4.384-11.536,4.574,1.119,8.034,5.106,8.359,9.939ZM12,1c.354,0,.704.017,1.05.05,3.185,3.406,4.94,7.629,4.95,11.915-.323.023-.655.035-1,.035-1.697,0-3.193-.703-4.505-1.32-.104-3.852-2.074-7.437-5.244-9.601,1.438-.691,3.049-1.079,4.749-1.079ZM1,12c0-3.961,2.105-7.439,5.254-9.377,1.266.779,2.344,1.798,3.186,2.977-3.847,2.573-6.491,5.893-7.875,9.884-.367-1.095-.566-2.267-.566-3.484Zm1.165,4.922c1.184-4.274,3.814-7.799,7.82-10.482.928,1.583,1.463,3.396,1.511,5.277-3.343,2.03-5.48,5.73-5.52,9.482-1.617-1.062-2.938-2.539-3.811-4.277Zm9.835,6.078c-1.804,0-3.508-.437-5.012-1.21-.091-1.722.341-3.485,1.172-5.066,2.014,1.341,4.824,2.272,7.33,2.272,1.117,0,3.844-.227,5.514-.684-1.992,2.833-5.285,4.688-9.004,4.688Zm3.51-5.004c-2.349-.048-4.982-.877-6.845-2.136.858-1.323,2.007-2.473,3.362-3.296,1.346.633,3.053,1.435,4.973,1.435,2.297,0,4.182-.49,5.991-1.573-.063,1.652-.492,3.213-1.209,4.602-2.029.686-4.14,1.01-6.271.967Z"/>
</svg>
