<svg id="Layer_1" viewBox="0 0 24 24" xmlns="http://www.w3.org/2000/svg" data-name="Layer 1"><path d="m22.404 10.54 1.289-1.367c-.183 1.13-.442 2.287-.802 3.472-1.373 4.487-3.664 8.496-5.381 11.355h-3.51v-9c0-1.103-.897-2-2-2s-2 .897-2 2v9h-3.51c-3.025-5.027-6.48-11.54-6.49-18.273 0-.057.065-5.727 5.728-5.727 1.797 0 2.937.33 3.941.622.785.228 1.463.424 2.332.424s1.546-.196 2.332-.424c.266-.077.55-.155.846-.231l-.454 1.159c-.874.251-1.664.495-2.723.495-1.011 0-1.788-.225-2.61-.463-.987-.286-2.007-.582-3.663-.582-4.656 0-4.728 4.535-4.729 4.728 0 6.257 3.204 12.491 6.057 17.272h1.943v-8c0-1.654 1.346-3 3-3s3 1.346 3 3v8h1.943c1.581-2.649 3.747-6.548 4.991-10.645.187-.614.336-1.217.47-1.815zm1.36-4.358-5.486 5.818h-1.5l1.5-4h-1.855c-.455 0-.872-.209-1.143-.575s-.351-.824-.219-1.26l.013-.038 2.405-6.127h4.908l-1.641 4h1.848c.519 0 .993.284 1.238.741s.219 1.009-.067 1.441zm-.814-.969c-.035-.064-.138-.213-.357-.213h-3.339l1.641-4h-2.735l-2.146 5.47c-.033.125-.008.255.07.359.081.109.204.171.339.171h3.298l-1.254 3.343 4.517-4.781c.067-.115 0-.285-.034-.349z"/></svg>