<svg id="Layer_1" viewBox="0 0 24 24" xmlns="http://www.w3.org/2000/svg" data-name="Layer 1"><path d="m9.182 16.613 1.733 2.579-.83.558-1.71-2.545c-.355.216-.748.403-1.185.54l.66 2.94-.976.219-.662-2.949c-.229.028-.464.046-.712.046-.259 0-.505-.021-.744-.051l-.64 2.949-.978-.212.64-2.949c-.425-.136-.807-.321-1.154-.532l-1.71 2.545-.83-.558 1.733-2.579c-.997-.87-1.556-1.913-1.773-2.386l.909-.416c.342.748 1.682 3.189 4.545 3.189s4.203-2.441 4.545-3.189l.909.416c-.216.473-.775 1.516-1.773 2.386zm14.818-10.613v1h-1v2h-1v-2h-1v2h-1v-2h-1v2h-1v-2h-1v2h-1v-2h-6v3h-8c-1.103 0-2-.897-2-2v-3c0-1.103.897-2 2-2h8v3h6v-2h1v2h1v-2h1v2h1v-2h1v2h1v-2h1v2zm-15-2h-7c-.551 0-1 .449-1 1v3c0 .551.449 1 1 1h7zm14.955 10.227-.909-.416c-.342.748-1.682 3.189-4.545 3.189s-4.203-2.441-4.545-3.189l-.909.416c.216.473.775 1.516 1.773 2.386l-1.733 2.579.83.558 1.71-2.545c.347.211.729.396 1.154.532l-.64 2.949.978.212.64-2.949c.239.03.484.051.744.051.248 0 .483-.018.712-.046l.662 2.949.976-.219-.66-2.94c.437-.137.83-.324 1.185-.54l1.71 2.545.83-.558-1.733-2.579c.997-.87 1.556-1.913 1.773-2.386z"/></svg>