<svg id="Layer_1" viewBox="0 0 24 24" xmlns="http://www.w3.org/2000/svg" data-name="Layer 1"><path d="m17.5 0c-3.584 0-6.5 2.916-6.5 6.5s2.916 6.5 6.5 6.5 6.5-2.916 6.5-6.5-2.916-6.5-6.5-6.5zm0 12c-3.032 0-5.5-2.467-5.5-5.5s2.468-5.5 5.5-5.5 5.5 2.467 5.5 5.5-2.468 5.5-5.5 5.5zm.5-9.593-3.589 3.102c-.267.268-.413.625-.412 1.004.002.378.149.733.417.999l3.584 3.075v-3.587h3v-1h-3zm-1 6.005-1.89-1.62c-.071-.076-.11-.176-.111-.282 0-.112.043-.217.094-.27l1.907-1.648zm-5 12.587v3h-1v-3c0-1.103-.897-2-2-2h-6c-1.103 0-2 .897-2 2v3h-1v-3c0-1.654 1.346-3 3-3h6c1.654 0 3 1.346 3 3zm-6-5c2.206 0 4-1.794 4-4s-1.794-4-4-4-4 1.794-4 4 1.794 4 4 4zm0-7c1.654 0 3 1.346 3 3s-1.346 3-3 3-3-1.346-3-3 1.346-3 3-3z"/></svg>