<svg id="Layer_1" viewBox="0 0 24 24" xmlns="http://www.w3.org/2000/svg" data-name="Layer 1"><path d="m23.874.563-.047-.389-.389-.047c-.441-.053-10.884-1.246-16.72 4.59-5.424 5.422-4.779 14.815-4.617 16.475l-2.084 2.084.707.707 2.084-2.084c.411.04 1.291.109 2.47.109 3.591 0 9.925-.645 14.005-4.726 5.836-5.835 4.644-16.278 4.591-16.719zm-1.021 5.437h-4.145l4.25-4.251c.048.955.066 2.475-.106 4.251zm-14.145 10 4-4h8.768c-.566 1.431-1.341 2.804-2.384 4h-10.385zm-.707-11.091c1.196-1.043 2.569-1.818 4-2.384v8.768l-4 4zm5 5.384v-8.133c1.353-.444 2.718-.724 4-.896v5.029zm.707.707 4-4h5.029c-.172 1.282-.452 2.647-.896 4h-8.134zm8.543-9.958-4.251 4.251v-4.145c1.776-.172 3.296-.154 4.251-.106zm-15.251 4.856v10.395l-3.958 3.958c-.134-2.681-.059-9.854 3.958-14.353zm-3.251 15.06 3.958-3.958h10.395c-4.499 4.017-11.672 4.09-14.352 3.958z"/></svg>