<?xml version="1.0" encoding="UTF-8"?>
<svg xmlns="http://www.w3.org/2000/svg" id="Layer_1" data-name="Layer 1" viewBox="0 0 24 24">
  <path d="M11,13.5v1.5h-2.396l-.793,3.987c-.231,1.166-1.263,2.013-2.452,2.013H3v3H0v-1H2v-3h3.358c.713,0,1.333-.508,1.472-1.208l.953-4.792h2.217v-.395c-1.178-2.62-2.693-7.071-4.07-8.79l.003-.002c-.004-.005-.01-.007-.014-.012C4.427,2.81,2.326,1.504,0,1.018V0C2.635,.497,5.021,1.945,6.707,4.187h0c1.476,1.815,4.293,9.313,4.293,9.313ZM24,2V11H13V4.179l-1.755-2.14c-.63-.811,.049-2.095,1.056-2.039h9.699c1.103,0,2,.897,2,2Zm-1,0c0-.552-.448-1-1-1H12.286c-.258,.037-.338,.206-.247,.432l1.961,2.39v6.179h9V2Zm-3.116,1.147l1.38,5.853h-1.027l-.472-2h-2.625l-.458,2h-1.026l1.33-5.804c.135-.686,.763-1.218,1.455-1.196,.689,0,1.287,.475,1.443,1.147Zm-.355,2.853l-.619-2.624c-.115-.504-.866-.507-.95,.046l-.591,2.578h2.16Zm2.471,6.999h-7c-1.103,0-2,.897-2,2v4.821l-1.775,2.167c-.604,.776,.089,2.077,1.061,2.012h11.714V14.999c0-1.103-.897-2-2-2Zm1,10H12.271c-.249-.033-.304-.211-.252-.404l1.981-2.417v-5.179c0-.552,.448-1,1-1h7c.552,0,1,.448,1,1v8Zm-3.654-2.574c.674,.347,1.536,.574,2.654,.574v1c-1.522,0-2.654-.36-3.501-.894-.848,.533-1.978,.894-3.499,.894v-1c1.118,0,1.976-.228,2.65-.572-.763-.763-1.176-1.675-1.394-2.429h1.028c.21,.605,.588,1.286,1.224,1.849,1.038-.92,1.358-2.163,1.451-2.849h-4.959v-1h3v-1h1v1h3v1h-1.042c-.1,.767-.45,2.265-1.612,3.426Z"/>
</svg>
