<?xml version="1.0" encoding="UTF-8"?>
<svg xmlns="http://www.w3.org/2000/svg" id="Layer_1" data-name="Layer 1" viewBox="0 0 24 24">
  <path d="M20.5,5c1.378,0,2.5-1.122,2.5-2.5s-1.122-2.5-2.5-2.5-2.5,1.122-2.5,2.5,1.122,2.5,2.5,2.5Zm0-4c.827,0,1.5,.673,1.5,1.5s-.673,1.5-1.5,1.5-1.5-.673-1.5-1.5,.673-1.5,1.5-1.5Zm2.911,13.382l.512-.859-3.488-2.075,1.411-2.646c.258-.79,.19-1.514-.192-2.041-.356-.491-.945-.762-1.659-.762h-.354c-1.173,0-2.314,.335-3.31,.975l-6.109,4.11,.559,.83,6.101-4.104c.17-.109,.348-.201,.528-.289l-3.195,6.174c-.47,1.066-.149,2.302,.825,3.034l5.17,3.096-2.205,4.173h1.131l2.402-4.544s-4.072-2.437-4.072-2.437l2.5-4.687,3.448,2.051Zm-7.814,1.52c-.558-.421-.75-1.163-.482-1.774l3.646-7.043c.289-.051,.582-.085,.88-.085h.354c.385,0,.687,.124,.85,.349,.189,.26,.207,.666,.085,1.062l-4.325,8.094-1.008-.603Zm-7.085-2.508c.58-.87,.638-2.461,.144-3.967l-.141-.431-4.519,1.004,.296,.576c.542,1.055,1.158,2.124,1.856,2.781-2.737,1.266-6.147,5.679-6.147,7.923,0,.852,.219,1.483,.669,1.93,.815,.809,2.169,.8,3.74,.786,.534-.006,1.205,.001,1.735,.003,1.333,0,2.47-.077,3.187-.789,.45-.447,.669-1.078,.669-1.93,0-4.453-.469-6.979-1.489-7.887Zm-3.026-2.7l2.344-.521c.291,1.179,.16,2.21-.153,2.673-.031,.046-.111,.154-.176,.154-.288,0-.917-.315-2.014-2.306Zm3.141,11.807c-.519,.515-1.684,.508-3.027,.496-.298-.003-.9-.003-1.198,0-1.346,.01-2.508,.019-3.027-.496-.251-.25-.374-.649-.374-1.221,0-2.116,4.265-7.281,6.5-7.281,.352,0,1.5,.525,1.5,7.281,0,.572-.122,.971-.374,1.221Zm5.267-4.319l.863,.51-2.766,5.308h-1.12l3.022-5.817Z"/>
</svg>
