<?xml version="1.0" encoding="UTF-8"?>
<svg xmlns="http://www.w3.org/2000/svg" id="Layer_1" data-name="Layer 1" viewBox="0 0 24 24">
  <path d="M3,20H7v1H3v-1ZM7,6c0,1.103-.897,2-2,2s-2-.897-2-2,.897-2,2-2,2,.897,2,2Zm-1,0c0-.551-.449-1-1-1s-1,.449-1,1,.449,1,1,1,1-.449,1-1Zm-3,13H7v-1H3v1ZM14,11V7h-4v14h3.058c-.651-.636-1.058-1.52-1.058-2.5v-3.5h9.5c.827,0,1.5,.673,1.5,1.5,.084,1.315-1.164,2.169-2.111,2.833-.159,.643-.488,1.218-.947,1.667h2.058v3H0V2.5C0,1.122,1.122,0,2.5,0H19.5c1.378,0,2.5,1.122,2.5,2.5V7h-3v2h5v1h-5v1h-5Zm7,7c.522-.336,1.027-.832,1-1.5,0-.276-.224-.5-.5-.5h-.5v2Zm-3-11h-3v3h3v-3Zm-2.5,14h2c1.378,0,2.5-1.122,2.5-2.5v-2.5h-7v2.5c0,1.378,1.122,2.5,2.5,2.5Zm5.5-15V2.5c0-.827-.673-1.5-1.5-1.5H2.5c-.827,0-1.5,.673-1.5,1.5V23H21v-1H9V6h12ZM3,17H7v-1H3v1Z"/>
</svg>
