<?xml version="1.0" encoding="UTF-8"?>
<svg xmlns="http://www.w3.org/2000/svg" id="Layer_1" data-name="Layer 1" viewBox="0 0 24 24">
  <path d="m12.136,16.98c.203-.824.636-1.557,1.257-2.057.735-.592,1.415-1.341,2.026-2.166-.339-.085-.677-.19-1.011-.319-.498.639-1.046,1.227-1.642,1.706-.984.792-1.602,1.967-1.737,3.308-.019.18-.028.361-.028.543v3.027c0,.884.274,1.523.672,1.978h-3.364c.397-.454.671-1.093.671-1.976l.012-3.031c.006-1.542-.634-2.945-1.756-3.848-2.451-1.975-4.143-5.732-4.561-7.77-.068-.332.018-.674.234-.94.226-.276.559-.435.915-.435h6.558l.553-1H3.823c-.658,0-1.274.292-1.69.803-.407.5-.567,1.146-.439,1.773.149.727.422,1.559.777,2.418-1.389.188-2.47,1.443-2.47,2.976,0,2.703,2.114,5.838,7.99,6.013l-.011,3.039c0,1.905-1.778,1.976-1.979,1.978h-1v1h10v-1h-1.02c-.202-.002-1.98-.073-1.98-1.978v-3.037c5.503-.161,7.707-2.92,7.969-5.496-.39.116-1.039.308-1.056.313-.416,1.996-2.36,4.001-6.777,4.179ZM1,11.97c0-1.11.818-2.014,1.823-2.014h.075c.901,1.862,2.193,3.745,3.709,4.967.623.502,1.055,1.236,1.254,2.058-5.036-.196-6.862-2.677-6.862-5.011Zm23.001-4.971l-3.44-5.979c-.191-.334-.473-.606-.813-.786-.342-.18-.726-.262-1.108-.228l-6.878.54,1.718,2.985-1.957,3.54c.022.073.638,1.991,2.859,3.162,1.171.617,2.204.767,2.931.767.651,0,1.248-.18,1.282-.19l1.957-3.539,2.449-.192v4.922h1v-5h-.011.012Zm-6.076,2.953c-.438.076-1.607.17-3.077-.605-1.459-.769-2.045-1.777-2.233-2.187l1.447-2.618,1.14,1.982c.193.335.476.607.814.785.292.155.725.257,1.108.229l2.233-.175-1.432,2.589Zm-.878-3.411c-.193.017-.392-.024-.564-.116-.173-.091-.315-.229-.414-.4l-2.651-4.607,5.3-.416c.194-.019.391.024.563.116.173.091.315.229.413.399l2.651,4.607-5.298.416Z"/>
</svg>
