<?xml version="1.0" encoding="UTF-8"?>
<svg xmlns="http://www.w3.org/2000/svg" id="Layer_1" data-name="Layer 1" viewBox="0 0 24 24">
  <path d="M18,12c-3.309,0-6,2.691-6,6s2.691,6,6,6,6-2.691,6-6-2.691-6-6-6Zm5,6c0,1.198-.441,2.285-1.147,3.147l-7-7c.862-.705,1.948-1.146,3.146-1.146,2.757,0,5,2.243,5,5Zm-10,0c0-1.198,.441-2.285,1.147-3.147l7,7c-.862,.705-1.948,1.146-3.146,1.146-2.757,0-5-2.243-5-5Zm-4-6c3.309,0,6-2.691,6-6S12.309,0,9,0,3,2.691,3,6s2.691,6,6,6Zm0-11c2.757,0,5,2.243,5,5s-2.243,5-5,5-5-2.243-5-5S6.243,1,9,1Zm2.079,13c-.185,.319-.344,.654-.483,1H4.5c-1.93,0-3.5,1.57-3.5,3.5v5.5H0v-5.5c0-2.481,2.019-4.5,4.5-4.5h6.579Z"/>
</svg>
