<svg id="Layer_1" viewBox="0 0 24 24" xmlns="http://www.w3.org/2000/svg" data-name="Layer 1"><path d="m3.939 7.146c1.102 1.101 3.02 1.101 4.121 0l.707.707c-.739.739-1.722 1.146-2.768 1.146s-2.028-.407-2.768-1.146l.707-.707zm.061-1.146c.552 0 1-.448 1-1s-.448-1-1-1-1 .448-1 1 .448 1 1 1zm4 0c.552 0 1-.448 1-1s-.448-1-1-1-1 .448-1 1 .448 1 1 1zm5 3c-.552 0-1 .448-1 1s.448 1 1 1 1-.448 1-1-.448-1-1-1zm9.861 1.718c-1.066-2.563-2.087-5.001-3.155-6.331-2.043-2.718-5.114-4.269-8.411-4.372.38.337.727.708 1.038 1.11 2.586.361 4.953 1.697 6.585 3.875.981 1.214 2.023 3.706 3.021 6.101.354.851.708 1.702 1.062 2.504v.395h-2.217l-.953 4.792c-.14.7-.759 1.208-1.472 1.208h-3.358v3h-11.001v-3.349c0-.807-.279-1.588-.786-2.2-1.195-1.443-1.92-3.239-2.141-5.157-.387-.303-.743-.641-1.068-1.009.047 2.526.886 4.93 2.439 6.804.358.433.556.988.556 1.562v4.349h13v-3h2.358c1.188 0 2.22-.846 2.452-2.012l.793-3.988h2.396v-1.5s-.773-1.904-1.139-2.782zm-9.8 3.136.707-.707c-1.48-1.479-4.055-1.479-5.535 0l.707.707c1.102-1.101 3.02-1.101 4.121 0zm-6.089.081c-.381.044-.776.082-1.166.055 1.038 1.796 2.975 3.01 5.194 3.01 3.309 0 6-2.691 6-6 0-2.219-1.214-4.156-3.01-5.194.027.39-.011.785-.055 1.166 1.245.91 2.065 2.371 2.065 4.028 0 2.757-2.243 5-5 5-1.657 0-3.118-.82-4.028-2.065zm-6.972-7.935c0-3.309 2.691-6 6-6s6 2.691 6 6-2.691 6-6 6-6-2.691-6-6zm1 0c0 2.757 2.243 5 5 5s5-2.243 5-5-2.243-5-5-5-5 2.243-5 5z"/></svg>