<svg id="Layer_1" viewBox="0 0 24 24" xmlns="http://www.w3.org/2000/svg" data-name="Layer 1"><path d="m8 14h-1v-3h1zm4-8h3v10.5c0 1.378-1.122 2.5-2.5 2.5h-10c-1.378 0-2.5-1.122-2.5-2.5v-10.5h3v-1.5c0-2.481 2.019-4.5 4.5-4.5s4.5 2.019 4.5 4.5zm-8 0h7v-1.5c0-1.93-1.57-3.5-3.5-3.5s-3.5 1.57-3.5 3.5zm10 1h-13v9.5c0 .827.673 1.5 1.5 1.5h10c.827 0 1.5-.673 1.5-1.5zm8.5 1h-5.5v-1h4.5v-3.071c-.86-.224-1.5-1-1.5-1.929 0-1.103.897-2 2-2s2 .897 2 2c0 .929-.64 1.705-1.5 1.929zm-.5-5c.551 0 1-.449 1-1s-.449-1-1-1-1 .449-1 1 .449 1 1 1zm2 19c0 1.103-.897 2-2 2s-2-.897-2-2c0-.929.64-1.705 1.5-1.929v-3.071h-4.5v-1h5.5v4.071c.86.224 1.5 1 1.5 1.929zm-1 0c0-.551-.449-1-1-1s-1 .449-1 1 .449 1 1 1 1-.449 1-1zm1-10c0 1.103-.897 2-2 2-.929 0-1.705-.64-1.929-1.5h-3.071v-1h3.071c.224-.86 1-1.5 1.929-1.5 1.103 0 2 .897 2 2zm-1 0c0-.551-.449-1-1-1s-1 .449-1 1 .449 1 1 1 1-.449 1-1z"/></svg>