<svg id="Layer_1" viewBox="0 0 24 24" xmlns="http://www.w3.org/2000/svg" data-name="Layer 1"><path d="m19.218 3.04c-1.89-1.932-4.521-3.04-7.218-3.04-5.514 0-9.999 4.485-9.999 9.999.072 4.935 6.18 10.887 10.055 13.876 4.399-3.676 9.836-9.145 9.943-13.865.058-2.602-.931-5.078-2.781-6.97zm-7.215 19.568c-2.907-2.468-9.002-8.171-9.002-12.609 0-4.962 4.037-8.999 8.999-8.999 2.43 0 4.8.999 6.502 2.739 1.662 1.699 2.549 3.918 2.497 6.249-.096 4.319-5.506 9.631-8.996 12.621zm1.997-17.608h-4v3h-3v4h3v3h4v-3h3v-4h-3zm2 4v2h-3v3h-2v-3h-3v-2h3v-3h2v3z"/></svg>