<svg id="Layer_1" viewBox="0 0 24 24" xmlns="http://www.w3.org/2000/svg" data-name="Layer 1"><path d="m1 23h9v1h-10v-21.5c0-1.379 1.122-2.5 2.5-2.5h13c1.378 0 2.5 1.121 2.5 2.5v2.5h-1v-2.5c0-.827-.673-1.5-1.5-1.5h-13c-.827 0-1.5.673-1.5 1.5zm20.5-16h-7c-1.071 0-1.98.681-2.335 1.63l.838.838c.018-.812.681-1.468 1.497-1.468h7c.827 0 1.5.673 1.5 1.5v13.5h-10v-3h-1v4h12v-14.5c0-1.379-1.122-2.5-2.5-2.5zm-11.5-3h-4.5c-.827 0-1.5.673-1.5 1.5v4.5h1v-4.293l11.293 11.293h-4.293v1h4.5c.827 0 1.5-.673 1.5-1.5v-4.5h-1v4.293l-11.293-11.293h4.293zm-3 16h3v-1h-3z"/></svg>