<?xml version="1.0" encoding="UTF-8"?>
<svg xmlns="http://www.w3.org/2000/svg" id="Layer_1" data-name="Layer 1" viewBox="0 0 24 24">
  <path d="M24,12h-1c0-6.065-4.935-11-11-11-3.712,0-7.169,1.91-9.193,5H7v1H2.5c-.827,0-1.5-.673-1.5-1.5V1h1V5.412C4.211,2.067,7.967,0,12,0c6.617,0,12,5.383,12,12Zm-2.5,5h-4.5v1h4.194c-2.024,3.089-5.482,5-9.194,5-6.065,0-11-4.935-11-11H0c0,6.617,5.383,12,12,12,4.033,0,7.789-2.067,10-5.412v4.412h1v-4.5c0-.827-.673-1.5-1.5-1.5ZM11.556,4.221l-3.508,6.842c-.104,.341-.04,.701,.172,.987,.213,.286,.539,.45,.896,.45h5.78c.041,0,.071,.019,.091,.054,.02,.037,.018,.072-.031,.152l-3.398,6.521,.887,.463,3.372-6.478c.225-.339,.245-.773,.052-1.131-.192-.359-.564-.582-.972-.582h-5.78c-.048,0-.076-.025-.092-.047-.016-.021-.03-.057-.053-.018l3.474-6.758-.889-.457Z"/>
</svg>
