<svg id="Layer_1" viewBox="0 0 24 24" xmlns="http://www.w3.org/2000/svg" data-name="Layer 1"><path d="m16.5 14h-9c-2.481 0-4.5 2.019-4.5 4.5v5.5h1v-5.5c0-1.93 1.57-3.5 3.5-3.5h.5v3.064c-.871.216-1.521.998-1.521 1.936 0 1.103.897 2 2 2s2-.897 2-2c0-.921-.63-1.691-1.479-1.922v-3.078h6v3.551c-1.14.232-2 1.242-2 2.449v3h1v-3c0-.827.673-1.5 1.5-1.5s1.5.673 1.5 1.5v3h1v-3c0-1.207-.86-2.217-2-2.449v-3.551h.5c1.93 0 3.5 1.57 3.5 3.5v5.5h1v-5.5c0-2.481-2.019-4.5-4.5-4.5zm-7.021 6c0 .551-.448 1-1 1s-1-.449-1-1 .448-1 1-1 1 .449 1 1zm-3.322-12.656c.612 2.663 2.997 4.656 5.843 4.656 1.751 0 3.328-.754 4.426-1.953-.105-.444-.202-.856-.292-1.238-.901 1.321-2.418 2.191-4.134 2.191-2.415 0-4.435-1.722-4.899-4.002h.914c3.167-.094 5.881-2.214 6.808-5.207 1.127.674 2.009 1.734 2.425 3.058.032.107.757 3.178 1.818 7.68.423.183.821.412 1.192.676-.944-4.022-1.978-8.407-2.055-8.656-.854-2.722-3.347-4.55-6.202-4.55s-5.349 1.83-6.203 4.551c-.078.248-1.111 4.633-2.055 8.656.371-.264.769-.493 1.192-.676.492-2.09.911-3.866 1.223-5.186zm5.843-6.344c.672 0 1.316.131 1.917.353-.757 2.664-3.142 4.563-5.918 4.644l-1.523.002c.167-.702.265-1.112.276-1.15.723-2.303 2.832-3.85 5.248-3.85z"/></svg>