<svg id="Layer_1" viewBox="0 0 24 24" xmlns="http://www.w3.org/2000/svg" data-name="Layer 1"><path d="m17.105 15.365-3.668-2.87c-.846-.662-2.028-.664-2.876 0l-3.667 2.869c-.568.446-.895 1.116-.895 1.837v6.797h12v-6.797c0-.722-.326-1.392-.895-1.837zm-.105 7.635h-10v-5.797c0-.413.187-.795.511-1.05l3.667-2.869c.484-.379 1.161-.378 1.644 0l3.668 2.869c.324.255.511.638.511 1.05v5.797zm7-10.5c0 2.853-1.68 5.448-4 6.696v-1.151c1.763-1.157 3-3.255 3-5.545.01-3.645-3.088-6.608-6.723-6.5-.813-2.941-3.467-5.01-6.527-5-3.722 0-6.75 3.028-6.75 6.75-.009.908.212 1.831.554 2.691-1.542.796-2.569 2.325-2.554 4.059 0 1.953 1.258 3.602 3 4.224v1.063c-2.305-.655-4-2.775-4-5.287 0-1.803.869-3.451 2.345-4.484-.229-.743-.345-1.503-.345-2.266 0-4.273 3.477-7.75 7.75-7.75 3.249 0 6.12 2.004 7.253 5.023 3.89.261 6.997 3.544 6.997 7.477zm-11 8.5c0 .552-.448 1-1 1s-1-.448-1-1 .448-1 1-1 1 .448 1 1zm-1-5c1.336 0 2.591.52 3.535 1.464l-.707.707c-1.51-1.511-4.146-1.511-5.656 0l-.707-.707c.944-.944 2.199-1.464 3.535-1.464zm2.121 2.879-.707.707c-.779-.779-2.049-.779-2.828 0l-.707-.707c1.17-1.17 3.072-1.17 4.242 0z"/></svg>