<svg id="Layer_1" viewBox="0 0 24 24" xmlns="http://www.w3.org/2000/svg" data-name="Layer 1"><path d="m9 13.481v-.945l-1-1v2.681l-.671.846c-.337.421-.422.993-.222 1.494l1 2.5c.301.752 1.205 1.138 1.95.836.768-.307 1.143-1.182.855-1.891l-.343-1.304 1.482-1.112-1.086-1.086zm.431 2.821.534 2.013c.105.247-.027.556-.278.65-.25.1-.551-.028-.65-.279l-1-2.5c-.067-.167-.039-.357.075-.5l.865-1.091 1.614.837zm6.325 2.989c-.359.603-1.157.879-1.813.602-.753-.283-1.151-1.207-.835-1.949l.269-1.032.817.817-.139.527c-.125.314-.02.586.26.708.245.103.549-.027.65-.279l.053-.132zm-3.756-19.291c-6.617 0-12 5.383-12 12s5.383 12 12 12 12-5.383 12-12-5.383-12-12-12zm-11 12c0-2.853 1.101-5.447 2.889-7.404l15.515 15.515c-1.957 1.788-4.551 2.889-7.404 2.889-6.065 0-11-4.935-11-11zm11-3c-1.103 0-2-.897-2-2s.897-2 2-2 2 .897 2 2-.897 2-2 2zm0 1.2 5.813-2.165c.261-.101.549.023.651.278.102.256-.023.548-.349.685l-3.116 1.849v3.446l-4.741-4.741 1.741.648zm8.111 9.204-3.144-3.144c.074-.42-.023-.857-.295-1.196l-.673-.848v-2.801l2.558-1.523c.768-.308 1.142-1.182.835-1.95-.307-.767-1.181-1.143-1.938-.84l-2.668.993c.134-.34.214-.708.214-1.095 0-1.654-1.346-3-3-3s-3 1.346-3 3c0 .387.08.755.214 1.096l-.64-.229-3.978-3.978c1.957-1.788 4.551-2.889 7.404-2.889 6.065 0 11 4.935 11 11 0 2.853-1.101 5.447-2.889 7.404z"/></svg>