<?xml version="1.0" encoding="UTF-8"?>
<svg xmlns="http://www.w3.org/2000/svg" id="Layer_1" data-name="Layer 1" viewBox="0 0 24 24">
  <path d="M2.5,5l-.833-1.667-1.667-.833,1.667-.833,.833-1.667,.833,1.667,1.667,.833-1.667,.833-.833,1.667Zm11.088,13.843l.383,2.822c.24,1.162-.771,2.371-1.971,2.335-1.212,.03-2.212-1.171-1.968-2.356l.357-2.802c-3.987-.765-7.063-4.312-7.356-8.662l1.057,.523c.507,3.778,3.356,6.759,6.932,7.226,.659,.087,1.301,.087,1.956,.001,3.951-.515,7.023-4.096,7.023-8.43,0-4.687-3.589-8.5-8-8.5-1.86,0-3.57,.684-4.93,1.82l-.456-.913c1.504-1.192,3.365-1.907,5.386-1.907,4.963,0,9,4.262,9,9.5,0,4.665-3.205,8.548-7.412,9.343Zm-1.579,.157c-.204,.001-.407-.008-.629-.026l-.359,2.822c-.058,.318,.021,.617,.212,.845,.381,.457,1.154,.457,1.535,0,.19-.228,.27-.526,.216-.819l-.387-2.846c-.206,.016-.396,.024-.588,.024ZM4.377,8.373l-2.245-1.123,2.245-1.123,1.123-2.245,1.123,2.245,2.245,1.123-2.245,1.123-1.123,2.245-1.123-2.245Zm-.009-1.123l.755,.377,.377,.755,.377-.755,.755-.377-.755-.377-.377-.755-.377,.755-.755,.377Z"/>
</svg>
