<?xml version="1.0" encoding="UTF-8"?>
<svg xmlns="http://www.w3.org/2000/svg" id="Layer_1" data-name="Layer 1" viewBox="0 0 24 24">
  <path d="m24,18.5c0-.691-.473-1.269-1.11-1.442.07-.173.11-.36.11-.558,0-.827-.673-1.5-1.5-1.5h-3.5v-.482l.459-.468c.665-.644.722-1.705.127-2.415s-1.649-.842-2.415-.287l-3.387,2.652h-1.784V5h-1V0h-1v5H2V0h-1v5H0v12.5c0,3.584,2.916,6.5,6.5,6.5h14c.827,0,1.5-.673,1.5-1.5,0-.176-.036-.343-.092-.5h.092c.827,0,1.5-.673,1.5-1.5,0-.269-.077-.517-.201-.735.42-.266.701-.732.701-1.265Zm-1.5.5h-4.5v-1h4.5c.275,0,.5.225.5.5s-.225.5-.5.5Zm-5.5-4v5.153l-5.503-5.153h5.503Zm-6.277.645l6.277,5.878v1.477h-3.337l-5.39-5.041,2.45-2.314Zm10.777.355c.275,0,.5.225.5.5s-.225.5-.5.5h-3.5v-1h3.5Zm-4.728-3.853c.327-.239.788-.179,1.047.13.26.31.235.773-.065,1.064l-.646.659h-2.701l2.366-1.853ZM1,17.5v-4.06l8.13-7.44h.87v3.381L1.006,17.61c0-.037-.006-.073-.006-.11ZM7.649,6L1,12.083v-6.083h6.649ZM1.167,18.819l8.833-8.081v4.214l-7.094,6.702c-.845-.732-1.462-1.716-1.739-2.834Zm2.568,3.427l3.809-3.599,4.654,4.352h-5.698c-1.009,0-1.952-.278-2.765-.754Zm17.265.254c0,.275-.225.5-.5.5h-2.5v-1h2.5c.275,0,.5.225.5.5Zm1-1.5h-4v-1h4c.275,0,.5.225.5.5s-.225.5-.5.5Z"/>
</svg>
