<svg id="Layer_1" viewBox="0 0 24 24" xmlns="http://www.w3.org/2000/svg" data-name="Layer 1"><path d="m7.143 9.698c-.092.092-.143.215-.143.346s.051.253.143.345l2.734 2.734-.707.707-2.734-2.734c-.281-.281-.436-.655-.436-1.052s.155-.771.436-1.053l2.778-2.777.707.707zm7.003 3.448.707.707 2.757-2.757c.58-.58.58-1.524 0-2.105l-2.801-2.801-.707.707 2.801 2.801c.191.19.191.5 0 .691zm9.854.354c0 .668-.26 1.295-.732 1.768l-8.732 8.732h-3.536v-3.535l8.732-8.732c.943-.944 2.592-.944 3.535 0 .472.472.732 1.1.732 1.768zm-1 0c0-.4-.156-.777-.439-1.061-.566-.566-1.555-.566-2.121 0l-8.439 8.439v2.121h2.122l8.439-8.439c.283-.283.439-.66.439-1.061zm-13.293 3.5-1-1h-5.707v-12h18v5.073c.167-.018.331-.049.5-.049s.333.03.5.049v-6.073h-20v13h-2v2.5c0 1.379 1.122 2.5 2.5 2.5h6.5v-1h-6.5c-.827 0-1.5-.673-1.5-1.5v-1.5h7.293l1 1h1.344l1-1z"/></svg>