<svg id="Layer_1" viewBox="0 0 24 24" xmlns="http://www.w3.org/2000/svg" data-name="Layer 1"><path d="m19.963 13.091c-.389-.222-.891-.442-1.478-.661 1.459-.118 3.191-.456 5.484-1.377l-.373-.928c-1.87.751-3.345 1.092-4.605 1.245.369-.153.701-.308.972-.463 3.005-1.814 2.486-4.492 2.451-4.854-.291-.213-2.341-2.022-5.427-.356-.401.229-.862.563-1.367.975.95-1.46 2.272-3.089 4.448-4.849l-.629-.777c-2.216 1.793-3.585 3.452-4.569 4.941.084-.551.13-1.036.13-1.444-.085-3.508-2.669-4.386-3-4.535-.329.147-2.916 1.028-3 4.536 0 .543.079 1.22.228 2.012-.912-1.552-1.793-3.482-2.266-6.53l-.988.153c.427 2.75 1.191 4.664 1.996 6.17-.345-.262-.668-.486-.958-.651-3.089-1.666-5.133.145-5.426.356-.034.359-.553 3.042 2.451 4.854.646.369 1.57.734 2.759 1.091-1.188.357-2.113.723-2.759 1.091-3.005 1.814-2.485 4.493-2.451 4.854.291.212 2.338 2.025 5.426.356.668-.381 1.485-1.021 2.438-1.909-.299 1.268-.45 2.294-.45 3.063.085 3.509 2.669 4.387 3 4.536.329-.147 2.916-1.028 3-4.536 0-.769-.15-1.795-.449-3.063.951.887 1.768 1.527 2.437 1.909 3.088 1.666 5.133-.143 5.427-.356.035-.359.553-3.042-2.451-4.854zm-2.479-6.525c1.924-1.1 3.489-.295 3.986.026.021.587-.087 2.354-2.003 3.448-.844.533-3.221 1.246-5.076 1.663-.284-.146-.687-.22-1.264-.22-.012 0-.022 0-.034 0 .345-.528.639-1.032.541-1.558 1.363-1.445 2.974-2.894 3.85-3.361zm-5.485-5.471c.521.273 2.001 1.243 2.001 3.449 0 .984-.287 2.48-.844 4.433-.622-.606-1.689-.611-2.309.006-.559-1.955-.846-3.452-.846-4.438 0-2.216 1.473-3.177 1.999-3.449zm.656 9.052c0 .175-.28.65-.647 1.129-.368-.479-.647-.955-.647-1.133-.012-.337.306-.65.64-.643.341-.008.664.305.655.647zm-8.122-.107c-1.924-1.099-2.028-2.855-2.004-3.446.495-.318 2.073-1.122 3.987-.028.903.466 2.576 2.043 3.863 3.374-.091.518.202 1.023.544 1.545-.012 0-.023 0-.035 0-.581 0-.984.074-1.269.222-1.857-.417-4.238-1.131-5.086-1.666zm1.983 7.393c-1.926 1.098-3.491.294-3.986-.027-.024-.592.079-2.348 2.003-3.447.849-.491 2.426-1.024 4.391-1.496-.223.502-.194 1.104.136 1.592.184.273.447.468.742.59-1.35 1.369-2.461 2.318-3.286 2.789zm3.545-4.838c.154-.093.982-.15 1.297-.096-.199.542-.295.89-.618 1.187-.284.16-.67.079-.853-.192-.2-.296-.123-.699.173-.899zm1.939 10.309c-.521-.273-2.001-1.243-2.001-3.449-.014-.989.357-2.81.938-4.764.144-.047.282-.11.41-.197.261-.177.481-.529.659-.91.177.38.394.73.652.904.124.087.26.151.402.199.581 1.955.952 3.777.939 4.767 0 2.216-1.473 3.177-1.999 3.449zm1.578-9.126c-.083 0-.205-.021-.327-.1-.279-.271-.392-.623-.595-1.178.319-.053 1.168-.005 1.297.096.216.146.315.44.24.733-.065.295-.358.45-.615.45zm3.904 3.655c-.826-.472-1.935-1.419-3.283-2.786.48-.193.857-.589.967-1.086.098-.379.052-.762-.094-1.099 1.965.472 3.544 1.005 4.394 1.497 1.926 1.1 2.028 2.857 2.004 3.447-.498.322-2.063 1.125-3.987.027z"/></svg>