<?xml version="1.0" encoding="UTF-8"?>
<svg xmlns="http://www.w3.org/2000/svg" id="Layer_1" data-name="Layer 1" viewBox="0 0 24 24">
  <path d="M12,0C5.383,0,0,5.383,0,12s5.383,12,12,12,12-5.383,12-12S18.617,0,12,0ZM1,12c0-2.853,1.101-5.447,2.889-7.404l2.758,2.758,.707-.707-2.758-2.758c1.957-1.788,4.551-2.889,7.404-2.889,6.065,0,11,4.935,11,11,0,2.853-1.101,5.447-2.889,7.404l-2.282-2.282-.707,.707,2.282,2.282c-1.957,1.788-4.551,2.889-7.404,2.889-6.065,0-11-4.935-11-11Zm8.257-3.999h0c-.757,0-1.281,.586-1.385,1.166l-1.372,6.833h1.007l.405-2h2.66l.412,2h1.015l-1.397-6.807c-.12-.668-.589-1.192-1.346-1.192Zm-1.142,4.999l.741-3.656c.02-.112,.144-.344,.401-.344h0c.096,0,.295,0,.366,.394l.743,3.606h-2.252Zm9.485-2.7c0-1.268-1.032-2.3-2.3-2.3h-2.3v8h2.3c1.269,0,2.3-1.032,2.3-2.3v-3.4Zm-1,3.4c0,.717-.583,1.3-1.3,1.3h-1.3v-6h1.3c.717,0,1.3,.583,1.3,1.3v3.4Z"/>
</svg>
