<svg id="Layer_1" viewBox="0 0 24 24" xmlns="http://www.w3.org/2000/svg" data-name="Layer 1"><path d="m21.029 4.042c-.035-.042-.856-1.042-2.103-1.042-1.555 0-2.449.565-2.898 1.833l-.19.537 1.162.247v.83l2.055.588c.013.251-.011.616-.034.974-.051.796-.108 1.79.071 2.796-.31-.135-.676-.24-1.093-.29v-1.311c0-.742-.474-1.397-1.18-1.632l-4.82-1.598-4.82 1.598c-.706.234-1.18.89-1.18 1.632v1.311c-.419.05-.788.155-1.1.29.179-1.006.122-2 .071-2.796-.023-.356-.046-.723-.033-.973l2.055-.588v-.83l1.162-.247-.19-.537c-.455-1.285-1.322-1.833-2.898-1.833-1.246 0-2.068 1-2.095 1.033-3.029 3.579-2.971 6.479-2.971 8.211v.55c.211.288 2.128 3.112 6.458 3.197 1.235 2.83 4.064 4.211 5.538 4.936 1.471-.625 4.446-1.739 5.619-4.94 4.278-.125 6.171-2.903 6.385-3.193v-.55c0-1.745.051-4.632-2.971-8.203zm-20.03 8.426-.002-.234c-.02-1.696-.05-4.259 2.744-7.561.006-.007.564-.673 1.326-.673.955 0 1.419.223 1.704.643l-.777.166v.885l-1.887.539-.083.25c-.127.382-.093.914-.05 1.59.069 1.072.163 2.542-.43 3.751l.824.551c.159-.18.7-.706 1.633-.853v2.311c.009.399.065.773.144 1.135-3.037-.142-4.746-2-5.145-2.499zm16.001 1.344c-.076 3.82-3.441 5.383-4.977 6.023-1.495-.766-4.949-2.643-5.023-6.014v-4.618c0-.311.199-.585.494-.683l4.506-1.494 4.506 1.494c.295.098.494.372.494.683v4.608zm5.997-1.579-.002.234c-.398.497-2.097 2.343-5.116 2.497.065-.362.113-.737.121-1.143v-2.299c.928.149 1.468.673 1.626.852l.824-.551c-.592-1.209-.499-2.678-.431-3.751.043-.675.077-1.208-.05-1.59l-.083-.25-1.886-.539v-.885l-.774-.165c.286-.414.756-.644 1.701-.644.762 0 1.32.666 1.332.68 2.789 3.295 2.758 5.857 2.738 7.554zm-10.497.267h2.5v1h-2.5v2.5h-1v-2.5h-2.5v-1h2.5v-2.5h1z"/></svg>