<?xml version="1.0" encoding="UTF-8"?>
<svg xmlns="http://www.w3.org/2000/svg" id="Layer_1" data-name="Layer 1" viewBox="0 0 24 24">
  <path d="M21.226,24.021l-.707-.707c3.317-3.318,3.317-8.719,0-12.037l.707-.707c3.708,3.709,3.708,9.742,0,13.451Zm-2.115-11.336l-.707,.707c2.151,2.152,2.151,5.654,0,7.807l.707,.707c2.541-2.542,2.541-6.679,0-9.221Zm-2.836,2.836c.475,.474,.735,1.104,.735,1.774s-.261,1.301-.735,1.774l.707,.707c.663-.662,1.028-1.544,1.028-2.481s-.365-1.819-1.028-2.481l-.707,.707Zm-2.413-4.803c-1.071-2.574-2.082-5.006-3.143-6.316C8.566,1.527,5.146-.101,1.572,.006h0s0,0,0,0C1.048,.025,.522,.091,0,.182V1.195c.533-.101,1.071-.17,1.606-.189,3.248-.105,6.355,1.383,8.323,4.01,.981,1.214,2.012,3.69,3.008,6.086,.354,.852,.708,1.702,1.062,2.504v.395h-2.217l-.953,4.792c-.139,.7-.758,1.208-1.472,1.208h-3.358v3H0v1H7v-3h2.358c1.189,0,2.221-.847,2.452-2.013l.793-3.987h2.396v-1.5s-.773-1.904-1.139-2.782Z"/>
</svg>
