<?xml version="1.0" encoding="UTF-8"?>
<svg xmlns="http://www.w3.org/2000/svg" id="Layer_1" data-name="Layer 1" viewBox="0 0 24 24">
  <path d="m24,18h-6.069c1.835-1.224,3.069-3.451,3.069-5.998,0-3.4-2.19-6.238-5.082-6.869.251-.157.495-.332.715-.552,1.532-1.532,1.367-4.013,1.359-4.117l-.032-.43-.43-.032c-.104-.005-2.584-.174-4.117,1.359-.564.564-.902,1.263-1.105,1.925-.305-1.581-.893-2.773-1.116-3.182l-.878.479c.27.494,1.123,2.242,1.176,4.417h-2.195c-3.471,0-6.295,3.141-6.295,7.002,0,2.547,1.235,4.774,3.069,5.998h-3.069c-1.654,0-3,1.346-3,3s1.346,3,3,3h21v-.814c.149.147-1-.989-1-2.186s.993-2.179,1-2.185v-.815ZM14.12,2.068c.859-.859,2.179-1.037,2.874-1.068-.031.694-.209,2.015-1.068,2.874-.859.858-2.197,1.059-2.908,1.102.043-.711.243-2.049,1.102-2.907ZM4,12.002c0-3.31,2.375-6.002,5.295-6.002h5.409c2.92,0,5.295,2.692,5.295,6.002s-2.375,5.998-5.295,5.998c-.863,0-1.688-.227-2.453-.673l-.252-.147-.252.147c-.765.446-1.59.673-2.453.673-2.92,0-5.295-2.69-5.295-5.998Zm18.574,10.998H3c-1.103,0-2-.897-2-2s.897-2,2-2h19.574c-.288.481-.574,1.169-.574,2s.287,1.519.574,2Z"/>
</svg>
