<svg id="Layer_1" viewBox="0 0 24 24" xmlns="http://www.w3.org/2000/svg" data-name="Layer 1"><path d="m4 14h8v1h-8c-1.654 0-3 1.346-3 3v6h-1v-6c0-2.206 1.794-4 4-4zm11 7.5v-6c0-.827.673-1.5 1.5-1.5h2.5v-1h-2.5c-1.379 0-2.5 1.122-2.5 2.5v6c0 1.378 1.121 2.5 2.5 2.5h2.5v-1h-2.5c-.827 0-1.5-.673-1.5-1.5zm8.519-3.991-2.688-2.37-.662.75 2.393 2.11h-5.562v1h5.697l-2.528 2.229.662.75 2.684-2.366c.309-.267.485-.651.485-1.054s-.177-.786-.481-1.05zm-9.519-11.509c0 3.309-2.691 6-6 6s-6-2.691-6-6 2.691-6 6-6 6 2.691 6 6zm-1 0c0-2.757-2.243-5-5-5s-5 2.243-5 5 2.243 5 5 5 5-2.243 5-5z"/></svg>