<?xml version="1.0" encoding="UTF-8"?>
<svg xmlns="http://www.w3.org/2000/svg" id="Layer_1" data-name="Layer 1" viewBox="0 0 24 24">
  <path d="M7.688,13.626c.251,.276,.514,.537,.762,.785l2.286-2.281c-.627-.43-3.16-3.064-6.453-1.735l-1.346,.646c1.834,.103,3.808,1.304,4.751,2.585Zm1.55-1.415l-.777,.776c-.014-.014-.026-.028-.039-.042-.54-.582-1.26-1.357-2.179-1.923,1.225,.083,2.388,.769,2.995,1.189Zm2.117-3.622c.52-1.704,1.733-3.63,3.604-4.455l-1.488-.123c-2.961-.233-4.832,3.147-4.91,3.292l-.258,.475,2.85,1.268,.203-.457Zm-.723-.868l-.901-.401c.388-.562,1.14-1.5,2.131-1.993-.588,.797-.947,1.693-1.22,2.371-.003,.008-.007,.016-.01,.023Zm-3.64,15.278c-.024-1.295-.06-3.249,.923-4.723l.829-1.243-1.41,.493c-.96,.336-1.668,.963-2.2,1.684-.613-1.349-1.506-2.366-2.699-2.989l-1.729-.902,1.082,1.623c.256,.385,.549,1.165,.661,2.691-.348-.316-.752-.61-1.259-.854L.044,18.227l.465,1.187c.464,1.181,.518,2.441,.498,3.586H0v1H24v-1H6.993Zm-2.492-2.736c-.275,.568-.468,1.136-.6,1.637-.107-.311-.233-.625-.402-.937-.002-1.129-.082-2.089-.242-2.871,.53,.573,.944,1.301,1.243,2.171Zm-2.488,2.736c.013-.822-.013-1.706-.185-2.599,.814,.756,1.144,1.711,1.357,2.599h-1.173Zm2.674,0c.15-.865,.572-2.574,1.665-3.682-.398,1.344-.376,2.734-.358,3.682h-1.307ZM24,1V0h-2.915l-3,16h-3.689c-1.078,0-2.031,.687-2.365,1.69l-.133,.35c-.13-.021-.262-.04-.398-.04-1.379,0-2.5,1.122-2.5,2.5s1.121,2.5,2.5,2.5c1.208,0,2.217-.86,2.449-2h5.101c.232,1.14,1.242,2,2.449,2,1.379,0,2.5-1.122,2.5-2.5s-1.121-2.5-2.5-2.5c-.133,0-.261,.019-.389,.039l-.764-2.039h-1.244L21.915,1h2.085ZM11.5,22c-.827,0-1.5-.673-1.5-1.5s.673-1.5,1.5-1.5,1.5,.673,1.5,1.5-.673,1.5-1.5,1.5Zm11.5-1.5c0,.827-.673,1.5-1.5,1.5s-1.5-.673-1.5-1.5,.673-1.5,1.5-1.5,1.5,.673,1.5,1.5Zm-2.826-2.111c-.568,.358-.986,.932-1.124,1.611h-5.101c-.138-.676-.552-1.248-1.115-1.607l.14-.369c.203-.613,.774-1.025,1.422-1.025h5.257l.521,1.389Z"/>
</svg>
