<?xml version="1.0" encoding="UTF-8"?>
<svg xmlns="http://www.w3.org/2000/svg" id="Layer_1" data-name="Layer 1" viewBox="0 0 24 24">
  <path d="m21.708,0H2.272L0,13l.005,8.493c-.002.669.257,1.298.73,1.771.472.474,1.101.735,1.77.735h18.995c1.378,0,2.5-1.122,2.5-2.5v-8.5L21.708,0ZM3.112,1h17.757l2.123,12h-6.992v2c0,1.103-.897,2-2,2h-4c-1.103,0-2-.897-2-2v-2H1.008L3.112,1Zm18.388,22H2.505c-.401,0-.779-.157-1.062-.441-.284-.284-.439-.662-.438-1.064l-.011-7.495h6.006v1c0,1.654,1.346,3,3,3h4c1.654,0,3-1.346,3-3v-1h6v7.5c0,.827-.673,1.5-1.5,1.5Zm-2.085-13H4.58l.175-1h14.483l.177,1Zm-.531-3H5.106l.175-1h13.426l.177,1Zm-.531-3H5.632l.175-1h12.369l.177,1Z"/>
</svg>
