<svg id="Layer_1" viewBox="0 0 24 24" xmlns="http://www.w3.org/2000/svg" data-name="Layer 1"><path d="m16 0-2.002 1.824-1.998-1.824-1.998 1.824-2.002-1.824v5h8zm-1 4h-6v-1.738l.998.915 2.002-1.81 2.002 1.81.998-.915zm-3 10c2.206 0 4-1.794 4-4s-1.794-4-4-4-4 1.794-4 4 1.794 4 4 4zm0-7c1.654 0 3 1.346 3 3s-1.346 3-3 3-3-1.346-3-3 1.346-3 3-3zm6-5.376v1.169c3.006 1.966 5 5.356 5 9.208s-1.994 7.242-5 9.208v-2.708c0-1.378-1.121-2.5-2.5-2.5h-7c-1.379 0-2.5 1.122-2.5 2.5v2.708c-3.006-1.966-5-5.356-5-9.208s1.994-7.243 5-9.209v-1.169c-3.581 2.079-6 5.947-6 10.377 0 6.617 5.383 12 12 12s12-5.383 12-12c0-4.43-2.419-8.298-6-10.376zm-11 20.162v-3.286c0-.827.673-1.5 1.5-1.5h7c.827 0 1.5.673 1.5 1.5v3.286c-1.502.771-3.199 1.214-5 1.214s-3.498-.444-5-1.214z"/></svg>