<?xml version="1.0" encoding="UTF-8"?>
<svg xmlns="http://www.w3.org/2000/svg" id="Layer_1" data-name="Layer 1" viewBox="0 0 24 24">
  <path d="M19.782,11l-2.281-3.79c-.449-.747-1.271-1.21-2.142-1.21h-6.166l-2.408,4.735,.892,.453,2.13-4.188h2.887l-2.452,5.861c-.461,1.125-.051,2.412,.987,3.068l4.772,2.854v5.216h1v-5.784l-3.205-1.917,3.297-7.83,2.126,3.531h4.782v-1h-4.218Zm-8.03,4.077c-.616-.389-.862-1.162-.587-1.833l2.612-6.244h1.582c.405,0,.789,.171,1.069,.455l-3.507,8.322-1.169-.699Zm3.748-10.077c1.379,0,2.5-1.122,2.5-2.5s-1.121-2.5-2.5-2.5-2.5,1.122-2.5,2.5,1.121,2.5,2.5,2.5Zm0-4c.827,0,1.5,.673,1.5,1.5s-.673,1.5-1.5,1.5-1.5-.673-1.5-1.5,.673-1.5,1.5-1.5Zm-4.791,16.949l-.879,2.051H4v-1h5.17l.691-1.613c.113,.086,.847,.562,.847,.562Zm.291-13.949H2v-1H11v1Zm-6.085,6H0v-1H5.424l-.509,1Zm1.526-3H1v-1H6.949l-.509,1Z"/>
</svg>
