<svg id="Layer_1" viewBox="0 0 24 24" xmlns="http://www.w3.org/2000/svg" data-name="Layer 1"><path d="m1 7h-1v-4.5c0-1.379 1.121-2.5 2.5-2.5h4.5v1h-4.5c-.827 0-1.5.673-1.5 1.5zm20.5-7h-4.5v1h4.5c.827 0 1.5.673 1.5 1.5v4.5h1v-4.5c0-1.379-1.121-2.5-2.5-2.5zm1.5 21.5c0 .827-.673 1.5-1.5 1.5h-4.5v1h4.5c1.379 0 2.5-1.121 2.5-2.5v-4.5h-1zm-22 0v-4.5h-1v4.5c0 1.379 1.121 2.5 2.5 2.5h4.5v-1h-4.5c-.827 0-1.5-.673-1.5-1.5zm17-7.5h-1v1c0 2.757-2.243 5-5 5s-5-2.243-5-5v-1h-1v1c0 3.309 2.691 6 6 6s6-2.691 6-6zm0-3h6v1h-24v-1h6v-1.5c0-1.208.86-2.217 2-2.449v-4.051h8v4.051c1.14.232 2 1.242 2 2.449zm-9-4h6v-3h-6zm8 4v-1.5c0-.827-.673-1.5-1.5-1.5h-7c-.827 0-1.5.673-1.5 1.5v1.5z"/></svg>