<svg id="Layer_1" viewBox="0 0 24 24" xmlns="http://www.w3.org/2000/svg" data-name="Layer 1"><path d="m12 0c-6.617 0-12 5.383-12 12s5.383 12 12 12 12-5.383 12-12-5.383-12-12-12zm-11 12c0-2.853 1.101-5.447 2.889-7.404l15.515 15.515c-1.957 1.788-4.551 2.889-7.404 2.889-6.065 0-11-4.935-11-11zm11.337-.508c.53-.934.875-1.897 1.176-2.753.329-.938.613-1.748 1.01-2.145.768-.768 2.114-.768 2.881 0 .79.759.79 2.123 0 2.881-.395.396-1.202.679-2.145 1.01-.858.301-1.821.647-2.753 1.175-.057-.056-.113-.112-.168-.169zm7.775 7.912-4.626-4.626c1.122.456 2.309.722 3.515.722v-1c-2.056 0-4.06-.825-5.697-2.137.756-.391 1.533-.671 2.296-.939 1.049-.368 1.955-.687 2.511-1.243 1.179-1.131 1.178-3.164 0-4.295-1.143-1.143-3.15-1.143-4.295 0-.558.559-.877 1.468-1.246 2.521-.265.754-.543 1.528-.935 2.285-1.31-1.636-2.134-3.638-2.134-5.693h-1c0 1.205.266 2.392.722 3.515l-4.627-4.625c1.957-1.788 4.551-2.889 7.404-2.889 6.065 0 11 4.935 11 11 0 2.853-1.101 5.447-2.889 7.404zm-6.793-2.551c-.794 1.283-2.202 2.147-3.818 2.147-2.481 0-4.5-2.019-4.5-4.5 0-1.616.864-3.024 2.147-3.818l.734.734c-1.112.587-1.881 1.742-1.881 3.084 0 1.93 1.57 3.5 3.5 3.5 1.342 0 2.497-.768 3.084-1.881z"/></svg>