<?xml version="1.0" encoding="UTF-8"?>
<svg xmlns="http://www.w3.org/2000/svg" id="Layer_1" data-name="Layer 1" viewBox="0 0 24 24">
  <path d="M7.741,18h12.259v1H7.741c-1.24,0-2.305-.927-2.476-2.155L3.245,2.294c-.103-.738-.742-1.294-1.486-1.294H0V0H1.759c1.24,0,2.305,.927,2.476,2.156l.256,1.844h3.509v1h-3.37l1.25,9h3.798l1.657,1H6.018l.237,1.707c.103,.737,.742,1.293,1.486,1.293Zm1.259,4c0,1.103-.897,2-2,2s-2-.897-2-2,.897-2,2-2,2,.897,2,2Zm-1,0c0-.552-.449-1-1-1s-1,.448-1,1,.449,1,1,1,1-.448,1-1Zm11,0c0,1.103-.897,2-2,2s-2-.897-2-2,.897-2,2-2,2,.897,2,2Zm-1,0c0-.552-.449-1-1-1s-1,.448-1,1,.449,1,1,1,1-.448,1-1Zm2-11.5h1v-3.989h1v-1h-3v1h1v3.989Zm-6-2.5l-1.039-2.5h-.961v5h1v-2.462l1.09,2.462h.91V5.5h-1v2.5Zm4.261-.489l-1.473-.004v-1.007h1.471v-1h-2.471v5h1v-1.993l1.47,.004,.003-1Zm-1.261,8.573l-7-4.225V4.218L16.996-.005l6.964,4.083,.042,7.78-7.001,4.226Zm-6-4.79l6,3.622,5.999-3.621-.036-6.643-5.959-3.494-6.004,3.624v6.512Z"/>
</svg>
