<?xml version="1.0" encoding="UTF-8"?>
<svg xmlns="http://www.w3.org/2000/svg" id="Layer_1" data-name="Layer 1" viewBox="0 0 24 24">
  <path d="m24,24H0V2.5C0,1.121,1.122,0,2.5,0h19c1.378,0,2.5,1.121,2.5,2.5v21.5Zm-23-1h22V2.5c0-.827-.673-1.5-1.5-1.5H2.5c-.827,0-1.5.673-1.5,1.5v20.5Zm10-11c0,.552.448,1,1,1s1-.448,1-1-.448-1-1-1-1,.448-1,1Zm-5-5c0,.552.448,1,1,1s1-.448,1-1-.448-1-1-1-1,.448-1,1Zm10,0c0,.552.448,1,1,1s1-.448,1-1-.448-1-1-1-1,.448-1,1Zm-10,10c0,.552.448,1,1,1s1-.448,1-1-.448-1-1-1-1,.448-1,1Zm10,0c0,.552.448,1,1,1s1-.448,1-1-.448-1-1-1-1,.448-1,1Z"/>
</svg>
