<?xml version="1.0" encoding="UTF-8"?>
<svg xmlns="http://www.w3.org/2000/svg" id="Layer_1" data-name="Layer 1" viewBox="0 0 24 24">
  <path d="M22.5,8.5h-2v-3c0-1.103-.897-2-2-2h-2.5V1.5c0-.827-.673-1.5-1.5-1.5h-4c-.827,0-1.5,.673-1.5,1.5V3.5h-2V1.5c0-.827-.673-1.5-1.5-1.5H1.5C.673,0,0,.673,0,1.5V6.5c0,.827,.673,1.5,1.5,1.5H5.5c.827,0,1.5-.673,1.5-1.5v-2h2v2c0,.827,.673,1.5,1.5,1.5h4c.827,0,1.5-.673,1.5-1.5v-2h2.5c.552,0,1,.449,1,1v3h-2c-.827,0-1.5,.673-1.5,1.5v4c0,.827,.673,1.5,1.5,1.5h2v3c0,.552-.448,1-1,1h-2.5v-2c0-.827-.673-1.5-1.5-1.5h-4c-.827,0-1.5,.673-1.5,1.5v2h-2v-2c0-.827-.673-1.5-1.5-1.5H1.5c-.827,0-1.5,.673-1.5,1.5v5c0,.827,.673,1.5,1.5,1.5H5.5c.827,0,1.5-.673,1.5-1.5v-2h2v2c0,.827,.673,1.5,1.5,1.5h4c.827,0,1.5-.673,1.5-1.5v-2h2.5c1.103,0,2-.897,2-2v-3h2c.827,0,1.5-.673,1.5-1.5v-4c0-.827-.673-1.5-1.5-1.5ZM6,6.5c0,.276-.225,.5-.5,.5H1.5c-.275,0-.5-.224-.5-.5V1.5c0-.276,.225-.5,.5-.5H5.5c.275,0,.5,.224,.5,.5V6.5Zm9,0c0,.276-.225,.5-.5,.5h-4c-.275,0-.5-.224-.5-.5V1.5c0-.276,.225-.5,.5-.5h4c.275,0,.5,.224,.5,.5V6.5ZM6,22.5c0,.275-.225,.5-.5,.5H1.5c-.275,0-.5-.225-.5-.5v-5c0-.275,.225-.5,.5-.5H5.5c.275,0,.5,.225,.5,.5v5Zm9,0c0,.275-.225,.5-.5,.5h-4c-.275,0-.5-.225-.5-.5v-5c0-.275,.225-.5,.5-.5h4c.275,0,.5,.225,.5,.5v5Zm8-8.5c0,.275-.225,.5-.5,.5h-5c-.275,0-.5-.225-.5-.5v-4c0-.276,.225-.5,.5-.5h5c.275,0,.5,.224,.5,.5v4Z"/>
</svg>
