<?xml version="1.0" encoding="UTF-8"?>
<svg xmlns="http://www.w3.org/2000/svg" id="Layer_1" data-name="Layer 1" viewBox="0 0 24 24">
  <path d="M11.083,11.851l4.193,2.097,.447-.895-3.807-1.903-1.01-3.368c-.32-1.066-1.282-1.782-2.395-1.782h-3.149L1.175,8.487,.097,13.212l.975,.223,.983-4.307,3.411-2.027-1.387,5.744c-.26,1.077,.231,2.213,1.195,2.761l4.726,2.685v5.709h1v-6.291l-2.794-1.587,1.954-7.347,.922,3.075Zm-5.315,2.887c-.579-.329-.874-1.01-.717-1.657l1.469-6.08h1.992c.387,0,.733,.156,1.002,.402l-2.164,8.233-1.581-.898Zm12.232,3.263h-1.656l2.509,2.509-.707,.707-2.719-2.719c-.569-.57-.569-1.497,0-2.066l2.719-2.718,.707,.707-2.581,2.58h1.727c2.757,0,5-2.243,5-5s-2.243-5-5-5h-5.258c-.127-.358-.29-.694-.493-1h5.751c3.309,0,6,2.691,6,6s-2.691,6-6,6ZM8.5,5c1.378,0,2.5-1.122,2.5-2.5s-1.122-2.5-2.5-2.5-2.5,1.122-2.5,2.5,1.122,2.5,2.5,2.5Zm0-4c.827,0,1.5,.673,1.5,1.5s-.673,1.5-1.5,1.5-1.5-.673-1.5-1.5,.673-1.5,1.5-1.5ZM4.286,17.346l.598,.34-1.447,6.314h-1.217l1.658-6.933c.133,.097,.263,.196,.408,.279Z"/>
</svg>
