<?xml version="1.0" encoding="UTF-8"?>
<svg xmlns="http://www.w3.org/2000/svg" id="Layer_1" data-name="Layer 1" viewBox="0 0 24 24">
  <path d="M20.168,16.194l-1.168-10.219,2.637-2.637-2.475-2.475-2.77,2.77L12,.047,7.608,3.633,4.837,.863,2.363,3.337l2.637,2.637-1.168,10.22-1.469,1.469,1.168,1.168-.591,5.169h7.561v-3.5c0-.827,.673-1.5,1.5-1.5s1.5,.673,1.5,1.5v3.5h7.561l-.591-5.169,1.168-1.168-1.469-1.47Zm-1.005,2.53l-4.582-4.582,1.061-1.061,4.582,4.582-1.061,1.061Zm-.131-3.666l-3.391-3.391-.883,.884-1.407-1.407c.093-.195,.15-.412,.15-.643s-.057-.447-.15-.643l1.446-1.446,.884,.884,2.418-2.418,.935,8.18Zm1.191-11.72l-4.543,4.543-1.061-1.061,4.543-4.543,1.061,1.061ZM12,1.338l3.682,3.006-2.477,2.477,.884,.884-1.446,1.446c-.196-.093-.412-.15-.643-.15s-.447,.057-.643,.15l-1.446-1.446,.884-.884-2.476-2.476,3.682-3.006Zm-7.163,.939l4.543,4.543-1.061,1.061L3.777,3.337l1.061-1.061Zm1.065,4.601l2.418,2.418,.884-.884,1.446,1.446c-.093,.196-.15,.412-.15,.643s.057,.448,.15,.643l-1.407,1.407-.884-.884-3.391,3.391,.935-8.181Zm2.456,6.204l1.061,1.061-4.582,4.582-1.061-1.061,4.582-4.582Zm11.581,9.919h-5.439v-2.5c0-1.379-1.122-2.5-2.5-2.5s-2.5,1.121-2.5,2.5v2.5H4.061l.373-3.266,.404,.404,5.996-5.996-.884-.884,1.407-1.408c.195,.093,.412,.15,.643,.15s.448-.057,.643-.15l1.407,1.407-.884,.884,5.996,5.996,.404-.404,.373,3.266Z"/>
</svg>
