<svg id="Layer_1" viewBox="0 0 24 24" xmlns="http://www.w3.org/2000/svg" data-name="Layer 1"><path d="m8 14.82-1-.5v-3.32c0-1.654 1.346-3 3-3h4c1.654 0 3 1.346 3 3v3.32l-1 .5v-3.82c0-1.103-.897-2-2-2h-4c-1.103 0-2 .897-2 2zm1-11.82c0-1.654 1.366-3 3.045-3 1.657 0 2.955 1.317 2.955 3s-1.298 3-2.955 3c-1.679 0-3.045-1.346-3.045-3zm1 0c0 1.103.917 2 2.045 2 1.097 0 1.955-.879 1.955-2s-.858-2-1.955-2c-1.127 0-2.045.897-2.045 2zm7 14.674 5.224-2.612-.447-.895-9.776 4.889-9.777-4.888-.447.895 5.224 2.612-5 5.631v.695h8.999v-1h-7.43l4.379-4.897 4.051 2.071 4.179-2.071 4.25 4.897h-7.43v1h9v-.772l-5-5.553z"/></svg>