<?xml version="1.0" encoding="UTF-8"?>
<svg xmlns="http://www.w3.org/2000/svg" id="Outline" viewBox="0 0 24 24">
  <path d="m7,20c-1.103,0-2,.897-2,2s.897,2,2,2,2-.897,2-2-.897-2-2-2Zm0,3c-.552,0-1-.449-1-1s.448-1,1-1,1,.449,1,1-.448,1-1,1Zm10-3c-1.103,0-2,.897-2,2s.897,2,2,2,2-.897,2-2-.897-2-2-2Zm0,3c-.552,0-1-.449-1-1s.448-1,1-1,1,.449,1,1-.448,1-1,1Zm7-19v1h-4v4h-1v-4h-4v-1h4V0h1v4h4Zm-1.666,3h1.02l-1.598,8H6.019l.237,1.706c.103.738.74,1.294,1.485,1.294h12.259v1H7.741c-1.241,0-2.306-.927-2.476-2.157L3.244,2.294c-.103-.738-.74-1.294-1.485-1.294H0V0h1.759c1.241,0,2.306.927,2.476,2.157l.256,1.843h8.51v1H4.629l1.25,9h15.056l1.398-7Z"/>
</svg>
