<svg id="Layer_1" viewBox="0 0 24 24" xmlns="http://www.w3.org/2000/svg" data-name="Layer 1"><path d="m21.5 9c1.378 0 2.5-1.122 2.5-2.5s-1.122-2.5-2.5-2.5-2.5 1.122-2.5 2.5 1.122 2.5 2.5 2.5zm0-4c.827 0 1.5.673 1.5 1.5s-.673 1.5-1.5 1.5-1.5-.673-1.5-1.5.673-1.5 1.5-1.5zm0 5c-1.378 0-2.5 1.122-2.5 2.5v5.5h-3v6h1v-5h4.5c1.378 0 2.5-1.121 2.5-2.5v-4c0-1.378-1.122-2.5-2.5-2.5zm1.5 6.5c0 .827-.673 1.5-1.5 1.5h-1.5v-5.5c0-.827.673-1.5 1.5-1.5s1.5.673 1.5 1.5zm-6-2.5h-10v-1h10zm2 7h5v1h-4v2h-1zm-16.5-12c1.378 0 2.5-1.122 2.5-2.5s-1.122-2.5-2.5-2.5-2.5 1.122-2.5 2.5 1.122 2.5 2.5 2.5zm0-4c.827 0 1.5.673 1.5 1.5s-.673 1.5-1.5 1.5-1.5-.673-1.5-1.5.673-1.5 1.5-1.5zm2.5 7.5c0-1.378-1.122-2.5-2.5-2.5s-2.5 1.122-2.5 2.5v4c0 1.379 1.122 2.5 2.5 2.5h4.5v5h1v-6h-3zm-2.5 5.5c-.827 0-1.5-.673-1.5-1.5v-4c0-.827.673-1.5 1.5-1.5s1.5.673 1.5 1.5v5.5zm-2.5 3h5v3h-1v-2h-4zm9-10h-1v-2.5c0-1.378 1.122-2.5 2.5-2.5h3c1.378 0 2.5 1.122 2.5 2.5v2.5h-1v-2.5c0-.827-.673-1.5-1.5-1.5h-3c-.827 0-1.5.673-1.5 1.5zm3-6c1.378 0 2.5-1.122 2.5-2.5s-1.122-2.5-2.5-2.5-2.5 1.122-2.5 2.5 1.122 2.5 2.5 2.5zm0-4c.827 0 1.5.673 1.5 1.5s-.673 1.5-1.5 1.5-1.5-.673-1.5-1.5.673-1.5 1.5-1.5z"/></svg>