<svg id="Layer_1" viewBox="0 0 24 24" xmlns="http://www.w3.org/2000/svg" data-name="Layer 1"><path d="m1 23v-15h12.5c.785 0 1.424.609 1.488 1.378.315-.097.639-.171.969-.231-.174-1.209-1.2-2.147-2.456-2.147h-5.5v-5h-2.5v-2h-3.001v2h-2.5v22h12.028c-.362-.305-.696-.64-1.003-1zm2.5-22h1v1h-1zm-2.5 2h6v4h-6zm16.5 8c-3.584 0-6.5 2.916-6.5 6.5s2.916 6.5 6.5 6.5 6.5-2.916 6.5-6.5-2.916-6.5-6.5-6.5zm5.5 6.5c0 1.337-.48 2.563-1.276 3.517l-7.741-7.741c.954-.796 2.18-1.276 3.517-1.276 3.033 0 5.5 2.467 5.5 5.5zm-11 0c0-1.337.48-2.563 1.276-3.517l7.741 7.741c-.954.796-2.18 1.276-3.517 1.276-3.033 0-5.5-2.467-5.5-5.5z"/></svg>