<?xml version="1.0" encoding="UTF-8"?>
<svg xmlns="http://www.w3.org/2000/svg" id="Layer_1" data-name="Layer 1" viewBox="0 0 24 24">
  <path d="M6,4h-1V2h1v2Zm-1,3h1v-2h-1v2Zm0,3h1v-2h-1v2Zm-.034,1h1.091l1.443,5.5v1.5H3.5l.017-1.63,1.449-5.37Zm.542,1.83l-1.008,3.736v.434h2v-.435l-.992-3.735Zm6.492-4.83V1H2.5c-.827,0-1.5,.673-1.5,1.5V23H11v1H0V2.5C0,1.121,1.122,0,2.5,0H12.707l7.293,7.293v3.707h-1v-3h-7Zm1-1h5.293L13,1.707V7Zm7.5,13c0,1.103-.897,2-2,2s-2-.897-2-2,.897-2,2-2,2,.897,2,2Zm-1,0c0-.552-.449-1-1-1s-1,.448-1,1,.449,1,1,1,1-.448,1-1Zm4.5-4.332v8.332H13V15c0-1.103,.897-2,2-2h6.332l2.668,2.668Zm-7-1.668v2h3v-2h-3Zm6,2.082l-2-2v2.918h-5v-3h-1c-.551,0-1,.448-1,1v8h9v-6.918Z"/>
</svg>
