<svg id="Layer_1" viewBox="0 0 24 24" xmlns="http://www.w3.org/2000/svg" data-name="Layer 1"><path d="m16.5 14h-9c-2.481 0-4.5 2.019-4.5 4.5v5.5h1v-5.5c0-1.93 1.57-3.5 3.5-3.5h1.578l1.883 2.608-1.504 6.392h1.027l1.516-6.442 1.516 6.442h1.027l-1.504-6.392 1.884-2.608h1.577c1.93 0 3.5 1.57 3.5 3.5v5.5h1v-5.5c0-2.481-2.019-4.5-4.5-4.5zm-4.5 3.338-1.689-2.338h3.378zm-5.843-9.994c.612 2.663 2.997 4.656 5.843 4.656 1.751 0 3.328-.754 4.426-1.953-.105-.444-.202-.856-.292-1.238-.901 1.321-2.418 2.191-4.134 2.191-2.415 0-4.435-1.722-4.899-4.002h.914c3.167-.094 5.881-2.214 6.808-5.207 1.127.674 2.009 1.734 2.425 3.058.033.111.805 3.381 1.923 8.129.441.251.857.545 1.239.878-.982-4.185-2.126-9.045-2.208-9.306-.854-2.722-3.347-4.55-6.202-4.55s-5.348 1.829-6.202 4.55c-.082.261-1.226 5.122-2.208 9.306.382-.333.798-.628 1.239-.878.538-2.285.994-4.222 1.328-5.635zm5.843-6.344c.672 0 1.316.131 1.917.353-.757 2.664-3.143 4.563-5.918 4.644l-1.524.002c.167-.702.265-1.112.276-1.15.723-2.303 2.832-3.85 5.248-3.85z"/></svg>