<svg id="Layer_1" viewBox="0 0 24 24" xmlns="http://www.w3.org/2000/svg" data-name="Layer 1"><path d="m24 4.735v6.38c0 1.711-.774 3.294-2.126 4.344-.315.257-.94.506-1.603.771-.384.153-.761.302-1.025.439-.166.086-.229.138-.229.332v.5c0 1.078-.579 2.064-1.5 2.596v3.904h-3v-3.904c-.921-.532-1.5-1.518-1.5-2.596l-.017-1.11c0-1.445.54-2.669 1.651-3.749.642-.581 1.771-1.146 2.681-1.6.248-.124.479-.239.675-.342l-.006-4.109c-1.076.15-3.481.41-6.001.41s-4.92-.259-6-.41v4.435c-.166-.011-.331-.025-.5-.025s-.334.014-.5.025v-4.895c0-.833.661-.607.661-.607.207.047 3.061.476 6.339.476s6.132-.428 6.334-.475c0 0 .666-.227.666.538v4.64c0 .373-.202.71-.526.881-.203.106-.44.225-.695.353-.854.426-1.916.957-2.442 1.434-.907.881-1.336 1.842-1.336 3.012l.017 1.11c0 .8.472 1.519 1.2 1.838l.3.131v3.538h1v-3.538l.3-.131c.729-.319 1.2-1.038 1.2-1.831v-.5c0-.82.579-1.121.771-1.219.287-.149.696-.313 1.114-.48.51-.204 1.145-.457 1.351-.625 1.114-.866 1.748-2.162 1.748-3.562v-6.379c0-1.178-.539-2.258-1.479-2.963-.955-.718-2.168-.938-3.328-.601-1.573.458-4.352.83-6.193.83s-4.62-.372-6.193-.83c-1.159-.335-2.372-.117-3.328.601-.939.706-1.479 1.786-1.479 2.963v7.775c-.36.271-.694.573-1 .903v-8.678c-.002-1.495.683-2.867 1.876-3.763 1.21-.908 2.741-1.188 4.208-.762 1.473.428 4.181.79 5.914.79s4.441-.362 5.914-.79c1.466-.426 2.998-.148 4.208.761 1.193.896 1.878 2.268 1.878 3.763zm-13 13.765c0 3.033-2.468 5.5-5.5 5.5s-5.5-2.467-5.5-5.5 2.468-5.5 5.5-5.5 5.5 2.467 5.5 5.5zm-5.5-4.5c-.171 0-.334.032-.5.051v2.3c-.581.759-1.02 1.648-1 2.15 0 .827.673 1.5 1.5 1.5s1.5-.673 1.5-1.5c.02-.501-.419-1.392-1-2.15v-2.3c-.166-.019-.329-.051-.5-.051zm4.5 4.5c0-1.953-1.258-3.602-3-4.224v1.751c.664.944 1 1.775 1 2.473 0 1.378-1.121 2.5-2.5 2.5s-2.5-1.122-2.5-2.5c0-.697.336-1.529 1-2.473v-1.751c-1.742.621-3 2.271-3 4.224 0 2.481 2.019 4.5 4.5 4.5s4.5-2.019 4.5-4.5z"/></svg>