<svg id="Layer_1" viewBox="0 0 24 24" xmlns="http://www.w3.org/2000/svg" data-name="Layer 1"><path d="m23 7v7.152c-.601.214-2.032.686-4 1.099v-12.751c0-1.379-1.121-2.5-2.5-2.5h-9c-1.378 0-2.5 1.121-2.5 2.5v12.751c-1.968-.413-3.399-.885-4-1.099v-7.152h-1v7.839c.632.221 4.861 2.014 11.5 2.152v3.009h-4c-1.378 0-2.5 1.121-2.5 2.5v1.5h1v-1.5c0-.827.673-1.5 1.5-1.5h4v3h1v-3h4c.827 0 1.5.673 1.5 1.5v1.5h1v-1.5c0-1.379-1.121-2.5-2.5-2.5h-4v-3.009c6.647-.14 10.858-1.928 11.5-2.152v-7.839zm-15.5-6h9c.827 0 1.5.673 1.5 1.5v10.45c-3.919-1.235-8.081-1.235-12 0v-10.45c0-.827.673-1.5 1.5-1.5zm-1.5 12.995c3.91-1.305 8.088-1.305 12 0v1.45c-1.73.313-3.777.555-6 .555s-4.27-.242-6-.555z"/></svg>