<svg id="Layer_1" viewBox="0 0 24 24" xmlns="http://www.w3.org/2000/svg" data-name="Layer 1"><path d="m12 15c1.103 0 2-.897 2-2h2.934c.748 0 1.444-.335 1.911-.918.465-.583.638-1.334.473-2.062-.088-.386-.183-.807-.281-1.241-.317.092-.644.16-.981.194.1.444.197.874.286 1.268.098.43-.004.873-.279 1.217-.276.345-.688.543-1.129.543h-9.868c-.442 0-.854-.198-1.129-.543-.274-.344-.376-.787-.279-1.217.305-1.347.692-3.066 1.029-4.609.654-2.987 2.541-4.631 5.312-4.631.203 0 .391.027.584.045.169-.338.37-.656.602-.949-.379-.062-.775-.095-1.186-.095-3.244 0-5.536 1.975-6.289 5.417-.337 1.541-.723 3.257-1.028 4.602-.165.728.008 1.479.473 2.062.466.583 1.163.918 1.911.918h2.934c0 1.103.897 2 2 2zm0-1c-.551 0-1-.449-1-1h2c0 .551-.449 1-1 1zm-4 7.5h14v1h-14zm-4-1.5c-1.103 0-2 .897-2 2s.897 2 2 2 2-.897 2-2-.897-2-2-2zm0 3c-.551 0-1-.449-1-1s.449-1 1-1 1 .449 1 1-.449 1-1 1zm18-6.5v1h-14v-1zm-18-1.5c-1.103 0-2 .897-2 2s.897 2 2 2 2-.897 2-2-.897-2-2-2zm0 3c-.551 0-1-.449-1-1s.449-1 1-1 1 .449 1 1-.449 1-1 1zm13.5-11c1.93 0 3.5-1.57 3.5-3.5s-1.57-3.5-3.5-3.5-3.5 1.57-3.5 3.5 1.57 3.5 3.5 3.5zm0-6c1.378 0 2.5 1.122 2.5 2.5s-1.122 2.5-2.5 2.5-2.5-1.122-2.5-2.5 1.122-2.5 2.5-2.5z"/></svg>