<?xml version="1.0" encoding="UTF-8"?>
<svg xmlns="http://www.w3.org/2000/svg" id="Layer_1" data-name="Layer 1" viewBox="0 0 24 24">
  <path d="M9,13c0,1.654,1.346,3,3,3s3-1.346,3-3-1.346-3-3-3-3,1.346-3,3Zm3-2c1.103,0,2,.897,2,2s-.897,2-2,2-2-.897-2-2,.897-2,2-2Zm10-2v7.24l-5,4v3.76h-1v-4.24l3.803-3.043-3.206,1.283-9.282-.036-3.118-1.247,3.803,3.043v4.24h-1v-3.76l-5-4v-7.24h1v6.162l4.596,1.838h8.807l4.597-1.838v-6.162h1Zm-5.387-3.204l.98,.884c.248,.248,.593,.36,.933,.309,.346-.051,.639-.257,.804-.567l1.983-3.739L18.608-.021l-1.132,2.241-.899-.9c-.282-.282-.696-.386-1.077-.271-.383,.115-.669,.43-.748,.821l-.748,5.728,.768,.548,1.842-2.35Zm-.743-3.769l1.876,1.877,1.132-2.242,1.203,1.203-1.701,3.134-1.894-1.663-1.259,1.606,.511-3.909,.132-.007ZM5.473,6.988c.348,.05,.686-.061,.915-.291l1-.902,1.841,2.351,.767-.55-.743-5.692-.005-.035c-.079-.391-.366-.706-.748-.821-.383-.116-.795-.012-1.077,.271l-.9,.9L5.391-.022,2.687,2.683l1.983,3.74c.165,.308,.458,.514,.803,.565Zm-.352-5.326l1.132,2.242,1.958-1.898c.037,.011,.049,.035,.054,.051l.506,3.884-1.258-1.605-1.796,1.619-.156-.011-.009,.009-1.637-3.085,1.205-1.205Z"/>
</svg>
