<svg id="Layer_1" viewBox="0 0 24 24" xmlns="http://www.w3.org/2000/svg" data-name="Layer 1"><path d="m12 0c-4.962 0-9 4.037-8.999 9.034l1.032 14.966h15.934l1.032-14.966v-.034c0-4.963-4.036-9-8.999-9zm0 1c4.096 0 7.48 3.096 7.942 7.071-.315.05-.762.135-1.309.27-.644-1.4-2.063-2.341-3.633-2.341-.247 0-.487.03-.722.073-.825-1.282-2.242-2.073-3.778-2.073-2.481 0-4.5 2.019-4.5 4.5 0 .016.003.031.003.046-.837-.25-1.516-.393-1.946-.467.459-3.978 3.844-7.079 7.943-7.079zm-4.951 7.891c-.015-.131-.049-.259-.049-.391 0-1.93 1.57-3.5 3.5-3.5 1.107 0 2.14.525 2.796 1.396-1.352.642-2.296 2.01-2.296 3.604 0 .321.049.635.123.941-1.428-.953-2.851-1.61-4.074-2.051zm5.213 2.322c-.168-.38-.262-.789-.262-1.212 0-1.654 1.346-3 3-3 1.122 0 2.142.643 2.653 1.612-1.504.458-3.442 1.248-5.391 2.6zm-8.256-2.123c1.209.227 4.202.966 7.063 3.03-2.511 2.066-4.883 5.155-6.18 9.765l-.884-12.795zm15.027 13.911h-13.398c2.756-11.443 11.993-13.574 14.36-13.933l-.961 13.933z"/></svg>