<svg id="Layer_1" viewBox="0 0 24 24" xmlns="http://www.w3.org/2000/svg" data-name="Layer 1"><path d="m20.5 10h-1.508v-4h-17v6.526c.318-.284.654-.527 1-.745v-4.781s15 0 15 0v10.5c0 1.379-1.122 2.5-2.5 2.5h-4.322c-.248.342-.53.675-.842 1h5.164c1.93 0 3.5-1.57 3.5-3.5v-1.5h1.508c1.897 0 3.5-1.537 3.5-3.357 0-1.654-1.308-2.643-3.5-2.643zm0 5h-1.508v-4h1.508c.934 0 2.5.214 2.5 1.643 0 1.256-1.168 2.357-2.5 2.357zm-9.5-11h-1v-4h1zm4 0h-1v-4h1zm-8 0h-1v-4h1zm-7 19h21v1h-21zm2.817-3.578c.637.957 1.735 1.516 2.88 1.574 1.065.05 2.096-.328 2.887-1.07 3.439-3.22 2.225-7.533 2.172-7.715l-.129-.44c-.601.128-1.165.222-1.825.312-1.802.258-4.045.578-5.57 2.007-.499.466-.861 1.051-1.075 1.732-.022.066-.399 1.289.122 2.648-.144.011-.286.028-.432.028-.671 0-1.192-.124-1.511-.229l-.311.951c.388.126 1.019.277 1.822.277.329 0 .652-.029.971-.077zm.292-3.295c.164-.521.435-.96.806-1.307 1.295-1.214 3.279-1.497 5.028-1.748.33-.047.649-.093.951-.143.197 1.094.43 3.998-1.993 6.266-.592.556-1.354.834-2.155.802-.713-.035-1.361-.336-1.854-.838 1.562-.516 3.035-1.639 4.522-3.457l-.774-.633c-1.47 1.799-2.854 2.839-4.337 3.238-.51-1.092-.21-2.124-.192-2.18z"/></svg>