<?xml version="1.0" encoding="UTF-8"?>
<svg xmlns="http://www.w3.org/2000/svg" id="Layer_1" data-name="Layer 1" viewBox="0 0 24 24">
  <path d="M2,10.225H1V2.5C.961,.967,2.498-.288,3.993,.05l6.331,1.272c.701,.141,1.287,.554,1.676,1.109,.39-.555,.976-.968,1.676-1.109L20.007,.05c1.495-.339,3.031,.918,2.993,2.451v7.725h-1V2.5c.024-.919-.902-1.676-1.795-1.47l-6.331,1.272c-.796,.16-1.374,.865-1.374,1.677v6.246h-1V3.979c0-.812-.578-1.517-1.374-1.677L3.795,1.03c-.897-.204-1.819,.551-1.795,1.47v7.725Zm22,1.775c0,6.617-5.383,12-12,12S0,18.617,0,12H1c0,1.412,.277,2.758,.764,4H6.669c-.404-1.248-.669-2.589-.669-4h1c0,1.407,.292,2.753,.732,4h8.537c.439-1.247,.732-2.593,.732-4h1c0,1.411-.265,2.752-.669,4h4.905c.487-1.242,.764-2.588,.764-4h1Zm-15.877,5c1.229,2.838,3.115,4.99,3.877,5.788,.762-.798,2.649-2.95,3.877-5.788h-7.755Zm2.637,5.925c-1.019-1.144-2.664-3.257-3.731-5.925H2.214c1.645,3.206,4.812,5.504,8.546,5.925Zm11.026-5.925h-4.814c-1.067,2.669-2.712,4.781-3.731,5.925,3.734-.421,6.901-2.719,8.546-5.925Z"/>
</svg>
