<svg id="Layer_1" viewBox="0 0 24 24" xmlns="http://www.w3.org/2000/svg" data-name="Layer 1"><path d="m17 16h1v5.5c0 1.379-1.121 2.5-2.5 2.5s-2.5-1.121-2.5-2.5v-5.5h1v5.5c0 .827.673 1.5 1.5 1.5s1.5-.673 1.5-1.5zm-5.945 1.462 1.188 6.538h-1.016s-.363-1.999-.363-1.999h-2.736l-.368 2h-1.017s1.211-6.584 1.211-6.584c.103-.58.61-1.416 1.546-1.416s1.435.794 1.555 1.462zm-.373 3.538-.611-3.362c-.012-.065-.127-.638-.571-.638-.429 0-.56.586-.562.597l-.626 3.403zm10.818-4c.827 0 1.5.673 1.5 1.5h1c0-1.379-1.121-2.5-2.5-2.5s-2.5 1.121-2.5 2.5v3c0 1.379 1.121 2.5 2.5 2.5s2.5-1.121 2.5-2.5v-1.5h-2.5v1h1.5v.5c0 .827-.673 1.5-1.5 1.5s-1.5-.673-1.5-1.5v-3c0-.827.673-1.5 1.5-1.5zm2.5-12.5v10.474c-.304-.242-.641-.444-1-.602v-5.372h-22v14h3.657l-.206 1h-4.451v-19.5c0-1.378 1.121-2.5 2.5-2.5h3.5v-2h1v2h10v-2h1v2h3.5c1.379 0 2.5 1.122 2.5 2.5zm-1 3.5v-3.5c0-.827-.673-1.5-1.5-1.5h-19c-.827 0-1.5.673-1.5 1.5v3.5z"/></svg>