<?xml version="1.0" encoding="utf-8"?>
<!-- Generator: Adobe Illustrator 27.2.0, SVG Export Plug-In . SVG Version: 6.00 Build 0)  -->
<svg xmlns="http://www.w3.org/2000/svg" xmlns:xlink="http://www.w3.org/1999/xlink" version="1.1" id="Layer_1" x="0px" y="0px" viewBox="0 0 24 24" style="enable-background:new 0 0 24 24;" xml:space="preserve">
<path d="M12,0C5.4,0,0,5.4,0,12s5.4,12,12,12s12-5.4,12-12S18.6,0,12,0z M23,12.6l-3.9-2.7l1.5-4.7C22.1,7,23,9.4,23,12  C23,12.2,23,12.4,23,12.6z M15.7,1.7L12,4.4L8.3,1.7C9.4,1.2,10.7,1,12,1S14.6,1.2,15.7,1.7z M3.5,5.1l1.4,4.7L1,12.5  c0-0.2,0-0.3,0-0.5C1,9.4,1.9,7,3.5,5.1z M2.8,18h4.9l1.5,4.6C6.5,21.9,4.2,20.2,2.8,18z M10.2,22.9L8.4,17H2.2  c-0.5-1-0.9-2.2-1.1-3.4l5-3.5L4.3,4.2c0.9-0.8,1.8-1.6,2.9-2.1L12,5.6l4.8-3.5c1.1,0.5,2.1,1.2,2.9,2.1l-1.9,6l5,3.5  c-0.2,1.2-0.5,2.3-1.1,3.3h-6.2l-1.9,5.9C13.2,23,12.6,23,12,23S10.8,23,10.2,22.9L10.2,22.9z M14.9,22.6l1.5-4.6h4.9  C19.8,20.2,17.5,21.9,14.9,22.6z M16.8,10.4L12,6.9l-4.8,3.5L9,16H15L16.8,10.4L16.8,10.4z M9.8,15l-1.4-4.3L12,8.1l3.6,2.6L14.2,15  C14.2,15,9.8,15,9.8,15z"/>
</svg>
