<svg id="Layer_1" viewBox="0 0 24 24" xmlns="http://www.w3.org/2000/svg" data-name="Layer 1"><path d="m24 11c0 1.654-1.346 3-3 3h-.6c-.763 1.833-2.387 3.706-4.4 4.861v5.139h-1v-4.647c-.951.405-1.962.647-2.997.648-.001 0-.002 0-.003 0-1.036 0-2.048-.243-3-.649v4.647h-1v-5.14c-2.01-1.156-3.631-3.028-4.394-4.86h1.094c1.22 2.518 4.155 5.002 7.3 5.002 3.571-.026 6.778-3.088 7.708-6.002h1.292c1.103 0 2-.897 2-2s-.897-2-2-2l-.459.012-.095-.451c-.475-4.31-4.105-7.561-8.445-7.561-4.803.001-8.006 3.167-8.788 8.687l-.156 1.352c1.769.06 7.717-.294 10.991-7.25l.905.426c-1.431 3.04-3.373 4.9-5.301 6.043.209.183.348.444.348.744 0 .552-.448 1-1 1-.527 0-.948-.412-.986-.93-2.003.816-3.819.96-4.803.96-.818-.011-.719-.034-1.265-.095l.275-2.377c.849-5.991 4.504-9.559 9.779-9.559 4.71 0 8.674 3.426 9.385 8.036 1.5.208 2.615 1.458 2.615 2.964zm-8 0c0-.552-.448-1-1-1s-1 .448-1 1 .448 1 1 1 1-.448 1-1zm-4 6c1.352 0 2.509-.826 2.999-2h-5.998c.49 1.174 1.648 2 2.999 2z"/></svg>