<svg id="Layer_1" viewBox="0 0 24 24" xmlns="http://www.w3.org/2000/svg" data-name="Layer 1"><path d="m1 2.5c0-.827.673-1.5 1.5-1.5h9.5v7h7v3h1v-3.707l-7.293-7.293h-10.207c-1.379 0-2.5 1.122-2.5 2.5v21.5h20v-1h-19zm12-.793 5.293 5.293h-5.293zm6.029 12.293.471 7h-1.002l-.439-6.514-.888 2.103-.921 2.183-.921-2.183-.888-2.104-.462 6.515h-.979l.471-7c.04-.705.439-1 .917-1 .318 0 .613.242.781.64l1.08 2.56 1.081-2.56c.168-.398.463-.64.781-.64.479 0 .878.295.917 1zm4.971 6v1h-3.5v-8h1v7zm-16-7h4v1h-1.5v7h-1v-7h-1.5zm-2 0h1v8h-1v-3.5h-3v3.5h-1v-8h1v3.5h3z"/></svg>