<?xml version="1.0" encoding="UTF-8"?>
<svg xmlns="http://www.w3.org/2000/svg" id="Layer_1" data-name="Layer 1" viewBox="0 0 24 24">
  <path d="M11.293,2.123l1.86,.531c.122,.211-.23,.758-.261,1.013,.567,.774,1.607,2.371,3.299,2.334,1.168,0,1.811-.711,1.811-2.001,0-.274,.012-.52,.032-.74l.047,.244c1.742,1.473,2.966,3.246,2.962,5.024,.846,.499,1.919,2.176,1.959,2.959,0,1.66-.714,2.79-1.54,4.098-.398,.63-.807,1.277-1.156,2.014-1.04,.165-2.116,.325-2.599,.381-.552-.296-1.212-.706-1.653-.989,.02-.63-.089-1.295-.527-1.7-.527-.511-1.364-.36-1.955-.023-.59-.373-1.569-.768-3.069-.768-1.806,0-2.772,.646-3.548,1.165-.729,.579-1.705,.887-2.833,.779l-.307,.377c-.351,.347-.832,.193-.813-.323,0-1.376-.659-2.532-1.189-3.462-.648-.957-.874-2.318-.811-3.548,.802-.747,2.228-1.428,3.72-1.896,.525-.951,1.036-2.112,1.96-2.748,.75-.651,1.753-.901,2.735-.845,.164-.164,1.673-1.673,1.877-1.877m6.799-1.135c-.783,.114-1.071,1.474-1.09,3.012,0,.942-.381,1.001-.811,1.001-.942,.178-2.192-1.475-2.189-1.501l.147-.44c.193-.578-.135-1.2-.721-1.367l-2.426-.693-2,2c-1.084,0-2.136,.382-2.965,1.08-.91,.643-1.508,1.719-2.005,2.69C2.548,7.272,1.075,7.958,.001,9.062c0,1.718-.067,1.865,.462,3.579,.523,1.102,1.538,2.357,1.538,3.857,0,1,.7,1.502,1.419,1.502,.433,0,.873-.182,1.17-.548,2.845,.071,2.933-1.954,5.911-1.952,2.253,0,3,1,3,1,.008,.006,.969-.776,1.346-.474,.333,.308,.154,1.474,.154,1.474,0,0,1.5,1,2.5,1.5,.48-.008,3.5-.5,3.5-.5,1.01-2.494,3-4,3-7.013,0-1.028-1.181-2.867-2-3.487-.231-2.769-2.85-4.857-3-5-.262-1.355-.535-2.012-.91-2.012h0Zm2.91,19.975c-.071,.68-.282,2.037-1.154,2.037-1.346,0-1.692-1.654-1.846-2.5l3-.5s.023,.679,0,.963Z"/>
</svg>
