<?xml version="1.0" encoding="UTF-8"?>
<svg xmlns="http://www.w3.org/2000/svg" id="Layer_1" data-name="Layer 1" viewBox="0 0 24 24">
  <path d="M24,6.5v15.855c0,.609-.333,1.166-.871,1.453-.244,.13-.511,.195-.777,.195-.32,0-.638-.093-.914-.277l-4.089-2.726H6v-3.566l-3.438,2.292c-.276,.184-.595,.277-.914,.277-.266,0-.533-.065-.777-.195-.537-.287-.871-.844-.871-1.453V2.5C0,1.122,1.122,0,2.5,0H7.76c-.205,.307-.359,.646-.484,1H2.5c-.827,0-1.5,.673-1.5,1.5v15.855c0,.243,.128,.457,.342,.571,.214,.115,.462,.103,.665-.032l4.341-2.894h11.651V2.5c0-.827-.673-1.5-1.5-1.5h-.776c-.126-.354-.279-.693-.484-1h1.26c1.378,0,2.5,1.122,2.5,2.5v14.5H7v3h10.651l4.341,2.894c.202,.134,.45,.146,.665,.032,.214-.115,.342-.328,.342-.571V6.5c0-.827-.673-1.5-1.5-1.5h-.5v-1h.5c1.378,0,2.5,1.122,2.5,2.5Zm-15-2.5v-1.5c0-1.378,1.122-2.5,2.5-2.5s2.5,1.122,2.5,2.5v1.5h2v5.5c0,1.378-1.122,2.5-2.5,2.5h-4c-1.378,0-2.5-1.122-2.5-2.5V4h2Zm6,1h-7v4.5c0,.827,.673,1.5,1.5,1.5h4c.827,0,1.5-.673,1.5-1.5V5Zm-5-1h3v-1.5c0-.827-.673-1.5-1.5-1.5s-1.5,.673-1.5,1.5v1.5Zm2,3h-1v2h1v-2Z"/>
</svg>
