<?xml version="1.0" encoding="UTF-8"?>
<svg xmlns="http://www.w3.org/2000/svg" id="Layer_1" data-name="Layer 1" viewBox="0 0 24 24">
  <path d="M14.25,9h-4.5c-1.503,0-2.737,1.241-2.75,2.77v.403c.631,.239,1.491,.76,4.987,.827,3.523-.108,4.399-.508,5.01-.921l.003-.325c.007-.742-.27-1.433-.779-1.947-.516-.521-1.216-.807-1.971-.807Zm-2.263,3c-2.061,0-3.391-.323-3.964-.5,.137-.849,.862-1.5,1.727-1.5h4.5c.486,0,.934,.181,1.26,.511,.252,.254,.413,.579,.469,.98-.578,.179-1.923,.509-3.991,.509ZM22.67,2c-.937,2.378-3.014,4.762-4.372,6.123-1.232-1.355-2.951-2.123-4.798-2.123h-3c-1.846,0-3.565,.767-4.797,2.123-1.359-1.361-3.436-3.745-4.373-6.123H0V10c-.031,4.844,4.929,10.178,12,13.042,7.071-2.864,12.031-8.197,12-13.042V2h-1.33Zm.33,8c0,3.642-3.403,8.733-11,11.958C4.403,18.733,1,13.642,1,10V3.649c1.441,2.628,3.334,4.546,4.792,5.962,1.064-1.589,2.781-2.633,4.708-2.612h3c1.928-.021,3.643,1.023,4.708,2.612,1.456-1.415,3.352-3.336,4.792-5.962v6.351Z"/>
</svg>
