<svg id="Layer_1" viewBox="0 0 24 24" xmlns="http://www.w3.org/2000/svg" data-name="Layer 1"><path d="m21 12.424v-1.424c0-4.962-4.037-9-9-9s-9 4.038-9 9v1.424c-1.763.774-3 2.531-3 4.576 0 2.757 2.243 5 5 5h2v-10h-2c-.342 0-.677.035-1 .101v-1.101c0-4.411 3.589-8 8-8s8 3.589 8 8v1.101c-.323-.066-.658-.101-1-.101h-2v10h2c2.757 0 5-2.243 5-5 0-2.045-1.237-3.802-3-4.576zm-15 .576v8h-1c-2.206 0-4-1.794-4-4s1.794-4 4-4zm13 8h-1v-8h1c2.206 0 4 1.794 4 4s-1.794 4-4 4zm-4.807-4h1.807v1h-1.193l-1.635 3.223-2.337-5.2-1.047 1.977h-1.788v-1h1.187l1.723-3.253 2.317 5.158.967-1.905z"/></svg>