<svg id="Layer_1" viewBox="0 0 24 24" xmlns="http://www.w3.org/2000/svg" data-name="Layer 1"><path d="m17 2.5h3.071c.224.86 1 1.5 1.929 1.5 1.103 0 2-.897 2-2s-.897-2-2-2c-.929 0-1.705.64-1.929 1.5h-4.071v8.5h1zm5-1.5c.551 0 1 .448 1 1s-.449 1-1 1-1-.448-1-1 .449-1 1-1zm-20 3c.929 0 1.705-.64 1.929-1.5h3.071v7.5h1v-8.5h-4.071c-.224-.86-1-1.5-1.929-1.5-1.103 0-2 .897-2 2s.897 2 2 2zm0-3c.551 0 1 .448 1 1s-.449 1-1 1-1-.448-1-1 .449-1 1-1zm9.5 2.929v6.071h1v-6.071c.86-.224 1.5-1 1.5-1.929 0-1.103-.897-2-2-2s-2 .897-2 2c0 .929.64 1.705 1.5 1.929zm.5-2.929c.551 0 1 .448 1 1s-.449 1-1 1-1-.448-1-1 .449-1 1-1zm11 4.859c.356-.092.69-.233 1-.413v14.555h-11.5v3h5.5v1h-12v-1h5.5v-3h-11.5v-14.556c.31.181.644.321 1 .413v13.141h22z"/></svg>