<?xml version="1.0" encoding="UTF-8"?>
<svg xmlns="http://www.w3.org/2000/svg" id="Layer_1" data-name="Layer 1" viewBox="0 0 24 24">
  <path d="M11.982,13.035c-1.645,0-2.982,1.338-2.982,2.982s1.338,2.982,2.982,2.982,2.982-1.338,2.982-2.982-1.338-2.982-2.982-2.982Zm0,4.965c-1.093,0-1.982-.89-1.982-1.982s.889-1.982,1.982-1.982,1.982,.89,1.982,1.982-.89,1.982-1.982,1.982Zm9.018-9.5c0-4.695-4.83-7.5-9.5-7.5C6.516,1,3.035,4.907,3.035,10.499l-.035,12.5,1,.002,.035-12.501c0-1.411,.252-2.697,.701-3.824l2.056,1.028c-.499,.865-.792,1.852-.792,2.795v12.5h1V10.5c0-.854,.294-1.758,.794-2.524,2.063-.125,3.419-1.489,3.876-1.956,.005-.006,.011-.011,.016-.016,2.401,.095,4.324,2.037,4.324,4.407l-.062,12.587,1,.004,.045-9.169c.997-.453,4.007-2.089,4.007-5.333Zm-4.001,4.208l.011-2.294c0-2.985-2.472-5.414-5.51-5.414-.231,0-.356,.127-.545,.321-.439,.45-1.591,1.628-3.34,1.678l-2.457-1.229c1.271-2.337,3.534-3.769,6.342-3.769,4.178,0,8.5,2.431,8.5,6.5,0,2.27-1.941,3.632-3.001,4.208Z"/>
</svg>
