<svg id="Layer_1" viewBox="0 0 24 24" xmlns="http://www.w3.org/2000/svg" data-name="Layer 1"><path d="m4 18h5.199l-.12.361-.078.639h-5v-1zm6.532-4h-6.532v1h6.198l.333-1zm13.468 5c0 1.103-.897 2-2 2s-2-.897-2-2l1.306-4h-3.306v8h3v1h-7v-1h3v-8h-3.292c1.292 3.663 1.292 3.905 1.292 4 0 1.103-.897 2-2 2s-2-.897-2-2l1.64-5h4.36v-2h1v2h4.353s1.647 4.9 1.647 5zm-10.987-2.957-.986 2.957h1.973c-.036-.191-.508-1.583-.987-2.957zm8.014 2.957h1.973c-.036-.191-.508-1.583-.987-2.957zm-20.027 4h11v1h-12v-21.5c0-1.378 1.122-2.5 2.5-2.5h10.207l7.293 7.293v2.707h-1v-2h-7v-7h-9.5c-.827 0-1.5.673-1.5 1.5zm12-16h5.293l-5.293-5.293zm-2 3h-7v1h7z"/></svg>