<svg id="Layer_1" viewBox="0 0 24 24" xmlns="http://www.w3.org/2000/svg" data-name="Layer 1"><path d="m9 11c0-1.43-.785-3-1.5-3s-1.5 1.57-1.5 3h-1c0-1.888 1.069-4 2.5-4s2.5 2.112 2.5 4zm3-10c4.165 0 7.741 2.562 9.242 6.191l1.491 1.43c-1.091-4.925-5.485-8.621-10.733-8.621s-9.642 3.696-10.734 8.621l1.491-1.43c1.502-3.629 5.078-6.191 9.243-6.191zm4.042 16h-8.083l.082-.571c.281-1.954 1.983-3.429 3.959-3.429s3.678 1.474 3.96 3.429zm-1.214-1c-.417-1.173-1.546-2-2.828-2s-2.411.827-2.829 2zm3.172-5h1c0-1.888-1.069-4-2.5-4s-2.5 2.112-2.5 4h1c0-1.43.785-3 1.5-3s1.5 1.57 1.5 3zm6 3.5c0 1.379-1.121 2.5-2.5 2.5s-2.5-1.121-2.5-2.5c.18-2.27 2.045-3.775 2.504-4.305.561.629 2.335 2.14 2.496 4.305zm-1 0c0-.925-.895-2.161-1.503-2.865-.607.694-1.497 1.917-1.497 2.865 0 .827.673 1.5 1.5 1.5s1.5-.673 1.5-1.5zm-20.5 2c-1.378 0-2.5-1.121-2.5-2.5.18-2.27 2.046-3.775 2.503-4.305.565.634 2.332 2.136 2.497 4.305 0 1.379-1.122 2.5-2.5 2.5zm1.5-2.5c0-.925-.895-2.161-1.503-2.865-.607.694-1.497 1.917-1.497 2.865 0 .827.673 1.5 1.5 1.5s1.5-.673 1.5-1.5zm8 7c-.325 0-.646-.018-.963-.049.024.183.053.365.053.549 0 .153-.03.298-.045.447.344.033.692.053 1.045.053 3.078 0 5.862-1.275 7.86-3.32-.346-.136-.665-.32-.959-.537-1.803 1.765-4.269 2.857-6.992 2.857zm-5.497-3.805c.565.634 2.332 2.135 2.497 4.305 0 1.379-1.122 2.5-2.5 2.5s-2.5-1.121-2.5-2.5c.18-2.27 2.046-3.774 2.503-4.305zm1.497 4.305c0-.925-.895-2.16-1.503-2.864-.607.693-1.497 1.916-1.497 2.864 0 .827.673 1.5 1.5 1.5s1.5-.673 1.5-1.5z"/></svg>