<?xml version="1.0" encoding="UTF-8"?>
<svg xmlns="http://www.w3.org/2000/svg" id="Layer_1" data-name="Layer 1" viewBox="0 0 24 24">
  <path d="M21.5,3H12.118L8.118,1H2.5C1.121,1,0,2.122,0,3.5V23H24V5.5c0-1.378-1.121-2.5-2.5-2.5ZM2.5,2H7.882l4,2h9.618c.827,0,1.5,.673,1.5,1.5v1.5H1V3.5c0-.827,.673-1.5,1.5-1.5ZM1,22V8H23v14H1ZM14.25,11c-.951,0-1.761,.435-2.25,1.128-.489-.693-1.299-1.128-2.25-1.128-1.517,0-2.75,1.314-2.75,2.93,0,2.774,4.522,5.947,4.715,6.081l.285,.198,.285-.198c.192-.134,4.715-3.306,4.715-6.081,0-1.616-1.233-2.93-2.75-2.93Zm-2.25,7.984c-1.336-.988-4-3.316-4-5.054,0-1.064,.785-1.93,1.75-1.93,1.014,0,1.75,.736,1.75,1.75v.25h1v-.25c0-1.014,.736-1.75,1.75-1.75,.965,0,1.75,.866,1.75,1.93,0,1.735-2.664,4.065-4,5.054Z"/>
</svg>
