<svg id="Layer_1" viewBox="0 0 24 24" xmlns="http://www.w3.org/2000/svg" data-name="Layer 1"><path d="m22.329 2.932-10.411-2.783c-.621-.16-1.271-.066-1.826.266s-.944.86-1.1 1.493l-.338 1.435 1.346.36v2.371h8v2h-5l1 1h10v-3.997c0-1.019-.69-1.901-1.671-2.145zm-11.329 1.038 4.126 1.104h-4.126zm12 4.104h-4v-2.999l-9.151-2.448.114-.486c.09-.366.318-.674.641-.868.325-.194.703-.248 1.061-.157l10.415 2.784c.542.134.92.618.92 1.176v2.997zm-17.835 0-4.618 4.618c-.729.729-.729 1.917 0 2.647l8.589 8.588 8.459-8.46-7.395-7.394h-5.035zm4.371 1-1.793 1.793-1.793-1.793zm-.401 13.44-7.881-7.882c-.34-.34-.34-.895 0-1.234l3.804-3.803 2.685 2.686 2.625-2.625 5.812 5.812zm12.865-16.441c0 .552-.449 1-1 1s-1-.448-1-1 .449-1 1-1 1 .448 1 1z"/></svg>