<svg id="Layer_1" viewBox="0 0 24 24" xmlns="http://www.w3.org/2000/svg" data-name="Layer 1"><path d="m1 7h-1v-4.5c0-1.378 1.122-2.5 2.5-2.5h4.5v1h-4.5c-.827 0-1.5.673-1.5 1.5zm1.5 16h4.5v1h-4.5c-1.378 0-2.5-1.122-2.5-2.5v-4.5h1v4.5c0 .827.673 1.5 1.5 1.5zm20.5-6h1v4.5c0 1.378-1.121 2.5-2.5 2.5h-4.5v-1h4.5c.827 0 1.5-.673 1.5-1.5zm1-14.5v4.5h-1v-4.5c0-.827-.673-1.5-1.5-1.5h-4.5v-1h4.5c1.379 0 2.5 1.122 2.5 2.5zm-16 12.5c-.285 1.283-.771 2.295-1.464 2.968-.747.726-1.875.96-2.536 1.032v-1.009c.487-.067 1.334-.249 1.84-.74.518-.503.894-1.275 1.137-2.251zm7.889 0h1.009c-.211 2.092-.707 4.476-1.559 6.413l-.916-.402c.788-1.793 1.257-4.044 1.466-6.011zm4.111 0c-.132 1.669-.434 3.627-1.122 5.66l-.947-.32c.645-1.906.936-3.754 1.067-5.34zm-7.006 0h1.006c-.271 2.49-.992 4.581-2.156 6.242l-.852-.532c1.068-1.506 1.738-3.418 2.002-5.71zm-1.994 0c-.346 2.036-1.264 4.03-3.605 5.784l-.552-.829c1.987-1.505 2.808-3.186 3.141-4.955h1.017zm9-3c0-1.277-.246-2.405-.751-3.446l-.9.437c.444.915.651 1.871.651 3.009h-2c0-2.804-2.195-5-4.999-5-1.053 0-2.063.32-2.924.926l.576.817c.69-.486 1.502-.743 2.348-.743 2.232 0 3.981 1.743 3.997 4h-2c-.009-1.104-.909-2-2.015-2-1.112 0-1.983.878-1.983 2h-2c0-.758.104-1.27.359-1.769l-.89-.456c-.329.642-.47 1.308-.47 2.225h-2c0-3.925 3.068-7 6.985-7 1.542 0 3.009.49 4.242 1.417l.602-.799c-1.408-1.059-3.083-1.619-4.843-1.619-4.478 0-7.985 3.514-7.985 8h-4v1h24v-1h-4zm-8.017-1c.555 0 1.004.447 1.014 1h-1.997c0-.57.423-1 .983-1z"/></svg>