<svg id="Layer_1" viewBox="0 0 24 24" xmlns="http://www.w3.org/2000/svg" data-name="Layer 1"><path d="m15 13v4h-4v-3.023l-3.218-.987 1.541-5.99h2.32l3.356-2.098v-1.179l-3.644 2.277h-4.888c-.936 0-1.758.664-1.951 1.56l-.732 2.849c-.247 1.125.303 2.24 1.302 2.753l-.946 2.838h-4.14v1h4.86l1.168-3.502 3.972 1.218v2.284h-3v3h-7v4h1v-3h6v3h1v-6h7v6h1v-10h7v10h1v-11zm-10.244-2.36.732-2.85c.099-.458.51-.79.978-.79h1.824l-1.465 5.697-1.066-.327c-.734-.241-1.164-.992-1.002-1.729zm3.744-5.64c1.378 0 2.5-1.122 2.5-2.5s-1.122-2.5-2.5-2.5-2.5 1.122-2.5 2.5 1.122 2.5 2.5 2.5zm0-4c.827 0 1.5.673 1.5 1.5s-.673 1.5-1.5 1.5-1.5-.673-1.5-1.5.673-1.5 1.5-1.5zm9.5 5 5.547-3-5.52-3h-1.027v11h1zm3.453-3-3.453 1.877v-3.754z"/></svg>