<svg id="Layer_1" viewBox="0 0 24 24" xmlns="http://www.w3.org/2000/svg" data-name="Layer 1"><path d="m6 10.808v-2.808h1v2.293l4.293-4.293-4.293-4.293v2.293h-1v-2.808c0-.658.535-1.192 1.192-1.192h2.808v1h-2.293l4.293 4.293 4.293-4.293h-2.293v-1h2.808c.657 0 1.192.535 1.192 1.192v2.808h-1v-2.293l-4.293 4.293 4.293 4.293v-2.293h1v2.808c0 .658-.535 1.192-1.192 1.192h-2.808v-1h2.293l-4.293-4.293-4.293 4.293h2.293v1h-2.808c-.657 0-1.192-.535-1.192-1.192zm18 9.192v-15.5c0-1.378-1.121-2.5-2.5-2.5h-1.5v1h1.5c.827 0 1.5.673 1.5 1.5v14.5h-22v-14.5c0-.827.673-1.5 1.5-1.5h1.5v-1h-1.5c-1.379 0-2.5 1.122-2.5 2.5v15.5h11.5v3h-5.5v1h12v-1h-5.5v-3z"/></svg>