<svg id="Layer_1" viewBox="0 0 24 24" xmlns="http://www.w3.org/2000/svg" data-name="Layer 1"><path d="m11.045 11.522c0-1.379-1.122-2.5-2.5-2.5s-2.5 1.121-2.5 2.5 1.122 2.5 2.5 2.5 2.5-1.121 2.5-2.5zm-2.5 1.5c-.827 0-1.5-.673-1.5-1.5s.673-1.5 1.5-1.5 1.5.673 1.5 1.5-.673 1.5-1.5 1.5zm-.5-6.5c0-1.379-1.122-2.5-2.5-2.5s-2.5 1.121-2.5 2.5 1.122 2.5 2.5 2.5 2.5-1.121 2.5-2.5zm-2.5 1.5c-.827 0-1.5-.673-1.5-1.5s.673-1.5 1.5-1.5 1.5.673 1.5 1.5-.673 1.5-1.5 1.5zm7 5c-1.378 0-2.5 1.121-2.5 2.5s1.122 2.5 2.5 2.5 2.5-1.121 2.5-2.5-1.122-2.5-2.5-2.5zm0 4c-.827 0-1.5-.673-1.5-1.5s.673-1.5 1.5-1.5 1.5.673 1.5 1.5-.673 1.5-1.5 1.5zm5-1c-1.378 0-2.5 1.121-2.5 2.5s1.122 2.5 2.5 2.5 2.5-1.121 2.5-2.5-1.122-2.5-2.5-2.5zm0 4c-.827 0-1.5-.673-1.5-1.5s.673-1.5 1.5-1.5 1.5.673 1.5 1.5-.673 1.5-1.5 1.5zm6.283 2.19c-.008-.021-.784-2.165-.784-3.691 0-1.469-.572-2.85-1.611-3.889-1.047-1.046-2.449-1.611-3.979-1.588-.72-1.428-2.024-2.466-3.581-2.852-.385-1.556-1.424-2.859-2.852-3.581.027-1.498-.541-2.932-1.588-3.978-1.039-1.039-2.419-1.611-3.888-1.611s-2.954-.81-2.969-.819l-.436-.24c-.336.684-1.952 3.231-2.072 6.105 0 1.827.535 3.288 1.59 4.343.403.403.87.74 1.391 1.004-.062 2.57 1.699 4.828 4.167 5.437.609 2.467 2.866 4.229 5.436 4.167.263.521.6.987 1.004 1.392 1.055 1.055 2.516 1.59 4.343 1.59 2.876-.088 5.232-1.07 6-1.315l-.172-.472zm-5.829.787c-1.552 0-2.775-.437-3.636-1.297-.488-.473-.84-1.104-1.092-1.751-2.521.458-4.925-1.421-5.206-3.951-2.528-.28-4.409-2.683-3.95-5.204-.648-.253-1.278-.605-1.751-1.093-.86-.86-1.297-2.084-1.297-3.636 0-1.646 1.022-3.854 1.482-4.765.622.28 1.79.72 2.996.72s2.332.468 3.181 1.318c1.018 1 1.445 2.467 1.252 3.9 1.656.585 2.836 2.054 3.045 3.802 1.748.21 3.217 1.389 3.801 3.044 1.426-.193 2.897.234 3.901 1.252.85.85 1.318 1.979 1.318 3.182 0 1.246.435 2.78.681 3.549-.931.301-3.076.93-4.725.93z"/></svg>