<svg id="Layer_1" viewBox="0 0 24 24" xmlns="http://www.w3.org/2000/svg" data-name="Layer 1"><path d="m12 4c1.103 0 2-.897 2-2s-.897-2-2-2-2 .897-2 2 .897 2 2 2zm0-3c.551 0 1 .449 1 1s-.449 1-1 1-1-.449-1-1 .449-1 1-1zm9 10h-.767l-5.302-6.296c-.227.246-.479.466-.761.649l4.755 5.647h-13.85l4.755-5.647c-.282-.183-.534-.403-.761-.649l-5.302 6.296h-.767c-1.654 0-3 1.346-3 3v10h24v-10c0-1.654-1.346-3-3-3zm2 12h-22v-9c0-1.103.897-2 2-2h18c1.103 0 2 .897 2 2zm-10-9h3v1h-2v2h2v1h-2v2h2v1h-3zm-3.25 0h-1.75v7h1v-2.5h.75c1.241 0 2.25-1.009 2.25-2.25s-1.009-2.25-2.25-2.25zm0 3.5h-.75v-2.5h.75c.689 0 1.25.561 1.25 1.25s-.561 1.25-1.25 1.25zm10.25-3.5h1v7h-.83l-2.17-4.5v4.5h-1v-7h.83l2.17 4.5zm-15 0c-1.103 0-2 .897-2 2v3c0 1.103.897 2 2 2s2-.897 2-2v-3c0-1.103-.897-2-2-2zm1 5c0 .551-.449 1-1 1s-1-.449-1-1v-3c0-.551.449-1 1-1s1 .449 1 1z"/></svg>