<svg id="Layer_1" viewBox="0 0 24 24" xmlns="http://www.w3.org/2000/svg" data-name="Layer 1"><path d="m11.005 21.605c.01.42.074.827.192 1.211l-1.197 1.171-7.067-6.911s-.002-.003-.003-.005c-3.901-3.899-3.901-10.243-.001-14.142 1.889-1.889 4.4-2.929 7.071-2.929s5.182 1.04 7.07 2.929c1.483 1.483 2.4 3.319 2.755 5.24-.34-.085-.692-.137-1.053-.154-.361-1.605-1.162-3.131-2.409-4.378-1.7-1.699-3.96-2.636-6.363-2.636s-4.664.936-6.364 2.635c-3.508 3.509-3.509 9.217-.001 12.727l6.365 6.225zm12.995-6.605v6.5c0 1.379-1.121 2.5-2.5 2.5h-6c-1.379 0-2.5-1.121-2.5-2.5v-6.5h2v-1.5c0-1.93 1.57-3.5 3.5-3.5s3.5 1.57 3.5 3.5v1.5zm-8 0h5v-1.5c0-1.379-1.121-2.5-2.5-2.5s-2.5 1.121-2.5 2.5zm7 1h-9v5.5c0 .827.673 1.5 1.5 1.5h6c.827 0 1.5-.673 1.5-1.5zm-4 2.5h-1v2h1zm-5-8.5c0 2.206-1.794 4-4 4s-4-1.794-4-4 1.794-4 4-4 4 1.794 4 4zm-1 0c0-1.654-1.346-3-3-3s-3 1.346-3 3 1.346 3 3 3 3-1.346 3-3z"/></svg>