<?xml version="1.0" encoding="UTF-8"?>
<svg xmlns="http://www.w3.org/2000/svg" id="Layer_1" data-name="Layer 1" viewBox="0 0 24 24">
  <path d="M17,8c0-.828,.448-1.5,1-1.5s1,.672,1,1.5-.448,1.5-1,1.5-1-.672-1-1.5Zm7,15v1H10.5c-1.93,0-3.5-1.57-3.5-3.5v-4.5h-2.25C1.998,16,0,12.636,0,8S1.998,0,4.75,0h12.75V.066c.164-.039,.33-.066,.5-.066,2.243,0,4,3.514,4,8v13c0,1.215,.785,2,2,2ZM18,1c-1.419,0-3,2.875-3,7s1.581,7,3,7,3-2.875,3-7-1.581-7-3-7ZM4.75,15h11.288c-1.225-1.352-2.038-3.95-2.038-7s.813-5.648,2.038-7H4.75c-2.138,0-3.75,3.009-3.75,7s1.612,7,3.75,7Zm5.75,8h11.206c-.442-.517-.706-1.199-.706-2v-7.668c-.728,1.642-1.792,2.668-3,2.668H8v4.5c0,1.378,1.122,2.5,2.5,2.5Zm.146-18.354l-2.646,2.646-2.646-2.646-.707,.707,2.646,2.646-2.646,2.646,.707,.707,2.646-2.646,2.646,2.646,.707-.707-2.646-2.646,2.646-2.646-.707-.707Z"/>
</svg>
