<svg id="Layer_1" viewBox="0 0 24 24" xmlns="http://www.w3.org/2000/svg" data-name="Layer 1"><path d="m21.5 0c-1.378 0-2.5 1.121-2.5 2.5v6.997c-.391-.294-.86-.466-1.359-.493-.673-.045-1.306.188-1.807.638l-3.833 3.527-3.838-3.531c-.497-.445-1.13-.676-1.803-.634-.499.027-.968.199-1.359.493v-6.997c-.001-1.379-1.123-2.5-2.501-2.5s-2.5 1.121-2.5 2.5v13.231c0 .618.229 1.214.645 1.676l3.197 3.593h16.317l3.197-3.593c.416-.462.645-1.058.645-1.676v-13.231c0-1.379-1.122-2.5-2.5-2.5zm-17.206 20-2.908-3.263c-.25-.277-.387-.635-.387-1.006v-13.231c0-.827.673-1.5 1.5-1.5s1.5.673 1.5 1.5v9h.01c.003.574.199 1.152.598 1.627l3.074 3.179.719-.695-3.051-3.152c-.476-.566-.462-1.409.032-1.96.519-.611 1.527-.658 2.108-.12l4.025 3.704c.308.283.485.686.485 1.104v4.814h-7.705zm18.706-4.269c0 .371-.137.729-.387 1.006l-2.908 3.263h-6.706v-4.814c0-.445-.132-.874-.353-1.253l3.859-3.55c.583-.543 1.59-.497 2.112.116.484.538.515 1.381.055 1.934l-3.074 3.179.719.695 3.098-3.205c.387-.461.576-1.031.577-1.601h.007v-9.001c0-.827.673-1.5 1.5-1.5s1.5.673 1.5 1.5v13.231zm-19 7.269h16v1h-16z"/></svg>