<svg id="Layer_1" viewBox="0 0 24 24" xmlns="http://www.w3.org/2000/svg" data-name="Layer 1"><path d="m16.515 9.125c-.259-.58-.802-1.008-1.503-1.125h-6.312c-.938 0-1.7.763-1.7 1.7v5.3h2c0 .552.448 1 1 1s1-.448 1-1h3c0 .552.448 1 1 1s1-.448 1-1h2v-1.96c0-.381-.078-.75-.232-1.098l-1.253-2.818zm-.913.407.652 1.468h-2.254v-2.007h.924c.288.05.555.262.678.538zm-4.602 1.468v-2.003l2-.003v2.005h-2zm-2.3-2 1.3-.002v2.002h-2v-1.3c0-.386.314-.7.7-.7zm8.3 5h-9v-2h8.698l.156.35c.098.218.146.45.146.69zm6.5-4.5h.5v-4c0-1.378-1.121-2.5-2.5-2.5h-19c-1.379 0-2.5 1.122-2.5 2.5v13c0 1.379 1.121 2.5 2.5 2.5h19c1.379 0 2.5-1.121 2.5-2.5v-4h-.5c-1.379 0-2.5-1.121-2.5-2.5s1.121-2.5 2.5-2.5zm-.5 5.965v3.035c0 .827-.673 1.5-1.5 1.5h-19c-.827 0-1.5-.673-1.5-1.5v-13c0-.827.673-1.5 1.5-1.5h19c.827 0 1.5.673 1.5 1.5v3.036c-1.694.243-3 1.704-3 3.464s1.306 3.221 3 3.465zm-19-10.465h1v2h-1zm0 4h1v2h-1zm0 4h1v2h-1zm0 4h1v2h-1z"/></svg>