<svg id="Layer_1" viewBox="0 0 24 24" xmlns="http://www.w3.org/2000/svg" data-name="Layer 1"><path d="m7 20c-1.103 0-2 .897-2 2s.897 2 2 2 2-.897 2-2-.897-2-2-2zm0 3c-.551 0-1-.449-1-1s.449-1 1-1 1 .449 1 1-.449 1-1 1zm10-3c-1.103 0-2 .897-2 2s.897 2 2 2 2-.897 2-2-.897-2-2-2zm0 3c-.551 0-1-.449-1-1s.449-1 1-1 1 .449 1 1-.449 1-1 1zm3-23c-2.206 0-4 1.794-4 4s1.794 4 4 4 4-1.794 4-4-1.794-4-4-4zm0 7c-1.654 0-3-1.346-3-3s1.346-3 3-3 3 1.346 3 3-1.346 3-3 3zm1.626 2.771c.386-.109.756-.254 1.107-.434l-1.132 5.663h-15.583l.237 1.706c.103.738.742 1.294 1.486 1.294h12.259v1h-12.259c-1.24 0-2.305-.927-2.476-2.156l-2.02-14.55c-.103-.738-.742-1.294-1.486-1.294h-1.759v-1h1.759c1.24 0 2.305.927 2.476 2.156l.256 1.844h9.509c0 .341.035.674.09 1h-9.46l1.25 9h14.9z"/></svg>