<svg id="Layer_1" viewBox="0 0 24 24" xmlns="http://www.w3.org/2000/svg" data-name="Layer 1"><path d="m20.736 12.973c.163-.289.264-.618.264-.973 0-1.103-.897-2-2-2s-2 .897-2 2 .897 2 2 2c.384 0 .74-.114 1.045-.303l2.955 2.532v6.771h-5v-4.5c0-2.481-2.019-4.5-4.5-4.5h-9c-2.481 0-4.5 2.019-4.5 4.5v5.5h24v-8.229l-3.264-2.797zm-2.736-.973c0-.551.448-1 1-1s1 .449 1 1-.448 1-1 1-1-.449-1-1zm-1 11h-16v-4.5c0-1.93 1.57-3.5 3.5-3.5h9c1.93 0 3.5 1.57 3.5 3.5zm-15.066-10.47c.492-2.09.911-3.866 1.223-5.186.612 2.663 2.997 4.656 5.843 4.656 1.751 0 3.328-.754 4.426-1.953-.105-.444-.202-.856-.292-1.238-.901 1.321-2.418 2.191-4.134 2.191-2.415 0-4.435-1.722-4.899-4.002h.914c3.167-.094 5.881-2.214 6.808-5.207 1.127.674 2.009 1.734 2.425 3.058.026.087.505 2.11 1.247 5.26.209-.386.472-.736.791-1.032-.093-.395-.181-.769-.267-1.131.556-.126.981-.602.981-1.196v-1.5c0-.689-.561-1.25-1.25-1.25h-.77c-1.003-2.409-3.326-4-5.98-4s-4.977 1.591-5.98 4h-.77c-.689 0-1.25.561-1.25 1.25v1.5c0 .594.425 1.069.981 1.196-.367 1.551-.811 3.441-1.238 5.26.371-.264.769-.493 1.192-.676zm7.066-11.53c.672 0 1.316.131 1.917.353-.757 2.664-3.142 4.563-5.918 4.644l-1.523.002c.167-.702.265-1.112.276-1.15.723-2.303 2.832-3.85 5.248-3.85z"/></svg>