<?xml version="1.0" encoding="UTF-8"?>
<svg xmlns="http://www.w3.org/2000/svg" id="Layer_1" data-name="Layer 1" viewBox="0 0 24 24">
  <path d="M12,23c1.041,0,2.045-.155,3-.426v1.032c-.961,.249-1.962,.395-3,.395-.338,0-.669-.023-1-.051v-1c.33,.03,.662,.051,1,.051ZM12,0C5.383,0,0,5.383,0,12c0,4.43,2.419,8.297,6,10.376v-1.169c-3.006-1.966-5-5.356-5-9.208C1,5.935,5.935,1,12,1s11,4.935,11,11c0,2.912-1.146,5.557-3,7.526v1.392c2.448-2.198,4-5.377,4-8.919C24,5.383,18.617,0,12,0Zm6,7.616V24h-1v-4.157c-2.038-1.934-3.052-4.122-2.998-6.511,.116-2.874,1.479-5.084,2.611-6.107,.478-.418,1.241-.229,1.387,.392Zm-1,.634c-.802,.876-1.899,2.684-1.998,5.113-.041,1.808,.63,3.505,1.998,5.053V8.25Zm-5,4.75V7h-1v6c0,.551-.449,1-1,1h-1V7h-1v7h-1c-.551,0-1-.449-1-1V7h-1v6c0,1.103,.897,2,2,2h1v9h1V15h1c1.103,0,2-.897,2-2Z"/>
</svg>
