<svg id="Layer_1" viewBox="0 0 24 24" xmlns="http://www.w3.org/2000/svg" data-name="Layer 1"><path d="m23.75 5.5c0-1.93-1.57-3.5-3.5-3.5-1.133 0-2.081.542-2.998 1.065-.841.48-1.635.935-2.502.935-1.683 0-2.785-.774-4.061-1.671-1.552-1.092-3.312-2.329-6.439-2.329h-4v3h2v18h-2v3h13v-3h-1.503c7.776-6.989 12.003-13.832 12.003-15.5zm-11.5 16.5v1h-11v-1h6.349c9.244-7.432 14.224-15.574 14.13-16.369-.02-.824-.673-1.549-1.479-1.541-.602 0-1.284.39-2.006.803-.934.533-2.095 1.197-3.494 1.197-2.313 0-3.784-1.033-5.211-2.035-1.506-1.057-2.786-2.048-5.289-2.055h-3v-1h3c2.811 0 4.363 1.092 5.864 2.146 1.355.953 2.637 1.854 4.636 1.854 1.133 0 2.081-.542 2.998-1.065.841-.48 1.635-.935 2.502-.935 1.379 0 2.5 1.121 2.5 2.5 0 1.756-5.627 10.084-13.666 16.5zm-9-1v-18h1c.363 0 .689.032 1 .078v17.922zm3 0v-17.693c.746.25 1.369.635 2 1.068v15.777c-.333.282-.66.564-1.007.848zm3-1.711v-14.218c.609.425 1.26.855 2 1.211v11.173c-.633.604-1.3 1.216-2 1.833zm3-2.808v-9.791c.599.199 1.264.328 2 .372v7.347c-.618.672-1.29 1.366-2 2.072zm3-3.184v-6.234c.742-.067 1.404-.272 2-.531v4.348c-.591.758-1.253 1.564-2 2.417zm3-3.745v-3.516c.169-.093.333-.186.49-.275.55-.314 1.173-.671 1.51-.671.229 0 .427.158.484.373-.205.596-1.025 2.078-2.484 4.089z"/></svg>