<svg id="Layer_1" viewBox="0 0 24 24" xmlns="http://www.w3.org/2000/svg" data-name="Layer 1"><path d="m6.182 18.138c.097.424.217.834.355 1.231-3.81-1.413-6.537-5.074-6.537-9.369 0-5.514 4.486-10 10-10s10 4.486 10 10c0 1.064-.17 2.087-.479 3.05-.141-.016-.279-.048-.421-.048h-.625c.334-.941.526-1.948.526-3.002-.001-4.963-4.039-9-9.001-9s-9 4.037-9 9c0 3.597 2.126 6.698 5.182 8.138zm3.318-8.638h-3.5v1h4.5v-6.5h-1zm14.5 10.714c0 1.51-1.328 2.786-2.9 2.786h-2.965c-.57.686-.646.737-.905 1h-5.315c-.305-.297-3.18-2.911-3.891-6.836-.086-.522.066-1.06.418-1.474.373-.438.915-.69 1.489-.69l9.168.002c.576 0 1.141.266 1.51.709.346.416.49.95.395 1.465-.052.281-.119.554-.193.824h.289c1.816 0 2.9.827 2.9 2.214zm-4.3-2.007c.141-.534.557-1.41.14-1.857-.182-.218-.459-.349-.741-.349l-9.168-.002c-.279 0-.544.123-.727.338-.164.192-.232.429-.194.664.489 2.97 2.729 5.41 3.307 5.998h4.492c.482-.521 2.097-2.396 2.891-4.793zm3.3 2.007c0-1.003-1.033-1.214-1.9-1.214h-.616c-.444 1.172-1.043 2.197-1.6 3h2.216c1.012 0 1.9-.835 1.9-1.786z"/></svg>