<?xml version="1.0" encoding="UTF-8"?>
<svg xmlns="http://www.w3.org/2000/svg" id="Layer_1" data-name="Layer 1" viewBox="0 0 24 24">
  <path d="M16.617,10.918c.246,.662,.383,1.365,.383,2.082h-1c0-.442-.075-.867-.184-1.281l.801-.801Zm2.264-2.264l-.741,.741c.559,1.104,.861,2.33,.861,3.604h1c0-1.546-.392-3.03-1.12-4.345Zm-8.368,8.156c.219,.11,.984,.43,.984,.43l1.338-1.338,1.775,1.775-.74,.74c-.375,.375-.885,.582-1.438,.582-.937,0-2.012-.376-3.068-1.041l-.723,.723c1.275,.845,2.595,1.318,3.791,1.318,.82,0,1.583-.311,2.145-.875l1.447-1.447-3.189-3.189-2.322,2.322Zm13.487-4.811c0,6.617-5.383,12-12,12S0,18.617,0,12,5.383,0,12,0s12,5.383,12,12ZM1,12c0,2.853,1.101,5.447,2.889,7.404l2.587-2.587c-1.538-1.681-2.476-3.641-2.476-5.249,0-.82,.311-1.583,.875-2.146l1.447-1.447,3.19,3.189-1.577,1.577c.261,.603,.618,1.121,1.022,1.594l3.052-3.052c-.302-.178-.644-.284-1.009-.284v-1c.636,0,1.227,.21,1.727,.566l1.422-1.422c-.89-.728-1.988-1.144-3.149-1.144v-1c1.427,0,2.777,.519,3.859,1.434l1.427-1.427c-1.462-1.293-3.318-2.007-5.286-2.007v-1c2.236,0,4.341,.819,5.993,2.3l2.411-2.411c-1.957-1.788-4.551-2.889-7.404-2.889C5.935,1,1,5.935,1,12Zm7.231,3.062c-1-1.19-1.467-2.563-1.467-2.563l1.333-1.333-1.776-1.775-.74,.74c-.375,.375-.582,.885-.582,1.438,0,1.337,.843,3.062,2.182,4.542l1.048-1.048Zm14.769-3.062c0-2.853-1.101-5.447-2.889-7.404L4.596,20.111c1.957,1.788,4.551,2.889,7.404,2.889,6.065,0,11-4.935,11-11Z"/>
</svg>
