<svg id="Layer_1" viewBox="0 0 24 24" xmlns="http://www.w3.org/2000/svg" data-name="Layer 1"><path d="m24 6.927v17.073h-24v-19.5c0-1.378 1.122-2.5 2.5-2.5h12.98c-.255.297-.536.627-.855 1h-12.125c-.827 0-1.5.673-1.5 1.5v4.5h7.109c-.428.278-.832.612-1.208 1h-5.901v13h22v-13h-1.848l.927-1h.921v-.994zm-21-.927c0 .552.448 1 1 1s1-.448 1-1-.448-1-1-1-1 .448-1 1zm2 14h14v-1h-14zm1-14c0 .552.448 1 1 1s1-.448 1-1-.448-1-1-1-1 .448-1 1zm5 0c0-.552-.448-1-1-1s-1 .448-1 1 .448 1 1 1 1-.448 1-1zm.255 4.018c7.123-8.332 7.798-9.117 7.835-9.159 1.141-1.137 2.958-1.137 4.074-.022 1.115 1.118 1.109 2.941-.012 4.065l-8.172 8.815h-.001c-.114 1.826-1.622 3.283-3.478 3.283h-5.66l.312-1.244c.425-1.689 1.767-5.553 5.102-5.739zm2.745 3.482c0-1.378-1.122-2.5-2.5-2.5-2.816 0-4 3.497-4.378 5h4.378c1.378 0 2.5-1.122 2.5-2.5zm.814-1.075 2.102-2.268c-.388-1.142-1.369-1.933-2.635-2.141-.549.642-1.161 1.358-1.824 2.133 1.117.32 1.998 1.175 2.357 2.276zm.201-5.267c1.187.346 2.129 1.124 2.647 2.195l4.769-5.144c.746-.748.751-1.938.025-2.666-.725-.724-1.909-.725-2.638 0-.006.008-.387.45-4.803 5.614z"/></svg>