<?xml version="1.0" encoding="UTF-8"?>
<svg xmlns="http://www.w3.org/2000/svg" id="Layer_1" data-name="Layer 1" viewBox="0 0 24 24">
  <path d="M19.5,0h-2.5V6H9v-1.5C9,2.019,6.981,0,4.5,0S0,2.019,0,4.5v15c0,2.481,2.019,4.5,4.5,4.5h15c2.481,0,4.5-2.019,4.5-4.5V4.5c0-2.481-2.019-4.5-4.5-4.5ZM1,4.5c0-1.93,1.57-3.5,3.5-3.5s3.5,1.57,3.5,3.5v12.206c-.825-1.032-2.079-1.706-3.5-1.706s-2.675,.675-3.5,1.706V4.5Zm0,15c0-1.93,1.57-3.5,3.5-3.5s3.5,1.57,3.5,3.5-1.57,3.5-3.5,3.5-3.5-1.57-3.5-3.5Zm18.5,3.5H7.294c1.032-.825,1.706-2.079,1.706-3.5V7h8v9h2.5c1.93,0,3.5,1.57,3.5,3.5s-1.57,3.5-3.5,3.5Zm3.5-6.325c-.825-1.021-2.088-1.675-3.5-1.675h-1.5V1h1.5c1.93,0,3.5,1.57,3.5,3.5v12.175Zm-18.5,.325c-1.379,0-2.5,1.121-2.5,2.5s1.121,2.5,2.5,2.5,2.5-1.121,2.5-2.5-1.121-2.5-2.5-2.5Zm0,4c-.827,0-1.5-.673-1.5-1.5s.673-1.5,1.5-1.5,1.5,.673,1.5,1.5-.673,1.5-1.5,1.5Z"/>
</svg>
