<svg id="Layer_1" viewBox="0 0 24 24" xmlns="http://www.w3.org/2000/svg" data-name="Layer 1"><path d="m23.977 12c-.675-.583-1.821-1.99-4.937-2.821 1.6-2.85 1.372-4.785 1.417-5.636-.828.051-2.787-.177-5.636 1.418-.834-3.122-2.234-4.258-2.821-4.938-.583.675-1.99 1.821-2.821 4.937-2.853-1.597-4.797-1.367-5.636-1.418.044.845-.181 2.791 1.417 5.636-3.121.835-4.257 2.235-4.937 2.822.675.583 1.821 1.99 4.937 2.821-1.6 2.85-1.372 4.785-1.417 5.636.964-.038 2.863.143 5.636-1.417.834 3.121 2.234 4.257 2.821 4.936.583-.675 1.99-1.82 2.821-4.936 2.778 1.561 4.667 1.378 5.636 1.417-.044-.845.181-2.791-1.417-5.636 3.121-.834 4.257-2.234 4.937-2.821zm-8.977-5.5c0-.14-.01-.277-.019-.414 1.554-1.063 3.552-1.447 4.454-1.521-.074.901-.414 2.902-1.474 4.456-.152-.011-.305-.021-.461-.021-1.205 0-2.322.333-3.259.759.426-.936.759-2.054.759-3.259zm-2.999-4.993c.66.822 1.999 2.764 1.999 4.993 0 1.436-.557 2.748-1.121 3.713-.267-.132-.562-.213-.879-.213s-.613.081-.879.213c-.564-.965-1.121-2.277-1.121-3.713 0-2.222 1.341-4.169 2.001-4.993zm.999 10.493c0 .552-.448 1-1 1s-1-.448-1-1 .448-1 1-1 1 .448 1 1zm-8.435-7.435c.898.074 2.902.437 4.455 1.49-.01.147-.02.294-.02.444 0 1.205.333 2.322.759 3.259-.936-.426-2.054-.759-3.259-.759-.152 0-.302.01-.451.021-1.094-1.562-1.409-3.542-1.484-4.455zm-3.058 7.434c.822-.66 2.764-1.999 4.993-1.999 1.436 0 2.748.557 3.713 1.121-.132.267-.213.562-.213.879s.081.613.213.879c-.965.564-2.277 1.121-3.713 1.121-2.222 0-4.169-1.341-4.993-2.001zm7.493 5.501c0 .151.01.298.021.445-1.557 1.072-3.55 1.415-4.455 1.489.075-.908.418-2.896 1.497-4.455.145.01.29.02.438.02 1.205 0 2.322-.333 3.259-.759-.426.936-.759 2.054-.759 3.259zm2.999 4.993c-.66-.822-1.999-2.764-1.999-4.993 0-1.436.557-2.748 1.121-3.713.267.132.562.213.879.213s.613-.081.879-.213c.564.965 1.121 2.277 1.121 3.713 0 2.222-1.341 4.169-2.001 4.993zm7.436-3.059c-.905-.074-2.897-.454-4.453-1.526.009-.135.019-.27.019-.408 0-1.205-.333-2.322-.759-3.259.936.426 2.054.759 3.259.759.153 0 .303-.01.453-.021 1.066 1.555 1.407 3.552 1.481 4.455zm-1.935-5.435c-1.436 0-2.748-.557-3.713-1.121.132-.267.213-.562.213-.879s-.081-.613-.213-.879c.965-.564 2.277-1.121 3.713-1.121 2.222 0 4.169 1.341 4.993 2.001-.822.66-2.764 1.999-4.993 1.999z"/></svg>