<?xml version="1.0" encoding="UTF-8"?>
<svg xmlns="http://www.w3.org/2000/svg" id="Layer_1" data-name="Layer 1" viewBox="0 0 24 24">
  <path d="M4,13v11h-1V14.642l-2.257,2.322L.026,16.267l3.175-3.267h.798Zm4-6c0,2.206-1.794,4-4,4S0,9.206,0,7v-3C0,1.794,1.794,0,4,0s4,1.794,4,4v3Zm-1-3c0-1.654-1.346-3-3-3S1,2.346,1,4v3c0,1.654,1.346,3,3,3s3-1.346,3-3v-3ZM14,1.642V10.367c.284-.406,.62-.767,1-1.083V0h-.798l-3.176,3.267,.717,.697,2.257-2.322Zm9.3,22.365l-3.007-3.007c-.77,.616-1.733,1-2.793,1-2.481,0-4.5-2.019-4.5-4.5s2.019-4.5,4.5-4.5,4.5,2.019,4.5,4.5c0,1.06-.384,2.023-1,2.793l3.007,3.007-.707,.707Zm-2.3-6.507c0-1.93-1.57-3.5-3.5-3.5s-3.5,1.57-3.5,3.5,1.57,3.5,3.5,3.5,3.5-1.57,3.5-3.5Zm-9,5.5c-1.654,0-3-1.346-3-3v-3c0-1.654,1.346-3,3-3,.009,0,.018,.003,.027,.003,.212-.331,.454-.641,.721-.927-.243-.046-.492-.076-.748-.076-2.206,0-4,1.794-4,4v3c0,2.206,1.794,4,4,4,.893,0,1.709-.304,2.376-.8-.319-.175-.619-.379-.902-.603-.437,.249-.936,.403-1.474,.403Z"/>
</svg>
