<svg id="Layer_1" viewBox="0 0 24 24" xmlns="http://www.w3.org/2000/svg" data-name="Layer 1"><path d="m23.861 9.185c-.705-4.475-4-7.977-8.393-8.924-4.295-.927-8.581.661-11.175 4.125-1.455 1.772-3.054 6.149-4.293 8.911v1.703h2.396l.793 3.988c.231 1.166 1.263 2.012 2.452 2.012h2.358v3h13v-4.349c0-.574.197-1.129.556-1.562 1.979-2.389 2.819-5.635 2.306-8.904zm-3.075 8.267c-.507.612-.786 1.393-.786 2.2v3.349h-11v-3h-3.358c-.713 0-1.333-.508-1.472-1.208l-.953-4.792h-2.217v-.395c1.181-2.635 2.702-6.895 4.082-8.605 2.369-3.162 6.269-4.602 10.175-3.762 3.987.858 6.977 4.039 7.616 8.101.47 2.986-.291 5.943-2.087 8.111zm-7.286-6.951h2.5v1h-2.5v2.5h-1v-2.5h-2.5v-1h2.5v-2.5h1zm2.75-5.45c-1.463 0-2.702.646-3.25.984-.547-.338-1.787-.984-3.25-.984-2.068 0-3.75 1.799-3.75 4.01.124 4.122 6.528 8.451 7 8.799.469-.345 6.878-4.679 7-8.799 0-2.211-1.683-4.01-3.75-4.01zm-3.252 11.585c-1.911-1.39-5.998-4.917-5.998-7.575 0-1.66 1.233-3.01 2.75-3.01 2.013.118 2.765.902 3.251 1.206.483-.305 1.228-1.089 3.249-1.206 1.517 0 2.75 1.351 2.75 3.01 0 2.954-4.777 6.67-6.002 7.575z"/></svg>