<?xml version="1.0" encoding="UTF-8"?>
<svg xmlns="http://www.w3.org/2000/svg" id="Layer_1" data-name="Layer 1" viewBox="0 0 24 24">
  <path d="m21.5,0H2.5C1.122,0,0,1.122,0,2.5v21.5h12.726c-.347-.306-.668-.64-.959-1H1v-4h9v-1h-3v-5h4.595c.133-.194.269-.377.405-.55v-5.45h11v4.961c.345.338.682.694,1,1.073V2.5c0-1.378-1.122-2.5-2.5-2.5Zm-4.5,1v5H7V1h10ZM2.5,1h3.5v5H1v-3.5c0-.827.673-1.5,1.5-1.5Zm3.5,17H1v-5h5v5Zm5-6H1v-5h10v5Zm7-6V1h3.5c.827,0,1.5.673,1.5,1.5v3.5h-5Zm1.767,5.767c-.53-.443-1.03-.863-1.413-1.246l-.38-.38-.352.406c-.851.983-1.134,2.09-1.361,2.98-.274,1.076-.397,1.347-.8,1.347-.247,0-.46-.825-.461-1.5l-.003-1.231-.856.883c-.977,1.008-2.141,2.689-2.141,4.973,0,3.308,2.691,5.999,5.999,6,0,0,0,0,0,0h0c3.309,0,6-2.691,6-6,0-2.688-2.347-4.653-4.233-6.233Zm-.706,10.793c-.566.566-1.555.567-2.122,0-.283-.284-.439-.661-.439-1.062s.156-.777.439-1.061l1.061-1.061,1.06,1.061c.585.585.585,1.538,0,2.122Zm1.268-.163c.343-.894.159-1.946-.561-2.666l-1.768-1.768-1.768,1.768c-.472.472-.732,1.1-.732,1.768,0,.313.062.615.171.898-1.58-.841-2.671-2.486-2.671-4.397,0-1.415.533-2.567,1.149-3.428.197.724.605,1.303,1.312,1.303,1.233,0,1.505-1.067,1.769-2.1.176-.688.371-1.453.832-2.153.324.293.687.597,1.063.912,1.727,1.446,3.875,3.246,3.875,5.466,0,1.912-1.091,3.557-2.671,4.398Z"/>
</svg>
