<?xml version="1.0" encoding="UTF-8"?>
<svg xmlns="http://www.w3.org/2000/svg" id="Layer_1" data-name="Layer 1" viewBox="0 0 24 24">
  <path d="m7.981,20.5c0-1.379,1.122-2.5,2.5-2.5s2.5,1.121,2.5,2.5v.5h3.519c1.378,0,2.5-1.121,2.5-2.5V2.5c0-1.379-1.122-2.5-2.5-2.5h-3.519v.5c0,1.379-1.122,2.5-2.5,2.5s-2.5-1.121-2.5-2.5v-.5h-3.481c-1.378,0-2.5,1.121-2.5,2.5v16c0,1.379,1.122,2.5,2.5,2.5h3.481v-.5Zm-3.481-.5c-.827,0-1.5-.673-1.5-1.5V2.5c0-.827.673-1.5,1.5-1.5h2.517c.243,1.694,1.704,3,3.464,3s3.221-1.306,3.464-3h2.554c.827,0,1.5.673,1.5,1.5v16c0,.827-.673,1.5-1.5,1.5h-2.554c-.243-1.694-1.704-3-3.464-3s-3.221,1.306-3.464,3h-2.517ZM22,5v13.5c0,3.032-2.467,5.5-5.5,5.5H6v-1h10.5c2.481,0,4.5-2.019,4.5-4.5V5h1Z"/>
</svg>
