<?xml version="1.0" encoding="UTF-8"?>
<svg xmlns="http://www.w3.org/2000/svg" id="Layer_1" data-name="Layer 1" viewBox="0 0 24 24">
  <path d="M14,3h-3v-1h3v1Zm-.958,3.581l-2.603-1.611-.526,.85,2.603,1.611,.526-.85ZM4,2.5c0-1.379,1.122-2.5,2.5-2.5s2.5,1.121,2.5,2.5-1.122,2.5-2.5,2.5-2.5-1.121-2.5-2.5Zm1,0c0,.827,.673,1.5,1.5,1.5s1.5-.673,1.5-1.5-.673-1.5-1.5-1.5-1.5,.673-1.5,1.5Zm2,14.5v7h-1v-7H3v7h-1v-7H0V8.5c0-1.379,1.122-2.5,2.5-2.5H6.5c1.378,0,2.5,1.121,2.5,2.5v8.5h-2Zm-6-1h7v-7.5c0-.827-.673-1.5-1.5-1.5H2.5c-.827,0-1.5,.673-1.5,1.5v7.5Zm22.903,.191l-2.438,6.101c-.36,1.293-1.803,2.045-3.078,1.664-.487-.14-.909-.418-1.226-.799l-4.173-4.97-3.282,5.813h-1.142l3.936-7h.797l3.354,3.994c.01-.044,2.463-6.233,2.463-6.233,.365-1.277,1.752-2.046,3.078-1.664,1.325,.382,2.092,1.77,1.711,3.094Zm-1.988-2.133c-.797-.232-1.628,.232-1.856,1.027l-2.438,6.1c-.095,.338-.049,.743,.145,1.094s.512,.604,.897,.716c.793,.224,1.627-.232,1.856-1.027l2.438-6.1c.212-.748-.249-1.581-1.043-1.81Zm-5.915-3.559c0-1.379,1.122-2.5,2.5-2.5s2.5,1.121,2.5,2.5-1.122,2.5-2.5,2.5-2.5-1.121-2.5-2.5Zm1,0c0,.827,.673,1.5,1.5,1.5s1.5-.673,1.5-1.5-.673-1.5-1.5-1.5-1.5,.673-1.5,1.5Z"/>
</svg>
