<svg id="Layer_1" viewBox="0 0 24 24" xmlns="http://www.w3.org/2000/svg" data-name="Layer 1"><path d="m23.828 19.12c-.291-.868-.919-1.542-1.788-1.937l-.746-.4c.657-1.457 1.316-3.332 1.464-3.856.141-.503.196-.822.213-.932.215-1.416-.762-2.744-2.178-2.96-1.415-.223-2.737.752-2.948 2.118-.031.121-.397 1.356-.858 2.505-.582-.51-1.128-1.012-1.654-1.52 1.316-3.626 1.668-7.044 1.668-8.374 0-.61-.039-.991-.055-1.128-.203-1.644-1.709-2.819-3.351-2.613-1.65.203-2.788 1.662-2.593 3.292.009.248-.031 1.627-.331 3.01-.605-.935-1.136-2.021-1.493-2.812-.532-2.065-2.385-3.507-4.499-3.507-1.434.002-2.81.663-3.707 1.834-.901 1.176-1.195 2.636-.801 4.017 1.211 3.924 3.709 7.491 7.4 10.622-2.519.434-4.54.526-4.54.526-1.692.085-2.816 1.056-3.007 2.598-.203 1.642.969 3.144 2.611 3.347.134.017.511.055 1.124.055 1.81 0 6-.579 10.237-2.166.652.366 1.433.851 2.191 1.32 1.031.639 1.921 1.19 2.433 1.418.406.182 1.022.423 1.69.423 1.333 0 2.556-.729 3.191-1.9.52-.96.639-2.046.326-2.979zm-1.205 2.503c-.46.85-1.346 1.377-2.312 1.377-.368 0-.763-.104-1.283-.336-.451-.2-1.356-.762-2.314-1.355-.94-.583-1.821-1.128-2.641-1.569-4.068 1.609-8.633 2.281-10.313 2.266-.55 0-.891-.033-1.002-.047-1.095-.136-1.876-1.137-1.741-2.231.175-1.415 1.365-1.687 2.061-1.722.376-.007 6.472-.294 11.178-2.389-.272-.248-.539-.497-.798-.745-1.491.62-3.129 1.06-4.658 1.376l.014-.018c-1.136-.915-2.147-1.873-3.059-2.864 1.204-.191 3.202-.695 4.82-2.03l-.637-.771c-1.78 1.469-4.173 1.817-4.991 1.896-.664-.797-1.255-1.618-1.778-2.458 1.049-.131 2.998-.551 5.199-1.93l-.53-.848c-2.38 1.49-4.491 1.78-5.211 1.832-.619-1.128-1.13-2.286-1.498-3.482-.303-1.063-.071-2.202.636-3.124.706-.92 1.739-1.443 2.851-1.443 1.707.02 3.17 1.115 3.62 2.835.523 1.176 1.339 2.815 2.254 3.945l.575.71c.707-1.518.952-4.991.933-5.27-.132-1.104.623-2.076 1.72-2.211 1.095-.126 2.1.646 2.236 1.743.014.113.047.454.047 1.006.021 1.506-.543 5.39-1.833 8.635.983.979 2.073 1.956 3.193 2.898.573-1.116 1.469-3.812 1.465-3.954.134-.86.944-1.447 1.817-1.32.871.133 1.472.95 1.34 1.819-.015.095-.064.374-.187.813-.142.537-1.098 3.175-1.811 4.558l1.613.865c.64.291 1.083.761 1.284 1.358.226.673.132 1.469-.256 2.186z"/></svg>