<?xml version="1.0" encoding="UTF-8"?>
<svg xmlns="http://www.w3.org/2000/svg" id="Layer_1" data-name="Layer 1" viewBox="0 0 24 24">
  <path d="M1,1H15v1.478l1-.545V0H0V21.5c0,1.378,1.121,2.5,2.5,2.5H13.5c1.379,0,2.5-1.122,2.5-2.5v-4.5H1V1Zm7.5,17h6.5v3.5c0,.827-.673,1.5-1.5,1.5H2.5c-.827,0-1.5-.673-1.5-1.5v-3.5h7.5Zm15.5-9v-1.336c0-.786-.429-1.506-1.117-1.881l-3.857-2.104c-.643-.351-1.408-.351-2.051,0l-3.857,2.104c-.689,.375-1.117,1.096-1.117,1.881v1.336h1v5h-1v1h12v-1h-1v-5h1Zm-11-1.336c0-.419,.229-.803,.596-1.003l3.857-2.104c.342-.187,.752-.187,1.094,0l3.858,2.104c.366,.199,.595,.583,.595,1.002v.336H13v-.336Zm6,1.336v5h-2v-5h2Zm-5,0h2v5h-2v-5Zm8,5h-2v-5h2v5Zm-12,7H6v-1h4v1Z"/>
</svg>
