<svg id="Layer_1" viewBox="0 0 24 24" xmlns="http://www.w3.org/2000/svg" data-name="Layer 1"><path d="m19 5.99v-2.49c0-1.93-1.57-3.5-3.5-3.5h-7c-1.93 0-3.5 1.57-3.5 3.5v2.49c-3.13 2.042-5 5.462-5 9.207v8.803h1v-8.803c0-3.179 1.488-6.094 4-7.98v10.283c0 2.481 2.019 4.5 4.5 4.5h5c2.481 0 4.5-2.019 4.5-4.5v-10.283c2.512 1.886 4 4.802 4 7.98v8.803h1v-8.803c0-3.745-1.87-7.165-5-9.208zm-1 11.51c0 1.93-1.57 3.5-3.5 3.5h-5c-1.93 0-3.5-1.57-3.5-3.5v-14c0-1.378 1.121-2.5 2.5-2.5h7c1.379 0 2.5 1.122 2.5 2.5zm-5-6.119-1.206 2.413-2.412 1.206 2.412 1.206 1.206 2.412 1.206-2.412 2.412-1.206-2.412-1.206zm.46 4.079-.46.922-.46-.922-.922-.46.922-.46.46-.922.46.922.922.46zm-2.46-5.842 1.04-2.079 2.078-1.039-2.078-1.039-1.04-2.079-1.04 2.079-2.078 1.039 2.078 1.039zm-.294-3.412.294-.588.294.588.588.294-.588.294-.294.588-.294-.588-.588-.294z"/></svg>