<?xml version="1.0" encoding="UTF-8"?>
<svg xmlns="http://www.w3.org/2000/svg" id="Layer_1" data-name="Layer 1" viewBox="0 0 24 24">
  <path d="M1,2.5c0,.827,.673,1.5,1.5,1.5H24V20H13.41c-.102-.34-.223-.671-.349-1h9.939V5H2.5c-.565,0-1.081-.195-1.5-.513v5.563c-.332-.024-.662-.051-1-.051V2.5C0,1.122,1.121,0,2.5,0H24V1H2.5c-.827,0-1.5,.673-1.5,1.5ZM0,17v1c3.309,0,6,2.691,6,6h1c0-3.86-3.141-7-7-7Zm0-5v1c6.065,0,11,4.935,11,11h1c0-6.617-5.383-12-12-12Zm1,10c-.552,0-1,.448-1,1s.448,1,1,1,1-.448,1-1-.448-1-1-1ZM21,12c0-.552-.448-1-1-1s-1,.448-1,1,.448,1,1,1,1-.448,1-1Z"/>
</svg>
