<svg id="Layer_1" viewBox="0 0 24 24" xmlns="http://www.w3.org/2000/svg" data-name="Layer 1"><path d="m11.998 5h-1v-5h1zm-8.279-1.571 3.536 3.536.707-.707-3.536-3.536zm-2.719 7.571h4.995l.005-1h-5zm18.276-7.571-.707-.707-3.536 3.536.707.707zm-1.748 14.637 2.257 4.236-3.342 1.671-2.342-4.379-4.1 3.827v-14.028c0-.28.094-.559.264-.785.425-.56 1.231-.696 1.762-.294l10.708 9.168-5.207.583zm-1.575-.83 4.383-.491-8.823-7.551c-.203-.174-.512-.13-.512.199v11.726l3.369-3.144 2.497 4.668 1.554-.777-2.467-4.63z"/></svg>