<?xml version="1.0" encoding="UTF-8"?>
<svg xmlns="http://www.w3.org/2000/svg" id="Layer_1" data-name="Layer 1" viewBox="0 0 24 24">
  <path d="M23.181,9.654c-.986-.928-2.658-.851-3.548,.166l-3.732,4.103c-.314-1.108-1.335-1.923-2.543-1.923H2.5c-1.379,0-2.5,1.121-2.5,2.5v7c0,1.379,1.121,2.5,2.5,2.5H13.725l9.638-10.817c.912-1.022,.831-2.605-.182-3.528Zm-.564,2.862l-9.341,10.483H2.5c-.827,0-1.5-.673-1.5-1.5v-7c0-.827,.673-1.5,1.5-1.5H13.357c.905,0,1.643,.737,1.643,1.643,0,.812-.605,1.511-1.403,1.624l-5.661,.737,.129,.992,5.667-.738c1.021-.146,1.845-.878,2.146-1.823l4.496-4.94c.533-.613,1.545-.657,2.134-.101,.609,.556,.658,1.508,.109,2.123ZM3,6.5c0-.828,.672-1.5,1.5-1.5h3.5v5h1V5h3.5c.828,0,1.5,.672,1.5,1.5v3.565c.347,.049,.682,.129,1,.25v-3.815c0-1.381-1.119-2.5-2.5-2.5h-.573c.111-.092,.207-.179,.273-.25,.893-.702,1.066-1.997,.381-2.91-.694-.925-2.013-1.113-2.939-.42-.527,.396-.891,.915-1.14,1.413-.249-.497-.612-1.018-1.141-1.413-.925-.692-2.243-.506-2.94,.42-.694,.926-.506,2.245,.416,2.937,.054,.043,.167,.126,.317,.224h-.653c-1.381,0-2.5,1.119-2.5,2.5v3.5h1v-3.5Zm5.992-3.005c.046-.257,.317-1.577,1.248-2.274,.48-.362,1.174-.268,1.54,.219,.404,.533,.221,1.247-.305,1.62-.184,.205-.884,.841-2.569,.93l.086-.494ZM5.22,1.439c.367-.487,1.06-.581,1.541-.219,.933,.698,1.202,2.017,1.247,2.274l.084,.488c-1.499-.125-2.517-.897-2.651-1.004-.485-.363-.584-1.055-.221-1.54Z"/>
</svg>
