<svg id="Layer_1" viewBox="0 0 24 24" xmlns="http://www.w3.org/2000/svg" data-name="Layer 1"><path d="m24 19v-15.5c0-1.378-1.121-2.5-2.5-2.5h-19c-1.379 0-2.5 1.122-2.5 2.5v15.5h11.5v3h-5.5v1h12v-1h-5.5v-3zm-21.5-17h19c.827 0 1.5.673 1.5 1.5v10.5h-22v-10.5c0-.827.673-1.5 1.5-1.5zm-1.5 13h22v3h-22zm17-5.524v-2.976c0-1.385-1.121-2.512-2.5-2.512h-2.5v8h2.5c1.379 0 2.5-1.127 2.5-2.512zm-4-4.488h1.5c.827 0 1.5.678 1.5 1.512v2.976c0 .834-.673 1.512-1.5 1.512h-1.5zm-6.171 5.012h2.36l.41 1.995.996.005-1.389-6.882c-.131-.644-.591-1.115-1.205-1.118-.6 0-1.083.493-1.198 1.087l-1.387 6.887 1.013.005zm.954-4.716c.029-.134.106-.27.218-.284.11.018.165.093.225.316l.758 3.684h-1.952z"/></svg>