<svg id="Layer_1" viewBox="0 0 24 24" xmlns="http://www.w3.org/2000/svg" data-name="Layer 1"><path d="m18.561 14.687c-.771-3.109-1.942-4.687-3.483-4.687-1.501 0-2.41 1.107-3.077 1.93-.664-.817-1.574-1.93-3.077-1.93-1.54 0-2.712 1.576-3.483 4.686-.255 1.029-.379 2.148-.411 3.314h-2.028v1h18v-1h-2.028c-.033-1.165-.156-2.285-.412-3.313zm-9.638-3.687c1.033 0 1.711.835 2.337 1.605.187.236.529.626.739.866.222-.252.571-.649.766-.897.599-.737 1.277-1.574 2.312-1.574 1.357.005 2.18 2.523 2.526 4h-11.206c.579-2.492 1.539-4.028 2.526-4zm-2.704 5h11.563c.104.642.17 1.307.191 2h-11.945c.021-.693.087-1.358.191-2zm15.281-15h-19c-1.379 0-2.5 1.121-2.5 2.5v19.5h24v-19.5c0-1.379-1.121-2.5-2.5-2.5zm-19 1h19c.827 0 1.5.673 1.5 1.5v2.5h-22v-2.5c0-.827.673-1.5 1.5-1.5zm-1.5 20v-15h22v15zm2-18c0-.552.448-1 1-1s1 .448 1 1-.448 1-1 1-1-.448-1-1zm3 0c0-.552.448-1 1-1s1 .448 1 1-.448 1-1 1-1-.448-1-1zm3 0c0-.552.448-1 1-1s1 .448 1 1-.448 1-1 1-1-.448-1-1z"/></svg>