<?xml version="1.0" encoding="UTF-8"?>
<svg xmlns="http://www.w3.org/2000/svg" id="Layer_1" data-name="Layer 1" viewBox="0 0 24 24">
  <path d="M10.69,18.294l.267,.779c-.116,.086-.339,.244-.456,.327-1.253-.9-3.368-2.439-5.863-5.021C1.691,11.291,0,8.054,0,5.5,0,2.468,2.468,0,5.5,0c2.177,0,4.12,1.783,5,3.799,.88-2.017,2.823-3.799,5-3.799,3.032,0,5.499,2.467,5.5,5.498,0,0,0,.001,0,.002,0,1.769-.771,3.769-1.885,5.471l-.979-.335c1.14-1.689,1.865-3.58,1.865-5.136h0c0-2.481-2.019-4.5-4.5-4.5-2.381,0-4.5,2.796-4.5,5h-1c0-2.204-2.119-5-4.5-5C3.019,1,1,3.019,1,5.5c0,2.299,1.589,5.283,4.359,8.187,1.991,2.084,4.095,3.717,5.142,4.482,.072,.048,.127,.084,.189,.125Zm8.338-1.666l4.957,4.957-2.4,2.4-4.957-4.957-1.872,4.972-4.808-14.052,14.051,4.808-4.972,1.872Zm-1.804-.389l3.818-1.438-9.488-3.245,3.246,9.487,1.438-3.817,5.347,5.346,.986-.986-5.347-5.346Z"/>
</svg>
