<svg id="Layer_1" viewBox="0 0 24 24" xmlns="http://www.w3.org/2000/svg" data-name="Layer 1"><path d="m4.972 7.777 3.036-2.166 2.397 1.707c.819.453 1.692.682 2.595.682v-1c-.731 0-1.442-.188-2.063-.527l-2.069-1.475 2.02-1.441c.67-.37 1.381-.557 2.112-.557v-1c-.902 0-1.775.229-2.644.712l-2.348 1.674-3.036-2.164c-.14-1.247-1.188-2.222-2.472-2.222-1.379 0-2.5 1.122-2.5 2.5s1.121 2.5 2.5 2.5c1.077 0 1.989-.688 2.34-1.645l2.308 1.643-2.309 1.645c-.351-.956-1.263-1.644-2.339-1.644-1.379 0-2.5 1.122-2.5 2.5s1.121 2.5 2.5 2.5c1.284 0 2.332-.976 2.472-2.223zm-2.472-3.777c-.827 0-1.5-.673-1.5-1.5s.673-1.5 1.5-1.5 1.5.673 1.5 1.5-.673 1.5-1.5 1.5zm-1.5 3.5c0-.827.673-1.5 1.5-1.5s1.5.673 1.5 1.5-.673 1.5-1.5 1.5-1.5-.673-1.5-1.5zm23 6.874v1.126h-2.194l-.717 3.625c-.214 1.086-1.174 1.875-2.281 1.875h-1.808v3h-12v-3.497c0-.776-.27-1.534-.779-2.192-.736-.95-1.302-2.011-1.681-3.153-.345-1.04-.505-2.126-.506-3.205.156.016.307.047.467.047.182 0 .355-.033.532-.054 0 .974.144 1.956.456 2.896.343 1.035.855 1.996 1.523 2.856.646.834.988 1.804.988 2.805v2.497h10v-3h2.808c.631 0 1.178-.449 1.301-1.068l.875-4.432h2.017c-.323-.731-.646-1.529-.969-2.305-.907-2.181-1.845-4.436-2.736-5.538-1.115-1.488-2.622-2.56-4.295-3.139v-1.04c1.982.609 3.763 1.81 5.072 3.55.977 1.218 1.911 3.443 2.884 5.782.333.882.781 1.706 1.045 2.562z"/></svg>