<svg id="Layer_1" viewBox="0 0 24 24" xmlns="http://www.w3.org/2000/svg" data-name="Layer 1"><path d="m19.931 8c-.474-3.777-3.587-6.735-7.431-6.975v-1.025h-1v1.025c-3.835.239-6.941 3.185-7.426 6.975h-1.074v1h1.003c0 .012-.002.023-.002.034l1.032 14.966h13.934l1.032-14.966v-.034h1.001v-1zm-1.01 0h-6.42v-5.975c3.292.234 5.956 2.75 6.42 5.975zm-7.421-5.975v5.975h-6.42c.464-3.224 3.128-5.74 6.42-5.975zm0 6.975v6.232c-.561-.132-1.185-.232-1.983-.232-1.752 0-3.219.554-4.037.941l-.479-6.941h6.5zm-5.533 14-.413-5.977c.557-.298 2.099-1.023 3.963-1.023 1.181 0 1.944.232 2.751.479.842.256 1.712.521 3.043.521 1.149 0 2.374-.317 3.176-.572l-.453 6.572zm12.594-7.649c-.678.237-2.029.649-3.25.649-1.22 0-1.972-.243-2.824-.5h.014v-6.5h6.499l-.438 6.351z"/></svg>