<svg id="Layer_1" viewBox="0 0 24 24" xmlns="http://www.w3.org/2000/svg" data-name="Layer 1"><path d="m17.5 11c-3.584 0-6.5 2.916-6.5 6.5s2.916 6.5 6.5 6.5 6.5-2.916 6.5-6.5-2.916-6.5-6.5-6.5zm0 12c-3.033 0-5.5-2.468-5.5-5.5s2.467-5.5 5.5-5.5 5.5 2.468 5.5 5.5-2.467 5.5-5.5 5.5zm2.94-7.451.701.713-3.457 3.399c-.217.218-.51.339-.822.339s-.604-.121-.825-.342l-1.851-1.794.696-.719 1.856 1.8c.062.062.186.062.241.006l3.46-3.402zm-9.404 7.451c.304.359.632.697.992 1h-12.028v-21.5c0-1.378 1.122-2.5 2.5-2.5h13c1.378 0 2.5 1.122 2.5 2.5v6.525c-.166-.01-.331-.025-.5-.025s-.334.016-.5.025v-6.525c0-.827-.673-1.5-1.5-1.5h-13c-.827 0-1.5.673-1.5 1.5v20.5zm-4.036-16c0 1.103.897 2 2 2s2-.897 2-2-.897-2-2-2-2 .897-2 2zm3 0c0 .551-.449 1-1 1s-1-.449-1-1 .449-1 1-1 1 .449 1 1zm-.86 9c-.058.327-.095.661-.115 1h-5.025v-1zm-5.14 3h5.14c.061.34.135.675.235 1h-5.375zm9.138-8.786c.224-.529.362-1.103.362-1.714 0-2.481-2.019-4.5-4.5-4.5s-4.5 2.019-4.5 4.5c0 1.332.593 2.518 1.516 3.343.082-1.028.935-1.843 1.984-1.843h2c.814 0 1.506.493 1.815 1.194-.289.261-.564.536-.815.834v-.028c0-.551-.449-1-1-1h-2c-.551 0-1 .449-1 1v.51c.605.303 1.278.49 2 .49.514 0 1.001-.098 1.459-.262-.256.378-.475.781-.668 1.198-.259.038-.522.064-.791.064-3.033 0-5.5-2.467-5.5-5.5s2.467-5.5 5.5-5.5 5.5 2.467 5.5 5.5c0 .375-.038.741-.11 1.095-.437.172-.854.38-1.251.619z"/></svg>