<svg id="Layer_1" viewBox="0 0 24 24" xmlns="http://www.w3.org/2000/svg" data-name="Layer 1"><path d="m13.573 23c.373.372.758.703 1.136 1h-14.709v-21.5c0-1.379 1.122-2.5 2.5-2.5h11c1.378 0 2.5 1.121 2.5 2.5v6.238l-1 .332v-6.57c0-.827-.673-1.5-1.5-1.5h-11c-.827 0-1.5.673-1.5 1.5v20.5zm-6.573-10h-3v1h3zm4 0h-2v1h2zm-7 5h3v-1h-3zm5 0h2v-1h-2zm-2-13h-3v1h3zm5 0h-3v1h3zm-5 4h-3v1h3zm5 0h-3v1h3zm12 4v4.346c0 4.095-3.888 5.979-5.08 6.458l-.441.177-.424-.212c-1.187-.593-5.055-2.808-5.055-6.423v-4.346c0-.695.443-1.309 1.104-1.526l4.396-1.457 4.396 1.457c.66.218 1.104.831 1.104 1.526zm-1 0c0-.263-.168-.494-.417-.577l-4.083-1.354-4.082 1.354c-.25.083-.418.314-.418.577v4.346c0 3.041 3.445 5 4.501 5.528l.022.011.024-.009c1.043-.421 4.452-2.062 4.452-5.53v-4.346z"/></svg>