<svg id="Layer_1" viewBox="0 0 24 24" xmlns="http://www.w3.org/2000/svg" data-name="Layer 1"><path d="m9.017 12.408 1 2.541v4.051c0 2.757-2.243 5-5 5s-5-2.243-5-5v-15h1v15c0 2.206 1.794 4 4 4s4-1.794 4-4zm-4 7.592c1.103 0 2-.897 2-2v-14h-1v14c0 .551-.449 1-1 1s-1-.449-1-1v-14.5c0-1.378 1.122-2.5 2.5-2.5.745 0 1.408.335 1.867.854.2-.273.419-.529.655-.769-.638-.666-1.53-1.085-2.522-1.085-1.93 0-3.5 1.57-3.5 3.5v14.5c0 1.103.897 2 2 2zm7.544-17.724c.995-.39 2.082-.368 3.061.06s1.732 1.212 2.122 2.208l5.308 13.486.931-.366-5.308-13.485c-.487-1.244-1.429-2.224-2.652-2.759-1.223-.536-2.582-.562-3.826-.076-1.244.487-2.224 1.429-2.759 2.652-.536 1.224-.562 2.583-.075 3.827l5.49 13.95c.541 1.38 1.865 2.225 3.264 2.225.423 0 .854-.077 1.271-.24 1.797-.704 2.687-2.738 1.984-4.536l-5.126-13.02c-.401-1.026-1.564-1.535-2.591-1.133s-1.535 1.564-1.133 2.592l4.944 12.555.931-.366-4.945-12.553c-.201-.514.053-1.095.566-1.295.513-.202 1.095.054 1.296.567l5.125 13.019c.502 1.284-.133 2.737-1.417 3.239-1.286.501-2.738-.133-3.24-1.418l-5.488-13.95c-.39-.995-.368-2.082.06-3.061s1.212-1.732 2.207-2.122z"/></svg>