<svg id="Layer_1" viewBox="0 0 24 24" xmlns="http://www.w3.org/2000/svg" data-name="Layer 1"><path d="m15.464 10.532c.945.944 2.2 1.464 3.536 1.464s2.591-.52 3.535-1.464 1.465-2.2 1.465-3.536-.52-2.591-1.469-3.54l-3.531-3.453-3.536 3.458c-1.95 1.95-1.95 5.122 0 7.071zm.703-6.36 2.833-2.77 2.828 2.766c.756.755 1.172 1.76 1.172 2.829s-.416 2.073-1.172 2.829c-1.511 1.511-4.145 1.511-5.657 0-1.56-1.56-1.56-4.098-.004-5.653zm6.833 8.563c.336-.232.705-.55 1-.845v8.106h-11.5v3h5.5v1h-12v-1h5.5v-3h-11.5v-15.499c0-1.379 1.122-2.5 2.5-2.5h11.602c-.317.308-.596.648-.84 1h-10.762c-.827 0-1.5.673-1.5 1.5v14.5h22z"/></svg>