<svg id="Layer_1" viewBox="0 0 24 24" xmlns="http://www.w3.org/2000/svg" data-name="Layer 1"><path d="m24 13.5v1.5h-2.396l-.793 3.987c-.231 1.166-1.263 2.013-2.452 2.013h-2.358v3h-6v-1h5v-3h3.358c.713 0 1.333-.508 1.472-1.208l.953-4.792h2.217v-.395c-.354-.803-.709-1.656-1.064-2.508-.996-2.394-2.025-4.869-3.006-6.082-2.382-3.176-6.281-4.618-10.188-3.776-.262.056-.506.149-.759.225-.278-.341-.505-.62-.693-.85.404-.138.815-.261 1.241-.352 4.297-.926 8.581.661 11.187 4.14 1.06 1.311 2.07 3.74 3.141 6.312.364.959.846 1.858 1.141 2.787zm-19.688 3.962 1.188 6.538h-1.016s-.363-1.999-.363-1.999h-2.736l-.368 2h-1.017s1.211-6.584 1.211-6.584c.103-.58.61-1.416 1.546-1.416s1.435.794 1.555 1.462zm-.373 3.539-.611-3.362c-.012-.065-.127-.638-.571-.638-.429 0-.56.586-.562.597l-.626 3.403zm3.061 3h1v-8h-1zm3.5-9c-1.858 0-3.368-1.46-3.479-3.291l-.005.004-6.186-6.83c-.518-.519-.795-1.196-.827-1.884-.036-.778.24-1.57.831-2.163.594-.593 1.197-.834 2.166-.834.687 0 1.363.31 1.887.831.06.067 3.216 3.939 5.86 7.183 3.334.187 4.677 4.05 5.102 5.738l.312 1.244h-5.66zm-2.172-8.367c-1.262.209-2.24.999-2.628 2.138l1.489 1.644c.362-1.101 1.248-1.955 2.37-2.27-.298-.366-.731-.897-1.232-1.512zm-6.773-2.438 3.405 3.758c.523-1.07 1.47-1.846 2.662-2.187-1.586-1.947-3.402-4.174-3.47-4.255-.699-.694-1.884-.693-2.609.032-.726.728-.72 1.917.013 2.652zm8.945 9.804h4.378c-.378-1.503-1.562-5-4.378-5-1.378 0-2.5 1.122-2.5 2.5s1.122 2.5 2.5 2.5zm-9.152-5.573-.811-.896c-.17.533-.302 1.085-.391 1.653-.304 1.928-.124 3.844.471 5.585.264-.213.554-.395.882-.525-.489-1.535-.63-3.213-.364-4.905.049-.313.138-.611.214-.913z"/></svg>