<svg id="Layer_1" viewBox="0 0 24 24" xmlns="http://www.w3.org/2000/svg" data-name="Layer 1"><path d="m20.449 0-2.415 5.106-1.812-.862c-1.242-.592-2.736-.065-3.33 1.178l-2.647 5.534c-.607 1.197-.045 2.783 1.175 3.333l1.842.906-1.33 2.812c-.855.02-1.617.4-2.152.993h-6.28c-1.93 0-3.5 1.57-3.5 3.5v1.5h8.023c-.233-.309-.433-.644-.594-1h-6.429v-.5c0-1.378 1.121-2.5 2.5-2.5h5.684c-.112.314-.184.648-.184 1 0 1.654 1.346 3 3 3s3-1.346 3-3c0-1.317-.858-2.425-2.04-2.828l8.122-17.172h2.918v-1zm-8.594 13.388c-.737-.332-1.073-1.28-.708-2.001l2.647-5.534c.355-.745 1.25-1.063 1.998-.707l1.814.863-3.917 8.28-1.834-.902zm2.145 7.612c0 1.103-.897 2-2 2s-2-.897-2-2 .897-2 2-2 2 .897 2 2z"/></svg>