<?xml version="1.0" encoding="UTF-8"?>
<svg xmlns="http://www.w3.org/2000/svg" id="Outline" viewBox="0 0 24 24">
  <path d="m7,20c-1.103,0-2,.897-2,2s.897,2,2,2,2-.897,2-2-.897-2-2-2Zm0,3c-.551,0-1-.449-1-1s.449-1,1-1,1,.449,1,1-.449,1-1,1Zm10-3c-1.103,0-2,.897-2,2s.897,2,2,2,2-.897,2-2-.897-2-2-2Zm0,3c-.551,0-1-.449-1-1s.449-1,1-1,1,.449,1,1-.449,1-1,1Zm5.776-18h1.02l-2.04,10H6.018l.237,1.706c.103.738.742,1.294,1.486,1.294h12.259v1H7.741c-1.24,0-2.305-.927-2.476-2.156L3.245,2.294c-.103-.738-.742-1.294-1.486-1.294H0V0h1.759c1.24,0,2.305.927,2.476,2.156l.256,1.844h6.021l1.046,1h-6.928l1.25,9h15.056l1.84-9Zm-6.951,1.311l-2.691-2.572.691-.723,2.691,2.572c.579.553,1.511.543,2.078-.023l4.554-4.554.707.707-4.554,4.554c-.481.481-1.12.722-1.758.722-.62,0-1.24-.227-1.717-.683Z"/>
</svg>
