<?xml version="1.0" encoding="UTF-8"?>
<svg xmlns="http://www.w3.org/2000/svg" id="Layer_1" data-name="Layer 1" viewBox="0 0 24 24">
  <path d="M18.5,5c1.379,0,2.5-1.121,2.5-2.5s-1.121-2.5-2.5-2.5-2.5,1.121-2.5,2.5,1.121,2.5,2.5,2.5Zm0-4c.827,0,1.5,.673,1.5,1.5s-.673,1.5-1.5,1.5-1.5-.673-1.5-1.5,.673-1.5,1.5-1.5Zm5.466,19l-2.175-11.948c-.217-1.188-1.251-2.052-2.46-2.052h-1.661c-1.209,0-2.243,.864-2.46,2.055l-2.165,11.945h2.955v4h1v-4h3v4h1v-4h2.966Zm-7.771-11.768c.13-.714,.75-1.232,1.476-1.232h1.661c.726,0,1.346,.518,1.476,1.231l1.96,10.769H14.242l1.952-10.768Zm-7.114-1.988L3.034,2.845l3.844,5.871-4.203,2.072,4.044,1.786-1.512,4.119,3.958-1.36,2.012,3.761-.287,1.582-2.206-4.12-5.14,1.766,1.914-5.212L.313,10.837l5.11-2.519L-.046-.034,8.678,4.871,11.25,.04l2.934,5.626c-.243,.298-.44,.633-.601,.99l-2.332-4.491-2.171,4.079Z"/>
</svg>
