<?xml version="1.0" encoding="UTF-8"?>
<svg xmlns="http://www.w3.org/2000/svg" id="Layer_1" data-name="Layer 1" viewBox="0 0 24 24">
  <path d="M16.981,12.596v7.615c.01,.83-.368,1.705-1,2.457v1.429h-1v-1.776c.524-.598,1.038-1.416,1-2.109v-7.615c0-.276-.224-.5-.5-.5s-.5,.224-.5,.5v3.5h-1v-4.5c0-.276-.224-.5-.5-.5s-.5,.224-.5,.5v4.5h-1v-5.5c0-.276-.224-.5-.5-.5s-.5,.224-.5,.5v5.5h-1v-4.5c0-.276-.224-.5-.5-.5s-.5,.224-.5,.5v8.696l-2.006-2.006c-.238-.193-.492-.316-.821,0-.219,.219-.231,.591-.026,.796l3.853,3.75v1.264h-1v-.842l-3.556-3.46c-.597-.597-.584-1.609,.021-2.215,.626-.659,1.627-.611,2.235,0l.299,.299v-6.282c0-.827,.673-1.5,1.5-1.5,.197,0,.385,.04,.558,.11,.173-.638,.751-1.11,1.442-1.11s1.269,.473,1.442,1.11c.173-.07,.36-.11,.558-.11,.691,0,1.269,.473,1.442,1.11,.173-.07,.36-.11,.558-.11,.827,0,1.5,.673,1.5,1.5Zm-11,.075l-3.392-3.493c-.512-.471-.709-1.419-.753-2.213l-1.836-1.85v1.419l.879,.886c.071,.978,.407,1.866,.993,2.455l4.108,4.231v-1.434ZM10.445,3.125c.29,.004,.541,.28,.536,.589-.018,.457-.282,.543-.596,.571l-3.104-.007,3.083,3.02c.353-.121,.724-.201,1.118-.201,.04,0,.077,.011,.117,.012l-1.862-1.825h.641c.869,.027,1.612-.651,1.604-1.555,.013-.857-.684-1.591-1.527-1.604l-4.966-.006L3.381,0H1.971l3.101,3.118,5.373,.007Zm11.543,3.052l-.007,5.373c-.004,.29-.28,.541-.589,.536-.457-.018-.543-.282-.571-.596l.007-3.104-2.361,2.41c.187,.308,.33,.644,.415,1.005l.941-.96v.641c-.027,.869,.651,1.612,1.555,1.604,.857,.013,1.591-.684,1.604-1.527l.006-4.966,1.013-1.007v-1.41l-2.012,2.001ZM19.586,.091l-1.9,1.894c-.978,.071-1.866,.407-2.455,.993l-2.513,2.44,.711,.702,2.498-2.426c.471-.512,1.419-.709,2.213-.753L21.005,.091h-1.419Z"/>
</svg>
