<svg id="Layer_1" viewBox="0 0 24 24" xmlns="http://www.w3.org/2000/svg" data-name="Layer 1"><path d="m9 3h-1c-1.103 0-2 .897-2 2s.897 2 2 2v4h2v-1h-1v-3c1.103 0 2-.897 2-2s-.897-2-2-2zm0 3h-1c-.551 0-1-.449-1-1s.449-1 1-1h1c.551 0 1 .449 1 1s-.449 1-1 1zm12 10c-1.111 0-2.488.176-4 .425v-9.925c0-1.378-1.122-2.5-2.5-2.5h-.5v-2c0-1.103-.897-2-2-2h-7c-1.103 0-2 .897-2 2v2h-.5c-1.378 0-2.5 1.122-2.5 2.5v17.5h1v-17.5c0-.827.673-1.5 1.5-1.5h.5v9h11v-9h.5c.827 0 1.5.673 1.5 1.5v10.097c-2.844.497-6.553 1.305-9.01 1.403h-.99v3h.691c2.055.103 6.366-.261 9.309-.783v3.783h1v-3.872c.385-.029.781-.054 1.196-.072.435 1.148 1.554 1.944 2.804 1.944 1.654 0 3-1.346 3-3s-1.346-3-3-3zm-8-3h-9v-11c0-.551.449-1 1-1h7c.551 0 1 .449 1 1zm8 8c-1.111.014-1.927-.913-2.04-1.975-1.827.054-3.647.215-5.052.483-2.494.464-5.261.491-6.909.492v-1c1.917-.072 4.423-.541 6.86-.994 2.642-.493 5.374-1.011 7.14-1.006 1.103 0 2 .897 2 2s-.897 2-2 2z"/></svg>