<?xml version="1.0" encoding="UTF-8"?>
<svg xmlns="http://www.w3.org/2000/svg" id="Layer_1" data-name="Layer 1" viewBox="0 0 24 24">
  <path d="M21.5,10h-4.882l-4-2h-3.118c-1.378,0-2.5,1.122-2.5,2.5v12.5H24V12.5c0-1.378-1.122-2.5-2.5-2.5Zm1.5,12H8V10.5c0-.827,.673-1.5,1.5-1.5h2.882l4,2h5.118c.827,0,1.5,.673,1.5,1.5v9.5Zm1-16.5v3.262c-.307-.206-.647-.359-1-.485v-2.776c0-.827-.673-1.5-1.5-1.5H11.882L7.882,2H2.5c-.827,0-1.5,.673-1.5,1.5V22H5v1H0V3.5C0,2.122,1.122,1,2.5,1h5.618l4,2h9.382c1.378,0,2.5,1.122,2.5,2.5Z"/>
</svg>
