<svg id="Layer_1" viewBox="0 0 24 24" xmlns="http://www.w3.org/2000/svg" data-name="Layer 1"><path d="m6.157 11.344c.612 2.663 2.997 4.656 5.843 4.656 1.751 0 3.328-.754 4.426-1.953-.105-.444-.202-.856-.292-1.238-.901 1.321-2.418 2.191-4.134 2.191-2.415 0-4.435-1.722-4.899-4.002h.914c2.258-.068 4.366-1.187 5.708-2.998h3.16c.142.27.271.549.365.85.03.099.65 2.725 1.58 6.67.417.174.814.388 1.184.638-.87-3.701-1.738-7.381-1.809-7.607-.061-.193-.202-.55-.202-.55v-8.001h-12.001v8s-.142.357-.202.55c-.071.226-.937 3.896-1.805 7.592.37-.248.766-.459 1.182-.631.389-1.652.723-3.068.983-4.167zm.843-10.344h10v6h-10zm5.421 7c-1.151 1.212-2.742 1.948-4.421 1.997l-1.524.002c.167-.705.265-1.112.276-1.15.094-.3.223-.58.365-.85h5.303zm8.569 13.756v2.244h-1v-2.244c0-1.997-1.566-3.635-3.535-3.75l-4.453 5.08-4.477-5.08c-1.969.114-3.536 1.752-3.536 3.75v2.244h-1v-2.244c0-2.623 2.133-4.756 4.756-4.756h.226l4.029 4.571 4.007-4.571h.227c2.622 0 4.756 2.133 4.756 4.756zm-8.49-18.256h1.5v1h-1.5v1.5h-1v-1.5h-1.5v-1h1.5v-1.5h1z"/></svg>