<svg id="Layer_1" viewBox="0 0 24 24" xmlns="http://www.w3.org/2000/svg" data-name="Layer 1"><path d="m24 23.294-6.595-6.596c.719-.796 1.318-1.703 1.754-2.698h-1.109c-1.476 2.958-4.526 5-8.05 5-2.298 0-4.392-.874-5.984-2.297l6.49-6.49v-9.178c1.483.085 2.873.516 4.08 1.235.434-.165.9-.265 1.392-.268-1.67-1.251-3.735-2.002-5.978-2.002-5.514 0-10 4.486-10 10s4.486 10 10 10c2.578 0 4.928-.983 6.702-2.591l6.592 6.591zm-23-13.294c0-4.796 3.774-8.716 8.506-8.975v8.774l-6.198 6.198c-1.43-1.594-2.308-3.692-2.308-5.997zm20-6c1.103 0 2-.897 2-2s-.897-2-2-2-2 .897-2 2 .897 2 2 2zm0-3c.551 0 1 .449 1 1s-.449 1-1 1-1-.449-1-1 .449-1 1-1zm-7 5c0 1.103.897 2 2 2s2-.897 2-2-.897-2-2-2-2 .897-2 2zm2-1c.551 0 1 .449 1 1s-.449 1-1 1-1-.449-1-1 .449-1 1-1zm1 4c1.103 0 2 .897 2 2v1h-1v-1c0-.551-.449-1-1-1h-2c-.551 0-1 .449-1 1v1h-1v-1c0-1.103.897-2 2-2zm5-4c1.103 0 2 .897 2 2v1h-1v-1c0-.551-.449-1-1-1h-2c0-.342-.056-.669-.137-.986.046-.003.09-.014.137-.014z"/></svg>