<svg id="Layer_1" viewBox="0 0 24 24" xmlns="http://www.w3.org/2000/svg" data-name="Layer 1"><path d="m14.654 11h-1.194l1.301-3h-4.413l-2.311 5.259c-.123.407-.043.856.214 1.204.253.342.635.537 1.049.537h1.013l-1.035 3h1.99l4.472-4.975c.266-.4.29-.913.062-1.338-.228-.424-.668-.688-1.149-.688zm.299 1.414-4.129 4.586h-.142l1.035-3h-2.416c-.128 0-.208-.083-.246-.133-.07-.094-.092-.213-.082-.262l2.027-4.605h2.237l-1.301 3h2.717c.164 0 .242.112.268.16.026.049.077.176.031.254zm4.15-8.511-.951-1.903h-2.151v-1c0-.552-.449-1-1-1h-1c-.551 0-1 .448-1 1v1h-7.152l-.951 1.903c-.587 1.173-.897 2.487-.897 3.801v10.592c0 1.313.311 2.628.897 3.801l.951 1.903h12.303l.951-1.903c.587-1.173.897-2.487.897-3.801v-10.592c0-1.313-.311-2.628-.897-3.801zm-5.103-2.903h1v1h-1zm5 17.296c0 1.158-.274 2.318-.792 3.354l-.675 1.351h-11.066l-.675-1.351c-.518-1.035-.792-2.195-.792-3.354v-10.592c0-1.158.274-2.318.792-3.354l.675-1.351h11.066l.675 1.351c.518 1.035.792 2.195.792 3.354z"/></svg>