<svg id="Layer_1" viewBox="0 0 24 24" xmlns="http://www.w3.org/2000/svg" data-name="Layer 1"><path d="m23 13c0 .417-.078.823-.203 1.213.325.099.633.23.923.396.176-.515.28-1.055.28-1.61 0-2.757-2.243-5-5-5v-1c0-3.859-3.141-7-7-7s-7 3.142-7 7.001v1c-2.757 0-5 2.243-5 5s2.243 5 5 5h1v-11c0-3.309 2.691-6 6-6s6 2.691 6 6v7h1v-5c2.206 0 4 1.794 4 4zm-18 4c-2.206 0-4-1.794-4-4s1.794-4 4-4zm10-7h-2v-1h2zm-5 6h-2v8h1v-3h1c1.379 0 2.5-1.121 2.5-2.5s-1.121-2.5-2.5-2.5zm0 4h-1v-3h1c.827 0 1.5.673 1.5 1.5s-.673 1.5-1.5 1.5zm11.5-4h-2v8h1v-3h1c1.379 0 2.5-1.121 2.5-2.5s-1.121-2.5-2.5-2.5zm0 4h-1v-3h1c.827 0 1.5.673 1.5 1.5s-.673 1.5-1.5 1.5zm-5.5-4c-1.379 0-2.5 1.121-2.5 2.5v3c0 1.379 1.121 2.5 2.5 2.5s2.5-1.121 2.5-2.5v-3c0-1.379-1.121-2.5-2.5-2.5zm1.5 5.5c0 .827-.673 1.5-1.5 1.5s-1.5-.673-1.5-1.5v-3c0-.827.673-1.5 1.5-1.5s1.5.673 1.5 1.5zm-4.902-15.5-1.254 3.718 1.25 4.282h-1.048l-1.167-4h-1.379v4h-1v-8h1v3h1.54l1.011-3z"/></svg>