<svg id="Layer_1" viewBox="0 0 24 24" xmlns="http://www.w3.org/2000/svg" data-name="Layer 1"><path d="m12 16c3.309 0 6-2.691 6-6v-10h-12v10c0 3.309 2.691 6 6 6zm5-6c0 2.757-2.243 5-5 5-2.414 0-4.434-1.721-4.899-4h1.399c2.179 0 4.187-1.147 5.327-3h3.173zm-10-9h10v6h-10zm5.613 7c-.992 1.248-2.496 2-4.113 2h-1.5v-2zm8.376 13.756v2.244h-1v-2.244c0-1.997-1.566-3.635-3.535-3.749l-4.453 5.078-4.477-5.078c-1.969.114-3.536 1.752-3.536 3.749v2.244h-1v-2.244c0-2.622 2.133-4.756 4.756-4.756h.226l4.029 4.571 4.007-4.571h.227c2.623 0 4.756 2.134 4.756 4.756zm-8.489-18.256h1.5v1h-1.5v1.5h-1v-1.5h-1.5v-1h1.5v-1.5h1z"/></svg>