<?xml version="1.0" encoding="UTF-8"?>
<svg xmlns="http://www.w3.org/2000/svg" id="Layer_1" data-name="Layer 1" viewBox="0 0 24 24">
  <path d="M12,0C5.383,0,0,5.383,0,12s5.383,12,12,12,12-5.383,12-12S18.617,0,12,0Zm11,12c0,2.853-1.101,5.448-2.889,7.404l-6.009-6.009c1.163-.723,1.898-2.008,1.898-3.395,0-2.206-1.794-4-4-4-1.387,0-2.671,.735-3.395,1.898L4.596,3.889c1.957-1.788,4.551-2.889,7.404-2.889,6.065,0,11,4.935,11,11Zm-9.63,.663l-4.033-4.034c.511-.991,1.543-1.63,2.663-1.63,1.654,0,3,1.346,3,3,0,1.12-.638,2.152-1.63,2.663Zm-6.37,9.122v-3.286c0-.827,.673-1.5,1.5-1.5h4.964l-1-1h-3.964c-1.379,0-2.5,1.122-2.5,2.5v2.708c-3.006-1.966-5-5.356-5-9.208,0-2.853,1.101-5.448,2.889-7.404l15.515,15.516c-1.957,1.788-4.551,2.889-7.404,2.889-1.801,0-3.498-.444-5-1.214Z"/>
</svg>
