<?xml version="1.0" encoding="UTF-8"?>
<svg xmlns="http://www.w3.org/2000/svg" id="Layer_1" data-name="Layer 1" viewBox="0 0 24 24">
  <path d="M23.527,4.855c-.524-1.203-1.361-2.17-2.238-2.585-.549-.262-1.179-.344-1.765-.193l-1.25-1.25c-1.103-1.103-2.893-1.101-3.993,0l-.354,.354,1.723,1.723c.517,.517,1.201,.804,1.931,.821-3.286,4.2-7.044,4.276-7.08,4.276-3.555,0-6.511,2.781-6.728,6.332-.135,2.198-.323,4.655-.493,6.412-.124,1.286-1.194,2.256-2.488,2.256H0v1H1c1.804,0,6-.682,6-7h-1c0,2.926-.984,4.456-2.178,5.236,.239-.418,.403-.886,.452-1.396,.17-1.768,.36-4.238,.496-6.447,.185-3.023,2.702-5.393,5.73-5.393,.161,0,3.718-.052,7.114-3.772,.06,.295,.215,.562,.386,.804v3.745l-5,4.501c.044,4.362-3.857,4.714-4.623,4.791l1.232,4.932h5.391v-1h-4.609l-.778-3.113c1.268-.315,4.267-1.452,4.384-5.161l4.004-3.602v.71c0,1.071,.634,2.035,1.578,2.399,1.166,.45,2.422,1.508,2.422,2.768h1c0-1.74-1.538-3.112-3.062-3.701-.561-.216-.938-.805-.938-1.466V6.899c1.346,.641,2.521,1.049,3.78,1.101,.484,0,.93-.109,1.097-.468,.211-.447,.186-1.448-.35-2.677Zm-7.171-2.659l-.966-.967c.695-.385,1.588-.282,2.176,.305l.967,.967c-.681,.382-1.608,.264-2.177-.305Zm6.638,4.791c-.134,.019-.388,.026-.785-.041-.745-.119-1.757-.458-2.705-.906-.421-.199-.74-.541-.899-.962-.261-.654-.019-1.43,.571-1.801,.473-.335,1.157-.361,1.686-.102,.655,.31,1.325,1.107,1.75,2.08,.38,.875,.408,1.479,.383,1.732Z"/>
</svg>
