<?xml version="1.0" encoding="UTF-8"?>
<svg xmlns="http://www.w3.org/2000/svg" id="Layer_1" data-name="Layer 1" viewBox="0 0 24 24">
  <path d="M24,7s-2.007,4.037-2,4.5c.009,.575,0,1.5,0,2.5,0,.5-1.553,2.56-1.905,3.23-.042,.079-.074,.172-.095,.27-.056,.255-.045,.551,.039,.767,.257,.656,.58,1.265,.915,1.89,.295,.552,.461,1.129,.276,1.847l-1.23-.004c-.387-.413-1-1.344-1-2,0-1-1.383-1-2-1-1,0-1,1-1,1h-2c-.6,.434-2,4-2,4,0,0-1.5-1.462-2-2.462-.244-.487-2-.538-2-.538,0,0-.246-.552-.5-1-.508-.896-2.423-1.821-4-2-.054-.006-.107-.009-.16-.009-.51,0-.978,.268-1.34,.509-1-1.5-2-3.942-2-5.981v-1.256c0-1.919,1-5.263,1-5.263h.079c.087,.606,.247,1.195,.487,1.753-.265,1.08-.567,2.522-.567,3.51v1.256c0,1.519,.648,3.327,1.37,4.656,.293-.11,.618-.184,.97-.184,.09,0,.181,.005,.273,.015,1.716,.195,4.023,1.206,4.757,2.5,.093,.164,.184,.339,.264,.499,1.173,.066,1.933,.43,2.26,1.085,.148,.295,.446,.692,.775,1.082,.72-1.664,1.305-2.665,1.744-2.983l.263-.19h1.581c.312-.568,.902-1,1.743-1,.924,0,1.576,.151,2.031,.388-.085-.345-.089-.735-.007-1.104,.042-.188,.104-.363,.186-.519,.221-.422,1.79-2.712,1.79-2.765,0,0,.006-2.118,0-2.485-.004-.243-.01-.691,2-4.75v-.451c-.007-.018-.015-.036-.022-.054-.117,.836-.612,1.42-1.374,1.644-.44,.667-1.299,1.939-1.751,2.418-.371,.393-1.024,.678-1.552,.678-.741,0-1.3-.545-1.3-1.268v-1.968c-.62-.166-1.532-.405-2.346-.596,.103-.317,.182-.641,.238-.972,1.42,.333,3.108,.804,3.108,.804v2.732c0,.194,.127,.268,.3,.268,.271,0,.654-.182,.825-.364,.529-.56,1.875-2.636,1.875-2.636,.619-.044,.956-.372,1-1,.023-.338-.041-1.663,0-2,.012-.004,.988,.004,1,0,.329,.44,1,2.12,1,2.12v.88Zm-19.522,1.548c-.954-.953-1.478-2.212-1.478-3.548C2.945,2.312,5.311-.056,8,0c2.686-.056,5.056,2.312,5,5,0,1.336-.52,2.592-1.465,3.536l-3.535,3.457-3.522-3.445Zm-.478-3.548c0,1.069,.419,2.076,1.181,2.837l2.819,2.758,2.832-2.77c.752-.752,1.168-1.757,1.168-2.825,.045-2.15-1.85-4.045-4-4-2.151-.045-4.044,1.85-4,4Zm2,0c0-1.103,.897-2,2-2s2,.897,2,2-.897,2-2,2-2-.897-2-2Zm1,0c0,.552,.449,1,1,1s1-.448,1-1-.449-1-1-1-1,.448-1,1Z"/>
</svg>
