<svg id="Layer_1" viewBox="0 0 24 24" xmlns="http://www.w3.org/2000/svg" data-name="Layer 1"><path d="m22.105 15.247-9.347-10.282.251-4.965h-.75c-.236.205-1.623 1.949-5.259 2-3.636-.058-4.997-1.794-5.278-2h-.75l1.047 19.251c.127 2.663 2.315 4.749 4.981 4.749s4.854-2.086 4.98-4.745l.204-3.751 5.062 4.601c1.359 1.236 3.444 1.189 4.746-.113 1.3-1.3 1.35-3.385.113-4.745zm-15.105-12.247c2.37 0 4.011-.789 4.94-1.415l-.1 1.841c-.608.505-2.201 1.574-4.821 1.574-2.675 0-4.29-1.129-4.862-1.613l-.098-1.802c.929.626 2.57 1.415 4.94 1.415zm0 20c-2.131 0-3.88-1.668-3.982-3.8l-.79-14.527c.948.61 2.529 1.327 4.792 1.327 2.233 0 3.799-.698 4.752-1.303l-.789 14.507c-.102 2.128-1.851 3.796-3.982 3.796zm14.286-3.715c-.923.924-2.401.957-3.366.08l-5.665-5.149.427-7.849 8.684 9.552c.877.966.843 2.444-.08 3.366zm-13.286-9.285c0 .552-.448 1-1 1s-1-.448-1-1 .448-1 1-1 1 .448 1 1z"/></svg>