<?xml version="1.0" encoding="UTF-8"?>
<svg xmlns="http://www.w3.org/2000/svg" id="Layer_1" data-name="Layer 1" viewBox="0 0 24 24">
  <path d="M20.124,9.35l2.876-3.156v-1.194h-2.389L13.5,1.682V0h-1V1.682l-7.111,3.318h-1.389c-1.654,0-3,1.346-3,3v7h3v-7h1.529l1.471,5.565v1.869l-1.983,7.437-.017,1.129H21v-1l-2-7.565v-1.869l1.124-4.215ZM13,2.552l5.246,2.448H7.754l5.246-2.448Zm5.004,12.448H7.988l.008-1h10.016l-.008,1Zm-3.945,1l.875,7h-3.867l.875-7h2.117Zm-2.117-3l-.875-7h3.867l-.875,7h-2.117ZM4,7c-.551,0-1,.449-1,1v6h-1v-6c0-1.103,.897-2,2-2h1l.264,1h-1.264Zm2.017-1h4.041l.875,7h-3.066l-1.851-7Zm1.867,10h3.05l-.875,7H6.018l1.866-7Zm12.098,7h-4.041l-.875-7h3.066l1.85,7Zm-1.866-10h-3.05l.875-7h5.882l-2.603,2.857-1.105,4.143Z"/>
</svg>
