<?xml version="1.0" encoding="UTF-8"?>
<svg xmlns="http://www.w3.org/2000/svg" id="Layer_1" data-name="Layer 1" viewBox="0 0 24 24">
  <path d="M17.5,9.5h2.5v1h-2.5v2.5h-1v-2.5h-2.5v-1h2.5v-2.5h1v2.5Zm-7.5,1.5H6c-1.103,0-2,.897-2,2v2h1v-2c0-.551,.448-1,1-1h4c.552,0,1,.449,1,1v2h1v-2c0-1.103-.897-2-2-2Zm-4.5-3.5c0-1.378,1.121-2.5,2.5-2.5s2.5,1.122,2.5,2.5-1.121,2.5-2.5,2.5-2.5-1.122-2.5-2.5Zm1,0c0,.827,.673,1.5,1.5,1.5s1.5-.673,1.5-1.5-.673-1.5-1.5-1.5-1.5,.673-1.5,1.5ZM24,2.5V20h-7.032l-3.985,3.295c-.561,.498-1.417,.488-1.979-.011l-3.898-3.284H0V2.5C0,1.122,1.121,0,2.5,0H21.5c1.379,0,2.5,1.122,2.5,2.5Zm-1,0c0-.827-.673-1.5-1.5-1.5H2.5c-.827,0-1.5,.673-1.5,1.5V19H7.471l4.188,3.527c.199,.178,.485,.177,.674,.008l4.276-3.536h6.392V2.5Z"/>
</svg>
