<?xml version="1.0" encoding="UTF-8"?>
<svg xmlns="http://www.w3.org/2000/svg" id="Layer_1" data-name="Layer 1" viewBox="0 0 24 24">
  <path d="M21.5,0H2.5C1.121,0,0,1.122,0,2.5V24H24V2.5c0-1.378-1.121-2.5-2.5-2.5ZM2.5,1H21.5c.827,0,1.5,.673,1.5,1.5v1.5H1v-1.5c0-.827,.673-1.5,1.5-1.5ZM1,23V5H23V23H1ZM9,9H4v-1h5v1Zm-2,4h7v1H7v-1Zm-3,5H14v1H4v-1Zm15-1.429V8h-4.071c-.224-.86-1-1.5-1.929-1.5-1.103,0-2,.897-2,2s.897,2,2,2c.929,0,1.705-.64,1.929-1.5h3.071v7.571c-.86,.224-1.5,1-1.5,1.929,0,1.103,.897,2,2,2s2-.897,2-2c0-.929-.64-1.705-1.5-1.929Zm-6-7.071c-.552,0-1-.449-1-1s.448-1,1-1,1,.449,1,1-.448,1-1,1Zm5.5,10c-.552,0-1-.448-1-1s.448-1,1-1,1,.448,1,1-.448,1-1,1Z"/>
</svg>
