<?xml version="1.0" encoding="UTF-8"?>
<svg xmlns="http://www.w3.org/2000/svg" id="Layer_1" data-name="Layer 1" viewBox="0 0 24 24">
  <path d="M22.5,1h-5v1h4.793l-5.146,5.146c-.862-.705-1.948-1.146-3.146-1.146-2.757,0-5,2.243-5,5,0,2.586,1.98,4.694,4.5,4.949v3.551h-3.5v1h3.5v3.5h1v-3.5h3.5v-1h-3.5v-3.551c2.52-.255,4.5-2.364,4.5-4.949,0-1.198-.441-2.284-1.146-3.146l5.146-5.146V7.5h1V2.5c0-.827-.673-1.5-1.5-1.5ZM14,15c-2.206,0-4-1.794-4-4s1.794-4,4-4,4,1.794,4,4-1.794,4-4,4Zm-4.79,.333l.5,.935-6.121,2.054,1.914-5.212L.359,10.837l5.11-2.519L0-.034,8.724,4.871,11.296,.04l2.118,4.002c-.355,.03-.701,.084-1.038,.166l-1.079-2.041-2.171,4.079L3.08,2.845l3.844,5.871-4.203,2.072,4.044,1.786-1.512,4.119,3.958-1.36Z"/>
</svg>
