<?xml version="1.0" encoding="UTF-8"?>
<svg xmlns="http://www.w3.org/2000/svg" id="Layer_1" data-name="Layer 1" viewBox="0 0 24 24">
  <path d="M17.083,1.822C15.229,.295,12.79-.312,10.393,.157c-3.115,.608-5.62,3.109-6.232,6.224-.617,3.133,.587,6.231,3.142,8.086,1.063,.771,1.698,2.086,1.698,3.519v2.952l3,3,3-3v-2.955c0-1.404,.672-2.746,1.797-3.589,2.036-1.526,3.203-3.856,3.203-6.394,0-2.399-1.063-4.651-2.917-6.178Zm-3.083,18.702l-2,2-2-2v-2.538c0-.336-.038-.664-.094-.986h4.193c-.06,.323-.099,.65-.099,.983v2.541Zm2.197-6.93c-.827,.62-1.449,1.462-1.817,2.406h-1.88v-6.051c1.416-.24,2.5-1.466,2.5-2.949h-1c0,1.103-.897,2-2,2s-2-.897-2-2h-1c0,1.483,1.084,2.71,2.5,2.949v6.051h-1.861c-.353-.943-.952-1.764-1.749-2.342-2.236-1.623-3.289-4.337-2.749-7.083,.535-2.72,2.723-4.905,5.443-5.436,2.102-.411,4.241,.119,5.863,1.456,1.622,1.336,2.553,3.307,2.553,5.406,0,2.219-1.021,4.258-2.803,5.594Z"/>
</svg>
