<?xml version="1.0" encoding="UTF-8"?>
<svg xmlns="http://www.w3.org/2000/svg" id="Layer_1" data-name="Layer 1" viewBox="0 0 24 24">
  <path d="M23.977,23.719c-.47,.187-.967,.281-1.477,.281-1.516,0-2.822-.857-3.5-2.104-.678,1.246-1.984,2.104-3.5,2.104s-2.822-.857-3.5-2.104c-.678,1.246-1.984,2.104-3.5,2.104s-2.822-.857-3.5-2.104c-.678,1.246-1.984,2.104-3.5,2.104-.51,0-1.007-.095-1.477-.281l.369-.93c.352,.14,.725,.211,1.107,.211,1.654,0,3-1.346,3-3h1c0,1.654,1.346,3,3,3s3-1.346,3-3h1c0,1.654,1.346,3,3,3s3-1.346,3-3h1c0,1.654,1.346,3,3,3,.383,0,.756-.071,1.107-.211l.369,.93ZM2.329,18c-.207-.801-.329-1.635-.329-2.5v-1.5h2.618L7.618,3h2.382v-1c0-1.103,.897-2,2-2s2,.897,2,2v1h2.382l3,11h2.618v1.5c0,.865-.122,1.699-.329,2.5h-1.032c.228-.828,.366-1.694,.361-2.5v-.5H3v.5c0,.807,.124,1.678,.369,2.5h-1.04Zm14.964-4l-5.293-5.293-5.293,5.293h10.586Zm-1.441-9.144l-3.144,3.144,5.503,5.503-2.358-8.647Zm-4.852-1.856h2v-1c0-.551-.448-1-1-1s-1,.449-1,1v1Zm-2.293,1l3.293,3.293,3.293-3.293h-6.586Zm-2.917,9.503l5.503-5.503-3.144-3.144-2.358,8.647Z"/>
</svg>
