<?xml version="1.0" encoding="UTF-8"?>
<svg xmlns="http://www.w3.org/2000/svg" id="Layer_1" data-name="Layer 1" viewBox="0 0 24 24">
  <path d="m24,15.5v1.326h-1.986l-.729,4.111c-.212,1.196-1.247,2.063-2.461,2.063h-1.824v1h-1v-2h2.824c.729,0,1.35-.521,1.477-1.238l.875-4.936h1.824v-.22c-1.137-2.561-2.249-4.963-3.342-6.314-2.229-2.975-5.982-4.039-9.574-2.725-2.716.993-4.691,3.622-5.031,6.696-.278,2.512.416,4.56,2.119,6.262.529.529.832,1.279.831,2.056l-.004,2.42-1-.002.004-2.419c0-.514-.195-1.005-.538-1.348-1.932-1.931-2.719-4.246-2.406-7.079.381-3.449,2.611-6.403,5.681-7.526,4.017-1.47,8.218-.272,10.707,3.05,1.172,1.449,2.33,3.959,3.51,6.62l.043.203ZM11.967,3.037l-.417-2.971-.99.139.417,2.971.99-.139Zm-4.813,1.632l-1.707-2.467-.822.569,1.707,2.467.822-.569ZM.521,7.634l2.622,1.458.486-.874-2.622-1.458-.486.874ZM18,.914l-.946-.323-.97,2.839.946.323.97-2.839Zm5.267,3.555l-.706-.708-2.124,2.118.706.708,2.124-2.118Zm-7.767,10.531h-1.51c-.469.623-1.222.992-1.99.987v6.013h-1v-5.31c-.382.197-.806.31-1.25.31-1.517,0-2.75-1.233-2.75-2.75,0-.842.379-1.618,1.03-2.137-.02-.125-.03-.247-.03-.365,0-1.358,1.053-2.474,2.386-2.575.454-.722,1.251-1.173,2.114-1.173.784,0,1.52.376,1.989,1h.011c.916,0,1.758.507,2.193,1.307.8.435,1.307,1.277,1.307,2.193,0,1.378-1.122,2.5-2.5,2.5Zm1.5-2.5c0-.586-.348-1.122-.885-1.365l-.172-.078-.078-.172c-.263-.582-.899-.957-1.506-.871l-.338.046-.22-.29c-.267-.476-.766-.771-1.301-.771-.584,0-1.119.346-1.363.882l-.14.307-.439-.025c-.848,0-1.558.711-1.558,1.583,0,.133.023.272.072.44l.109.37-.331.2c-.533.322-.851.88-.851,1.492,0,.965.785,1.75,1.75,1.75.595,0,1.144-.302,1.469-.807l.181-.282.33.061c.596.11,1.239-.171,1.561-.724l.145-.249h2.065c.827,0,1.5-.673,1.5-1.5Z"/>
</svg>
