<?xml version="1.0" encoding="UTF-8"?>
<svg xmlns="http://www.w3.org/2000/svg" id="Layer_1" data-name="Layer 1" viewBox="0 0 24 24">
  <path d="m21,14.292L11.425,4.732c-.974-.974-2.561-.975-3.536,0l-1.237,1.237-2.787-2.581L6.478.72,5.763.021.013,5.896l.715.699,2.438-2.491,2.779,2.574-1.227,1.227c-.975.975-.975,2.561,0,3.536l9.575,9.56h6l2.986,2.986.707-.707-2.986-2.986v-6Zm-6.293,5.708L5.425,10.732c-.585-.585-.585-1.537,0-2.122l3.171-3.171c.585-.585,1.537-.585,2.122,0l2.579,2.575-2.703,2.704.707.707,2.704-2.704,2.295,2.291-2.706,2.706.707.707,2.706-2.707,2.295,2.291-2.708,2.708.707.707,2.699-2.7v5.274h-5.293Zm5.791-11h0c.939,0,1.842-.363,2.476-.997.661-.662,1.025-1.541,1.025-2.475s-.364-1.812-1.029-2.478l-2.471-2.417-2.482,2.429c-.656.655-1.018,1.531-1.018,2.466s.364,1.815,1.025,2.474c.632.634,1.533.997,2.473.998Zm-1.777-5.227l1.779-1.741,1.768,1.729c.473.473.732,1.1.732,1.767s-.26,1.295-.732,1.768c-.447.448-1.092.704-1.769.704h0c-.676,0-1.319-.257-1.766-.705-.473-.471-.732-1.098-.732-1.767s.257-1.292.721-1.755Z"/>
</svg>
