<svg id="Layer_1" viewBox="0 0 24 24" xmlns="http://www.w3.org/2000/svg" data-name="Layer 1"><path d="m17 0v11.763c0 2.681-1.98 4.971-4.507 5.212-1.435.143-2.801-.317-3.855-1.275-1.041-.946-1.638-2.296-1.638-3.701v-11.999h-7v11.619c0 6.707 5.283 12.26 11.775 12.379.076 0 .151.002.227.002 3.165 0 6.141-1.216 8.404-3.436 2.317-2.275 3.593-5.316 3.593-8.563v-12.001zm5.999 1v4h-5v-4zm-16.999 0v4h-4.999v-4h5zm13.705 18.85c-2.123 2.085-4.933 3.196-7.911 3.148-5.951-.109-10.793-5.213-10.793-11.379v-5.62h5v6c0 1.686.716 3.305 1.965 4.44 1.266 1.151 2.908 1.69 4.622 1.532 3.035-.29 5.412-3.017 5.412-6.208v-5.763h5v6.001c0 2.976-1.17 5.763-3.294 7.849zm-10.506-12.849h1.635s-1.037 2.999-1.037 2.999l1.647-.002 4.364-5.158c.236-.356.253-.8.046-1.184-.218-.405-.637-.656-1.092-.656h-1.541l1.132-3h-4.477l-1.826 5.455c-.111.368-.043.756.186 1.063.228.308.579.483.961.483zm1.399-6.001h2.311l-1.132 3h2.987c.177 0 .3.163.223.27l-3.633 4.289.884-2.56-3.037.003c-.146 0-.236-.094-.196-.243l1.593-4.758z"/></svg>