<?xml version="1.0" encoding="UTF-8"?>
<svg xmlns="http://www.w3.org/2000/svg" id="Layer_1" data-name="Layer 1" viewBox="0 0 24 24">
  <path d="M24,15.5c0-1.379-1.121-2.5-2.5-2.5H2.5c-1.379,0-2.5,1.121-2.5,2.5v6.5H2v2h1v-2H21v2h1v-2h2v-6.5Zm-1,5.5H1v-5.5c0-.827,.673-1.5,1.5-1.5H21.5c.827,0,1.5,.673,1.5,1.5v5.5Zm-5.968-13.916c-1.344-1.344-3.131-2.084-5.032-2.084s-3.688,.74-5.032,2.084l-.707-.707c1.533-1.533,3.571-2.377,5.739-2.377s4.206,.844,5.739,2.377l-.707,.707Zm-2.265,2.062l-.707,.707c-1.1-1.102-3.021-1.102-4.121,0l-.707-.707c1.477-1.479,4.059-1.479,5.535,0ZM4.321,4.181l-.707-.707C5.854,1.233,8.831,0,12,0s6.146,1.233,8.386,3.474l-.707,.707c-2.05-2.051-4.777-3.181-7.679-3.181s-5.629,1.13-7.679,3.181Zm.679,13.319c0,.552-.448,1-1,1s-1-.448-1-1,.448-1,1-1,1,.448,1,1Zm3,0c0,.552-.448,1-1,1s-1-.448-1-1,.448-1,1-1,1,.448,1,1Zm5-.5h8v1H13v-1Z"/>
</svg>
