<svg id="Layer_1" viewBox="0 0 24 24" xmlns="http://www.w3.org/2000/svg" data-name="Layer 1"><path d="m21.449 8.966c.887 1.306 1.419 2.862 1.512 4.534h-4.992c-.036-.867-.14-1.709-.32-2.5h-1.036c.196.792.329 1.631.369 2.5h-5.956c.137-3.086 1.481-5.8 2.432-7.338l-.673-.812c-1.02 1.57-2.615 4.584-2.758 8.149h-5.004c.236-4.256 3.439-7.724 7.574-8.376l-.096-.116c-.157-.266-.276-.543-.358-.825-4.628.874-8.143 4.938-8.143 9.817 0 5.514 4.486 10 10 10s10-4.486 10-10c0-2.185-.713-4.203-1.907-5.85l-.644.816zm-4.47 5.534c-.166 3.757-2.131 6.951-2.98 8.159-.848-1.208-2.813-4.402-2.98-8.159h5.959zm-11.954 0h4.994c.151 3.782 1.953 6.961 2.951 8.436-4.315-.494-7.702-4.051-7.945-8.436zm10.004 8.436c.997-1.476 2.799-4.654 2.951-8.436h4.994c-.243 4.385-3.63 7.942-7.945 8.436zm7.221-19.936h-1.01l-1.729-2.16c-.282-.518-.824-.84-1.415-.84h-1.83l1.184 3h-.352l-.911-.624c-.562-.566-1.612-.43-2.013.262-.231.399-.233.876.048 1.351l1.695 2.011h1.519l-1.167 3h1.845c.589 0 1.131-.321 1.368-.77l1.761-2.23h2.758v-1.5c0-.883-.72-1.5-1.75-1.5zm.75 2h-2.242l-2.107 2.681c-.107.197-.313.319-.537.319h-.382l1.167-3h-2.518l-1.343-1.582c-.072-.126-.023-.237 0-.279.037-.063.149-.326.508 0l1.239.861h2.132l-1.184-3h.361c.224 0 .43.122.585.391l2.078 2.609h1.491c.362 0 .75.131.75.5v.5zm-22 9c0 3.449 1.337 6.698 3.764 9.148l-.711.704c-2.614-2.639-4.053-6.137-4.053-9.852 0-7.039 5.227-12.035 12-13.01v1.01c-6.219.967-11 5.513-11 12z"/></svg>