<svg id="Layer_1" viewBox="0 0 24 24" xmlns="http://www.w3.org/2000/svg" data-name="Layer 1"><path d="m17 4h1v4c0 .551-.449 1-1 1h-4v-1h3.569c-.789-1.809-2.559-3-4.569-3-2.757 0-5 2.243-5 5s2.243 5 5 5c2.414 0 4.434-1.721 4.899-4h1.011c-.478 2.833-2.942 5-5.91 5-3.309 0-6-2.691-6-6s2.691-6 6-6c2.062 0 3.911 1.047 5 2.704zm7-1.5v17.5h-16.823l-4.578 3.694c-.301.202-.634.302-.962.302-.97 0-1.636-.763-1.636-1.646v-19.85c-.001-1.378 1.121-2.5 2.499-2.5h19c1.378 0 2.5 1.122 2.5 2.5zm-1 0c0-.827-.673-1.5-1.5-1.5h-19c-.827 0-1.5.673-1.5 1.5v19.85c0 .243.128.457.342.571.214.115.462.103.665-.032l4.816-3.889h16.177z"/></svg>