<svg id="Layer_1" viewBox="0 0 24 24" xmlns="http://www.w3.org/2000/svg" data-name="Layer 1"><path d="m12.703 24h-1.62l-2.188-1h-3.013l-.571-2.02.819-2.36-1.845-.437-1.684-2.981.8-1.681-.409-1.479.355-3.518 1.393-.326.833-5.199h2.217l.891-.906.286-2.094h.586l1.596 1h2.85v1h.436l2.655-.693 2.909 2.461v2.065l1.456 1.934-.797 1.806.589 1.427h-1.498l-1.5 2h-2.25v1.372l1.186 2.156 2.542 1.966-1.728 2.181v2.326h-1.936l-1.717.449-1.089-.174c-.129.217-.555.725-.555.725zm-1.314-1h.863c.085-.131.474-.823.474-.823l1.572.251 1.703-.428h1v-1.674l1.316-1.66-1.956-1.565-1.36-2.472v-2.628h2.75l1.5-2h.502l-.182-.441.734-1.659-1.304-1.733v-1.935l-2.159-1.827-2.341.595h-1.5v-1h-2.15l-1.052-.692-.17 1.25-1.418 1.442h-1.783l-.803 5.02-1.352.316-.264 2.621.458 1.657-.742 1.558c.257.472.861 1.573 1.195 2.133l2.52.597-1.079 3.108.28.989 2.562.042 2.188.958z"/></svg>