<svg id="Layer_1" viewBox="0 0 24 24" xmlns="http://www.w3.org/2000/svg" data-name="Layer 1"><path d="m22 12h-1v7h-5.707l-1 1h-4.586l-1-1h-5.707v-12h3v-1h-4v13h-2v2.5c0 1.378 1.122 2.5 2.5 2.5h19c1.378 0 2.5-1.122 2.5-2.5v-2.5h-2zm1 9.5c0 .827-.673 1.5-1.5 1.5h-19c-.827 0-1.5-.673-1.5-1.5v-1.5h7.293l1 1h5.414l1-1h7.293zm-15-21.5v10h16v-10zm15 9h-14v-8h14zm-13-6c0-.552.448-1 1-1s1 .448 1 1-.448 1-1 1-1-.448-1-1zm0 4c0-.552.448-1 1-1s1 .448 1 1-.448 1-1 1-1-.448-1-1zm10-4c0-.552.448-1 1-1s1 .448 1 1-.448 1-1 1-1-.448-1-1zm0 4c0-.552.448-1 1-1s1 .448 1 1-.448 1-1 1-1-.448-1-1zm-4 1c1.654 0 3-1.346 3-3s-1.346-3-3-3-3 1.346-3 3 1.346 3 3 3zm0-5c1.103 0 2 .897 2 2s-.897 2-2 2-2-.897-2-2 .897-2 2-2z"/></svg>