<svg id="Layer_1" viewBox="0 0 24 24" xmlns="http://www.w3.org/2000/svg" data-name="Layer 1"><path d="m12 0c-6.617 0-12 5.383-12 12s5.383 12 12 12 12-5.383 12-12-5.383-12-12-12zm-11 12c0-2.853 1.101-5.447 2.889-7.404l15.515 15.515c-1.957 1.788-4.551 2.889-7.404 2.889-6.065 0-11-4.935-11-11zm7.672-4.035-1.137-1.137c.085-.466.474-.828.965-.828.552 0 1 .449 1 1 0 .49-.361.881-.828.965zm5.188 5.156.341-1.364c.111-.446.51-.757.97-.757h.658c.46 0 .858.312.97.757l1.061 4.243h-1.152l-2.847-2.879zm6.251 6.283-2.404-2.404h1.434l-1.371-5.485c-.224-.892-1.021-1.515-1.94-1.515h-.658c-.919 0-1.717.623-1.94 1.515l-.202.807-3.575-3.575c.62-.34 1.046-.991 1.046-1.747 0-1.103-.897-2-2-2-.755 0-1.407.426-1.747 1.046l-2.157-2.157c1.957-1.788 4.551-2.889 7.404-2.889 6.065 0 11 4.935 11 11 0 2.853-1.101 5.447-2.889 7.404zm-10.111-5.869 1 1v1.465h-1v3h-1v-3h-1v3h-1v-3h-1v-4.293l-1.646 1.646-.707-.707 1.914-1.914c.291-.291.645-.49 1.028-.609l.877.877c-.153-.003-.317.003-.465.04v3.96h3v-1.465zm5.5-8.535c-1.103 0-2 .897-2 2s.897 2 2 2 2-.897 2-2-.897-2-2-2zm0 3c-.552 0-1-.449-1-1s.448-1 1-1 1 .449 1 1-.448 1-1 1zm-.5 10.535v.465h-1v-1.465zm-2.82-2.82 1.284 1.284h-1.605z"/></svg>