<?xml version="1.0" encoding="UTF-8"?>
<svg xmlns="http://www.w3.org/2000/svg" id="Layer_1" data-name="Layer 1" viewBox="0 0 24 24">
  <path d="M9,8h-1V4h1v4Zm14,9.25c0,2.114-1.01,4.132-2.7,5.4-.003,.011-1.373,1.35-4.05,1.35s-4.193-1.486-4.25-1.543V13.543c.057-.057,1.573-1.543,4.25-1.543,.527,0,1.18,.079,1.734,.2-.121-2.823-.947-7.073-1.508-9.958-.118-.608-.427-2.241-.427-2.241h4.876s.316,1.903,.461,2.736c.681,3.926,1.613,9.304,1.613,14.514ZM17.642,3h2.775c-.005-.03-.244-1.406-.342-2h-2.82c.063,.328,.325,1.678,.387,2Zm4.358,14.25c0-4.664-.764-9.486-1.41-13.25h-2.757c.573,3.025,1.167,6.51,1.167,8.861v.716l-.672-.247c-.506-.185-1.419-.331-2.078-.331-1.804,0-2.877,.688-3.25,.979v8.042c.371,.29,1.444,.979,3.25,.979,2.239,0,3.353-1.061,3.398-1.105,1.492-1.124,2.352-2.844,2.352-4.645Zm-14.477,4.509c.118,.608,.427,2.241,.427,2.241H3.074s-.316-1.903-.461-2.736c-.681-3.926-1.613-9.304-1.613-14.514C1,4.636,2.01,2.618,3.7,1.35c.003-.011,1.373-1.35,4.05-1.35s4.193,1.486,4.25,1.543V10.457c-.057,.057-1.573,1.543-4.25,1.543-.527,0-1.18-.079-1.734-.2,.121,2.823,.947,7.073,1.508,9.958Zm-4.113-1.759h2.757c-.573-3.025-1.167-6.51-1.167-8.861v-.716l.672,.247c.506,.185,1.419,.331,2.078,.331,1.804,0,2.877-.688,3.25-.979V1.979c-.371-.29-1.444-.979-3.25-.979-2.239,0-3.353,1.061-3.398,1.105-1.492,1.124-2.352,2.844-2.352,4.645,0,4.664,.764,9.486,1.41,13.25Zm3.335,3c-.063-.328-.325-1.678-.387-2H3.583c.005,.03,.244,1.406,.342,2h2.82Zm8.255-3h1v-4h-1v4Z"/>
</svg>
