<?xml version="1.0" encoding="UTF-8"?>
<svg xmlns="http://www.w3.org/2000/svg" id="Layer_1" data-name="Layer 1" viewBox="0 0 24 24">
  <path d="M24,12h-1c0-6.065-4.935-11-11-11-3.733,0-7.168,1.905-9.192,5h3.192v1H2.5c-.827,0-1.5-.673-1.5-1.5V1h1V5.411C4.211,2.06,7.944,0,12,0c6.617,0,12,5.383,12,12Zm-2.5,5h-3.5v1h3.194c-2.024,3.089-5.482,5-9.194,5-6.065,0-11-4.935-11-11H0c0,6.617,5.383,12,12,12,4.033,0,7.789-2.067,10-5.412v4.412h1v-4.5c0-.827-.673-1.5-1.5-1.5Zm-4.5,1H7V8c0-1.103,.897-2,2-2h6c1.103,0,2,.897,2,2v10Zm-1-10c0-.551-.448-1-1-1h-6c-.551,0-1,.449-1,1v9h8V8Zm-7,4h6v-1h-6v1Zm0-2h6v-1h-6v1Zm0,4h5v-1h-5v1Z"/>
</svg>
