<?xml version="1.0" encoding="UTF-8"?>
<svg xmlns="http://www.w3.org/2000/svg" id="Layer_1" data-name="Layer 1" viewBox="0 0 24 24">
  <path d="M12,12c3.309,0,6-2.691,6-6S15.309,0,12,0,6,2.691,6,6s2.691,6,6,6Zm0-11c2.757,0,5,2.243,5,5s-2.243,5-5,5-5-2.243-5-5S9.243,1,12,1Zm4.5,17c-1.379,0-2.5,1.121-2.5,2.5s1.121,2.5,2.5,2.5,2.5-1.121,2.5-2.5-1.121-2.5-2.5-2.5Zm0,4c-.827,0-1.5-.673-1.5-1.5s.673-1.5,1.5-1.5,1.5,.673,1.5,1.5-.673,1.5-1.5,1.5Zm6.5-.123v1.295l-1.237,.828h-1.876l2.114-1.362v-.544l-2.087-4.573c-.889-1.556-2.549-2.521-4.343-2.521h-7.141c-1.794,0-3.454,.965-4.343,2.522l-2.087,4.572v.543l2.044,1.362h-1.807l-1.237-.828v-1.295l2.195-4.81c1.061-1.893,3.066-3.067,5.234-3.067h7.141c2.168,0,4.174,1.175,5.234,3.066l2.195,4.811Zm-12-2.084l4.207,4.207h-1.414l-2.029-2.029-2.029,2.029h-1.414l2.736-2.736-1.057-1.057v-3.207h1v2.793Z"/>
</svg>
