<svg id="Layer_1" viewBox="0 0 24 24" xmlns="http://www.w3.org/2000/svg" data-name="Layer 1"><path d="m0 0v3.5c0 .814.397 1.531 1 1.987v7.513c0 6.065 4.935 11 11 11s11-4.935 11-11v-7.513c.603-.457 1-1.174 1-1.987v-3.5zm22 13c0 5.514-4.486 10-10 10s-10-4.486-10-10v-7.051c.162.033.329.051.5.051h19c.171 0 .338-.018.5-.051zm1-9.5c0 .827-.673 1.5-1.5 1.5h-19c-.827 0-1.5-.673-1.5-1.5v-2.5h22zm-11 3.5c-3.86 0-7 3.141-7 7s3.14 7 7 7 7-3.141 7-7-3.14-7-7-7zm0 13c-3.309 0-6-2.691-6-6s2.691-6 6-6 6 2.691 6 6-2.691 6-6 6zm0-9c-1.654 0-3 1.346-3 3s1.346 3 3 3 3-1.346 3-3-1.346-3-3-3zm0 5c-1.103 0-2-.897-2-2s.897-2 2-2 2 .897 2 2-.897 2-2 2z"/></svg>