<svg id="Layer_1" viewBox="0 0 24 24" xmlns="http://www.w3.org/2000/svg" data-name="Layer 1"><path d="m4.112 10.5h.784l-.792 2h1.812l2.896-3.276c.227-.339.248-.775.056-1.137-.191-.361-.562-.586-.969-.587h-1.172l.77-2h-3.128l-1.32 3.523c-.106.344-.039.725.178 1.021.213.289.535.455.885.457zm.951-4h.978l-.77 2h2.625c.099.004.129.11.063.2l-2.296 2.578.704-1.779h-2.292c-.123 0-.098-.112-.08-.154l1.068-2.846zm15.937 11.5c-.073 0-.141.016-.212.021l-3.931-16.114c-.274-1.123-1.272-1.907-2.429-1.907h-3.429v1h3.429c.693 0 1.293.471 1.458 1.145l2.607 10.686-4.231 5.17h-14.262v1h1.78c-.48.532-.78 1.229-.78 2 0 1.654 1.346 3 3 3s3-1.346 3-3c0-.771-.301-1.468-.78-2h8.517l4.053-4.954 1.025 4.2c-1.066.461-1.814 1.521-1.814 2.754 0 1.654 1.346 3 3 3s3-1.346 3-3-1.346-3-3-3zm-17 5c-1.103 0-2-.897-2-2s.897-2 2-2 2 .897 2 2-.897 2-2 2zm17 0c-1.103 0-2-.897-2-2s.897-2 2-2 2 .897 2 2-.897 2-2 2zm-15-8c3.309 0 6-2.691 6-6s-2.691-6-6-6-6 2.691-6 6 2.691 6 6 6zm0-11c2.757 0 5 2.243 5 5s-2.243 5-5 5-5-2.243-5-5 2.243-5 5-5z"/></svg>