<svg id="Layer_1" viewBox="0 0 24 24" xmlns="http://www.w3.org/2000/svg" data-name="Layer 1"><path d="m7.5 10v1.051c-1.968.249-3.5 1.915-3.5 3.949h-1v1h10v-1h-1c0-2.034-1.532-3.7-3.5-3.949v-1.051zm3.5 5h-6c0-1.654 1.346-3 3-3s3 1.346 3 3zm10.5-15h-19c-1.379 0-2.5 1.122-2.5 2.5v19.5h11.195c-.268-.309-.513-.641-.705-1h-9.49v-13h22v6.955l1 .5v-12.955c0-1.378-1.121-2.5-2.5-2.5zm-20.5 7v-4.5c0-.827.673-1.5 1.5-1.5h19c.827 0 1.5.673 1.5 1.5v4.5zm4-3c0 .552-.448 1-1 1s-1-.448-1-1 .448-1 1-1 1 .448 1 1zm3 0c0 .552-.448 1-1 1s-1-.448-1-1 .448-1 1-1 1 .448 1 1zm3 0c0 .552-.448 1-1 1s-1-.448-1-1 .448-1 1-1 1 .448 1 1zm9 11.691 4 2v6.309h-1v-5.691l-4-2v-4.309c0-.551-.448-1-1-1s-1 .449-1 1v8.282l-2.027-1.896c-.419-.42-1.078-.502-1.501-.197-.561.38-.63 1.233-.146 1.698l-.002.002s.008.004.011.007l3.904 4.104h-1.38l-3.248-3.414c-.905-.885-.774-2.489.277-3.208.809-.584 2.045-.447 2.781.29l.331.31v-5.978c0-1.103.897-2 2-2s2 .897 2 2z"/></svg>