<?xml version="1.0" encoding="UTF-8"?>
<svg xmlns="http://www.w3.org/2000/svg" id="Layer_1" data-name="Layer 1" viewBox="0 0 24 24">
  <path d="M12,16.207l3.207-3.207h6.793V2.5c0-1.379-1.122-2.5-2.5-2.5H4.5c-1.378,0-2.5,1.121-2.5,2.5V13h6.793l3.207,3.207ZM3,2.5c0-.827,.673-1.5,1.5-1.5h15c.827,0,1.5,.673,1.5,1.5V12h-6.207l-2.793,2.793-2.793-2.793H3V2.5Zm5.824,5.5l.472,2h1.027l-1.38-5.853c-.156-.672-.754-1.147-1.443-1.147-.692-.022-1.32,.51-1.455,1.196l-1.33,5.804h1.026l.458-2h2.625Zm-1.805-3.578c.085-.553,.835-.549,.95-.046l.619,2.624h-2.16l.591-2.578Zm11.48,5.578h-4.5v-1.157l3.39-4.843h-3.39v-1h4.5v1.157l-3.39,4.843h3.39v1Zm-5.5-3h-2v-1h2v1Zm.181,15.484c.708-.785,1.882-1.484,3.819-1.484h7v1h-7c-1.263,0-2.242,.337-2.928,1h9.928v1H0v-1H9.928c-.685-.663-1.664-1-2.928-1H0v-1H7c1.937,0,3.11,.699,3.819,1.484-.324-1.035-1.235-2.484-3.819-2.484H0v-1H7c3.944,0,4.775,2.831,4.951,4h.098c.176-1.169,1.007-4,4.951-4h7v1h-7c-2.584,0-3.495,1.448-3.819,2.484Z"/>
</svg>
