<svg id="Layer_1" viewBox="0 0 24 24" xmlns="http://www.w3.org/2000/svg" data-name="Layer 1"><path d="m12 10c-2.404 0-4.664.936-6.364 2.636l-.707-.707c1.889-1.889 4.4-2.929 7.071-2.929.965 0 1.908.14 2.809.403-.323.243-.625.511-.902.805-.62-.133-1.258-.207-1.908-.207zm0 5.001c-1.024 0-2.049.39-2.829 1.17l.707.707c.606-.606 1.407-.891 2.203-.87-.048-.33-.081-.665-.081-1.008zm.286-1.971c.101-.344.23-.675.38-.996-2.007-.19-4.082.481-5.615 2.015l.707.707c1.243-1.242 2.898-1.804 4.529-1.726zm6.998.271c-.391.391-.391 1.024 0 1.414s1.024.391 1.414 0 .391-1.024 0-1.414c-.391-.391-1.024-.391-1.414 0zm4.716 1.698c0 2.757-2.243 5-5 5-.415 0-.836-.061-1.28-.185l-4.184 4.184h-3.536s0-3.499 0-3.499h2v-2h1.494l-.019-1.454.717-.736c-.129-.453-.192-.884-.192-1.31 0-2.757 2.243-5 5-5s5 2.243 5 5zm-1 0c0-2.206-1.794-4-4-4s-4 1.794-4 4c-.01.484.141 1.063.331 1.573l-.851.873.026 2.054h-1.506v2h-2v1.5s2.123 0 2.123 0l4.322-4.322c.505.183 1.081.334 1.556.323 2.206 0 4-1.794 4-4zm-.032-7.134-9.31-7.293c-.976-.765-2.34-.765-3.317 0l-9.309 7.294c-.656.514-1.032 1.287-1.032 2.121v14.013h8v-1h-7v-13.013c0-.524.236-1.01.649-1.333l9.309-7.295c.614-.48 1.47-.48 2.083 0l9.31 7.294c.154.121.274.269.376.429.463.292.892.634 1.273 1.024.031-.872-.342-1.702-1.032-2.239z"/></svg>