<svg id="Layer_1" viewBox="0 0 24 24" xmlns="http://www.w3.org/2000/svg" data-name="Layer 1"><path d="m7.209 1.42c.412-.275.892-.42 1.387-.42h5.404v3.985c-2.434 1.159-4 3.599-4 6.31v.705h1v-.705c0-2.241 1.251-4.262 3.21-5.295h5.556c1.307.687 2.303 1.804 2.82 3.147.429.107.829.276 1.199.496-.493-2.022-1.862-3.749-3.785-4.665v-2.478c0-1.378-1.121-2.5-2.5-2.5h-8.904c-.693 0-1.364.203-1.941.588l-2.501 1.667.555.832 2.501-1.667zm7.791-.42h2.5c.827 0 1.5.673 1.5 1.5v2.5h-4zm-10.5 11c1.343.027 2.528-1.156 2.5-2.5 0-.668-.26-1.296-.736-1.771l-1.764-1.725-1.768 1.729c-.473.472-.732 1.1-.732 1.768-.028 1.344 1.157 2.527 2.5 2.5zm-1.064-3.557 1.064-1.042 1.061 1.038c.283.283.439.66.439 1.061s-.156.777-.439 1.061c-.566.566-1.555.566-2.121 0-.283-.283-.439-.66-.439-1.061s.156-.777.436-1.057zm19.927 6.739-7.857 8.818h-1.34l8.45-9.484c.548-.615.499-1.567-.11-2.122-.592-.558-1.6-.513-2.135.1l-4.509 4.955c-.305.937-1.117 1.664-2.132 1.809l-5.667.738-.129-.992 5.661-.737c.798-.113 1.403-.812 1.403-1.624 0-.905-.737-1.643-1.643-1.643h-10.855c-.827 0-1.5.673-1.5 1.5v7.5h-1v-7.5c0-1.379 1.121-2.5 2.5-2.5h10.857c1.21 0 2.221.822 2.534 1.933l3.742-4.112c.887-1.018 2.568-1.095 3.548-.166 1.012.923 1.094 2.505.183 3.527zm.637 2.291v6.527h-5.816l.891-1h3.925v-4.405z"/></svg>