<svg id="Layer_1" viewBox="0 0 24 24" xmlns="http://www.w3.org/2000/svg" data-name="Layer 1"><path d="m1 2.5c0-.827.673-1.5 1.5-1.5h9.5v7h7v3h1v-3.707l-7.293-7.293h-10.207c-1.378 0-2.5 1.122-2.5 2.5v21.5h20v-1h-19zm12-.793 5.293 5.293h-5.293zm-10.021 16.293v.5c0 .827.673 1.5 1.5 1.5s1.5-.673 1.5-1.5v-5.5h1v5.5c0 1.378-1.122 2.5-2.5 2.5s-2.5-1.122-2.5-2.5v-.5zm10.521-2.5v3c0 1.378 1.122 2.5 2.5 2.5s2.5-1.122 2.5-2.5v-3c0-1.378-1.122-2.5-2.5-2.5s-2.5 1.122-2.5 2.5zm4 0v3c0 .827-.673 1.5-1.5 1.5s-1.5-.673-1.5-1.5v-3c0-.827.673-1.5 1.5-1.5s1.5.673 1.5 1.5zm-6.015 3.419c.037-.228.076-1.006-.976-1.432-.112-.042-1.208-.457-1.699-.763-.671-.473-.977-1.163-.88-1.917.104-.784.627-1.421 1.366-1.665.902-.295 1.822-.045 2.736.747l-.655.756c-.647-.562-1.209-.736-1.768-.553-.371.123-.635.446-.688.845-.049.379.103.717.428.948.334.204 1.213.553 1.523.67 1.394.564 1.731 1.711 1.6 2.523-.184 1.127-1.164 1.944-2.33 1.944-.879 0-1.948-.551-2.473-1.084l.712-.702c.413.419 1.236.787 1.761.787.673 0 1.238-.465 1.342-1.105zm12.515-5.919v8h-.813l-2.687-5.405v5.405h-1v-8h.813l2.687 5.448v-5.448z"/></svg>