<svg id="Layer_1" viewBox="0 0 24 24" xmlns="http://www.w3.org/2000/svg" data-name="Layer 1"><path d="m22 14.421c-.349.238-.685.444-1 .618v3.962h-5.707l-1 1h-4.586l-1-1h-5.707v-12.001h8.038v-1h-9.038v13h-2v2.5c0 1.378 1.121 2.5 2.5 2.5h19c1.379 0 2.5-1.122 2.5-2.5v-2.5h-2zm1 7.079c0 .827-.673 1.5-1.5 1.5h-19c-.827 0-1.5-.673-1.5-1.5v-1.5h7.293l1 1h5.414l1-1h7.293zm-.104-20.006-4.396-1.458-4.396 1.458c-.66.218-1.104.832-1.104 1.526v4.346c0 3.612 3.868 5.829 5.054 6.422l.425.212.441-.177c1.192-.48 5.08-2.363 5.08-6.458v-4.345c0-.694-.443-1.308-1.104-1.526zm.104 5.872c0 3.467-3.408 5.109-4.453 5.53l-.023.009-.022-.011c-1.056-.528-4.501-2.489-4.501-5.528v-4.346c0-.262.168-.494.418-.577l4.082-1.354 4.082 1.353c.25.083.418.315.418.577v4.346z"/></svg>