<svg id="Layer_1" viewBox="0 0 24 24" xmlns="http://www.w3.org/2000/svg" data-name="Layer 1"><path d="m23.607 22.789.369.93c-.47.187-.967.281-1.477.281-1.504 0-2.817-.834-3.5-2.065-.683 1.23-1.996 2.065-3.5 2.065s-2.817-.834-3.5-2.065c-.683 1.23-1.996 2.065-3.5 2.065s-2.817-.834-3.5-2.065c-.683 1.23-1.996 2.065-3.5 2.065-.509 0-1.006-.095-1.477-.281l.369-.93c.353.14.725.211 1.107.211 1.654 0 3-1.346 3-3h1c0 1.654 1.346 3 3 3s3-1.346 3-3h1c0 1.654 1.346 3 3 3s3-1.346 3-3h1c0 1.654 1.346 3 3 3 .383 0 .756-.071 1.107-.211zm.393-20.289v15.5h-1.707l-1.438-1.438c.073-.419.117-.847.13-1.284l1.721 1.721h.293v-6.279l-2.241 2.241c-.086-.372-.197-.733-.328-1.086l1.294-1.294-2.803-2.803-.712.719c-.242-.231-.497-.446-.764-.649l.769-.776-2.79-2.79-1.863 1.863c-.419-.073-.847-.117-1.284-.13l2.44-2.44-2.574-2.574h-.22l-2.609 2.609 2.405 2.405c-.437.013-.865.057-1.284.13l-1.828-1.828-2.795 2.795.737.738c-.266.203-.522.419-.764.65l-.68-.681-2.763 2.763 1.243 1.243c-.133.351-.244.711-.332 1.082l-2.255-2.255v6.349h.293l1.721-1.721c.013.437.057.865.13 1.284l-1.438 1.438h-1.704v-15.502c0-1.378 1.122-2.5 2.5-2.5h19c1.379 0 2.5 1.122 2.5 2.5zm-23 .793 2.293-2.293h-.793c-.827 0-1.5.673-1.5 1.5zm3.401 3.818-3.401-3.404v6.804l3.401-3.401zm3.501-3.502-2.609-2.609h-.586l-2.5 2.5 2.901 2.903zm2.609-2.609h-3.804l1.902 1.902zm4.915 1.867 1.867-1.867h-3.734zm6.369.594-2.461-2.461h-.626l-2.574 2.574 2.787 2.787 2.875-2.9zm1.205.204-3.373 3.403 3.373 3.373zm0-1.165c0-.827-.673-1.5-1.5-1.5h-.753l2.253 2.253zm-5.812 15.5c.413-.712.678-1.518.769-2.375-.947.491-1.945.722-3.131.722-1.125 0-2.004-.41-2.78-.774-.924.588-1.663 1.448-2.125 2.427h-1.11c.508-1.312 1.452-2.465 2.673-3.247-.038-.909-.281-1.784-.7-2.569-2.074 1.448-3.452 3.315-4.099 5.562.044.084.079.172.127.254h-1.127c-.435-.911-.685-1.925-.685-3 0-3.86 3.14-7 7-7s7 3.14 7 7c0 1.075-.251 2.089-.685 3zm-6.94-6.662c-.412-.536-.923-.996-1.503-1.372-1.649 1.07-2.745 2.925-2.745 5.033 0 .437.06.859.15 1.269.818-1.955 2.19-3.609 4.098-4.931zm4.913 3.988c-.062-2.266-1.004-4.487-2.675-6.302-.161-.013-.322-.025-.486-.025-.795 0-1.553.159-2.248.441 1.627 1.248 2.628 3.167 2.726 5.23.712.334 1.448.676 2.348.676.118 0 .222-.016.335-.021zm2.811-.873c-.213-2.345-1.781-4.298-3.912-5.081 1.289 1.755 2.018 3.771 2.095 5.832.645-.134 1.236-.378 1.817-.751z"/></svg>