<svg id="Layer_1" viewBox="0 0 24 24" xmlns="http://www.w3.org/2000/svg" data-name="Layer 1"><path d="m24 9.987v.779c-.308-.202-.648-.351-1-.472v-.307c0-.524-.236-1.01-.649-1.333l-9.309-7.295c-.613-.48-1.469-.48-2.083 0l-9.31 7.294c-.413.323-.649.809-.649 1.333v13.013h9v1h-10v-14.012c0-.834.376-1.607 1.032-2.121l9.309-7.294c.977-.765 2.341-.765 3.317 0l9.31 7.294c.656.514 1.032 1.287 1.032 2.121zm-.732 2.746c.975.975.975 2.561 0 3.535l-7.732 7.732h-3.536v-3.535l7.732-7.732c.943-.944 2.592-.944 3.535 0zm-.707.707c-.566-.566-1.555-.566-2.121 0l-7.439 7.439v2.121h2.122l7.439-7.439c.585-.585.585-1.536 0-2.121zm-10.061 3.697v-4.942c0-.603.405-1.139.984-1.305l2.943-.841c.754-.241 1.596.391 1.572 1.186v.402c.284-.291.608-.613.951-.833-.206-1.247-1.585-2.099-2.797-1.717l-2.944.841c-.491.141-.909.434-1.209.819-.3-.385-.719-.679-1.21-.819l-2.943-.841c-1.372-.435-2.888.708-2.847 2.147v7.186l4.835 1.382.809-.809-4.644-1.327v-6.432c-.022-.794.814-1.429 1.572-1.186l2.943.841c.58.166.985.702.985 1.305v5.942l1-1z"/></svg>