<?xml version="1.0" encoding="UTF-8"?>
<svg xmlns="http://www.w3.org/2000/svg" id="Layer_1" data-name="Layer 1" viewBox="0 0 24 24">
  <path d="m20.485,3.515C15.806-1.164,8.194-1.164,3.515,3.515-1.164,8.193-1.164,15.807,3.515,20.485c2.34,2.339,5.412,3.509,8.485,3.509s6.146-1.169,8.485-3.509c4.679-4.679,4.679-12.292,0-16.971Zm2.459,7.426c-2.7.316-5.396-.611-7.335-2.55-1.938-1.938-2.865-4.636-2.55-7.335,2.454.235,4.844,1.29,6.719,3.166s2.931,4.265,3.166,6.719ZM1.056,13.06c2.695-.315,5.396.611,7.335,2.549,1.938,1.938,2.865,4.636,2.55,7.334-2.454-.235-4.844-1.29-6.719-3.165-1.875-1.875-2.93-4.265-3.166-6.718Zm18.722,6.718c-2.16,2.159-5.001,3.231-7.837,3.215.328-2.979-.704-5.952-2.843-8.091-2.14-2.14-5.113-3.171-8.092-2.843-.015-2.837,1.056-5.679,3.216-7.838,2.16-2.159,5.001-3.231,7.838-3.216-.328,2.979.704,5.952,2.843,8.092,1.879,1.879,4.399,2.903,7.003,2.903.362,0,.726-.021,1.089-.061.015,2.837-1.056,5.678-3.216,7.838Z"/>
</svg>
