<svg id="Layer_1" viewBox="0 0 24 24" xmlns="http://www.w3.org/2000/svg" data-name="Layer 1"><path d="m24 16.393-3.374-3.393h-6.252l-3.394 3.393 6.52 7.606zm-1.787-.393h-2.379l-.667-2h1.045zm-5.938 1h2.451l-1.225 3.677-1.225-3.677zm-.054-1 .667-2h1.224l.667 2zm-1.433-2h1.045l-.667 2h-2.379zm.432 3 1.529 4.586-3.932-4.586zm3.031 4.586 1.529-4.586h2.403zm-17.251 1.414v-9h9.545l1-1h-10.545v-6.5c0-.827.673-1.5 1.5-1.5h19c.827 0 1.5.673 1.5 1.5v6.045l1 1v-7.045c0-1.378-1.121-2.5-2.5-2.5h-3.5v-2.5c0-.827-.673-1.5-1.5-1.5h-9c-.827 0-1.5.673-1.5 1.5v2.5h-3.5c-1.379 0-2.5 1.122-2.5 2.5v17.5h14.867l-.857-1zm6-21.5c0-.276.225-.5.5-.5h9c.275 0 .5.224.5.5v2.5h-10z"/></svg>