<svg id="Layer_1" viewBox="0 0 24 24" xmlns="http://www.w3.org/2000/svg" data-name="Layer 1"><path d="m23 17.501v6.499h-1v-6.499c.025-.918-.901-1.677-1.795-1.471l-6.331 1.272c-.796.159-1.374.865-1.374 1.677v5.021h-1v-5.021c0-.812-.578-1.518-1.373-1.677l-6.332-1.272c-.9-.2-1.818.55-1.795 1.471v6.499h-1v-6.499c-.038-1.532 1.497-2.793 2.993-2.451l6.331 1.272c.701.141 1.287.553 1.676 1.108.39-.555.976-.968 1.677-1.108l6.331-1.272c1.492-.342 3.032.919 2.992 2.451zm-16.994-10.501h-1.006v-1h1.002l-.002-.548c0-3.007 2.445-5.452 5.45-5.452h1.1c3.005 0 5.449 2.444 5.45 5.448l.002.552h.998v1h-.994l.007 1.998c0 3.311-2.691 6.002-6 6.002s-6-2.691-6-6zm11 0h-10l.007 1.998c0 2.759 2.243 5.002 5 5.002s5-2.243 5-5zm-10.004-1h10l-.002-.55c0-1.944-1.26-3.582-3-4.187v2.737h-1v-2.954c-.15-.015-.296-.046-.45-.046h-1.1c-.154 0-.3.03-.45.046v2.954h-1v-2.737c-1.74.605-3 2.244-3 4.187l.002.55z"/></svg>