<svg id="Layer_1" viewBox="0 0 24 24" xmlns="http://www.w3.org/2000/svg" data-name="Layer 1"><path d="m18 16h1v5.5c0 1.379-1.121 2.5-2.5 2.5s-2.5-1.121-2.5-2.5v-5.5h1v5.5c0 .827.673 1.5 1.5 1.5s1.5-.673 1.5-1.5zm-6 5.5c0 .827-.673 1.5-1.5 1.5s-1.5-.673-1.5-1.5v-.5h-1v.5c0 1.379 1.122 2.5 2.5 2.5s2.5-1.121 2.5-2.5v-5.5h-1zm9-5.5h-1v8h4v-1h-3zm3-11.5v9.5h-1v-5h-22v14h5.5c.112.355.267.691.463 1h-6.963v-19.5c0-1.378 1.122-2.5 2.5-2.5h3.5v-2h1v2h10v-2h1v2h3.5c1.379 0 2.5 1.122 2.5 2.5zm-1 3.5v-3.5c0-.827-.673-1.5-1.5-1.5h-19c-.827 0-1.5.673-1.5 1.5v3.5z"/></svg>