<svg id="Layer_1" viewBox="0 0 24 24" xmlns="http://www.w3.org/2000/svg" data-name="Layer 1"><path d="m22.5 18h-1.5v-2c0-1.103-.897-2-2-2h-6.5v-2h3.5c1.103 0 2-.897 2-2v-8c0-1.103-.897-2-2-2h-8c-1.103 0-2 .897-2 2v8c0 1.103.897 2 2 2h3.5v2h-6.5c-1.103 0-2 .897-2 2v2h-1.5c-.827 0-1.5.673-1.5 1.5v3c0 .827.673 1.5 1.5 1.5h4c.827 0 1.5-.673 1.5-1.5v-3c0-.827-.673-1.5-1.5-1.5h-1.5v-2c0-.551.449-1 1-1h6.5v3h-1.5c-.827 0-1.5.673-1.5 1.5v3c0 .827.673 1.5 1.5 1.5h4c.827 0 1.5-.673 1.5-1.5v-3c0-.827-.673-1.5-1.5-1.5h-1.5v-3h6.5c.551 0 1 .449 1 1v2h-1.5c-.827 0-1.5.673-1.5 1.5v3c0 .827.673 1.5 1.5 1.5h4c.827 0 1.5-.673 1.5-1.5v-3c0-.827-.673-1.5-1.5-1.5zm-14.5-7c-.551 0-1-.449-1-1v-8c0-.551.449-1 1-1h8c.551 0 1 .449 1 1v8c0 .551-.449 1-1 1zm-2 8.5v3c0 .276-.224.5-.5.5h-4c-.276 0-.5-.224-.5-.5v-3c0-.276.224-.5.5-.5h4c.276 0 .5.224.5.5zm8.5 0v3c0 .276-.224.5-.5.5h-4c-.276 0-.5-.224-.5-.5v-3c0-.276.224-.5.5-.5h4c.276 0 .5.224.5.5zm8.5 3c0 .276-.224.5-.5.5h-4c-.276 0-.5-.224-.5-.5v-3c0-.276.224-.5.5-.5h4c.276 0 .5.224.5.5zm-8-13.5h-1v-6h1zm-3.847-6h-.878l-1.888 6h1.049l.315-1h1.896l.308 1h1.046l-1.847-6zm-1.088 4 .644-2.045.63 2.045z"/></svg>