<?xml version="1.0" encoding="UTF-8"?>
<svg xmlns="http://www.w3.org/2000/svg" id="Layer_1" data-name="Layer 1" viewBox="0 0 24 24">
  <path d="M23.363,16.182l-6.966,7.818h-1.339l7.558-8.483c.549-.615,.5-1.567-.109-2.123-.592-.561-1.599-.512-2.135,.1l-4.509,4.955c-.305,.937-1.117,1.664-2.132,1.809l-5.667,.738-.129-.992,5.661-.737c.798-.113,1.403-.812,1.403-1.624,0-.905-.737-1.643-1.643-1.643H2.5c-.827,0-1.5,.673-1.5,1.5v6.5H0v-6.5c0-1.379,1.121-2.5,2.5-2.5H13.357c1.21,0,2.221,.822,2.534,1.933l3.742-4.112c.888-1.019,2.564-1.09,3.548-.166,1.012,.923,1.094,2.505,.182,3.527ZM11,7c.552,0,1-.448,1-1s-.448-1-1-1-1,.448-1,1,.448,1,1,1Zm-4.293,1h-2.707v-1.589c1.014-1.441,2.636-2.351,4.317-2.407,1.669-1.351,3.799-2.605,6.503-3.831,.578-.262,1.246-.142,1.697,.311,.45,.451,.572,1.117,.309,1.696-1.203,2.658-2.457,4.788-3.829,6.502-.056,1.683-.967,3.303-2.407,4.319h-1.59v-2.707l-.793-.793-1.354,1.354-.707-.707,1.354-1.354-.793-.793Zm-1.707-1h2.121l2.879,2.879v2.121h.254c1.164-.924,1.794-2.263,1.746-3.678,1.437-1.744,2.675-3.826,3.916-6.556,.127-.545-.135-.813-.684-.683-2.783,1.266-4.852,2.496-6.553,3.917-1.415-.048-2.756,.581-3.68,1.746v.254Z"/>
</svg>
