<?xml version="1.0" encoding="UTF-8"?>
<svg xmlns="http://www.w3.org/2000/svg" id="Layer_1" data-name="Layer 1" viewBox="0 0 24 24">
  <path d="M22,5.25c0-3.386-3.551-5.25-10-5.25S2,1.864,2,5.25c0,1.286,.781,3.561,2.385,6.951-.907,1.436-1.385,3.089-1.385,4.799-.003,2.717,1.23,5.284,3.346,7h11.309c2.116-1.716,3.348-4.283,3.346-7,0-1.71-.478-3.363-1.385-4.799,1.604-3.391,2.385-5.666,2.385-6.951Zm-2,11.75c0,2.301-.987,4.478-2.714,6H6.714c-1.727-1.522-2.714-3.699-2.714-6-.005-1.704,.543-3.34,1.532-4.717-1.897-3.85-2.607-6.431-2.532-7.033C3,1.552,8.639,1,12,1s9,.552,9,4.25c.079,.59-.638,3.191-2.532,7.033,.989,1.377,1.537,3.013,1.532,4.717ZM12,4c-3.892,.06-4.927,.496-6.099,1.095,.201,.909,.81,2.707,1.862,4.958,2.654-1.391,5.817-1.391,8.472,0,1.058-2.267,1.658-4.049,1.854-4.964-1.167-.595-2.209-1.031-6.089-1.09Zm3.733,4.732c-2.392-.972-5.077-.972-7.468,0-.659-1.498-1.008-2.516-1.183-3.095,.7-.267,2.166-.637,4.917-.637s4.212,.369,4.912,.635c-.171,.578-.517,1.594-1.178,3.097Zm-3.734,4.268c-2.206,0-4,1.794-4,4-.005,1.152,.497,2.225,1.352,3h5.297c.855-.775,1.357-1.848,1.352-3,0-2.206-1.794-4-4-4Zm2.231,6h-4.463c-.497-.552-.769-1.255-.769-2,0-1.654,1.346-3,3-3s3,1.346,3,3c0,.745-.271,1.448-.769,2Z"/>
</svg>
