<?xml version="1.0" encoding="UTF-8"?>
<svg xmlns="http://www.w3.org/2000/svg" id="Layer_1" data-name="Layer 1" viewBox="0 0 24 24">
  <path d="M.997,3l.003,21H0L-.004,0H.996V2H7v1H.997Zm14.003,0V7h1.755c2.579,0,4.245,1.492,4.245,3.8v2.2h-2v7H5v-7H3v-2.2c0-2.308,1.667-3.8,4.245-3.8h1.755V2h3v1h-2V7h4V2h9V0s1,0,1,0l.004,24h-1l-.003-21H15Zm-5.797,5h-1.924c.261,.455,.689,.784,1.195,.923,.192-.348,.429-.663,.73-.923Zm.797,11v-6h-2v-2.2c0-.333,.044-.644,.111-.941-.854-.265-1.55-.899-1.886-1.747-.995,.219-2.225,.859-2.225,2.688v1.2h2v7h4Zm7.301-10.968c-.428,1.172-1.529,1.968-2.801,1.968s-2.373-.796-2.801-1.968c-1.02,.116-2.699,.631-2.699,2.768v1.2h2v7h7v-7h2v-1.2c0-2.137-1.679-2.652-2.699-2.768Zm-4.522-.032c.349,.606,.993,1,1.721,1s1.372-.394,1.721-1h-3.442Z"/>
</svg>
