<svg id="Layer_1" viewBox="0 0 24 24" xmlns="http://www.w3.org/2000/svg" data-name="Layer 1"><path d="m13.993 7h.994v-1h-.998l-.002-.552c0-3.004-2.445-5.448-5.45-5.448h-1.1c-3.005 0-5.45 2.445-5.45 5.452l.002.548h-1.002v1h1.006l.007 2c0 3.309 2.691 6 6 6s6-2.691 6-6.002zm-11.006-1.55c0-1.943 1.26-3.582 3-4.187v2.737h1v-2.955c.15-.015.296-.045.45-.045h1.1c.154 0 .3.03.45.046v2.954h1v-2.737c1.74.605 3 2.244 3 4.187l.002.55h-10zm5.013 8.55c-2.757 0-5-2.243-5-5.002l-.007-1.998h10l.007 2c0 2.757-2.243 5-5 5zm-3 2h6v1h-6c-2.206 0-4 1.794-4 4v3h-1v-3c0-2.757 2.243-5 5-5zm19 .5c0 2.071-1.167 3.958-3 4.894v2.606h-1v-3.249c1.781-.661 3.01-2.346 3-4.251 0-1.516-.765-2.911-2-3.737v1.737c0 1.378-1.122 2.5-2.5 2.5s-2.5-1.122-2.5-2.5v-1.737c-1.235.826-2 2.221-2 3.737-.01 1.905 1.219 3.59 3 4.251v3.249h-1v-2.606c-1.833-.937-3-2.823-3-4.894-.028-2.485 1.69-4.559 4-5.343v3.343c0 .827.673 1.5 1.5 1.5s1.5-.673 1.5-1.5v-3.343c2.31.784 4.028 2.858 4 5.343z"/></svg>