<svg id="Layer_1" viewBox="0 0 24 24" xmlns="http://www.w3.org/2000/svg" data-name="Layer 1"><path d="m24 21h-9.551c-.199-.978-.971-1.75-1.949-1.949v-3.051h4.5c3.309 0 6-2.691 6-6 0-3.156-2.387-5.719-5.494-5.974-.998-2.422-3.37-4.026-6.006-4.026-2.919 0-5.442 1.916-6.241 4.697-2.486.667-4.259 2.953-4.259 5.553 0 3.171 2.58 5.75 5.75 5.75h4.75v3.051c-.978.199-1.75.971-1.949 1.949h-9.551v1h9.551c.232 1.14 1.242 2 2.449 2s2.217-.86 2.449-2h9.551zm-22-10.75c-.008-2.355 1.766-4.362 4.081-4.712.485-2.621 2.744-4.548 5.419-4.538 2.452-.009 4.606 1.653 5.297 3.998 2.842-.087 5.215 2.143 5.203 5.002 0 2.757-2.243 5-5 5h-10.25c-2.619 0-4.75-2.131-4.75-4.75zm10 12.75c-.827 0-1.5-.673-1.5-1.5s.673-1.5 1.5-1.5 1.5.673 1.5 1.5-.673 1.5-1.5 1.5zm-4.041-16h1.041l-1.301 6.176c-.108.484-.544.829-1.027.824-.468.009-.924-.348-1.019-.798l-1.352-6.202h1.065l1.274 5.971c.011.042.054.04.065 0 0 0 1.254-5.97 1.254-5.97zm3.791 0h-1.75v7h1v-2.5h.75c1.241 0 2.25-1.01 2.25-2.25s-1.009-2.25-2.25-2.25zm0 3.5h-.75v-2.5h.75c.689 0 1.25.561 1.25 1.25s-.561 1.25-1.25 1.25zm6.42 3.5-2.17-4.064v4.064h-1v-7h.83l2.17 5.064v-5.064h1v7z"/></svg>