<?xml version="1.0" encoding="UTF-8"?>
<svg xmlns="http://www.w3.org/2000/svg" id="Layer_1" data-name="Layer 1" viewBox="0 0 24 24">
  <path d="M8.535,11.536c.944-.944,1.465-2.2,1.465-3.536s-.521-2.592-1.465-3.536h0c-.945-.944-2.2-1.464-3.535-1.464C2.31,2.945-.054,5.311,0,8c0,1.336,.523,2.595,1.478,3.548l3.522,3.445,3.535-3.457ZM1,8c-.044-2.151,1.848-4.044,4-4,2.149-.044,4.045,1.849,4,4,0,1.069-.416,2.074-1.168,2.825l-2.832,2.77-2.819-2.757c-.762-.761-1.181-1.768-1.181-2.837Zm6,0c0-1.103-.897-2-2-2s-2,.897-2,2,.897,2,2,2,2-.897,2-2Zm-3,0c0-.551,.448-1,1-1s1,.449,1,1-.448,1-1,1-1-.449-1-1Zm18.535-3.536h0c-.945-.944-2.2-1.464-3.535-1.464-2.69-.055-5.054,2.311-5,5,0,1.336,.523,2.595,1.478,3.548l3.522,3.445,3.535-3.457c.944-.944,1.465-2.2,1.465-3.536s-.521-2.592-1.465-3.536Zm-.703,6.361l-2.832,2.77-2.819-2.757c-.762-.761-1.181-1.768-1.181-2.837-.044-2.151,1.848-4.044,4-4,2.149-.044,4.045,1.849,4,4,0,1.069-.416,2.074-1.168,2.825Zm-2.832-4.825c-1.103,0-2,.897-2,2s.897,2,2,2,2-.897,2-2-.897-2-2-2Zm0,3c-.552,0-1-.449-1-1s.448-1,1-1,1,.449,1,1-.448,1-1,1Zm0,8c-.929,0-1.705,.64-1.929,1.5H6.929c-.224-.86-1-1.5-1.929-1.5-1.103,0-2,.897-2,2s.897,2,2,2c.929,0,1.705-.64,1.929-1.5h10.142c.224,.86,1,1.5,1.929,1.5,1.103,0,2-.897,2-2s-.897-2-2-2Zm-14,3c-.552,0-1-.449-1-1s.448-1,1-1,1,.449,1,1-.448,1-1,1Zm14,0c-.552,0-1-.449-1-1s.448-1,1-1,1,.449,1,1-.448,1-1,1Z"/>
</svg>
