<?xml version="1.0" encoding="UTF-8"?>
<svg xmlns="http://www.w3.org/2000/svg" id="Layer_1" data-name="Layer 1" viewBox="0 0 24 24">
  <path d="m12,0C5.383,0,0,5.383,0,12s5.383,12,12,12,12-5.383,12-12S18.617,0,12,0Zm3.371,7.922c-1.737-1.901-2.746-4.33-2.864-6.909,2.654.121,5.065,1.187,6.905,2.868l-4.041,4.041Zm-.707.707l-2.664,2.664L4.587,3.88c1.843-1.684,4.26-2.75,6.919-2.869.12,2.846,1.233,5.527,3.158,7.617Zm-3.371,3.371l-2.664,2.664c-2.09-1.925-4.771-3.038-7.617-3.157.118-2.659,1.184-5.076,2.869-6.919l7.413,7.413Zm-3.371,3.371l-4.041,4.041c-1.681-1.84-2.747-4.252-2.868-6.905,2.579.118,5.009,1.127,6.909,2.864Zm.707.707c1.737,1.901,2.746,4.33,2.864,6.909-2.654-.121-5.065-1.187-6.905-2.868l4.041-4.041Zm.707-.707l2.664-2.664,7.413,7.413c-1.843,1.684-4.26,2.75-6.919,2.869-.12-2.846-1.233-5.527-3.157-7.617Zm3.371-3.371l2.664-2.664c2.09,1.925,4.771,3.038,7.617,3.157-.118,2.659-1.184,5.076-2.869,6.919l-7.413-7.413Zm3.371-3.371l4.041-4.041c1.681,1.84,2.747,4.252,2.868,6.905-2.579-.118-5.008-1.127-6.909-2.864Z"/>
</svg>
