<svg id="Layer_1" viewBox="0 0 24 24" xmlns="http://www.w3.org/2000/svg" data-name="Layer 1"><path d="m24 9.987v1.362c-.304-.376-.641-.721-1-1.044v-.318c0-.525-.236-1.011-.648-1.333l-9.311-7.295c-.613-.48-1.469-.48-2.082 0l-9.31 7.294c-.413.323-.649.809-.649 1.333v13.013h9.305c.322.359.668.696 1.044 1h-11.349v-14.012c0-.834.376-1.607 1.033-2.121l9.309-7.294c.977-.765 2.34-.765 3.316 0l9.31 7.294c.656.513 1.032 1.286 1.032 2.121zm-5 7.013c0 1.103-.897 2-2 2s-2-.897-2-2 .897-2 2-2 2 .897 2 2zm-1 0c0-.551-.448-1-1-1s-1 .449-1 1 .448 1 1 1 1-.449 1-1zm5.801-2.234-1.94 1.133c.094.384.14.748.14 1.101s-.046.716-.14 1.101l1.94 1.133-1.512 2.591-1.937-1.131c-.536.489-1.166.852-1.853 1.068v2.238h-3v-2.238c-.687-.216-1.316-.579-1.853-1.068l-1.937 1.131-1.512-2.591 1.94-1.133c-.094-.384-.14-.748-.14-1.101s.046-.716.14-1.101l-1.94-1.133 1.512-2.591 1.937 1.13c.537-.488 1.166-.852 1.853-1.067v-2.238h3v2.238c.687.216 1.315.579 1.853 1.067l1.937-1.13zm-1.367-.359-.504-.863-1.747 1.02c-.683-.829-1.629-1.377-2.683-1.544v-2.019h-1v2.019c-1.053.167-2 .715-2.683 1.544l-1.747-1.02-.504.863 1.756 1.025c-.416 1.078-.415 2.058 0 3.136l-1.756 1.025.504.863 1.747-1.02c.683.83 1.629 1.377 2.683 1.544v2.019h1v-2.019c1.053-.167 2-.715 2.683-1.544l1.747 1.02.504-.863-1.756-1.025c.415-1.078.416-2.058 0-3.136z"/></svg>