<svg id="Layer_1" viewBox="0 0 24 24" xmlns="http://www.w3.org/2000/svg" data-name="Layer 1"><path d="m20.669 5.423-6.858-4.571c-1.733-1.155-4.056-.924-5.527.547-1.318 1.318-1.631 3.319-.854 4.966l-4.429 4.429v12.207h-3.001v1h7v-1h-3v-11.793l3.954-3.954 4.355 6.532 2.197-2.197c.451.261.959.412 1.494.412.801 0 1.555-.312 2.121-.879.979-.98 1.127-2.469.466-3.615l2.082-2.083zm-12.101.948c-.891-1.336-.713-3.13.422-4.266.652-.651 1.52-.987 2.394-.987.649 0 1.303.186 1.872.565l5.844 3.896-6.636 6.636zm8.846 4.043c-.564.564-1.44.706-2.163.428l2.599-2.6c.295.723.15 1.586-.436 2.172zm2.94 2.232 2.5 2.5-.707.707-2.5-2.5zm-3.354 1.354h1v3h-1zm7-4v1h-3v-1z"/></svg>