<svg id="Layer_1" viewBox="0 0 24 24" xmlns="http://www.w3.org/2000/svg" data-name="Layer 1"><path d="m23.509 7c-.093 0-1.653-.024-3.142.168l3.62-3.62-3.535-3.535-3.478 3.479c.053-2.204.03-2.61.016-3.492h-4.99v.5c0 4.085-.263 6.834-.337 7.525-1.022 1.001-2.643 2.335-4.354 3.745-2.077 1.711-4.225 3.48-5.746 5.001-1.58 1.581-1.573 2.681-1.563 4.203l.002.602 2.414 2.414c.319 0 .91.009 1.223.011 1.19 0 2.159-.149 3.581-1.571 3.743-3.753 5.846-6.5 8.769-9.621.754-.159 5.114-.888 8.011-.808v-4.992zm-6.592-2.036 3.536-3.537 2.121 2.121-6.104 6.104c.238-1.527.373-3.193.447-4.688zm-10.396 16.735c-1.295 1.311-1.986 1.322-3.338 1.296l-.35-.004-1.831-1.831c-.01-1.497-.076-2.35 1.269-3.681 1.487-1.487 3.616-3.241 5.675-4.937 1.207-.995 2.369-1.952 3.32-2.791-.776 3.066-2.729 9.749-4.745 11.948zm8.09-8.889c-.603.655-1.253 1.402-1.974 2.235-.906 1.046-1.947 2.244-3.17 3.576 1.68-3.933 2.909-9.146 3.13-10.114.068-.308.362-2.779.402-7.507h3.006c.007 1.93-.062 9.018-1.394 11.81zm8.389-1.805c-2.814.058-5.898.581-6.966.777.032-.118.059-.248.089-.371l2.956-2.956c1.118-.373 3.023-.445 3.921-.456v3.005z"/></svg>