<svg id="Layer_1" viewBox="0 0 24 24" xmlns="http://www.w3.org/2000/svg" data-name="Layer 1"><path d="m20 7v-3.035l3.527-1.965-3.59-2h-.938v7h-6.5v-3.035l3.527-1.965-3.588-2h-.938v7h-6.5v-3.035l3.527-1.965-3.589-2h-.938v7h-4v3.5l3 9.081v4.419h8v-3c0-.552.449-1 1-1s1 .448 1 1v3h8v-4.419l2.974-8.923.026-3.658zm0-5.82 1.473.82-1.473.82zm-7.5 0 1.473.82-1.473.82zm-7.5 0 1.473.82-1.473.82zm12.404 6.82-1.076 6h-3.828v-6zm-5.904 6h-3.828l-1.076-6h4.904zm-10.5-6h4.59l1.08 6h-4.487l-1.183-3.581zm19.026 11.342-.026 3.658h-6v-2c0-1.103-.897-2-2-2s-2 .897-2 2v2h-6v-3.5l-1.487-4.5h18.96zm2.974-8.923-1.194 3.581h-4.476l1.08-6h4.59z"/></svg>