<svg id="Layer_1" viewBox="0 0 24 24" xmlns="http://www.w3.org/2000/svg" data-name="Layer 1"><path d="m21.5 0h-19c-1.378 0-2.5 1.122-2.5 2.5v21.5h24v-21.5c0-1.378-1.122-2.5-2.5-2.5zm1.5 2.5v2.5h-17v-4h15.5c.827 0 1.5.673 1.5 1.5zm-6 3.5v5h-5v-5zm-6 5h-5v-5h5zm-5 1h5v5h-5zm0 6h5v5h-5zm6 0h5v5h-5zm0-1v-5h5v5zm6-5h5v5h-5zm0-1v-5h5v5zm-15.5-10h2.5v4h-4v-2.5c0-.827.673-1.5 1.5-1.5zm-1.5 5h4v17h-4zm17 17v-5h5v5zm-11.485-14.221.688-.726.966.917c.037.037.081.038.11.009l1.731-1.682.697.717-1.726 1.677c-.206.206-.478.309-.751.309-.274 0-.55-.104-.759-.314l-.957-.907zm15.495 10.518.697.717-1.726 1.677c-.206.206-.478.309-.751.309-.274 0-.55-.104-.759-.314l-.957-.907.688-.726.966.917c.036.037.081.037.11.009l1.731-1.682zm-5.302-5.283-1.726 1.677c-.206.206-.478.309-.751.309-.274 0-.55-.104-.759-.314l-.957-.907.688-.726.966.917c.037.038.082.037.11.009l1.731-1.682.697.717z"/></svg>