<?xml version="1.0" encoding="UTF-8"?>
<svg xmlns="http://www.w3.org/2000/svg" id="Layer_1" data-name="Layer 1" viewBox="0 0 24 24">
  <path d="M8.5,8c-.692-.022-1.32,.51-1.455,1.196l-1.545,6.804h1.026l.454-2h3.039l.454,2h1.027l-1.557-6.853c-.156-.672-.754-1.147-1.443-1.147Zm-1.293,5l.812-3.578c.085-.553,.835-.549,.95-.046l.822,3.624h-2.585Zm9.793-5h1v5.5c0,1.379-1.121,2.5-2.5,2.5s-2.5-1.121-2.5-2.5v-5.5h1v5.5c0,.827,.673,1.5,1.5,1.5s1.5-.673,1.5-1.5v-5.5Zm4.5-5H2.5c-1.379,0-2.5,1.121-2.5,2.5v15.5H24V5.5c0-1.379-1.121-2.5-2.5-2.5Zm1.5,17H1V5.5c0-.827,.673-1.5,1.5-1.5H21.5c.827,0,1.5,.673,1.5,1.5v14.5Z"/>
</svg>
