<svg id="Layer_1" viewBox="0 0 24 24" xmlns="http://www.w3.org/2000/svg" data-name="Layer 1"><path d="m6 16v-6h-3v6zm-2-5h1v4h-1zm6 5v-10h-3v10zm-2-9h1v8h-1zm3 9h3v-7h-3zm1-6h1v5h-1zm11-5.5v-.227c0-.702-.543-1.273-1.21-1.273h-2.58c-.667 0-1.21.571-1.21 1.273 0 .567.363 1.071.883 1.226l3.519 1.043c.941.279 1.599 1.178 1.599 2.185 0 1.254-.991 2.273-2.21 2.273h-.79v2h-1v-2h-.79c-1.219 0-2.21-1.02-2.21-2.273v-.227h1v.227c0 .702.543 1.273 1.21 1.273h2.58c.667 0 1.21-.571 1.21-1.273 0-.567-.363-1.071-.883-1.226l-3.519-1.043c-.941-.279-1.599-1.178-1.599-2.185 0-1.254.991-2.273 2.21-2.273h.752v-2h1v2h.828c1.219 0 2.21 1.02 2.21 2.273v.227zm0 8.299c.355-.109.691-.256 1-.451v7.652h-11.5v3h5.5v1h-12v-1h5.5v-3h-11.5v-15.5c0-1.379 1.122-2.5 2.5-2.5h13.159c-.192.308-.336.646-.446 1h-12.713c-.827 0-1.5.673-1.5 1.5v14.5h22z"/></svg>