<svg id="Layer_1" viewBox="0 0 24 24" xmlns="http://www.w3.org/2000/svg" data-name="Layer 1"><path d="m18 4c1.103 0 2-.897 2-2s-.897-2-2-2-2 .897-2 2 .897 2 2 2zm0-3c.551 0 1 .448 1 1s-.449 1-1 1-1-.448-1-1 .449-1 1-1zm5.062 7.456c-.588-.587-1.323-.613-1.874-.062l-2.214 2.215c-.529-.521-1.208-1.115-1.99-1.67l1.527-1.587-.388-.346c-1.316-1.173-2.712-1.723-3.422-1.945-.451-.146-.938-.028-1.278.313l-1.562 1.642c-.066-.002-.128-.016-.194-.016-5.11.131-8.54 4.998-8.957 5.5.412.498 3.849 5.372 8.957 5.5.549 0 1.079-.085 1.599-.203l.719.718c.338.338.78.511 1.226.511.354 0 .709-.109 1.016-.331l1.676-1.209-1.217-1.217c.912-.612 1.694-1.292 2.289-1.878l2.214 2.215c.551.551 1.287.523 1.874-.062.819-.818 1.404-2.596.309-4.044 1.096-1.448.51-3.226-.309-4.044zm-8.923-2.384c.066-.066.162-.093.258-.059.566.177 1.611.584 2.661 1.405l-.917.952.053.051c-.928-.565-1.971-1.029-3.094-1.258l1.038-1.091zm-5.791 10.047c-2.136-1.095-3.78-2.908-4.374-3.619.592-.711 2.228-2.517 4.359-3.613.273.641.667 1.862.667 3.613 0 1.714-.378 2.948-.651 3.619zm7.292 1.765c-.293.213-.693.182-.95-.076l-.335-.335c.506-.188.995-.408 1.453-.665l.555.555zm6.715-2.048c-.261.262-.373.15-.46.062l-2.931-2.932-.354.369c-1.312 1.368-3.958 3.663-6.944 3.663-.834 0-1.64-.185-2.401-.475.316-.764.735-2.131.735-4.025 0-1.926-.433-3.28-.751-4.02.766-.292 1.577-.48 2.418-.48 2.985 0 5.632 2.295 6.944 3.663l.354.369 2.931-2.932c.087-.088.199-.199.46.062.467.468 1.116 1.867 0 2.983l-.354.354.354.354c1.116 1.116.467 2.516 0 2.983zm-14.355-11.836c0-.552.448-1 1-1s1 .448 1 1-.448 1-1 1-1-.448-1-1zm-4.707 16.5 2.707-2.707v3.207c0 1.654-1.346 3-3 3s-3-1.346-3-3v-21h1v21c0 1.103.897 2 2 2s2-.897 2-2v-.5z"/></svg>