<svg id="Layer_1" viewBox="0 0 24 24" xmlns="http://www.w3.org/2000/svg" data-name="Layer 1"><path d="m24 0h-24v1.129l2.479 4.464-2.473 15.83-.006 2.577h24l-.006-2.577-2.474-15.83 2.479-4.463v-1.13zm-1 23h-22v-1h22zm-.078-2h-21.838l2.344-15h17.144l2.349 15zm-2.216-16h-17.412l-2.222-4h21.856zm-8.706 2c-4.411 0-8 2.916-8 6.5s3.589 6.5 8 6.5 8-2.916 8-6.5-3.589-6.5-8-6.5zm7 6.5c0 .917-.291 1.781-.798 2.542l-5.083-2.542 5.083-2.542c.507.761.798 1.625.798 2.542zm-1.447-3.336-5.053 2.526v-4.671c2.057.115 3.868.93 5.053 2.145zm-6.053-2.145v4.671l-5.053-2.526c1.185-1.215 2.996-2.03 5.053-2.145zm-5.702 2.938 5.083 2.542-5.083 2.542c-.507-.761-.798-1.625-.798-2.542s.291-1.781.798-2.542zm.649 5.877 5.053-2.526v4.671c-2.057-.115-3.868-.93-5.053-2.145zm6.053 2.145v-4.671l5.053 2.526c-1.185 1.215-2.996 2.029-5.053 2.145z"/></svg>