<svg id="Layer_1" viewBox="0 0 24 24" xmlns="http://www.w3.org/2000/svg" data-name="Layer 1"><path d="m21.119 8.595c-.56-.476-1.304-.68-2.035-.561-.642.104-1.192.48-1.568 1-.455-.624-1.186-1.034-2.016-1.034-.821 0-1.544.403-2 1.015-.456-.612-1.179-1.015-2-1.015-.565 0-1.081.195-1.5.512v-5.899c0-1.273-.896-2.38-2.084-2.573-1.478-.28-2.916.963-2.916 2.466v10.081l-2.327 2.723c-.943 1.106-.878 2.778.15 3.807l4.936 4.884h1.42l-5.648-5.591c-.662-.662-.704-1.738-.097-2.45l3.007-3.521c.584-.582 1.535-.582 2.119.002.594.582.587 1.561-.029 2.153l-2.278 2.71.766.643 2.249-2.678c.262-.262.451-.573.575-.911.442.396 1.02.643 1.659.643.821 0 1.544-.403 2-1.015.456.612 1.179 1.015 2 1.015s1.544-.403 2-1.015c.456.612 1.179 1.015 2 1.015.565 0 1.081-.195 1.5-.512v9.512h1v-13.5c0-.734-.321-1.429-.881-1.905zm-15.119 2.923v-9.012c-.018-.905.859-1.65 1.756-1.479.709.116 1.244.798 1.244 1.587v8.903c-.88-.665-2.095-.671-3 .002zm5.5 2.482c-.827 0-1.5-.673-1.5-1.5v-2c0-.827.673-1.5 1.5-1.5s1.5.673 1.5 1.5v2c0 .827-.673 1.5-1.5 1.5zm4 0c-.827 0-1.5-.673-1.5-1.5v-2c0-.827.673-1.5 1.5-1.5s1.5.673 1.5 1.5v2c0 .827-.673 1.5-1.5 1.5zm4 0c-.827 0-1.5-.673-1.5-1.5v-1.893c0-.789.535-1.471 1.244-1.587.451-.07.886.046 1.227.336.337.286.529.703.529 1.144v2c0 .827-.673 1.5-1.5 1.5zm-5 3h-1v1.5h-2v-1.5h-1v1.5h-1.5v1h1.5v2h-1.5v1h1.5v1.5h1v-1.5h2v1.5h1v-1.5h1.5v-1h-1.5v-2h1.5v-1h-1.5zm-1 4.5h-2v-2h2zm5.611-4.5h.889v7h-1v-5.425l-1.354 1.436-.727-.686z"/></svg>