<svg id="Layer_1" viewBox="0 0 24 24" xmlns="http://www.w3.org/2000/svg" data-name="Layer 1"><path d="m11.999 0c-3.867-.003-6.991 3.132-6.999 6.999h5c.089-.683.347-1.362.973-1.715.49-.294 1.078-.361 1.651-.191.618.185 1.128.709 1.299 1.338.172.632.051 1.281-.333 1.782-.382.5-.961.787-1.59.787h-4.5c-1.381 0-2.5 1.119-2.5 2.5v12.5h14v-16.987c0-3.868-3.134-7.01-7.001-7.013zm6.001 23h-12v-11.5c0-.827.673-1.5 1.5-1.5h4.5c.942 0 1.812-.43 2.384-1.179.574-.75.757-1.717.503-2.652-.263-.97-1.021-1.749-1.978-2.034-.848-.252-1.718-.149-2.451.292-.602.361-1.056.921-1.287 1.574h-3.081c.502-2.966 3.196-5.159 6.264-4.99 3.166.182 5.646 2.923 5.646 6.242v15.748z"/></svg>