<?xml version="1.0" encoding="UTF-8"?>
<svg xmlns="http://www.w3.org/2000/svg" id="Layer_1" data-name="Layer 1" viewBox="0 0 24 24">
  <path d="M21,16.959c-.005-.542-.224-1.046-.607-1.415l-1.659-1.654c.169-.602,.267-1.235,.267-1.891s-.097-1.287-.266-1.889l1.642-1.637c.811-.747,.829-2.105,.038-2.866l-2.021-2.021c-.772-.793-2.109-.769-2.849,.021l-1.654,1.66c-.602-.169-1.234-.266-1.89-.266s-1.287,.097-1.889,.266l-1.638-1.642c-.746-.81-2.105-.83-2.866-.038l-2.021,2.021c-.802,.768-.767,2.109,.021,2.848l1.659,1.654c-.169,.602-.267,1.235-.267,1.891s.097,1.287,.266,1.889l-1.642,1.637c-.811,.747-.829,2.105-.038,2.866l2.021,2.021c.768,.802,2.108,.767,2.849-.021l1.654-1.66c.602,.169,1.234,.266,1.89,.266s1.287-.097,1.889-.266l1.638,1.642c.746,.81,2.105,.83,2.866,.038l2.021-2.021c.395-.395,.603-.907,.586-1.434Zm-4.741-12.653c.366-.392,1.046-.418,1.427-.013l2.021,2.021c.399,.39,.388,1.061-.03,1.445l-1.324,1.32c-.698-1.513-1.918-2.733-3.431-3.431l1.336-1.342ZM4.307,7.741c-.392-.367-.42-1.04-.014-1.426l2.021-2.021c.388-.405,1.061-.387,1.444,.031l1.32,1.324c-1.512,.698-2.732,1.918-3.431,3.43l-1.341-1.337Zm3.435,11.953c-.369,.389-1.041,.429-1.427,.013l-2.021-2.021c-.399-.39-.388-1.061,.03-1.445l1.324-1.32c.698,1.513,1.918,2.733,3.431,3.431l-1.336,1.342Zm-1.741-7.694c0-3.309,2.691-6,6-6s6,2.691,6,6-2.691,6-6,6-6-2.691-6-6Zm13.707,5.686l-2.021,2.021c-.401,.382-1.06,.395-1.444-.031l-1.32-1.324c1.512-.698,2.732-1.918,3.431-3.43l1.341,1.337c.392,.367,.42,1.04,.014,1.426Zm2.043-13.186c1.24,0,2.25-1.009,2.25-2.25s-1.01-2.25-2.25-2.25-2.25,1.009-2.25,2.25,1.01,2.25,2.25,2.25Zm0-3.5c.689,0,1.25,.561,1.25,1.25s-.561,1.25-1.25,1.25-1.25-.561-1.25-1.25,.561-1.25,1.25-1.25ZM2.25,4.5c1.24,0,2.25-1.009,2.25-2.25S3.49,0,2.25,0,0,1.009,0,2.25s1.01,2.25,2.25,2.25Zm0-3.5c.689,0,1.25,.561,1.25,1.25s-.561,1.25-1.25,1.25-1.25-.561-1.25-1.25,.561-1.25,1.25-1.25ZM21.75,19.5c-1.24,0-2.25,1.009-2.25,2.25s1.01,2.25,2.25,2.25,2.25-1.009,2.25-2.25-1.01-2.25-2.25-2.25Zm0,3.5c-.689,0-1.25-.561-1.25-1.25s.561-1.25,1.25-1.25,1.25,.561,1.25,1.25-.561,1.25-1.25,1.25ZM2.25,19.5c-1.24,0-2.25,1.009-2.25,2.25s1.01,2.25,2.25,2.25,2.25-1.009,2.25-2.25-1.01-2.25-2.25-2.25Zm0,3.5c-.689,0-1.25-.561-1.25-1.25s.561-1.25,1.25-1.25,1.25,.561,1.25,1.25-.561,1.25-1.25,1.25Z"/>
</svg>
