<svg id="Layer_1" viewBox="0 0 24 24" xmlns="http://www.w3.org/2000/svg" data-name="Layer 1"><path d="m23 9.392c.345-.347.681-.72 1-1.111v15.719h-24v-17.5c0-1.379 1.122-2.5 2.5-2.5h7.535c.029.338.084.672.172 1h-7.707c-.534 0-1 .282-1.266.703l8.272 8.272c1.322 1.322 3.627 1.322 4.95 0s1.855-1.889 1.855-1.889c.266.177.605.387.858.547l-2.005 2.049c-.849.85-1.98 1.318-3.182 1.318s-2.332-.468-3.182-1.318l-7.8-7.799v16.117h22zm-11-5.842c0-1.957 1.458-3.55 3.25-3.55 1.213 0 2.194.661 2.75 1.745.556-1.084 1.537-1.745 2.75-1.745 1.792 0 3.25 1.593 3.25 3.55-.131 3.651-5.552 6.942-6 7.243-.445-.299-5.871-3.594-6-7.243zm1 0c0 2.258 3.389 4.983 5 6.057 1.611-1.073 5-3.799 5-6.057 0-1.406-1.009-2.55-2.25-2.55-1.346 0-2.25 1.206-2.25 3h-1c0-1.794-.904-3-2.25-3-1.241 0-2.25 1.144-2.25 2.55z"/></svg>