<?xml version="1.0" encoding="UTF-8"?>
<svg xmlns="http://www.w3.org/2000/svg" id="Layer_1" data-name="Layer 1" viewBox="0 0 24 24">
  <path d="M11,7h1c0,1.483-1.084,2.71-2.5,2.949v8.051h1.5v1H5.86c.088,.454,.14,.914,.14,1.378v2.622h5v1H5v-3.622c0-1.787-.782-3.543-2.146-4.816C.684,13.535-.323,10.672,.09,7.708,.645,3.735,3.944,.52,7.936,.062c2.566-.298,5.139,.513,7.051,2.219,1.915,1.707,3.013,4.156,3.013,6.72,0,.336-.023,.669-.06,1h-1.008c.041-.329,.068-.662,.068-1,0-2.278-.976-4.456-2.678-5.973-1.725-1.538-3.951-2.237-6.271-1.972C4.504,1.462,1.573,4.318,1.081,7.847c-.368,2.637,.527,5.183,2.456,6.984,.951,.888,1.651,1.984,2.058,3.169h2.906V9.949c-1.416-.24-2.5-1.466-2.5-2.949h1c0,1.103,.897,2,2,2s2-.897,2-2Zm13,7l-.002,9.41c-.007,.44-.396,.627-.742,.588l-2.985-2.003h-7.271v-7.997c-.023-1.075,.926-2.023,2.001-2h7c1.103,.002,2,.899,2,2.002Zm-1,0c0-.551-.449-1-1-1h-7c-.538-.013-1.012,.461-1,.999v6.997h6.576l2.422,1.625,.002-8.621Z"/>
</svg>
