<svg id="Layer_1" viewBox="0 0 24 24" xmlns="http://www.w3.org/2000/svg" data-name="Layer 1"><path d="m24 14c0-3.691-10.108-9.312-11.261-9.939l-.379-.207c-.933 1.254-3.29 4.055-5.36 4.146-2.979-.136-5.532-2.741-5.793-3l-1.207.002v12.999h2v2h1v-2h3v2h1v-2h6v2h1v-2h3v2h1v-2h3v2h1v-2h2v-4zm-1 3h-22v-10.817c.908.812 3.416 2.816 6 2.816 2.286 0 4.809-2.849 5.63-3.857.775.434 1.783 1.03 2.863 1.717l-1.909 2.864.832.555 1.917-2.875c.905.597 1.831 1.242 2.696 1.903l-1.945 2.917.832.555 1.9-2.851c1.812 1.477 3.184 2.968 3.184 4.073z"/></svg>