<svg id="Layer_1" viewBox="0 0 24 24" xmlns="http://www.w3.org/2000/svg" data-name="Layer 1"><path d="m7.5 9c1.103 0 2-.897 2-2 0-.095 0-.337-1.292-4h3.292v8h-3.5v1h8v-1h-3.5v-8h3.307l-1.307 4c0 1.103.897 2 2 2s2-.897 2-2c0-.1-1.647-5-1.647-5h-4.353v-2h-1v2h-4.36l-1.64 5c0 1.103.897 2 2 2zm10-2h-1.973l.985-2.957c.479 1.374.951 2.766.987 2.957zm-9.987-2.957c.479 1.374.951 2.766.987 2.957h-1.973zm16.487 4.457v13.231c0 .618-.229 1.214-.645 1.676l-.527.593h-1.34l1.125-1.263c.25-.277.387-.635.387-1.006v-13.231c0-.827-.673-1.5-1.5-1.5s-1.5.673-1.5 1.5v9h-.007c0 .57-.19 1.14-.577 1.601l-3.099 3.206-.719-.695 3.075-3.179c.46-.553.428-1.395-.056-1.934-.526-.61-1.518-.663-2.112-.116l-3.858 3.55c.221.379.353.808.353 1.253v2.814h-1v-2.814c0-.418-.177-.821-.484-1.104l-4.026-3.705c-.609-.545-1.558-.494-2.108.12-.494.551-.507 1.394-.032 1.96l3.051 3.153-.719.695-3.074-3.179c-.399-.474-.594-1.053-.598-1.627h-.01v-9c0-.827-.673-1.5-1.5-1.5s-1.5.673-1.5 1.5v13.231c0 .371.137.729.387 1.006l1.125 1.263h-1.34l-.527-.593c-.416-.462-.645-1.058-.645-1.676v-13.231c0-1.378 1.122-2.5 2.5-2.5s2.5 1.122 2.5 2.5v6.999c.933-.699 2.261-.669 3.162.137l3.838 3.532 3.833-3.528c.857-.799 2.25-.851 3.167-.144v-6.997c0-1.378 1.121-2.5 2.5-2.5s2.5 1.122 2.5 2.5z"/></svg>