<?xml version="1.0" encoding="UTF-8"?>
<svg xmlns="http://www.w3.org/2000/svg" id="Layer_1" data-name="Layer 1" viewBox="0 0 24 24">
  <path d="M13,15h-2c-.555,0-1.86,.213-1.998,2.183l-.03,.432c.993,.234,2.084,.391,3.028,.385,.944,.006,2.036-.152,3.028-.385l-.03-.432c-.138-1.97-1.443-2.183-1.998-2.183Zm-2.938,1.819c.169-.724,.604-.819,.938-.819h2c.334,0,.769,.095,.938,.819-1.333,.238-2.544,.238-3.877,0Zm4.938-4.819c-.552,0-1-.448-1-1s.448-1,1-1,1,.448,1,1-.448,1-1,1Zm6.385-3.964C20.674,3.426,16.71,0,12,0,6.725,0,3.07,3.568,2.221,9.558l-.275,2.377c.546,.061,.446,.084,1.265,.095,.984,0,2.8-.143,4.803-.96,.038,.518,.458,.93,.986,.93,.552,0,1-.448,1-1,0-.3-.139-.561-.348-.744,1.927-1.143,3.87-3.003,5.301-6.043l-.905-.426c-3.273,6.956-9.222,7.309-10.991,7.25l.156-1.352C3.995,4.166,7.198,1,12,1c4.34,0,7.971,3.25,8.445,7.561l.095,.451,.459-.012c1.103,0,2,.897,2,2s-.897,2-2,2h-1.385l-.098,.373c-.272,1.031-1.566,1.831-2.728,2.394-.467-1.819-1.959-2.767-3.336-2.767h-2.906c-1.375,0-2.865,.945-3.334,2.761-1.342-.635-2.01-1.352-2.828-1.838-.239,.062-.755,.111-1.004,.123,.63,3.159,2.097,5.666,4.62,7.387v2.566h1v-1.921c.904,.468,1.945,1.126,3.091,1.345,1.077-.4,2.061-.84,2.909-1.305v1.881h1v-2.474c2.402-1.573,3.723-3.568,4.398-6.436l.198-1.089h.404c1.654,0,3-1.346,3-3,0-1.506-1.115-2.756-2.615-2.964Zm-9.399,14.358c-3.932-1.507-6.146-3.626-7.21-6.957,.636,.507,2.088,1.326,3.237,1.792l.072-.685c.212-2.013,1.703-2.545,2.462-2.545h2.906c.759,0,2.25,.532,2.462,2.545l.072,.685c1.127-.497,2.35-1.032,3.302-1.85-.941,3.421-2.976,5.365-7.303,7.015Z"/>
</svg>
