<svg id="Layer_1" viewBox="0 0 24 24" xmlns="http://www.w3.org/2000/svg" data-name="Layer 1"><path d="m10 4h1v7h-6v-1h5zm9.5 20h4.495l-6.995-11.992-6.995 11.992h4.495v-1h-2.755l5.255-9.008 5.255 9.008h-2.755zm-2-7h-1v4h1zm-.5 5c-.552 0-1 .448-1 1s.448 1 1 1 1-.448 1-1-.448-1-1-1zm-10.774-3.014c-3.224-1.627-5.226-4.878-5.226-8.486 0-5.238 4.262-9.5 9.5-9.5s9.5 4.262 9.5 9.5c0 .764-.1 1.503-.272 2.216l.694 1.189c.368-1.07.578-2.212.578-3.405 0-5.79-4.71-10.5-10.5-10.5s-10.5 4.71-10.5 10.5c0 3.987 2.213 7.581 5.774 9.379 1.167.589 2.409.938 3.699 1.062l.564-.968c-1.335-.063-2.617-.384-3.812-.987z"/></svg>