<svg id="Layer_1" viewBox="0 0 24 24" xmlns="http://www.w3.org/2000/svg" data-name="Layer 1"><path d="m23 1.047c0 1.622-.619 3.096-1.79 4.262-1.787 1.781-4.671 2.738-8.21 2.738h-1v-1h-1v1h-3v-1h-1v1h-2.509c-2.417-.049-4.541 2.089-4.491 4.505 0 2.479 2.017 4.495 4.496 4.495h2.505v2h-4.416l-2.585-.905v4.811l2.585-.905h12.415c2.206 0 4-1.794 4-4s-1.794-4-4-4h-3v-3h1.077c3.473 0 6.358.971 8.133 2.738 1.171 1.166 1.79 2.64 1.79 4.262h1v-17.001zm-15 16h3v2h-3zm7 0c.552 0 1 .448 1 1s-.448 1-1 1h-3v-2zm-13 4.146-1 .35v-1.99l1 .35v1.291zm9-7.146h-3v-3h3zm-6.502 0c-.826 0-1.498-.672-1.498-1.498 0-.403.157-.781.442-1.066.282-.281.655-.436 1.054-.436h2.504v3zm17.418-.971c-1.978-1.969-5.153-3.04-8.916-3.029h-8.505c-1.342-.027-2.522 1.16-2.494 2.502 0 1.377 1.121 2.498 2.498 2.498h10.501c1.654 0 3 1.346 3 3s-1.346 3-3 3h-12v-1h12c1.103 0 2-.897 2-2s-.897-2-2-2h-10.504c-1.927 0-3.495-1.568-3.495-3.495-.039-1.878 1.611-3.544 3.492-3.505h8.585c3.739 0 6.876-1.074 8.839-3.029.428-.427.785-.892 1.084-1.384v9.827c-.299-.492-.656-.958-1.084-1.384z"/></svg>