<svg id="Layer_1" viewBox="0 0 24 24" xmlns="http://www.w3.org/2000/svg" data-name="Layer 1"><path d="m23.928 16.759-1.889-4.756 1.862-4.583-4.354-1.28.57-4.655-5.006 2.874-3.111-3.674-3.112 3.674-5.006-2.874.567 4.632-4.381 1.042 1.895 4.84-1.836 4.639 4.325 1.227-.57 4.65 5.006-2.874 3.112 3.674 3.112-3.674 4.991 2.866-.555-5.084 4.379-.664zm-9.04 1.6-2.888 3.409-2.888-3.409-3.994 2.293.43-3.517-4.085-1.158 1.574-3.977-1.619-4.134 4.133-.983-.433-3.535 3.994 2.293 2.888-3.409 2.888 3.409 3.994-2.293-.43 3.513 4.107 1.207-1.599 3.93 1.572 3.961-4.082.619.445 4.083-4.009-2.301zm-8.888-10.359h-2v8h1v-3h1c1.379 0 2.5-1.122 2.5-2.5s-1.121-2.5-2.5-2.5zm0 4h-1v-3h1c.827 0 1.5.673 1.5 1.5s-.673 1.5-1.5 1.5zm14-1.5c0-1.378-1.121-2.5-2.5-2.5h-2v8h1v-3h1c1.379 0 2.5-1.122 2.5-2.5zm-2.5 1.5h-1v-3h1c.827 0 1.5.673 1.5 1.5s-.673 1.5-1.5 1.5zm-5.5-4c-1.379 0-2.5 1.122-2.5 2.5v3c0 1.378 1.121 2.5 2.5 2.5s2.5-1.122 2.5-2.5v-3c0-1.378-1.121-2.5-2.5-2.5zm1.5 5.5c0 .827-.673 1.5-1.5 1.5s-1.5-.673-1.5-1.5v-3c0-.827.673-1.5 1.5-1.5s1.5.673 1.5 1.5z"/></svg>