<svg id="Layer_1" viewBox="0 0 24 24" xmlns="http://www.w3.org/2000/svg" data-name="Layer 1"><path d="m5.99 3.49-.707-.707c1.794-1.795 4.179-2.783 6.717-2.783s4.924.988 6.718 2.783l-.707.707c-1.605-1.605-3.74-2.49-6.011-2.49s-4.405.884-6.01 2.49zm9.899 2.121c-1.038-1.039-2.42-1.611-3.889-1.611s-2.851.572-3.889 1.611l.707.707c.85-.85 1.98-1.318 3.182-1.318s2.332.468 3.182 1.318zm8.111 7.889v10.5h-24v-10.5c0-1.378 1.122-2.5 2.5-2.5h19c1.379 0 2.5 1.122 2.5 2.5zm-1 0c0-.827-.673-1.5-1.5-1.5h-19c-.827 0-1.5.673-1.5 1.5v9.5h22zm-9.453 1.746-1.547 1.547-1.547-1.547-.707.707 1.547 1.547-1.547 1.547.707.707 1.547-1.547 1.547 1.547.707-.707-1.547-1.547 1.547-1.547zm-6.102 0-1.547 1.547-1.547-1.547-.707.707 1.547 1.547-1.547 1.547.707.707 1.547-1.547 1.547 1.547.707-.707-1.547-1.547 1.547-1.547zm12.204 0-1.546 1.547-1.546-1.547-.707.707 1.546 1.547-1.546 1.547.707.707 1.546-1.547 1.546 1.547.707-.707-1.546-1.547 1.546-1.547zm-8.648-6.246c0 .552.448 1 1 1s1-.448 1-1-.448-1-1-1-1 .448-1 1z"/></svg>