<svg id="Layer_1" viewBox="0 0 24 24" xmlns="http://www.w3.org/2000/svg" data-name="Layer 1"><path d="m23.969 23.259-4.818-4.821 3.758-3.758-9.868-3.589c-.562-.2-1.173-.063-1.591.354-.42.42-.555 1.029-.352 1.589l3.589 9.869 3.757-3.758 4.818 4.821zm-11.932-10.566c-.072-.199-.03-.392.119-.541.15-.15.351-.192.544-.121l8.392 3.052-6.003 6.002-3.052-8.393zm-5.037-5.693c0 1.654 1.346 3 3 3s3-1.346 3-3-1.346-3-3-3-3 1.346-3 3zm5 0c0 1.103-.897 2-2 2s-2-.897-2-2 .897-2 2-2 2 .897 2 2zm-.889 11.924.348.957c-.478.07-.963.119-1.46.119-5.513 0-9.999-4.486-9.999-10s4.486-10 10-10 10 4.486 10 10c0 .494-.048.976-.118 1.451l-.957-.348c.045-.362.075-.729.075-1.103 0-4.962-4.037-9-9-9s-9 4.038-9 9c0 2.656 1.164 5.04 3 6.689v-1.689c0-1.654 1.346-3 3-3h2.047c-.048.329-.049.664 0 1h-2.046c-1.103 0-2 .897-2 2v2.478c1.431.96 3.151 1.522 5 1.522.377 0 .746-.031 1.111-.076z"/></svg>