<?xml version="1.0" encoding="UTF-8"?>
<svg xmlns="http://www.w3.org/2000/svg" id="Layer_1" data-name="Layer 1" viewBox="0 0 24 24">
  <path d="M21.5,2H2.5C1.122,2,0,3.122,0,4.5V22H24V4.5c0-1.378-1.122-2.5-2.5-2.5Zm1.5,19H1V4.5c0-.827,.673-1.5,1.5-1.5H21.5c.827,0,1.5,.673,1.5,1.5V21ZM1.307,11.998l10.693,8.129,10.613-8.031L12.003,3.87,1.307,11.998Zm10.694,6.875L2.959,11.998,11.997,5.13l8.971,6.956-8.967,6.786Zm-4-6.873c0,2.206,1.794,4,4,4s4-1.794,4-4-1.794-4-4-4-4,1.794-4,4Zm4,3c-1.654,0-3-1.346-3-3,0-.219,.026-.431,.071-.636,.863,.077,3.377,.463,5.4,2.331-.541,.787-1.446,1.305-2.472,1.305Zm0-6c1.654,0,3,1.346,3,3,0,.254-.041,.497-.101,.733-1.985-1.697-4.308-2.188-5.429-2.33,.532-.84,1.464-1.403,2.53-1.403Z"/>
</svg>
