<svg id="Layer_1" viewBox="0 0 24 24" xmlns="http://www.w3.org/2000/svg" data-name="Layer 1"><path d="m7 12-1.5 1-1-.5-1.5.5v-1.755l2-1.245h1zm-2-7v-2l2-2v-1h-2l-1 1v1.5l-1 1 1 1.5zm16 15v1.5l-2.5.5h-4.218l-.5 1h-1.782l-1 1h-2l-2-1v-1h1.544l.695-1 1.97.004-1.496-1.682-1.713-.322v-1l1.5-1-.5-1v-1h3v-1l-1-1.5v-1.5h-2.5l-1.5-2v-1h-1v-2l1.128-1-1.128-1 .854-1.4 1.146-.6.5-1 2.228-1h1.272v1.027l-2 1.25v.723h5v1.333l-2.769 1.846.802.768-1.533 1.053h3l.634 2.047.619.417.401.98.833.479 1.513 4.077h1.5l.993 1.53-1.326 1.855zm-9.419 2.005-1.82-.004-.65.937.125.062h1.35zm8.419-1.365-1.849-.854 1.631-2.284-.326-.502h-1.652l-1.629-4.391-.817-.47-.416-1.016-.659-.444-.521-1.68h-3.763v-1.183l1.453-.998-.815-.779 3.06-2.04h-4.698v-1.764l-.25.5-1.187.622-.274.449 1.347 1.193-1.636 1.45v.55h1v1.667l1 1.333h3v2.197l1 1.5v2.303h-2.882l.671 1.343-1.362.908.807.151 3.027 3.405.403-.807h4.786l1.55-.36z"/></svg>