<svg id="Layer_1" viewBox="0 0 24 24" xmlns="http://www.w3.org/2000/svg" data-name="Layer 1"><path d="m.05 21.5c0 1.379 1.122 2.5 2.5 2.5h21.157l-23.657-23.657zm1-18.743 20.243 20.243h-18.743c-.827 0-1.5-.673-1.5-1.5zm20.533 12.243 2.427-3.821-3.004-4.179h-3.154l-2.852 2.921v2.595l2.425 2.484zm-5.583-4.671 2.272-2.329h2.221l2.31 3.213-1.77 2.787h-3.188l-1.846-1.891v-1.78zm-3.841-4.329 1.799-2.832-2.278-3.168h-2.484l-2.196 2.25v1.875l1.83 1.875zm-4.159-3.343 1.617-1.657h1.55l1.583 2.203-1.142 1.797h-2.358l-1.251-1.282v-1.061zm12.439 1.343 1.198-1.888-1.518-2.112h-1.657l-1.463 1.5v1.25l1.22 1.25h2.219zm-2.439-2.093.885-.907h.722l.824 1.146-.542.854h-1.249l-.641-.657v-.436z"/></svg>