<?xml version="1.0" encoding="UTF-8"?>
<svg xmlns="http://www.w3.org/2000/svg" id="Layer_1" data-name="Layer 1" viewBox="0 0 24 24">
  <path d="M7.5,3c-1.379,0-2.5,1.122-2.5,2.5s1.121,2.5,2.5,2.5,2.5-1.122,2.5-2.5-1.121-2.5-2.5-2.5Zm0,4c-.827,0-1.5-.673-1.5-1.5s.673-1.5,1.5-1.5,1.5,.673,1.5,1.5-.673,1.5-1.5,1.5ZM21.5,0H2.5C1.121,0,0,1.122,0,2.5V21H11.846l1.329,3h1.094l-3.1-7h7.659l2.943,3h-7.087l.443,1h8.872V2.5c0-1.378-1.121-2.5-2.5-2.5ZM8.316,10.558c.138-.102,.279-.201,.432-.283l2.138-1.14,3.062,6.865h-3.222l-2.41-5.442Zm6.728,5.442l-3.272-7.337,3.265-1.741,2.464-3.922h-1.212l-1.939,3.155-6.071,3.238c-.957,.511-1.698,1.351-2.087,2.365l-2.383,6.242h1.07l2.247-5.885c.108-.284,.263-.542,.438-.785l3.84,8.669H1V2.5c0-.827,.673-1.5,1.5-1.5H21.5c.827,0,1.5,.673,1.5,1.5V19.825l-3.752-3.825h-4.204Z"/>
</svg>
