<?xml version="1.0" encoding="UTF-8"?>
<svg xmlns="http://www.w3.org/2000/svg" id="Layer_1" data-name="Layer 1" viewBox="0 0 24 24">
  <path d="M6,14c2.206,0,4-1.794,4-4s-1.794-4-4-4-4,1.794-4,4,1.794,4,4,4Zm0-7c1.654,0,3,1.346,3,3s-1.346,3-3,3-3-1.346-3-3,1.346-3,3-3Zm6,12v5h-1v-5c0-1.103-.897-2-2-2H3c-1.103,0-2,.897-2,2v5H0v-5c0-1.654,1.346-3,3-3h6c1.654,0,3,1.346,3,3ZM20.5,4.5c0,.939-.519,1.791-1.354,2.223-.404,.208-.646,.559-.646,.937v.34h-1v-.34c0-.76,.444-1.442,1.187-1.826,.502-.259,.813-.77,.813-1.334,0-.827-.673-1.5-1.5-1.5s-1.5,.673-1.5,1.5h-1c0-1.378,1.122-2.5,2.5-2.5s2.5,1.122,2.5,2.5Zm-1.5,5.5c0,.552-.448,1-1,1s-1-.448-1-1,.448-1,1-1,1,.448,1,1ZM24,2V11h-3.711c.134-.307,.211-.644,.211-1h2.5V2c.011-.537-.463-1.011-1-1l-8,.002c-.551,0-1,.449-1,1.001V11.861c.012,.129,.123,.182,.23,.113l2.292-1.759c.032,.369,.141,.712,.316,1.018l-1.999,1.534c-.348,.268-.81,.311-1.2,.119-.393-.194-.637-.586-.637-1.024V2.003C12,.9,12.897,.002,14,.002l8-.002c1.075-.023,2.022,.925,2,2Z"/>
</svg>
