<?xml version="1.0" encoding="UTF-8"?>
<svg xmlns="http://www.w3.org/2000/svg" id="Outline" viewBox="0 0 24 24">
  <path d="m19,7v-.5c0-2.481-2.019-4.5-4.5-4.5h-2V0h-1v2h-1.545c-2.732,0-4.955,2.223-4.955,4.955,0,2.321,1.58,4.307,3.842,4.829l2.658.614v8.602h-2c-1.93,0-3.5-1.57-3.5-3.5v-.5h-1v.5c0,2.481,2.019,4.5,4.5,4.5h2v2h1v-2h1.545c2.732,0,4.955-2.223,4.955-4.955,0-2.321-1.58-4.307-3.842-4.829l-2.658-.614V3h2c1.93,0,3.5,1.57,3.5,3.5v.5h1Zm-4.066,6.19c1.806.417,3.066,2.002,3.066,3.854,0,2.181-1.774,3.955-3.955,3.955h-1.545v-8.371l2.434.562Zm-3.434-1.819l-2.434-.562c-1.806-.417-3.066-2.002-3.066-3.854,0-2.181,1.774-3.955,3.955-3.955h1.545v8.371Z"/>
</svg>
