<?xml version="1.0" encoding="UTF-8"?>
<svg xmlns="http://www.w3.org/2000/svg" id="Layer_1" data-name="Layer 1" viewBox="0 0 24 24">
  <path d="M19,20.5h-1v-2h1v2Zm3-5.5h2v6.5c0,1.379-1.121,2.5-2.5,2.5h-6c-1.379,0-2.5-1.121-2.5-2.5v-6.5h2v-1.5c0-1.93,1.57-3.5,3.5-3.5s3.5,1.57,3.5,3.5v1.5Zm-6,0h5v-1.5c0-1.379-1.121-2.5-2.5-2.5s-2.5,1.121-2.5,2.5v1.5Zm7,1H14v5.5c0,.827,.673,1.5,1.5,1.5h6c.827,0,1.5-.673,1.5-1.5v-5.5Zm-1.5-13H2.5c-1.378,0-2.5,1.121-2.5,2.5v10.5H11v-1H1V5.5c0-.827,.673-1.5,1.5-1.5H21.5c.827,0,1.5,.673,1.5,1.5v5.5h1V5.5c0-1.379-1.121-2.5-2.5-2.5ZM9.954,11.754l1.547-1.547,1.547,1.547,.707-.707-1.547-1.547,1.547-1.547-.707-.707-1.547,1.547-1.547-1.547-.707,.707,1.547,1.547-1.547,1.547,.707,.707Zm-3.009-4.508l-1.547,1.547-1.547-1.547-.707,.707,1.547,1.547-1.547,1.547,.707,.707,1.547-1.547,1.547,1.547,.707-.707-1.547-1.547,1.547-1.547-.707-.707Z"/>
</svg>
