<?xml version="1.0" encoding="UTF-8"?>
<svg xmlns="http://www.w3.org/2000/svg" id="Layer_1" data-name="Layer 1" viewBox="0 0 24 24">
  <path d="M23.181,9.655c-.984-.923-2.66-.854-3.548,.166l-3.732,4.102c-.314-1.108-1.335-1.922-2.543-1.922H2.5c-1.379,0-2.5,1.122-2.5,2.5v7c0,1.378,1.121,2.5,2.5,2.5H13.725l9.638-10.818c.912-1.021,.831-2.604-.182-3.527Zm-.564,2.862l-9.341,10.483H2.5c-.827,0-1.5-.673-1.5-1.5v-7c0-.827,.673-1.5,1.5-1.5H13.357c.905,0,1.643,.737,1.643,1.642,0,.812-.606,1.511-1.403,1.625l-5.661,.737,.129,.991,5.668-.738c1.021-.146,1.844-.878,2.145-1.824l4.496-4.94c.533-.612,1.545-.657,2.134-.1,.609,.555,.658,1.507,.109,2.123ZM3,2.5c0-.827,.673-1.5,1.5-1.5h5.5V5h4v5h1V3.793L11.207,0H4.5c-1.379,0-2.5,1.122-2.5,2.5v7.5h1V2.5Zm10.793,1.5h-2.793V1.207l2.793,2.793Z"/>
</svg>
