<?xml version="1.0" encoding="UTF-8"?>
<svg xmlns="http://www.w3.org/2000/svg" id="Layer_1" data-name="Layer 1" viewBox="0 0 24 24">
  <path d="M17.649,8.567l-.649-.68v-1.887c0-1.103-.897-2-2-2h-1.266c.159-.822,.266-1.607,.266-2,0-1.103-.897-2-2-2s-2,.897-2,2c0,.393,.107,1.178,.266,2h-1.266c-1.103,0-2,.897-2,2v1.835l-.699,.746c-1.484,1.582-2.301,3.647-2.301,5.815v9.604H20V14.436c0-2.196-.835-4.28-2.351-5.869ZM11,2c0-.551,.449-1,1-1s1,.449,1,1c0,.316-.105,1.113-.285,2h-1.431c-.18-.887-.285-1.684-.285-2Zm-3,4c0-.551,.449-1,1-1h6c.551,0,1,.449,1,1v1H8v-1Zm11,17H5v-2h4v-1H5v-2h4v-1H5v-2h4v-1h-3.981c.093-1.767,.793-3.436,2.012-4.735l1.187-1.265h7.509l1.2,1.257c1.337,1.402,2.074,3.241,2.074,5.178v8.564Z"/>
</svg>
