<svg id="Layer_1" viewBox="0 0 24 24" xmlns="http://www.w3.org/2000/svg" data-name="Layer 1"><path d="m22 11c0-1.525-.336-2.99-1-4.355l.899-.438c.73 1.503 1.1 3.115 1.1 4.793 0 .926-.005 2.357-.163 4.069-.168-.748-.466-1.446-.867-2.072.029-.798.031-1.48.031-1.997zm-8.063-.473c.303-.13.62-.232.944-.315-.349-1.27-1.502-2.211-2.882-2.211-1.654 0-3 1.346-3 3 0 2.788 0 7.978-3.988 10.371l.515.857c4.473-2.685 4.473-8.242 4.473-11.229 0-1.103.897-2 2-2 .939 0 1.723.653 1.937 1.527zm8.961 13.079-3.605-3.605c-.77.616-1.733 1-2.793 1-2.481 0-4.5-2.019-4.5-4.5s2.019-4.5 4.5-4.5 4.5 2.019 4.5 4.5c0 1.06-.384 2.023-1 2.793l3.605 3.605zm-2.898-7.105c0-1.93-1.57-3.5-3.5-3.5s-3.5 1.57-3.5 3.5 1.57 3.5 3.5 3.5 3.5-1.57 3.5-3.5zm-7.955-12.499c-.015 0-.03-.002-.045-.002 0 0-.033 0-.082.009-1.899.047-3.708.873-4.983 2.295l.745.668c1.11-1.239 2.694-1.953 4.351-1.969 3.01.016 5.496 2.258 5.904 5.161.358.081.706.189 1.039.326-.261-3.593-3.24-6.442-6.889-6.486v-.004c-.014 0-.027.002-.041.002zm-5.968 6.082-.986-.168c-.06.354-.09.719-.09 1.084 0 7.614-4.165 8-5 8v1c1.002 0 6-.434 6-9 0-.309.026-.617.077-.916zm-4.077.916c0-5.514 4.486-10 10-10 2.182 0 4.256.693 6 2.005l.602-.799c-1.918-1.443-4.201-2.206-6.601-2.206-6.066 0-11.001 4.935-11.001 11v3h1z"/></svg>