<svg id="Layer_1" viewBox="0 0 24 24" xmlns="http://www.w3.org/2000/svg" data-name="Layer 1"><path d="m14.707 0h-10.207c-1.379 0-2.5 1.122-2.5 2.5v21.5h20v-1h-19v-20.5c0-.827.673-1.5 1.5-1.5h9.5v7h7v3h1v-3.707zm.293 1.707 5.293 5.293h-5.293zm-8 12.293v2.5h3v1h-3v3.5h-1v-8h4v1zm6.25-1h-2.25v8h2.75c1.24 0 2.25-1.009 2.25-2.25 0-.831-.452-1.557-1.123-1.947.386-.404.623-.951.623-1.553 0-1.241-1.01-2.25-2.25-2.25zm-1.25 1h1.25c.689 0 1.25.561 1.25 1.25s-.561 1.25-1.25 1.25h-1.25zm3 4.75c0 .689-.561 1.25-1.25 1.25h-1.75v-2.5h1.75c.689 0 1.25.561 1.25 1.25zm7-5.75-2.206 4.008 2.206 3.992h-1.096l-1.654-3.005-1.654 3.005h-1.096l2.206-3.992-2.206-4.008h1.079l1.671 3.024 1.671-3.024z"/></svg>