<svg id="Layer_1" viewBox="0 0 24 24" xmlns="http://www.w3.org/2000/svg" data-name="Layer 1"><path d="m22 15v-1.5c0-1.93-1.57-3.5-3.5-3.5s-3.5 1.57-3.5 3.5v1.5h-2v6.5c0 1.378 1.122 2.5 2.5 2.5h6c1.378 0 2.5-1.122 2.5-2.5v-6.5zm-6-1.5c0-1.378 1.122-2.5 2.5-2.5s2.5 1.122 2.5 2.5v1.5h-5zm7 8c0 .827-.673 1.5-1.5 1.5h-6c-.827 0-1.5-.673-1.5-1.5v-5.5h9zm-4-1h-1v-2h1zm-18 2.5v-14.5c0-.827.673-1.5 1.5-1.5h4.382l4 2h4.462c.764-.537 1.675-.868 2.656-.957v-4.245l-3.659-3.798h-7.712c-1.474 0-2.628 1.098-2.628 2.5v3.5h-1.5c-1.378 0-2.5 1.122-2.5 2.5v15.5h11.76c-.205-.307-.359-.646-.484-1zm15.806-19h-2.806v-2.913zm-11.806-1.5c0-.855.7-1.5 1.628-1.5h6.372v4h4v3h-5.882l-4-2h-2.118z"/></svg>