<svg id="Layer_1" viewBox="0 0 24 24" xmlns="http://www.w3.org/2000/svg" data-name="Layer 1"><path d="m10.954 0h-.61l3.63 18.1 10.006-2.234v-.4c-.001-9.391-9.677-15.466-13.026-15.466zm3.799 16.9-3.172-15.82c3.111.693 11.137 5.823 11.393 13.985zm-12.753-10.9c1.103 0 2-.897 2-2s-.897-2-2-2-2 .897-2 2 .897 2 2 2zm0-3c.551 0 1 .448 1 1s-.449 1-1 1-1-.448-1-1 .449-1 1-1zm-1.469 9.313c.211 1.113.919 2.425 2.291 2.77l4.604.969.767 4.041.982-.186-.891-4.697-3.065-.645-1.147-6.051 2.503.898 3.957-.751-.187-.982-3.689.7-2.854-1.027c-.677-.265-1.246-.461-1.972-.32-1.242.212-2.043 1.486-1.786 2.712l.487 2.57zm.676-3.759c.182-.283.47-.476.81-.54.329-.062.613-.011.963.103l1.181 6.226-1.113-.234c-.896-.225-1.386-1.208-1.533-1.981l-.487-2.569c-.068-.359-.004-.716.18-1.004zm22.399 14.235.371.93c-.47.187-.966.281-1.478.281-1.504 0-2.817-.835-3.5-2.064-.683 1.229-1.996 2.064-3.5 2.064s-2.817-.835-3.5-2.064c-.683 1.229-1.996 2.064-3.5 2.064s-2.817-.835-3.5-2.064c-.683 1.229-1.996 2.064-3.5 2.064-.511 0-1.008-.095-1.477-.281l.37-.93c.351.14.724.211 1.107.211 1.654 0 3-1.346 3-3h1c0 1.654 1.346 3 3 3s3-1.346 3-3h1c0 1.654 1.346 3 3 3s3-1.346 3-3h1c0 1.654 1.346 3 3 3 .384 0 .756-.071 1.106-.211z"/></svg>