<?xml version="1.0" encoding="UTF-8"?>
<svg xmlns="http://www.w3.org/2000/svg" id="Layer_1" data-name="Layer 1" viewBox="0 0 24 24">
  <path d="M21.385,8.036C20.674,3.426,16.711,0,12,0,6.725,0,3.069,3.568,2.221,9.558l-.274,2.377c.546,.061,.446,.084,1.265,.095,.984,0,2.8-.143,4.803-.96,.038,.518,.458,.93,.986,.93,.552,0,1-.448,1-1,0-.3-.139-.561-.348-.744,1.927-1.143,3.87-3.003,5.3-6.043l-.904-.426c-3.272,6.955-9.216,7.315-10.991,7.25l.156-1.352C3.995,4.166,7.198,1,12,1c4.341,0,7.972,3.25,8.445,7.561l.096,.451,.459-.012c1.103,0,2,.897,2,2s-.897,2-2,2h-1.293l-.119,.331c-.349,.969-.96,1.928-1.758,2.797-.573-.536-.982-1.017-1.708-1.566h0c-.957-.724-1.848-1.062-2.803-1.062-.601,0-1.039,.179-1.319,.346-.28-.167-.719-.346-1.319-.346-.955,0-1.846,.337-2.803,1.062-.726,.55-1.136,1.032-1.709,1.568-.628-.685-1.135-1.426-1.493-2.187-.405,.044-.767,.07-1.067,.079,.394,.948,1.002,1.872,1.764,2.715-.526,.367-1.649,.591-2.369,.734l.747,.657c.063,.056,1.59,1.372,4.248,1.372v4.5h1v-4.622c.012-.003,.024-.004,.036-.007,.989,.412,1.984,.631,2.964,.631s1.975-.219,2.964-.631c.012,.003,.024,.004,.036,.007v4.622h1v-4.5c2.658,0,4.185-1.316,4.248-1.372l.747-.657c-.722-.144-1.841-.366-2.368-.734,.769-.851,1.381-1.783,1.775-2.737h.599c1.654,0,3-1.346,3-3,0-1.506-1.115-2.756-2.615-2.964Zm-10.952,10.755c.591-.353,1.129-.82,1.567-1.389,.438,.569,.977,1.036,1.567,1.389-1.047,.268-2.087,.268-3.134,0Zm5.567-.291c-1.39,0-2.789-.882-3.565-2.247l-.435-.765-.435,.765c-.776,1.365-2.176,2.247-3.565,2.247-1.181,0-2.104-.303-2.717-.595,.92-.386,1.466-.931,2.036-1.499,.342-.341,.695-.694,1.162-1.047,.785-.594,1.463-.859,2.199-.859,.633,0,.947,.305,.954,.311l.358,.368,.365-.362c.014-.013,.328-.317,.961-.317,.736,0,1.414,.265,2.199,.858,.467,.354,.82,.707,1.162,1.048,.57,.568,1.116,1.113,2.036,1.499-.613,.292-1.536,.595-2.717,.595Zm-1-6.5c-.552,0-1-.448-1-1s.448-1,1-1,1,.448,1,1-.448,1-1,1Z"/>
</svg>
