<?xml version="1.0" encoding="UTF-8"?>
<svg xmlns="http://www.w3.org/2000/svg" id="Layer_1" data-name="Layer 1" viewBox="0 0 24 24">
  <path d="M11.085,4h0c3.151,0,5.812,2.123,6.642,5.011-.076-.002-.151-.011-.227-.011-.281,0-.558,.015-.832,.042-.788-2.341-2.98-4.042-5.583-4.042-1.676,0-3.282,.719-4.404,1.972l-.745-.667c1.312-1.465,3.189-2.304,5.149-2.305,0,0,0,0,0,0h0Zm-6.009,6.083l-.986-.167c-.06,.354-.09,.719-.09,1.083,0,7.423-3.062,8-4,8v1c1.173,0,5-.649,5-9,0-.309,.026-.617,.077-.917Zm-4.077,.917C1,5.486,5.486,1,11,1c2.182,0,4.256,.693,6,2.005l.602-.799C15.683,.763,13.4,0,11,0,4.935,0,0,4.935,0,11v3H1v-3Zm23,6.5c0,3.584-2.916,6.5-6.5,6.5s-6.5-2.916-6.5-6.5,2.916-6.5,6.5-6.5,6.5,2.916,6.5,6.5Zm-1,0c0-3.032-2.467-5.5-5.5-5.5s-5.5,2.468-5.5,5.5,2.467,5.5,5.5,5.5,5.5-2.468,5.5-5.5Zm-8.5,.5h6v-1h-6v1Zm-1.612-7.633c.284-.184,.581-.348,.887-.498-.448-1.094-1.521-1.869-2.775-1.869-1.654,0-3,1.346-3,3,0,5.651-1.432,9.376-4.257,11.071l.515,.857c3.147-1.889,4.743-5.902,4.743-11.929,0-1.103,.897-2,2-2,.88,0,1.621,.575,1.888,1.367Zm8.024-.649c.364,.16,.713,.349,1.048,.556-.092-1.416-.436-2.784-1.06-4.067l-.899,.438s.775,2.007,.911,3.073Z"/>
</svg>
