<svg id="Layer_1" viewBox="0 0 24 24" xmlns="http://www.w3.org/2000/svg" data-name="Layer 1"><path d="m10.992 17 .508 7h-1.003l-.493-6.794-2.005 4.41-2.005-4.41-.493 6.794h-1.003l.508-7c.043-.705.472-1 .988-1 .342 0 .66.242.841.64l1.164 2.56 1.164-2.56c.181-.398.499-.64.841-.64.516 0 .945.295.988 1zm13.008-12.5v10.409c-.304-.242-.641-.444-1-.602v-5.307h-22v14h1.567l-.073 1h-2.494v-19.5c0-1.378 1.121-2.5 2.5-2.5h3.5v-2h1v2h10v-2h1v2h3.5c1.379 0 2.5 1.122 2.5 2.5zm-1 3.5v-3.5c0-.827-.673-1.5-1.5-1.5h-19c-.827 0-1.5.673-1.5 1.5v3.5zm-5.945 9.462 1.188 6.538h-1.016s-.363-1.999-.363-1.999h-2.736l-.368 2h-1.017s1.211-6.584 1.211-6.584c.103-.58.61-1.416 1.546-1.416s1.435.794 1.555 1.462zm-.373 3.538-.611-3.362c-.012-.065-.127-.638-.571-.638-.429 0-.56.586-.562.597l-.626 3.403zm6.062-.345 1.018 3.345h-1.046l-.922-3.03c-.098.012-.194.03-.295.03h-1.5v3h-1v-8h2.5c1.379 0 2.5 1.122 2.5 2.5 0 .923-.509 1.722-1.256 2.155zm.256-2.155c0-.827-.673-1.5-1.5-1.5h-1.5v3h1.5c.827 0 1.5-.673 1.5-1.5z"/></svg>