<?xml version="1.0" encoding="UTF-8"?>
<svg xmlns="http://www.w3.org/2000/svg" id="Layer_1" data-name="Layer 1" viewBox="0 0 24 24">
  <path d="M22,16V3H2v13H0v2.5c0,1.378,1.121,2.5,2.5,2.5H21.5c1.379,0,2.5-1.122,2.5-2.5v-2.5h-2ZM3,4H21v12h-5.707l-1,1h-4.586l-1-1H3V4Zm20,14.5c0,.827-.673,1.5-1.5,1.5H2.5c-.827,0-1.5-.673-1.5-1.5v-1.5h7.293l1,1h5.414l1-1h7.293v1.5ZM9,7l-.981,4.819c-.094,.485-.471,1.181-1.221,1.181s-1.132-.727-1.214-1.148l-1.036-4.852h1.03l.984,4.643c.025,.131,.146,.357,.236,.357,.101,0,.211-.224,.239-.372l.917-4.628h1.046Zm2,4h1c1.103,0,2-.897,2-2s-.897-2-2-2h-2v6h1v-2Zm0-3h1c.552,0,1,.449,1,1s-.448,1-1,1h-1v-2Zm5,5h-1V7h.785l2.215,3.723v-3.723h1v6h-.785l-2.215-3.698v3.698Z"/>
</svg>
