<svg id="Layer_1" viewBox="0 0 24 24" xmlns="http://www.w3.org/2000/svg" data-name="Layer 1"><path d="m17.487-.004c-.86.013-2.487.553-2.487 2.504 0 2.646-1.494 3.309-2.5 3.458v-2.029c.86-.224 1.5-1 1.5-1.929 0-1.103-.897-2-2-2s-2 .897-2 2c0 .929.64 1.705 1.5 1.929v2.027c-.995-.146-2.5-.805-2.5-3.46 0-2.054-1.801-2.504-2.496-2.504l-6.506.008.006 1.496c0 1.607.96 2.341 1.941 2.5l.053.5c0 1.638 1.124 2.278 2.001 2.449v.551c0 1.976 1.636 2.499 2.501 2.5h5v2.004h-3.893c-1.273 0-2.38.896-2.573 2.084-.28 1.481.963 2.95 2.466 2.916h4v3h-2.5c-1.103 0-2 .897-2 2s.897 2 2 2h3.5v-3h3c1.379 0 2.5-1.121 2.5-2.5s-1.121-2.5-2.5-2.5h-3v-3h3.919c.84 0 1.6-.394 2.081-1h-6v-2h5.001c.864 0 2.499-.524 2.499-2.499v-.552c.878-.17 2.002-.807 2.001-2.423l.028-.532c.976-.085 1.954-.85 1.967-2.492l.006-1.497-6.515-.009zm-5.987 23.004h-2.5c-.552 0-1-.448-1-1s.448-1 1-1h2.5zm0-7h-4c-.904.019-1.652-.861-1.479-1.756.116-.709.798-1.244 1.587-1.244h3.893v3zm-.5-14c0-.551.448-1 1-1s1 .449 1 1-.448 1-1 1-1-.449-1-1zm-4.497 6.996c-.251-.003-1.503-.09-1.503-1.501l-.002-.499h2.002v-1h-2.499c-.251-.003-1.503-.09-1.504-1.526l-.025-.474h3.028v-1l-3.972.007c-.383-.064-1.024-.346-1.024-1.509l-.002-.494 5.5-.007c.25.003 1.498.091 1.498 1.503 0 3.009 1.728 4.251 3.5 4.456v2.044zm8.997 8.004c.827 0 1.5.673 1.5 1.5s-.673 1.5-1.5 1.5h-3v-3zm7.496-15.5c0 1.161-.642 1.442-.941 1.5h-4.055v1h3.028l-.026.5c0 1.41-1.252 1.497-1.501 1.5h-2.501v1h2.001v.5c0 1.41-1.253 1.497-1.501 1.5h-5v-2.043c1.766-.201 3.5-1.442 3.5-4.457 0-1.41 1.251-1.5 1.494-1.504l5.504.008z"/></svg>