<svg id="Layer_1" viewBox="0 0 24 24" xmlns="http://www.w3.org/2000/svg" data-name="Layer 1"><path d="m19 22h2v2h-2zm3-1h2v-2h-2zm-3 0h2v-2h-2zm-6-8h5v5h-5zm1 4h3v-3h-3zm-1 2h5v5h-5zm1 4h3v-3h-3zm10-10v5h-5v-5zm-1 1h-3v3h3zm-8 2h1v-1h-1zm7-1h-1v1h1zm-7 7h1v-1h-1zm-14-.5v-20.5h14v10h1v-11h-16v21.5c0 1.379 1.121 2.5 2.5 2.5h8.5v-1h-8.5c-.827 0-1.5-.673-1.5-1.5zm5-1.5v1h4v-1zm1.158-12h1.684c.576 0 1.158.309 1.158 1h1c0-1.159-.907-2-2.158-2h-.342v-1h-1v1h-.342c-1.19 0-2.158.968-2.158 2.158 0 1.059.759 1.954 1.795 2.127l2.237.415c.561.094.968.574.968 1.142 0 .639-.52 1.158-1.158 1.158h-1.684c-.576 0-1.158-.31-1.158-1h-1c0 1.159.907 2 2.158 2h.342v1h1v-1h.342c1.19 0 2.158-.968 2.158-2.158 0-1.059-.759-1.954-1.795-2.127l-2.237-.415c-.561-.094-.968-.574-.968-1.142 0-.639.52-1.158 1.158-1.158z"/></svg>