<svg id="Layer_1" viewBox="0 0 24 24" xmlns="http://www.w3.org/2000/svg" data-name="Layer 1"><path d="m20.736 12.973c.163-.289.264-.618.264-.973 0-1.103-.897-2-2-2s-2 .897-2 2 .897 2 2 2c.384 0 .74-.114 1.045-.303l2.955 2.532v6.771h-5v-4.5c0-2.481-2.019-4.5-4.5-4.5h-9c-2.481 0-4.5 2.019-4.5 4.5v5.5h24v-8.229l-3.264-2.797zm-2.736-.973c0-.551.448-1 1-1s1 .449 1 1-.448 1-1 1-1-.449-1-1zm-1 11h-16v-4.5c0-1.93 1.57-3.5 3.5-3.5h9c1.93 0 3.5 1.57 3.5 3.5zm-14.75-15h1.1c.826 2.327 3.043 4 5.65 4s4.824-1.673 5.65-4h1.1c.689 0 1.25-.561 1.25-1.25v-1.5c0-.689-.561-1.25-1.25-1.25h-1.1c-.826-2.327-3.043-4-5.65-4s-4.824 1.673-5.65 4h-1.1c-.689 0-1.25.561-1.25 1.25v1.5c0 .689.561 1.25 1.25 1.25zm13.5-3c.138 0 .25.112.25.25v1.5c0 .138-.112.25-.25.25h-.84c.055-.326.09-.659.09-1s-.035-.674-.09-1zm-1.75 1c0 2.757-2.243 5-5 5s-5-2.243-5-5h1.5c2.723 0 5.095-1.769 5.938-4.338 1.521.859 2.562 2.471 2.562 4.338zm-5-5c.534 0 1.04.106 1.523.262-.683 2.21-2.702 3.738-5.023 3.738h-1.399c.465-2.279 2.484-4 4.899-4zm-7 4.25c0-.138.112-.25.25-.25h.84c-.055.326-.09.659-.09 1s.035.674.09 1h-.84c-.138 0-.25-.112-.25-.25z"/></svg>