<?xml version="1.0" encoding="UTF-8"?>
<svg xmlns="http://www.w3.org/2000/svg" id="Layer_1" data-name="Layer 1" viewBox="0 0 24 24">
  <path d="m6,3.5c0-.276.672-.5,1.5-.5s1.5.224,1.5.5-.672.5-1.5.5-1.5-.224-1.5-.5Zm17.505,9.749c-.33.41-.505.9-.505,1.418s.175,1.008.505,1.418c.319.395.495.897.495,1.415v.5h-9v2.5c0,1.832-3.575,3.5-7.5,3.5s-7.5-1.668-7.5-3.5V3.5C0,1.505,3.225,0,7.5,0h16.5v.5c0,.518-.176,1.021-.496,1.416-.329.409-.504.899-.504,1.417s.175,1.008.505,1.418c.661.82.661,2.011,0,2.831-.33.41-.505.9-.505,1.418s.175,1.008.505,1.418c.661.82.661,2.011,0,2.831ZM1,3.5c0,1.183,2.67,2.5,6.5,2.5s6.5-1.317,6.5-2.5-2.67-2.5-6.5-2.5S1,2.317,1,3.5Zm13,17V5.291c-1.272,1.037-3.649,1.709-6.5,1.709s-5.228-.671-6.5-1.709v15.209c0,.858,2.531,2.5,6.5,2.5s6.5-1.642,6.5-2.5Zm8-11.5c0-.749.251-1.456.726-2.045.363-.45.363-1.127,0-1.577-.475-.589-.726-1.296-.726-2.045s.251-1.455.726-2.045c.071-.087.129-.185.173-.288h-10.049c1.343.626,2.151,1.501,2.151,2.5v13.5h7.898c-.044-.104-.102-.2-.172-.287-.476-.591-.727-1.298-.727-2.046s.251-1.456.726-2.045c.363-.45.363-1.127,0-1.577-.475-.589-.726-1.296-.726-2.045Zm-14,1h-1v3h-3v1h3v3h1v-3h3v-1h-3v-3Z"/>
</svg>
