<svg id="Layer_1" viewBox="0 0 24 24" xmlns="http://www.w3.org/2000/svg" data-name="Layer 1"><path d="m23.738 9.507c-.243-.301-.604-.474-.993-.474h-1.924c-.838 0-1.559.57-1.752 1.386l-1.554 6.581h-2.515v5h5.32c.703 0 1.319-.498 1.466-1.184 0 0 1.664-7.755 2.203-10.25.081-.375-.01-.762-.251-1.06zm-2.93 11.101c-.05.231-.25.393-.488.393h-4.32v-3h2.306l.945-4h2.976c-.488 2.27-1.418 6.607-1.418 6.607zm1.633-7.607h-2.955l.555-2.351c.086-.363.406-.616.779-.616h1.924c.116 0 .185.063.215.102.029.036.075.113.052.221-.154.714-.353 1.639-.57 2.645zm-7.441 2h-2.396l-.793 3.987c-.231 1.166-1.263 2.013-2.452 2.013h-2.358v3h-7.001v-1h6v-3h3.358c.713 0 1.333-.508 1.472-1.208l.953-4.792h2.217v-.395c-.354-.804-.709-1.656-1.064-2.509-.996-2.394-2.025-4.868-3.006-6.081-1.906-2.544-4.793-4.002-7.932-4.016-.651.008-1.33.074-1.998.199v-1.013c.668-.115 1.341-.186 2.002-.186 3.456.015 6.633 1.619 8.717 4.401 1.06 1.31 2.07 3.739 3.141 6.312.366.88 1.141 2.787 1.141 2.787v1.5z"/></svg>