<svg id="Layer_1" viewBox="0 0 24 24" xmlns="http://www.w3.org/2000/svg" data-name="Layer 1"><path d="m19.5 6h-6c-2.481 0-4.5 2.019-4.5 4.5v6c0 4.136 3.364 7.5 7.5 7.5s7.5-3.364 7.5-7.5v-6c0-2.481-2.019-4.5-4.5-4.5zm3.5 4.5v2.5h-6v-6h2.5c1.93 0 3.5 1.57 3.5 3.5zm-9.5-3.5h2.5v6h-6v-2.5c0-1.93 1.57-3.5 3.5-3.5zm3 16c-3.584 0-6.5-2.916-6.5-6.5v-2.5h13v2.5c0 3.584-2.916 6.5-6.5 6.5zm3.933-18.25-.865-.5 2-3.464.865.5zm-3.433-.75h-1v-4h1zm-9.75 15.567.5.866-3.464 2-.5-.866zm-.25-2.567h-4v-1h4zm-2.5-12.378c0 .279.188.526.458.6l2.284.499c.75.2 1.258.862 1.258 1.614 0 .918-.748 1.666-1.666 1.666h-.334v1h-1v-1h-.334c-.981 0-1.666-.617-1.666-1.5h1c0 .464.51.5.666.5h1.668c.367 0 .666-.299.666-.666 0-.301-.203-.565-.494-.643l-2.287-.499c-.729-.198-1.22-.841-1.22-1.57 0-.894.728-1.622 1.622-1.622h.378v-1h1v1h.391c.932 0 1.609.631 1.609 1.5h-1c0-.476-.507-.5-.609-.5h-1.77c-.343 0-.622.279-.622.622zm1.5 7.378c-3.309 0-6-2.691-6-6s2.691-6 6-6c2.699 0 4.986 1.792 5.738 4.248-.332.093-.652.213-.961.355-.609-2.075-2.508-3.604-4.777-3.604-2.757.001-5 2.244-5 5.001s2.243 5 5 5c.35 0 .69-.037 1.02-.106.02.338.062.67.132.992-.373.073-.758.114-1.152.114z"/></svg>