<svg id="Layer_1" viewBox="0 0 24 24" xmlns="http://www.w3.org/2000/svg" data-name="Layer 1"><path d="m9 12c3.309 0 6-2.691 6-6s-2.691-6-6-6-6 2.691-6 6 2.691 6 6 6zm4.899-7h-9.798c.071-.349.183-.682.323-1h9.152c.14.318.252.651.323 1zm-4.899-4c1.627 0 3.061.793 3.974 2h-7.948c.914-1.207 2.348-2 3.974-2zm5 5c0 2.757-2.243 5-5 5s-5-2.243-5-5zm4 6c1.103 0 2-.897 2-2s-.897-2-2-2-2 .897-2 2 .897 2 2 2zm0-3c.552 0 1 .449 1 1s-.448 1-1 1-1-.449-1-1 .448-1 1-1zm-8 5h-5.5c-2.481 0-4.5 2.019-4.5 4.5v5.5h1v-5.5c0-1.699 1.216-3.119 2.824-3.435l3.224 4.836 2.952-4.429v-1.473zm-1 1.17-1.952 2.929-2.066-3.099h4.018zm13.448-4.57c-.15-.15-.307-.287-.467-.415-.019.4-.097.781-.224 1.142 1.847 1.869 1.596 4.615-.632 6.844-2.191 2.189-5.025 2.455-6.865.616-1.799-1.799-1.617-4.419.392-6.608-.198-.303-.342-.64-.453-.992-1.622 1.645-2.341 3.44-2.199 5.105v4.003l-2.933 2.969.712.703 2.931-2.967h4.467c1.604 0 3.257-.724 4.655-2.122 2.659-2.66 2.907-5.987.616-8.279z"/></svg>