<svg id="Layer_1" viewBox="0 0 24 24" xmlns="http://www.w3.org/2000/svg" data-name="Layer 1"><path d="m8.703 12.238c-1.368 1.714-2.382 3.26-3.072 4.425l1.765 1.713c1.145-.688 2.671-1.702 4.374-3.072l.712.712c-2.153 1.731-3.742 2.742-5.235 3.609l-2.872-2.789c.87-1.519 1.885-3.14 3.617-5.311l.712.712zm-1.985 10.552-5.526-5.366c.447-.956 1.999-4.032 4.995-7.702l-.713-.713c-3.973 4.901-5.164 7.976-5.474 8.651l6.506 6.318c.652-.304 3.647-1.493 8.49-5.447l-.712-.712c-3.631 2.982-6.635 4.527-7.566 4.971zm17.258-1.822c-.099.606-.493 1.279-1.111 1.897-.852.849-1.577 1.119-2.157 1.119-.668 0-1.141-.359-1.384-.602-1.229-1.229-2.951-4.688-2.791-6.144l-9.791-9.789c-1.683.128-4.849-1.544-6.125-2.772-.496-.496-.689-1.034-.593-1.645.099-.605.493-1.279 1.111-1.896 1.3-1.3 2.592-1.468 3.542-.519 1.224 1.224 2.937 4.66 2.793 6.126.357-.382.715-.764 1.101-1.151 4.351-4.351 10.25-5.351 12.584-5.579.776-.078 1.533.198 2.084.749.552.551.824 1.31.749 2.083-.229 2.335-1.231 8.235-5.581 12.584-.39.391-.775.75-1.161 1.11l.003.003c1.557-.137 4.751 1.461 6.133 2.78.496.497.689 1.035.593 1.646zm-15.808-13.507 1.794 1.794c.362-.392.727-.784 1.123-1.181 1.517-1.595 3.638-1.232 4.846-.002 1.23 1.208 1.589 3.331-.007 4.847-.395.395-.786.759-1.177 1.122l1.793 1.793c.385-.36.77-.72 1.161-1.11 4.121-4.121 5.074-9.747 5.292-11.975.047-.474-.121-.94-.46-1.279s-.809-.503-1.279-.46c-2.228.218-7.853 1.169-11.975 5.292-.389.39-.751.776-1.111 1.161zm3.624 1.319c-.397.398-.762.79-1.124 1.182l3.372 3.372c.391-.362.783-.728 1.18-1.125 1.187-1.109.885-2.573.003-3.43-.858-.883-2.317-1.183-3.431.001zm-10.468-4.81c1.316 1.316 4.308 2.512 5.189 2.517-.023-.863-1.244-3.863-2.544-5.162-.213-.212-.432-.315-.671-.315-.402 0-.919.296-1.456.833-.465.464-.767.955-.831 1.348-.033.208-.019.448.312.779zm21.352 16.06c-1.155-1.155-4.103-2.489-5.189-2.509.029.872 1.248 3.859 2.544 5.155.199.199.805.803 2.127-.518.465-.463.767-.954.831-1.348.033-.208.019-.449-.312-.78z"/></svg>