<svg id="Layer_1" viewBox="0 0 24 24" xmlns="http://www.w3.org/2000/svg" data-name="Layer 1"><path d="m23.653 17.352c-.948-.961-2.512-2.32-4.653-3.444v-4.907h5v-1.173c0-.953-.532-1.825-1.355-2.222-1.453-.701-3.02-1.75-3.645-4.181v-1.425c-.774 0-1.437.444-1.77 1.087-1.541.205-2.778.794-3.676 1.769-1.761 1.914-1.562 4.573-1.552 4.691.015.153.32 3.763-2.659 4.622-.504.074-.976.183-1.44.301-.307-1.237-1.527-4.471-5.903-4.471v1c3.82 0 4.746 2.824 4.949 3.76-3.656 1.273-5.566 3.243-6.933 4.904l2.304 1.921c1.377-1.66 3.884-4.465 9.181-4.584.346 0 .684.018 1.016.045l-3.332 2.863 3.514 2.444-2.929 2.647h-4.77v1h14v-1h-7.739l3.041-2.749-3.486-2.427 3.011-2.586-.007-.008c4.202.89 6.585 3.123 8.062 4.596l2.121-2.121-.349-.354zm-1.776 1.064c-1.655-1.562-5.369-4.416-10.377-4.416-4.876 0-7.959 2.674-9.307 4.178l-.764-.638c1.365-1.525 4.016-3.786 8.123-4.395 3.081-.884 3.601-4.111 3.445-5.686-.002-.023-.167-2.348 1.298-3.933.871-.943 2.157-1.454 3.825-1.52.788 2.609 2.587 3.773 4.09 4.498.539.252.836.877.789 1.494h-5v6.52c1.917.916 3.621 2.244 4.587 3.187l-.71.71z"/></svg>