<svg id="Layer_1" viewBox="0 0 24 24" xmlns="http://www.w3.org/2000/svg" data-name="Layer 1"><path d="m22 17.921c.162.508 1 3.268 1 6.079h-1c-.024-3.105-.97-5.681-1-6l.019-8.637c.02-.069 1.981-6.961 1.981-9.363h1c0 2.437-1.781 8.797-2 9.57zm-21-17.921h-1c0 2.437 1.781 8.797 2 9.57v8.351c-.162.508-1 3.268-1 6.079h1c0-2.88.965-5.812.975-5.842l.025-8.658c-.028-.321-1.976-6.889-2-9.5zm11 14c.552 0 1-.448 1-1s-.448-1-1-1-1 .448-1 1 .448 1 1 1zm0 3c-.552 0-1 .448-1 1s.448 1 1 1 1-.448 1-1-.448-1-1-1zm0 5c-.552 0-1 .448-1 1s.448 1 1 1 1-.448 1-1-.448-1-1-1zm0-16c.552 0 1-.448 1-1s-.448-1-1-1-1 .448-1 1 .448 1 1 1zm0 4c.552 0 1-.448 1-1s-.448-1-1-1-1 .448-1 1 .448 1 1 1zm0-8c.552 0 1-.448 1-1s-.448-1-1-1-1 .448-1 1 .448 1 1 1zm4 11.098-3 1.875v1.179l2-1.25v1.881l2.028 1.217-2.028 1.217v1.881l-2-1.25v1.179l3 1.875v-3.119l2.972-1.783-2.972-1.783zm-5 7.93v-1.179l-2 1.25v-1.881l-2.028-1.217 2.028-1.217v-1.881l2 1.25v-1.179l-3-1.875v3.119l-2.972 1.783 2.972 1.783v3.119z"/></svg>