<svg id="Layer_1" viewBox="0 0 24 24" xmlns="http://www.w3.org/2000/svg" data-name="Layer 1"><path d="m.69 3.775-.699-.715c2.019-1.973 4.685-3.06 7.509-3.06s5.481 1.083 7.498 3.05l-.697.716c-1.83-1.783-4.245-2.766-6.801-2.766s-4.979.985-6.81 2.775zm2.835 2.872.707.707c1.803-1.802 4.732-1.802 6.535 0l.707-.707c-2.191-2.191-5.758-2.191-7.949 0zm20.475 8.353v6.5c0 1.378-1.121 2.5-2.5 2.5h-6c-1.379 0-2.5-1.122-2.5-2.5v-6.5h2v-1.5c0-1.93 1.57-3.5 3.5-3.5s3.5 1.57 3.5 3.5v1.5zm-8 0h5v-1.5c0-1.378-1.121-2.5-2.5-2.5s-2.5 1.122-2.5 2.5zm7 1h-9v5.5c0 .827.673 1.5 1.5 1.5h6c.827 0 1.5-.673 1.5-1.5zm-4 2.5h-1v2h1zm-18 4.5v-4.5c0-.827.673-1.5 1.5-1.5h8.5v-1h-3v-6h-1v6h-4.5c-1.379 0-2.5 1.122-2.5 2.5v5.5h11.762c-.206-.307-.359-.647-.485-1z"/></svg>