<svg id="Layer_1" viewBox="0 0 24 24" xmlns="http://www.w3.org/2000/svg" data-name="Layer 1"><path d="m24 10.5c0-1.378-1.121-2.5-2.5-2.5s-2.5 1.122-2.5 2.5c0 1.207.86 2.217 2 2.449v4.051c0 2.757-2.243 5-5 5s-5-2.243-5-5v-3.025c3.351-.257 6-3.059 6-6.475v-5c0-1.378-1.121-2.5-2.5-2.5h-2.5v1h2.5c.827 0 1.5.673 1.5 1.5v5c0 3.033-2.468 5.5-5.5 5.5s-5.5-2.467-5.5-5.5v-5c0-.827.673-1.5 1.5-1.5h2.5v-1h-2.5c-1.378 0-2.5 1.122-2.5 2.5v5c0 3.415 2.649 6.218 6 6.475v3.025c0 3.309 2.691 6 6 6s6-2.691 6-6v-4.051c1.14-.232 2-1.242 2-2.449zm-2.5 1.5c-.827 0-1.5-.673-1.5-1.5s.673-1.5 1.5-1.5 1.5.673 1.5 1.5-.673 1.5-1.5 1.5zm-14.5 4.395v.605h-1v-.605c0-.769-.626-1.395-1.395-1.395h-2.21c-.769 0-1.395.626-1.395 1.395 0 .685.49 1.264 1.166 1.376l2.833.473c1.159.193 2.001 1.187 2.001 2.362 0 1.32-1.074 2.395-2.395 2.395h-.605v1h-1v-1h-.605c-1.321 0-2.395-1.074-2.395-2.395v-.605h1v.605c0 .769.626 1.395 1.395 1.395h2.21c.769 0 1.395-.626 1.395-1.395 0-.685-.49-1.264-1.166-1.376l-2.833-.473c-1.159-.193-2.001-1.187-2.001-2.362 0-1.32 1.074-2.395 2.395-2.395h.605v-1h1v1h.605c1.321 0 2.395 1.074 2.395 2.395z"/></svg>