<svg id="Layer_1" viewBox="0 0 24 24" xmlns="http://www.w3.org/2000/svg" data-name="Layer 1"><path d="m24 15h-24v1h4.348c-1.082.755-1.891 1.885-2.21 3.254 0 .002-1.286 4.746-1.286 4.746h1.036l1.212-4.478c.002-.007.004-.02.004-.02.469-2.062 2.273-3.503 4.389-3.503h6.008c.905 0 1.643.737 1.643 1.642 0 .812-.606 1.511-1.41 1.625l-5.16.737.141.99 5.16-.737c.527-.075 1-.291 1.377-.626l.006-.007 3.729-3.247c.602-.55 1.612-.475 2.133.148.54.622.479 1.573-.137 2.121l-5.768 5.354h1.47s4.972-4.618 4.974-4.62c.972-.876 1.091-2.354.308-3.38h2.035v-1zm-7.868 2.536c-.023-.582-.237-1.11-.578-1.536h2.343l-1.764 1.536zm-3.132-8.536h-10v-1h10v-1c0-1.103.897-2 2-2h6v1h-6c-.552 0-1 .449-1 1v1h7v1h-7v1c0 .551.448 1 1 1h6v1h-6c-1.103 0-2-.897-2-2zm-9.776-7.613c1.011 1.149 3.315 2.613 6.291 2.613 2.317 0 4.443-1.014 6.328-3h5.157v-1h-17.263c-.301 0-.591.233-.692.514-.105.277-.035.617.179.874zm11.193-.387c-1.55 1.368-3.266 2.032-5.054 1.999-2.431-.099-4.237-1.197-5.114-1.999z"/></svg>