<svg id="Layer_1" viewBox="0 0 24 24" xmlns="http://www.w3.org/2000/svg" data-name="Layer 1"><path d="m13.5 15h.793l1.175 1.175c-.275.178-.468.473-.468.825 0 .552.448 1 1 1s1-.448 1-1c.552 0 1-.448 1-1s-.448-1-1-1c-.352 0-.647.193-.825.468l-1.175-1.175c-.056-1.267.078-4.851-1.745-7.048-1.657-1.657-4.354-1.657-6.011 0s-1.657 4.354 0 6.011c1.56 1.56 5.766 1.73 6.255 1.745zm-5.548-7.048c1.268-1.267 3.329-1.267 4.597 0 1.202 1.343 1.447 4.598 1.452 6.048-1.45-.005-4.719-.254-6.048-1.452-1.267-1.267-1.267-3.33 0-4.597zm16.048-5.952h-24v1h1.062l2.213 16.826c.164 1.239 1.229 2.174 2.479 2.174h12.492c1.25 0 2.315-.935 2.479-2.174l2.213-16.826h1.062zm-4.267 17.695c-.098.744-.738 1.305-1.487 1.305h-12.492c-.75 0-1.389-.561-1.487-1.305l-2.197-16.695h19.86z"/></svg>