<?xml version="1.0" encoding="UTF-8"?>
<svg xmlns="http://www.w3.org/2000/svg" id="Layer_1" data-name="Layer 1" viewBox="0 0 24 24">
  <path d="M22.926,14.5c-.177-1.322-.696-2.532-1.468-3.543l.711-.711c.948,1.2,1.579,2.659,1.767,4.254h-1.01Zm-6.426,8.426v1.01c1.595-.188,3.054-.819,4.254-1.767l-.711-.711c-1.011,.772-2.221,1.292-3.543,1.468Zm-6.254-.757c1.2,.948,2.659,1.579,4.254,1.767v-1.01c-1.322-.177-2.532-.696-3.543-1.468l-.711,.711Zm11.212-2.125l.711,.711c.948-1.2,1.579-2.659,1.767-4.254h-1.01c-.177,1.322-.696,2.532-1.468,3.543Zm-4.457-11.543c0,4.687-3.813,8.5-8.5,8.5-.113,0-.223-.013-.336-.017,.23,1.131,.702,2.175,1.378,3.06l-.711,.711c-.873-1.105-1.478-2.43-1.716-3.877C3.086,16.213,0,12.714,0,8.5,0,3.813,3.813,0,8.5,0c4.214,0,7.712,3.086,8.377,7.115,1.447,.239,2.772,.844,3.877,1.716l-.711,.711c-.885-.676-1.929-1.148-3.06-1.378,.004,.112,.017,.222,.017,.336ZM7.015,15.851c-.005-.117-.015-.233-.015-.351,0-4.687,3.813-8.5,8.5-8.5,.118,0,.234,.01,.351,.015-.691-3.427-3.724-6.015-7.351-6.015C4.364,1,1,4.364,1,8.5c0,3.627,2.588,6.66,6.015,7.351Zm8.985-7.351c0-.155-.014-.307-.023-.46-.16-.01-.314-.04-.477-.04-4.142,0-7.5,3.358-7.5,7.5,0,.163,.03,.317,.04,.477,.153,.009,.305,.023,.46,.023,4.136,0,7.5-3.364,7.5-7.5Z"/>
</svg>
