<?xml version="1.0" encoding="UTF-8"?>
<svg xmlns="http://www.w3.org/2000/svg" id="Layer_1" data-name="Layer 1" viewBox="0 0 24 24">
  <path d="M15,11.5v4.5h-1v-4.363c-1.91,1.493-4,3.697-4,5.363,.002,.076,.087,2,3.5,2h1.5v1h-1.5c-4.449,0-4.5-2.97-4.5-3,0-1.961,2.077-4.31,4.186-6h-4.186v-1h4.5c.827,0,1.5,.673,1.5,1.5Zm9-6V23H0V3.5C0,2.122,1.122,1,2.5,1h5.618l4,2h9.382c1.378,0,2.5,1.122,2.5,2.5ZM1,3.5v3.5H23v-1.5c0-.827-.673-1.5-1.5-1.5H11.882L7.882,2H2.5c-.827,0-1.5,.673-1.5,1.5ZM23,22V8H1v14H23Z"/>
</svg>
