<?xml version="1.0" encoding="UTF-8"?>
<svg xmlns="http://www.w3.org/2000/svg" id="Layer_1" data-name="Layer 1" viewBox="0 0 24 24">
  <path d="M24,22c0,1.103-.897,2-2,2h-6.455c-1.366,0-2.663-.6-3.558-1.646-3.5-4.089-6.673-6.802-8.489-7.256-2.224-.556-3.499-1.987-3.499-3.928,0-1.6,.884-2.332,1.74-3.04,.53-.438,1.079-.893,1.436-1.587L6.232,0h1.104l-3.263,6.984c-.459,.894-1.117,1.438-1.696,1.917-.8,.662-1.377,1.141-1.377,2.27,0,1.977,1.718,2.701,2.742,2.957,2.793,.699,6.841,5.047,9.006,7.576,.705,.823,1.725,1.296,2.798,1.296h6.455c.551,0,1-.448,1-1s-.449-1-1-1h-2.846s-2.73-4.07-3.891-5.971c-1.219-1.994-2.37-3.878-3.638-5.312l-.216-.243L15.752,0h1.1l-4.264,9.303c1.24,1.46,2.353,3.282,3.528,5.206,1.107,1.812,2.25,3.683,3.63,5.491h2.253c1.103,0,2,.897,2,2Z"/>
</svg>
