<svg id="Layer_1" viewBox="0 0 24 24" xmlns="http://www.w3.org/2000/svg" data-name="Layer 1"><path d="m21.947 12.185c-.979-.706-2.397-.558-3.302.346l-1.762 1.762c-.074-.539-.31-1.039-.701-1.429-.582-.582-1.38-.809-2.138-.697.137-.779-.141-1.585-.698-2.14-.413-.413-.961-.635-1.525-.688l2.841-2.94c.903-.903 1.053-2.322.347-3.301-.855-1.252-2.777-1.408-3.819-.314l-6.04 6.217h-2.65c-1.379 0-2.5 1.121-2.5 2.5v12.501l14.295-.03 7.971-7.972c1.09-1.042.93-2.961-.318-3.814zm-7.536.945c.386 0 .771.147 1.064.44.585.56.585 1.569 0 2.13l-1.415 1.416-.003.003c-.588.589-1.542.587-2.13 0-.585-.56-.585-1.569 0-2.13l1.418-1.419c.294-.293.68-.44 1.065-.44zm-3.902-2.396c.588-.588 1.542-.586 2.13 0 .585.56.585 1.569 0 2.13l-1.418 1.419c-.588.586-1.543.586-2.131 0-.587-.588-.587-1.544 0-2.131zm1.393-7.248c.625-.654 1.784-.562 2.297.196.421.586.317 1.449-.249 2.016l-5.031 5.206c-.268-1.076-1.227-1.878-2.38-1.898l5.362-5.521zm9.657 11.807-7.68 7.679-12.879.028v-11.5c0-.827.673-1.5 1.5-1.5h3.995c.83 0 1.505.676 1.505 1.506 0 .824-.67 1.494-1.494 1.494h-2.506v1h2.506c.433 0 .834-.121 1.189-.316.09.478.319.935.688 1.305.583.575 1.37.826 2.139.697-.137.779.141 1.584.698 2.14.931.969 2.603.972 3.536.006l4.595-4.595c.56-.562 1.424-.664 2.011-.242.756.514.852 1.668.195 2.297zm2.311-11.817c-.161-.298-.448-.477-.778-.477h-1.607l1.73-2.998h-3.401c-.059.15-2.805 4.742-2.811 4.904-.116.533.346 1.111.899 1.094h1.098l-1.5 3.002h1.827c.102-.123 4.495-4.548 4.576-4.685.206-.338.026-.729-.033-.841zm-4.534 4.089 1.281-2.565h-2.544l2.316-3.998h1.093l-1.73 2.998h3.08z"/></svg>