<?xml version="1.0" encoding="UTF-8"?>
<svg xmlns="http://www.w3.org/2000/svg" id="Layer_1" data-name="Layer 1" viewBox="0 0 24 24">
  <path d="M20.607,13.679c1.464-.707,2.083-2.473,1.378-3.945l-.462-.941c.233,.112,.479,.19,.741,.19,.523,0,1.022-.234,1.35-.641,.604-.742,.493-1.839-.25-2.444-.639-.521-1.435-.666-2.144-.672,.467-.628,.866-1.424,.791-2.309-.057-.961-.981-1.74-1.936-1.637-.781,.065-1.397,.628-1.58,1.348l-.448-.913c-.706-1.469-2.476-2.09-3.955-1.38l-2.18,1.114,6.503,13.35,2.193-1.121Zm2.23-5.967c-.245,.313-.733,.363-1.037,.106-.259-.21-.833-.917-1.319-1.548,.652-.096,1.608-.117,2.25,.405,.315,.257,.363,.722,.106,1.038Zm-2.681-5.435c.423-.043,.83,.297,.856,.724,.074,.884-.6,1.729-1.119,2.241-.193-.753-.428-1.724-.46-2.109-.036-.436,.288-.819,.723-.856Zm-5.622-1.045c.971-.467,2.143-.055,2.61,.921l3.939,8.019c.467,.972,.055,2.143-.917,2.609l-1.301,.665L13.239,1.894l1.296-.662Zm-2.535,6.692l-2.25,2.454-2.25-2.455-2.25,2.455-2.25-2.454v5.077H0v11H15V13h-3V7.923Zm-8,2.57l1.25,1.363,2.25-2.455,2.25,2.455,1.25-1.363v2.506H4v-2.506Zm4,3.506v9h-1V14h1Zm-7,0H6v9H1V14Zm13,9h-5V14h5v9Zm6.513-6.368l-1.123,2.246-2.245,1.123,2.245,1.123,1.123,2.246,1.123-2.246,2.245-1.123-2.245-1.123-1.123-2.246Zm.377,3.746l-.377,.754-.377-.754-.755-.377,.755-.377,.377-.754,.377,.754,.755,.377-.755,.377ZM8.667,5.333l-1.667-.833,1.667-.833,.833-1.667,.833,1.667,1.667,.833-1.667,.833-.833,1.667-.833-1.667ZM1.667,3.333l-1.667-.833,1.667-.833,.833-1.667,.833,1.667,1.667,.833-1.667,.833-.833,1.667-.833-1.667Z"/>
</svg>
