<svg id="Layer_1" viewBox="0 0 24 24" xmlns="http://www.w3.org/2000/svg" data-name="Layer 1"><path d="m21.5 9h-4.131l-4.362-7.697c-.438-.804-1.279-1.303-2.195-1.303h-3.037l2.897 9h-4.965l-2.442-2.442c-.359-.359-.837-.558-1.346-.558-.687 0-1.302.354-1.646.948-.344.594-.347 1.304-.006 1.9l2.944 5.152h1.869c.203-.351.429-.686.681-1h-1.97l-2.657-4.648c-.162-.283-.161-.62.003-.902.284-.491 1.02-.586 1.42-.186l2.735 2.735h16.208c.827 0 1.5.673 1.5 1.5v1.5h-4.76c.252.314.478.649.681 1h5.079v-2.5c0-1.378-1.122-2.5-2.5-2.5zm-12.353-8h1.665c.549 0 1.054.299 1.321.789l4.086 7.211h-4.496zm2.853 11c-3.309 0-6 2.691-6 6s2.691 6 6 6 6-2.691 6-6-2.691-6-6-6zm0 11c-2.757 0-5-2.243-5-5s2.243-5 5-5 5 2.243 5 5-2.243 5-5 5zm.5-5.207 1.687 1.687-.707.707-1.98-1.979v-3.415h1v3.001z"/></svg>