<svg id="Layer_1" viewBox="0 0 24 24" xmlns="http://www.w3.org/2000/svg" data-name="Layer 1"><path d="m9.289 14c-.216.308-.403.639-.54 1h-4.249c-1.93 0-3.5 1.57-3.5 3.5v5.5h-1v-5.5c0-2.481 2.019-4.5 4.5-4.5zm14.711 8.174c0 1.007-.819 1.826-1.826 1.826-1.397 0-3.606-2.314-4.614-4h-2.086c-1.015 1.686-3.24 4-4.647 4-1.007 0-1.827-.819-1.827-1.826 0-.729.336-3.016 1.61-6.448.372-1.003 1.326-1.681 2.39-1.719v-1.007h1v1h5v-1h1v1.007c1.065.037 2.018.715 2.391 1.719 1.273 3.433 1.609 5.719 1.609 6.448zm-1 0c0-.775-.412-3.04-1.547-6.101-.238-.642-.858-1.073-1.544-1.073h-6.818c-.685 0-1.305.432-1.543 1.073-1.135 3.061-1.547 5.325-1.547 6.101 0 .455.371.826.827.826.891.004 3.223-2.298 4.062-4h3.258c.847 1.73 3.129 4.008 4.027 4 .455 0 .826-.371.826-.826zm-22-15.424v-1.5c0-.689.561-1.25 1.25-1.25h1.1c.826-2.327 3.043-4 5.65-4s4.824 1.673 5.65 4h1.1c.689 0 1.25.561 1.25 1.25v1.5c0 .689-.561 1.25-1.25 1.25h-1.1c-.826 2.327-3.043 4-5.65 4s-4.824-1.673-5.65-4h-1.1c-.689 0-1.25-.561-1.25-1.25zm13.91-1.75c.055.326.09.659.09 1s-.035.674-.09 1h.84c.138 0 .25-.112.25-.25v-1.5c0-.138-.112-.25-.25-.25zm-3.471-3.338c-.843 2.569-3.215 4.338-5.939 4.338h-1.5c0 2.757 2.243 5 5 5s5-2.243 5-5c0-1.867-1.041-3.479-2.561-4.338zm-7.337 3.338h1.399c2.32 0 4.34-1.528 5.023-3.738-.483-.156-.988-.262-1.523-.262-2.414 0-4.434 1.721-4.899 4zm-2.101 1.75c0 .138.112.25.25.25h.84c-.055-.326-.09-.659-.09-1s.035-.674.09-1h-.84c-.138 0-.25.112-.25.25z"/></svg>