<?xml version="1.0" encoding="UTF-8"?>
<svg xmlns="http://www.w3.org/2000/svg" id="Layer_1" data-name="Layer 1" viewBox="0 0 24 24">
  <path d="m24,10.5c0-2.481-2.019-4.5-4.5-4.5h-2.5v-2.5c0-1.378-1.122-2.5-2.5-2.5H2.5C1.122,1,0,2.122,0,3.5v15.5h2.18c-.116.32-.18.656-.18,1,0,1.654,1.346,3,3,3s3-1.346,3-3c0-.344-.064-.68-.18-1h8.36c-.116.32-.18.656-.18,1,0,1.654,1.346,3,3,3s3-1.346,3-3c0-.344-.064-.68-.18-1h2.18v-8.5Zm-4.5-3.5c1.93,0,3.5,1.57,3.5,3.5v1.5h-6v-5h2.5Zm-12.5,13c0,1.103-.897,2-2,2s-2-.897-2-2c0-.354.119-.69.304-1h3.392c.185.31.304.646.304,1Zm9-2H1V3.5c0-.827.673-1.5,1.5-1.5h12c.827,0,1.5.673,1.5,1.5v14.5Zm5,2c0,1.103-.897,2-2,2s-2-.897-2-2c0-.354.119-.69.304-1h3.392c.185.31.304.646.304,1Zm-4-2v-5h6v5h-6ZM8.5,5.633l-2.482,2.429c-.656.656-1.018,1.532-1.018,2.466s.364,1.814,1.025,2.474c.633.634,1.535.998,2.475.998s1.841-.363,2.475-.997c.661-.661,1.025-1.54,1.025-2.475s-.364-1.813-1.029-2.478l-2.471-2.417Zm1.768,6.663c-.896.896-2.641.896-3.536,0-.472-.471-.732-1.099-.732-1.767s.257-1.292.721-1.755l1.779-1.741,1.768,1.729c.472.472.732,1.1.732,1.767s-.26,1.295-.732,1.768Z"/>
</svg>
