<svg id="Layer_1" viewBox="0 0 24 24" xmlns="http://www.w3.org/2000/svg" data-name="Layer 1"><path d="m5.977 5h5.111c2.743 0 4.976 2.468 4.976 5.502 0 1.829-.816 3.448-2.063 4.448v1.22c1.825-1.113 3.063-3.236 3.063-5.669 0-3.218-2.162-5.891-4.988-6.405.102-.08.206-.158.3-.252 1.259-1.259 1.123-3.29 1.117-3.376l-.032-.43-.43-.032c-.088-.007-2.116-.142-3.376 1.118-.432.432-.696.959-.867 1.469-.291-1.234-.768-2.126-.996-2.544l-.879.479c.273.502.948 1.75 1.088 3.472h-2.026c-3.294 0-5.975 2.917-5.975 6.502 0 3.221 2.168 5.894 5 6.403v-1.013c-2.278-.503-4-2.728-4-5.39 0-3.034 2.232-5.502 4.977-5.502zm4.385-3.168c.623-.623 1.565-.783 2.127-.821-.038.562-.198 1.504-.82 2.126-.623.623-1.577.798-2.151.846.047-.574.223-1.529.845-2.151zm13.638 16.168h-1v-3h-2v-2h-3v5h-6v-5h-3v2h-2v3h-1v1h1v3h2v2h3v-5h6v5h3v-2h2v-3h1zm-16 3v-5h1v5zm3 2h-1v-9h1zm9 0h-1v-9h1zm2-2h-1v-5h1z"/></svg>