<?xml version="1.0" encoding="UTF-8"?>
<svg xmlns="http://www.w3.org/2000/svg" id="Layer_1" data-name="Layer 1" viewBox="0 0 24 24">
  <path d="m17.485,13.687l6.476-5.865-4.354-6.147-11.284,6.192C7.436,3.842,4.051,1,0,1v1c3.668,0,6.712,2.657,7.397,6.374l-4.849,2.661c-2.716,1.924-3.36,5.699-1.438,8.417,1.17,1.651,3.023,2.537,4.919,2.537,1.222,0,2.461-.369,3.545-1.138l.879-.797c.786,1.732,2.524,2.945,4.546,2.945,2.757,0,5-2.243,5-5,0-1.848-1.02-3.447-2.515-4.313Zm5.148-6.011l-6.153,5.573c-.471-.147-.961-.249-1.479-.249-2.757,0-5,2.243-5,5,0,.159.032.308.047.463l-5.292-7.502,14.551-7.982,3.327,4.696ZM1.927,18.874c-1.604-2.267-1.066-5.417,1.15-6.992l.796-.437,5.691,8.068-.615.56c-2.266,1.606-5.418,1.066-7.022-1.199Zm13.073,3.126c-2.206,0-4-1.794-4-4s1.794-4,4-4,4,1.794,4,4-1.794,4-4,4Zm0-6c-1.103,0-2,.897-2,2s.897,2,2,2,2-.897,2-2-.897-2-2-2Zm0,3c-.552,0-1-.448-1-1s.448-1,1-1,1,.448,1,1-.448,1-1,1Z"/>
</svg>
