<svg id="Layer_1" viewBox="0 0 24 24" xmlns="http://www.w3.org/2000/svg" data-name="Layer 1"><path d="m5.5 5c1.379 0 2.5-1.122 2.5-2.5s-1.121-2.5-2.5-2.5-2.5 1.122-2.5 2.5 1.121 2.5 2.5 2.5zm0-4c.827 0 1.5.673 1.5 1.5s-.673 1.5-1.5 1.5-1.5-.673-1.5-1.5.673-1.5 1.5-1.5zm-1.919 12.874 4.419 1.952v4.174h1v-4.826l-3-1.325v-5.945l1.864 1.096h4.136v-1h-3.864l-2.201-1.295c-.625-.394-1.118-.705-1.852-.705-1.168 0-2.083.944-2.083 2.148v2.852c0 1.035.413 2.333 1.581 2.874zm-.581-5.726c0-.655.466-1.148 1.083-1.148.318 0 .559.095.917.305v6.103l-1.007-.445c-.733-.34-.993-1.27-.993-1.963zm15.207-.148-3-3h-1.207v7h1.207l3-3h5.793v-1zm-3.207 2.793v-4.586l2.293 2.293zm8.607 11.996.369.93c-.47.187-.967.281-1.477.281-1.516 0-2.822-.857-3.5-2.104-.678 1.246-1.984 2.104-3.5 2.104s-2.822-.857-3.5-2.104c-.678 1.246-1.984 2.104-3.5 2.104s-2.822-.857-3.5-2.104c-.678 1.246-1.984 2.104-3.5 2.104-.51 0-1.007-.095-1.477-.281l.369-.93c.352.14.725.211 1.107.211 1.654 0 3-1.346 3-3h1c0 1.654 1.346 3 3 3s3-1.346 3-3h1c0 1.654 1.346 3 3 3s3-1.346 3-3h1c0 1.654 1.346 3 3 3 .383 0 .756-.071 1.107-.211z"/></svg>