<?xml version="1.0" encoding="UTF-8"?>
<svg xmlns="http://www.w3.org/2000/svg" id="Layer_1" data-name="Layer 1" viewBox="0 0 24 24">
  <path d="M18,16c-2.594-.036-2.594,4.036,0,4,2.594,.036,2.594-4.036,0-4Zm0,3c-1.297,.018-1.297-2.018,0-2,1.297-.018,1.297,2.018,0,2Zm4.412-5.334l-1.516,.892c-.408-.34-.881-.606-1.396-.786v-1.771h-3v1.771c-.515,.18-.988,.446-1.396,.786l-1.516-.892-1.521,2.587,1.527,.896c-.126,.6-.126,1.101,0,1.701l-1.527,.896,1.521,2.587,1.516-.892c.408,.34,.881,.606,1.396,.786v1.771h3v-1.771c.515-.18,.988-.446,1.396-.786l1.516,.892,1.521-2.587-1.527-.896c.126-.6,.126-1.101,0-1.701l1.527-.896-1.521-2.587Zm-1.169,3.007c.328,.92,.328,1.735,0,2.654l1.32,.775-.507,.862-1.306-.768c-.575,.664-1.369,1.104-2.251,1.274v1.528h-1v-1.528c-.882-.17-1.676-.611-2.251-1.274l-1.306,.768-.507-.862,1.32-.775c-.328-.92-.328-1.735,0-2.654l-1.32-.775,.507-.862,1.306,.768c.575-.664,1.369-1.104,2.251-1.274v-1.528h1v1.528c.882,.17,1.676,.611,2.251,1.274l1.306-.768,.507,.862-1.32,.775Zm2.749-7.251c-.043-1.342-1.141-2.421-2.492-2.421h-2.5V3.793L15.207,0H7.5c-1.378,0-2.5,1.121-2.5,2.5v2.5H2.5c-1.378,0-2.5,1.121-2.5,2.5V24H11.305c-.283-.316-.551-.646-.788-1H1V12H11.305c.322-.359,.668-.696,1.044-1H1v-3.5c0-.827,.673-1.5,1.5-1.5H7.882l4,2h9.618c.827,0,1.5,.673,1.5,1.5v1.018c.354,.237,.684,.504,1,.788v-1.805s0-.031-.008-.079Zm-6.199-5.421h-2.793V1.207l2.793,2.793Zm-9.675,1h-2.118V2.5c0-.827,.673-1.5,1.5-1.5h6.5V5h4v2h-5.882l-4-2Z"/>
</svg>
