<?xml version="1.0" encoding="UTF-8"?>
<svg xmlns="http://www.w3.org/2000/svg" id="Layer_1" data-name="Layer 1" viewBox="0 0 24 24">
  <path d="m19.5,8.999c.381,0,.763-.146,1.053-.436l3.256-3.255-.707-.707-3.102,3.101V0h-1v7.702l-3.102-3.101-.707.707,3.256,3.255c.29.29.672.436,1.053.436Zm-15,0c.381,0,.763-.146,1.053-.436l3.256-3.255-.707-.707-3.102,3.101V0h-1v7.702L.898,4.602l-.707.707,3.256,3.255c.29.29.672.436,1.053.436Zm-2.5,7.501c0,1.379,1.121,2.5,2.5,2.5s2.5-1.121,2.5-2.5-1.121-2.5-2.5-2.5-2.5,1.121-2.5,2.5Zm4,0c0,.827-.673,1.5-1.5,1.5s-1.5-.673-1.5-1.5.673-1.5,1.5-1.5,1.5.673,1.5,1.5Zm3,6v1.5h-1v-1.5c0-.827-.673-1.5-1.5-1.5H2.5c-.827,0-1.5.673-1.5,1.5v1.5H0v-1.5c0-1.379,1.121-2.5,2.5-2.5h4c1.379,0,2.5,1.121,2.5,2.5Zm8-6c0,1.379,1.121,2.5,2.5,2.5s2.5-1.121,2.5-2.5-1.121-2.5-2.5-2.5-2.5,1.121-2.5,2.5Zm4,0c0,.827-.673,1.5-1.5,1.5s-1.5-.673-1.5-1.5.673-1.5,1.5-1.5,1.5.673,1.5,1.5Zm3,6v1.5h-1v-1.5c0-.827-.673-1.5-1.5-1.5h-4c-.827,0-1.5.673-1.5,1.5v1.5h-1v-1.5c0-1.379,1.121-2.5,2.5-2.5h4c1.379,0,2.5,1.121,2.5,2.5Zm-12-11.5c1.379,0,2.5-1.121,2.5-2.5s-1.121-2.5-2.5-2.5-2.5,1.121-2.5,2.5,1.121,2.5,2.5,2.5Zm0-4c.827,0,1.5.673,1.5,1.5s-.673,1.5-1.5,1.5-1.5-.673-1.5-1.5.673-1.5,1.5-1.5Zm2,6h-4c-.821,0-1.488.663-1.498,1.482-.198-.392-.443-.754-.742-1.07.406-.833,1.253-1.412,2.24-1.412h4c.987,0,1.834.579,2.24,1.412-.299.316-.544.678-.742,1.07-.01-.819-.677-1.482-1.498-1.482Z"/>
</svg>
