<svg id="Layer_1" viewBox="0 0 24 24" xmlns="http://www.w3.org/2000/svg" data-name="Layer 1"><path d="m24 8v-1.34l-16.816-6.66h-.725l-6.459 6.8v1.2h5v15h-5v1h16v-1h-5v-15h10v8.04c0 .917.463 1.736 1.209 2.138.488.262.791.769.791 1.322 0 .827-.673 1.5-1.5 1.5s-1.5-.673-1.5-1.5h-1c0 1.378 1.121 2.5 2.5 2.5s2.5-1.122 2.5-2.5c0-.921-.505-1.766-1.316-2.203-.415-.223-.684-.717-.684-1.257v-8.04zm-17.111-7 15.247 6h-20.947zm3.111 20.793-3.793-3.793 3.793-3.793zm-4-5v-7.586l3.793 3.793zm0 2.414 3.793 3.793h-3.793zm4-7.414-3.793-3.793h3.793z"/></svg>