<svg id="Layer_1" viewBox="0 0 24 24" xmlns="http://www.w3.org/2000/svg" data-name="Layer 1"><path d="m14 7c0 1.335.521 2.591 1.465 3.536.943.944 2.199 1.464 3.535 1.464s2.591-.52 3.535-1.464 1.465-2.2 1.465-3.536-.521-2.591-1.469-3.54l-3.531-3.453-3.535 3.458c-.944.944-1.465 2.2-1.465 3.536zm5-5.595 2.828 2.766c.756.755 1.172 1.76 1.172 2.829s-.416 2.073-1.172 2.829c-1.513 1.511-4.147 1.509-5.656 0-.756-.755-1.172-1.76-1.172-2.829s.416-2.073 1.168-2.825zm-5.5 16.595h-1v3.168c0 .883-.401 1.7-1.102 2.241-.502.388-1.102.591-1.716.591-.237 0-.475-.03-.711-.091-5.533-1.439-8.971-6.003-8.971-11.909 0-6.729 5.271-12 12-12 1.249 0 2.453.193 3.586.548l-.833.815c-.882-.229-1.801-.363-2.754-.363-6.27 0-10.999 4.729-10.999 11 0 5.43 3.151 9.622 8.224 10.941.546.143 1.115.024 1.563-.323.454-.351.713-.879.713-1.45v-3.168h-1c-1.93 0-3.5-1.57-3.5-3.5v-3.5h-1v-1h3v-4h1v4h2.681c.165.347.357.682.58 1h-5.26v3.5c0 1.378 1.122 2.5 2.5 2.5h3c1.379 0 2.5-1.122 2.5-2.5v-1.18c.324.154.656.288 1 .39v.79c0 1.93-1.57 3.5-3.5 3.5zm10.495-6.101c.065 5.609-3.801 10.365-8.995 11.706v-1.03c4.379-1.24 7.645-5.118 7.968-9.812.363-.254.717-.535 1.027-.864z"/></svg>