<svg id="Layer_1" viewBox="0 0 24 24" xmlns="http://www.w3.org/2000/svg" data-name="Layer 1"><path d="m13.93 15.17c-1.08-.464-2.22-1.235-3.04-2.064-.825-.815-1.596-1.955-2.061-3.036l2.282-2.281-3.996-3.996-1.967 1.967c-.74.741-1.148 1.742-1.148 2.819 0 2.343 1.429 5.183 3.821 7.597l.004.003c2.414 2.393 5.254 3.821 7.597 3.821 1.076 0 2.077-.408 2.818-1.149l1.967-1.966-3.995-3.996zm3.604 2.974c-.552.552-1.302.856-2.111.856-2.054 0-4.694-1.353-6.892-3.53-2.178-2.198-3.53-4.838-3.53-6.892 0-.81.304-1.56.855-2.112l1.26-1.26 2.582 2.582-2.039 2.038c.507 1.434 1.431 2.908 2.524 3.987 1.086 1.098 2.557 2.023 3.991 2.528l2.038-2.038 2.581 2.582-1.26 1.259zm3.966-18.144h-19c-1.379 0-2.5 1.122-2.5 2.5v21.5h24v-21.5c0-1.378-1.121-2.5-2.5-2.5zm1.5 23h-22v-20.5c0-.827.673-1.5 1.5-1.5h19c.827 0 1.5.673 1.5 1.5z"/></svg>