<svg id="Layer_1" viewBox="0 0 24 24" xmlns="http://www.w3.org/2000/svg" data-name="Layer 1"><path d="m24 3v16c0 2.757-2.243 5-5 5-1.413 0-2.765-.604-3.707-1.657l-5.246-5.864c.044-.429.12-.843.259-1.211l5.734 6.408c.752.841 1.832 1.324 2.961 1.324 2.206 0 4-1.794 4-4v-16c0-1.29-.71-2-2-2-.968 0-1.948.163-2.836.472-.07.023-1.606.528-3.664.528s-3.594-.504-3.658-.526c-.892-.311-1.873-.474-2.841-.474-.193.001-4.331.074-4.924 4.021-.352.027-.694.088-1.025.178.514-5.125 5.89-5.199 5.947-5.199 1.079 0 2.173.183 3.165.528.007.002 1.449.472 3.335.472s3.328-.47 3.343-.475c.984-.343 2.078-.525 3.157-.525 1.851 0 3 1.149 3 3zm-13.074 5.996c-.278-1.419-1.412-2.584-2.82-2.9-1.317-.295-2.644.114-3.55 1.07-.589-.189-1.213-.216-1.824-.081-1.359.302-2.435 1.419-2.676 2.781-.202 1.14.144 2.262.947 3.076.643.65.997 1.515.997 2.433v8.625h1v-8.625c0-1.183-.457-2.297-1.285-3.136-.573-.581-.819-1.382-.675-2.199.169-.953.954-1.767 1.909-1.979.532-.12 1.056-.067 1.556.153l.357.157.239-.308c.671-.862 1.713-1.233 2.786-.992 1.027.23 1.854 1.081 2.057 2.117.187.957-.12 1.915-.821 2.563-1.35 1.248-2.124 3.174-2.124 5.285v6.963h1v-6.963c0-1.833.657-3.492 1.802-4.551.958-.885 1.378-2.189 1.124-3.49z"/></svg>