<?xml version="1.0" encoding="UTF-8"?>
<svg xmlns="http://www.w3.org/2000/svg" id="Layer_1" data-name="Layer 1" viewBox="0 0 24 24">
  <path d="M18,0c-3.364,0-6,5.271-6,12s2.636,12,6,12,6-5.271,6-12S21.364,0,18,0Zm5,12c0,3.097-.621,5.937-1.594,7.958-.608-.1-1.112-.547-1.236-1.166l-.953-4.792h-2.217v-.395c.354-.804,.709-1.656,1.064-2.509,.996-2.394,2.025-4.868,3.018-6.096,.152-.203,.334-.383,.502-.575,.87,1.99,1.416,4.669,1.416,7.574Zm-5,11c-2.71,0-5-5.037-5-11S15.29,1,18,1c1.158,0,2.238,.925,3.097,2.445-.287,.305-.562,.619-.804,.942-1.072,1.324-2.082,3.754-3.152,6.326-.366,.88-.732,1.76-1.098,2.584l-.043,1.703h2.396l.793,3.987c.181,.914,.857,1.625,1.712,1.892-.825,1.323-1.829,2.12-2.901,2.12ZM10,13.5v1.5h-2.396l-.793,3.987c-.231,1.166-1.263,2.013-2.452,2.013h-1.358v3H0v-1H2v-3h2.358c.713,0,1.333-.508,1.472-1.208l.953-4.792h2.217v-.395c-1.189-2.632-2.678-7.267-4.07-9.023l.003-.002c-.004-.005-.01-.007-.014-.012C3.645,2.868,1.922,1.685,0,1.067V0C2.235,.645,4.237,1.999,5.707,3.954h0c1.492,1.845,4.293,9.546,4.293,9.546Z"/>
</svg>
