<svg id="Layer_1" viewBox="0 0 24 24" xmlns="http://www.w3.org/2000/svg" data-name="Layer 1"><path d="m11.159 12.845c-.333-.335-.833-.436-1.265-.257l-9.27 3.787.189.463c.583 1.427 1.43 2.704 2.518 3.798 1.088 1.093 2.362 1.946 3.786 2.536l.462.191 3.832-9.251c.18-.437.082-.934-.25-1.268zm-.673.885-3.444 8.316c-1.118-.525-2.126-1.235-3.002-2.115-.876-.881-1.582-1.893-2.101-3.013l8.333-3.404c.088-.037.15.008.179.036.029.029.072.092.036.18zm-5.486-3.729c-.552 0-1-.448-1-1s.448-1 1-1 1 .448 1 1-.448 1-1 1zm9-1c0 .552-.448 1-1 1s-1-.448-1-1 .448-1 1-1 1 .448 1 1zm-4-3c-.552 0-1-.448-1-1s.448-1 1-1 1 .448 1 1-.448 1-1 1zm9 4c-.552 0-1-.448-1-1s.448-1 1-1 1 .448 1 1-.448 1-1 1zm-2 5c-.552 0-1-.448-1-1s.448-1 1-1 1 .448 1 1-.448 1-1 1zm-3 3c.552 0 1 .448 1 1s-.448 1-1 1-1-.448-1-1 .448-1 1-1zm10-6c0 6.617-5.383 12-12 12-.828 0-1.638-.085-2.419-.245l.393-.95c.658.123 1.333.195 2.026.195 6.065 0 11-4.935 11-11s-4.935-11.001-11-11.001-11 4.935-11 11c0 .678.071 1.339.189 1.984l-.951.388c-.154-.767-.238-1.56-.238-2.372 0-6.617 5.383-12 12-12s12 5.383 12 12zm-17 5.999c0 .552-.448 1-1 1s-1-.448-1-1 .448-1 1-1 1 .448 1 1z"/></svg>