<?xml version="1.0" encoding="UTF-8"?>
<svg xmlns="http://www.w3.org/2000/svg" id="Layer_1" data-name="Layer 1" viewBox="0 0 24 24">
  <path d="M21.5,2H12.118L8.118,0H2.5C1.122,0,0,1.122,0,2.5V22H10.298c-.2-.32-.381-.653-.538-1H1V7H23v4.026c.36,.306,.695,.641,1,1.003V4.5c0-1.378-1.121-2.5-2.5-2.5ZM1,6V2.5c0-.827,.673-1.5,1.5-1.5H7.882l4,2h9.618c.827,0,1.5,.673,1.5,1.5v1.5H1Zm16.5,5c-3.584,0-6.5,2.916-6.5,6.5s2.916,6.5,6.5,6.5,6.5-2.916,6.5-6.5-2.916-6.5-6.5-6.5Zm0,12c-3.032,0-5.5-2.467-5.5-5.5s2.468-5.5,5.5-5.5,5.5,2.467,5.5,5.5-2.468,5.5-5.5,5.5Zm2.697-7.49l-1.99,1.99,1.99,1.99-.707,.707-1.99-1.99-1.99,1.99-.707-.707,1.99-1.99-1.99-1.99,.707-.707,1.99,1.99,1.99-1.99,.707,.707Z"/>
</svg>
