<?xml version="1.0" encoding="UTF-8"?>
<svg xmlns="http://www.w3.org/2000/svg" id="Layer_1" data-name="Layer 1" viewBox="0 0 24 24">
  <path d="m12,0C5.383,0,0,5.383,0,12s5.383,12,12,12,12-5.383,12-12S18.617,0,12,0Zm5.058,15.188l2.377-.709-.285-.958-2.381.71c-.177-.721-.269-1.47-.269-2.231s.092-1.509.269-2.231l2.381.71.285-.958-2.377-.709c.597-1.651,1.653-3.117,3.071-4.216,1.783,1.956,2.871,4.555,2.871,7.403s-1.089,5.448-2.871,7.403c-1.418-1.099-2.474-2.565-3.071-4.216ZM3.811,4.665c1.437,1.068,2.51,2.515,3.118,4.152l-2.363.705.285.958,2.374-.708c.181.72.275,1.468.275,2.229s-.094,1.509-.275,2.229l-2.374-.708-.285.958,2.363.705c-.608,1.637-1.681,3.084-3.118,4.152-1.746-1.948-2.81-4.519-2.81-7.335s1.064-5.387,2.81-7.335Zm.707,15.39c1.557-1.19,2.716-2.785,3.372-4.585l2.426.723.285-.958-2.416-.72c.207-.812.316-1.656.316-2.515s-.108-1.703-.316-2.515l2.416-.72-.285-.958-2.426.723c-.655-1.8-1.815-3.395-3.372-4.585,1.965-1.826,4.595-2.945,7.483-2.945,2.855,0,5.459,1.094,7.417,2.884-1.535,1.22-2.676,2.832-3.319,4.642l-2.413-.719-.285.958,2.41.718c-.203.813-.309,1.658-.309,2.517s.106,1.704.309,2.517l-2.41.718.285.958,2.413-.719c.643,1.81,1.784,3.423,3.319,4.642-1.957,1.79-4.562,2.884-7.417,2.884-2.887,0-5.518-1.119-7.483-2.945Z"/>
</svg>
