<?xml version="1.0" encoding="UTF-8"?>
<svg xmlns="http://www.w3.org/2000/svg" id="Layer_1" data-name="Layer 1" viewBox="0 0 24 24">
  <path d="m21,16c0,.552-.448,1-1,1s-1-.448-1-1,.448-1,1-1,1,.448,1,1Zm3,0c0,4.411-3.589,8-8,8-1.853,0-3.629-.636-5.055-1.799-.623,1.158-1.431,1.761-1.483,1.799H2.538c-.098-.071-2.538-1.898-2.538-6.5,0-2.19.896-3.819,1.686-5.257.676-1.229,1.314-2.391,1.314-3.743,0-.431-.204-1.079-.419-1.766-.272-.867-.581-1.85-.581-2.734C2,1.794,3.794,0,6,0s4,1.794,4,4c0,.885-.309,1.867-.581,2.734-.215.687-.419,1.335-.419,1.766,0,.919.295,1.749.696,2.573,1.511-1.938,3.813-3.073,6.304-3.073,4.411,0,8,3.589,8,8ZM3,4c0,.731.272,1.597.535,2.435.174.556.342,1.09.419,1.565h4.091c.078-.475.245-1.009.419-1.565.263-.838.535-1.704.535-2.435,0-1.654-1.346-3-3-3s-3,1.346-3,3Zm8,13.5c0-1.933-.794-3.378-1.562-4.775-.661-1.203-1.289-2.346-1.415-3.725H3.977c-.126,1.378-.753,2.521-1.415,3.725-.768,1.397-1.562,2.842-1.562,4.775,0,3.531,1.452,5.11,1.881,5.5h6.238c.426-.386,1.881-1.965,1.881-5.5Zm12-1.5c0-3.86-3.14-7-7-7-2.334,0-4.478,1.139-5.786,3.06.033.061.067.122.1.183.791,1.438,1.686,3.067,1.686,5.257,0,1.569-.268,2.804-.626,3.754,1.28,1.128,2.915,1.746,4.626,1.746,3.86,0,7-3.14,7-7Zm-7-1c-.552,0-1,.448-1,1s.448,1,1,1,1-.448,1-1-.448-1-1-1Zm2-3c-.552,0-1,.448-1,1s.448,1,1,1,1-.448,1-1-.448-1-1-1Z"/>
</svg>
