<svg id="Layer_1" viewBox="0 0 24 24" xmlns="http://www.w3.org/2000/svg" data-name="Layer 1"><path d="m17 15c-1.103 0-2 .897-2 2s.897 2 2 2 2-.897 2-2-.897-2-2-2zm0 3c-.551 0-1-.448-1-1s.449-1 1-1 1 .448 1 1-.449 1-1 1zm5-1c0-.353-.046-.715-.14-1.101l1.942-1.133-1.513-2.591-1.936 1.13c-.537-.488-1.167-.851-1.853-1.068v-2.238h-3v2.238c-.687.217-1.316.58-1.853 1.068l-1.936-1.13-1.513 2.591 1.942 1.133c-.094.386-.14.748-.14 1.101s.046.715.14 1.101l-1.942 1.133 1.513 2.591 1.936-1.13c.537.488 1.167.852 1.853 1.067v2.238h3v-2.238c.687-.216 1.316-.579 1.853-1.067l1.936 1.13 1.513-2.591-1.942-1.133c.094-.386.14-.748.14-1.101zm.434 2.593-.504.864-1.747-1.021c-.683.83-1.629 1.378-2.683 1.544v2.02h-1v-2.02c-.912-.16-1.772-.556-2.41-1.253l-.272-.291-1.747 1.021-.504-.864 1.755-1.023c-.414-1.081-.414-2.057 0-3.139l-1.755-1.023.504-.864 1.747 1.021c.682-.83 1.629-1.376 2.683-1.545v-2.019h1v2.019c1.054.169 2.001.715 2.683 1.545l1.747-1.021.504.864-1.755 1.023c.414 1.081.414 2.057 0 3.139l1.755 1.023zm-13.934 3.407c-4.065 0-7.5-1.603-7.5-3.5v-2.854c1.38 1.371 4.06 2.296 7.229 2.347-.074-.329-.135-.663-.172-1.004-3.868-.112-7.057-1.661-7.057-3.489v-2.851c1.419 1.411 4.213 2.351 7.5 2.351h.023c.123-.349.267-.687.43-1.014-.151.005-.3.015-.454.015-4.065 0-7.5-1.603-7.5-3.5v-2.851c1.419 1.411 4.213 2.351 7.5 2.351s6.081-.94 7.5-2.351v1.409c.329-.036.662-.059 1-.059v-3.5c.001-2.523-3.732-4.5-8.499-4.5s-8.5 1.977-8.5 4.5v15c0 2.523 3.733 4.5 8.5 4.5.912 0 1.769-.091 2.586-.227-.313-.274-.607-.568-.88-.882-.552.064-1.118.109-1.706.109zm0-22c4.065 0 7.5 1.603 7.5 3.5s-3.435 3.5-7.5 3.5-7.5-1.603-7.5-3.5 3.435-3.5 7.5-3.5z"/></svg>