<svg id="Layer_1" viewBox="0 0 24 24" xmlns="http://www.w3.org/2000/svg" data-name="Layer 1"><path d="m16.501 13.998h-9.002c-2.482 0-4.501 2.019-4.501 4.501v5.501h1v-5.501c0-1.93 1.571-3.501 3.501-3.501h2.388l-1.476 6.001h7.176l-1.475-6.001h2.388c1.93 0 3.501 1.571 3.501 3.501v5.501h1v-5.501c0-2.482-2.019-4.501-4.501-4.501zm-2.189 6.001h-4.625l1.229-5.001h2.166l1.229 5.001zm-8.313-7.002c1.103 0 2-.898 2-2 0-.224-.045-.435-.113-.636 1.101 1.04 2.561 1.637 4.114 1.637s3.013-.597 4.114-1.636c-.068.201-.113.413-.113.636 0 1.103.898 2 2 2s2-.898 2-2c0-.6-.271-1.133-.692-1.5.42-.367.692-.9.692-1.5 0-.73-.397-1.363-.983-1.713.297-.349.483-.795.483-1.288 0-.931-.639-1.715-1.501-1.937.042-1.214-1.078-2.212-2.263-2.046-.517-.914-1.808-1.291-2.737-.745-.607-.356-1.394-.356-2 0-.929-.545-2.219-.169-2.737.745-1.198-.163-2.305.833-2.264 2.045-.863.223-1.501 1.007-1.501 1.938 0 .493.186.939.483 1.288-.586.349-.983.983-.983 1.713 0 .6.271 1.133.691 1.5-.42.367-.691.9-.691 1.5 0 1.103.897 2 2 2zm10.158-4.227c-.932 1.394-2.48 2.227-4.157 2.227s-3.225-.833-4.157-2.227c.1-.238.156-.5.156-.774 0-.493-.186-.939-.483-1.288.603-.358 1.008-1.029.982-1.777.522-.136.971-.482 1.237-.953.438.059.885-.032 1.264-.255.607.356 1.394.356 2 0 .379.223.832.314 1.264.255.267.472.715.818 1.238.953-.026.748.379 1.42.982 1.777-.297.349-.483.795-.483 1.288 0 .274.056.536.156.774zm1.844 3.227c-.552 0-1-.448-1-1s.448-1 1-1 1 .448 1 1-.448 1-1 1zm1.001-4.001c0 .552-.448 1-1 1s-1-.448-1-1 .448-1 1-1 1 .448 1 1zm-1.486-4.001c.545.008.986.453.986 1 0 .552-.448 1-1 1s-1-.448-1-1c0-1.001 1.015-1 1.015-1zm-9.146-1.927.522.21.147-.543c.183-.673 1.097-.956 1.625-.48l.336.303.336-.303c.371-.336.958-.336 1.329 0l.336.303.335-.303c.529-.478 1.443-.193 1.625.48l.147.542.523-.209c.653-.265 1.371.25 1.371.927 0 1.023-1 1-1 1-.447 0-.842-.305-.96-.74l-.147-.542-.523.209c-.358.145-.754.067-1.036-.188l-.335-.303-.336.303c-.371.336-.958.336-1.329 0l-.336-.303-.336.303c-.281.255-.68.33-1.036.188l-.522-.21-.147.543c-.119.436-.533.74-1.024.732 0 0-.936.017-.936-.991 0-.677.718-1.191 1.371-.927zm-1.825 1.936c.821 0 .968.765.954.991 0 .552-.449 1-1 1s-1-.448-1-1c0-.546.44-.991 1.047-.991zm-.546 2.992c.551 0 1 .448 1 1s-.449 1-1 1-1-.448-1-1 .449-1 1-1zm0 3.001c.551 0 1 .448 1 1s-.449 1-1 1-1-.448-1-1 .449-1 1-1z"/></svg>