<svg id="Layer_1" viewBox="0 0 24 24" xmlns="http://www.w3.org/2000/svg" data-name="Layer 1"><path d="m24 9.001v-1.454c0-1.145-.636-2.173-1.659-2.684l-9.101-4.547c-.776-.422-1.703-.422-2.465-.008l-9.115 4.555c-1.024.511-1.66 1.539-1.66 2.684v1.454h3v11h-3v4h24v-4h-3v-11zm-23-1.454c0-.763.424-1.448 1.106-1.789l9.131-4.563c.478-.259 1.047-.26 1.541.008l9.116 4.555c.682.341 1.106 1.026 1.106 1.789v.454h-22zm15 12.454v-11h2v11zm-8-11v11h-2v-11zm1 0h1v11h-1zm2 0h2v11h-2zm3 0h1v11h-1zm-10 0h1v11h-1zm19 14h-22v-2h22zm-3-3h-1v-11h1zm-7-15c0 .552-.448 1-1 1s-1-.448-1-1 .448-1 1-1 1 .448 1 1z"/></svg>