<svg id="Layer_1" viewBox="0 0 24 24" xmlns="http://www.w3.org/2000/svg" data-name="Layer 1"><path d="m18.231 6.25-.699-.403c.018 1.831-.66 3.687-2.163 4.799l-.965.754 1.217.137c1.794.172 3.309 1.331 4.263 2.835.637-1.019 1.149-2.193 1.116-3.373 0-1.945-1.061-3.766-2.769-4.75zm1.481 6.288c-.812-.856-1.84-1.478-2.966-1.795.831-.89 1.392-1.992 1.625-3.181 1.019.848 1.628 2.107 1.628 3.438 0 .523-.097 1.038-.287 1.538zm-.713 4.462c0 1.82-1.263 3.408-3 3.858v3.142h-1v-3.983l.429-.062c1.466-.212 2.571-1.482 2.571-2.955 0-1.654-1.346-3-3-3-.811 0-1.571.321-2.143.905l-.357.365-.357-.365c-.571-.584-1.332-.905-2.143-.905-1.654 0-3 1.346-3 3 0 1.473 1.105 2.743 2.571 2.955l.429.062v3.983h-1v-3.142c-1.737-.45-3-2.039-3-3.858 0-1.337.666-2.517 1.677-3.243-.748-.149-1.462-.511-2.041-1.09-1.287-1.287-1.517-3.303-.606-4.85l-5.029-5.029v-1.414l6.332 6.332-.26.347c-.887 1.186-.771 2.866.271 3.908 1.171 1.17 3.074 1.169 4.243 0 .573-.573.884-1.338.875-2.155l-.006-.511.512.006c1.621.051 3.069-1.37 3.033-2.996 0-.801-.312-1.555-.879-2.121-1.041-1.042-2.723-1.159-3.907-.271l-.347.259-4.17-4.172h1.414l2.868 2.868c1.549-.914 3.562-.68 4.85.607.756.755 1.172 1.76 1.172 2.828s-.416 2.073-1.172 2.829c-.65.651-1.486 1.048-2.391 1.145-.097.905-.494 1.74-1.145 2.391-.159.159-.334.291-.511.417.627.125 1.215.391 1.718.797.708-.571 1.58-.881 2.5-.881 2.206 0 4 1.794 4 4z"/></svg>