<svg id="Layer_1" viewBox="0 0 24 24" xmlns="http://www.w3.org/2000/svg" data-name="Layer 1"><path d="m8.5 0c-1.909 0-3.467 1.537-3.5 3.439-1.477.318-3 1.392-3 3.561v.476c-1.328.884-2 2.055-2 3.483 0 .987.314 1.929.949 2.779-.581.753-.896 1.668-.896 2.622 0 1.703.98 3.21 2.52 3.912.477 2.144 2.438 3.728 4.677 3.728 2.36 0 4.75-1.546 4.75-4.5 0 0 .006-4.037 0-16 0-1.93-1.57-3.5-3.5-3.5zm2.5 19.5c0 2.298-1.887 3.5-3.75 3.5-1.848 0-3.457-1.359-3.743-3.163l-.045-.286-.271-.103c-1.299-.496-2.139-1.708-2.139-3.088 0-.853.329-1.665.927-2.289l.354-.369-.509-.456c-.54-.668-.826-1.459-.826-2.287 0-1.155.575-2.064 1.759-2.781l.241-.146v-1.033c0-1.743 1.338-2.509 2.59-2.645l.502-.055c-.014-.151-.087-.656-.092-.8 0-1.378 1.122-2.5 2.5-2.5s2.5 1.122 2.5 2.5c.003 5 0 16 0 16zm13-9.5c0 2.324-1.01 4.529-2.772 6.051-.78.675-1.228 1.642-1.228 2.653v3.296h-6.634c.143-.32.26-.653.355-1h5.279v-2.296c0-.239.04-.471.077-.704h-5.077v-1h1.5v-5.551c-1.14-.232-2-1.242-2-2.449h1c0 .827.673 1.5 1.5 1.5s1.5-.673 1.5-1.5h1c0 1.208-.86 2.217-2 2.45v5.55h2.856c.268-.645.673-1.235 1.219-1.706 1.541-1.331 2.425-3.261 2.425-5.294 0-3.139-2.111-5.914-5.133-6.749-.863-.238-1.762-.309-2.667-.207-.415.046-.818.136-1.21.255-.013-.345-.054-.682-.128-1.008.399-.112.809-.195 1.227-.241 1.032-.115 2.058-.035 3.043.237 3.455.954 5.867 4.125 5.867 7.712z"/></svg>