<?xml version="1.0" encoding="UTF-8"?>
<svg xmlns="http://www.w3.org/2000/svg" id="Layer_1" data-name="Layer 1" viewBox="0 0 24 24">
  <path d="m0,12h24v1H0v-1Zm19.53,3.487c-.883.67-2.178.67-3.061,0-.852-.65-2.088-.65-2.939,0-.883.67-2.179.67-3.061,0-.852-.648-2.088-.648-2.939,0-.882.67-2.179.67-3.061,0-.852-.648-2.088-.648-2.939,0-.441.335-.97.513-1.53.513v1c.781,0,1.519-.248,2.136-.718.493-.375,1.235-.375,1.729,0,1.233.939,3.038.939,4.271,0,.493-.375,1.235-.375,1.729,0,1.233.939,3.039.939,4.271,0,.492-.375,1.236-.375,1.729,0,1.232.939,3.039.939,4.271,0,.492-.375,1.236-.375,1.729,0,.616.47,1.355.718,2.136.718v-1c-.56,0-1.089-.178-1.53-.513-.852-.65-2.088-.65-2.939,0Zm-13.53,6.513c-.552,0-1,.448-1,1s.448,1,1,1,1-.448,1-1-.448-1-1-1Zm3-3c-.552,0-1,.448-1,1s.448,1,1,1,1-.448,1-1-.448-1-1-1Zm-6,0c-.552,0-1,.448-1,1s.448,1,1,1,1-.448,1-1-.448-1-1-1Zm12,0c-.552,0-1,.448-1,1s.448,1,1,1,1-.448,1-1-.448-1-1-1Zm6,0c-.552,0-1,.448-1,1s.448,1,1,1,1-.448,1-1-.448-1-1-1Zm-9,3c-.552,0-1,.448-1,1s.448,1,1,1,1-.448,1-1-.448-1-1-1Zm6,0c-.552,0-1,.448-1,1s.448,1,1,1,1-.448,1-1-.448-1-1-1ZM22.5,0h-5.5v1h5.293l-8.793,8.793-1.754-1.754c-.146.311-.338.593-.568.846l2.322,2.322L23,1.707v5.293h1V1.5c0-.827-.673-1.5-1.5-1.5ZM2.5,8c1.378,0,2.5-1.122,2.5-2.5V0h-1v5.5c0,.827-.673,1.5-1.5,1.5s-1.5-.673-1.5-1.5V0H0v5.5c0,1.378,1.122,2.5,2.5,2.5Zm5.539-.154c.369.19.805.205,1.191.041.404-.168.709-.537.814-.985l1.725-6.902h-1.03l-1.667,6.668c-.033.143-.118.251-.228.297-.116.049-.244.046-.351-.009-.105-.054-.181-.149-.206-.261L6.519,0h-1.034l1.832,6.935c.089.385.353.722.722.911Z"/>
</svg>
