<svg id="Layer_1" viewBox="0 0 24 24" xmlns="http://www.w3.org/2000/svg" data-name="Layer 1"><path d="m24 4.591v17.145l-12 2.182-12-2.182v-17.145c0-.771.339-1.496.931-1.989.591-.494 1.363-.698 2.123-.56l2.118.385c-.139.308-.257.624-.353.952l-1.944-.354c-.463-.083-.94.041-1.304.344s-.572.748-.572 1.221v16.311l10.5 1.909v-6.81h1v6.81l10.5-1.909v-16.31c0-.473-.208-.918-.572-1.221-.363-.303-.839-.427-1.304-.344l-1.94.353c-.096-.326-.21-.644-.348-.953l2.109-.384c.758-.139 1.532.065 2.123.56.592.494.931 1.219.931 1.989zm-17.398-.161c.403-2.128 2.093-3.858 4.205-4.304 1.666-.352 3.359.049 4.655 1.1 1.295 1.05 2.038 2.608 2.038 4.274 0 1.963-1.07 3.789-2.792 4.762-.437.247-.708.751-.708 1.315v2.422h-4v-2.402c0-.576-.276-1.09-.72-1.343-2.075-1.179-3.126-3.466-2.679-5.825zm6.471 6.569h-2.148c.044.194.075.392.075.598v1.402h2v-1.422c0-.199.031-.39.073-.578zm-3.298-1.614c.267.152.479.371.664.614h1.062v-3.071c-.86-.224-1.5-1-1.5-1.929h1c0 .551.449 1 1 1s1-.449 1-1h1c0 .929-.64 1.705-1.5 1.929v3.071h1.055c.184-.241.396-.458.661-.608 1.409-.797 2.284-2.288 2.284-3.892 0-1.363-.608-2.638-1.668-3.498-1.06-.859-2.451-1.186-3.818-.898-1.722.364-3.1 1.775-3.43 3.513-.366 1.932.494 3.804 2.19 4.769z"/></svg>