<svg id="Layer_1" viewBox="0 0 24 24" xmlns="http://www.w3.org/2000/svg" data-name="Layer 1"><path d="m3 9v8h9v-1.727l3 2.218v-8.982l-3 2.217v-1.726zm8 7h-7v-6h7zm3-5.509v5.018l-2-1.479v-2.062l2-1.478zm6-2.491c2.206 0 4-1.794 4-4s-1.794-4-4-4-4 1.794-4 4 1.794 4 4 4zm0-7c1.654 0 3 1.346 3 3s-1.346 3-3 3-3-1.346-3-3 1.346-3 3-3zm3 8.191c.359-.208.693-.452 1-.728v11.537h-11.5v3h5.5v1h-12v-1h5.5v-3h-11.5v-15.5c0-1.379 1.122-2.5 2.5-2.5h11.849c-.114.322-.201.656-.259 1h-11.59c-.827 0-1.5.673-1.5 1.5v14.5h22z"/></svg>