<?xml version="1.0" encoding="UTF-8"?>
<svg xmlns="http://www.w3.org/2000/svg" id="Layer_1" data-name="Layer 1" viewBox="0 0 24 24">
  <path d="M21.5,2h-3.5V0h-1V2H7V0h-1V2H2.5C1.121,2,0,3.122,0,4.5V24H24V4.5c0-1.378-1.121-2.5-2.5-2.5ZM2.5,3H21.5c.827,0,1.5,.673,1.5,1.5v3.5H1v-3.5c0-.827,.673-1.5,1.5-1.5ZM1,23V9H23v14H1Zm15-12h1v3c0,.551-.448,1-1,1h-3v-1h2.422c-.689-1.188-1.951-2-3.422-2-1.859,0-3.411,1.28-3.858,3h-1.041c.465-2.279,2.484-4,4.899-4,1.638,0,3.088,.798,4,2.019v-2.019Zm-.041,6h1.041c-.465,2.279-2.484,4-4.899,4-1.638,0-3.087-.797-4-2.018v2.018h-1v-3c0-.551,.448-1,1-1h3v1h-2.422c.689,1.188,1.951,2,3.422,2,1.859,0,3.411-1.28,3.858-3Z"/>
</svg>
