<?xml version="1.0" encoding="UTF-8"?>
<svg xmlns="http://www.w3.org/2000/svg" id="Layer_1" data-name="Layer 1" viewBox="0 0 24 24">
  <path d="M22,9.643v-2.143c0-1.378-1.122-2.5-2.5-2.5h-3c-1.378,0-2.5,1.122-2.5,2.5v2.152c-.385,.332-.72,.707-1,1.117v-1.769c0-1.677-.729-3.262-2-4.357V2.5c0-1.378-1.122-2.5-2.5-2.5H4.5c-1.378,0-2.5,1.122-2.5,2.5v2.152C.73,5.747,0,7.314,0,9v15H1V9c0-1.073,.358-2.088,1-2.912v2.412c0,1.93,1.57,3.5,3.5,3.5h2c1.93,0,3.5-1.57,3.5-3.5v-2.411c.642,.826,1,1.846,1,2.911v15h1V14c0-1.073,.358-2.088,1-2.912v2.412c0,1.93,1.57,3.5,3.5,3.5h1c1.93,0,3.5-1.57,3.5-3.5v-2.411c.642,.826,1,1.846,1,2.911v10h1V14c0-1.677-.729-3.262-2-4.357Zm-16.5,1.357c-.28,0-.545-.057-.796-.142,.473-.533,1.14-.858,1.854-.858,.701,0,1.357,.314,1.828,.83-.276,.105-.573,.17-.885,.17h-2Zm4.5-2.5c0,.703-.294,1.337-.763,1.791-.663-.803-1.638-1.291-2.68-1.291-1.066,0-2.066,.507-2.729,1.345-.505-.458-.828-1.112-.828-1.845V2.5c0-.827,.673-1.5,1.5-1.5h4c.827,0,1.5,.673,1.5,1.5v6Zm7.5,7.5c-.435,0-.838-.122-1.195-.318,.459-.429,1.06-.682,1.695-.682s1.236,.253,1.695,.682c-.357,.196-.76,.318-1.195,.318h-1Zm3.5-2.5c0,.584-.21,1.115-.547,1.541-.651-.65-1.524-1.041-2.453-1.041s-1.802,.391-2.453,1.041c-.337-.426-.547-.957-.547-1.541V7.5c0-.827,.673-1.5,1.5-1.5h3c.827,0,1.5,.673,1.5,1.5v6Z"/>
</svg>
