<svg id="Layer_1" viewBox="0 0 24 24" xmlns="http://www.w3.org/2000/svg" data-name="Layer 1"><path d="m19 22h2v2h-2zm3-1h2v-2h-2zm-3 0h2v-2h-2zm-6-8h5v5h-5zm1 4h3v-3h-3zm-1 2h5v5h-5zm1 4h3v-3h-3zm10-10v5h-5v-5zm-1 1h-3v3h3zm-8 2h1v-1h-1zm7-1h-1v1h1zm-7 7h1v-1h-1zm2.217-14.217c-1.794-1.794-4.18-2.783-6.717-2.783s-4.923.988-6.717 2.783l.707.707c1.605-1.605 3.74-2.49 6.01-2.49s4.405.884 6.01 2.49zm-11.313 2.121.707.707c2.145-2.145 5.634-2.145 7.778 0l.707-.707c-2.534-2.534-6.658-2.534-9.192 0zm2.122 2.122.707.707c.944-.944 2.591-.944 3.535 0l.707-.707c-1.321-1.322-3.628-1.322-4.949 0zm2.475 1.975c-.552 0-1 .448-1 1s.448 1 1 1 1-.448 1-1-.448-1-1-1zm-9.501-3.501c0-5.238 4.262-9.5 9.5-9.5s9.5 4.262 9.5 9.5c0 .169-.017.333-.025.5h1c.008-.167.025-.331.025-.5 0-5.79-4.71-10.5-10.5-10.5s-10.5 4.71-10.5 10.5 4.71 10.5 10.5 10.5c.169 0 .333-.017.5-.025v-1c-.167.009-.331.025-.5.025-5.238 0-9.5-4.262-9.5-9.5z"/></svg>