<svg id="Layer_1" viewBox="0 0 24 24" xmlns="http://www.w3.org/2000/svg" data-name="Layer 1"><path d="m16.179 7.784.643.766 2.179-1.827v4.277h.801l3.637-2.963-2.992-2.527 2.99-2.509-3.633-3.001h-.803v4.29l-2.178-1.839-.645.764 2.714 2.293zm3.821-6.324 1.873 1.547-1.873 1.571zm0 4.983 1.871 1.58-1.871 1.524zm.75 7.639c.086-.359.148-.721.19-1.082h-1.011c-.061.519-.194 1.061-.349 1.568l2.73 1.546-1.478 2.61-2.733-1.547c-.97 1.108-2.208 1.942-3.6 2.392v-3.259c1.55-.896 2.5-2.521 2.5-4.311 0-2.1-1.339-3.987-3.332-4.695l-.668-.237v3.933c0 .552-.449 1-1 1s-1-.448-1-1v-3.934l-.667.238c-1.993.708-3.333 2.596-3.333 4.695 0 1.79.95 3.414 2.5 4.311v3.259c-1.392-.45-2.631-1.284-3.6-2.392l-2.733 1.547-1.478-2.61 2.73-1.546c-.258-.835-.426-1.718-.419-2.568-.007-.85.161-1.734.419-2.568l-2.73-1.546 1.478-2.611 2.733 1.548c1.197-1.383 2.812-2.324 4.6-2.683v-3.14h3v3.14c.325.071.691.176 1 .291v-4.431h-5v3.361c-1.425.412-2.72 1.167-3.784 2.207l-2.926-1.657-2.463 4.352 2.924 1.655c-.166.692-.25 1.391-.25 2.082s.084 1.39.25 2.082l-2.924 1.655 2.464 4.351 2.926-1.657c1.062 1.039 2.362 1.777 3.784 2.189v3.38h5v-3.38c1.423-.413 2.721-1.15 3.783-2.189l2.927 1.657 2.464-4.351zm-7.25 1.621v7.297h-3v-7.297c-1.499-.645-2.511-2.077-2.5-3.703 0-1.432.78-2.739 2-3.445v2.445c0 1.103.897 2 2 2s2-.897 2-2v-2.445c1.22.706 2 2.014 2 3.445.011 1.626-1.001 3.058-2.5 3.703z"/></svg>