<svg id="Layer_1" viewBox="0 0 24 24" xmlns="http://www.w3.org/2000/svg" data-name="Layer 1"><path d="m19 16c0-.552.448-1 1-1s1 .448 1 1-.448 1-1 1-1-.448-1-1zm-10-13c-.552 0-1 .448-1 1s.448 1 1 1 1-.448 1-1-.448-1-1-1zm11 0c-.552 0-1 .448-1 1s.448 1 1 1 1-.448 1-1-.448-1-1-1zm4-3v24h-21.5c-1.378 0-2.5-1.122-2.5-2.5v-15c0-1.378 1.122-2.5 2.5-2.5h.5v1h-.5c-.827 0-1.5.673-1.5 1.5s.673 1.5 1.5 1.5h2.5v-8zm-1 9h-20.5c-.562 0-1.082-.187-1.5-.501v13.001c0 .827.673 1.5 1.5 1.5h20.5zm-10.936-1h4.872c.038-.171.064-.338.064-.5 0-1.378-1.121-2.5-2.5-2.5s-2.5 1.122-2.5 2.5c0 .162.026.329.064.5zm10.936 0v-7h-17v7h5.046c-.026-.168-.046-.334-.046-.5 0-1.93 1.57-3.5 3.5-3.5s3.5 1.57 3.5 3.5c0 .166-.019.332-.046.5z"/></svg>