<svg id="Layer_1" viewBox="0 0 24 24" xmlns="http://www.w3.org/2000/svg" data-name="Layer 1"><path d="m24 20v-15.5c0-1.378-1.122-2.5-2.5-2.5h-2.306c.122.32.211.653.258 1h2.048c.827 0 1.5.673 1.5 1.5v10.5h-22v-10.5c0-.827.673-1.5 1.5-1.5h2.048c.047-.347.136-.68.258-1h-2.306c-1.378 0-2.5 1.122-2.5 2.5v15.5h11.5v3h-5.5v1h12v-1h-5.5v-3zm-23-4h22v3h-22zm10.554-2.434.425.213c1.584-.667 5.375-2.21 5.521-6.636v-3.541c0-1.08-.688-2.033-1.713-2.373l-3.787-1.256-3.787 1.256c-1.025.339-1.713 1.293-1.713 2.373v3.542c0 3.615 3.869 5.83 5.054 6.423zm-4.054-9.964c0-.648.413-1.22 1.028-1.423l3.472-1.151 3.472 1.151c.615.204 1.028.776 1.028 1.424v3.542c0 3.469-3.409 5.11-4.454 5.53l-.022.009c-1.075-.538-4.516-2.481-4.523-5.539v-3.543z"/></svg>