<?xml version="1.0" encoding="UTF-8"?>
<svg xmlns="http://www.w3.org/2000/svg" id="Layer_1" data-name="Layer 1" viewBox="0 0 24 24">
  <path d="M11.096,14c0,.552-.448,1-1,1s-1-.448-1-1,.448-1,1-1,1,.448,1,1Zm6.071-7.071c-1.889-1.889-4.4-2.929-7.071-2.929s-5.182,1.04-7.071,2.929l.707,.707c1.7-1.7,3.96-2.636,6.364-2.636s4.664,.936,6.364,2.636l.707-.707ZM7.268,11.171l.707,.707c1.169-1.17,3.073-1.17,4.243,0l.707-.707c-1.56-1.56-4.097-1.56-5.657,0Zm7.778-2.121c-1.322-1.322-3.08-2.05-4.95-2.05s-3.627,.728-4.95,2.05l.707,.707c2.34-2.339,6.146-2.339,8.485,0l.707-.707Zm-14.046,.95C1,5.038,5.038,1,10,1c4.67,0,8.518,3.576,8.956,8.133,.344,.06,.683,.134,1.012,.233C19.639,4.148,15.3,0,10,0,4.486,0,0,4.486,0,10c0,5.3,4.148,9.639,9.367,9.968-.1-.329-.174-.668-.233-1.012-4.557-.438-8.133-4.286-8.133-8.956Zm16.5,9c-.552,0-1,.448-1,1s.448,1,1,1,1-.448,1-1-.448-1-1-1Zm-3.536-2.536l.707,.707c1.56-1.56,4.098-1.56,5.657,0l.707-.707c-1.949-1.949-5.122-1.949-7.071,0Zm1.415,1.415l.707,.707c.756-.756,2.072-.756,2.828,0l.707-.707c-1.133-1.134-3.109-1.134-4.242,0Zm8.621-.379c0,3.584-2.916,6.5-6.5,6.5s-6.5-2.916-6.5-6.5,2.916-6.5,6.5-6.5,6.5,2.916,6.5,6.5Zm-1,0c0-3.033-2.467-5.5-5.5-5.5s-5.5,2.467-5.5,5.5,2.467,5.5,5.5,5.5,5.5-2.467,5.5-5.5Z"/>
</svg>
