<svg id="Layer_1" viewBox="0 0 24 24" xmlns="http://www.w3.org/2000/svg" data-name="Layer 1"><path d="m22.48 12.687c.484-.361.897-.821 1.109-1.367.946-2.441-.029-5.819-.071-5.962l-.149-.508c-.605.231-.572.153-1.471.659.102-.528.059-1.072-.239-1.605-1.232-2.201-4.313-3.643-4.443-3.704l-.465-.215-.204.47c-.078.181-1.812 4.346 1.322 8.1.085.705.124 1.419.128 2.064.021 4.911-2.15 8.034-4.384 9.271l.592-5.91c1.096-.882 1.798-1.755 1.795-3.479 0-1.887-1.718-3.458-2.972-4.604-.391-.352-.714-.667-1.055-1.013l-.352.406c-.624.721-.859 1.8-1.05 2.667-.066.307-.152.697-.236.926-.093-.215-.168-.637-.169-1.008l-.003-1.229-.855.881c-.604.622-1.309 1.773-1.309 2.974-.001 1.704.726 2.609 1.795 3.481l.59 5.896c-2.234-1.247-4.4-4.366-4.382-9.259-.034-.655.053-1.345.128-2.064 3.135-3.754 1.401-7.919 1.323-8.1l-.204-.47-.465.215c-.13.061-3.211 1.503-4.442 3.704-.298.533-.341 1.077-.239 1.605-.9-.506-.866-.428-1.471-.659l-.149.508c-.042.143-1.018 3.521-.071 5.962.212.547.625 1.007 1.108 1.367-1.008.262-.969.298-1.511.521l.103.413c.031.123.714 2.736 2.993 4.206-1.267.962-1.31 1.162-1.773 1.71l.316.316c.081.081 1.888 1.831 4.359 2.094-.422 1.051-.361 1.008-.507 1.625.825.272 1.595.459 2.674.464 1.366 0 2.864-.388 3.828-1.607.964 1.219 2.461 1.607 3.828 1.607 1.078-.005 1.85-.192 2.674-.464-.146-.618-.085-.573-.507-1.625 2.471-.262 4.277-2.013 4.359-2.094l.316-.316c-.465-.549-.505-.746-1.773-1.71 2.279-1.47 2.962-4.083 2.993-4.206l.103-.413-.391-.168c-.045-.019-.472-.198-1.121-.353zm.217-6.482c.222 1.011.572 3.172-.04 4.754-.309.797-1.274 1.313-1.931 1.504-.581-.01-1.205.051-1.831.229.074-.619.106-1.275.106-1.96.867-2.737 2.775-4.043 3.696-4.526zm-5.408-4.844c.877.478 2.693 1.595 3.496 3.031.739 1.321-1.197 3.073-1.996 3.717-2.357-2.649-1.841-5.585-1.5-6.748zm-7.104 11.639c-.753-.659-1.185-1.308-1.185-2.5 0-.454.149-.927.367-1.349.185.494.508.849 1.018.849.765 0 .95-.849 1.165-1.83.125-.574.274-1.254.538-1.78.085.079.174.16.266.244 1.116 1.021 2.646 2.42 2.646 3.866 0 1.23-.382 1.815-1.182 2.5h-3.634zm-6.97-8.607c.801-1.433 2.618-2.552 3.496-3.03.342 1.163.857 4.098-1.501 6.747-.798-.643-2.736-2.392-1.995-3.717zm-1.872 6.566c-.612-1.582-.262-3.743-.04-4.754.921.483 2.83 1.789 3.697 4.528 0 .684.033 1.34.107 1.959-.625-.178-1.248-.239-1.829-.229-.76-.216-1.657-.789-1.935-1.504zm-.121 2.85c.428-.133 1.139-.306 1.947-.337.667-.024 1.415.056 2.112.341.205 1.022.516 1.933.894 2.751-.782.109-1.482.359-2.087.668-1.732-.885-2.565-2.615-2.867-3.423zm1.493 5.652c.614-.613 2.059-1.808 3.962-1.936.355.6.749 1.135 1.173 1.599-.588.636-1.048 1.282-1.377 1.867-1.69-.049-3.118-1.014-3.758-1.53zm3.999 3.414c.227-.65.765-1.88 1.843-3.054.944.821 1.969 1.334 2.948 1.554-1.092 2.033-3.703 1.731-4.791 1.501zm5.301-2.412c-.19-.029-.383-.073-.579-.131l-.633-6.331h2.395l-.633 6.34c-.185.054-.369.096-.549.123zm.484.917c.98-.215 2.008-.726 2.954-1.55 1.072 1.171 1.608 2.396 1.834 3.045-1.089.231-3.695.532-4.788-1.495zm8.786-1.918c-.641.516-2.068 1.48-3.757 1.529-.328-.582-.785-1.225-1.369-1.858.425-.466.819-1.003 1.175-1.607 1.89.132 3.336 1.325 3.951 1.936zm-1.372-2.23c-.603-.308-1.301-.557-2.08-.667.377-.819.686-1.731.89-2.754.697-.283 1.425-.364 2.091-.34.809.031 1.537.204 1.966.337-.299.807-1.127 2.535-2.867 3.423z"/></svg>