<svg id="Layer_1" viewBox="0 0 24 24" xmlns="http://www.w3.org/2000/svg" data-name="Layer 1"><path d="m23.953 18.047c-1.133-.08-2.62-.166-3.885 1.021-.237.237-.422.501-.568.776-.146-.275-.331-.539-.568-.776-1.267-1.186-2.753-1.1-3.885-1.021-.081 1.131-.171 2.614 1.02 3.887.83.83 1.976 1.051 2.933 1.062v1.004h1v-1.004c.957-.011 2.103-.232 2.933-1.062 1.192-1.274 1.101-2.754 1.02-3.887zm-7.179 3.18c-.621-.62-.766-1.541-.774-2.225.686.01 1.608.155 2.225.772.619.619.765 1.538.774 2.223-.689-.013-1.614-.159-2.225-.771zm5.452 0c-.611.611-1.536.758-2.225.771.009-.685.155-1.604.774-2.223s1.539-.763 2.225-.772c-.008.684-.153 1.604-.774 2.225zm-.535-12.227-1 2h-4.137l2.661-3.625-6.601-6.593s-1.098.84-1.854 1.402c-.089-.099-.409-.414-.409-.414-2.36-2.358-6.199-2.357-8.558 0-1.203 1.202-1.847 2.865-1.766 4.538l-.006 3.905 9.872 9.859 4.458-6.072h6.34l1 2h2.309v-7zm-20.665-2.715c-.067-1.417.469-2.805 1.474-3.808.985-.983 2.278-1.476 3.572-1.476s2.587.492 3.572 1.476c0 0 .258.254.308.306-1.508 1.118-8.206 6.065-8.931 6.602zm21.974 8.715h-.691l-1-2h-7.464l-4.07 5.542-8.276-8.266c.69-.514 9.854-7.28 11.03-8.166l5.372 5.365-3.321 4.524h6.73l1-2h.691v5z"/></svg>