<?xml version="1.0" encoding="UTF-8"?>
<svg xmlns="http://www.w3.org/2000/svg" id="Layer_1" data-name="Layer 1" viewBox="0 0 24 24">
  <path d="M15.002,17.153l8,3v3.885h-1v-3.191l-8-3v-5.239c0-.789-.535-1.471-1.245-1.587-.895-.17-1.774,.574-1.755,1.479v9.675s-3.469-2.763-3.48-2.772c-.606-.562-1.554-.53-2.115,.072-.565,.604-.534,1.557,.064,2.118l2.535,2.407h-1.44l-1.783-1.684c-1-.937-1.048-2.518-.106-3.524,.93-.997,2.491-1.055,3.498-.143v-.002s1.827,1.453,1.827,1.453v-7.601c-.034-1.504,1.434-2.744,2.917-2.466,1.188,.193,2.083,1.3,2.083,2.573v4.546ZM5.5,11C2.467,11,0,8.532,0,5.5S2.467,0,5.5,0c2.864,0,5.221,2.201,5.475,5h3.18l-2.02-2.158,.73-.684,2.256,2.411c.504,.483,.502,1.388-.012,1.874l-2.244,2.398-.73-.684,2.019-2.158h-3.179c-.254,2.799-2.611,5-5.475,5Zm0-1c2.481,0,4.5-2.019,4.5-4.5S7.981,1,5.5,1,1,3.019,1,5.5s2.019,4.5,4.5,4.5Zm3.198-5.296l-.7-.713-3.018,2.96c-.055,.057-.179,.056-.241-.006l-1.856-1.8-.696,.719,1.851,1.794c.432,.452,1.216,.453,1.646,.003l3.014-2.957Zm15.302-.704v-.5c0-1.379-1.122-2.5-2.5-2.5h-.5V0h-1V1h-.756c-1.237,0-2.244,1.006-2.244,2.243,0,.968,.616,1.823,1.534,2.129l3.616,1.205c.508,.169,.85,.644,.85,1.18,0,.686-.558,1.243-1.244,1.243h-2.256c-.827,0-1.5-.673-1.5-1.5v-.5h-1v.5c0,1.379,1.122,2.5,2.5,2.5h.5v1h1v-1h.756c1.237,0,2.244-1.006,2.244-2.243,0-.968-.616-1.823-1.534-2.129l-3.616-1.205c-.508-.169-.85-.644-.85-1.18,0-.686,.558-1.243,1.244-1.243h2.256c.827,0,1.5,.673,1.5,1.5v.5h1Z"/>
</svg>
