<svg id="Layer_1" viewBox="0 0 24 24" xmlns="http://www.w3.org/2000/svg" data-name="Layer 1"><path d="m8 7.5v.5h2.5c1.978 0 2.5-1.635 2.5-2.5v-.5h-2.5c-1.978 0-2.5 1.635-2.5 2.5zm2.5-.5h-1.423c.131-.445.483-1 1.423-1h1.423c-.131.445-.483 1-1.423 1zm12.047 1.611c-.317-1.049-.547-1.806-.547-2.611 0-.946.225-1.585.462-2.262.355-.828.616-2.239.538-3.46-.902.375-2.132.739-3 .722-2.302-.05-5.071-1.035-7.5-1-4.195 0-8.155 3.882-8.325 8.065-2.216.305-3.617 1.8-4.045 3.293-.375 1.171.018 2.261.646 3.219.724-1.074 1.512-1.581 3.225-1.576h1.191c.411.86.809 2.227.809 3.5 0 3.762-2.36 6.651-2.385 6.681l-.68.819c4.6.594 9.131-3.368 10.118-4.932l3.742 4.274c.784-1.645 1.669-2.976 1.932-6.357 2.845 1.487 4.171 2.258 5.272 2.868.147-5.132-.815-9.452-1.453-11.242zm-21.512 4.194c-.08-.371-.062-.763.056-1.172.366-1.275 1.659-2.562 3.737-2.63l1.981 1.585-1.06 1.412h-1.75c-1.253 0-2.246.27-2.965.805zm16.715 2.567c.149 2.349-.569 5.048-1.188 6.186l-3.59-4.103c-.566.668-2.761 4.605-7.958 5.481.775-1.212 1.986-3.565 1.986-6.437 0-1.252-.331-2.557-.729-3.528l1.919-2.56-3.012-2.41c.205-3.645 3.661-7.002 7.321-7.002 2.403-.023 5.181.974 7.5 1 .572 0 1.279-.11 1.961-.3-.076.663-.256 1.174-.443 1.707-.254.726-.518 1.477-.518 2.593 0 .953.26 1.812.59 2.901.562 1.862 1.323 4.374 1.403 9.245-1.069-.591-5.243-2.773-5.243-2.773z"/></svg>