<svg id="Layer_1" viewBox="0 0 24 24" xmlns="http://www.w3.org/2000/svg" data-name="Layer 1"><path d="m6 11v3c0 .552.449 1 1 1s1-.448 1-1h1c0 1.103-.897 2-2 2s-2-.897-2-2v-3c0-1.103.897-2 2-2s2 .897 2 2h-1c0-.552-.449-1-1-1s-1 .448-1 1zm12 3c0 .552-.448 1-1 1s-1-.448-1-1v-5h-1v5c0 1.103.897 2 2 2s2-.897 2-2v-5h-1zm-4-3c0 1.103-.897 2-2 2h-1v3h-1v-7h2c1.103 0 2 .897 2 2zm-1 0c0-.552-.449-1-1-1h-1v2h1c.551 0 1-.448 1-1zm9-5v2h2v1h-2v2.5h2v1h-2v2.5h2v1h-2v2h2v1h-2v3h-3v2h-1v-2h-2v2h-1v-2h-2.5v2h-1v-2h-2.5v2h-1v-2h-2v2h-1v-2h-3v-3h-2v-1h2v-2h-2v-1h2v-2.5h-2v-1h2v-2.5h-2v-1h2v-2h-2v-1h2v-.5c0-1.379 1.122-2.5 2.5-2.5h.5v-2h1v2h2v-2h1v2h2.5v-2h1v2h2.5v-2h1v2h2v-2h1v2h.5c1.379 0 2.5 1.121 2.5 2.5v.5h2v1zm-1-1.5c0-.827-.673-1.5-1.5-1.5h-15c-.827 0-1.5.673-1.5 1.5v16.5h18z"/></svg>