<svg id="Layer_1" viewBox="0 0 24 24" xmlns="http://www.w3.org/2000/svg" data-name="Layer 1"><path d="m18 12h-6v6h6zm-1 5h-4v-4h4zm6.607 5.789.369.93c-.47.187-.967.281-1.477.281-1.516 0-2.822-.857-3.5-2.104-.678 1.246-1.984 2.104-3.5 2.104s-2.822-.858-3.5-2.104c-.678 1.246-1.984 2.104-3.5 2.104s-2.822-.858-3.5-2.104c-.678 1.246-1.984 2.104-3.5 2.104-.509 0-1.006-.095-1.477-.281l.369-.93c.353.14.725.211 1.107.211 1.654 0 3-1.346 3-3h1c0 1.654 1.346 3 3 3s3-1.346 3-3h1c0 1.654 1.346 3 3 3s3-1.346 3-3h1c0 1.654 1.346 3 3 3 .383 0 .756-.071 1.107-.211zm-.562-12.145-6.5-5.109c-.908-.715-2.182-.715-3.09 0l-2.458 1.932c-.013-1.381-.848-2.614-2.094-3.16.544-2.156-1.181-4.335-3.403-4.307-2.222-.028-3.947 2.151-3.403 4.306-1.972.805-2.747 3.468-1.457 5.194-2.381 3.544 2.262 7.361 5.36 4.509v3.991h1v-5.391c0-.609.328-.987.573-1.179l6.499-5.109c.547-.429 1.309-.429 1.855 0l6.5 5.109c.363.286.572.716.572 1.179v5.391h1v-5.391c0-.772-.348-1.489-.955-1.965zm-16.09 0c-.507.398-.819.966-.913 1.592-1.838 3.953-7.246.477-4.091-2.736-1.781-1.642-.916-4.184 1.441-4.548-.983-1.756.023-3.911 2.107-3.952 2.084.041 3.09 2.195 2.107 3.952 1.658.227 2.879 1.815 2.211 3.442z"/></svg>