<svg id="Layer_1" viewBox="0 0 24 24" xmlns="http://www.w3.org/2000/svg" data-name="Layer 1"><path d="m17 15c-1.103 0-2 .897-2 2s.897 2 2 2 2-.897 2-2-.897-2-2-2zm0 3c-.552 0-1-.448-1-1s.448-1 1-1 1 .448 1 1-.448 1-1 1zm5-1c0-.353-.046-.716-.14-1.101l1.94-1.133-1.512-2.591-1.937 1.13c-.537-.488-1.167-.852-1.853-1.067v-2.238h-3v2.238c-.686.216-1.315.579-1.853 1.067l-1.937-1.13-1.513 2.591 1.942 1.133c-.094.386-.14.748-.14 1.101s.046.715.14 1.101l-1.942 1.133 1.513 2.591 1.937-1.13c.537.488 1.167.852 1.853 1.067v2.238h3v-2.238c.686-.216 1.315-.579 1.853-1.067l1.937 1.13 1.512-2.591-1.94-1.133c.094-.385.14-.748.14-1.101zm.434 2.593-.504.864-1.747-1.021c-.683.83-1.629 1.378-2.683 1.544v2.02h-1v-2.02c-1.053-.166-2-.714-2.683-1.544l-1.747 1.021-.504-.864 1.755-1.023c-.414-1.081-.414-2.057 0-3.139l-1.755-1.023.504-.864 1.747 1.021c.683-.83 1.629-1.378 2.683-1.544v-2.02h1v2.02c1.053.166 2 .714 2.683 1.544l1.747-1.021.504.864-1.756 1.024c.416 1.079.416 2.058 0 3.137zm-14.873-4.154 2.293 2.293-.707.707-2.146-2.146v.707c0 2.271.742 4.411 2.146 6.19l-.785.619c-1.544-1.957-2.361-4.312-2.361-6.81v-.707l-2.146 2.146-.707-.707 2.293-2.293c.585-.584 1.536-.584 2.121 0zm-6.561 4.061v-7.851c1.419 1.411 4.213 2.351 7.5 2.351h.023c.123-.349.267-.687.43-1.014-.151.005-.3.015-.454.015-4.065 0-7.5-1.603-7.5-3.5v-2.851c1.419 1.411 4.213 2.351 7.5 2.351s6.081-.94 7.5-2.351v1.409c.329-.036.662-.059 1-.059v-3.5c.001-2.523-3.732-4.5-8.499-4.5s-8.5 1.977-8.5 4.5v15c0 2.047 2.456 3.733 5.928 4.298-.231-.374-.442-.758-.632-1.15-2.513-.573-4.296-1.782-4.296-3.147zm7.5-18.5c4.065 0 7.5 1.603 7.5 3.5s-3.435 3.5-7.5 3.5-7.5-1.603-7.5-3.5 3.435-3.5 7.5-3.5z"/></svg>