<svg id="Layer_1" viewBox="0 0 24 24" xmlns="http://www.w3.org/2000/svg" data-name="Layer 1"><path d="m23.122 13.878c-.752-.754-2.178-1.045-3.815-.782-1.626.262-3.149 1.003-4.179 2.032-2.16 2.16-2.825 6.419-1.25 7.994.571.571 1.528.877 2.671.877.365 0 .749-.031 1.145-.095 1.626-.262 3.149-1.003 4.179-2.032 2.159-2.16 2.825-6.419 1.25-7.994zm-1.957 7.287c-.871.871-2.229 1.526-3.631 1.752-1.299.208-2.43.017-2.949-.502-1.101-1.101-.64-4.689 1.25-6.58.871-.871 2.229-1.526 3.631-1.752.348-.056.683-.083.998-.083.863 0 1.571.205 1.951.585 1.1 1.101.64 4.689-1.25 6.58zm-.519-5.519.707.707-1.146 1.146.646.646-.707.707-.646-.646-1.293 1.293.646.646-.707.707-.646-.646-1.146 1.146-.707-.707 1.146-1.146-.646-.646.707-.707.646.646 1.293-1.293-.646-.646.707-.707.646.646zm-19.401-2.151h.014c-.154-1.581.126-2.742.858-3.548 1.237-1.364 3.894-1.946 8.882-1.946s7.648.583 8.884 1.948c.27.298.457.661.605 1.059.529.002 1.032.055 1.505.156.112-6.121-4.877-11.17-10.993-11.164-6.065 0-11 4.935-11 11 .039 2.462 1.591 10.636 1.71 11.268.462.219 2.946 1.695 9.29 1.732.345 0 .676-.006 1-.016-.218-.306-.392-.642-.535-.997-.852.033-1.762-.011-2.533-.061l-.491-3.927h2.694c.055-.335.128-.668.217-1h-3.036l-.25-2h4.042c.174-.348.365-.683.574-1h-11.217c-.081-.524-.155-1.029-.22-1.505zm7.773-6.459-.012-1.036h4l.012 1.037c-.63-.024-1.299-.037-2.018-.037-.705 0-1.363.012-1.982.036zm1.982-6.036c5.062 0 9.247 3.785 9.901 8.67-.093-.13-.167-.274-.276-.393-1.16-1.281-3.157-1.96-6.607-2.187l-.025-2.09h-5.999l.025 2.087c-3.47.225-5.477.903-6.642 2.187-.109.12-.184.265-.278.396.654-4.886 4.839-8.67 9.901-8.67zm-3.086 21.844c-2.983-.307-4.743-.987-5.312-1.242-.081-.436-.261-1.409-.471-2.602h5.303zm-.855-6.844.25 2h-5.352c-.111-.645-.225-1.323-.334-2z"/></svg>