<svg id="Layer_1" viewBox="0 0 24 24" xmlns="http://www.w3.org/2000/svg" data-name="Layer 1"><path d="m14.86 5c-.061-.34-.135-.675-.235-1h4.083c-.131.104-.269.197-.39.318l-.682.682h-2.777zm-2.86 8.465 7.732-7.732c.975-.975 2.561-.975 3.535 0 .97.929.97 2.606 0 3.535l-7.732 7.732h-3.535zm1 2.535h2.121l7.439-7.439c.582-.558.582-1.563 0-2.121-.584-.585-1.537-.585-2.121 0l-7.439 7.439zm10 6.354c0 .243-.128.457-.342.571-.217.116-.462.104-.666-.031l-4.341-2.895h-10.651v-5.068h-1v6.068h11.349l4.09 2.727c.275.184.594.276.913.276.883.017 1.667-.761 1.648-1.648v-10.99l-1 1v9.991zm-16.5-9.354h-6.5v-6.5c0-3.584 2.916-6.5 6.5-6.5s6.5 2.916 6.5 6.5-2.916 6.5-6.5 6.5zm-5.5-1h5.5c3.033 0 5.5-2.467 5.5-5.5s-2.467-5.5-5.5-5.5-5.5 2.467-5.5 5.5zm7-7.5c0 .564-.312 1.075-.813 1.334-.743.383-1.187 1.066-1.187 1.826v.34h1v-.34c0-.378.241-.729.646-.937.835-.432 1.354-1.283 1.354-2.223 0-1.378-1.122-2.5-2.5-2.5s-2.5 1.122-2.5 2.5h1c0-.827.673-1.5 1.5-1.5s1.5.673 1.5 1.5zm-.5 5.5c0-.552-.448-1-1-1s-1 .448-1 1 .448 1 1 1 1-.448 1-1z"/></svg>