<svg id="Layer_1" viewBox="0 0 24 24" xmlns="http://www.w3.org/2000/svg" data-name="Layer 1"><path d="m10.999 14.993c0 .552-.448 1-1 1s-1-.448-1-1 .448-1 1-1 1 .448 1 1zm2-6.001c-.552 0-1 .448-1 1s.448 1 1 1 1-.448 1-1-.448-1-1-1zm4 9.001c-.552 0-1 .448-1 1s.448 1 1 1 1-.448 1-1-.448-1-1-1zm-2-2c.552 0 1-.448 1-1s-.448-1-1-1-1 .448-1 1 .448 1 1 1zm7.001 4c-.552 0-1 .448-1 1s.448 1 1 1 1-.448 1-1-.448-1-1-1zm-.418-5.741c.277-.857.418-1.731.418-2.604v-6.17c0-.734-.321-1.428-.881-1.904-.559-.477-1.3-.683-2.035-.562-1.188.193-2.084 1.3-2.084 2.573v2.145l-7.072-7.084c-.465-.464-.929-.639-1.761-.639-.656 0-1.252.385-1.64.924-.188.261-.3.558-.354.866l-.356-.357c-.464-.465-1.107-.703-1.76-.648-.654.053-1.252.393-1.64.932-.42.582-.493 1.338-.261 2.016-.699-.022-1.348.334-1.745.883-.629.872-.497 2.136.307 2.94l1.067 1.067c-.553.11-1.052.415-1.388.883-.629.872-.497 2.137.301 2.933l5.725 5.936c1.585 1.631 3.697 2.552 5.967 2.606l3.005 3.006h1.414l-4.003-4.003c-2.143.05-4.177-.767-5.665-2.304l-5.73-5.942c-.461-.461-.548-1.169-.203-1.649.421-.621 1.364-.698 1.881-.162l2.791 2.803.709-.705-5.164-5.177c-.461-.461-.548-1.169-.203-1.649.43-.628 1.44-.612 1.95-.081l5.161 5.161.707-.707-5.609-5.621c-.46-.461-.548-1.17-.202-1.65.421-.621 1.367-.7 1.881-.161l5.676 5.687.708-.707-3.954-3.961.002-.002c-.461-.461-.548-1.17-.203-1.65.42-.622 1.364-.692 1.881-.161l8.779 8.796v-4.563c0-.789.535-1.471 1.244-1.587.453-.072.887.047 1.228.337.336.286.528.702.528 1.143v6.17c.006.959-.208 1.943-.571 2.864l3.571 3.572v-1.414l-2.418-2.418z"/></svg>