<svg id="Layer_1" viewBox="0 0 24 24" xmlns="http://www.w3.org/2000/svg" data-name="Layer 1"><path d="m10.5 5c1.379 0 2.5-1.122 2.5-2.5s-1.121-2.5-2.5-2.5-2.5 1.122-2.5 2.5 1.121 2.5 2.5 2.5zm0-4c.827 0 1.5.673 1.5 1.5s-.673 1.5-1.5 1.5-1.5-.673-1.5-1.5.673-1.5 1.5-1.5zm-4.5 1h-6v9h6zm-5 1h4v3h-4zm4 7h-4v-3h4zm15.997 7.05-.007-1.148-1.58-7.891h-3.322l-5.418-1.959c-.757-.161-1.542.046-2.042.483-.411.359-.628.854-.628 1.433v4.266c0 .939.519 1.79 1.376 2.232l4.124 1.867v3.667h-2.5v1h6.051c.245 1.692 1.691 3 3.449 3 1.93 0 3.5-1.57 3.5-3.5 0-1.759-1.31-3.206-3.003-3.45zm-11.997-4.816v-4.266c0-.285.097-.514.286-.68.255-.223.669-.325 1.097-.277l.617.223v6.87l-1.188-.538c-.501-.259-.812-.769-.812-1.333zm3 2.323v-6.961l3.83 1.385 2.761.03 1.409 6.989v1.051c-1.527.221-2.728 1.423-2.949 2.949h-2.551v-4.312l-2.5-1.132zm8.5 8.443c-1.379 0-2.5-1.122-2.5-2.5s1.121-2.5 2.5-2.5 2.5 1.122 2.5 2.5-1.121 2.5-2.5 2.5zm-12.266-6.009-2.469-3.991h-5.765v1h5.209l.789 1.276c-.471-.168-.97-.276-1.498-.276-2.481 0-4.5 2.019-4.5 4.5s2.019 4.5 4.5 4.5 4.5-2.019 4.5-4.5c0-.928-.283-1.791-.767-2.509zm-3.734 6.009c-1.93 0-3.5-1.57-3.5-3.5s1.57-3.5 3.5-3.5 3.5 1.57 3.5 3.5-1.57 3.5-3.5 3.5z"/></svg>