<svg id="Layer_1" viewBox="0 0 24 24" xmlns="http://www.w3.org/2000/svg" data-name="Layer 1"><path d="m18 12c3.309 0 6-2.691 6-6s-2.691-6-6-6-6 2.691-6 6 2.691 6 6 6zm5-6c0 1.198-.441 2.284-1.146 3.146l-7-7c.862-.705 1.948-1.146 3.146-1.146 2.757 0 5 2.243 5 5zm-8.854-3.146 7 7c-.862.705-1.948 1.146-3.146 1.146-2.757 0-5-2.243-5-5 0-1.198.441-2.284 1.146-3.146zm-5.146 7.146c0 1.654 1.346 3 3 3 .539 0 1.038-.154 1.476-.404.304.209.625.391.957.557-.676.523-1.513.847-2.433.847-2.206 0-4-1.794-4-4 0-1.485.823-2.769 2.027-3.459.025.373.068.741.142 1.099-.706.549-1.17 1.398-1.17 2.36zm13.987 2.249c-.084 3.747-2.05 7.036-4.987 8.96v-2.709c0-1.379-1.121-2.5-2.5-2.5h-7c-1.379 0-2.5 1.121-2.5 2.5v2.708c-3.006-1.966-5-5.356-5-9.208 0-5.981 4.801-10.853 10.751-10.987.282-.353.595-.678.932-.978-.227-.013-.452-.035-.683-.035-6.617 0-12 5.383-12 12s5.383 12 12 12 12-5.383 12-12c0-.23-.022-.455-.035-.683-.3.337-.625.65-.978.932zm-15.987 6.251c0-.827.673-1.5 1.5-1.5h7c.827 0 1.5.673 1.5 1.5v3.286c-1.501.771-3.198 1.214-5 1.214s-3.498-.444-5-1.214z"/></svg>