<svg id="Layer_1" viewBox="0 0 24 24" xmlns="http://www.w3.org/2000/svg" data-name="Layer 1"><path d="m16 15c0-.551-.449-1-1-1-.249 0-.47.101-.646.252-.132-.318-.284-.624-.451-.921.315-.208.692-.331 1.097-.331 1.103 0 2 .897 2 2s-.897 2-2 2c-.009 0-.017-.002-.025-.003-.02-.348-.058-.691-.119-1.027.049.008.093.029.145.029.551 0 1-.449 1-1zm-1.5-5h1v1.529c.869.165 1.653.6 2.229 1.25l1.3-.782.515.857-1.314.789c.135.428.284.967.271 1.357.013.389-.136.929-.271 1.357l1.314.789-.515.857-1.3-.782c-.805.821-1.499 1.228-2.792 1.278-.04.341-.104.673-.183 1 1.42-.019 2.128-.306 3.108-1.032l1.51.907 1.544-2.572-1.519-.912c.07-.313.103-.603.103-.891s-.033-.578-.103-.891l1.519-.912-1.544-2.572-1.51.907c-.401-.328-.862-.585-1.361-.76v-1.771h-3v1.771c-.406.142-.778.352-1.122.598.245.235.48.481.696.744.415-.29.924-.476 1.426-.585v-1.529zm-1.5 7.5c0 3.584-2.916 6.5-6.5 6.5s-6.5-2.916-6.5-6.5 2.916-6.5 6.5-6.5 6.5 2.916 6.5 6.5zm-1 0c0-3.033-2.467-5.5-5.5-5.5s-5.5 2.467-5.5 5.5 2.467 5.5 5.5 5.5 5.5-2.467 5.5-5.5zm-4.509-3.088 3.102 3.588h-3.593v3h-1v-3h-3.587l3.075-3.584c.266-.268.622-.416 1-.416h.002c.378 0 .733.146 1 .413zm.916 2.588-1.648-1.907c-.145-.145-.376-.159-.552.017l-1.62 1.89zm15.593-14.5v19.5h-10.298c.2-.32.381-.653.538-1h8.76v-13h-22v3.026c-.36.306-.695.641-1 1.003v-9.529c0-1.378 1.122-2.5 2.5-2.5h19c1.378 0 2.5 1.122 2.5 2.5zm-1 4.5v-4.5c0-.827-.673-1.5-1.5-1.5h-19c-.827 0-1.5.673-1.5 1.5v4.5zm-19-4c-.552 0-1 .448-1 1s.448 1 1 1 1-.448 1-1-.448-1-1-1zm3 0c-.552 0-1 .448-1 1s.448 1 1 1 1-.448 1-1-.448-1-1-1zm3 0c-.552 0-1 .448-1 1s.448 1 1 1 1-.448 1-1-.448-1-1-1z"/></svg>