<?xml version="1.0" encoding="UTF-8"?>
<svg xmlns="http://www.w3.org/2000/svg" id="Layer_1" data-name="Layer 1" viewBox="0 0 24 24">
  <path d="M23,6h-2c-1.326-.994-2.794-1.783-4.355-2.338l-2.153-.766,.008-1.396-1.5-1-2,1.5h-1l-1.385-2-2.615,1s.231,1.885-.192,2.038c-.024,.009-.049,.013-.075,.013-.495,0-1.232-1.552-1.232-1.552l-1.5,1v3L1,7v2l2,1h3v1c0,.552,.448,1,1,1h1v1c0,.5,.5,1,1,1v2.5l2,2v1.167s-1.488,.605-2,1.333c0,1,3,3,3,3,0,0,2.5-1.5,3.288-4.599,.366-1.315,.856-2.232,2.212-2.401,.383-.048,2.5-1.383,2.5-4.5v-.5c.5-.5,2.733-1.94,3-2.501v-3.499Zm-4,5.586v.914c0,2.437-1.499,3.393-1.724,3.521-1.914,.284-2.567,1.729-2.958,3.133-.468,1.84-1.653,3.048-2.333,3.614-.746-.547-1.43-1.144-1.776-1.544,.348-.244,1.79-.885,1.79-.885v-2.254l-2-2v-3.086h-.958c-.015-.011-.032-.028-.042-.042v-1.958h-2v-2H3.236l-1.236-.618v-.882l2-1.5V3.035l.156-.104c.753,1.12,1.351,1.121,1.576,1.121,.926-.135,1.345-.424,1.329-2.387l1.179-.451,1.236,1.786h1.857l1.701-1.276,.463,.309-.01,1.567,2.822,1.004c1.468,.522,2.844,1.261,4.091,2.196l.267,.2h1.333v2.153c-.325,.311-3,2.433-3,2.433Z"/>
</svg>
