<svg id="Layer_1" viewBox="0 0 24 24" xmlns="http://www.w3.org/2000/svg" data-name="Layer 1"><path d="m21 14.424v-1.424h-1v1.101c-.323-.066-.658-.101-1-.101h-2v10h2c2.757 0 5-2.243 5-5 0-2.045-1.237-3.802-3-4.576zm-2 8.576h-1v-8h1c2.206 0 4 1.794 4 4s-1.794 4-4 4zm-16-10v1.424c-1.763.774-3 2.531-3 4.576 0 2.757 2.243 5 5 5h2v-10h-2c-.342 0-.677.035-1 .101v-1.101c0-4.411 3.589-8 8-8 1.061 0 2.073.212 3 .589v-1.064c-.94-.334-1.947-.525-3-.525-4.963 0-9 4.037-9 9zm3 2v8h-1c-2.206 0-4-1.794-4-4s1.794-4 4-4zm13-4h.801l3.637-2.963-2.992-2.527 2.99-2.509-3.633-3.001h-.803v4.29l-2.178-1.839-.645.764 2.714 2.293-2.713 2.276.643.766 2.179-1.827zm1-9.54 1.873 1.547-1.873 1.571zm0 4.983 1.871 1.58-1.871 1.524z"/></svg>