<svg id="Layer_1" viewBox="0 0 24 24" xmlns="http://www.w3.org/2000/svg" data-name="Layer 1"><path d="m1 12c0 1.382.252 2.728.75 4l-.932.363c-.543-1.389-.818-2.856-.818-4.363 0-6.617 5.383-12 12-12 2.992 0 5.797 1.091 8 3.072v-3.072h1v3.5c0 .827-.673 1.5-1.5 1.5h-3.5v-1h3.5c.009 0 .016-.005.025-.005-2.046-1.927-4.694-2.995-7.525-2.995-6.065 0-11 4.935-11 11zm22.182-4.363-.932.363c.498 1.272.75 2.618.75 4 0 6.065-4.935 11-11 11-2.831 0-5.479-1.067-7.525-2.995.009 0 .016-.005.025-.005h3.5v-1h-3.5c-.827 0-1.5.673-1.5 1.5v3.5h1v-3.072c2.202 1.981 5.007 3.072 8 3.072 6.617 0 12-5.383 12-12 0-1.507-.275-2.975-.818-4.363zm-3.453 1.811-1.92 1.06c.127.491.191.992.191 1.493s-.064 1.002-.191 1.493l1.919 1.06-1.448 2.627-1.919-1.059c-.774.818-1.768 1.403-2.86 1.685v2.194h-3v-2.194c-1.093-.281-2.086-.866-2.86-1.685l-1.919 1.059-1.448-2.627 1.919-1.06c-.127-.491-.191-.991-.191-1.493s.064-1.002.191-1.493l-1.92-1.06 1.449-2.627 1.919 1.059c.774-.818 1.768-1.403 2.86-1.685v-2.194h3v2.194c1.093.281 2.086.866 2.86 1.685l1.919-1.059zm-1.359-.393-.482-.875-1.758.97c-.859-1.187-2.173-1.959-3.629-2.138v-2.012h-1v2.012c-1.456.179-2.77.951-3.629 2.138l-1.758-.97-.482.875 1.759.971c-.228.632-.4 1.311-.39 1.975-.01.664.162 1.342.39 1.973l-1.76.973.483.875 1.758-.97c.859 1.187 2.173 1.959 3.629 2.138v2.012h1v-2.012c1.456-.179 2.77-.951 3.629-2.138l1.758.97.483-.875-1.76-.973c.228-.631.4-1.308.39-1.973.01-.663-.161-1.343-.39-1.975zm-6.869 5.945h1v-6h-1zm2 0h1v-4h-1zm-4 0h1v-3h-1z"/></svg>