<?xml version="1.0" encoding="UTF-8"?>
<svg xmlns="http://www.w3.org/2000/svg" id="Layer_1" data-name="Layer 1" viewBox="0 0 24 24">
  <path d="M24,4V12h-2v2h-1v-3h2V5h-2V2.5c0-.827-.673-1.5-1.5-1.5H1V14H0V0H19.5c1.378,0,2.5,1.122,2.5,2.5v1.5h2ZM3,3H19V13H3V3Zm1,9h14V4H4V12Zm6,6.5v3c0,1.378-1.122,2.5-2.5,2.5s-2.5-1.122-2.5-2.5v-3c0-1.378,1.122-2.5,2.5-2.5s2.5,1.122,2.5,2.5Zm-1,0c0-.827-.673-1.5-1.5-1.5s-1.5,.673-1.5,1.5v3c0,.827,.673,1.5,1.5,1.5s1.5-.673,1.5-1.5v-3Zm7,0v3c0,1.378-1.122,2.5-2.5,2.5s-2.5-1.122-2.5-2.5v-3c0-1.378,1.122-2.5,2.5-2.5s2.5,1.122,2.5,2.5Zm-1,0c0-.827-.673-1.5-1.5-1.5s-1.5,.673-1.5,1.5v3c0,.827,.673,1.5,1.5,1.5s1.5-.673,1.5-1.5v-3Zm7.01,3.5c-.547,0-.99,.443-.99,.99s.443,.99,.99,.99,.99-.443,.99-.99-.443-.99-.99-.99Zm-3.99-6.019c-.552,0-1,.452-1,1.01s.448,1.01,1,1.01,1-.452,1-1.01-.448-1.01-1-1.01ZM.918,18.325l.728,.687,1.354-1.436v6.425h1v-8h-.889l-2.193,2.325Zm16.082,5.675h1.194l4.806-8h-1.194l-4.806,8Z"/>
</svg>
