<svg id="Layer_1" viewBox="0 0 24 24" xmlns="http://www.w3.org/2000/svg" data-name="Layer 1"><path d="m20.344 16.614 2.671 3.337-.781.625-2.641-3.299c-.842.689-1.821 1.306-2.939 1.781l1.319 3.859-.945.324-1.308-3.827c-.972.316-2.048.506-3.219.552v4.027h-1v-4.027c-1.171-.046-2.247-.236-3.219-.553l-1.308 3.827-.945-.324 1.319-3.859c-1.117-.475-2.096-1.092-2.938-1.782l-2.642 3.3-.781-.625 2.673-3.338c-1.961-1.863-3.074-3.993-3.521-4.987-.022-.05-.136-.316-.136-.633h1c.787 2.068 3.969 7.912 11 8 7.029-.088 10.214-5.93 11-8h1c0 .382-.132.63-.158.677-.436.971-1.542 3.088-3.497 4.945zm-11.416-3.549c-1.806-1.806-.704-5.521.92-7.145 1.154-1.153 2.325-1.069 3.301-.611l6.085-5.302 2.572 2.572-5.186 6.131c.514 1.002.658 2.228-.548 3.434-1.03 1.03-2.904 1.851-4.597 1.851-.975 0-1.889-.271-2.548-.931zm5.117-7.211c.469.35.852.731 1.107.986.234.234.574.577.899.994l4.398-5.198-1.262-1.262-5.142 4.479zm-4.41 6.504c1.239 1.239 4.278.531 5.73-.92 1.068-1.069.811-2.16-.92-3.891-.436-.436-.823-.756-1.188-1.007l-.003.002-.011-.012c-.507-.348-.962-.54-1.377-.54-.467 0-.891.215-1.312.637-1.452 1.452-2.159 4.491-.92 5.73z"/></svg>