<svg id="Layer_1" viewBox="0 0 24 24" xmlns="http://www.w3.org/2000/svg" data-name="Layer 1"><path d="m4 4h7v1h-7zm0 4h7v-1h-7zm20-1.5h-4v2.5h-4.293l-3 3h-3.383l-.875 7h1.051c1.378 0 2.5 1.121 2.5 2.5v2.5h-12v-2.5c0-1.379 1.122-2.5 2.5-2.5h.559l.875-7h-.434c-1.93 0-3.5-1.57-3.5-3.5v-5c0-1.93 1.57-3.5 3.5-3.5h9.204l3.073 3h4.224v2.5h4v1zm-14.5 13.5h-7c-.827 0-1.5.673-1.5 1.5v1.5h10v-1.5c0-.827-.673-1.5-1.5-1.5zm-1.184-8h-3.375l-.875 7h3.375zm6.684-3.707v-4.654l-2.704-2.639h-8.796c-1.378 0-2.5 1.121-2.5 2.5v5c0 1.379 1.122 2.5 2.5 2.5h8.793zm4-4.293h-3v4h3z"/></svg>