<svg id="Layer_1" viewBox="0 0 24 24" xmlns="http://www.w3.org/2000/svg" data-name="Layer 1"><path d="m16.975 5h-1.975v-1h1.975c2.212 0 4.104 1.505 4.602 3.661l.173.749c-.352-.131-.718-.233-1.096-.301l-.052-.223c-.393-1.699-1.884-2.885-3.627-2.885zm-10.328 16.952-2.138.909c-.275.092-.56.139-.844.139-1.423.025-2.701-1.232-2.666-2.669 0-1.362.155-2.725.462-4.051l1.937-8.395c.393-1.699 1.884-2.885 3.627-2.885h1.975v-1h-1.975c-2.212 0-4.104 1.505-4.602 3.661l-1.936 8.394c-.323 1.4-.487 2.839-.487 4.276-.047 1.975 1.708 3.704 3.668 3.669.391 0 .781-.065 1.195-.205l2.175-.922c2.301-.976 3.806-3.168 3.937-5.642-.333.208-.683.39-1.051.547-.301 1.843-1.517 3.429-3.276 4.175zm16.955-.667.395.308-1.848 2.364c-.748-.592-1.259-.96-2.741-2.358-1.137 1.081-1.764 1.644-2.586 2.284l-1.863-2.351c.868-.668 1.544-1.291 2.396-2.13-1.288-1.56-2.355-3.324-2.355-4.903 0-2.481 2.019-4.5 4.5-4.5s4.5 2.019 4.5 4.5c0 1.341-.844 3-2.509 4.937.685.664 1.408 1.3 2.111 1.849zm-4.905-.389c-.229-.235-.459-.482-.688-.735-.596.581-1.103 1.067-1.651 1.527l.619.781c.35-.299.917-.808 1.72-1.573zm3.899.864c-2.314-1.892-5.597-5.268-5.597-7.261 0-1.378 1.121-2.5 2.5-2.5s2.5 1.122 2.5 2.5c0 .823-.642 1.993-1.907 3.478.22.249.451.499.69.748 1.452-1.701 2.217-3.157 2.217-4.226 0-1.93-1.57-3.5-3.5-3.5s-3.5 1.57-3.5 3.5c0 2.529 3.711 6.199 5.98 8.05l.616-.789zm-1.597-7.261c0-.827-.673-1.5-1.5-1.5s-1.5.673-1.5 1.5c0 .625.572 1.613 1.439 2.701 1.401-1.671 1.561-2.439 1.561-2.701zm-9.5-3.604c0 1.94-1.236 3.656-3.077 4.27l-2.581.86.316.948 2.581-.86c2.249-.75 3.761-2.847 3.761-5.218v-10.895h-1v10.896z"/></svg>