<svg id="Layer_1" viewBox="0 0 24 24" xmlns="http://www.w3.org/2000/svg" data-name="Layer 1"><path d="m21.5 2h-5.04c-1.099-1.224-2.688-2-4.46-2s-3.36.776-4.46 2h-5.04c-1.379 0-2.5 1.122-2.5 2.5v19.5h12.028c-.362-.305-.696-.64-1.003-1h-10.025v-18.5c0-.827.673-1.5 1.5-1.5h4.312c-.513.884-.812 1.907-.812 3v2h12v-2c0-1.093-.299-2.116-.812-3h4.312c.827 0 1.5.673 1.5 1.5v6.526c.36.306.695.641 1 1.003v-7.529c0-1.378-1.121-2.5-2.5-2.5zm-4.5 5h-5.291l1.838-3.676-.895-.447-2.061 4.124h-3.591v-1c0-2.757 2.243-5 5-5s5 2.243 5 5v1zm.5 4c-3.584 0-6.5 2.916-6.5 6.5s2.916 6.5 6.5 6.5 6.5-2.916 6.5-6.5-2.916-6.5-6.5-6.5zm0 12c-3.032 0-5.5-2.468-5.5-5.5s2.468-5.5 5.5-5.5 5.5 2.468 5.5 5.5-2.468 5.5-5.5 5.5zm-1.013-8.584-3.074 3.584h3.587v3h1v-3h3.593l-3.103-3.589c-.556-.552-1.453-.549-2.003.005zm-.9 2.584 1.62-1.89c.164-.152.419-.149.553-.018l1.647 1.907h-3.82z"/></svg>