<svg id="Layer_1" viewBox="0 0 24 24" xmlns="http://www.w3.org/2000/svg" data-name="Layer 1"><path d="m24 0v1h-7c-2.027 0-2.908 1.336-3.761 2.628-.283.431-.552.837-.859 1.197-.043.061-1.628 2.175-4.38 2.175s-4.717-2.83-4.799-2.95l.827-.562c.018.025 1.742 2.513 3.972 2.513s3.585-1.779 3.598-1.797c.289-.34.541-.721.807-1.125.904-1.371 2.029-3.078 4.596-3.078h7zm-.768 5.176c.502.745.768 1.615.768 2.515v13.81c0 1.378-1.121 2.5-2.5 2.5s-2.5-1.122-2.5-2.5v-13.811c0-.9.266-1.77.768-2.515l1.732-2.57 1.732 2.57zm-.232 2.514c0-.7-.206-1.376-.598-1.956l-.902-1.34-.902 1.34c-.392.58-.598 1.256-.598 1.956v13.81c0 .827.673 1.5 1.5 1.5s1.5-.673 1.5-1.5zm-7.571-1.921-.844-.537c-.896 1.407-2.945 3.769-6.585 3.769s-5.688-2.362-6.585-3.77l-.844.537c.326.511.789 1.133 1.404 1.742l-1.952 1.646.645.765 2.062-1.739c.356.283.753.549 1.187.789l-1.667 2.482.83.558 1.751-2.607c.442.176.918.319 1.429.421l-.622 2.86.977.212.636-2.928c.243.02.492.03.749.03.245 0 .483-.011.715-.029l.658 2.932.977-.219-.64-2.853c.523-.103 1.009-.248 1.46-.428l1.751 2.607.83-.558-1.667-2.482c.434-.24.831-.506 1.187-.789l2.062 1.739.645-.765-1.951-1.646c.614-.609 1.078-1.231 1.404-1.742z"/></svg>