<svg id="Layer_1" viewBox="0 0 24 24" xmlns="http://www.w3.org/2000/svg" data-name="Layer 1"><path d="m14.5 4.5c0 .552-.448 1-1 1s-1-.448-1-1 .448-1 1-1 1 .448 1 1zm4 6c0 .552.448 1 1 1s1-.448 1-1-.448-1-1-1-1 .448-1 1zm5.5 4.636v.338l-20.876 8.377c-.847.312-1.796.118-2.442-.533-.643-.643-.849-1.572-.539-2.427l8.383-20.891h.338c8.346 0 15.136 6.79 15.136 15.136zm-12.007 4.079c-.111-8.4-2.183-14.489-3.298-16.952l-7.618 18.986c-.173.477-.059.993.312 1.363.37.372.886.485 1.378.306l9.226-3.702zm.417-7.224c.918.156 1.799.326 2.633.506l.93-3.421c.076-.293-.009-.603-.227-.822-.219-.218-.529-.301-.828-.226l-3.087.821c.214.975.41 2.023.579 3.141zm9.185 3.371c-1.946-.698-5.292-1.672-9.039-2.331.231 1.777.386 3.711.428 5.786l8.611-3.456zm1.401-.562c-.176-7.529-6.267-13.62-13.796-13.796l-.003.008c.585 1.064 1.581 3.438 2.411 6.862l3.056-.813c.649-.167 1.316.014 1.789.486.472.472.653 1.139.486 1.785l-.919 3.383c3.407.791 5.953 1.661 6.976 2.085z"/></svg>