<svg id="Layer_1" viewBox="0 0 24 24" xmlns="http://www.w3.org/2000/svg" data-name="Layer 1"><path d="m20 6c0-1.103-.897-2-2-2s-2 .897-2 2 .897 2 2 2 2-.897 2-2zm-2 1c-.552 0-1-.449-1-1s.448-1 1-1 1 .449 1 1-.448 1-1 1zm-.5 2h1v4h-1zm-5.5-3c0-3.309 2.691-6 6-6s6 2.691 6 6c0 2.416-1.438 4.497-3.5 5.447v-1.143c1.487-.867 2.5-2.462 2.5-4.304 0-2.757-2.243-5-5-5s-5 2.243-5 5c0 1.842 1.013 3.437 2.5 4.304v1.143c-2.062-.95-3.5-3.032-3.5-5.447zm11 6.24c.361-.29.694-.613 1-.96v10.547l-12 2.173-12-2.173v-17.236c0-.771.339-1.496.931-1.989.591-.494 1.361-.698 2.124-.56l6.46 1.175c.315.057.607.164.885.294-.105.32-.19.648-.254.984-.248-.138-.519-.242-.811-.295l-6.46-1.174c-.464-.082-.94.042-1.304.344-.363.303-.571.748-.571 1.221v16.401l10.5 1.909v-12.249c.297.414.631.798 1 1.148v11.101l10.5-1.909z"/></svg>