<?xml version="1.0" encoding="UTF-8"?>
<svg xmlns="http://www.w3.org/2000/svg" id="Layer_1" data-name="Layer 1" viewBox="0 0 24 24">
  <path d="M22.891,11.688c-.909-1.137-1.891-2.679-1.891-3.188V3.099c0-1.198-.854-2.231-2.029-2.456-1.534-.293-3.99-.643-6.971-.643S6.564,.35,5.028,.643c-1.175,.225-2.028,1.258-2.028,2.456v5.401c.012,.515-1.104,2.232-2,3.325v12.175H23V11.825l-.109-.137ZM15.247,1.143l-3.247,9.335L8.753,1.143c.983-.086,2.07-.143,3.247-.143s2.264,.057,3.247,.143ZM2,19h6v-1H2v-5.826c.512-.654,2-2.645,2-3.674V3.099c0-.719,.512-1.339,1.216-1.474,.668-.128,1.523-.265,2.514-.379l3.797,10.915-.026,10.838H2v-4Zm10.5,4V12.084L16.27,1.247c.991,.114,1.846,.251,2.513,.379,.705,.135,1.217,.754,1.217,1.474v5.401c0,1.029,1.488,3.02,2,3.674v5.826h-6v1h6v4H12.5Zm4.497-6.31c.538-.409,2.877-1.826,3.003-3.94,0-.965-.785-1.75-1.75-1.75-.489,0-.932,.202-1.25,.526-.318-.325-.761-.526-1.25-.526-.965,0-1.75,.785-1.75,1.75,.128,2.075,2.461,3.523,2.997,3.94Zm-1.997-3.94c0-.414,.337-.75,.75-.75s.75,.336,.75,.75v.25h1v-.25c0-.414,.337-.75,.75-.75s.75,.336,.75,.75c0,.978-1.256,2.145-1.997,2.713-.724-.567-2.003-1.766-2.003-2.713Z"/>
</svg>
