<svg id="Layer_1" viewBox="0 0 24 24" xmlns="http://www.w3.org/2000/svg" data-name="Layer 1"><path d="m15.86 24h-1.998l-3.432-1-2.567-.019-3.863-1.104v-1.143l1.105-1.143.992-4.591h.903v-.349l-2.883-4.324-2.377-2.194-1.74-.58v-1.443l3.957-.989 1.698-2.25 1.359 1.13h1.319l1.667-1.25v-1.001l2.333-1.75h2.667v1h2.25l1.5 2h2.018l1 1.5h2.232l-.039 1.193-1.04 2.479 1.03 1.828h-1.806l-.932 2.119 1.094.195.646 2.316-.954 1.062v2.105l1.664 1.705-1.9 2.416-3.331-.917h-1.572l-1 3zm-1.79-1h1.069l1-3h2.493l2.756.777.947-1.204-1.336-1.369v-2.895l.843-.938-.33-1.182-1.727-.307 1.707-3.881h.747l-.431-.764 1.148-2.736h-1.726l-1-1.5h-1.982l-1.5-2h-2.75v-1.001h-1.333l-1.667 1.25v1l-2.333 1.75h-2.014l-.831-.691-.601.796.779.665v1.23h-2v-.859l-2.9.725 1.239.46 2.577 2.397 3.084 4.626v1.651h-1.097l-.881 4.082-1.01 1.045 3.058.874 2.567.019 3.433.981z"/></svg>