<svg id="Layer_1" viewBox="0 0 24 24" xmlns="http://www.w3.org/2000/svg" data-name="Layer 1"><path d="m5.607 11-3.483 12h-1.124v-18.5c0-.827.673-1.5 1.5-1.5h3.382l4 2h1.118v-1h-.882l-4-2h-3.618c-1.379 0-2.5 1.122-2.5 2.5v19.5h19.93l4.07-13zm13.588 12h-16.029l3.193-11h16.279zm-5.205-15.059c.975.423 2.469.559 3.511.559 1.034 0 2.511-.135 3.487-.55l-.002 1.075 1 .002.015-7.276s0 0 0 0c0-1.381-2.828-1.75-4.499-1.75s-4.498.369-4.499 1.749l-.015 7.276 1 .002.002-1.086zm.002-1.108v-.047c.004.008.01.022.01.047zm.008-3.916c.976.44 2.462.583 3.501.583s2.521-.143 3.497-.581l-.003 1.376c-.166.22-1.338.705-3.494.705-2.185 0-3.364-.5-3.504-.715zm-.003 1.392c.002.009.005.011.005.024h-.005zm3.504 3.191c-2.2 0-3.382-.507-3.509-.72l.003-1.338c.976.421 2.465.557 3.506.557s2.516-.136 3.492-.552l-.003 1.352c-.178.222-1.348.7-3.489.7zm0-6.5c2.215 0 3.404.558 3.504.721-.1.222-1.289.779-3.504.779-2.123 0-3.303-.512-3.485-.75.183-.238 1.362-.75 3.485-.75z"/></svg>