<svg id="Layer_1" viewBox="0 0 24 24" xmlns="http://www.w3.org/2000/svg" data-name="Layer 1"><path d="m4.271 11.314.853.849c-.073.438-.124.883-.124 1.337v10.5h-1v-10.5c0-.749.096-1.481.271-2.186zm15.729-5.282v-2.532c0-1.93-1.57-3.5-3.5-3.5h-5c-1.381 0-2.566.811-3.136 1.975l.766.766c.323-1.006 1.257-1.741 2.37-1.741h5c1.378 0 2.5 1.122 2.5 2.5v11c0 1.93-1.57 3.5-3.5 3.5h-3c-1.93 0-3.5-1.57-3.5-3.5v-1.999l-1-.997v2.996c0 2.481 2.019 4.5 4.5 4.5h3c2.481 0 4.5-2.019 4.5-4.5v-7.241c1.892 1.511 3 3.78 3 6.241v10.5h1v-10.5c0-3.026-1.496-5.791-4-7.468zm-12.75 1.9-1.767 1.767-4.896-4.869c-.781-.781-.781-2.05 0-2.83l1.414-1.414c.78-.78 2.048-.78 2.829 0l4.897 4.87-1.768 1.768 3.127 3.12 3.713 2.039-2.389 2.389-2.057-3.746-3.102-3.095zm1.06-2.474-4.187-4.164c-.391-.391-1.025-.391-1.416 0l-1.414 1.414c-.39.39-.39 1.024 0 1.415l4.188 4.165 2.828-2.829z"/></svg>