<svg id="Layer_1" viewBox="0 0 24 24" xmlns="http://www.w3.org/2000/svg" data-name="Layer 1"><path d="m4.5 13c1.378 0 2.5-1.121 2.5-2.5s-1.122-2.5-2.5-2.5-2.5 1.121-2.5 2.5 1.122 2.5 2.5 2.5zm0-4c.827 0 1.5.673 1.5 1.5s-.673 1.5-1.5 1.5-1.5-.673-1.5-1.5.673-1.5 1.5-1.5zm5.5 8h1v7h-1zm14-15.583v2.786l-6 6.176v13.621h-1v-14.027l6-6.176v-.405l-2.005 1.473-.59-3.864h-.405v4.593l-3 2.203v-7.797h1v5.822l1-.734v-5.088h2.264l.47 3.081zm-13 6.764-10-6.087v-.493l10 4.782v-6.383h-1v4.797l-10-4.782v2.641l10 6.087v5.257h-7.5c-1.378 0-2.5 1.121-2.5 2.5v7.5h7v-9h7v-1h-3zm-5 14.819h-5v-6.5c0-.827.673-1.5 1.5-1.5h3.5z"/></svg>