<?xml version="1.0" encoding="UTF-8"?>
<svg xmlns="http://www.w3.org/2000/svg" id="Layer_1" data-name="Layer 1" viewBox="0 0 24 24">
  <path d="M23,7.364l1-1v13.636h-7.032l-3.985,3.295c-.275,.245-.626,.368-.978,.368-.356,0-.716-.126-1.001-.38l-3.898-3.283H0V2.5C0,1.122,1.121,0,2.5,0h15.137l-1,1H2.5c-.827,0-1.5,.673-1.5,1.5V19H7.471l4.188,3.526c.2,.179,.484,.177,.674,.009l4.276-3.535h6.392V7.364Zm-12,2.101L19.732,.732c.976-.976,2.562-.974,3.535,0,.473,.472,.732,1.1,.732,1.768s-.26,1.296-.732,1.768L14.535,13h-3.535v-3.536Zm1,2.536h2.121L22.561,3.561c.283-.283,.439-.66,.439-1.061s-.156-.777-.439-1.061c-.584-.585-1.537-.585-2.121,0L12,9.878v2.122Z"/>
</svg>
