<svg id="Layer_1" viewBox="0 0 24 24" xmlns="http://www.w3.org/2000/svg" data-name="Layer 1"><path d="m19.5 23h2.755l-5.255-9.008-5.254 9.008h2.754v1h-4.496l6.996-11.992 6.995 11.992h-4.495zm-2-6h-1v4h1zm-.5 5c-.552 0-1 .448-1 1s.448 1 1 1 1-.448 1-1-.448-1-1-1zm-8.732 1-.583 1h-5.185c-1.378 0-2.5-1.122-2.5-2.5v-2.5h2.015l-1.072-10h4.799c-.154-1.021-.242-1.901-.242-2.5 0-3.584 2.916-6.5 6.5-6.5s6.5 2.916 6.5 6.5c0 .601-.088 1.48-.242 2.5h4.799l-.853 7.959-.85-1.457.589-5.502h-19.886l1.393 13h4.819zm.792-14h5.893c.028-.367.047-.711.047-1 0-1.654-1.346-3-3-3s-3 1.346-3 3c0 .272.024.619.06 1zm-2.306 0h1.302c-.033-.375-.056-.721-.056-1 0-2.206 1.794-4 4-4s4 1.794 4 4c0 .294-.018.637-.044 1h1.29c.161-1.034.254-1.918.254-2.5 0-3.033-2.468-5.5-5.5-5.5s-5.5 2.467-5.5 5.5c0 .581.092 1.464.254 2.5zm-4.311 13.994-.321-2.994h-1.122v1.5c0 .808.643 1.464 1.443 1.494z"/></svg>