<svg id="Layer_1" viewBox="0 0 24 24" xmlns="http://www.w3.org/2000/svg" data-name="Layer 1"><path d="m23.99 19.048c-.039-.357-.2-.694-.454-.951l-3.593-3.593c-.013-.135-.008-.272-.039-.406-.12-.527.122-1.088.601-1.397.89-.569 1.486-1.621 1.469-2.7.016-1.084-.577-2.133-1.47-2.704-.479-.309-.72-.87-.601-1.396.122-.532.104-1.081-.054-1.63-.296-1.03-1.119-1.852-2.147-2.146-.547-.157-1.095-.175-1.628-.055-.523.121-1.087-.121-1.396-.6-.29-.448-.684-.812-1.171-1.083-.937-.519-2.1-.519-3.037 0-.488.271-.882.636-1.171 1.084-.309.479-.872.721-1.396.6-.533-.12-1.081-.102-1.628.055-1.029.295-1.852 1.117-2.147 2.147-.157.548-.176 1.096-.055 1.629.12.526-.121 1.087-.6 1.396-.892.57-1.485 1.619-1.469 2.7-.016 1.086.575 2.132 1.47 2.704.479.309.72.87.6 1.396-.032.14-.028.283-.04.425l-3.572 3.576c-.253.255-.414.592-.453.949-.096.873.536 1.661 1.409 1.758l1.598.177.176 1.583c.061.793.797 1.451 1.589 1.434.417 0 .826-.164 1.122-.467l4.188-4.193c.519.448 1.224.661 1.897.662.678 0 1.386-.218 1.907-.67l4.197 4.197c.299.307.709.472 1.127.472.789.016 1.526-.642 1.587-1.428l.176-1.59 1.598-.177c.873-.097 1.504-.885 1.409-1.757zm-18.799 3.782c-.155.16-.395.212-.613.134-.215-.074-.371-.274-.391-.502l-.265-2.385-2.393-.266c-.325-.036-.561-.33-.525-.655.015-.133.074-.259.167-.352l2.991-2.996c.315.99 1.111 1.779 2.112 2.065.548.157 1.097.177 1.628.055.586-.144 1.153.196 1.482.702l-4.193 4.199zm7.831-4.093c-.628.349-1.44.349-2.067 0-.343-.189-.617-.442-.816-.751-.442-.686-1.192-1.088-1.967-1.088-.547.029-1.064.211-1.623.014-.69-.197-1.263-.771-1.461-1.46-.11-.385-.124-.766-.041-1.132.212-.935-.203-1.922-1.033-2.458-.612-.395-1.024-1.109-1.012-1.864-.012-.75.402-1.468 1.012-1.86.831-.536 1.246-1.523 1.033-2.458-.083-.366-.069-.747.041-1.132.198-.69.771-1.263 1.461-1.461.385-.109.766-.123 1.131-.041.934.213 1.923-.202 2.458-1.033.199-.309.473-.562.815-.751.628-.349 1.439-.348 2.067 0 .342.19.617.443.816.751.535.831 1.522 1.243 2.458 1.033.366-.083.747-.069 1.131.041.69.197 1.264.771 1.462 1.46.11.385.124.766.04 1.132-.212.935.204 1.922 1.033 2.458.611.393 1.025 1.111 1.012 1.864.013.749-.403 1.469-1.012 1.86-.83.535-1.246 1.523-1.033 2.458.083.366.07.747-.041 1.131-.198.69-.772 1.264-1.462 1.461-.384.11-.765.123-1.131.041-.936-.21-1.923.203-2.458 1.033-.2.309-.474.562-.816.751zm9.449 1.074-2.393.266-.266 2.391c-.021.224-.179.425-.395.498-.215.075-.454.023-.613-.14l-4.204-4.204c.327-.505.898-.834 1.475-.693.532.12 1.08.103 1.628-.055 1.005-.288 1.805-1.082 2.118-2.078l3.007 3.007c.094.095.154.221.168.354.036.325-.2.618-.525.654zm-5.448-11.21.01-1.601h-4.042l.484-1.49c.036-.208.034-.389-.006-.536-.208-.761-.976-1.162-1.719-.856-.232.097-.42.282-.651.558l-1.887 2.324h-1.012c-.662 0-1.2.539-1.2 1.2v4.6c0 .662.539 1.2 1.2 1.2h7.707zm-9.023 4.199v-4.6c0-.11.09-.2.2-.2h.8v5h-.8c-.11 0-.2-.09-.2-.2zm2 .2v-5.384l2.072-2.584c.21-.197.488-.067.435.237l-.895 2.73h4.421v.449l-.94 4.551h-5.093z"/></svg>