<?xml version="1.0" encoding="UTF-8"?>
<svg xmlns="http://www.w3.org/2000/svg" id="Layer_1" data-name="Layer 1" viewBox="0 0 24 24">
  <path d="M13,5c0,.552-.448,1-1,1s-1-.448-1-1,.448-1,1-1,1,.448,1,1Zm4.061,1.281l-1.541,2.574-1.354-.81c-.208,.148-.431,.273-.666,.376v1.579h-3v-1.579c-.235-.103-.458-.229-.666-.376l-1.354,.81-1.541-2.574,1.344-.804c-.044-.325-.044-.628,0-.953l-1.344-.804,1.541-2.574,1.354,.81c.208-.148,.431-.274,.666-.376V0h3V1.579c.235,.103,.458,.229,.666,.376l1.354-.81,1.541,2.574-1.344,.804c.044,.325,.044,.628,0,.953l1.344,.804Zm-2.47-2.25l1.099-.657-.514-.858-1.104,.661c-.43-.432-.977-.739-1.571-.891V1h-1v1.286c-.595,.153-1.141,.459-1.571,.891l-1.104-.661-.514,.858,1.099,.657c-.2,.648-.2,1.29,0,1.938l-1.099,.657,.514,.858,1.104-.661c.43,.432,.977,.739,1.571,.89v1.287h1v-1.287c.595-.151,1.141-.458,1.571-.89l1.104,.661,.514-.858-1.099-.657c.2-.648,.2-1.29,0-1.938ZM3.5,20c-1.103,0-2-.897-2-2s.897-2,2-2,2,.897,2,2-.897,2-2,2Zm0-1c.552,0,1-.449,1-1s-.448-1-1-1-1,.449-1,1,.448,1,1,1Zm2,2H1.5c-.827,0-1.5,.673-1.5,1.5v1.5H1v-1.5c0-.276,.225-.5,.5-.5H5.5c.275,0,.5,.224,.5,.5v1.5h1v-1.5c0-.827-.673-1.5-1.5-1.5Zm18.5-3.5v6.5h-8v-6.5c0-.827,.673-1.5,1.5-1.5h5c.827,0,1.5,.673,1.5,1.5Zm-1,0c0-.276-.225-.5-.5-.5h-5c-.275,0-.5,.224-.5,.5v5.5h6v-5.5Zm-4.5,1.5h3v-1h-3v1Zm-8.833,.6l2.201-1.167-.469-.884-2.676,1.419c-.61,.321-.819,1.176-.423,1.746l1.709,2.503,.826-.563-1.424-2.085c.832,.285,1.702,.432,2.588,.432,.684,0,1.353-.102,2-.271v-1.029c-.642,.193-1.314,.3-2,.3-.801,0-1.584-.136-2.333-.4Zm-3.883-11.01c-.31-.13-.661-.127-.971,.011l-2.753,1.269,.418,.908,2.222-1.024c-.453,1.012-.699,2.115-.699,3.246,0,.357,.032,.709,.078,1.058,.371,.054,.727,.15,1.057,.299-.088-.444-.136-.898-.136-1.357,0-1.025,.238-2.021,.661-2.933l.808,2.431,.949-.315-.955-2.873c-.112-.323-.36-.585-.68-.719Zm11.172,2.761l-.549,.836,2.533,1.662c.58,.381,1.423,.15,1.732-.471l1.371-2.704-.893-.452-1.174,2.315c-.097-1.681-.71-3.225-1.691-4.471-.16,.327-.34,.64-.547,.936,.734,1.05,1.171,2.313,1.235,3.673l-2.018-1.324Z"/>
</svg>
