<?xml version="1.0" encoding="UTF-8"?>
<svg xmlns="http://www.w3.org/2000/svg" id="Layer_1" data-name="Layer 1" viewBox="0 0 24 24">
  <path d="M2,6c-1.103,0-2-.897-2-2V0H1V4c0,.551,.448,1,1,1V0h1V5c.552,0,1-.449,1-1V0h1V4c0,1.103-.897,2-2,2v6h-1V6ZM24,.597V12h-1v-1.693c-1.7-1.535-2.545-3.274-2.498-5.177,.094-2.356,1.337-4.163,2.277-4.942,.375-.371,1.22-.153,1.221,.409Zm-1,8.306V1.364c-.592,.686-1.457,2.138-1.498,3.79-.033,1.337,.47,2.593,1.498,3.748Zm0,10.421l-3.209-4.01c-.668-.834-1.664-1.313-2.732-1.313H8.934c-1.063,0-2.056,.475-2.723,1.302l-3.211,3.978v-5.279h-1v7h.896l4.092-5.07s.008-.007,.012-.012v8.082h1V15.193c.294-.119,.607-.193,.934-.193h8.125c.33,0,.646,.075,.941,.196v8.804h1V15.929s.007,.006,.01,.01l4.051,5.062h.939v-7h-1v5.324ZM8.5,7.5c0-2.481,2.019-4.5,4.5-4.5s4.5,2.019,4.5,4.5-2.019,4.5-4.5,4.5-4.5-2.019-4.5-4.5Zm1,0c0,1.93,1.57,3.5,3.5,3.5s3.5-1.57,3.5-3.5-1.57-3.5-3.5-3.5-3.5,1.57-3.5,3.5Z"/>
</svg>
