<?xml version="1.0" encoding="UTF-8"?>
<svg xmlns="http://www.w3.org/2000/svg" id="Layer_1" data-name="Layer 1" viewBox="0 0 24 24">
  <path d="M21,13v-.5c0-.827-.673-1.5-1.5-1.5h-3c-.827,0-1.5,.673-1.5,1.5v.5h-3v1h1v8c0,1.103,.897,2,2,2h6c1.103,0,2-.897,2-2V14h1v-1h-3Zm-5-.5c0-.276,.225-.5,.5-.5h3c.275,0,.5,.224,.5,.5v.5h-4v-.5Zm6,9.5c0,.552-.448,1-1,1h-6c-.552,0-1-.448-1-1V14h8v8ZM0,17.5c0,.98,.407,1.864,1.058,2.5H0v.5c0,1.93,1.57,3.5,3.5,3.5H7.5c1.93,0,3.5-1.57,3.5-3.5v-.5h-1.058c.651-.636,1.058-1.52,1.058-2.5v-.5H0v.5Zm9.95,3.5c-.232,1.14-1.243,2-2.45,2H3.5c-1.207,0-2.218-.86-2.45-2H9.95Zm0-3c-.232,1.14-1.243,2-2.45,2H3.5c-1.207,0-2.218-.86-2.45-2H9.95ZM21,7v-1H12.975c-.257-3.351-3.059-6-6.475-6C2.916,0,0,2.916,0,6.5s2.916,6.5,6.5,6.5c3.415,0,6.218-2.649,6.475-6h8.025ZM6.5,12c-3.032,0-5.5-2.467-5.5-5.5S3.468,1,6.5,1s5.5,2.467,5.5,5.5-2.468,5.5-5.5,5.5Zm4.5-5.5v.5h-1v-.5c0-1.93-1.57-3.5-3.5-3.5s-3.5,1.57-3.5,3.5,1.57,3.5,3.5,3.5h.5v1h-.5c-2.481,0-4.5-2.019-4.5-4.5S4.019,2,6.5,2s4.5,2.019,4.5,4.5Z"/>
</svg>
