<svg id="Layer_1" viewBox="0 0 24 24" xmlns="http://www.w3.org/2000/svg" data-name="Layer 1"><path d="m23.935 8.612.065-.612c-.994.174-3.038.06-5.677 2.42-1.279 1.279-1.823 2.851-2.101 3.917-.113-.581-.222-1.382-.222-2.337.11-2.782.37-2.908.707-4h-3.811c-.139-.632-.396-1.997-.396-3.471.084-2.753.419-3.538.646-4.529h-5.769c.17.887.55 2.134.623 4.5 0 .894-.137 1.919-.266 2.692-.268-.914-.716-2.093-1.723-3.1-2.366-2.084-4.018-1.93-4.997-2.103.177.972.046 2.654 2.129 5.014.751.751 1.555 1.143 2.335 1.448-.967.342-2.063.887-3.029 1.852-2.364 2.644-2.266 4.698-2.449 5.697.994-.174 3.037-.06 5.677-2.42 1.258-1.258 1.802-2.827 2.086-3.893.119.629.236 1.459.236 2.284-.014 1.783-.473 3.29-.516 3.453.045.205.494 2.25.516 4.076-.075 2.393-.455 3.57-.623 4.5h9.271c-.235-.957-.565-1.741-.648-4.471 0-1.049.131-2.055.256-2.787.265.917.727 2.134 1.747 3.154 2.367 2.084 4.018 1.931 4.997 2.104-.176-.972-.046-2.654-2.128-5.014-.752-.751-1.57-1.162-2.35-1.466.967-.342 2.064-.858 3.029-1.823 2.034-2.035 2.369-4.962 2.383-5.085zm-8.594 6.388h-2.461c-.136-.492-.38-1.568-.38-3 0-1.411.236-2.488.374-3h2.466c-.152.635-.34 1.685-.34 3s.188 2.366.34 3zm-6.696-6h3.196c-.152.634-.341 1.682-.341 3 0 1.329.192 2.375.345 3h-3.218c.154-.67.373-1.833.373-3.029 0-1.149-.203-2.282-.355-2.971zm3.23-8c-.153.745-.375 2.096-.375 3.529s.22 2.732.373 3.471h-3.267c.151-.788.394-2.241.394-3.5 0-1.24-.237-2.688-.389-3.5zm-9.67 2.173c.788.188 2.106.634 3.099 1.627.997.997 1.374 2.252 1.568 3.046-.788-.188-2.029-.557-3.022-1.55-.997-.997-1.451-2.329-1.645-3.123zm2.765 9.7c-1.23 1.229-2.878 1.747-3.787 1.951.209-.915.739-2.581 1.972-3.814 1.23-1.229 2.815-1.718 3.724-1.922-.21.915-.676 2.552-1.909 3.785zm3.648 3.127h3.253c-.153.764-.372 2.103-.372 3.529s.219 2.722.372 3.471h-3.261c.152-.796.389-2.259.389-3.5 0-1.223-.23-2.673-.381-3.5zm4.278 7.029c-.139-.639-.397-2.023-.397-3.5 0-1.463.253-2.864.393-3.529h2.483c-.153.751-.376 2.089-.376 3.529 0 1.429.221 2.753.374 3.5zm8.913-2.213c-.788-.188-2.106-.634-3.1-1.627-.996-.997-1.388-2.271-1.582-3.064.788.188 2.044.575 3.037 1.568.996.997 1.45 2.329 1.645 3.123zm-4.688-5.934c.209-.915.676-2.522 1.909-3.756s2.878-1.747 3.786-1.951c-.209.915-.738 2.581-1.972 3.814s-2.815 1.688-3.724 1.893z"/></svg>