<?xml version="1.0" encoding="UTF-8"?>
<svg xmlns="http://www.w3.org/2000/svg" id="Layer_1" data-name="Layer 1" viewBox="0 0 24 24">
  <path d="M11,6h-2v-1h5v1h-2v6h-1V6Zm13,.5v15.855c.041,1.276-1.523,2.113-2.562,1.371l-4.089-2.726H6v-3.566l-3.438,2.292c-1.04,.742-2.603-.096-2.562-1.371V2.5C0,1.122,1.122,0,2.5,0h14c1.378,0,2.5,1.122,2.5,2.5v1.5h2.5c1.378,0,2.5,1.122,2.5,2.5ZM6.349,16h11.651V2.5c0-.827-.673-1.5-1.5-1.5H2.5c-.827,0-1.5,.673-1.5,1.5v15.855c-.018,.502,.599,.834,1.007,.539l4.341-2.894ZM23,6.5c0-.827-.673-1.5-1.5-1.5h-2.5v12H7v3h10.651l4.341,2.894c.407,.293,1.026-.037,1.007-.539V6.5ZM7,5h-1v7h1V5Z"/>
</svg>
