<svg id="Layer_1" viewBox="0 0 24 24" xmlns="http://www.w3.org/2000/svg" data-name="Layer 1"><path d="m11.5 10h1v.628c-.355.259-.69.543-1 .852zm-.478 13h-9.77l3.632-20.758c.125-.72.747-1.242 1.478-1.242h11.277c.729 0 1.351.521 1.478 1.24l1.278 7.267c.381.138.748.303 1.101.491l-1.395-7.931c-.21-1.198-1.246-2.067-2.462-2.067h-11.277c-1.217 0-2.253.87-2.463 2.069l-3.837 21.931h11.963c-.362-.305-.697-.64-1.003-1zm12.978-5.5c0 3.584-2.916 6.5-6.5 6.5s-6.5-2.916-6.5-6.5 2.916-6.5 6.5-6.5 6.5 2.916 6.5 6.5zm-1 0c0-3.033-2.468-5.5-5.5-5.5s-5.5 2.467-5.5 5.5 2.468 5.5 5.5 5.5 5.5-2.467 5.5-5.5zm-6.02 1.452c-.083.082-.144.091-.241-.006l-1.856-1.799-.695.718 1.851 1.793c.22.221.513.342.824.342s.605-.122.822-.339l3.456-3.399-.701-.713-3.459 3.402zm-4.48-14.952h-1v4h1z"/></svg>