<?xml version="1.0" encoding="UTF-8"?>
<svg xmlns="http://www.w3.org/2000/svg" id="Layer_1" data-name="Layer 1" viewBox="0 0 24 24">
  <path d="M23.382,10.933c-1.998,0-4.933,.448-7.57,2.577-2.789,2.252-4.812,6.664-4.812,10.49h1c0-.654,.063-1.326,.183-2.001,3.01-.031,5.358-.848,7.591-2.634,3.098-2.631,3.562-5.889,4.251-8.433h-.643Zm-4.233,7.651c-1.796,1.437-3.611,2.172-5.887,2.362,1.164-1.258,4.813-5.129,7.239-6.946-3.768,1.884-6.539,4.621-7.807,6.014,.768-2.283,2.116-4.408,3.747-5.727,2.142-1.729,4.509-2.244,6.3-2.338-.449,1.792-1.292,4.794-3.592,6.635Zm-10.149-6.584c3.309,0,6-2.691,6-6S12.309,0,9,0,3,2.691,3,6s2.691,6,6,6Zm0-11c2.757,0,5,2.243,5,5s-2.243,5-5,5-5-2.243-5-5S6.243,1,9,1Zm2.86,14H4.5c-1.93,0-3.5,1.57-3.5,3.5v5.5H0v-5.5c0-2.481,2.019-4.5,4.5-4.5,0,0,8.049,.006,8.074,.007-.251,.318-.485,.65-.714,.993Z"/>
</svg>
