<svg id="Layer_1" viewBox="0 0 24 24" xmlns="http://www.w3.org/2000/svg" data-name="Layer 1"><path d="m24 12c0 6.617-5.383 12-12 12-4.033 0-7.789-2.067-10-5.412v4.412h-1v-4.5c0-.827.673-1.5 1.5-1.5h4.5v1h-4.193c2.024 3.09 5.481 5 9.193 5 6.065 0 11-4.935 11-11zm-12-11c3.712 0 7.169 1.91 9.193 5h-4.193v1h4.5c.827 0 1.5-.673 1.5-1.5v-4.5h-1v4.412c-2.211-3.345-5.967-5.412-10-5.412-6.617 0-12 5.383-12 12h1c0-6.065 4.935-11 11-11zm4 8c1.654 0 3 1.346 3 3s-1.346 3-3 3c-1.483 0-3.243-1.551-4-2.291-.757.74-2.517 2.291-4 2.291-1.654 0-3-1.346-3-3s1.346-3 3-3c1.483 0 3.243 1.551 4 2.291.757-.74 2.517-2.291 4-2.291zm-4.703 3c-.792-.765-2.283-2-3.297-2-1.103 0-2 .897-2 2s.897 2 2 2c1.014 0 2.505-1.235 3.297-2zm4.703-2c-1.014 0-2.505 1.235-3.297 2 .792.765 2.283 2 3.297 2 1.103 0 2-.897 2-2s-.897-2-2-2z"/></svg>