<svg id="Layer_1" viewBox="0 0 24 24" xmlns="http://www.w3.org/2000/svg" data-name="Layer 1"><path d="m8.661 17.112c.214-.318.339-.701.339-1.112 0-1.103-.897-2-2-2v-1h-1v1h-1.999l-.015 7.013h2.014v.987h1v-.987h.995c1.105-.017 2.005-.92 2.005-2.013 0-.871-.56-1.614-1.339-1.888zm-3.662-2.112h2.001c.552 0 1 .448 1 1s-.448 1-1 1h-2.005zm2.988 5.013h-2.999l.004-2.013h3.008c.552 0 1 .448 1 1 0 .56-.448 1.004-1.013 1.013zm-1.487-9.013c-3.584 0-6.5 2.916-6.5 6.5s2.916 6.5 6.5 6.5 6.5-2.916 6.5-6.5-2.916-6.5-6.5-6.5zm0 12c-3.032 0-5.5-2.468-5.5-5.5s2.468-5.5 5.5-5.5 5.5 2.468 5.5 5.5-2.468 5.5-5.5 5.5zm10-23c-4.275 0-7.5 1.505-7.5 3.5v4c.016.738.431 1.32 1 1.798 1.272 1.037 3.649 1.702 6.5 1.702s5.228-.671 6.5-1.709v2.209c0 1.183-2.67 2.5-6.5 2.5-.839 0-1.622-.063-2.333-.174.165.344.307.701.426 1.069.605.069 1.243.105 1.907.105 2.846 0 5.227-.667 6.5-1.702v2.202c0 1.183-2.67 2.5-6.5 2.5-.527 0-1.032-.025-1.511-.071-.017.338-.054.67-.109.996.519.049 1.06.075 1.62.075 2.846 0 5.227-.667 6.5-1.702v2.202c0 1.183-2.67 2.5-6.5 2.5-.965 0-1.857-.084-2.651-.228-.183.315-.387.617-.608.904.975.208 2.076.324 3.258.324 4.275 0 7.5-1.505 7.5-3.5v-16c0-1.995-3.225-3.5-7.5-3.5zm6.5 7.5c0 1.183-2.67 2.5-6.5 2.5s-6.5-1.317-6.5-2.5v-2.209c1.272 1.037 3.649 1.709 6.5 1.709s5.228-.671 6.5-1.709zm-6.5-1.5c-3.83 0-6.5-1.317-6.5-2.5s2.67-2.5 6.5-2.5 6.5 1.317 6.5 2.5-2.67 2.5-6.5 2.5z"/></svg>