<svg id="Layer_1" viewBox="0 0 24 24" xmlns="http://www.w3.org/2000/svg" data-name="Layer 1"><path d="m24 6v-1h-2v-.5c0-1.379-1.122-2.5-2.5-2.5h-.5v-2h-1v2h-2v-2h-1v2h-2.5v-2h-1v2h-2.5v-2h-1v2h-2v-2h-1v2h-.5c-1.378 0-2.5 1.121-2.5 2.5v.5h-2v1h2v2h-2v1h2v2.5h-2v1h2v2.5h-2v1h2v2h-2v1h2v3h3v2h1v-2h2v2h1v-2h2.5v2h1v-2h2.5v2h1v-2h2v2h1v-2h3v-3h2v-1h-2v-2h2v-1h-2v-2.5h2v-1h-2v-2.5h2v-1h-2v-2zm-3 15h-18v-16.5c0-.827.673-1.5 1.5-1.5h15c.827 0 1.5.673 1.5 1.5zm-4.5-11.734v-.516c0-1.517-1.233-2.75-2.75-2.75-.646 0-1.26.229-1.75.64-.49-.411-1.104-.64-1.75-.64-1.517 0-2.75 1.233-2.75 2.75v.516c-.933.595-1.5 1.617-1.5 2.734 0 .88.362 1.717 1 2.33v.42c0 1.792 1.458 3.25 3.25 3.25.625 0 1.224-.18 1.75-.523.526.344 1.125.523 1.75.523 1.792 0 3.25-1.458 3.25-3.25v-.42c.638-.613 1-1.45 1-2.33 0-1.117-.567-2.14-1.5-2.734zm-8.5 5.484v-.878l-.181-.15c-.521-.433-.819-1.06-.819-1.722 0-.846.471-1.612 1.228-2l.272-.14v-1.11c0-.965.785-1.75 1.75-1.75.475 0 .918.205 1.25.553v9.043c-.376.26-.802.403-1.25.403-1.241 0-2.25-1.01-2.25-2.25zm8.181-1.028-.181.15v.878c0 1.24-1.009 2.25-2.25 2.25-.448 0-.873-.143-1.25-.402v-9.044c.331-.349.774-.554 1.25-.554.965 0 1.75.785 1.75 1.75v1.11l.272.14c.757.388 1.228 1.154 1.228 2 0 .662-.299 1.289-.819 1.722z"/></svg>