<svg id="Layer_1" viewBox="0 0 24 24" xmlns="http://www.w3.org/2000/svg" data-name="Layer 1"><path d="m21.25 14.082 2.75 1.553-2.445 4.351-2.771-1.555c-1.064 1.041-2.359 1.796-3.784 2.208v3.361h-5v-3.361c-1.425-.412-2.72-1.167-3.784-2.208l-2.753 1.559-2.464-4.351 2.751-1.557c-.166-.692-.25-1.391-.25-2.082 0-.665.098-1.334.251-2h1.02c-.172.666-.271 1.337-.271 2-.007.85.161 1.734.419 2.568l-2.557 1.448 1.478 2.61 2.56-1.449c1.197 1.383 2.812 2.324 4.6 2.683v3.14h3v-3.14c1.788-.359 3.403-1.3 4.6-2.683l2.578 1.444 1.478-2.61-2.575-1.443c.258-.835.426-1.718.419-2.568.007-.85-.161-1.734-.419-2.568l2.556-1.434-1.478-2.611-2.559 1.436c-1.197-1.383-2.812-2.324-4.6-2.683v-3.14h-3v-1h4v3.361c1.425.412 2.72 1.167 3.784 2.207l2.752-1.545 2.464 4.352-2.75 1.543c.166.692.25 1.391.25 2.082s-.084 1.39-.25 2.082zm-13.748.89-.003.337c.283.426.621.81 1 1.15v-1.46c0-.552.448-1 1-1h6c.552 0 1 .448 1 1v1.46c.379-.34.717-.724 1-1.15v-.31c-.015-1.09-.906-2-2-2h-6c-1.094 0-1.982.882-1.997 1.972zm-2.631-6.972h-4.871v-6c0-1.105.896-2 2-2l5.001.002c1.1 0 2 .901 1.999 2.001l-.002 6.772c0 .638-.524 1.088-1.089 1.088-.196 0-.397-.054-.583-.173l-2.454-1.69zm-3.872-1h4.184l2.661 1.839c.075.06.159.017.156-.065v-6.774c0-.551-.448-1-1-1h-4.999c-.552 0-1.001.449-1.001 1v5zm11.5-1c-.549 0-1.058.159-1.502.418v1.276c.366-.421.9-.694 1.502-.694 1.103 0 2 .897 2 2s-.897 2-2 2c-.752 0-1.4-.422-1.742-1.037-.141.336-.346.637-.59.901.55.687 1.385 1.136 2.332 1.136 1.654 0 3-1.346 3-3s-1.346-3-3-3z"/></svg>