<?xml version="1.0" encoding="UTF-8"?>
<svg xmlns="http://www.w3.org/2000/svg" id="Outline" viewBox="0 0 24 24">
  <path d="m15.893,8.064c.408,1.784-.382,3.569-1.965,4.441-.894.493-1.428,1.326-1.428,2.227v.268h-1v-.268c0-1.271.728-2.431,1.946-3.103,1.188-.655,1.78-1.998,1.473-3.343-.245-1.074-1.131-1.96-2.205-2.205-.921-.21-1.863-.002-2.582.572-.719.573-1.131,1.429-1.131,2.347h-1c0-1.224.549-2.365,1.508-3.128.958-.765,2.207-1.044,3.428-.765,1.462.333,2.624,1.495,2.957,2.957Zm-3.893,8.936c-.552,0-1,.448-1,1s.448,1,1,1,1-.448,1-1-.448-1-1-1Zm12-5c0,6.617-5.383,12-12,12S0,18.617,0,12,5.383,0,12,0s12,5.383,12,12Zm-1,0c0-6.065-4.935-11-11-11S1,5.935,1,12s4.935,11,11,11,11-4.935,11-11Z"/>
</svg>
