<svg id="Layer_1" viewBox="0 0 24 24" xmlns="http://www.w3.org/2000/svg" data-name="Layer 1"><path d="m24 9c0-3.309-2.691-6-6-6h-.005c-1.415-1.884-3.635-3-5.995-3s-4.58 1.116-5.996 3h-.004c-3.309 0-6 2.691-6 6 0 1.656.674 3.157 1.763 4.244l1.308 8.506c.201 1.304 1.304 2.25 2.623 2.25h12.651c1.318 0 2.422-.946 2.623-2.25l1.316-8.557c1.06-1.083 1.716-2.562 1.716-4.193zm-18-5 .503.025c1.203-1.871 3.275-3.031 5.497-3.025 2.223-.006 4.293 1.154 5.496 3.025l.504-.025c2.757 0 5 2.243 5 5s-2.243 5-5 5c-.988.006-1.956-.31-2.789-.847-1.986 1.123-4.435 1.12-6.423 0-.833.537-1.801.853-2.788.847-2.757 0-5-2.243-5-5s2.243-5 5-5zm3.333 10.495.448 8.505h-2.119l-1.093-8.035c.785-.076 1.553-.3 2.254-.676.167.079.339.141.511.206zm1.018.317c1.104.249 2.254.242 3.356-.017l-.432 8.204h-2.494l-.431-8.188zm4.374-.341c.151-.059.304-.113.452-.183.704.377 1.476.602 2.266.676l-.915 8.035h-2.251l.449-8.528zm-10.667 7.126-1.148-7.463c.785.474 1.685.773 2.649.843l1.091 8.022h-.958c-.822 0-1.509-.59-1.635-1.402zm15.92 0c-.125.812-.812 1.402-1.635 1.402h-.81l.914-8.023c.978-.073 1.89-.381 2.682-.869l-1.152 7.489z"/></svg>