<svg id="Layer_1" viewBox="0 0 24 24" xmlns="http://www.w3.org/2000/svg" data-name="Layer 1"><path d="m20 0c-2.206 0-4 1.794-4 4 0 .522.107 1.017.289 1.474-1.287 1.158-2.805 1.865-4.289 1.996v-2.97c0-.827-.673-1.5-1.5-1.5h-3c-.827 0-1.5.673-1.5 1.5v4.025c-3.49 1.24-6 4.566-6 8.475.001 2.681 1.135 5.296 3.038 7h11.924c1.903-1.704 3.037-4.319 3.038-7 0-3.909-2.51-7.235-6-8.475v-.054c1.662-.126 3.356-.867 4.793-2.104.729.985 1.89 1.633 3.207 1.633 2.206 0 4-1.794 4-4s-1.794-4-4-4zm-13 4.5c0-.276.225-.5.5-.5h3c.275 0 .5.224.5.5v3.732c-.644-.147-1.312-.232-2-.232s-1.356.085-2 .232zm10 12.5c0 2.233-.93 4.512-2.437 6h-11.126c-1.507-1.488-2.437-3.767-2.437-6 0-4.411 3.589-8 8-8s8 3.589 8 8zm3-10c-1.654 0-3-1.346-3-3s1.346-3 3-3 3 1.346 3 3-1.346 3-3 3z"/></svg>