<?xml version="1.0" encoding="UTF-8"?>
<svg xmlns="http://www.w3.org/2000/svg" id="Layer_1" data-name="Layer 1" viewBox="0 0 24 24">
  <path d="M12,11c-3.584,0-6.5,2.916-6.5,6.5s2.916,6.5,6.5,6.5,6.5-2.916,6.5-6.5-2.916-6.5-6.5-6.5Zm0,12c-3.033,0-5.5-2.467-5.5-5.5s2.467-5.5,5.5-5.5,5.5,2.467,5.5,5.5-2.467,5.5-5.5,5.5Zm2.697-7.49l-1.99,1.99,1.99,1.99-.707,.707-1.99-1.99-1.99,1.99-.707-.707,1.99-1.99-1.99-1.99,.707-.707,1.99,1.99,1.99-1.99,.707,.707Zm-10.437-1.51c-.147,.324-.279,.656-.385,1H0V2C0,.897,.897,0,2,0h7c1.103,0,2,.897,2,2v7.064c-.341,.04-.673,.104-1,.183V2c0-.551-.449-1-1-1H2c-.551,0-1,.449-1,1V14h3.26Zm3.74-9H3v-1h5v1Zm0,3H3v-1h5v1Zm-5,2h5v1H3v-1ZM24,2V15h-3.875c-.106-.344-.238-.676-.385-1h3.26V2c0-.551-.449-1-1-1h-7c-.551,0-1,.449-1,1v7.246c-.327-.079-.659-.143-1-.183V2c0-1.103,.897-2,2-2h7c1.103,0,2,.897,2,2Zm-3,3h-5v-1h5v1Zm-5,2h5v1h-5v-1Zm0,3h5v1h-5v-1Z"/>
</svg>
