<?xml version="1.0" encoding="UTF-8"?>
<svg xmlns="http://www.w3.org/2000/svg" id="Layer_1" data-name="Layer 1" viewBox="0 0 24 24">
  <path d="m7.5,13.5c0,1.376,1.935,3.499,4.505,3.499s4.495-2.123,4.495-3.499v-.5h-7.25q-1.75,0-1.75.5Zm7.857.5c-.406.826-1.645,1.999-3.352,1.999s-2.956-1.173-3.362-2c1.496-.002,5.213,0,6.713,0Zm-4.357-5c0-1.103-1.122-2-2.5-2s-2.5.897-2.5,2,1.122,2,2.5,2,2.5-.897,2.5-2Zm-4,0c0-.542.687-1,1.5-1s1.5.458,1.5,1-.687,1-1.5,1-1.5-.458-1.5-1Zm8.5-2c-1.378,0-2.5.897-2.5,2s1.122,2,2.5,2,2.5-.897,2.5-2-1.122-2-2.5-2Zm0,3c-.813,0-1.5-.458-1.5-1s.687-1,1.5-1,1.5.458,1.5,1-.687,1-1.5,1Zm8.485.566l-.019-.328c-.209-3.747-2.139-6.808-5.434-8.617l-.307-.168-2.227,1.946V.573l-.375-.097c-2.328-.601-4.928-.601-7.251.005l-.374.098v2.82l-2.217-1.937-.307.169C2.24,3.419.257,6.556.036,10.238l-.02.33,2.866,1.433-2.622,1.312.097.389c.766,3.069,2.818,6.082,5.489,8.059l.346.256,1.808-1.808v2.847l.3.131c1.273.557,2.518.839,3.7.839s2.429-.284,3.702-.845l.298-.132v-2.84l1.799,1.8.347-.258c2.66-1.978,4.71-4.988,5.485-8.053l.099-.391-2.612-1.306,2.867-1.434Zm-1.429,3.271c-.751,2.583-2.462,5.093-4.666,6.847l-2.891-2.891v4.597c-2.078.842-3.919.84-6,.005v-4.602l-2.9,2.9c-2.213-1.753-3.925-4.264-4.668-6.85l3.687-1.844-4.06-2.03c.283-3.117,1.903-5.686,4.599-7.29l3.342,2.921V1.357c1.933-.441,4.064-.441,6-.003v4.248l3.354-2.931c2.704,1.601,4.321,4.171,4.591,7.298l-4.063,2.032,3.675,1.837Z"/>
</svg>
