<svg id="Layer_1" viewBox="0 0 24 24" xmlns="http://www.w3.org/2000/svg" data-name="Layer 1"><path d="m5 10c0 1.103.897 2 2 2s2-.897 2-2-.897-2-2-2-2 .897-2 2zm3 0c0 .551-.448 1-1 1s-1-.449-1-1 .448-1 1-1 1 .449 1 1zm11 11.5v2.5h-1v-2.5c0-1.378-1.121-2.5-2.5-2.5h-11c-1.379 0-2.5 1.122-2.5 2.5v2.5h-1v-2.5c0-1.93 1.57-3.5 3.5-3.5h11c1.93 0 3.5 1.57 3.5 3.5zm-17-5.5h16v-4.159l-1 .682v2.476h-14v-8.499c0-.827.673-1.5 1.5-1.5h6.5v-4h-1v3h-5.5c-1.379 0-2.5 1.122-2.5 2.5v1.5h-2v4h2zm-1-5v-2h1v2zm21-11-7 .002c-1.1 0-2 .901-1.999 2.001l.002 8.772c0 .638.524 1.088 1.089 1.088.196 0 .397-.054.583-.173l2.454-1.69h6.872v-8c0-1.105-.896-2-2-2zm-5.183 9-2.726 1.862s-.089-.005-.089-.088l-.002-8.772c0-.551.448-1 1-1h3s0 .998 0 .998h-.432c-.865 0-1.568.722-1.568 1.608 0 .712.466 1.347 1.146 1.549l2.436.647c.246.073.418.314.418.586 0 .335-.255.608-.568.608h-1.863c-.095 0-.568-.023-.568-.481h-1c0 .858.659 1.481 1.568 1.481h.432v1h-1.183zm6.183 0h-4v-1h.432c.865 0 1.568-.722 1.568-1.608 0-.712-.466-1.347-1.146-1.549l-2.436-.647c-.246-.073-.418-.314-.418-.586 0-.335.255-.608.568-.608h1.863c.262 0 .568.131.568.5h1c0-.855-.674-1.5-1.568-1.5h-.432v-.999h3c.551 0 1 .448 1 .999v7z"/></svg>