<?xml version="1.0" encoding="UTF-8"?>
<svg xmlns="http://www.w3.org/2000/svg" id="Layer_1" data-name="Layer 1" viewBox="0 0 24 24">
  <path d="M21.99,18.013l2.01-.531V2.013s-2,0-2,0c-.944,0-1.833,.445-2.4,1.2-.371,.571-1.104,1.33-1.6,1.8h-2v-1s2-1,2-2.487v-.513h-3.605c-.992,0-1.959,.34-2.706,.992-1.814,1.585-3.748,4.067-4.689,6.008v.621c-.003,.645,.691,1.043,1.234,.762,.427-.214,1.334-.667,1.766-.883v1s0,1,1,1,1-1,1-1v-1s-.56-1.102-.5-1.5c.422-1.687,1.563-2.726,1.914-3.013h.094l-.508,2.513v1.5h2v2s-1,0-1,1v1c-5,0-5-1-6-1h-1.5l-2.5,2.5v1.506c.003,.495-.496,.834-.943,.679l-2.057-.686-1,3.308v1l2.009,1.519c.505,.34,1.212,.163,1.491-.396l1.5-3.431,2.615-.013s1.041,2.403,1.5,3c-.062,.244-.501,.696-.952,1.108-.346,.316-.125,.892,.344,.892l.993,.013c.932-.801,1.5-1,1.5-2l-1.5-3s1,0,2,1,1,1,1,2c0,.497,.934,1.009,1.401,1.009,.036,0,.304-1.074,.304-1.074,0,0,1.795-.204,1.795-2.204,0-1,.716-1.032,1.394-1.264,.679-.233,1.918-.468,2.034-.468,.234,0,.584,.104,.571,.732-.007,.318-.15,1.063-.5,1.768-.223,.449-1.487,.507-2.128,.507-.224,0-.372-.007-.372-.007l-1,1.5v2.5h2c.882,0,1.574-.262,2.303-1.05,.253-.04,3.697-.45,3.697-.45v-1.5s-1.672-1.032-2.001-1.097c.006-.252-.009-.903-.009-.903Zm-19.425,1.993l-1.565-1.183v-.355l.66-2.182c.375,.106,1.236,.474,1.625,.449,.305,0,.593-.08,.841-.221l-1.562,3.491Zm20.435,.57v.049c-1.413,.172-2.595,.303-3.196,.404-.51,.643-1.176,1.045-1.804,.983h-1v-1.197l.531-.797c1.625-.02,2.511-.35,2.864-1.062,.401-.807,.594-1.702,.604-2.192,.014-.676-.242-1.082-.459-1.303-.284-.29-.679-.45-1.112-.45-.178,0-2.539,.579-2.628,.605-.585,.173-1.801,.532-1.801,2.127,0,.97-.646,1.171-.908,1.21l-.663,.075c-.123-.584-.442-.945-1.222-1.724-1.257-1.257-2.562-1.293-2.707-1.293l-4.818,.002c.2-.281,.318-.625,.318-.995v-1.092l1.914-1.914h1.086c1.325,.446,1.88,.982,6,1h1v-2s0,0,0,0h1V7.013h-2v-.4l.73-3.613h-1.674c-.802,.673-1.912,1.572-2.526,3.77,0,0-.036,.273-.031,.375-.726,.363-1.775,.888-2.499,1.25v-.147c.915-1.787,2.711-4.061,4.347-5.49,.55-.481,1.277-.745,2.048-.745h2.446c-.297,.483-.935,.926-1.288,1.106l-.553,.276v2.618h3.414c.588-.574,1.546-1.513,1.986-2.2,.376-.501,.974-.8,1.6-.8h1v13.699s-2.028,.535-2.028,.535l.008,2.487,.774,.153c.19,.078,.718,.375,1.245,.69Z"/>
</svg>
