<svg id="Layer_1" viewBox="0 0 24 24" xmlns="http://www.w3.org/2000/svg" data-name="Layer 1"><path d="m16.409 11.731c-1.293 1.313-2.901 2.269-4.409 2.269-1.525 0-3.127-.962-4.41-2.268-.15.31-.34.594-.562.854.831.813 1.78 1.486 2.771 1.915-.933.598-1.41 1.74-1.22 2.841l1.343 6.658h4.057l1.518-6.675c.191-1.093-.307-2.26-1.255-2.844.976-.43 1.91-1.095 2.729-1.896-.222-.259-.412-.543-.562-.854zm-1.892 5.401-1.335 5.868h-2.441l-1.178-5.839c-.209-1.094.717-2.188 1.83-2.161h1.288c1.098-.035 2.036 1.069 1.836 2.132zm-2.017-12.632h2v1h-2v2h-1v-2h-2v-1h2v-2h1zm7.062-1.5h-1.251c-.768-.678-1.708-1.161-2.664-1.397-.913-.98-2.205-1.603-3.647-1.603s-2.733.623-3.647 1.603c-.957.236-1.897.719-2.664 1.397h-1.251c-1.905 0-4.438.385-4.438 3.714 0 2.044 1.052 5.286 3.875 5.286v-.013c1.141.102 2.13-.851 2.125-1.987 0-.495-.187-.942-.486-1.292-.334-.778-.514-1.539-.514-2.208 0-1.578 1.086-2.815 2.421-3.495-.268.612-.421 1.285-.421 1.995 0 2.757 2.243 5 5 5s5-2.243 5-5c0-.71-.153-1.383-.421-1.995 1.335.68 2.421 1.917 2.421 3.495 0 .644-.124 1.362-.43 2.107-.351.361-.57.851-.57 1.393-.005 1.136.984 2.09 2.125 1.987v.013c2.823 0 3.875-3.242 3.875-5.286 0-3.329-2.533-3.714-4.438-3.714zm-17.562 6.997c-.728-.969-1-2.414-1-3.283 0-1.953.964-2.714 3.438-2.714h.354c-.487.717-.791 1.557-.791 2.5 0 .487.079.997.22 1.522-.073-.008-.145-.022-.22-.022-1.102 0-1.998.896-2 1.997zm2 1.003c-.551 0-1-.448-1-1s.449-1 1-1 1 .448 1 1-.449 1-1 1zm8-2c-2.206 0-4-1.794-4-4s1.794-4 4-4 4 1.794 4 4-1.794 4-4 4zm8 2c-.551 0-1-.448-1-1s.449-1 1-1 1 .448 1 1-.449 1-1 1zm2-1.003c-.001-1.101-.898-1.997-2-1.997-.075 0-.147.014-.22.022.141-.525.22-1.036.22-1.522 0-.943-.305-1.783-.791-2.5h.354c2.474 0 3.438.761 3.438 2.714 0 .87-.272 2.315-1 3.283z"/></svg>