<svg id="Layer_1" viewBox="0 0 24 24" xmlns="http://www.w3.org/2000/svg" data-name="Layer 1"><path d="m24 4.899c-2.815-.79-5.223-2.097-6.447-3.64-.657-.801-1.634-1.26-2.68-1.26h-5.746c-1.046 0-2.023.459-2.679 1.26-1.223 1.542-3.633 2.85-6.448 3.64v3.101h7v16h10v-16h7zm-23 2.101v-1.361c2.681-.856 4.69-2.034 6-3.501v4.862zm15 4h-4v1h4v3h-4v1h4v3h-4v1h4v3h-8v-21.724c.344-.175.726-.276 1.127-.276h5.746c.401 0 .783.101 1.127.276v5.724h-4v1h4zm7-4h-6v-4.863c1.309 1.467 3.319 2.645 6 3.501v1.361z"/></svg>