<svg id="Layer_1" viewBox="0 0 24 24" xmlns="http://www.w3.org/2000/svg" data-name="Layer 1"><path d="m16 13.5c0-1.378 1.121-2.5 2.5-2.5 1.208 0 2.217.86 2.449 2h1c-.245-1.692-1.691-3-3.449-3-1.93 0-3.5 1.57-3.5 3.5v1.5h-2v6.5c0 1.379 1.121 2.5 2.5 2.5h6c1.379 0 2.5-1.121 2.5-2.5v-6.5h-8zm7 8c0 .827-.673 1.5-1.5 1.5h-6c-.827 0-1.5-.673-1.5-1.5v-5.5h9zm-4-1h-1v-2h1zm5-10.513v3.513c0-1.175-.372-2.262-1-3.156v-.357c0-.525-.236-1.011-.648-1.333s-9.311-7.295-9.311-7.295c-.613-.48-1.469-.48-2.082 0l-9.31 7.294c-.413.323-.649.809-.649 1.333v13.013h10.141c.092.356.233.69.413 1h-11.554v-14.012c0-.834.376-1.607 1.033-2.121l9.309-7.294c.977-.765 2.34-.765 3.316 0l9.31 7.294c.657.514 1.032 1.286 1.032 2.121z"/></svg>