<?xml version="1.0" encoding="UTF-8"?>
<svg xmlns="http://www.w3.org/2000/svg" id="Layer_1" data-name="Layer 1" viewBox="0 0 24 24">
  <path d="M14.5,19c-1.208,0-2.217,.86-2.449,2H0v1H12.051c.232,1.14,1.242,2,2.449,2,1.379,0,2.5-1.122,2.5-2.5s-1.121-2.5-2.5-2.5Zm0,4c-.827,0-1.5-.673-1.5-1.5s.673-1.5,1.5-1.5,1.5,.673,1.5,1.5-.673,1.5-1.5,1.5ZM17.5,3c-1.379,0-2.5,1.122-2.5,2.5s1.121,2.5,2.5,2.5,2.5-1.122,2.5-2.5-1.121-2.5-2.5-2.5Zm0,4c-.827,0-1.5-.673-1.5-1.5s.673-1.5,1.5-1.5,1.5,.673,1.5,1.5-.673,1.5-1.5,1.5ZM21.5,0H2.5C1.121,0,0,1.122,0,2.5v14.5H24V2.5c0-1.378-1.121-2.5-2.5-2.5Zm1.5,16H1V2.5c0-.827,.673-1.5,1.5-1.5H21.5c.827,0,1.5,.673,1.5,1.5v13.5Zm-4.05,5h5.05v1h-5.05c.017-.167,.05-.329,.05-.5s-.033-.333-.05-.5ZM13,5.5c0,.321,.036,.633,.1,.935-5.003,1.611-5.099,7.285-5.1,7.566h-1c0-3.955-3.837-4-4-4v-1c.039,0,3.096,.046,4.407,2.459,.588-2.141,2.031-5.015,5.603-6.058,0,.034-.01,.065-.01,.099Z"/>
</svg>
