<?xml version="1.0" encoding="UTF-8"?>
<svg xmlns="http://www.w3.org/2000/svg" id="Layer_1" data-name="Layer 1" viewBox="0 0 24 24">
  <path d="M20.212,2.734L12,.012,3.788,2.734c-1.069,.354-1.788,1.349-1.788,2.473l-.002,6.601c0,6.636,7.159,10.732,9.354,11.83l.627,.313,.649-.261c2.198-.885,9.37-4.354,9.37-11.852l.003-6.631c0-1.125-.719-2.119-1.788-2.473Zm.785,9.104c0,6.872-6.691,10.099-8.743,10.924l-.232,.093-.224-.112c-2.064-1.032-8.801-4.873-8.801-10.936l.002-6.601c0-.693,.443-1.305,1.103-1.524L12,1.065l7.897,2.618c.659,.219,1.103,.831,1.103,1.524l-.003,6.631Zm-13.043-3.838h1.046l-.981,4.819c-.094,.485-.471,1.181-1.221,1.181s-1.132-.727-1.214-1.148l-1.036-4.852h1.03l.984,4.643c.025,.131,.146,.357,.236,.357,.101,0,.211-.224,.239-.372l.917-4.628Zm4.046,0h-2v6h1v-2h1c1.103,0,2-.897,2-2s-.897-2-2-2Zm0,3h-1v-2h1c.551,0,1,.449,1,1s-.449,1-1,1Zm6-3h1v6h-.785l-2.215-3.698v3.698h-1v-6h.785l2.215,3.723v-3.723Z"/>
</svg>
