<svg id="Layer_1" viewBox="0 0 24 24" xmlns="http://www.w3.org/2000/svg" data-name="Layer 1"><path d="m15.579 22.049c1.058.109 2.455.586 3.066.874l-.426.904c-.475-.223-1.768-.683-2.744-.784-1.501-.155-2.684.15-3.545.433-.717.236-1.696.508-2.924.524-.893.106-3.373-.502-3.539-.591l.288-.957c.115.068 2.429.646 3.238.548 1.091-.015 1.976-.261 2.624-.474.956-.314 2.269-.654 3.961-.478zm-3.92-3.524c-.66.214-1.56.461-2.665.476-.804.114-3.16-.512-3.26-.59l-.314.949c.173.104 2.666.759 3.587.641 1.239-.017 2.233-.289 2.961-.524.875-.284 2.071-.591 3.601-.434.99.102 2.838.636 2.856.642l.279-.961c-.079-.022-1.953-.564-3.034-.675-1.705-.172-3.041.162-4.011.477zm0-4c-.66.214-1.56.461-2.665.476-.816.14-3.138-.578-3.244-.681l-.371.928c.172.134 2.674.901 3.628.753 1.239-.017 2.233-.289 2.961-.524.875-.284 2.071-.592 3.601-.434 1 .103 2.983.593 3.004.598l.24-.971c-.084-.021-2.071-.512-3.143-.621-1.705-.173-3.041.162-4.011.477zm5.344-9.501c-1.133-3.02-4.004-5.024-7.253-5.024-4.273 0-7.75 3.477-7.75 7.75 0 .763.116 1.523.345 2.266-1.476 1.033-2.345 2.681-2.345 4.484 0 2.132 1.222 3.98 3 4.893v-1.154c-1.205-.808-2-2.182-2-3.739-.016-1.733 1.012-3.262 2.554-4.059-.342-.861-.563-1.783-.554-2.691 0-3.722 3.028-6.75 6.75-6.75 3.061-.01 5.715 2.059 6.527 5 3.635-.108 6.733 2.855 6.723 6.5 0 1.826-.788 3.528-2 4.732v1.321c1.788-1.385 3-3.628 3-6.053 0-3.933-3.107-7.216-6.997-7.477z"/></svg>