<svg id="Layer_1" viewBox="0 0 24 24" xmlns="http://www.w3.org/2000/svg" data-name="Layer 1"><path d="m3.881 4.722c.416.532-.886 1.083-1.302 1.104-.175-.007-.385-.038-.523-.151-.138-.164.005-.382.145-.497.372-.342 1.229-1.033 1.681-.455zm.144 10.585c-1.991 2.784-2.101 6.34-2.055 7.693h-.138c-.253-.663-.832-2.508-.832-5.5 0-1.684.212-3.191.518-4.507-.287-.303-.567-.598-.816-.915-.407 1.528-.702 3.348-.702 5.421.067 4.479.932 5.903 1.191 6.5h1.867c-.017-.823-.679-4.256 1.703-7.997-.222-.189-.498-.452-.737-.697zm6.386-5.973c.128.107.305.21.452.131.217-.128.135-.427.014-.6-.191-.314-.739-1.135-1.188-.776-.448.359.449 1.017.722 1.244zm3.318 8.804c-.692-.241-1.039.804-1.167 1.293-.055.172-.057.433.148.497.177.02.37-.067.521-.156.338-.243 1.136-1.411.498-1.633zm-4.723-3.653c-.386.325-.933.516-1.471.516-1.294.08-2.001-1.151-2.926-1.854.081-.674.171-1.274.36-1.968-.331.366-.748.906-1.09 1.335-2.216-1.961-2.988-3.249-.372-5.307-1.022.245-1.856.895-2.596 1.62-1.221-2.718-1.476-4.98 1.976-5.725-.837-.211-1.865.092-2.705.159l.324-.791c1.036-2.884 4.922-3.198 6.996-1.169 1.852-1.884 6.03-1.847 7.06 1.169 0 0 .372.908.372.908-.904-.202-1.61-.507-2.699-.26 3.421.746 3.118 3.043 1.921 5.709-.74-.725-1.574-1.375-2.596-1.62 2.627 2.091 1.847 3.321-.372 5.307-.343-.43-.758-.968-1.09-1.335.189.693.279 1.294.36 1.968-.503.392-.989.935-1.452 1.338zm.391-1.747c-.079-1.145-.983-3.396-1.554-4.786 1.104.85 2.746 2.106 3.439 3.077.525-.546 1.353-1.256.703-2.012-.989-1.048-2.13-1.948-3.162-3.053 1.703-.023 3.64.181 4.909 1.181.269-.871.562-2.204-.519-2.617-1.332-.539-2.303-.745-3.524-.968.962-.877 2.065-1.615 3.478-1.529-.541-.685-1.322-1.03-2.332-1.03-1.357.032-2.159.562-2.835 1.214v3.786h-1v-3.79c-.638-.636-1.364-1.173-2.768-1.211-1.014 0-1.797.349-2.338 1.037.996-.243 2.564.592 3.478 1.523-1.219.223-2.188.429-3.518.966-1.081.415-.789 1.746-.52 2.618 1.268-.999 3.208-1.204 4.909-1.181-1.034 1.107-2.171 2.003-3.162 3.052-.65.758.178 1.466.703 2.013.69-.968 2.34-2.23 3.439-3.077-.572 1.396-1.473 3.636-1.554 4.786.579.459 1.023 1.273 1.819 1.263.808.062 1.347-.797 1.906-1.263zm12.755 5.771c.663.418 1.267.909 1.849 1.356-.155 1.179.211 2.5-.781 3.402-.862.947-2.214.575-3.355.732-.457-.584-.953-1.209-1.352-1.889.022.49.106 1.139.167 1.687-.545.086-1.269.25-2.157.2-.876-.08-1.459-.771-1.521-1.803v-1.789c-.721 1.027-.891 1.983-.891 3.086-2.785-1.058-4.566-2.479-2.651-5.445-.744.442-1.254 1.385-1.801 2.027l-.33-.791c-1.306-2.772 1.219-5.74 4.12-5.773-.023-2.643 2.963-5.568 5.817-4.165 0 0 .905.378.905.378-.782.499-1.495.778-2.092 1.728 2.947-1.894 4.355-.056 5.396 2.678-1.114 0-2.081.174-3.118.899 3.383-.206 3.697.296 3.64 3.111l-.012.549c-.591-.066-1.301-.159-1.833-.179zm-3.761-.682c1.381-.178 3.431-.455 4.608-.257-.118-.677.288-1.585-.896-1.57-.04.011-3.378.048-4.423.037 1.192-1.22 2.851-2.578 4.312-2.788-.428-.811-1.16-1.969-2.225-1.496-1.323.562-2.154 1.101-3.175 1.806.001-1.28.489-2.874 1.375-3.539-2-.321-3.568 2.062-3.544 3.697l2.43 2.43-.707.707-2.359-2.359c-1.614-.147-4.104 1.418-3.783 3.501.535-.878 2.233-1.393 3.537-1.381-.706 1.02-1.242 1.847-1.807 3.171-.471 1.06.687 1.797 1.496 2.224.199-1.439 1.562-3.084 2.77-4.267v4.423c.031 1.033.845.868 1.577.792-.206-1.204.064-3.267.248-4.677.615 1.493 1.61 3.631 2.499 4.68.739-.086 1.618.185 2.181-.393.642-.596.373-1.46.454-2.243-.969-.891-3.104-1.918-4.568-2.497zm3.43 4.102c.429-.687-.385-1.738-1.099-1.622-.407.144-.402.648-.223.972.247.461.944 1.431 1.321.649z"/></svg>