<svg id="Layer_1" viewBox="0 0 24 24" xmlns="http://www.w3.org/2000/svg" data-name="Layer 1"><path d="m24 7.5v10.5h-1.181c.077-.325.155-.658.181-1v-9.5c0-.827-.673-1.5-1.5-1.5h-19c-.827 0-1.5.673-1.5 1.5v9.5h9.025c.026.342.079.675.156 1h-10.181v-10.5c0-1.378 1.121-2.5 2.5-2.5h19c1.379 0 2.5 1.122 2.5 2.5zm-14.547 6.254 3.801-3.8-.707-.707-1.547 1.547-1.547-1.547-.707.707 1.547 1.547-1.547 1.547.707.707zm-3.009-4.507-1.546 1.547-1.546-1.547-.707.707 1.546 1.547-1.546 1.547.707.707 1.546-1.547 1.546 1.547.707-.707-1.546-1.547 1.546-1.547zm13.556 10.047 3.605 3.605-.707.707-3.605-3.605c-.77.616-1.733 1-2.793 1-2.481 0-4.5-2.019-4.5-4.5s2.019-4.5 4.5-4.5 4.5 2.019 4.5 4.5c0 1.06-.384 2.023-1 2.793zm0-2.793c0-1.93-1.57-3.5-3.5-3.5s-3.5 1.57-3.5 3.5 1.57 3.5 3.5 3.5 3.5-1.57 3.5-3.5z"/></svg>