<svg id="Layer_1" viewBox="0 0 24 24" xmlns="http://www.w3.org/2000/svg" data-name="Layer 1"><path d="m24 3h-4.952l-1.753-1.694-1.789 1.718-1.738-1.725-1.768 1.725-1.768-1.725-1.738 1.725-1.792-1.721-1.727 1.697h-4.975v18h4.975l1.727 1.697 1.792-1.721 1.738 1.725 1.768-1.725 1.768 1.725 1.738-1.725 1.789 1.718 1.753-1.694h4.952zm-23 14h2v-1h-2v-2h2v-1h-2v-2h2v-1h-2v-2h2v-1h-2v-3h4v16h-4zm5 3.605v-17.21l.71-.698 1.29 1.239v16.128l-1.29 1.239zm3-.536v-16.138l1.238-1.23 1.262 1.232v16.133l-1.262 1.232-1.238-1.23zm4.762 1.23-1.262-1.232v-16.133l1.262-1.232 1.238 1.23v16.137zm3.531.007-1.293-1.242v-16.128l1.293-1.242.707.683v17.245l-.707.683zm5.707-1.306h-4v-16h4zm-3-12c0-.552.448-1 1-1s1 .448 1 1-.448 1-1 1-1-.448-1-1zm0 4c0-.552.448-1 1-1s1 .448 1 1-.448 1-1 1-1-.448-1-1zm0 4c0-.552.448-1 1-1s1 .448 1 1-.448 1-1 1-1-.448-1-1z"/></svg>