<svg id="Layer_1" viewBox="0 0 24 24" xmlns="http://www.w3.org/2000/svg" data-name="Layer 1"><path d="m13.5 15.5-.667-1.333-1.333-.667 1.333-.667.667-1.333.667 1.333 1.333.667-1.333.667zm-6-4.5h-2c-3.033 0-5.5-2.468-5.5-5.5s2.467-5.5 5.5-5.5h2c1.704 0 3.23.779 4.239 2h8.761c1.93 0 3.5 1.57 3.5 3.5 0 1.064-.487 2.007-1.239 2.649l-.461-.922c.431-.449.7-1.056.7-1.727 0-1.379-1.121-2.5-2.5-2.5h-8.107c.385.751.607 1.599.607 2.5s-.222 1.749-.607 2.5h4.921l-.105.209-1.581.791h-3.889c-1.01 1.221-2.535 2-4.239 2zm-2-1h.5v-9h-.5c-2.481 0-4.5 2.019-4.5 4.5s2.019 4.5 4.5 4.5zm6.5-4.5c0-2.481-2.019-4.5-4.5-4.5h-.5v9h.5c2.481 0 4.5-2.019 4.5-4.5zm8 9.399-1.301-2.599-2.599-1.301 2.599-1.301 1.301-2.599 1.301 2.599 2.599 1.301-2.599 1.301zm-.555-3.345.555 1.11.555-1.11 1.11-.555-1.11-.555-.555-1.11-.555 1.11-1.11.555zm-6.945 6.945c0 1.379-1.122 2.5-2.5 2.5h-1v3h-1v-8h2c1.378 0 2.5 1.121 2.5 2.5zm-1 0c0-.827-.673-1.5-1.5-1.5h-1v3h1c.827 0 1.5-.673 1.5-1.5zm12.5 0c0 1.379-1.121 2.5-2.5 2.5h-1v3h-1v-8h2c1.379 0 2.5 1.121 2.5 2.5zm-1 0c0-.827-.673-1.5-1.5-1.5h-1v3h1c.827 0 1.5-.673 1.5-1.5zm-4.5 0v3c0 1.379-1.121 2.5-2.5 2.5s-2.5-1.121-2.5-2.5v-3c0-1.379 1.121-2.5 2.5-2.5s2.5 1.121 2.5 2.5zm-1 0c0-.827-.673-1.5-1.5-1.5s-1.5.673-1.5 1.5v3c0 .827.673 1.5 1.5 1.5s1.5-.673 1.5-1.5zm-12.5 1.5h2v-1h-2zm-1.449-4-1.011 3h-1.54v-3h-1v8h1v-4h1.379l1.167 4h1.048l-1.25-4.282 1.254-3.718z"/></svg>