<svg id="Layer_1" viewBox="0 0 24 24" xmlns="http://www.w3.org/2000/svg" data-name="Layer 1"><path d="m3.553 13.077c-.352-.962-.553-1.995-.553-3.077 0-2.176.777-4.174 2.068-5.732-.042.4-.068.802-.068 1.205 0 2.878 1.067 5.505 2.816 7.527h1.366c-1.96-1.913-3.183-4.579-3.183-7.527 0-.797.089-1.592.266-2.361l-.037-.008c.953-.799 2.075-1.399 3.302-1.75-.346.948-.531 1.941-.531 2.966 0 4.787 3.895 8.682 8.682 8.682 1.023 0 2.013-.184 2.958-.528-.059.204-.121.407-.193.605.336.049.667.117.985.216.362-1.033.569-2.138.569-3.293 0-5.516-4.486-10.002-10-10.002s-10 4.486-10 10c0 1.155.207 2.26.569 3.293.318-.099.648-.167.985-.216zm10.821-11.749c3.055.838 5.461 3.243 6.298 6.298-.583.24-1.198.374-1.836.374-2.667 0-4.836-2.169-4.836-4.836 0-.639.133-1.253.374-1.836zm-3.6-.229c.402-.058.808-.099 1.226-.099.469 0 .927.047 1.377.117-.245.653-.377 1.339-.377 2.047 0 3.218 2.618 5.836 5.836 5.836.708 0 1.394-.132 2.047-.377.07.45.117.908.117 1.377 0 .434-.041.858-.103 1.275-1.022.517-2.228.725-3.215.725-4.236 0-7.682-3.446-7.682-7.682 0-1.014.278-2.135.774-3.219zm8.726 13.901h-15c-2.481 0-4.5 2.019-4.5 4.5s2.019 4.5 4.5 4.5h15c2.481 0 4.5-2.019 4.5-4.5s-2.019-4.5-4.5-4.5zm-15 8c-1.93 0-3.5-1.57-3.5-3.5s1.57-3.5 3.5-3.5 3.5 1.57 3.5 3.5-1.57 3.5-3.5 3.5zm7 0h-4.206c1.032-.825 1.706-2.079 1.706-3.5s-.675-2.675-1.706-3.5h4.206c1.93 0 3.5 1.57 3.5 3.5s-1.57 3.5-3.5 3.5zm8 0h-5.206c1.032-.825 1.706-2.079 1.706-3.5s-.675-2.675-1.706-3.5h5.206c1.93 0 3.5 1.57 3.5 3.5s-1.57 3.5-3.5 3.5z"/></svg>