<?xml version="1.0" encoding="UTF-8"?>
<svg xmlns="http://www.w3.org/2000/svg" id="Layer_1" data-name="Layer 1" viewBox="0 0 24 24">
  <path d="m24,5.576c0-1.308-.551-2.534-1.511-3.365-1.164-1.008-3.062-2.21-5.489-2.21H7C4.572,0,2.675,1.202,1.511,2.21c-.96.831-1.511,2.058-1.511,3.365v15.424h4v3h16v-3h4V5.576ZM9.707,1h4.586l-2.293,6.498-2.293-6.498Zm1.58,7.482L7.115,3.931l1.586-2.775,2.586,7.326ZM15.299,1.156l1.586,2.775-4.172,4.551,2.586-7.326Zm-10.299,14.844h3v2.5c0,.827-.673,1.5-1.5,1.5h-1.5v-4Zm0,5h1.5c1.379,0,2.5-1.121,2.5-2.5v-3.5h-4V7h-1v13H1V5.576c0-1.017.425-1.968,1.165-2.609,1.036-.897,2.716-1.966,4.835-1.966h.638l-1.753,3.069,5.615,6.125v12.806h-6.5v-2Zm14-1h-1.5c-.827,0-1.5-.673-1.5-1.5v-2.5h3v4Zm4,0h-3V7h-1v8h-4v3.5c0,1.379,1.121,2.5,2.5,2.5h1.5v2h-6.5v-12.806l5.615-6.125-1.753-3.069h.638c2.119,0,3.799,1.069,4.835,1.966.74.641,1.165,1.592,1.165,2.609v14.424Z"/>
</svg>
