<svg id="Layer_1" viewBox="0 0 24 24" xmlns="http://www.w3.org/2000/svg" data-name="Layer 1"><path d="m10 12c0 1.103.897 2 2 2s2-.897 2-2-.897-2-2-2-2 .897-2 2zm3 0c0 .551-.448 1-1 1s-1-.449-1-1 .448-1 1-1 1 .449 1 1zm-2.044-3.936-3.905-3.888.705-.709 3.744 3.728v-7.195h1v7.21l3.743-3.743.707.707-3.89 3.889c-.281.281-.654.436-1.053.436s-.771-.155-1.052-.436zm2.088 7.872 3.905 3.889-.705.709-3.744-3.728v7.195h-1v-7.211l-3.743 3.743-.707-.707 3.89-3.89c.579-.58 1.523-.581 2.104 0zm-4.979-2.892-3.889 3.905-.709-.705 3.728-3.744h-7.195v-1h7.211l-3.743-3.743.707-.707 3.89 3.889c.58.58.58 1.524 0 2.104zm15.936-.544h-7.211l3.743 3.743-.707.707-3.89-3.89c-.58-.58-.58-1.524 0-2.105l3.889-3.905.709.706-3.728 3.743h7.195v1z"/></svg>