<svg id="Layer_1" viewBox="0 0 24 24" xmlns="http://www.w3.org/2000/svg" data-name="Layer 1"><path d="m24 4h-8v-2.5c0-.827-.673-1.5-1.5-1.5-.384 0-.734.145-1 .383-.531-.476-1.469-.476-2 0-.266-.238-.616-.383-1-.383-.827 0-1.5.673-1.5 1.5v1.129c-.527-.187-1.141-.068-1.561.354-.281.281-.42.649-.431 1.018h-7.008v1h3.747l-3.708 8.805-.039.694c0 2.481 2.019 4.5 4.5 4.5s4.5-2.019 4.5-4.5v-.5l-3.75-9h2.119c.025.112 1.693 1.74 1.759 1.834.035.04.324.351.872.643v16.523h1v-17.163c-.381-.105-1.212-.679-1.142-.686l-1.712-1.754c-.195-.195-.195-.512 0-.707s.512-.195.707 0l1.146 1.149v-3.339c0-.276.225-.5.5-.5s.5.224.5.5v.5h1v-.5c0-.276.225-.5.5-.5s.5.224.5.5v.5h1v-.5c0-.276.225-.5.5-.5s.5.224.5.5v2.667c.011 1.25-.834 2.319-2 2.726v17.108h1v-16.471c.977-.533 1.66-1.462 1.9-2.53h2.847l-3.708 8.806-.039.694c0 2.481 2.019 4.5 4.5 4.5s4.5-2.019 4.5-4.5v-.5l-3.75-9h3.75v-1zm-19.5 14c-1.76 0-3.221-1.306-3.465-3h6.93c-.244 1.694-1.705 3-3.465 3zm-3.457-4 3.457-8.211 3.457 8.211zm18.457 4c-1.76 0-3.221-1.306-3.465-3h6.93c-.244 1.694-1.705 3-3.465 3zm-3.457-4 3.457-8.211 3.457 8.211z"/></svg>