<svg id="Layer_1" viewBox="0 0 24 24" xmlns="http://www.w3.org/2000/svg" data-name="Layer 1"><path d="m15.501 5c1.379 0 2.5-1.122 2.5-2.5s-1.121-2.5-2.5-2.5-2.5 1.122-2.5 2.5 1.121 2.5 2.5 2.5zm0-4c.827 0 1.5.673 1.5 1.5s-.673 1.5-1.5 1.5-1.5-.673-1.5-1.5.673-1.5 1.5-1.5zm3.015 14h-4.662l1.789-5.764 3.95 5.554.814-.58-5.075-7.136h-.002c-.373-.543-.934-.912-1.583-1.038-1.263-.294-2.704.662-2.91 1.907l-1.791 5.084c-.326 1.489.931 3.01 2.455 2.972h7.015c.312-.008.566.312.486.614l-1.676 7.122.973.229 1.676-7.121c.241-.908-.521-1.869-1.459-1.844zm-7.015 0c-.878.043-1.655-.895-1.492-1.711l1.791-5.083c.136-.795.973-1.358 1.758-1.188.768.118 1.35.974 1.2 1.705l-1.951 6.277zm-6.5-7h-1v16l5.994-.003.006-.494c.003-.251.089-1.503 1.5-1.503h.5c4.942 0 5-4.455 5-4.5v-.5h-12zm7 13h-.5c-1.639 0-2.278 1.123-2.449 2h-4.051v-5h10.947c-.171.971-.893 3-3.947 3z"/></svg>