<svg id="Layer_1" viewBox="0 0 24 24" xmlns="http://www.w3.org/2000/svg" data-name="Layer 1"><path d="m21.5 5h-5.072l.523-4h5.049v-1h-5.942l-.596 5h-6.961c-1.378 0-2.5 1.122-2.5 2.5v3.5h1v-3.5c0-.827.673-1.5 1.5-1.5h10.013c-.317.419-.513.935-.513 1.5v15.5h-4.992c-.222.359-.475.694-.759 1h11.75v-16.5c0-1.378-1.122-2.5-2.5-2.5zm1.5 18h-4v-15.5c0-.827.673-1.5 1.5-1.5h1c.827 0 1.5.673 1.5 1.5zm-14.055-7.797c.065-.053.134-.1.195-.16 1.14-1.372.817-2.379.827-3.012-.629.01-1.642-.311-3.011.827-.404.404-.628.925-.76 1.4-.311-.943-.752-1.615-.781-1.657l-.831.557c.007.01.535.815.785 1.841h-1.119c-2.343 0-4.25 2.019-4.25 4.5s1.907 4.5 4.25 4.5c.603 0 1.202-.138 1.75-.4.548.262 1.147.4 1.75.4 2.343 0 4.25-2.019 4.25-4.5 0-2.039-1.296-3.746-3.055-4.297zm-1.282-1.638c.375-.375.926-.506 1.32-.55-.044.394-.175.946-.55 1.321s-.949.539-1.37.61c.066-.425.223-1.004.6-1.38zm.087 9.434c-.623.009-1.219-.208-1.75-.538-.531.33-1.127.547-1.75.538-1.792 0-3.25-1.57-3.25-3.5s1.458-3.5 3.25-3.5h3.5c1.792 0 3.25 1.57 3.25 3.5s-1.458 3.5-3.25 3.5z"/></svg>