<svg id="Layer_1" viewBox="0 0 24 24" xmlns="http://www.w3.org/2000/svg" data-name="Layer 1"><path d="m10 21h-4v-1h4zm8.64-15.549c-.065.065-.17.066-.243-.006l-1.691-1.633-.694.72 1.685 1.627c.228.228.527.341.826.341.297 0 .595-.113.82-.337l2.764-2.707-.699-.715-2.767 2.71zm5.36-3.451v7h-5.327l-2.191 1.72c-.29.187-.6.279-.905.279-.846.009-1.598-.733-1.576-1.587l-.002-7.413c0-1.103.897-1.999 2.001-1.999h6c1.103 0 2 .898 2 2.001zm-1 0c0-.551-.449-1-1-1h-6c-.552 0-1 .448-1 1l.002 7.413c0 .217.114.41.305.514.19.104.415.097.598-.021l2.424-1.906h4.673v-6zm-12.563 10.829-.94-.339c-.115.317-.691 1.357-1.212 2.003l.778.628c.596-.74 1.222-1.87 1.375-2.292zm.563-3.865c0-1.634-1.33-2.964-2.964-2.964-.841 0-1.646.36-2.208.988l.745.667c.373-.416.906-.655 1.462-.655 1.083 0 1.964.881 1.964 1.964 0 .524 0 1.402-.188 2.368l.981.191c.207-1.061.207-1.999.207-2.56zm-5.955-.434c-.025.152-.039.308-.039.467 0 3.407-1.924 3.446-2.006 3.446v1c1.04 0 3.006-.929 3.006-4.446 0-.103.009-.203.025-.301zm6.882 6.115c1.073-2.303 1.073-4.659 1.073-5.666 0-.76-.167-1.49-.498-2.17l-.899.438c.264.542.397 1.125.397 1.732 0 .94 0 3.141-.979 5.244zm-3.906-10.645c-2.769 0-5.021 2.243-5.021 5v1h1v-1c0-2.206 1.804-4 4.021-4 .868 0 1.693.276 2.387.797l.602-.799c-.869-.653-1.902-.999-2.988-.999zm.484 5.272-.005-.272c0-.276-.224-.5-.5-.5s-.5.224-.5.5l.005.299c.031 1.174.089 3.361-2.558 5.008l.528.849c3.134-1.949 3.061-4.706 3.03-5.883zm7.071 3.727c.142 0 .283-.014.423-.031v8.532c0 1.378-1.122 2.5-2.5 2.5h-10.999c-1.378 0-2.5-1.122-2.5-2.5v-21.5h12.555c-.181.31-.322.644-.414 1h-11.141v16h14v-4.055c.191.032.383.054.577.054zm-.577 5.001h-13.999v3.5c0 .827.673 1.5 1.5 1.5h11c.827 0 1.5-.673 1.5-1.5v-3.5z"/></svg>