<svg id="Layer_1" viewBox="0 0 24 24" xmlns="http://www.w3.org/2000/svg" data-name="Layer 1"><path d="m21 23v-6.478c1.365-.405 2.375-1.808 2.881-3.253-1.58.456-3.251.768-4.881.714v-4.185c1.817-.238 3.275-1.644 3.881-3.528-1.449.41-2.998.734-4.489.713h-2.392v-1.983c1.545-.005 2.56-.977 3.622-1.724-1.495-.348-3.039-.818-4.36-1.565-.877-.48-2.924-1.607-3.259-1.785-.034.014-3.073 1.707-3.217 1.786-1.322.747-2.866 1.217-4.359 1.564 1.055.743 2.105 1.744 3.573 1.723v1.983h-2.392c-1.49.021-3.041-.303-4.489-.713.606 1.885 2.064 3.29 3.881 3.528v4.185c-1.629.054-3.301-.258-4.881-.714.506 1.446 1.515 2.847 2.881 3.253v6.478h-3v1h24v-1h-3zm-14.226-19.33c.866-.287 1.7-.649 2.49-1.081.165-.091 2.294-1.276 2.742-1.524.619.34 1.999 1.098 2.775 1.524.788.43 1.621.792 2.485 1.079-.393.199-.824.365-1.253.331-1.29-.043-2.758-.961-3.991-1.605-1.248.652-2.733 1.574-4.034 1.605-.41.023-.828-.132-1.215-.33zm2.226 1.192c1.056-.26 2.077-.826 3.023-1.334.933.501 1.935 1.061 2.977 1.326v2.128h-6v-2.121zm-3.392 3.121h12.783c.84 0 1.685-.074 2.522-.22-1.018 1.065-2.637 1.237-4.277 1.237h-9.273c-1.641 0-3.26-.171-4.277-1.237.838.146 1.683.22 2.522.22zm.392 1.956c.454.04.912.061 1.363.061h9.273c.451 0 .909-.021 1.363-.061v4.044h-3v-1.983h-1v1.983h-4v-1.983h-1v1.983h-3v-4.044zm-1.392 5.044h14.783c.84 0 1.685-.074 2.522-.221-1.019 1.066-2.637 1.237-4.277 1.237h-11.273c-1.641 0-3.259-.171-4.277-1.237.838.146 1.683.221 2.522.221zm-.608 1.815c.769.155 1.577.202 2.363.202h11.273c.787 0 1.595-.047 2.363-.202v6.202h-2v-4h-1v4h-2v-4h-1v4h-4v-4h-1v4h-2v-4h-1v4h-2v-6.202z"/></svg>