<svg id="Layer_1" viewBox="0 0 24 24" xmlns="http://www.w3.org/2000/svg" data-name="Layer 1"><path d="m22.014 10.207c.026-2.081-.132-4.618-2.604-6.179.555-.043 1.254-.024 1.823-.028-.509-.97-.972-3.669-5.233-4-2.183 0-3.415.834-4 1.398-.585-.564-1.817-1.398-4-1.398-4.265.335-4.721 3.026-5.233 4 .571.004 1.266-.015 1.823.028-2.472 1.563-2.629 4.095-2.604 6.179.615-.615 1.4-1.486 2.195-1.809-.851 1.156-1.333 3.491-1.182 5.328.453-.48 1.466-1.558 1.982-1.646-.115 1.999-.756 4.162-.847 4.463-.698.793-1.135 1.821-1.135 2.957v4.5h1v-4.5c0-1.93 1.57-3.5 3.5-3.5l1.068.011c.715 1.227 2.029 1.989 3.432 1.989s2.717-.763 3.432-1.989l1.068-.011c1.93 0 3.5 1.57 3.5 3.5v4.5h1v-4.5c0-1.137-.438-2.164-1.135-2.957-.091-.3-.732-2.464-.847-4.462.517.086 1.531 1.168 1.982 1.646.151-1.839-.33-4.169-1.183-5.328.794.321 1.582 1.195 2.196 1.809zm-12.014 5.995v-3.728c-1.253-.75-2.043-2.105-1.998-3.566 2.051-.45 3.309-1.706 3.985-2.634.667.945 1.923 2.223 4.013 2.648.034 1.458-.751 2.805-2 3.552v3.728c-.541.504-1.24.798-2 .798s-1.459-.295-2-.798zm8.602-9.163-1.308-.142.884.975c.564.623 1.447 1.831 1.731 3.525-1.18-.58-1.259-.383-1.909-.335-.048 1.489.261 3.268.556 4.458-.619-.321-1.311-.52-2.056-.52h-1.5v-2.002c1.257-.943 2-2.419 2-3.998v-.936c-2.991-.284-4.22-2.144-4.995-3.774-.759 1.477-1.944 3.417-5.005 3.771v.938c0 1.579.743 3.055 2 3.998v2.002h-1.5c-.744 0-1.437.199-2.056.52.294-1.189.603-2.968.556-4.458-.649-.048-.731-.245-1.909.335.284-1.695 1.167-2.902 1.731-3.525l.884-.974c-1.186.107-2.555.225-3.554.923.277-1.247 1.059-3.075 3.26-3.351l1.638-.205-1.477-.738c-.763-.382-1.511-.487-2.242-.517.525-.796 1.656-2.011 3.669-2.011 2.636 0 3.538 1.37 3.573 1.424l.42.682.432-.677c.037-.059.939-1.429 3.575-1.429 2.013 0 3.144 1.215 3.669 2.011-.731.029-1.479.135-2.242.517l-1.477.738 1.638.205c2.201.275 2.982 2.104 3.26 3.351-.683-.432-1.434-.694-2.246-.782z"/></svg>