<svg id="Layer_1" viewBox="0 0 24 24" xmlns="http://www.w3.org/2000/svg" data-name="Layer 1"><path d="m21 15.017v-3.017h-8.5v-2h2c1.93 0 3.5-1.57 3.5-3.5 0-1.382-.822-2.625-2.076-3.184-.327-1.911-1.963-3.316-3.924-3.316-2.206 0-4 1.794-4 4 0 .196.017.392.052.596-1.189.307-2.052 1.378-2.052 2.654 0 1.517 1.233 2.75 2.75 2.75h2.75v2h-8.5v3.017c-1.563.081-3 .547-3 1.483v6c0 1.036 1.758 1.5 3.5 1.5s3.5-.464 3.5-1.5v-6c0-.937-1.437-1.402-3-1.483v-2.017h7.5v2.017c-1.563.081-3 .547-3 1.483v6c0 1.036 1.758 1.5 3.5 1.5s3.5-.464 3.5-1.5v-6c0-.937-1.437-1.402-3-1.483v-2.017h7.5v2.017c-1.563.081-3 .547-3 1.483v6c0 1.036 1.758 1.5 3.5 1.5s3.5-.464 3.5-1.5v-6c0-.937-1.437-1.402-3-1.483zm-12.25-6.017c-.965 0-1.75-.785-1.75-1.75 0-.941.74-1.706 1.684-1.742l.647-.024c-.13-.432-.35-1.071-.331-1.484 0-1.654 1.346-3 3-3 1.678-.012 2.978 1.377 3 3.042 1.141.286 2.012 1.27 2 2.458 0 1.378-1.122 2.5-2.5 2.5zm-7.75 8.594c.667.273 1.582.406 2.5.406s1.835-.133 2.502-.408l.004 1.854c-.117.168-.977.554-2.507.554-1.513 0-2.368-.376-2.5-.547v-1.859zm2.5 5.406c-1.547 0-2.413-.395-2.5-.5v-1.906c.667.273 1.582.406 2.5.406s1.841-.135 2.509-.411l.004 1.851c-.101.165-.966.56-2.513.56zm0-6c-1.382 0-2.22-.315-2.455-.5.235-.185 1.073-.5 2.455-.5s2.22.315 2.455.5c-.235.185-1.073.5-2.455.5zm6 .594c.667.273 1.582.406 2.5.406s1.835-.133 2.502-.408l.004 1.854c-.117.168-.977.554-2.507.554-1.513 0-2.368-.376-2.5-.547v-1.859zm2.5 5.406c-1.547 0-2.413-.395-2.5-.5v-1.906c.667.273 1.582.406 2.5.406s1.841-.135 2.509-.411l.004 1.851c-.101.165-.966.56-2.513.56zm0-6c-1.382 0-2.22-.315-2.455-.5.235-.185 1.073-.5 2.455-.5s2.22.315 2.455.5c-.235.185-1.073.5-2.455.5zm6 .594c.667.273 1.582.406 2.5.406s1.835-.133 2.502-.408l.004 1.854c-.117.168-.977.554-2.507.554-1.513 0-2.368-.376-2.5-.547v-1.859zm2.5-1.594c1.382 0 2.22.315 2.455.5-.235.185-1.073.5-2.455.5s-2.22-.315-2.455-.5c.235-.185 1.073-.5 2.455-.5zm0 7c-1.547 0-2.413-.395-2.5-.5v-1.906c.667.273 1.582.406 2.5.406s1.841-.135 2.509-.411l.004 1.851c-.101.165-.966.56-2.513.56z"/></svg>