<svg id="Layer_1" viewBox="0 0 24 24" xmlns="http://www.w3.org/2000/svg" data-name="Layer 1"><path d="m21.5 10h-2.579c-.203.351-.429.686-.681 1h3.26c.827 0 1.5.673 1.5 1.5v3.5h-22v-3.5c0-.827.673-1.5 1.5-1.5h3.26c-.252-.314-.478-.649-.681-1h-2.579c-.565 0-1.081.195-1.5.513v-8.513h-1v20c0 1.103.897 2 2 2s2-.897 2-2-.897-2-2-2c-.366 0-.705.106-1 .278v-3.278h22v3.278c-.295-.172-.634-.278-1-.278-1.103 0-2 .897-2 2s.897 2 2 2 2-.897 2-2v-9.5c0-1.378-1.121-2.5-2.5-2.5zm-19.5 11c.552 0 1 .448 1 1s-.448 1-1 1-1-.448-1-1 .448-1 1-1zm20 2c-.552 0-1-.448-1-1s.448-1 1-1 1 .448 1 1-.448 1-1 1zm-10.5-16.5h-2.5v-1h2.5v-2.5h1v2.5h2.5v1h-2.5v2.5h-1zm.5 5.5c3.309 0 6-2.691 6-6s-2.691-6-6-6-6 2.691-6 6 2.691 6 6 6zm0-11c2.757 0 5 2.243 5 5s-2.243 5-5 5-5-2.243-5-5 2.243-5 5-5z"/></svg>