<svg id="Layer_1" viewBox="0 0 24 24" xmlns="http://www.w3.org/2000/svg" data-name="Layer 1"><path d="m12 0c-6.617 0-12 5.383-12 12s5.383 12 12 12 12-5.383 12-12-5.383-12-12-12zm10.5 8.72c-.569.186-1.164.28-1.774.28-3.157 0-5.726-2.568-5.726-5.725 0-.61.095-1.205.281-1.775 3.432 1.074 6.145 3.788 7.219 7.219zm-8.187-7.471c-.206.652-.313 1.33-.313 2.026 0 3.708 3.018 6.725 6.726 6.725.695 0 1.374-.106 2.025-.312.16.746.249 1.519.249 2.312 0 .772-.082 1.524-.234 2.251-1.198.49-2.464.749-3.772.749-5.511 0-9.994-4.483-9.994-9.994 0-1.309.259-2.575.749-3.772.727-.152 1.48-.233 2.251-.233.794 0 1.566.089 2.313.249zm-13.313 10.751c0-2.435.805-4.68 2.149-6.504-.099.663-.149 1.335-.149 2.011 0 7.44 6.053 13.493 13.493 13.493.676 0 1.348-.05 2.011-.149-1.824 1.344-4.069 2.149-6.504 2.149-6.065 0-11-4.935-11-11zm19.037 7.486c-1.147.338-2.337.514-3.543.514-6.889 0-12.493-5.604-12.493-12.493 0-1.207.176-2.398.514-3.543 1.147-1.07 2.518-1.899 4.04-2.402-.366 1.106-.554 2.26-.554 3.445 0 6.062 4.932 10.994 10.994 10.994 1.184 0 2.338-.188 3.445-.553-.504 1.522-1.333 2.892-2.402 4.04z"/></svg>