<svg id="Layer_1" viewBox="0 0 24 24" xmlns="http://www.w3.org/2000/svg" data-name="Layer 1"><path d="m2.5 23c-.827 0-1.5-.673-1.5-1.5s.673-1.5 1.5-1.5h6.875c-.1-.325-.174-.66-.235-1h-4.14v-18h13.5c.276 0 .5.224.5.5v7.64c.34.061.675.135 1 .235v-7.875c0-.827-.673-1.5-1.5-1.5h-16c-1.378 0-2.5 1.122-2.5 2.5v19c0 1.379 1.122 2.5 2.5 2.5h9.528c-.362-.305-.696-.64-1.003-1zm0-22h1.5v18h-1.5c-.565 0-1.081.195-1.5.513v-17.013c0-.827.673-1.5 1.5-1.5zm15 10c-3.584 0-6.5 2.916-6.5 6.5s2.916 6.5 6.5 6.5 6.5-2.916 6.5-6.5-2.916-6.5-6.5-6.5zm0 12c-3.033 0-5.5-2.468-5.5-5.5s2.467-5.5 5.5-5.5 5.5 2.468 5.5 5.5-2.467 5.5-5.5 5.5zm0-9c-1.93 0-3.5 1.57-3.5 3.5s1.57 3.5 3.5 3.5c.95 0 1.81-.383 2.442-1h-2.442c-1.208 0-2.217-.86-2.45-2h5.95v-.5c0-1.93-1.57-3.5-3.5-3.5zm-2.45 3c.232-1.14 1.242-2 2.45-2s2.217.86 2.45 2h-4.899z"/></svg>