<svg id="Layer_1" viewBox="0 0 24 24" xmlns="http://www.w3.org/2000/svg" data-name="Layer 1"><path d="m23 12.974c.36-.306.695-.641 1-1.003v10.028h-2v2h-1v-2h-18v2h-1v-2h-2v-17.499c0-1.379 1.121-2.5 2.5-2.5h7.798c-.2.32-.381.653-.538 1h-7.26c-.827 0-1.5.673-1.5 1.5v1.5h3v1h-3v10h3v1h-3v3h22zm-12-6.474c0-3.584 2.916-6.5 6.5-6.5s6.5 2.916 6.5 6.5-2.916 6.5-6.5 6.5-6.5-2.916-6.5-6.5zm1 0c0 3.032 2.468 5.5 5.5 5.5s5.5-2.468 5.5-5.5-2.468-5.5-5.5-5.5-5.5 2.468-5.5 5.5zm4.282 3.5h.718v1h1v-1h.756c.982 0 1.782-.821 1.782-1.83 0-.811-.529-1.534-1.308-1.765l-3.095-.775c-.336-.1-.571-.429-.571-.8 0-.458.351-.83.782-.83h2.371c.432 0 .782.372.782.83v.195h1v-.195c0-1.009-.8-1.83-1.782-1.83h-.718v-1h-1v1h-.653c-.982 0-1.782.821-1.782 1.83 0 .811.529 1.534 1.308 1.765l3.095.775c.336.1.571.429.571.8 0 .458-.351.83-.782.83h-2.474c-.432 0-.782-.372-.782-.83v-.17h-1v.17c0 1.009.8 1.83 1.782 1.83zm-7.22-2.515c-1.26 1.101-2.062 2.715-2.062 4.515 0 3.309 2.691 6 6 6 2.23 0 4.176-1.225 5.21-3.036-.235.019-.47.036-.71.036-.17 0-.337-.016-.505-.025-.912 1.222-2.357 2.025-3.995 2.025-2.757 0-5-2.243-5-5 0-1.28.498-2.437 1.292-3.323-.103-.388-.183-.785-.23-1.193z"/></svg>