<svg id="Layer_1" viewBox="0 0 24 24" xmlns="http://www.w3.org/2000/svg" data-name="Layer 1"><path d="m13.5 5c1.379 0 2.5-1.122 2.5-2.5s-1.121-2.5-2.5-2.5-2.5 1.122-2.5 2.5 1.122 2.5 2.5 2.5zm0-4c.827 0 1.5.673 1.5 1.5s-.673 1.5-1.5 1.5-1.5-.673-1.5-1.5.673-1.5 1.5-1.5zm9.93 9.005c-1.4.198-5.704.772-9.456.944l1.575-3.949h4.331l1.603-5.711-.963-.271-1.397 4.981h-12.744l-1.398-4.98-.963.271 1.603 5.711h4.353l-1.51 3.858c-3.812-.28-6.639-.679-8.464-.934v5.073c3.045.416 6.936.832 10.268.963l4.732 2.838v5.202h1v-5.802l-3.609-2.205c3.503-.04 8.164-.525 11.609-.996v-5.073l-.57.081zm-12.382-3.005h3.423l-1.59 3.988c-.3.007-.595.012-.881.012-.781 0-1.625-.029-2.488-.076zm11.952 7.122c-3.333.435-7.843.878-11 .878s-7.667-.443-11-.878v-3.048c2.164.294 7.259.926 11 .926s8.836-.632 11-.926zm-13.798 3.531.86.516-1.062 2.831h-6v-1h5.333l.868-2.347z"/></svg>