<svg id="Layer_1" viewBox="0 0 24 24" xmlns="http://www.w3.org/2000/svg" data-name="Layer 1"><path d="m14.008 18.952 2.497-3.496 1.853 2.548 2.033-3.37 3.609 4.662v-1.633l-8-10.334v-2.357l4.547-2.471-4.6-2.501h-.947v7.329l-12 15.5v1.171h21v-1h-19.867l6.586-8.507zm1.992-15.119v-2.666l2.453 1.333zm-.5 4.483 4.235 5.469-1.455 2.411-1.782-2.452-2.503 3.504-2.639-3.578 4.145-5.354zm-9.5-2.316c0-.552.448-1 1-1s1 .448 1 1-.448 1-1 1-1-.448-1-1zm-1 4.293v2.707h1.59c1.44-1.016 2.351-2.637 2.407-4.319 1.372-1.714 2.626-3.844 3.829-6.502.264-.579.142-1.245-.309-1.696-.451-.453-1.118-.573-1.697-.311-2.704 1.226-4.834 2.48-6.503 3.831-1.682.056-3.303.966-4.317 2.407v1.589h2.707l.793.793-1.354 1.354.707.707 1.354-1.354.793.793zm-4-3.293v-.254c.923-1.165 2.265-1.794 3.68-1.746 1.7-1.42 3.77-2.651 6.553-3.917.306-.138.519.047.578.106.059.06.241.276.105.576-1.24 2.731-2.479 4.812-3.916 6.557.048 1.414-.582 2.754-1.746 3.678h-.254v-2.121l-2.879-2.879z"/></svg>