<?xml version="1.0" encoding="UTF-8"?>
<svg xmlns="http://www.w3.org/2000/svg" id="Layer_1" data-name="Layer 1" viewBox="0 0 24 24">
  <path d="M1,23V2.5c0-.827,.673-1.5,1.5-1.5H12v7h7v7.204c.317-.087,.652-.145,1-.174V7.293L12.707,0H2.5C1.122,0,0,1.122,0,2.5V24H8.268c-.255-.307-.473-.643-.657-1H1ZM13,1.707l5.293,5.293h-5.293V1.707Zm7.47,15.293c-1.92,0-3.304,1.586-3.97,2.55-.665-.965-2.049-2.55-3.97-2.55-1.947,0-3.53,1.57-3.53,3.5s1.583,3.5,3.53,3.5c1.92,0,3.304-1.586,3.97-2.55,.665,.965,2.049,2.55,3.97,2.55,1.947,0,3.53-1.57,3.53-3.5s-1.583-3.5-3.53-3.5Zm-7.939,6c-1.395,0-2.53-1.121-2.53-2.5s1.135-2.5,2.53-2.5c1.723,0,2.995,1.843,3.394,2.5-.399,.657-1.671,2.5-3.394,2.5Zm7.939,0c-1.723,0-2.995-1.843-3.394-2.5,.399-.657,1.671-2.5,3.394-2.5,1.395,0,2.53,1.121,2.53,2.5s-1.135,2.5-2.53,2.5Z"/>
</svg>
