<svg id="Layer_1" viewBox="0 0 24 24" xmlns="http://www.w3.org/2000/svg" data-name="Layer 1"><path d="m16.5 14h-9c-2.481 0-4.5 2.019-4.5 4.5v5.5h1v-5.5c0-1.758 1.308-3.204 3-3.449v6.012l4.5-3.375v6.312h1v-6.312l4.5 3.375v-6.012c1.692.245 3 1.691 3 3.449v5.5h1v-5.5c0-2.481-2.019-4.5-4.5-4.5zm-.5 5.062-4-3-4 3v-4.062h8zm-10.299-7.062c1.492-.01 2.554-.472 3.136-.911.919.573 2.001.91 3.162.91s2.244-.337 3.163-.911c.593.436 1.558.877 3.07.911 1.31.031 2.464-.826 2.71-2.036.232-1.124-.278-2.25-1.283-2.809-.344-.191-1.391-.772-1.722-1.993h-.004c-.409-2.912-2.911-5.162-5.935-5.162-3.051 0-5.571 2.29-5.947 5.241l-.014-.003c-.223 1.103-1.268 1.679-1.711 1.924-.993.553-1.504 1.679-1.271 2.802.245 1.189 1.352 2.037 2.645 2.037zm13.484-3.966c.609.339.922 1.033.779 1.727-.15.724-.905 1.259-1.71 1.238-1.056-.023-1.769-.271-2.245-.549.969-.874 1.651-2.055 1.89-3.391.497.529 1.032.834 1.285.975zm-7.185-7.034c2.757 0 5 2.243 5 5s-2.243 5-5 5-5-2.243-5-5 2.243-5 5-5zm-7.139 7.01c.248-.136.768-.431 1.243-.915.245 1.322.925 2.49 1.885 3.356-.476.279-1.19.526-2.245.55-.868.038-1.56-.514-1.71-1.238-.143-.693.17-1.387.826-1.752z"/></svg>