<svg id="Layer_1" viewBox="0 0 24 24" xmlns="http://www.w3.org/2000/svg" data-name="Layer 1"><path d="m23.834 13.592-.748-2.394-.768.256-.244-.763-6.999 2.243.269.84-7.464 2.483 2.428-7.552.756.243 2.243-7-.766-.246.253-.794-2.388-.747c-.894-.28-1.84-.195-2.668.239s-1.438 1.164-1.715 2.052l-5.398 16.736c-.387.505-.625 1.129-.625 1.812 0 1.654 1.345 3 2.999 3s2.999-1.346 2.999-3-1.345-3-2.999-3c-.352 0-.685.072-1 .184l4.977-15.428c.412-1.316 1.817-2.051 3.132-1.64l1.428.447-5.087 15.832c.287.275.539.582.754.918l.287-.872 14.945-4.973.445 1.423c.426 1.283-.347 2.757-1.652 3.136l-13.282 4.486c-.041.395-.122.775-.249 1.137l13.841-4.672c1.808-.525 2.894-2.601 2.295-4.386zm-20.835 5.408c1.103 0 2 .897 2 2s-.897 2-2 2-2-.897-2-2 .897-2 2-2z"/></svg>