<svg id="Layer_1" viewBox="0 0 24 24" xmlns="http://www.w3.org/2000/svg" data-name="Layer 1"><path d="m6 9h-2v-1h2zm0 3h-2v1h2zm-2 5h2v-1h-2zm4-8h6v-1h-6zm0 4h3v-1h-3zm16 2.5v8.5h-12v-8.5c0-.827.673-1.5 1.5-1.5h.5v-2h1v2h6v-2h1v2h.5c.827 0 1.5.673 1.5 1.5zm-11 0v1.5h10v-1.5c0-.276-.224-.5-.5-.5h-9c-.276 0-.5.224-.5.5zm10 7.5v-5h-10v5zm-22-1.5v-18.5h5v-.5c0-.827.673-1.5 1.5-1.5h3c.827 0 1.5.673 1.5 1.5v.5h5v7h1v-8h-5.05c-.232-1.14-1.242-2-2.45-2h-3c-1.208 0-2.217.86-2.45 2h-5.05v19.5c0 1.378 1.122 2.5 2.5 2.5h7.5v-1h-7.5c-.827 0-1.5-.673-1.5-1.5z"/></svg>