<?xml version="1.0" encoding="UTF-8"?>
<svg xmlns="http://www.w3.org/2000/svg" id="Layer_1" data-name="Layer 1" viewBox="0 0 24 24">
  <path d="M21.5,4h-2.5v-1.5c0-1.378-1.121-2.5-2.5-2.5H2.5C1.122,0,0,1.122,0,2.5v15.855c-.041,1.276,1.522,2.113,2.562,1.371l3.438-2.292v3.566h11.349l4.089,2.726c1.04,.742,2.604-.095,2.562-1.371V6.5c0-1.378-1.121-2.5-2.5-2.5ZM2.007,18.894c-.408,.295-1.026-.037-1.007-.539V2.5c0-.827,.673-1.5,1.5-1.5h14c.827,0,1.5,.673,1.5,1.5v13.5H6.349l-4.341,2.894Zm20.993,3.461c.019,.503-.602,.831-1.008,.539l-4.341-2.894H7v-3h12V5h2.5c.827,0,1.5,.673,1.5,1.5v15.855ZM6.25,12c-1.241,0-2.25-1.009-2.25-2.25v-.75h1v.75c0,.689,.561,1.25,1.25,1.25s1.25-.561,1.25-1.25V5h1v4.75c0,1.241-1.009,2.25-2.25,2.25Zm4.376-1.5h2.835l.301,1.5h1.035l-1.104-5.425c-.126-.647-.687-1.575-1.628-1.575s-1.51,.97-1.618,1.531l-1.168,5.469h1.029l.318-1.5Zm.798-3.76c.044-.228,.317-.74,.64-.74,.331,0,.593,.491,.646,.765l.549,2.735h-2.421l.586-2.76Z"/>
</svg>
