<?xml version="1.0" encoding="UTF-8"?>
<svg xmlns="http://www.w3.org/2000/svg" id="Layer_1" data-name="Layer 1" viewBox="0 0 24 24">
  <path d="M18.482,9.239h0c.216-.509,.802-.746,1.311-.531h0c.509,.216,.746,.803,.531,1.311h0c-.216,.509-.802,.746-1.311,.531h0c-.509-.216-.746-.803-.531-1.311Zm-14.206-.557h0c-.508,.216-.746,.802-.53,1.311h0c.216,.509,.802,.746,1.311,.531h0c.509-.216,.746-.803,.531-1.311h0c-.216-.509-.803-.746-1.311-.531Zm6.719-.673c0,.552,.448,1,1,1s1-.448,1-1-.448-1-1-1-1,.448-1,1Zm-.496-5.014l-.004-.468c0-.471,.224-.925,.6-1.214,.376-.29,.843-.382,1.314-.26,.519,.136,.941,.585,1.052,1.118,.141,.674-.168,1.34-.768,1.656-.558,.294-1.198,.75-1.198,1.678l.004,.5,1-.009-.004-.496c0-.285,.106-.495,.664-.789,.999-.526,1.513-1.628,1.281-2.745-.189-.909-.887-1.647-1.777-1.881-.767-.198-1.56-.042-2.179,.435-.619,.478-.989,1.228-.989,2.011l.004,.473,1-.01Zm-6.783,.644c.389,.568,.361,1.301-.071,1.824-.401,.486-.816,1.153-.458,2.01l.197,.459,.919-.395-.195-.455c-.11-.263-.093-.498,.309-.984,.718-.871,.768-2.086,.124-3.025-.524-.767-1.453-1.181-2.365-1.052-.784,.11-1.456,.562-1.843,1.241C-.053,3.943-.105,4.777,.197,5.5l.187,.435,.919-.394-.185-.431c-.181-.434-.149-.939,.085-1.352,.235-.413,.631-.678,1.113-.746,.531-.076,1.093,.178,1.401,.626Zm19.313-1.124c-.631-.477-1.427-.631-2.18-.426-.754,.207-1.382,.76-1.679,1.485l-.175,.439,.929,.37,.173-.435c.179-.436,.559-.771,1.017-.896,.458-.125,.925-.034,1.313,.26,.428,.322,.648,.898,.548,1.433-.126,.677-.665,1.176-1.339,1.24-.627,.06-1.393,.237-1.746,1.097l-.186,.464,.929,.371,.184-.46c.108-.263,.286-.417,.914-.477,1.123-.107,2.018-.932,2.228-2.052,.17-.913-.194-1.861-.929-2.415Zm-2.03,14.734c0,2.067-1.682,3.75-3.75,3.75h-6.263v3h-1v-2.353c-.053,.06-.101,.123-.159,.181-.756,.756-1.76,1.172-2.829,1.172-2.206,0-4-1.794-4-4,0-1.434,.779-2.755,2.013-3.464-.009-.096-.013-.191-.013-.286,0-1.887,1.625-3.403,3.537-3.237,.708-1.234,2.029-2.013,3.463-2.013,1.232,0,2.382,.564,3.139,1.525,1.541-.212,2.847,.762,3.24,2.153,1.559,.487,2.621,1.913,2.621,3.572Zm-1,0c0-1.274-.905-2.402-2.151-2.68l-.328-.073-.056-.332c-.163-.965-.989-1.665-1.965-1.665-.224-.008-.569,.086-.805,.143l-.193-.292c-.559-.846-1.495-1.351-2.502-1.351-1.17,0-2.241,.693-2.727,1.767l-.166,.365c-.256-.052-.599-.139-.857-.132-1.241,0-2.25,1.01-2.25,2.25-.008,.257,.079,.602,.132,.857l-.365,.165c-1.073,.486-1.767,1.558-1.767,2.728,0,1.654,1.346,3,3,3,1.612,.033,3.033-1.387,3-3,0-.802-.312-1.555-.878-2.121l.707-.707c.755,.755,1.171,1.76,1.171,2.828,0,.342-.042,.678-.125,1h6.375c1.517,0,2.75-1.233,2.75-2.75Zm-6-2.25h-1c0,1.654,1.346,3,3,3v-1c-1.103,0-2-.897-2-2Z"/>
</svg>
