<svg id="Layer_1" viewBox="0 0 24 24" xmlns="http://www.w3.org/2000/svg" data-name="Layer 1"><path d="m23.034 18.482-.107-.129-5.624-1.297c-.318-.46-1.258-1.767-2.33-2.833 2.633-1.084 3.141-1.807 4.584-2.974l-2.748-1.249h3.924c1.025-1.177 1.796-2.56 2.387-4h-3.45l3.769-1.047c.435-1.547.598-3.228.563-4.894l-14.002 3.552c.177 3.271-1.31 6.032-1.729 6.389h-5.271c-1.038 0-3 .627-3 3v1h4.264c.625.747 3.006 3.469 5.392 4.546l-1.039 3.491c-.753.145-1.616.716-1.616 1.963h1c0-.913.769-.996 1-1h.373l.242-.815 4.039-3.185h2.471l4.391 3.977c1.074.061 2.547.035 3.26-1.258.663-1.326-.297-2.705-.741-3.236zm-.153 2.789c-.341.685-1.43.741-1.957.727l-4.414-3.998h-3.203l-3.196 2.521.766-2.576c-2.769-.821-5.941-4.637-6.137-4.945h-3.74c0-1.926 1.797-1.998 2-2h5.707c.271-.319 2.124-2.001 2.288-6.61l11.992-3.042c-.038.968-.162 1.891-.377 2.797l-10.279 2.855h9.229c-.367.707-.802 1.376-1.299 2h-8.07l5.51 2.504c-.914.75-2.34 1.732-5.364 2.511l.25.969c.48-.124.919-.253 1.327-.385 1.499 1.39 2.622 3.118 2.78 3.343l5.674 1.309c.307.399.877 1.294.513 2.021z"/></svg>