<svg id="Layer_1" viewBox="0 0 24 24" xmlns="http://www.w3.org/2000/svg" data-name="Layer 1"><path d="m18.987 10.474s0 0 0 0c.134-2.544-.823-5.037-2.624-6.837-1.7-1.7-3.959-2.636-6.363-2.636s-4.664.935-6.364 2.635-2.636 3.96-2.636 6.364.936 4.664 2.636 6.364l6.364 6.225 1-.978v1.398l-1 .978-7.067-6.912c-1.893-1.893-2.933-4.404-2.933-7.075s1.04-5.182 2.929-7.071c1.888-1.889 4.4-2.929 7.071-2.929s5.182 1.04 7.07 2.929c2.001 2 3.064 4.769 2.916 7.597s0 0 0 0c-.008.159-.031.316-.047.474h-1.004c.019-.175.042-.349.052-.526zm.013 13.526h2v-2h-2zm3-3h2v-2h-2zm-3 0h2v-2h-2zm-6-8h5v5h-5zm1 4h3v-3h-3zm-1 2h5v5h-5zm1 4h3v-3h-3zm10-10v5h-5v-5zm-1 1h-3v3h3zm-8 2h1v-1h-1zm7-1h-1v1h1zm-7 7h1v-1h-1zm-1.142-11c.084-.322.142-.653.142-1 0-2.206-1.794-4-4-4s-4 1.794-4 4 1.794 4 4 4c.347 0 .678-.058 1-.142v-1.042c-.314.112-.648.184-1 .184-1.654 0-3-1.346-3-3s1.346-3 3-3 3 1.346 3 3c0 .352-.072.686-.184 1z"/></svg>