<?xml version="1.0" encoding="UTF-8"?>
<svg xmlns="http://www.w3.org/2000/svg" id="Layer_1" data-name="Layer 1" viewBox="0 0 24 24">
  <path d="M17.032,7.084c-1.344-1.344-3.131-2.084-5.032-2.084s-3.688,.74-5.032,2.084l-.707-.707c1.533-1.533,3.571-2.377,5.739-2.377s4.206,.844,5.739,2.377l-.707,.707Zm-7.8,2.062l.707,.707c1.1-1.102,3.021-1.102,4.121,0l.707-.707c-1.477-1.479-4.059-1.479-5.535,0ZM12,1c2.901,0,5.629,1.13,7.679,3.181l.707-.707C18.146,1.233,15.169,0,12,0S5.854,1.233,3.614,3.474l.707,.707c2.05-2.051,4.777-3.181,7.679-3.181Zm12,16.5v6.5H0v-6.5c0-1.379,1.121-2.5,2.5-2.5h3.133L.567,6.251l.865-.502L6.788,15h10.423l5.356-9.251,.865,.502-5.065,8.749h3.133c1.379,0,2.5,1.121,2.5,2.5Zm-1,0c0-.827-.673-1.5-1.5-1.5H2.5c-.827,0-1.5,.673-1.5,1.5v5.5H23v-5.5Zm-19,1c-.552,0-1,.448-1,1s.448,1,1,1,1-.448,1-1-.448-1-1-1Zm3,0c-.552,0-1,.448-1,1s.448,1,1,1,1-.448,1-1-.448-1-1-1Zm6,1.5h8v-1H13v1Z"/>
</svg>
