<svg id="Layer_1" viewBox="0 0 24 24" xmlns="http://www.w3.org/2000/svg" data-name="Layer 1"><path d="m17.487 20c-.36.476-.884.814-1.487.94v3.06h-1v-3h-10v3h-1v-3.051c-1.14-.232-2-1.242-2-2.449v-13c0-1.208.86-2.217 2-2.449v-3.051h1v3h10v-3h1v3.06c.603.126 1.128.464 1.487.94h-12.987c-.827 0-1.5.673-1.5 1.5v13c0 .827.673 1.5 1.5 1.5zm4.193-4.476c-.246.302-.609.476-.999.476h-1.465c-.128 1.119-1.069 1.994-2.221 1.994s-2.094-.875-2.221-1.994h-1.457c-.389 0-.753-.173-.998-.475s-.34-.692-.261-1.071c.203-.975.527-2.525.801-3.802.497-2.321 2.007-3.652 4.142-3.652 2.147 0 3.657 1.332 4.143 3.654l.797 3.796c.08.38-.014.771-.259 1.074zm-3.49.476h-2.392c.121.562.598.994 1.196.994s1.075-.432 1.196-.994zm2.771-1.344-.797-3.797c-.273-1.305-1.043-2.859-3.164-2.859-2.109 0-2.885 1.556-3.165 2.861-.273 1.274-.588 2.825-.799 3.796-.049.224.038.343.28.343h7.365c.216 0 .317-.108.28-.344z"/></svg>