<svg id="Layer_1" viewBox="0 0 24 24" xmlns="http://www.w3.org/2000/svg" data-name="Layer 1"><path d="m23 0v2h-3v-2h-1v4.5c0 .827.673 1.5 1.5 1.5h.5v11.5c0 .827-.673 1.5-1.5 1.5h-2.5v-.768c0-1.206-.206-2.394-.612-3.531l-1.443-4.042c-.354-.993-1.3-1.659-2.354-1.659h-8.181c-1.054 0-2 .667-2.354 1.659l-1.444 4.042c-.406 1.137-.612 2.325-.612 3.531v3.768h2v2h3v-2h7v2h3v-2h2v-2h2.5c1.378 0 2.5-1.122 2.5-2.5v-11.5h.5c.827 0 1.5-.673 1.5-1.5v-4.5zm-20.003 10.995c.213-.595.781-.995 1.413-.995h8.18c.632 0 1.2.4 1.413.995l1.43 4.005h-13.867l1.43-4.005zm1.003 12.005h-1v-1h1zm10 0h-1v-1h1zm2-2h-15v-2.768c0-.755.095-1.502.272-2.232h2.728v1.5c0 .276.224.5.5.5s.5-.224.5-.5v-1.5h7v1.5c0 .276.224.5.5.5s.5-.224.5-.5v-1.5h2.728c.177.73.272 1.476.272 2.232zm6.5-16h-2c-.276 0-.5-.224-.5-.5v-1.5h3v1.5c0 .276-.224.5-.5.5z"/></svg>