<?xml version="1.0" encoding="UTF-8"?>
<svg xmlns="http://www.w3.org/2000/svg" id="Layer_1" data-name="Layer 1" viewBox="0 0 24 24">
  <path d="M23.606,22.789l.371,.93c-.47,.187-.966,.281-1.478,.281-1.516,0-2.822-.857-3.5-2.103-.678,1.246-1.984,2.103-3.5,2.103s-2.822-.857-3.5-2.104c-.678,1.246-1.984,2.104-3.5,2.104s-2.822-.857-3.5-2.104c-.678,1.246-1.984,2.104-3.5,2.104-.511,0-1.007-.095-1.477-.281l.37-.93c.351,.14,.724,.211,1.107,.211,1.654,0,3-1.346,3-3h1c0,1.654,1.346,3,3,3s3-1.346,3-3h1c0,1.654,1.346,3,3,3s3-1.346,3-3h1c0,1.654,1.346,3,3,3,.384,0,.756-.071,1.106-.211ZM6,18H0V8H1.834L10.515,.038l1.146,1.146-5.662,7.483v9.332Zm-1-9.668L9.644,2.194,2.224,9H1v8H5V8.332Zm19-.332v10h-6V8.668L12.338,1.185,13.485,.038l8.68,7.962h1.835Zm-1,1h-1.224L14.356,2.194l4.644,6.138v8.668h4V9Z"/>
</svg>
