<?xml version="1.0" encoding="UTF-8"?>
<svg xmlns="http://www.w3.org/2000/svg" id="Layer_1" data-name="Layer 1" viewBox="0 0 24 24">
  <path d="M23.957,13.297c-.365-.824-.73-1.702-1.096-2.58-1.07-2.574-2.082-5.005-3.143-6.317C17.112,.922,12.825-.664,8.532,.261,4.139,1.208,.844,4.71,.139,9.185c-.514,3.27,.326,6.515,2.306,8.904,.358,.433,.556,.988,.556,1.562v4.349h13v-3h2.358c1.188,0,2.22-.846,2.452-2.012l.793-3.988h2.396v-1.5l-.043-.203Zm-.957,.703h-2.217l-.953,4.792c-.14,.7-.759,1.208-1.472,1.208h-3.358v3H4v-3.349c0-.807-.279-1.588-.786-2.2C1.418,15.283,.657,12.326,1.127,9.34,1.767,5.277,4.756,2.097,8.743,1.239c3.912-.841,7.807,.601,10.187,3.776,.981,1.214,2.012,3.691,3.009,6.086,.354,.851,.708,1.702,1.062,2.504v.395Zm-7-6c0-.551-.448-1-1-1H6v6H15c.552,0,1-.449,1-1v-1h1v-2h-1v-1Zm-9,0h2v4h-2v-4Zm3,4v-4h5v4s-5,0-5,0Z"/>
</svg>
