<svg id="Layer_1" viewBox="0 0 24 24" xmlns="http://www.w3.org/2000/svg" data-name="Layer 1"><path d="m20.107 17.613.707.707-2.221 2.219c-.305.305-.707.459-1.108.459s-.803-.153-1.108-.459l-2.209-2.209.707-.707 2.122 2.122v-5.244h.999v5.22l2.111-2.109zm3.886-.112c0 3.582-2.914 6.496-6.496 6.496s-6.496-2.914-6.496-6.496 2.914-6.496 6.496-6.496 6.496 2.914 6.496 6.496zm-.999 0c0-3.031-2.466-5.497-5.497-5.497s-5.497 2.466-5.497 5.497 2.466 5.497 5.497 5.497 5.497-2.466 5.497-5.497zm-15.991-5.497c-1.102 0-1.999-.897-1.999-1.999s.896-1.999 1.999-1.999 1.999.897 1.999 1.999-.896 1.999-1.999 1.999zm.999-1.999c0-.551-.448-.999-.999-.999s-.999.448-.999.999.448.999.999.999.999-.448.999-.999zm5.497-1.999h-1.192l-5.804 9.994h1.166zm-2.473 14.992-8.021.012c-1.096 0-1.993-.891-1.999-1.984v-14.916l8.995-4.968 8.995 4.968v3.036c.34.061.675.135.999.235v-3.86l-9.994-5.521-9.994 5.52v15.508c.011 1.644 1.356 2.969 2.999 2.969l9.025.003c-.363-.305-.698-.641-1.005-1.002z"/></svg>