<svg id="Layer_1" viewBox="0 0 24 24" xmlns="http://www.w3.org/2000/svg" data-name="Layer 1"><path d="m22.999 2.716-4.251-2.449c-.615-.355-1.38-.354-1.997 0l-4.751 2.738-4.752-2.738c-.615-.355-1.38-.354-1.997 0l-4.249 2.449c-.618.355-1.002 1.02-1.002 1.733v5.086c0 .713.384 1.377 1.001 1.732l4.749 2.737v5.547c0 .712.384 1.376 1.001 1.733l4.25 2.448c.309.177.653.266.999.266s.69-.088.999-.266l4.25-2.449c.617-.356 1.001-1.021 1.001-1.732v-5.547l4.748-2.737c.618-.355 1.002-1.02 1.002-1.732v-5.086c0-.713-.384-1.377-1.001-1.733zm-21.999 6.82v-5.087c0-.357.191-.689.501-.867l4.249-2.449c.154-.088.327-.133.5-.133s.346.044.499.133l4.751 2.738v6.242l-5.25 3.025-4.75-2.736c-.309-.178-.5-.51-.5-.866zm16.25 10.016c0 .356-.192.688-.501.866l-4.25 2.448c-.307.178-.691.178-.998 0l-4.25-2.447c-.309-.179-.501-.511-.501-.867v-5.547l5.25-3.025 5.25 3.025zm5.75-10.016c0 .356-.191.688-.501.866l-4.749 2.737-5.25-3.025v-6.243l4.75-2.738c.309-.177.692-.177.999 0l4.251 2.449c.309.178.5.51.5.867v5.086z"/></svg>