<svg id="Layer_1" viewBox="0 0 24 24" xmlns="http://www.w3.org/2000/svg" data-name="Layer 1"><path d="m23.917 20.604-1.394-7.034c.88-.523 1.477-1.474 1.477-2.57 0-1.506-1.115-2.756-2.615-2.964-.711-4.61-4.675-8.036-9.385-8.036-5.275 0-8.93 3.568-9.779 9.558l-.275 2.377c.546.061.446.084 1.265.095.984 0 2.8-.143 4.803-.96.038.518.458.93.986.93.552 0 1-.448 1-1 0-.3-.139-.561-.348-.744 1.927-1.143 3.87-3.003 5.301-6.043l-.905-.426c-3.273 6.956-9.218 7.311-10.991 7.25l.156-1.352c.782-5.519 3.985-8.685 8.787-8.685 4.34 0 7.971 3.25 8.445 7.561l.095.451.459-.012c1.103 0 2 .897 2 2s-.897 2-2 2h-1.292c-.929 2.913-4.137 5.976-7.708 6.001-3.145 0-6.08-2.483-7.3-5.001h-1.094c.763 1.832 2.384 3.704 4.394 4.86v4.14h-5.261s0 0 0 0c-.541 0-1.042-.246-1.373-.673-.332-.428-.444-.975-.308-1.5h-.004c.002-.01.008-.018.01-.027l1.348-6.801h-1.019l-1.309 6.606c-.001.005 0 .011 0 .016-.197.813-.022 1.655.491 2.318.522.674 1.311 1.061 2.164 1.061h6.263v-4.648c.952.406 1.964.649 3 .649h.003c1.034 0 2.046-.243 2.997-.648v4.646h6.262s0 0 0 0c.853 0 1.641-.387 2.164-1.062s.699-1.536.491-2.334zm-1.282 1.722c-.332.428-.832.673-1.373.673h-5.262v-4.139c2.013-1.155 3.637-3.028 4.4-4.861.344-.002.847.019 1.178-.058l1.365 6.886c.136.524.023 1.071-.308 1.5zm-7.635-10.327c-.552 0-1-.448-1-1s.448-1 1-1 1 .448 1 1-.448 1-1 1zm-6 3h5.998c-.49 1.174-1.648 2-2.999 2s-2.509-.826-2.999-2z"/></svg>