<?xml version="1.0" encoding="UTF-8"?>
<svg xmlns="http://www.w3.org/2000/svg" id="Layer_1" data-name="Layer 1" viewBox="0 0 24 24">
  <path d="m23,20v.5c0,1.379-1.121,2.5-2.5,2.5h-4.5v-5h6v-3.362c0-2.638-1.88-4.91-4.471-5.403l-4.259-.811c-1.085-.207-1.896-1.084-2.017-2.182l-.453-4.096c-.099-.687-.482-1.307-1.053-1.701-.571-.396-1.289-.534-1.984-.381L0,2.115v15.885h5v5H0v1h20.5c1.93,0,3.5-1.57,3.5-3.5v-.5h-1ZM1,2.885l7-1.849c.41-.092.831-.01,1.18.231.347.24.571.603.629,1.005l.302,2.728h-3.11v1h3.221l.039.352c.049.446.181.866.378,1.245l-2.744,1.668.52.855,2.813-1.71c.407.419.921.735,1.504.909l-1.661,2.827.861.506,1.832-3.117,3.579.681c2.12.403,3.658,2.263,3.658,4.421v2.362H1V2.885Zm5,15.115h9v5H6v-5Z"/>
</svg>
