<svg id="Layer_1" viewBox="0 0 24 24" xmlns="http://www.w3.org/2000/svg" data-name="Layer 1"><path d="m21.8 15.328-1.501-.808 3.648-7.297-.895-.447-3.635 7.27-1.435-.773c-1.04-.564-2.322-.232-2.977.77-1.076 1.67-2.546 3.353-4.114 4.793 1.176 1.084 2.711 2.16 4.329 3.05.806-.31 1.657-.767 2.624-1.556-.19.781-.609 1.582-.948 2.344 1.002.431 2.036.814 3.023 1.093 1.157-1.45 2.466-3.386 3.032-5.966.207-.981-.268-1.998-1.152-2.473zm.174 2.266c-.432 2.045-1.514 3.817-2.421 5.017-.427-.136-.866-.292-1.314-.467.422-.933.762-1.805.762-3.144v-1.342l-.878 1.015c-.871 1.007-2.022 1.737-2.834 2.104-1.036-.596-2.097-1.317-2.91-1.978 1.333-1.313 2.524-2.761 3.466-4.21.366-.562 1.083-.75 1.664-.436l3.818 2.056c.496.267.762.836.646 1.385zm-20.974 5.406v-14.5c0-.827.673-1.5 1.5-1.5h4.382l4 2h8.823l.5-1h-2.205v-4.202l-3.659-3.798h-7.712c-1.474 0-2.628 1.098-2.628 2.5v3.5h-1.5c-1.378 0-2.5 1.122-2.5 2.5v15.5h14.88s-1.423-.823-1.712-1zm15.806-19h-2.806v-2.912zm-11.806-1.5c0-.855.7-1.5 1.628-1.5h6.372v4h4v3h-5.882l-4-2h-2.118z"/></svg>