<?xml version="1.0" encoding="UTF-8"?>
<svg xmlns="http://www.w3.org/2000/svg" id="Layer_1" data-name="Layer 1" viewBox="0 0 24 24">
  <path d="M8.5,12c3.032,0,5.5-2.467,5.5-5.5S11.532,1,8.5,1,3,3.467,3,6.5s2.468,5.5,5.5,5.5Zm0-10c2.481,0,4.5,2.019,4.5,4.5s-2.019,4.5-4.5,4.5-4.5-2.019-4.5-4.5S6.019,2,8.5,2Zm11.26,12.802l4.24,8.075v1.123H14.104l-.31-1h9.142l-4.061-7.733c-.572-1.09-1.691-1.767-2.922-1.767-.078,.01-.865,.151-5.768,1.202-.761,.164-1.43,.566-1.935,1.164l-5.174,5.724,6.382-4.117,2.401,6.527h-1.066l-1.844-5.011L1.387,24H.059l1.949-11.086,.984,.173-1.505,8.734,6-6.599c.639-.758,1.522-1.289,2.488-1.497,5.712-1.225,5.878-1.225,5.978-1.225,1.604,0,3.062,.882,3.807,2.302Zm.907-6.223l.833-1.667,.833,1.667,1.667,.833-1.667,.833-.833,1.667-.833-1.667-1.667-.833,1.667-.833Zm-2.634-1.71l1.123-2.246,2.245-1.123-2.245-1.123L18.032,.132l-1.123,2.246-2.245,1.123,2.245,1.123,1.123,2.246Zm-.377-3.746l.377-.754,.377,.754,.755,.377-.755,.377-.377,.754-.377-.754-.755-.377,.755-.377Z"/>
</svg>
