<svg id="Layer_1" viewBox="0 0 24 24" xmlns="http://www.w3.org/2000/svg" data-name="Layer 1"><path d="m3 2.5c0-.827.673-1.5 1.5-1.5h9.5v7h7v2h1v-2.707l-7.293-7.293h-10.207c-1.378 0-2.5 1.122-2.5 2.5v2.19l1-.328v-1.861zm12-.793 5.293 5.293h-5.293zm-5.029 13.293h4.665l-1 1h-4.421c.273-.31.528-.643.756-1zm13.297-2.268c-.974-.974-2.56-.976-3.535 0l-7.732 7.732v3.536h3.535l7.732-7.732c.97-.929.97-2.606 0-3.535zm-.707 2.829-7.439 7.439h-2.121v-2.122l7.439-7.439c.584-.585 1.537-.585 2.121 0 .582.558.582 1.563 0 2.121zm-19.561 7.439h7v1h-8v-6.086c.361.243.704.451 1 .617v4.47zm1.5-5.936c1.441-.757 4.442-2.497 4.5-5.415v-3.256c0-.563-.359-1.06-.894-1.235l-3.606-1.185-3.606 1.185c-.535.176-.894.672-.894 1.235v3.257c.059 2.918 3.058 4.657 4.5 5.415zm-3.5-5.414v-3.257c0-.13.083-.244.207-.285l3.293-1.082 3.293 1.082c.124.041.207.155.207.285v3.256c0 2.106-2.439 3.692-3.5 4.282-1.061-.59-3.5-2.176-3.5-4.282zm16 1.35h-6v-1h6z"/></svg>