<svg id="Layer_1" viewBox="0 0 24 24" xmlns="http://www.w3.org/2000/svg" data-name="Layer 1"><path d="m1 21.5c0-.827.673-1.5 1.5-1.5h6.5v-1h-4v-18h13.5c.276 0 .5.224.5.5v8.5h1v-8.5c0-.827-.673-1.5-1.5-1.5h-16c-1.378 0-2.5 1.122-2.5 2.5v19c0 1.378 1.122 2.5 2.5 2.5h9.5v-1h-9.5c-.827 0-1.5-.673-1.5-1.5zm1.5-20.5h1.5v18h-1.5c-.565 0-1.081.195-1.5.513v-17.013c0-.827.673-1.5 1.5-1.5zm19.853 13h-4.353v-2h-1v2h-4.36l-1.64 5c0 1.103.897 2 2 2s2-.897 2-2c0-.095 0-.337-1.292-4h3.292v8h-3v1h7v-1h-3v-8h3.306l-1.306 4c0 1.103.897 2 2 2s2-.897 2-2c0-.1-1.647-5-1.647-5zm-8.353 5h-1.973l.986-2.957c.479 1.374.951 2.766.987 2.957zm8.013-2.957c.479 1.374.951 2.766.987 2.957h-1.973z"/></svg>