<svg id="Layer_1" viewBox="0 0 24 24" xmlns="http://www.w3.org/2000/svg" data-name="Layer 1"><path d="m8 5c0 .552-.448 1-1 1s-1-.448-1-1 .448-1 1-1 1 .448 1 1zm5 1c0 2.157-1.142 4.119-3 5.191v9.442c0 .598-.242 1.183-.664 1.604l-1.357 1.357c-.27.27-.625.404-.979.404s-.708-.135-.979-.404l-1.357-1.357c-.422-.422-.664-1.007-.664-1.604v-1.341l1.668-1.668-1.875-1.875 1.875-1.875-1.668-1.668v-1.023c-1.858-1.073-3-3.032-3-5.184 0-3.308 2.691-5.999 6-5.999s6 2.691 6 6zm-1 0c0-2.757-2.243-5-5-5s-5 2.243-5 5c-.009 1.988 1.187 3.76 3 4.581v1.212l2.082 2.082-1.875 1.875 1.875 1.875-2.082 2.082v.927c0 .334.135.66.371.896l1.357 1.357c.149.148.393.148.543 0l1.357-1.357c.236-.235.371-.562.371-.896v-10.045c1.814-.819 3.009-2.594 3-4.589zm11 16c0 1.103-.897 2-2 2s-2-.897-2-2c0-.929.64-1.705 1.5-1.929v-3.071h-8.5v-1h9.5v4.071c.86.224 1.5 1 1.5 1.929zm-1 0c0-.552-.449-1-1-1s-1 .448-1 1 .449 1 1 1 1-.448 1-1zm1-10c0 1.103-.897 2-2 2-.929 0-1.705-.64-1.929-1.5h-7.071v-1h7.071c.224-.86 1-1.5 1.929-1.5 1.103 0 2 .897 2 2zm-1 0c0-.552-.449-1-1-1s-1 .448-1 1 .449 1 1 1 1-.448 1-1zm-.5-4h-6.762c.084-.326.151-.659.193-1h5.569v-3.071c-.86-.224-1.5-1-1.5-1.929 0-1.103.897-2 2-2s2 .897 2 2c0 .929-.64 1.705-1.5 1.929zm-.5-5c.551 0 1-.448 1-1s-.449-1-1-1-1 .448-1 1 .449 1 1 1z"/></svg>