<svg id="Layer_1" viewBox="0 0 24 24" xmlns="http://www.w3.org/2000/svg" data-name="Layer 1"><path d="m24 0h-24v1h1v14.5c0 1.378 1.122 2.5 2.5 2.5h8v2.071c-.86.224-1.5 1-1.5 1.929 0 1.103.897 2 2 2s2-.897 2-2c0-.929-.64-1.705-1.5-1.929v-2.071h8c1.378 0 2.5-1.122 2.5-2.5v-14.5h1zm-11 22c0 .551-.449 1-1 1s-1-.449-1-1 .449-1 1-1 1 .449 1 1zm9-6.5c0 .827-.673 1.5-1.5 1.5h-17c-.827 0-1.5-.673-1.5-1.5v-14.5h20zm-4-8.5c0-1.103-.897-2-2-2h-3.341l-1.409-1h-3.25c-1.103 0-2 .897-2 2v8h12zm-10-2h2.932l1.409 1h3.659c.551 0 1 .449 1 1h-10v-1c0-.551.449-1 1-1zm-1 8v-5h10v5z"/></svg>