<svg id="Layer_1" viewBox="0 0 24 24" xmlns="http://www.w3.org/2000/svg" data-name="Layer 1"><path d="m15 21.05 1 .417c.019 1.39-1.109 2.534-2.5 2.533h-11c-1.379 0-2.5-1.121-2.5-2.5v-21.5h16v8.104c-.347.076-.681.196-1 .358v-7.462h-14v16h8.188c.258.227.891.796 1.155 1h-9.343v3.5c0 .827.673 1.5 1.5 1.5h11c.827 0 1.5-.673 1.5-1.5zm-5-.05v-1h-4v1zm-2-14c1.103 0 2 .897 2 2s-.897 2-2 2-2-.897-2-2 .897-2 2-2zm0 1c-.552 0-1 .448-1 1s.448 1 1 1 1-.448 1-1-.448-1-1-1zm4.412-3.334-1.516.892c-.408-.34-.882-.606-1.396-.786v-1.771h-3v1.771c-.515.18-.988.446-1.396.786l-1.516-.892-1.521 2.587 1.526.896c-.063.3-.094.576-.094.851s.03.551.094.851l-1.526.896 1.521 2.587 1.516-.892c.408.34.882.606 1.396.786v1.771h3v-1.771c.515-.18.988-.446 1.396-.786l.34.2c.229-.253.454-.508.668-.767l-1.153-.678c-.576.664-1.37 1.104-2.252 1.274v1.528h-1v-1.528c-.883-.17-1.676-.61-2.252-1.274l-1.305.768-.507-.862 1.32-.775c-.127-.417-.27-.95-.257-1.327-.013-.376.13-.911.257-1.327l-1.32-.775.507-.862 1.305.768c.576-.664 1.37-1.104 2.252-1.274v-1.528h1v1.528c.883.17 1.676.61 2.252 1.274l1.305-.768.507.862-1.32.775c.127.417.27.95.257 1.327.013.376-.13.911-.257 1.327l1.289.757c.205-.272.394-.546.579-.819l-.705-.414c.063-.3.094-.576.094-.851s-.03-.551-.094-.851l1.526-.896-1.521-2.587zm10.54 10.135c-.568 2.583-1.876 4.515-3.032 5.966-.987-.279-2.022-.662-3.023-1.093.34-.763.758-1.562.948-2.344-.968.79-1.818 1.246-2.624 1.556-1.617-.889-3.15-1.965-4.329-3.05 1.569-1.44 3.037-3.123 4.114-4.793.654-1.002 1.936-1.334 2.977-.77l1.435.773 3.635-7.27.895.447-3.648 7.297 1.501.808c.885.475 1.359 1.491 1.152 2.473zm-1.625-1.592-3.818-2.056c-.581-.314-1.297-.127-1.664.436-.941 1.449-2.133 2.896-3.466 4.21.814.66 1.875 1.383 2.91 1.978.812-.366 1.963-1.097 2.834-2.104l.878-1.015v1.342c0 1.339-.34 2.211-.762 3.144.448.175.888.331 1.314.467.906-1.198 1.987-2.97 2.421-5.017.115-.549-.15-1.118-.646-1.385z"/></svg>