<svg id="Layer_1" viewBox="0 0 24 24" xmlns="http://www.w3.org/2000/svg" data-name="Layer 1"><path d="m0 24h24v-12h-24zm8.5-1v-10h7v10zm14.5 0h-6.5v-10h6.5zm-22-10h6.5v10h-6.5zm23-5v2h-1v-2c0-.551-.448-1-1-1h-4.5c-.552 0-1 .449-1 1v2h-1v-2c0-.551-.448-1-1-1h-5c-.552 0-1 .449-1 1v2h-1v-2c0-.551-.448-1-1-1h-4.5c-.552 0-1 .449-1 1v2h-1v-2c0-1.103.897-2 2-2h4.5c.6 0 1.133.271 1.5.691.367-.42.9-.691 1.5-.691h5c.6 0 1.133.271 1.5.691.367-.42.9-.691 1.5-.691h4.5c1.103 0 2 .897 2 2zm-19.5-3c1.379 0 2.5-1.122 2.5-2.5s-1.121-2.5-2.5-2.5-2.5 1.122-2.5 2.5 1.121 2.5 2.5 2.5zm0-4c.827 0 1.5.673 1.5 1.5s-.673 1.5-1.5 1.5-1.5-.673-1.5-1.5.673-1.5 1.5-1.5zm7.5 4c1.379 0 2.5-1.122 2.5-2.5s-1.121-2.5-2.5-2.5-2.5 1.122-2.5 2.5 1.121 2.5 2.5 2.5zm0-4c.827 0 1.5.673 1.5 1.5s-.673 1.5-1.5 1.5-1.5-.673-1.5-1.5.673-1.5 1.5-1.5zm7.5 4c1.379 0 2.5-1.122 2.5-2.5s-1.121-2.5-2.5-2.5-2.5 1.122-2.5 2.5 1.121 2.5 2.5 2.5zm0-4c.827 0 1.5.673 1.5 1.5s-.673 1.5-1.5 1.5-1.5-.673-1.5-1.5.673-1.5 1.5-1.5z"/></svg>