<svg id="Layer_1" viewBox="0 0 24 24" xmlns="http://www.w3.org/2000/svg" data-name="Layer 1"><path d="m14.5 5c1.378 0 2.5-1.121 2.5-2.5s-1.122-2.5-2.5-2.5-2.5 1.121-2.5 2.5 1.122 2.5 2.5 2.5zm0-4c.827 0 1.5.673 1.5 1.5s-.673 1.5-1.5 1.5-1.5-.673-1.5-1.5.673-1.5 1.5-1.5zm7.5 19c-1.103 0-2 .897-2 2s.897 2 2 2 2-.897 2-2-.897-2-2-2zm0 3c-.551 0-1-.448-1-1s.449-1 1-1 1 .448 1 1-.449 1-1 1zm-10.228-7.861 3.314-6.343 7.428 3.578.434-.9-15.625-7.528-3.005-3.868-.79.613 3.149 4.054 3.973 1.914-2.448 4.689c-.46 1.124-.05 2.412.94 3.036l4.99 3.819 2.41 5.498.916-.402-2.513-5.732zm-2.664-3.37 2.443-4.676 2.633 1.268-3.219 6.161-1.252-.958c-.616-.39-.862-1.162-.605-1.795zm-1.12 4.25.011.009-3.173 2.565-4.788-3.516.603-.8 4.193 3.063 2.4-1.972c.226.239.471.463.754.65z"/></svg>