<?xml version="1.0" encoding="UTF-8"?>
<svg xmlns="http://www.w3.org/2000/svg" id="Layer_1" data-name="Layer 1" viewBox="0 0 24 24">
  <path d="M23,12.24c.361-.29,.694-.613,1-.96v8.721H12.5v3h5.5v1H6v-1h5.5v-3H0V4c0-1.103,.897-2,2-2H11.079c-.186,.321-.352,.653-.492,1H2c-.552,0-1,.449-1,1v15H23v-6.76ZM4.5,8.5c0-1.378,1.121-2.5,2.5-2.5s2.5,1.122,2.5,2.5-1.121,2.5-2.5,2.5-2.5-1.122-2.5-2.5Zm1,0c0,.827,.673,1.5,1.5,1.5s1.5-.673,1.5-1.5-.673-1.5-1.5-1.5-1.5,.673-1.5,1.5Zm5.5,7.5v-2c0-1.103-.897-2-2-2H5c-1.103,0-2,.897-2,2v2h1v-2c0-.552,.448-1,1-1h4c.552,0,1,.448,1,1v2h1ZM21.529,6l-5.529,3.072V2.928l5.529,3.072Zm-4.529,1.373l2.471-1.373-2.471-1.373v2.745Zm-5-1.373c0-3.309,2.691-6,6-6s6,2.691,6,6-2.691,6-6,6-6-2.691-6-6Zm1,0c0,2.757,2.243,5,5,5s5-2.243,5-5-2.243-5-5-5-5,2.243-5,5Z"/>
</svg>
