<svg id="Layer_1" viewBox="0 0 24 24" xmlns="http://www.w3.org/2000/svg" data-name="Layer 1"><path d="m23.864 13.366c-.447-.994-1.56-3.124-3.521-4.986l2.673-3.338-.781-.625-2.642 3.3c-.842-.69-1.821-1.307-2.939-1.782l1.319-3.859-.945-.323-1.308 3.827c-.972-.316-2.048-.507-3.219-.553v-4.027h-1v4.027c-1.171.046-2.247.236-3.219.552l-1.308-3.827-.946.323 1.32 3.859c-1.117.475-2.096 1.092-2.939 1.782l-2.644-3.299-.78.625 2.673 3.338c-1.962 1.863-3.075 3.993-3.522 4.987-.181.403-.181.865 0 1.269.884 1.962 4.353 8.364 11.864 8.364s10.98-6.403 11.864-8.367c.181-.402.181-.863 0-1.267zm-.912.857c-.821 1.824-4.039 7.776-10.952 7.776s-10.13-5.95-10.952-7.773c-.064-.143-.064-.306 0-.449.821-1.824 4.039-7.777 10.952-7.777s10.131 5.953 10.952 7.777c.063.142.063.305 0 .447zm-10.952-5.224c-2.757 0-5 2.243-5 5s2.243 5 5 5 5-2.243 5-5-2.243-5-5-5zm0 9c-2.206 0-4-1.794-4-4s1.794-4 4-4 4 1.794 4 4-1.794 4-4 4z"/></svg>