<svg id="Layer_1" viewBox="0 0 24 24" xmlns="http://www.w3.org/2000/svg" data-name="Layer 1"><path d="m12 4c1.103 0 2-.897 2-2s-.897-2-2-2-2 .897-2 2 .897 2 2 2zm0-3c.552 0 1 .449 1 1s-.448 1-1 1-1-.449-1-1 .448-1 1-1zm9 10h-.767l-5.302-6.296c-.227.246-.479.466-.761.649l4.755 5.647h-13.85l4.755-5.647c-.282-.183-.534-.403-.761-.649l-5.302 6.296h-.767c-1.654 0-3 1.346-3 3v10h24v-10c0-1.654-1.346-3-3-3zm2 12h-22v-9c0-1.103.897-2 2-2h18c1.103 0 2 .897 2 2zm-7-9h2v1h-1v2h1v1h-1v2h1v1h-2zm-6 0c-.827 0-1.5.673-1.5 1.5v4c0 .827.673 1.5 1.5 1.5s1.5-.673 1.5-1.5v-4c0-.827-.673-1.5-1.5-1.5zm.5 5.5c0 .276-.225.5-.5.5s-.5-.224-.5-.5v-4c0-.276.225-.5.5-.5s.5.224.5.5zm-5.5-4v.5h-1v-.5c0-.276-.225-.5-.5-.5s-.5.224-.5.5v4c0 .276.225.5.5.5s.5-.224.5-.5v-.5h1v.5c0 .827-.673 1.5-1.5 1.5s-1.5-.673-1.5-1.5v-4c0-.827.673-1.5 1.5-1.5s1.5.673 1.5 1.5zm15.5-1.5h-1.5v7h1.5c.827 0 1.5-.673 1.5-1.5v-4c0-.827-.673-1.5-1.5-1.5zm.5 5.5c0 .276-.225.5-.5.5h-.5v-5h.5c.275 0 .5.224.5.5zm-14 .5h1v1h-2v-7h1zm6.35-4.48c0 .591.31.912.813 1.386.528.496 1.185 1.112 1.185 2.264 0 .88-.635 1.831-1.661 1.831-.613 0-1.191-.3-1.586-.823l.799-.603c.207.274.486.426.787.426.396 0 .661-.43.661-.831 0-.719-.384-1.079-.869-1.535-.503-.473-1.129-1.061-1.129-2.114 0-.833.696-1.523 1.521-1.521.52 0 1.059.299 1.513.845l-.768.64c-.257-.308-.549-.462-.763-.484-.217 0-.504.198-.504.52z"/></svg>