<svg id="Layer_1" viewBox="0 0 24 24" xmlns="http://www.w3.org/2000/svg" data-name="Layer 1"><path d="m24 20c-4.203 0-8.311-1.626-11.7-4.249 1.587-1.529 3.566-2.23 5.484-2.903 1.696-.595 3.298-1.157 4.399-2.258 2.418-2.419 2.418-6.354 0-8.773-2.419-2.419-6.354-2.418-8.773 0-1.102 1.102-1.664 2.703-2.258 4.399-.673 1.918-1.373 3.897-2.903 5.484-2.623-3.389-4.249-7.497-4.249-11.7h-1c0 3.539 1.102 7.013 2.958 10.086-3.366.506-5.958 3.409-5.958 6.914 0 3.859 3.14 7 7 7 3.505 0 6.408-2.592 6.914-5.958 3.074 1.855 6.547 2.958 10.086 2.958zm-11.905-13.453c.556-1.585 1.081-3.083 2.021-4.023 2.029-2.028 5.33-2.028 7.359 0 2.028 2.029 2.028 5.331 0 7.359-.94.94-2.438 1.465-4.023 2.021-1.959.687-4.177 1.468-5.938 3.21-.946-.802-1.827-1.684-2.63-2.63 1.742-1.76 2.522-3.979 3.21-5.938zm-5.095 16.453c-3.309 0-6-2.691-6-6 0-3.158 2.454-5.748 5.554-5.977 1.694 2.521 3.902 4.729 6.423 6.423-.23 3.1-2.819 5.554-5.977 5.554z"/></svg>