<svg id="Layer_1" viewBox="0 0 24 24" xmlns="http://www.w3.org/2000/svg" data-name="Layer 1"><path d="m12 4h-3v-1h3zm2 3h6v-1h-6zm6-4h-6v1h6zm-5 9.568c0-1.274-.896-2.38-2.083-2.572-1.483-.278-2.95.962-2.917 2.466v7.601l-1.826-1.454-.002.002c-1.008-.912-2.568-.854-3.498.143-.941 1.007-.894 2.588.106 3.524l1.841 1.722h1.44l-2.593-2.446c-.599-.562-.629-1.514-.064-2.118.562-.603 1.509-.635 2.115-.072.011.01 3.479 2.773 3.479 2.773v-9.675c-.019-.905.862-1.651 1.756-1.479.709.115 1.244.797 1.244 1.586v5.24l8 3v3.191h1v-3.885l-8-3v-4.547zm-6-5.568h3v-1h-3zm-2-1h-3v1h3zm-3 4h2v-1h-2zm16 0v-1h-2v1zm-13-7h-3v1h3zm14.5-3h-19c-1.378 0-2.5 1.121-2.5 2.5v10.5h8v-1h-7v-9.5c0-.827.673-1.5 1.5-1.5h19c.827 0 1.5.673 1.5 1.5v9.5h-6v1h7v-10.5c0-1.379-1.121-2.5-2.5-2.5z"/></svg>