<?xml version="1.0" encoding="UTF-8"?>
<svg xmlns="http://www.w3.org/2000/svg" id="Layer_1" data-name="Layer 1" viewBox="0 0 24 24">
  <path d="m22.119,3.595c-.56-.476-1.305-.679-2.035-.561-.405.066-.771.244-1.084.492v-.026c0-1.379-1.121-2.5-2.5-2.5-.64,0-1.218.248-1.66.645-.351-.957-1.263-1.645-2.34-1.645-1.379,0-2.5,1.121-2.5,2.5v.026c-.313-.248-.679-.426-1.084-.492-.729-.12-1.476.085-2.035.561-.56.477-.881,1.171-.881,1.905v10.601l-1.796-1.428c-1.008-.94-2.589-.886-3.529.119-.941,1.007-.89,2.593.111,3.53l6.926,6.678h15.288V5.5c0-.734-.321-1.429-.881-1.905Zm-.119,8.405v5.893l-3.218-2.976,3.085-2.917h.132Zm-1.756-7.979c.451-.071.886.046,1.227.336.337.286.529.703.529,1.144v5.5h-3v-5.393c0-.789.535-1.471,1.244-1.587Zm-3.744-2.021c.827,0,1.5.673,1.5,1.5v7.5h-3V3.5c0-.827.673-1.5,1.5-1.5Zm-2.65,10l-6.85,6.337v-6.337h6.85Zm-2.85-9.5c0-.827.673-1.5,1.5-1.5s1.5.673,1.5,1.5v8.5h-3V2.5Zm-3.471.856c.341-.29.776-.406,1.227-.336.709.116,1.244.798,1.244,1.587v6.393h-3v-6.5c0-.44.192-.857.529-1.144ZM1.405,14.476c.273-.293.644-.461,1.043-.475.421-.003.781.13,1.103.429l2.449,1.95v4.58l-4.525-4.363c-.604-.565-.635-1.517-.069-2.121Zm5.595,7.448v-2.224l8.323-7.7h5.089l-11.636,11h-.659l-1.116-1.076Zm7.553-3.009l4.322,4.086h-8.643l4.322-4.086Zm5.778,4.086l-5.05-4.774,2.772-2.621,3.946,3.651v3.744h-1.669Z"/>
</svg>
