<?xml version="1.0" encoding="UTF-8"?>
<svg xmlns="http://www.w3.org/2000/svg" id="Layer_1" data-name="Layer 1" viewBox="0 0 24 24">
  <path d="M21,21.167v2.833h-1v-2.833c0-2.259-1.832-4.167-4-4.167v7h-1v-6.082c-.72,.544-1.744,1.082-3,1.082s-2.28-.538-3-1.082v6.082h-1v-7c-2.168,0-4,1.908-4,4.167v2.833h-1v-2.833c0-2.849,2.243-5.167,5-5.167h.498c.22,.229,1.286,1.918,3.502,2,2.217-.084,3.28-1.769,3.501-1.999h.499c2.757,0,5,2.317,5,5.166ZM6.004,9.089c-.405-.944-1.004-2.521-1.004-4.797C5,2,7.5,0,12,0c3.501,0,7.001,1.472,7,4.292,0,2.275-.599,3.853-1.005,4.798-.049,3.267-2.717,5.91-5.995,5.91s-5.948-2.644-5.996-5.911Zm10.946,.402c-1.925-.969-3.499-1.819-4.95-2.762-1.493,.973-3.082,1.821-4.95,2.762,.251,2.524,2.362,4.509,4.95,4.509s4.7-1.985,4.95-4.51ZM7.683,1.961c3.157,3.039,5.545,4.528,9.484,6.521,.366-.892,.833-2.281,.833-4.189,0-2.139-3.092-3.292-6-3.292-1.553,0-3.159,.329-4.317,.961Zm-1.683,2.331c0,1.91,.467,3.299,.833,4.189,1.593-.806,2.972-1.546,4.265-2.362-1.396-.981-2.734-2.103-4.252-3.575-.528,.478-.846,1.062-.846,1.748Z"/>
</svg>
