<?xml version="1.0" encoding="UTF-8"?>
<svg xmlns="http://www.w3.org/2000/svg" id="Layer_1" data-name="Layer 1" viewBox="0 0 24 24">
  <path d="m21.381,16.503c-.159-.039-1.712-.364-2.381-.525v-1.888l-5-1V5h-2V0h-1v5H3.035V0h-1v5H.035v7.947l-.029.027.029.032v4.494c0,3.584,2.916,6.5,6.5,6.5h12.465v-2h2.218c1.523,0,2.771-1.234,2.782-2.752.009-1.325-.945-2.326-2.619-2.745Zm-3.381-1.593v4.185l-4.926-4.503.582-.551,4.344.869Zm-5-7.626L1.082,18.187c-.028-.226-.048-.454-.048-.687v-4.112l8.061-7.376-.011-.012h3.915v1.285ZM1.035,6h6.592L1.035,12.032v-6.032Zm.31,13.303l11.655-10.663v4.645L3.656,22.137l.091.096c-1.112-.657-1.971-1.693-2.403-2.93Zm3.239,3.333l4.336-4.108,4.816,4.472h-7.201c-.688,0-1.344-.133-1.951-.364Zm10.621.364l-5.558-5.161,2.699-2.557,5.654,5.168v2.55h-2.795Zm6.013-2h-2.218v-3.993c.584.138,1.989.429,2.139.467.699.175,1.869.637,1.861,1.767-.007.954-.823,1.76-1.782,1.76Z"/>
</svg>
