<svg id="Layer_1" viewBox="0 0 24 24" xmlns="http://www.w3.org/2000/svg" data-name="Layer 1"><path d="m18 3.051v-3.051h-1v3h-10v-3h-1v3.051c-1.14.232-2 1.242-2 2.449v13c0 1.208.86 2.217 2 2.449v3.051h1v-3h10v3h1v-3.051c1.14-.232 2-1.242 2-2.449v-13c0-1.208-.86-2.217-2-2.449zm1 15.449c0 .827-.673 1.5-1.5 1.5h-11c-.827 0-1.5-.673-1.5-1.5v-13c0-.827.673-1.5 1.5-1.5h11c.827 0 1.5.673 1.5 1.5zm-3.492-12.707-3.193 3.193 1.743 1.742c-.707 1.579-1.798 2.674-3.325 3.333l-1.747-1.746-3.193 3.192 1.616 1.616c.564.564 1.327.876 2.148.876 3.709 0 8.443-4.734 8.443-8.443 0-.821-.311-1.584-.875-2.147zm-5.951 11.207c-.554 0-1.065-.207-1.44-.583l-.909-.909 1.779-1.778 1.503 1.503c2.262-.765 3.914-2.425 4.747-4.739l-1.507-1.507 1.779-1.779.91.909c.375.375.583.887.583 1.44 0 3.2-4.244 7.443-7.443 7.443z"/></svg>