<?xml version="1.0" encoding="UTF-8"?>
<svg xmlns="http://www.w3.org/2000/svg" id="Layer_1" data-name="Layer 1" viewBox="0 0 24 24">
  <path d="M5.57,4.755L3.858,1.868l.86-.51,1.712,2.887-.86,.51Zm16.466,7.244c-.116,.377-3.532,6.828-10.036,7.001-6.787-.172-9.905-6.62-10.036-6.997,.115-.378,3.516-6.83,10.036-7.003,6.702,.173,9.911,6.623,10.036,6.999Zm-1.106-.008c-.595-1.042-3.709-5.99-8.93-5.99-5.044,0-8.282,4.929-8.93,6.011,.591,1.05,3.677,5.989,8.93,5.989,5.039,0,8.279-4.925,8.93-6.01Zm-4.93,.01c0,2.206-1.794,4-4,4s-4-1.794-4-4,1.794-4,4-4,4,1.794,4,4Zm-1,0c0-1.654-1.346-3-3-3s-3,1.346-3,3,1.346,3,3,3,3-1.346,3-3ZM12.5,0h-1V3h1V0Zm7.642,1.868l-.86-.51-1.712,2.887,.86,.51,1.712-2.887Zm-2.572,17.887l1.712,2.887,.86-.51-1.712-2.887-.86,.51Zm-6.07,4.245h1v-3h-1v3Zm-7.642-1.868l.86,.51,1.712-2.887-.86-.51-1.712,2.887Z"/>
</svg>
