<svg id="Layer_1" viewBox="0 0 24 24" xmlns="http://www.w3.org/2000/svg" data-name="Layer 1"><path d="m22 13h-7c-1.103 0-2 .897-2 2v4.821l-1.775 2.167c-.274.386-.3.896-.066 1.331.227.423.647.682 1.09.682h.037 11.714v-9.001c0-1.103-.897-2-2-2zm1 10h-10.73c-.154.006-.21-.116-.23-.153s-.079-.167-.021-.251l1.981-2.417v-5.179c0-.552.448-1 1-1h7c.552 0 1 .448 1 1zm-1-23h-9.698c-.501-.027-.911.247-1.144.681-.233.435-.208.945.087 1.357l1.755 2.141v6.821h11v-9c0-1.103-.897-2-2-2zm1 10h-9v-6.178l-1.961-2.39c-.079-.111-.02-.241 0-.278s.089-.159.247-.153h9.714c.552 0 1 .448 1 1zm-4 6h3v1h-1.042c-.1.767-.45 2.266-1.612 3.426.674.347 1.536.574 2.655.574v1c-1.523 0-2.654-.36-3.501-.894-.848.533-1.978.894-3.499.894v-1c1.118 0 1.976-.228 2.65-.572-.763-.763-1.175-1.674-1.394-2.428h1.028c.21.605.588 1.286 1.224 1.849 1.038-.92 1.358-2.163 1.452-2.849h-4.959v-1h3v-1h1v1zm-.559-14c-.692-.022-1.32.51-1.455 1.196l-1.33 5.804h1.026l.458-2h2.625l.472 2h1.027l-1.38-5.853c-.156-.672-.754-1.147-1.443-1.147zm-1.071 4 .591-2.578c.065-.28.237-.424.481-.422.225 0 .418.153.47.376l.619 2.624h-2.16zm-16.37 11h10v1h-10v3.5c0 .827.673 1.5 1.5 1.5h6.515c.032.34.122.676.262 1h-6.777c-1.378 0-2.5-1.121-2.5-2.5v-21.5h9.277c-.14.324-.23.66-.262 1h-8.015zm4 4v-1h4v1z"/></svg>