<svg id="Layer_1" viewBox="0 0 24 24" xmlns="http://www.w3.org/2000/svg" data-name="Layer 1"><path d="m17.891 8.479c.673-.625 1.111-1.508 1.109-2.838.045-2.021-1.823-3.733-3.822-3.641-1.392.049-2.535.841-3.172 2.097-.633-1.248-1.783-2.048-3.183-2.097-2.011-.091-3.862 1.619-3.822 3.641-.001 1.331.437 2.213 1.109 2.838-3.724-.56-5.056-.882-6.109-1.097v10.182c.782-.091 4.756-.578 9-.934v7.384l3-2.861 3 2.861v-7.384c4.255.357 8.206.842 9 .934v-10.182s-3.159.671-6.109 1.097zm-2.678-5.479c1.436-.085 2.825 1.182 2.787 2.641.001 1.887-.882 2.703-3.506 3.235-.009.002-.022.003-.032.005-.681.058-1.34.095-1.963.11l-.003-3.148c.199-1.676 1.265-2.792 2.716-2.842zm-5.71 5.875c-2.621-.531-3.504-1.348-3.503-3.234-.034-1.462 1.34-2.721 2.787-2.641 1.451.051 2.518 1.166 2.713 2.784v3.206c-.621-.014-1.278-.052-1.956-.109-.013-.003-.029-.004-.042-.006zm-8.503 7.563v-7.825c1.364.275 4.781.924 8 1.226v5.786c-2.928.237-6.615.652-8 .813zm13 5.239-2-1.906-2 1.906v-11.728c.642.061 1.499.067 1.999.052.499.017 1.359.01 2.001-.051v11.728zm9-5.239c-1.385-.161-5.072-.576-8-.813v-5.786c3.219-.302 6.636-.951 8-1.226z"/></svg>