<svg id="Layer_1" viewBox="0 0 24 24" xmlns="http://www.w3.org/2000/svg" data-name="Layer 1"><path d="m23.857.52-.069-.308-.308-.07c-.069-.016-1.747-.382-5.185.127-1.638.315-3.417 1.388-4.285 1.965l-.729-1.88-.471.19c-.097.039-2.155.889-3.746 2.951l-.579-1.608c-.499.428-1.062.91-1.519 1.375-1.022 1.022-2.199 2.961-2.429 5.275l-1.371-.716-.19.548c-1.635 4.72-.781 11.147-.569 12.516l-2.395 2.396.707.707 2.397-2.397c.744.114 2.932.408 5.525.408 2.251 0 4.808-.222 6.99-.978l.548-.19-.717-1.371c2.312-.23 4.252-1.406 5.276-2.43.462-.457.946-1.021 1.374-1.518l-1.61-.58c2.062-1.605 2.897-3.724 2.937-3.824l.185-.479-1.847-.656c.578-.875 1.642-2.648 1.956-4.292.507-3.416.142-5.093.125-5.163zm-1.11 4.996c-.384 2.001-2.138 4.39-2.156 4.414l-.401.542 2.097.745c-.405.783-1.39 2.377-3.128 3.431l-.896.544 2.125.765c-.117.125-.236.248-.357.369-1.005 1.004-3.015 2.176-5.372 2.176h-.825l.916 1.754c-3.843 1.136-8.716.706-10.746.45l13.272-13.275-.707-.707-13.274 13.275c-.259-2.031-.691-6.894.45-10.748l1.754.916v-.825c0-2.359 1.172-4.369 2.176-5.373.121-.121.244-.24.369-.358l.765 2.126.543-.896c1.054-1.739 2.612-2.734 3.376-3.146l.815 2.103.527-.39c.023-.018 2.411-1.771 4.393-2.153 2.37-.352 3.853-.259 4.468-.187.072.615.164 2.092-.185 4.447z"/></svg>