<svg id="Layer_1" viewBox="0 0 24 24" xmlns="http://www.w3.org/2000/svg" data-name="Layer 1"><path d="m22.287 11.498-3.787-1.256-3.787 1.256c-1.025.34-1.713 1.293-1.713 2.373v3.542c.141 3.935 3.942 5.838 5.479 6.635 1.585-.665 5.375-2.212 5.521-6.635v-3.542c0-1.08-.688-2.034-1.713-2.373zm.713 5.915c0 3.467-3.409 5.109-4.453 5.53l-.023.009-.022-.011c-1.056-.528-4.501-2.487-4.501-5.528v-3.542c0-.647.413-1.22 1.028-1.424l3.472-1.151 3.472 1.151c.615.204 1.028.776 1.028 1.424v3.542zm-10.802 5.579c-.556-.558-2.717-2.857-4.075-5.992h2.877v-1h-3.268c-.439-1.247-.732-2.593-.732-4s.292-2.753.732-4h14.497c.194.495.361 1.005.482 1.531.392.118.774.289 1.114.501-.944-5.682-5.88-10.032-11.825-10.032-6.617 0-12 5.383-12 12s5.383 12 12 12c.802 0 1.585-.082 2.343-.233-.314-.264-.626-.553-.93-.868-.399.052-.805.084-1.215.093zm-4.075-15.992c1.229-2.839 3.117-4.991 3.878-5.789.769.804 2.667 2.96 3.889 5.789zm13.661 0h-4.815c-1.07-2.669-2.712-4.778-3.727-5.922 3.732.422 6.899 2.715 8.542 5.922zm-11.024-5.925c-1.019 1.144-2.664 3.257-3.731 5.925h-4.815c1.645-3.206 4.812-5.504 8.546-5.925zm-8.996 6.925h4.905c-.404 1.248-.669 2.589-.669 4s.265 2.752.669 4h-4.905c-.487-1.242-.764-2.588-.764-4s.277-2.758.764-4zm.45 9h4.815c1.067 2.669 2.712 4.781 3.731 5.925-3.734-.421-6.901-2.719-8.546-5.925z"/></svg>