<svg id="Layer_1" viewBox="0 0 24 24" xmlns="http://www.w3.org/2000/svg" data-name="Layer 1"><path d="m17.5 9c2.481 0 4.5-2.019 4.5-4.5s-2.019-4.5-4.5-4.5-4.5 2.019-4.5 4.5 2.019 4.5 4.5 4.5zm0-8c1.93 0 3.5 1.57 3.5 3.5s-1.57 3.5-3.5 3.5-3.5-1.57-3.5-3.5 1.57-3.5 3.5-3.5zm-10 12c2.481 0 4.5-2.019 4.5-4.5v-6.5l-2.25 2.51-2.25-2.51-2.25 2.51-2.25-2.51v6.5c0 2.481 2.019 4.5 4.5 4.5zm-3.5-8.387 1.25 1.395 2.25-2.51 2.25 2.51 1.25-1.395v2.387h-7zm0 3.387h7v.5c0 1.93-1.57 3.5-3.5 3.5s-3.5-1.57-3.5-3.5zm11 11.5v4.5h-1v-4.5c0-1.93-1.57-3.5-3.5-3.5h-6c-1.93 0-3.5 1.57-3.5 3.5v4.5h-1v-4.5c0-2.481 2.019-4.5 4.5-4.5h6c2.481 0 4.5 2.019 4.5 4.5zm9-4v4.5h-1v-4.5c0-1.93-1.57-3.5-3.5-3.5h-5.5v-1h5.5c2.481 0 4.5 2.019 4.5 4.5z"/></svg>