<svg id="Layer_1" viewBox="0 0 24 24" xmlns="http://www.w3.org/2000/svg" data-name="Layer 1"><path d="m17.5 11c-3.584 0-6.5 2.916-6.5 6.5s2.916 6.5 6.5 6.5 6.5-2.916 6.5-6.5-2.916-6.5-6.5-6.5zm0 12c-3.032 0-5.5-2.468-5.5-5.5s2.468-5.5 5.5-5.5 5.5 2.468 5.5 5.5-2.468 5.5-5.5 5.5zm.5-4h-1v-6h1zm.5 2c0 .552-.448 1-1 1s-1-.448-1-1 .448-1 1-1 1 .448 1 1zm3-15h-7.43l-1.346-1.303 4.394-2.197-5-2.5h-1.118v4.965l-1.07 1.035h-7.43c-1.379 0-2.5 1.122-2.5 2.5v15.5h12.028c-.362-.305-.696-.64-1.003-1h-10.025v-12h5.202l5.798-5.612 3.893 3.768c.42-.08.852-.124 1.292-.141l-2.083-2.016h6.397c.827 0 1.5.673 1.5 1.5v2.526c.36.306.695.641 1 1.003v-3.528c0-1.378-1.121-2.5-2.5-2.5zm-9.5-4.941 2.882 1.441-2.882 1.441zm-6.202 8.941h-4.798v-1.5c0-.827.673-1.5 1.5-1.5h6.397zm1.202 6h-3v-1h3zm-3 3h3v1h-3zm8-8c-.552 0-1-.448-1-1s.448-1 1-1 1 .448 1 1-.448 1-1 1z"/></svg>