<?xml version="1.0" encoding="UTF-8"?>
<svg xmlns="http://www.w3.org/2000/svg" id="Layer_1" data-name="Layer 1" viewBox="0 0 24 24">
  <path d="M21.5,5H2.5c-1.379,0-2.5,1.121-2.5,2.5v10.5H24V7.5c0-1.379-1.121-2.5-2.5-2.5Zm1.5,12H1V7.5c0-.827,.673-1.5,1.5-1.5H21.5c.827,0,1.5,.673,1.5,1.5v9.5Zm-2.12-3.856c0,1.314-1.124,2.003-2.234,2.003-1.168,0-2.263-.943-2.384-1.051l.664-.748c.251,.222,1.051,.799,1.72,.799,.458,0,1.234-.211,1.234-1.003,0-.541-.547-.835-1.448-1.253-.895-.415-2.007-.931-2.007-2.128,0-1.245,1.069-1.917,2.075-1.917,.925,0,2.008,.821,2.128,.915l-.613,.79c-.352-.272-1.074-.705-1.515-.705-.372,0-1.075,.191-1.075,.917,0,.521,.539,.809,1.428,1.221,.903,.42,2.027,.941,2.027,2.16Zm-7.63-5.144h-2.25v7h1v-2.5h1.25c1.24,0,2.25-1.01,2.25-2.25s-1.01-2.25-2.25-2.25Zm0,3.5h-1.25v-2.5h1.25c.689,0,1.25,.561,1.25,1.25s-.561,1.25-1.25,1.25Zm-4.25-3.5h1v7h-1v-7Zm-6,0h5v1h-2v6h-1v-6H3v-1Z"/>
</svg>
