<svg id="Layer_1" viewBox="0 0 24 24" xmlns="http://www.w3.org/2000/svg" data-name="Layer 1"><path d="m20.996 9.135v-6.135h-6.131l-2.865-2.861-2.865 2.861-6.135.004v6.135l-2.861 2.861 2.861 2.869.004 6.135 6.136-.004 2.86 2.861 2.868-2.861h6.132l-.004-6.135 2.865-2.865zm-.996 5.316v5.549h-5.55l-2.45 2.447-2.45-2.447h-5.55v-5.549l-2.447-2.451 2.447-2.451v-5.549h5.549l2.451-2.447 2.451 2.447h5.549v5.549l2.447 2.451zm-4.272-6.9.87-.445s-1.598-1.105-3.598-1.105c-3.309 0-6 2.691-6 6s2.691 6 6 6c2 0 3.598-1.105 3.598-1.105l-.87-.445c-1.683-.86-2.728-2.565-2.728-4.449s1.045-3.588 2.728-4.449zm-3.728 4.449c0 1.916.9 3.677 2.402 4.799-.453.134-.922.201-1.402.201-2.757 0-5-2.243-5-5s2.243-5 5-5c.479 0 .949.068 1.402.202-1.502 1.122-2.402 2.883-2.402 4.798z"/></svg>