<svg id="Layer_1" viewBox="0 0 24 24" xmlns="http://www.w3.org/2000/svg" data-name="Layer 1"><path d="m8 14h-8v-1h8zm-2 3h-6v1h6zm-6 5h4v-1h-4zm23.974-17.02-2.432 17.02h-15.542v-1h14.675l1.857-13h-7.313l-.286 2h-5.01l.286-2h-6.758l-.429 3h-1.01l.918-6.424c.21-1.468 1.486-2.576 2.97-2.576h15.489c1.543-.036 2.838 1.458 2.585 2.98zm-13.621 2.02.571-4h-5.025c-.989 0-1.84.738-1.979 1.717l-.326 2.283h6.758zm4.571-4h-2.99l-.857 6h2.99zm7.751 4 .309-2.161c.157-.939-.643-1.861-1.595-1.839h-5.455l-.571 4h7.313zm-8.93 10-.143 1h4.398l.143-1z"/></svg>