<?xml version="1.0" encoding="UTF-8"?>
<svg xmlns="http://www.w3.org/2000/svg" id="Layer_1" data-name="Layer 1" viewBox="0 0 24 24">
  <path d="M12,10c2.594,.036,2.594-4.036,0-4-2.594-.036-2.594,4.037,0,4Zm0-3c1.297-.018,1.297,2.018,0,2-1.297,.018-1.297-2.018,0-2Z"/>
  <path d="M22.48,12.688c2.575-1.605,1.125-7.365,.888-7.837-.606,.23-.572,.153-1.471,.659C22.581,2.729,16.946,.017,16.751-.015c-.258,.805-2.169,4.326,1.118,8.57,.074,.719,.149,1.405,.114,2.059l.014,.004c-.357,12.768-11.621,12.739-11.993,0l.014-.004c-.035-.654,.039-1.34,.113-2.059C9.418,4.304,7.507,.798,7.249-.015c-.184,.025-5.837,2.749-5.146,5.524-.899-.505-.865-.428-1.471-.658-.237,.462-1.686,6.24,.888,7.837-1.008,.263-.969,.299-1.512,.52,.229,.69,.516,2.786,3.095,4.619-1.268,.964-1.308,1.161-1.773,1.71,.57,.497,1.741,1.958,4.675,2.411-.422,1.052-.36,1.007-.506,1.625,2.026,.7,4.925,.819,6.501-1.143,1.576,1.963,4.477,1.842,6.502,1.143-.146-.617-.085-.574-.507-1.625,2.938-.455,4.1-1.91,4.675-2.411-.464-.548-.506-.748-1.774-1.71,2.582-1.837,2.865-3.924,3.096-4.619-.543-.222-.504-.258-1.512-.52ZM3.214,4.393c.801-1.433,2.618-2.552,3.497-3.031,.341,1.164,.857,4.098-1.5,6.748-.798-.642-2.737-2.392-1.997-3.717Zm-1.871,6.566c-.612-1.58-.264-3.738-.042-4.75,1.288,.352,4.245,3.728,3.805,6.484-1.395-.28-3.142-.218-3.764-1.734Zm-.121,2.85c.427-.128,1.161-.32,1.963-.333v-.005c.668-.024,1.397,.057,2.096,.341,.205,1.022,.516,1.933,.894,2.751-.782,.109-1.483,.359-2.088,.669-1.732-.886-2.564-2.616-2.865-3.424Zm1.493,5.652c.613-.612,2.058-1.808,3.962-1.936,.355,.6,.749,1.135,1.173,1.599-.589,.636-1.049,1.283-1.378,1.868-1.69-.05-3.117-1.015-3.757-1.53Zm4,3.414c.226-.65,.764-1.88,1.842-3.054,.944,.821,1.97,1.334,2.948,1.553-1.092,2.033-3.705,1.73-4.791,1.501ZM22.697,6.205c.827,2.825,.336,6.729-3.802,6.487-.442-2.762,2.518-6.152,3.802-6.487ZM17.289,1.361c2.946,1.513,5.421,4.068,1.5,6.748-2.357-2.649-1.842-5.584-1.5-6.748Zm-4.792,20.018c.98-.215,2.009-.726,2.955-1.549,1.072,1.171,1.608,2.397,1.834,3.045-1.09,.23-3.697,.531-4.789-1.496Zm8.787-1.917c-.641,.516-2.068,1.48-3.757,1.529-.328-.582-.785-1.226-1.37-1.859,.425-.466,.819-1.003,1.175-1.607,1.891,.132,3.336,1.325,3.952,1.936Zm-1.372-2.23c-.603-.308-1.301-.558-2.08-.667,.377-.819,.687-1.731,.89-2.754,.698-.283,1.425-.363,2.091-.34v.005c.806,.014,1.538,.204,1.965,.333-.301,.808-1.134,2.538-2.866,3.424Z"/>
  <path d="M9.5,13c-.068-1.641,3.122-.809,4-1,1.436-.036,.908,2.157,1,3h1c.497-4.28-1.521-4.136-5-4-2.157-.035-2.088,2.471-2,4h1v-2Z"/>
</svg>
