<svg id="Layer_1" viewBox="0 0 24 24" xmlns="http://www.w3.org/2000/svg" data-name="Layer 1"><path d="m19.786 12.089-4.265-6.701 2.603-1.388h4.875v-1h-5.125l-6.433 3.429c-.849.452-1.567 1.124-2.078 1.941l-1.642 2.629h-3.723v1h4.277l1.935-3.1c.22-.352.49-.669.795-.946l6.993 11.189v4.856h1v-5.144l-2.496-3.993 2.901-1.846 3.595 2.733v6.25h1v-6.75l-4.214-3.161zm-7.966-4.72c.104-.079 2.706-1.443 2.816-1.509l4.079 6.41-2.742 1.745-4.153-6.645zm-1.32-2.369c1.379 0 2.5-1.122 2.5-2.5s-1.121-2.5-2.5-2.5-2.5 1.122-2.5 2.5 1.121 2.5 2.5 2.5zm0-4c.827 0 1.5.673 1.5 1.5s-.673 1.5-1.5 1.5-1.5-.673-1.5-1.5.673-1.5 1.5-1.5zm-8.5 6c-1.103 0-2 .897-2 2s.897 2 2 2 2-.897 2-2-.897-2-2-2zm0 3c-.552 0-1-.449-1-1s.448-1 1-1 1 .449 1 1-.448 1-1 1z"/></svg>