<?xml version="1.0" encoding="UTF-8"?>
<svg xmlns="http://www.w3.org/2000/svg" id="Layer_1" data-name="Layer 1" viewBox="0 0 24 24">
  <path d="m20.835,18.488l-1.573,1.573c-1.576-.705-2.669-1.795-3.327-3.319l1.577-1.577-3.189-3.189-1.448,1.447c-.563.563-.874,1.325-.874,2.145,0,3.704,4.729,8.432,8.433,8.432.82,0,1.582-.311,2.145-.875l1.447-1.447-3.189-3.19Zm1.035,3.931c-.374.375-.885.581-1.438.581-3.195,0-7.433-4.237-7.433-7.432,0-.553.206-1.063.581-1.438l.741-.74,1.775,1.775-1.334,1.333.116.303c.772,2.026,2.224,3.478,4.311,4.316l.307.123,1.338-1.338,1.775,1.776-.74.741Zm-19.37.581c-.827,0-1.5-.673-1.5-1.5s.673-1.5,1.5-1.5h8.899c-.199-.329-.375-.663-.536-1h-5.863V1h13.5c.275,0,.5.224.5.5v12.325l1,1V1.5c0-.827-.673-1.5-1.5-1.5H2.5C1.121,0,0,1.122,0,2.5v19c0,1.378,1.121,2.5,2.5,2.5h12.593c-.42-.306-.822-.644-1.211-1H2.5ZM2.5,1h1.5v18h-1.5c-.565,0-1.081.195-1.5.513V2.5c0-.827.673-1.5,1.5-1.5Z"/>
</svg>
