<svg id="Layer_1" viewBox="0 0 24 24" xmlns="http://www.w3.org/2000/svg" data-name="Layer 1"><path d="m17 18c0-.827-.673-1.5-1.5-1.5h-3v-1.5h2v-5h-5v5h2v1.5h-3c-.827 0-1.5.673-1.5 1.5v1h-2v5h5v-5h-2v-1c0-.276.225-.5.5-.5h7c.275 0 .5.224.5.5v1h-2v5h5v-5h-2zm-6.5-7h3v3h-3zm-1.5 12h-3v-3h3zm9 0h-3v-3h3zm3.5-23h-19c-1.379 0-2.5 1.122-2.5 2.5v19.5h3v-1h-2v-13h22v13h-2v1h3v-19.5c0-1.378-1.121-2.5-2.5-2.5zm-20.5 7v-4.5c0-.827.673-1.5 1.5-1.5h19c.827 0 1.5.673 1.5 1.5v4.5zm4-3c0 .552-.448 1-1 1s-1-.448-1-1 .448-1 1-1 1 .448 1 1zm3 0c0 .552-.448 1-1 1s-1-.448-1-1 .448-1 1-1 1 .448 1 1zm3 0c0 .552-.448 1-1 1s-1-.448-1-1 .448-1 1-1 1 .448 1 1z"/></svg>