<svg id="Layer_1" viewBox="0 0 24 24" xmlns="http://www.w3.org/2000/svg" data-name="Layer 1"><path d="m6.226 17h1.774v1h-2.445c-.122-.513-.479-1.017-1.055-1-.576-.017-.933.487-1.055 1h-3.445v-2.944c.513-.123 1.017-.481 1-1.056.017-.576-.486-.933-1-1.055v-2.89c.513-.123 1.017-.479 1-1.055.017-.576-.487-.932-1-1.055v-2.89c.513-.123 1.017-.479 1-1.055.017-.576-.487-.932-1-1.055v-2.945h3.445c.123.513.479 1.017 1.055 1 .576.017.932-.487 1.055-1h2.89c.123.513.479 1.017 1.055 1 .576.017.932-.487 1.055-1h3.445v2.945c-.513.122-1.017.479-1 1.055h-1c0-.718.39-1.373 1-1.726v-1.274h-1.774c-.353.61-1.008 1-1.726 1s-1.373-.39-1.726-1h-1.549c-.353.61-1.008 1-1.726 1s-1.373-.39-1.726-1h-1.773v1.274c.61.353 1 1.008 1 1.726s-.39 1.373-1 1.726v1.549c.61.353 1 1.008 1 1.726s-.39 1.373-1 1.726v1.549c.61.353 1 1.008 1 1.726s-.39 1.372-1 1.726v1.274h1.774c.353-.61 1.008-1 1.726-1s1.373.39 1.726 1zm-2.226-13h7v-1h-8v12h5v-1h-4zm19 6c-.017.576.487.933 1 1.055v2.889c-.513.123-1.017.481-1 1.056-.017.575.487.933 1 1.056v2.889c-.513.123-1.017.481-1 1.056-.017.575.487.933 1 1.056v2.944h-3.444c-.123-.513-.481-1.017-1.056-1-.575-.017-.933.487-1.056 1h-2.889c-.123-.513-.481-1.017-1.056-1-.575-.017-.933.487-1.056 1h-3.444v-2.944c.513-.123 1.017-.481 1-1.056.017-.575-.487-.933-1-1.056v-2.889c.513-.123 1.017-.481 1-1.056.017-.575-.487-.933-1-1.056v-2.889c.513-.123 1.017-.479 1-1.055.017-.576-.487-.932-1-1.055v-2.945h3.444c.123.513.481 1.017 1.056 1 .575.017.933-.487 1.056-1h2.889c.123.513.481 1.017 1.056 1 .575.017.933-.487 1.056-1h3.444v2.945c-.513.122-1.017.479-1 1.055zm0-3h-1.774c-.354.61-1.009 1-1.726 1s-1.372-.39-1.726-1h-1.549c-.354.61-1.009 1-1.726 1s-1.372-.39-1.726-1h-1.774v1.274c.61.353 1 1.008 1 1.726s-.39 1.373-1 1.726v1.549c.61.354 1 1.009 1 1.726s-.39 1.372-1 1.726v1.549c.61.354 1 1.009 1 1.726s-.39 1.372-1 1.726v1.274h1.774c.354-.609 1.009-1 1.726-1s1.372.391 1.726 1h1.549c.354-.609 1.009-1 1.726-1s1.372.391 1.726 1h1.774v-1.274c-.609-.354-1-1.009-1-1.726s.391-1.372 1-1.726v-1.549c-.609-.354-1-1.009-1-1.726s.391-1.372 1-1.726v-1.549c-.61-.353-1-1.008-1-1.726s.39-1.373 1-1.726zm-10 2h8v12h-8zm1 11h6v-10h-6z"/></svg>