<?xml version="1.0" encoding="UTF-8"?>
<svg xmlns="http://www.w3.org/2000/svg" id="Layer_1" data-name="Layer 1" viewBox="0 0 24 24">
  <path d="M4,7.5c0,1.93,1.57,3.5,3.5,3.5s3.5-1.57,3.5-3.5-1.57-3.5-3.5-3.5-3.5,1.57-3.5,3.5Zm6,0c0,1.378-1.122,2.5-2.5,2.5s-2.5-1.122-2.5-2.5,1.122-2.5,2.5-2.5,2.5,1.122,2.5,2.5Zm3.394,4.164l4.441,4.002-.67,.743-4.438-4c-.604-.537-1.53-.544-2.148-.019-.685,.558-.774,1.653-.188,2.314l4.609,6.639v2.656h-1v-2.344l-1.149-1.656H0V7.5C0,3.364,3.364,0,7.5,0s7.5,3.364,7.5,7.5v2.919c-.301-.282-.646-.571-1-.771v-2.148c0-3.584-2.916-6.5-6.5-6.5S1,3.916,1,7.5v11.5H12.157l-2.558-3.686c-.908-1.021-.755-2.817,.333-3.686,.997-.845,2.484-.831,3.462,.035Zm10.606,1.118v11.218h-1V13.218l-6-5.572v-1.364l7,6.499Z"/>
</svg>
