<?xml version="1.0" encoding="UTF-8"?>
<svg xmlns="http://www.w3.org/2000/svg" id="Layer_1" data-name="Layer 1" viewBox="0 0 24 24">
  <path d="M23.455,6.464c-.88-1.396-1.797-2.574-2.727-3.504-.845-.845-1.838-1.645-2.951-2.377-1.521-.999-3.521-.692-4.652,.715l-4.576,5.693c-.76,.946-.716,2.282,.069,3.185L0,18.793v5.207s3.5,0,3.5,0c.827,0,1.5-.673,1.5-1.5v-1.499h2v-2h2s0-2,0-2h2.728l1.855-1.836,.107,.107c.889,.889,2.305,.972,3.291,.202l5.661-4.417c1.417-1.105,1.767-3.08,.813-4.593Zm-12.139,9.536h-3.316v2.001h-2s0,1.999,0,1.999h-2v2.499c0,.275-.224,.5-.5,.5H1s0-3.792,0-3.792L9.31,10.899l3.509,3.615-1.502,1.485Zm10.71-5.732l-5.661,4.417c-.592,.462-1.438,.41-1.968-.12l-4.986-4.997c-.509-.539-.551-1.368-.083-1.949L13.904,1.925c.815-1.015,2.254-1.214,3.323-.506,1.057,.695,1.997,1.451,2.794,2.248,.877,.877,1.748,1.997,2.588,3.33,.678,1.077,.427,2.482-.583,3.271Zm-7.453-4.561l3.707,3.707,2.121-2.121-3.707-3.707-2.121,2.121Zm3.707,2.293l-2.293-2.293,.707-.707,2.293,2.293-.707,.707Z"/>
</svg>
