<svg id="Layer_1" viewBox="0 0 24 24" xmlns="http://www.w3.org/2000/svg" data-name="Layer 1"><path d="m7 14h1v6h-1zm9 6h1v-5h-1zm-6 0h1v-10h-1zm3 0h1v-8h-1zm11-16.5v19.5h-24v-19.5c0-1.379 1.122-2.5 2.5-2.5h19c1.378 0 2.5 1.121 2.5 2.5zm-23 0v2.5h22v-2.5c0-.827-.673-1.5-1.5-1.5h-19c-.827 0-1.5.673-1.5 1.5zm22 18.5v-15h-22v15zm-19-17c.552 0 1-.448 1-1s-.448-1-1-1-1 .448-1 1 .448 1 1 1zm3 0c.552 0 1-.448 1-1s-.448-1-1-1-1 .448-1 1 .448 1 1 1zm3 0c.552 0 1-.448 1-1s-.448-1-1-1-1 .448-1 1 .448 1 1 1z"/></svg>