<svg id="Layer_1" viewBox="0 0 24 24" xmlns="http://www.w3.org/2000/svg" data-name="Layer 1"><path d="m17.015 22.251c.408.11.826.175 1.245.197l-.382.382c-1.56 1.56-4.097 1.56-5.657 0-1.56-1.56-1.56-4.097 0-5.657l1.414-1.414c1.561-1.56 4.097-1.559 5.656 0 .246.246.438.521.607.808-.1.091-.635.668-.754.704-.142-.289-.32-.565-.56-.805-1.171-1.17-3.074-1.169-4.243 0l-1.414 1.414c-.566.566-.878 1.32-.878 2.121s.312 1.555.878 2.121c1.121 1.121 2.909 1.156 4.086.128zm6.985-17.751v6.065c-.313-.282-.649-.522-1-.727v-2.837h-22v14h8.098c.062.338.153.673.269 1h-9.367v-19.501c0-1.378 1.122-2.5 2.5-2.5h5.618l4 2h9.382c1.379 0 2.5 1.122 2.5 2.5zm-1 1.5v-1.5c0-.827-.673-1.5-1.5-1.5h-9.618l-4-2h-5.382c-.827 0-1.5.673-1.5 1.5v3.5zm-.172 6.224c-1.56-1.56-4.097-1.56-5.657 0l-.382.382c.42.023.837.087 1.245.197 1.177-1.028 2.965-.994 4.086.127.566.567.879 1.32.879 2.122s-.313 1.554-.879 2.121l-1.414 1.414c-1.134 1.134-3.11 1.133-4.242 0s0 0 0 0c-.24-.24-.418-.516-.56-.805-.116.033-.658.617-.754.704.168.286.361.562.607.807 0 0 .002.001.003.002.755.754 1.758 1.169 2.825 1.169s2.072-.416 2.828-1.172l1.414-1.414c.756-.755 1.172-1.76 1.172-2.828s-.416-2.071-1.17-2.826c0 0 0-.002-.001-.002z"/></svg>