<svg id="Layer_1" viewBox="0 0 24 24" xmlns="http://www.w3.org/2000/svg" data-name="Layer 1"><path d="m3 13c0 1.103.897 2 2 2s2-.897 2-2-.897-2-2-2-2 .897-2 2zm3 0c0 .552-.449 1-1 1s-1-.448-1-1 .449-1 1-1 1 .448 1 1zm15.5-13h-19c-1.378 0-2.5 1.121-2.5 2.5v15.5h9.025c-.01-.166-.025-.331-.025-.5s.016-.334.025-.5h-8.025v-11h22v5.026c.36.306.695.641 1 1.003v-9.529c0-1.379-1.122-2.5-2.5-2.5zm-20.5 5v-2.5c0-.827.673-1.5 1.5-1.5h19c.827 0 1.5.673 1.5 1.5v2.5zm16.5 6c-3.584 0-6.5 2.916-6.5 6.5s2.916 6.5 6.5 6.5 6.5-2.916 6.5-6.5-2.916-6.5-6.5-6.5zm0 12c-3.033 0-5.5-2.468-5.5-5.5s2.467-5.5 5.5-5.5 5.5 2.468 5.5 5.5-2.467 5.5-5.5 5.5zm2.697-7.49-1.99 1.99 1.99 1.99-.707.707-1.99-1.99-1.99 1.99-.707-.707 1.99-1.99-1.99-1.99.707-.707 1.99 1.99 1.99-1.99z"/></svg>