<?xml version="1.0" encoding="UTF-8"?>
<svg xmlns="http://www.w3.org/2000/svg" id="Layer_1" data-name="Layer 1" viewBox="0 0 24 24">
  <path d="M14.809,10.755c1.024,.56,2.405,.121,2.922-.923l1.025-1.972c.55-1.061,.136-2.371-.931-2.926L10.246,1.145C4.025-2.091,.428,2.654,.393,2.703L.044,3.177l7.561,3.881L.296,21.706l4.437,2.305,7.312-14.674,2.764,1.419ZM9.792,2.035l7.58,3.79c.57,.297,.793,1.003,.497,1.574l-1.025,1.972c-.279,.563-1.022,.797-1.575,.496L1.593,2.848c.987-.996,3.785-3.107,8.199-.812ZM4.292,22.655l-2.662-1.383L8.495,7.514l2.661,1.366-6.863,13.776ZM21.54,13.005l-6.682-.005-3.858,4.05v3.524l3.245,3.426h7.246l2.475-4.534-2.425-6.461Zm-.644,9.995h-6.221l-2.675-2.824v-2.726l3.286-3.45,5.561,.005,2.021,5.383-1.972,3.612Zm-4.915-3h2.019v1h-2.449l-2.042-2.156,.726-.688,1.747,1.844Z"/>
</svg>
