<?xml version="1.0" encoding="UTF-8"?>
<svg xmlns="http://www.w3.org/2000/svg" id="Layer_1" data-name="Layer 1" viewBox="0 0 24 24">
  <path d="M8.644,8.319c.889-.811,2.06-1.319,3.356-1.319s2.467,.508,3.356,1.319l-.579,.812c-.72-.698-1.698-1.132-2.777-1.132s-2.057,.434-2.777,1.132l-.579-.812Zm3.356,7.681c-1.694,0-3.137-1.063-3.719-2.553l-.834,.595c.784,1.739,2.525,2.958,4.553,2.958s3.77-1.219,4.553-2.958l-.834-.595c-.582,1.49-2.025,2.553-3.719,2.553Zm3.792-8.561l-.822-.855,.695-4.779c.132-.773,1.178-1.087,1.711-.515l.731,.731L19.092,0l2.474,2.473-1.837,3.85c-.306,.621-1.17,.747-1.637,.261l-.958-.951-1.342,1.806Zm.383-2.191l.846-1.138,1.777,1.767,1.559-3.198-.979-.979-.986,2.02-1.743-1.726-.473,3.254Zm-11.893,1.097l-1.848-3.871L4.908,0l.984,2.02,.731-.731c.541-.581,1.606-.246,1.716,.543l.69,4.751-.822,.855-1.342-1.806-.959,.952c-.453,.484-1.329,.355-1.625-.241Zm-.641-3.664l1.532,3.212,1.806-1.783,.846,1.138-.472-3.249s-.002-.002-.004-.003l-1.74,1.724-.986-2.02-.981,.981Zm12.783,7.585l-.58,.814,4.356,3.107-3.938,4.813H7.723L3.551,14.364l4.604-3.284-.58-.814L1.853,14.348l4.147,7.777v1.875h1v-2.125l-2.858-5.358,3.135,3.483h9.46l3.629-4.436-3.366,6.311v2.125h1v-1.875l4.147-7.777-5.723-4.083Z"/>
</svg>
