<?xml version="1.0" encoding="UTF-8"?>
<svg xmlns="http://www.w3.org/2000/svg" id="Layer_1" data-name="Layer 1" viewBox="0 0 24 24">
  <path d="M16.516,11C15.516,3.405,14.119,0,12,0s-3.516,3.405-4.516,11H0v1H24v-1h-7.484ZM12,1c.82,0,2.348,1.335,3.506,10h-7.012C9.652,2.334,11.181,1,12,1Zm10.991,13h1.009c-.882,6.889-2.171,10-4,10s-3.242-3.111-4.124-10h1.009c1.052,8.062,2.562,9,3.115,9s1.939-.938,2.991-9Zm-15.876,0h1.009c-.882,6.889-2.295,10-4.124,10S.882,20.889,0,14H1.009c1.052,8.062,2.438,9,2.991,9s2.063-.938,3.115-9Z"/>
</svg>
