<?xml version="1.0" encoding="UTF-8"?>
<svg xmlns="http://www.w3.org/2000/svg" id="Layer_1" data-name="Layer 1" viewBox="0 0 24 24">
  <path d="M23,2.5C23,1.122,21.878,0,20.5,0s-2.5,1.122-2.5,2.5,1.122,2.5,2.5,2.5,2.5-1.122,2.5-2.5Zm-1,0c0,.827-.673,1.5-1.5,1.5s-1.5-.673-1.5-1.5c0-.827,.673-1.5,1.5-1.5s1.5,.673,1.5,1.5Zm-8.008,.5h-4.031v-1h4.021l-1.355-1.216L13.295,.04l1.851,1.662c.466,.416,.469,1.193,.005,1.606l-1.857,1.655-.665-.747,1.363-1.215Zm-4.175,5.313c-.469-.414-.468-1.195-.007-1.607l1.856-1.667,.668,.744-1.355,1.216h3.982v1h-3.993s1.364,1.215,1.364,1.215l-.665,.747-1.851-1.648Zm13.183-.813c0-.276-.224-.5-.5-.5h-4c-.276,0-.5,.224-.5,.5v1.5h-1v-1.5c0-.827,.673-1.5,1.5-1.5h4c.827,0,1.5,.673,1.5,1.5v1.5h-1v-1.5ZM0,2.5v6.5s8,0,8,0V2.5c0-.827-.673-1.5-1.5-1.5H1.5C.673,1,0,1.673,0,2.5Zm1,0c0-.276,.225-.5,.5-.5H6.5c.275,0,.5,.224,.5,.5V8H1V2.5Zm4.5,1.5H2.5v-1h3v1Zm17.681,7.655c1.013,.923,1.094,2.506,.182,3.527l-7.857,8.818h-1.339l8.449-9.483c.549-.615,.5-1.567-.109-2.123-.588-.557-1.601-.513-2.134,.1l-4.51,4.956c-.305,.936-1.116,1.663-2.131,1.808l-5.668,.738-.129-.991,5.661-.737c.797-.114,1.403-.813,1.403-1.625,0-.905-.737-1.642-1.643-1.642H2.5c-.827,0-1.5,.673-1.5,1.5v7.5H0v-7.5c0-1.378,1.122-2.5,2.5-2.5H13.357c1.21,0,2.221,.822,2.534,1.933l3.742-4.112c.888-1.019,2.566-1.091,3.548-.166Z"/>
</svg>
