<svg id="Layer_1" viewBox="0 0 24 24" xmlns="http://www.w3.org/2000/svg" data-name="Layer 1"><path d="m24 2.5c0-1.379-1.122-2.5-2.5-2.5h-19c-1.378 0-2.5 1.121-2.5 2.5v17.5h5v4h14v-4h5zm-6 20.5h-12v-8h3.18c-.116.32-.18.656-.18 1 0 1.654 1.346 3 3 3s3-1.346 3-3c0-.344-.064-.68-.18-1h3.18zm-4-7c0 1.103-.897 2-2 2s-2-.897-2-2c0-.352.095-.692.277-1h3.446c.182.308.277.648.277 1zm9 3h-4v-5h-14v5h-4v-16.5c0-.827.673-1.5 1.5-1.5h19c.827 0 1.5.673 1.5 1.5zm-19-8h8v-7h-8zm1-6h6v5h-6zm9-1h2v1h-2zm4 0h2v1h-2zm-4 3h2v1h-2zm4 0h2v1h-2zm-4 3h2v1h-2zm4 0h2v1h-2zm-9 11c0 .552-.448 1-1 1s-1-.448-1-1 .448-1 1-1 1 .448 1 1zm6 0c0-.552.448-1 1-1s1 .448 1 1-.448 1-1 1-1-.448-1-1z"/></svg>