<svg id="Layer_1" viewBox="0 0 24 24" xmlns="http://www.w3.org/2000/svg" data-name="Layer 1"><path d="m21.5 0h-19c-1.378 0-2.5 1.122-2.5 2.5v13.5h8.413c-.472-.284-.911-.617-1.303-1h-2.11v-5h-4v-4h5.493c.387-.484.594-.685.897-1h-2.39v-4h14v4h-2.249c.292.316.572.648.83 1h5.419v4h-4v5h-2.11c-.392.383-.83.716-1.303 1h8.413v-13.5c0-1.378-1.122-2.5-2.5-2.5zm-17.5 11v4h-3v-4zm0-6h-3v-2.5c0-.827.673-1.5 1.5-1.5h1.5zm16 0v-4h1.5c.827 0 1.5.673 1.5 1.5v2.5zm0 10v-4h3v4zm-7.5 4.051v-4.101c2.52-.255 4.5-2.364 4.5-4.949 0-2.282-1.992-4.011-3.592-5.4-.555-.475-.978-.864-1.434-1.333l-.352.406c-.771.89-1.06 2.106-1.292 3.084-.095.398-.231.974-.329 1.178-.154-.214-.381-.7-.53-1.156l-.258-.788-.577.596c-.703.726-1.637 1.869-1.637 3.413 0 2.586 1.98 4.694 4.5 4.949v4.101c-.978.199-1.75.971-1.949 1.949h-9.55v1h9.551c.232 1.14 1.242 2 2.449 2s2.217-.86 2.449-2h9.551v-1h-9.551c-.199-.978-.971-1.75-1.949-1.949zm.207-5.343c-.377.377-1.037.376-1.414 0-.39-.391-.39-1.025 0-1.415l.708-.708.707.707c.39.391.39 1.025 0 1.415zm-4.707-3.708c0-.844.378-1.546.826-2.117.341.742.722 1.117 1.136 1.117.863 0 1.096-.977 1.341-2.012.168-.709.371-1.56.77-2.232.21.191.44.391.68.599 1.447 1.256 3.248 2.819 3.248 4.646 0 1.501-.841 2.795-2.066 3.48.161-.657-.007-1.38-.519-1.893l-1.415-1.415-1.415 1.415c-.513.512-.681 1.235-.519 1.893-1.226-.684-2.066-1.979-2.066-3.48zm4 13c-.827 0-1.5-.673-1.5-1.5s.673-1.5 1.5-1.5 1.5.673 1.5 1.5-.673 1.5-1.5 1.5z"/></svg>