<?xml version="1.0" encoding="UTF-8"?>
<svg xmlns="http://www.w3.org/2000/svg" id="Layer_1" data-name="Layer 1" viewBox="0 0 24 24">
  <path d="M21.806,12.815c.259-.518,.259-1.112,0-1.63h0c-.615-1.228-4.294-6.185-9.806-6.185S2.81,9.958,2.195,11.184c-.261,.519-.261,1.114,0,1.633,.616,1.227,4.296,6.183,9.805,6.183s9.19-4.958,9.806-6.185Zm-9.806,5.185c-5.002,0-8.351-4.514-8.912-5.632-.117-.233-.117-.501,0-.735,.561-1.118,3.908-5.633,8.912-5.633s8.351,4.515,8.912,5.632c.117,.234,.117,.501,0,.735-.561,1.118-3.908,5.633-8.912,5.633Zm0-9c-1.654,0-3,1.346-3,3s1.346,3,3,3,3-1.346,3-3-1.346-3-3-3Zm0,5c-1.103,0-2-.897-2-2s.897-2,2-2,2,.897,2,2-.897,2-2,2ZM1,7H0V2.5C0,1.122,1.122,0,2.5,0H7V1H2.5c-.827,0-1.5,.673-1.5,1.5V7Zm1.5,16H7v1H2.5c-1.378,0-2.5-1.122-2.5-2.5v-4.5H1v4.5c0,.827,.673,1.5,1.5,1.5Zm20.5-6h1v4.5c0,1.378-1.122,2.5-2.5,2.5h-4.5v-1h4.5c.827,0,1.5-.673,1.5-1.5v-4.5Zm1-14.5V7h-1V2.5c0-.827-.673-1.5-1.5-1.5h-4.5V0h4.5c1.378,0,2.5,1.122,2.5,2.5Z"/>
</svg>
