<?xml version="1.0" encoding="UTF-8"?>
<svg xmlns="http://www.w3.org/2000/svg" id="Layer_1" data-name="Layer 1" viewBox="0 0 24 24">
  <path d="M14.005,17.861c.056-4.607,2.78-7.151,2.808-7.177,.619-.219,1.201-.545,1.715-.978,.479,.195,.974,.294,1.472,.294,2.206,0,4-1.794,4-4s-1.794-4-4-4c-.229,0-.459,.023-.707,.073-1.042-1.304-2.622-2.073-4.293-2.073-1.066,0-2.096,.313-3,.911-.904-.597-1.934-.911-3-.911-1.671,0-3.251,.769-4.293,2.073-.248-.05-.479-.073-.707-.073C1.794,2,0,3.794,0,6s1.794,4,4,4c.498,0,.992-.099,1.472-.294,.516,.434,1.108,.746,1.732,.959,.028,.025,2.735,2.589,2.791,7.196-2.4-.337-3.995-1.22-3.995-1.861,0-.366,.525-.812,1.42-1.19-.126-.334-.259-.639-.4-.911-1.207,.514-2.02,1.228-2.02,2.101,0,1.474,2.301,2.499,4.936,2.857-.626,4.08-5.707,4.142-5.937,4.143v1c.067,0,6.223-.066,6.93-5.041,.357,.025,.716,.041,1.071,.041s.714-.016,1.071-.041c.707,4.975,6.862,5.041,6.929,5.041v-1c-.229,0-5.31-.063-5.936-4.143,2.635-.359,4.936-1.384,4.936-2.857,0-.874-.814-1.588-2.021-2.102-.141,.271-.274,.577-.4,.911,.896,.378,1.421,.824,1.421,1.191,0,.64-1.594,1.524-3.995,1.861ZM5.907,8.754l-.255-.242-.314,.158c-.437,.219-.887,.331-1.338,.331-1.654,0-3-1.346-3-3s1.346-3,3-3c.237,0,.484,.037,.78,.117l.339,.092,.201-.287c.845-1.203,2.221-1.922,3.68-1.922,.968,0,1.9,.319,2.698,.921l.302,.228,.302-.228c.798-.603,1.73-.921,2.698-.921,1.459,0,2.835,.719,3.68,1.922l.201,.287,.339-.092c.296-.08,.543-.117,.78-.117,1.654,0,3,1.346,3,3s-1.346,3-3,3c-.451,0-.901-.111-1.338-.331l-.314-.158-.255,.242c-1.556,1.48-4.045,1.643-5.791,.325l-.302-.228-.302,.228c-1.745,1.318-4.235,1.156-5.791-.325Zm7.094,9.209c-.324,.022-.657,.037-1.001,.037s-.677-.015-1.001-.037c-.01-3.413-1.342-5.766-2.277-6.998,1.137,.058,2.294-.225,3.279-.876,.904,.597,1.934,.911,3,.911,.091,0,.18-.019,.27-.024-.935,1.236-2.259,3.584-2.269,6.987Z"/>
</svg>
