<svg id="Layer_1" viewBox="0 0 24 24" xmlns="http://www.w3.org/2000/svg" data-name="Layer 1"><path d="m17.5 11c-1.379 0-2.5 1.122-2.5 2.5v4c0 1.378 1.121 2.5 2.5 2.5s2.5-1.122 2.5-2.5v-4c0-1.378-1.121-2.5-2.5-2.5zm1.5 6.5c0 .827-.673 1.5-1.5 1.5s-1.5-.673-1.5-1.5v-4c0-.827.673-1.5 1.5-1.5s1.5.673 1.5 1.5zm-14-5.5v2h1.5c1.379 0 2.5 1.122 2.5 2.5v1c0 1.378-1.121 2.5-2.5 2.5s-2.5-1.122-2.5-2.5h1c0 .827.673 1.5 1.5 1.5s1.5-.673 1.5-1.5v-1c0-.827-.673-1.5-1.5-1.5h-2.5v-4h5v1zm16.5-10h-3.5v-2h-1v2h-10v-2h-1v2h-3.5c-1.379 0-2.5 1.122-2.5 2.5v19.5h24v-19.5c0-1.378-1.121-2.5-2.5-2.5zm-19 1h19c.827 0 1.5.673 1.5 1.5v2.5h-22v-2.5c0-.827.673-1.5 1.5-1.5zm-1.5 5h10.5v15h-10.5zm11.5 15v-15h10.5v15z"/></svg>