<svg id="Layer_1" viewBox="0 0 24 24" xmlns="http://www.w3.org/2000/svg" data-name="Layer 1"><path d="m20 11c0 .552-.448 1-1 1s-1-.448-1-1 .448-1 1-1 1 .448 1 1zm2-1c.552 0 1-.448 1-1s-.448-1-1-1-1 .448-1 1 .448 1 1 1zm0 2c-.552 0-1 .448-1 1s.448 1 1 1 1-.448 1-1-.448-1-1-1zm-16.273 5.881-1.191 6.119h1.008l1.094-5.636-.598-.299c-.11-.055-.208-.123-.313-.185zm8.056-6.881h2.217v1h-3.16l-1.84-1.314v6.505l2 1v5.809h-1v-5.191l-5.065-2.532c-.592-.296-1.072-.741-1.406-1.276h-2.029c-1.378 0-2.5-1.121-2.5-2.5v-4c0-1.378 1.122-2.5 2.5-2.5h1.5v-3c0-1.654 1.346-3 3-3s3 1.346 3 3v3.361l2.783 4.639zm-7.783-5h4v-2h-2v-1h2c0-1.103-.897-2-2-2s-2 .897-2 2zm-.89 8c-.069-.276-.11-.561-.11-.854v-6.146h-1.5c-.827 0-1.5.673-1.5 1.5v4c0 .827.673 1.5 1.5 1.5zm7.099-3.679-1.992-3.321h-4.217v6.146c0 .953.529 1.811 1.382 2.236l2.618 1.309v-7.948z"/></svg>