<svg id="Layer_1" viewBox="0 0 24 24" xmlns="http://www.w3.org/2000/svg" data-name="Layer 1"><path d="m23.431 6.908c.35.43.569.971.569 1.568v15.524h-24v-15.5c0-1.378 1.122-2.5 2.5-2.5h9.136l-1 1h-8.136c-.827 0-1.5.673-1.5 1.5v1.5h8v1h-8v2h8v1h-8v9h22v-9.024h-6.636l1-1h5.636v-2h-3.636l1-1h2.636v-1.5c0-.321-.103-.617-.275-.861l.707-.707zm-12.431 2.556 8.732-8.732c.943-.944 2.592-.944 3.535 0 .472.472.732 1.1.732 1.768s-.26 1.296-.732 1.768l-8.732 8.732h-3.536v-3.536zm1 2.536h2.122l8.439-8.439c.283-.283.439-.66.439-1.061s-.156-.777-.439-1.061c-.566-.566-1.555-.566-2.121 0l-8.439 8.439v2.122zm-7.058 5c1.103 0 2 .897 2 2s-.897 2-2 2-2-.897-2-2 .897-2 2-2zm0 1c-.551 0-1 .449-1 1s.449 1 1 1 1-.449 1-1-.449-1-1-1z"/></svg>