<?xml version="1.0" encoding="UTF-8"?>
<svg xmlns="http://www.w3.org/2000/svg" id="Layer_1" data-name="Layer 1" viewBox="0 0 24 24">
  <path d="M14,3.856v-1.856h1v1.856c0,1.222,.651,2.373,1.699,3.001l1.602,.961c1.048,.629,1.699,1.779,1.699,3.001v1.18h-1v-1.18c0-.873-.465-1.694-1.213-2.144l-1.602-.961c-1.349-.809-2.186-2.288-2.186-3.859Zm5.214,1.155l2.087,1.252c1.048,.629,1.699,1.779,1.699,3.001v.735h1v-.735c0-1.572-.837-3.05-2.186-3.858l-2.087-1.252c-.448-.27-.728-.762-.728-1.286V0h-1V2.868c0,.874,.465,1.695,1.214,2.144Zm3.786,14.989h1v-6h-1v6Zm1.004,3.296l-.707,.707L-.004,.704,.703-.003,14.707,14h6.293v6h-.293l3.297,3.296Zm-4.004-8.296h-4.293l4,4h.293v-4Zm-4.535,4l1,1H0v-6H10.465l1,1h-2.465v4h6.465Zm-7.465-4H1v4h7v-4Z"/>
</svg>
