<?xml version="1.0" encoding="UTF-8"?>
<svg xmlns="http://www.w3.org/2000/svg" id="Layer_1" data-name="Layer 1" viewBox="0 0 24 24">
  <path d="M18.023,9.997c-2.124,0-3.922,.502-4.976,1.294V4.997c0-1.71-2.805-3-6.524-3S0,3.287,0,4.997V20.997c0,1.71,2.805,3,6.523,3,2.768,0,5.026-.715,6.003-1.785,.894,1.07,2.963,1.785,5.497,1.785,3.407,0,5.977-1.29,5.977-3V12.997c0-1.71-2.569-3-5.977-3Zm0,1c2.849,0,4.977,1.056,4.977,2s-2.128,2-4.977,2c-2.933,0-4.976-1.054-4.976-2s2.043-2,4.976-2ZM6.523,2.997c3.162,0,5.524,1.056,5.524,2s-2.362,2-5.524,2S1,5.941,1,4.997,3.362,2.997,6.523,2.997ZM1,6.633c1.134,.832,3.138,1.364,5.523,1.364s4.39-.532,5.524-1.364v2.364c0,.944-2.362,2-5.524,2s-5.523-1.056-5.523-2v-2.364Zm0,4c1.134,.832,3.138,1.364,5.523,1.364s4.39-.532,5.524-1.364v2.364c0,.944-2.362,2-5.524,2s-5.523-1.056-5.523-2v-2.364Zm0,4c1.134,.832,3.138,1.364,5.523,1.364s4.39-.532,5.524-1.364v2.364c0,.944-2.362,2-5.524,2s-5.523-1.056-5.523-2v-2.364Zm5.523,8.364c-3.161,0-5.523-1.056-5.523-2v-2.364c1.134,.832,3.138,1.364,5.523,1.364s4.39-.532,5.524-1.364v2.364c0,.944-2.362,2-5.524,2Zm11.5,0c-2.933,0-4.976-1.054-4.976-2v-2.294c1.053,.792,2.851,1.294,4.976,1.294s3.923-.502,4.977-1.294v2.294c0,.944-2.128,2-4.977,2Zm0-4c-2.933,0-4.976-1.054-4.976-2v-2.294c1.053,.792,2.851,1.294,4.976,1.294s3.923-.502,4.977-1.294v2.294c0,.944-2.128,2-4.977,2ZM15.334,3.984l-.707-.707L17.491,.413c.546-.547,1.436-.545,1.979,0l2.863,2.864-.707,.707-2.627-2.627V7.997h-1V1.318l-2.666,2.666Z"/>
</svg>
