<svg id="Layer_1" viewBox="0 0 24 24" xmlns="http://www.w3.org/2000/svg" data-name="Layer 1"><path d="m22.896 1.474-4.396-1.457-4.396 1.457c-.661.218-1.104.831-1.104 1.526v3.601c.016 2.606 2.029 4.943 5.479 6.626 3.497-1.36 5.496-3.659 5.521-6.637v-3.59c0-.695-.443-1.309-1.104-1.526zm.104 5.106c-.049 2.455-1.514 4.271-4.477 5.545-2.955-1.555-4.477-3.42-4.523-5.535v-3.59c0-.263.168-.494.418-.577l4.082-1.354 4.083 1.354c.25.083.417.314.417.577zm-.655 6.814c-.286.209-.59.412-.919.609.97.535 1.574 1.237 1.574 1.997 0 1.626-2.748 3-6 3s-6-1.374-6-3c0-1.223 1.554-2.303 3.708-2.763-.34-.264-.65-.53-.933-.798-1.423.414-2.549 1.096-3.189 1.937-1.046.404-2.276.624-3.586.624-3.252 0-6-1.374-6-3v-1.92c1.213 1.158 3.419 1.92 6 1.92 2.123 0 3.992-.517 5.266-1.344-.19-.293-.348-.583-.489-.871-1.106.731-2.85 1.215-4.777 1.215-3.252 0-6-1.374-6-3s2.748-3 6-3c1.522 0 2.929.303 4 .79v-1.091c-1.127-.442-2.501-.7-4-.7-3.925.001-7 1.758-7 4.001v8c0 2.243 3.075 4 7 4 1.045 0 2.067-.137 3-.385v.385c0 2.243 3.075 4 7 4s7-1.757 7-4v-4c0-1.005-.621-1.911-1.655-2.606zm-15.345 5.606c-3.252 0-6-1.374-6-3v-1.92c1.213 1.158 3.419 1.92 6 1.92 1.076 0 2.107-.14 3.048-.396-.022.131-.048.261-.048.396v2.578c-.914.273-1.943.422-3 .422zm10 4c-3.252 0-6-1.374-6-3v-1.92c1.213 1.158 3.419 1.92 6 1.92s4.787-.762 6-1.92v1.92c0 1.626-2.748 3-6 3z"/></svg>