<?xml version="1.0" encoding="UTF-8"?>
<svg xmlns="http://www.w3.org/2000/svg" id="Layer_1" data-name="Layer 1" viewBox="0 0 24 24">
  <path d="M23.5,9c0-.552-.448-1-1-1s-1,.448-1,1c0,.366,.206,.673,.5,.847v1.153h-3V2.5c0-1.379-1.121-2.5-2.5-2.5H7.5c-1.379,0-2.5,1.121-2.5,2.5V11H2v-1.153c.294-.174,.5-.481,.5-.847,0-.552-.448-1-1-1s-1,.448-1,1c0,.366,.206,.673,.5,.847v11.653c0,1.379,1.121,2.5,2.5,2.5H20.5c1.379,0,2.5-1.121,2.5-2.5V9.847c.294-.174,.5-.481,.5-.847Zm-15.5,3h2v11h-2V12Zm-1,11h-2V12h2v11Zm4-11h2v11h-2V12Zm3,0h2v11h-2V12Zm3,0h2v11h-2V12ZM6,2.5c0-.827,.673-1.5,1.5-1.5h9c.827,0,1.5,.673,1.5,1.5V11H6V2.5ZM2,21.5V12h2v11h-.5c-.827,0-1.5-.673-1.5-1.5Zm18.5,1.5h-.5V12h2v9.5c0,.827-.673,1.5-1.5,1.5Z"/>
</svg>
