<svg id="Layer_1" viewBox="0 0 24 24" xmlns="http://www.w3.org/2000/svg" data-name="Layer 1"><path d="m22.5 7c.827 0 1.5-.673 1.5-1.5v-5.5h-1v5.5c0 .276-.225.5-.5.5h-4.539l-.225-.906c-.883-2.446-3.188-4.09-5.737-4.094-2.548.003-4.853 1.648-5.751 4.144l-.212.856h-4.536c-.276 0-.5-.224-.5-.5v-5.5h-1v5.5c0 .827.673 1.5 1.5 1.5h4.288l-.991 4h-4.797v1h4.549c-.181.738-.616 2.25-.55 2.984 0 .7.096 1.372.258 2.016h-2.757c-.827 0-1.5.673-1.5 1.5v5.5h1v-5.5c0-.276.224-.5.5-.5h3.075c1.17 2.954 4.015 4.996 7.426 5 3.408-.004 6.252-2.045 7.422-5h3.077c.275 0 .5.224.5.5v5.5h1v-5.5c0-.827-.673-1.5-1.5-1.5h-2.76c.162-.645.258-1.32.259-2.023.058-.812-.365-2.201-.549-2.977h4.55v-1h-4.799l-.992-4zm-3.501 7.983c-.005 3.93-3.079 7.012-6.999 7.017-3.921-.005-6.997-3.087-7.001-7.008.006-.387.022-.686.076-.96l2.128-8.598c.741-2.051 2.668-3.431 4.795-3.434 2.128.002 4.056 1.382 4.782 3.384l2.141 8.637c.058.295.073.602.078.963zm-6.999-10.161 6.521 11.178h-4.215v-1h2.475l-4.78-8.193-4.779 8.193h2.473v1h-4.214l6.521-11.178zm.5 8.178h-1v-3h1zm.5 2c0 .552-.448 1-1 1s-1-.448-1-1 .448-1 1-1 1 .448 1 1z"/></svg>