<?xml version="1.0" encoding="UTF-8"?>
<svg xmlns="http://www.w3.org/2000/svg" id="Layer_1" data-name="Layer 1" viewBox="0 0 24 24">
  <path d="M8.898,9.898l-.707-.707,2.756-2.756c.58-.58,1.524-.58,2.105,0l2.756,2.757-.707,.707-2.602-2.602v6.704h-1V7.296l-2.602,2.602Zm15.102,6.102v2.5c0,1.378-1.122,2.5-2.5,2.5H2.5c-1.378,0-2.5-1.122-2.5-2.5v-2.5H2V3H22v13h2Zm-21,0h5.707l1,1h4.586l1-1h5.707V4H3v12Zm20,1h-7.293l-1,1h-5.414l-1-1H1v1.5c0,.827,.673,1.5,1.5,1.5H21.5c.827,0,1.5-.673,1.5-1.5v-1.5Z"/>
</svg>
