<svg id="Layer_1" viewBox="0 0 24 24" xmlns="http://www.w3.org/2000/svg" data-name="Layer 1"><path d="m21.5 0h-19c-1.378 0-2.5 1.122-2.5 2.5v19.5h10.587c-.131-.323-.237-.658-.325-1h-9.262v-13h22v4.76c.361.29.694.613 1 .96v-11.22c0-1.378-1.121-2.5-2.5-2.5zm-20.5 7v-4.5c0-.827.673-1.5 1.5-1.5h19c.827 0 1.5.673 1.5 1.5v4.5zm4-3c0 .552-.448 1-1 1s-1-.448-1-1 .448-1 1-1 1 .448 1 1zm3 0c0 .552-.448 1-1 1s-1-.448-1-1 .448-1 1-1 1 .448 1 1zm3 0c0 .552-.448 1-1 1s-1-.448-1-1 .448-1 1-1 1 .448 1 1zm13 15c0 1.88-.912 3.634-2.38 4.8l-2.228-2.187.701-.714 1.547 1.519c.869-.924 1.359-2.146 1.359-3.418 0-2.757-2.243-5-5-5s-5 2.243-5 5c0 1.271.49 2.492 1.357 3.416l1.533-1.527.705.709-2.213 2.204c-1.47-1.166-2.396-2.921-2.383-4.802 0-3.309 2.691-6 6-6s6 2.821 6 6zm-5.049-.244c.021.08.049.157.049.244 0 .552-.448 1-1 1s-1-.448-1-1 .448-1 1-1c.086 0 .164.029.244.049l1.903-1.903.707.707z"/></svg>