<?xml version="1.0" encoding="UTF-8"?>
<svg xmlns="http://www.w3.org/2000/svg" id="Layer_1" data-name="Layer 1" viewBox="0 0 24 24">
  <path d="m19,23v-3.74c-2.574-2.059-3.914-4.952-3.995-9.26h1.995v-1h-2.357c.832-.734,1.357-1.806,1.357-3,0-1.216-1.06-2.869-2.085-4.467l-.479-.754c-.306-.488-.833-.779-1.41-.779s-1.104.291-1.41.779c-.182.291-.378.593-.578.901-1.002,1.543-2.038,3.138-2.038,4.32,0,1.194.526,2.266,1.357,3h-2.357v1h1.995c-.081,4.308-1.421,7.201-3.995,9.26v3.74h-2v1h18v-1h-2ZM9,6c0-.886,1.041-2.488,1.876-3.776.203-.312.402-.62.587-.914.124-.197.328-.31.562-.31s.439.113.562.31l.485.762c.858,1.339,1.927,3.004,1.927,3.928,0,1.654-1.346,3-3,3s-3-1.346-3-3Zm.996,4h4.008c.047,2.867.541,6.289,3.198,9H6.798c2.657-2.711,3.151-6.133,3.198-9Zm8.004,13H6v-3h12v3Z"/>
</svg>
