<svg id="Layer_1" viewBox="0 0 24 24" xmlns="http://www.w3.org/2000/svg" data-name="Layer 1"><path d="m23.737 17.393-2.32-6.186 2.564-2.564-.707-.707-3.065 3.065h-1.947l.235-4.415 1.393-4.691c-.997-1.199-2.384-1.894-3.881-1.895-1.5.02-2.902.698-3.901 1.904l1.396 4.682.24 4.414h-2.744v-5h-1v-4.95c0-.364-.186-.698-.5-.894-.313-.191-.694-.208-1.015-.044l-1.641.821c-.521.259-.844.78-.844 1.362v3.705h-1v5h-2.354l-2.389 6.41c-.171.511-.257 1.043-.257 1.583 0 2.761 2.246 5.007 5.007 5.007h13.986c2.761 0 5.007-2.246 5.007-5.007 0-.54-.086-1.072-.263-1.601zm-10.508-15.226c.767-.755 1.73-1.166 2.749-1.166h.031c.982 0 1.988.4 2.759 1.156l-1.142 3.844h-3.254zm4.244 4.834-.212 4h-2.515l-.218-4zm-10.473-4.705c0-.199.111-.379.29-.468l1.71-.778v4.951h-2zm-1 4.705h4v4h-4zm12.993 15.999h-13.986c-2.209 0-4.007-1.798-4.007-4.007 0-.432.069-.857.2-1.25l2.14-5.743h17.306l2.148 5.726c.136.409.206.835.206 1.267 0 2.209-1.797 4.007-4.007 4.007z"/></svg>