<svg id="Layer_1" viewBox="0 0 24 24" xmlns="http://www.w3.org/2000/svg" data-name="Layer 1"><path d="m18 12c-3.309 0-6 2.691-6 6s2.691 6 6 6 6-2.691 6-6-2.691-6-6-6zm0 11c-2.757 0-5-2.243-5-5s2.243-5 5-5 5 2.243 5 5-2.243 5-5 5zm-5.5-12.104c0 2.371-1.512 4.468-3.761 5.218l-2.581.86-.316-.948 2.581-.86c1.841-.614 3.077-2.33 3.077-4.27v-10.896h1zm4.5 9.104c0 .552-.448 1-1 1s-1-.448-1-1 .448-1 1-1 1 .448 1 1zm0-6c-1.103 0-2 .897-2 2s.897 2 2 2 2-.897 2-2-.897-2-2-2zm0 3c-.552 0-1-.449-1-1s.448-1 1-1 1 .449 1 1-.448 1-1 1zm3.5.5c-.827 0-1.5.673-1.5 1.5s.673 1.5 1.5 1.5 1.5-.673 1.5-1.5-.673-1.5-1.5-1.5zm0 2c-.275 0-.5-.224-.5-.5s.225-.5.5-.5.5.224.5.5-.225.5-.5.5zm-3.525-14.5h-1.975v-1h1.975c2.212 0 4.104 1.505 4.602 3.661l.848 3.676c-.371-.247-.764-.46-1.175-.643l-.648-2.809c-.393-1.699-1.884-2.885-3.627-2.885zm-6.975 13c0 .686.096 1.349.258 1.984-.71 1.266-1.834 2.301-3.22 2.889l-2.175.922c-.414.14-.805.204-1.195.205-1.96.035-3.715-1.694-3.668-3.669 0-1.438.164-2.876.487-4.276l1.937-8.394c.498-2.155 2.39-3.661 4.602-3.661h1.975v1h-1.975c-1.743 0-3.234 1.187-3.627 2.885l-1.937 8.395c-.307 1.327-.462 2.689-.462 4.051-.035 1.437 1.243 2.694 2.666 2.669.284 0 .568-.047.844-.139l2.138-.909c1.692-.718 2.989-2.199 3.353-3.952z"/></svg>