<svg id="Layer_1" viewBox="0 0 24 24" xmlns="http://www.w3.org/2000/svg" data-name="Layer 1"><path d="m12 21v3h-1v-3c0-1.103-.897-2-2-2h-6c-1.103 0-2 .897-2 2v3h-1v-3c0-1.654 1.346-3 3-3h6c1.654 0 3 1.346 3 3zm-10-9c0-2.206 1.794-4 4-4s4 1.794 4 4-1.794 4-4 4-4-1.794-4-4zm1 0c0 1.654 1.346 3 3 3s3-1.346 3-3-1.346-3-3-3-3 1.346-3 3zm21-5.5c0 3.584-2.916 6.5-6.5 6.5s-6.5-2.916-6.5-6.5 2.916-6.5 6.5-6.5 6.5 2.916 6.5 6.5zm-1 0c0-3.033-2.467-5.5-5.5-5.5s-5.5 2.467-5.5 5.5 2.467 5.5 5.5 5.5 5.5-2.467 5.5-5.5zm-1.407.5h-3.593v3h-1v-3h-3.587l3.075-3.584c.266-.268.622-.416 1-.416h.002c.378 0 .733.146 1 .413l3.102 3.588zm-6.005-1h3.82l-1.648-1.907c-.053-.051-.157-.094-.269-.094-.106 0-.207.04-.283.111z"/></svg>