<svg id="Layer_1" viewBox="0 0 24 24" xmlns="http://www.w3.org/2000/svg" data-name="Layer 1"><path d="m23 16v-4h-1.011c-.235 1.21-1.103 2.016-2.489 2h-3.5c-1.103 0-2 .897-2 2v2c0 .729.398 1.362.982 1.712l1.636 4.288h.906c1.119.035 1.952-1.232 1.473-2.245l-.677-1.755h1.181c1.386-.016 2.254.79 2.489 2h1.01v-4c.551 0 1-.449 1-1s-.449-1-1-1zm-4.932 6.125c.203.386-.107.888-.544.875h-.217l-1.146-3h1.086l.82 2.125zm3.932-2.202c-.614-.594-1.479-.923-2.499-.923h-3.5c-.552 0-1-.448-1-1v-2c0-.552.447-1 .999-1h3.5c1.021 0 1.886-.329 2.5-.924zm-9.797 3.067c-.556-.584-2.672-2.925-4.032-5.99h3.83v-1h-4.233c-.461-1.262-.768-2.615-.768-4s.308-2.737.769-4h8.464c.461 1.262.768 2.615.768 4h1c0-1.391-.281-2.738-.705-4h4.937c.251.641.449 1.308.577 2h1.01c-.957-5.666-5.886-10-11.82-10-6.617 0-12 5.383-12 12s5.383 12 12 12c.817 0 1.615-.083 2.386-.24l-.364-.955c-.591.11-1.199.172-1.819.184zm-4.031-15.99c1.228-2.765 3.07-4.942 3.828-5.771.759.829 2.602 3.005 3.829 5.771h-7.658zm13.606 0h-4.855c-1.083-2.631-2.721-4.773-3.718-5.927 3.747.411 6.925 2.711 8.574 5.927zm-10.978-5.931c-.997 1.153-2.638 3.297-3.722 5.931h-4.864c1.651-3.218 4.835-5.522 8.586-5.931zm-9.036 6.931h4.941c-.424 1.262-.705 2.609-.705 4s.281 2.738.705 4h-4.941c-.487-1.242-.764-2.588-.764-4s.277-2.758.764-4zm.45 9h4.864c1.084 2.635 2.724 4.778 3.722 5.931-3.751-.409-6.934-2.714-8.585-5.931z"/></svg>