<svg id="Layer_1" viewBox="0 0 24 24" xmlns="http://www.w3.org/2000/svg" data-name="Layer 1"><path d="m4 0v21.5c0 1.378 1.122 2.5 2.5 2.5h11c1.378 0 2.5-1.122 2.5-2.5v-21.5zm15 21.5c0 .827-.673 1.5-1.5 1.5h-11c-.827 0-1.5-.673-1.5-1.5v-3.5h14zm0-4.5h-14v-16h14zm-5 4h-4v-1h4zm-.504-8.51.94.339c-.152.423-.778 1.553-1.375 2.292l-.778-.628c.521-.646 1.098-1.686 1.212-2.003zm1.504-3.526c0 .561 0 1.499-.207 2.56l-.981-.191c.188-.966.188-1.844.188-2.368 0-1.083-.881-1.964-1.964-1.964-.557 0-1.09.239-1.462.655l-.745-.667c.562-.628 1.367-.988 2.208-.988 1.634 0 2.964 1.33 2.964 2.964zm-8 4.478v-1c.082 0 2.006-.039 2.006-3.446 0-.159.014-.314.039-.467l.986.166c-.017.098-.025.198-.025.301 0 3.517-1.966 4.446-3.006 4.446zm1-3.442h-1v-1c0-2.757 2.252-5 5.021-5 1.086 0 2.12.345 2.988.999l-.602.799c-.693-.521-1.519-.797-2.387-.797-2.217 0-4.021 1.794-4.021 4v1zm7.021 4.223c.979-2.103.979-4.304.979-5.244 0-.607-.134-1.19-.397-1.732l.899-.438c.331.68.498 1.41.498 2.17 0 1.006 0 3.363-1.073 5.666zm-5.545.933-.528-.849c2.647-1.647 2.589-3.833 2.558-5.008l-.005-.299c0-.276.224-.5.5-.5s.5.224.5.5l.005.272c.031 1.177.104 3.934-3.03 5.883z"/></svg>