<svg id="Layer_1" viewBox="0 0 24 24" xmlns="http://www.w3.org/2000/svg" data-name="Layer 1"><path d="m19.806 23h2.473l-4.779-8.193-4.779 8.193h2.473v1h-4.214l6.521-11.178 6.521 11.178h-4.214v-1zm-1.806-5h-1v3h1zm-.5 4c-.552 0-1 .448-1 1s.448 1 1 1 1-.448 1-1-.448-1-1-1zm-13.5-17c.552 0 1-.448 1-1s-.448-1-1-1-1 .448-1 1 .448 1 1 1zm3 0c.552 0 1-.448 1-1s-.448-1-1-1-1 .448-1 1 .448 1 1 1zm3 0c.552 0 1-.448 1-1s-.448-1-1-1-1 .448-1 1 .448 1 1 1zm-.5 14v-2h-1v2zm-7.224 2c.126.353.28.693.485 1h-2.761v-19.5c0-1.379 1.122-2.5 2.5-2.5h19c1.378 0 2.5 1.121 2.5 2.5v17.496l-1-1.714v-10.282h-22v13zm-1.276-18.5v4.5h22v-4.5c0-.827-.673-1.5-1.5-1.5h-19c-.827 0-1.5.673-1.5 1.5zm5.5 18.5h3.914l-.583 1h-3.331c-1.378 0-2.5-1.121-2.5-2.5v-5.5h2v-1c0-1.654 1.346-3 3-3s3 1.346 3 3v1h2v.852l-1 1.714v-1.567h-8v4.5c0 .827.673 1.5 1.5 1.5zm.5-7h4v-1c0-1.103-.897-2-2-2s-2 .897-2 2z"/></svg>