<svg id="Layer_1" viewBox="0 0 24 24" xmlns="http://www.w3.org/2000/svg" data-name="Layer 1"><path d="m24 23.292-7.43-7.431c1.518-1.686 2.451-3.909 2.451-6.351 0-5.244-4.267-9.51-9.511-9.51s-9.51 4.266-9.51 9.51 4.266 9.51 9.51 9.51c2.442 0 4.665-.933 6.351-2.452l7.43 7.431.708-.708zm-14.49-5.273c-4.692 0-8.509-3.817-8.509-8.509s3.818-8.509 8.509-8.509 8.509 3.817 8.509 8.509-3.818 8.509-8.509 8.509zm3.536-11.212c0 .11-.09.2-.2.2h-.766c-.267-1.174-1.385-2.003-2.57-2.002-1.162-.003-2.271.81-2.571 2.002h-.763c-.11 0-.2-.09-.2-.2v-1.802h-1.001v1.802c0 .662.539 1.201 1.201 1.201h.511l-.252 1.001h-1.461v1.001h1.209c-.09.32-.094.68-.04 1.014-.632.035-1.138.549-1.138 1.189v1.802h1.001v-1.802c0-.11.09-.2.2-.2h.187c.522 1.187 1.704 2 3.117 2.002 1.409-.002 2.59-.814 3.113-2.002h.19c.11 0 .2.09.2.2v1.802h1.001v-1.802c0-.64-.507-1.155-1.139-1.189.055-.333.053-.688-.039-1.014h1.209v-1.001h-1.462l-.253-1.001h.513c.663 0 1.201-.539 1.201-1.201v-1.802h-1.001v1.802zm-3.535 6.207c-1.346-.001-2.402-1.041-2.404-2.356.002-.109.004-.215.021-.297l.814-3.248c.242-.661.873-1.106 1.567-1.107.696 0 1.327.446 1.553 1.057l.827 3.286c.02.101.022.203.023.299-.002 1.325-1.058 2.365-2.402 2.366z"/></svg>