<svg id="Layer_1" viewBox="0 0 24 24" xmlns="http://www.w3.org/2000/svg" data-name="Layer 1"><path d="m21.5 0h-6c-1.379 0-2.5 1.122-2.5 2.5v21.5h11v-21.5c0-1.378-1.121-2.5-2.5-2.5zm1.5 23h-9v-20.5c0-.827.673-1.5 1.5-1.5h6c.827 0 1.5.673 1.5 1.5zm-5-19h1v4h-1zm0 6h1v4h-1zm0 6h1v4h-1zm-18-16v12.09c2.3.502 4.01 2.543 4 4.91v7h3v-7c0-2.414 1.721-4.435 4-4.899v-1.01c-2.833.478-5 2.942-5 5.91v6h-1v-6c0-2.541-1.627-4.813-4-5.653v-6.348h10v-1h-1v-3h1.262c.126-.355.291-.692.497-1zm1 1h3v3h-3zm8 3h-4v-3h4z"/></svg>