<svg id="Layer_1" viewBox="0 0 24 24" xmlns="http://www.w3.org/2000/svg" data-name="Layer 1"><path d="m14.618 9.239c-.294-.253-.694-.312-1.047-.149-.352.161-.571.502-.571.889v12.052l3.521-3.197 2.572 5.07 2.675-1.356-2.464-4.858 4.348-.65-9.034-7.8zm5.806 12.869-.892.452-2.713-5.349-2.824 2.564-.032-9.78 7.384 6.376-3.563.533 2.639 5.203zm-15.424-8.108v-10h1v10zm19-11.5v12.198l-1-.863v-11.335c0-.827-.673-1.5-1.5-1.5h-19c-.827 0-1.5.673-1.5 1.5v14.5h10v1h-11v-15.5c0-1.378 1.122-2.5 2.5-2.5h19c1.378 0 2.5 1.122 2.5 2.5z"/></svg>