<svg id="Layer_1" viewBox="0 0 24 24" xmlns="http://www.w3.org/2000/svg" data-name="Layer 1"><path d="m22.867 3.33c-1.213-1.865-3.152-3.065-5.319-3.291-2.165-.225-4.292.527-5.831 2.068-.208.209-.397.431-.576.66l-3.021-.697c-.933-.214-1.893.061-2.568.737l-2.744 2.743c-.676.676-.952 1.637-.737 2.568l.699 3.029c-.645.508-1.212 1.125-1.673 1.848-1.467 2.3-1.452 5.384.036 7.673 1.347 2.083 3.636 3.338 6.076 3.332 1.899 0 3.715-.748 5.075-2.108.208-.209.397-.431.576-.66l3.021.697c.208.048.418.071.626.071.721 0 1.417-.283 1.942-.809l2.744-2.743c.676-.676.952-1.636.737-2.567l-.7-3.03c.646-.508 1.212-1.126 1.673-1.849 1.467-2.299 1.453-5.383-.037-7.673zm-19.822 4.565c-.137-.594.039-1.206.469-1.637l2.745-2.743c.43-.432 1.039-.609 1.636-.47l2.651.612c-.14.249-.271.503-.381.769-.842 2.027-3.341 4.861-5.424 5.618-.378.137-.74.305-1.085.5l-.612-2.65zm17.91 8.211c.137.594-.039 1.205-.469 1.636l-2.744 2.743c-.431.432-1.04.607-1.637.47l-2.652-.612c.14-.249.271-.503.381-.769.842-2.027 3.341-4.861 5.424-5.618.378-.137.739-.305 1.084-.5l.612 2.651zm1.106-5.64c-.765 1.2-1.852 2.082-3.143 2.551-2.425.881-5.063 3.903-6.007 6.175-.31.746-.759 1.417-1.335 1.994-1.325 1.327-3.157 1.975-5.02 1.781-1.866-.195-3.537-1.231-4.585-2.843-1.279-1.967-1.292-4.615-.032-6.591.765-1.199 1.852-2.081 3.143-2.55 2.425-.881 5.064-3.903 6.007-6.175.31-.746.759-1.417 1.335-1.994 1.17-1.172 2.733-1.815 4.368-1.815 2.102-.005 4.072 1.077 5.236 2.876 1.279 1.967 1.292 4.616.032 6.591z"/></svg>