<?xml version="1.0" encoding="UTF-8"?>
<svg xmlns="http://www.w3.org/2000/svg" id="Layer_1" data-name="Layer 1" viewBox="0 0 24 24">
  <path d="M19.205-.013s-.005,.01-.007,.013h-.005l.012-.013Zm.795,2.057V11h4v6.091l-.364,.104c-2.141,.605-3.636,2.582-3.636,4.806v2h-3v-2c0-2.757-2.243-5-5-5s-5,2.243-5,5v2h-3v-2c0-2.224-1.495-4.2-3.636-4.806l-.364-.104v-6.091H4V2.044c-.774,.868-2.058,1.942-4,2.527v-1.052C2.858,2.542,4.134,.117,4.193,0h.614c.077,.151,2.088,4,7.193,4,5.047,0,7.078-3.767,7.198-4h.608c.06,.117,1.335,2.542,4.193,3.519v1.052c-1.942-.585-3.226-1.659-4-2.527ZM5,11h6.5V4.966c-3.386-.151-5.436-1.725-6.5-2.923V11Zm18,1H1v4.348c2.374,.84,4,3.111,4,5.652v1h1v-1c0-3.309,2.691-6,6-6s6,2.691,6,6v1h1v-1c0-2.541,1.626-4.812,4-5.652v-4.348Zm-4-1V2.044c-1.064,1.198-3.114,2.772-6.5,2.923v6.034h6.5Z"/>
</svg>
