<?xml version="1.0" encoding="UTF-8"?>
<svg xmlns="http://www.w3.org/2000/svg" id="Layer_1" data-name="Layer 1" viewBox="0 0 24 24">
  <path d="M6.483,9.724l1.767-1.767,3.002,2.994,2.157,3.848,2.389-2.389-3.839-2.167-3.001-2.993,1.768-1.768L5.829,.611C5.048-.168,3.78-.168,3,.611l-1.414,1.415c-.776,.745-.776,2.084,0,2.829l4.896,4.869ZM2.293,2.732l1.414-1.415c.39-.39,1.025-.389,1.416,0l4.187,4.165-2.828,2.828L2.293,4.146c-.388-.372-.388-1.042,0-1.414Zm21.707,15.268c0,2.206-1.794,4-4,4-2.934,0-6.579-1.218-9.796-2.292-2.63-.878-5.115-1.708-6.704-1.708-1.378,0-2.5,1.122-2.5,2.5s1.122,2.5,2.5,2.5h1.5v1h-1.5c-1.93,0-3.5-1.57-3.5-3.5s1.57-3.5,3.5-3.5c1.751,0,4.311,.854,7.021,1.76,3.145,1.05,6.709,2.24,9.479,2.24,1.654,0,3-1.346,3-3s-1.346-3-3-3h-3.964l1-1h2.964c2.206,0,4,1.794,4,4Z"/>
</svg>
