<svg id="Layer_1" viewBox="0 0 24 24" xmlns="http://www.w3.org/2000/svg" data-name="Layer 1"><path d="m16.5 10c-.568 0-1.085.359-1.503 1.027-.391-.632-.892-1.027-1.497-1.027-.57 0-1.084.363-1.5 1.03-.391-.634-.893-1.03-1.5-1.03-.57 0-1.084.363-1.5 1.03-.391-.634-.893-1.03-1.5-1.03-1.624 0-2.5 2.833-2.5 5.5s.876 5.5 2.5 5.5c.605 0 1.107-.395 1.497-1.027.417.667.935 1.027 1.503 1.027.605 0 1.107-.395 1.497-1.027.417.667.935 1.027 1.503 1.027.605 0 1.107-.395 1.497-1.027.417.667.935 1.027 1.503 1.027 1.624 0 2.5-2.834 2.5-5.5s-.876-5.5-2.5-5.5zm-9 10c-.612 0-1.5-1.753-1.5-4.5s.888-4.5 1.5-4.5 1.5 1.753 1.5 4.5-.888 4.5-1.5 4.5zm3 0c-.303 0-.705-.454-.987-1.173.321-.976.487-2.167.487-3.327 0-1.142-.162-2.314-.473-3.281.342-.89.733-1.219.973-1.219.612 0 1.5 1.753 1.5 4.5s-.888 4.5-1.5 4.5zm3 0c-.303 0-.705-.454-.987-1.173.321-.976.487-2.167.487-3.327 0-1.142-.162-2.314-.473-3.281.342-.89.733-1.219.973-1.219.612 0 1.5 1.753 1.5 4.5s-.888 4.5-1.5 4.5zm3 0c-.303 0-.705-.454-.987-1.173.321-.976.487-2.167.487-3.327s-.166-2.351-.487-3.327c.282-.718.684-1.173.987-1.173.612 0 1.5 1.753 1.5 4.5s-.888 4.5-1.5 4.5zm3-20h-15c-1.378 0-2.5 1.122-2.5 2.5v21.5h20v-21.5c0-1.378-1.122-2.5-2.5-2.5zm1.5 23h-18v-15h18zm0-16h-18v-4.5c0-.827.673-1.5 1.5-1.5h15c.827 0 1.5.673 1.5 1.5zm-6-3c0 .552-.448 1-1 1s-1-.448-1-1 .448-1 1-1 1 .448 1 1zm-4 0c0 .552-.448 1-1 1s-1-.448-1-1 .448-1 1-1 1 .448 1 1z"/></svg>