<?xml version="1.0" encoding="UTF-8"?>
<svg xmlns="http://www.w3.org/2000/svg" id="Layer_1" data-name="Layer 1" viewBox="0 0 24 24">
  <path d="M14.13,17h9.87l-.008-3.996-1.974-11.004H2.5C1.121,2,0,3.122,0,4.5V14.5c0,1.378,1.121,2.5,2.5,2.5H6.985l2.775,4.389c.324,.658,.823,1.152,1.405,1.392,.361,.148,.732,.221,1.096,.221,.783,0,1.532-.335,2.065-.965,.518-.61,.741-1.413,.599-2.261l-.796-2.776Zm-11.63-1c-.827,0-1.5-.673-1.5-1.5V4.5c0-.827,.673-1.5,1.5-1.5H7l.011,13H2.5Zm11.065,5.39c-.497,.584-1.289,.767-2.019,.466-.356-.147-.673-.47-.915-.956l-2.619-4.146-.012-13.754h13.182l1.817,10.092v2.908H12.804l1.148,3.994c.082,.501-.06,1.009-.387,1.396Z"/>
</svg>
