<?xml version="1.0" encoding="UTF-8"?>
<svg xmlns="http://www.w3.org/2000/svg" id="Layer_1" data-name="Layer 1" viewBox="0 0 24 24">
  <path d="M14,2c0-1.103-.897-2-2-2s-2,.897-2,2c0,.642,.309,1.207,.78,1.574L2.957,24h1.081l1.147-3h13.563l1.136,3h1.115L13.219,3.574c.472-.366,.781-.932,.781-1.574Zm-2-1c.552,0,1,.449,1,1s-.448,1-1,1-1-.449-1-1,.448-1,1-1Zm0,13.841l5.702,5.159H6.298l5.702-5.159Zm-6.029,4.106l2.716-7.102,2.567,2.322-5.283,4.78Zm6.774-4.78l2.544-2.302,2.652,7.002-5.195-4.701Zm-.746-.675l-2.754-2.492h5.509l-2.754,2.492Zm.311-9.492l2.272,6h-5.19l2.295-6h.623Zm3.689-2c0-.716-.202-1.397-.553-2h1.129c.273,.624,.424,1.299,.424,2,0,1.128-.391,2.187-1.075,3.061l-.435-1.142c.322-.584,.51-1.234,.51-1.919Zm2.707-2h1.028c.681,2.651-.006,5.585-2.078,7.657-.178,.178-.363,.342-.553,.5l-.381-1.001c.075-.069,.154-.132,.227-.205,1.878-1.878,2.464-4.566,1.757-6.95Zm3.084,0h1.017c.631,3.44-.376,7.124-3.03,9.778-.488,.488-1.015,.913-1.565,1.29l-.369-.968c.428-.309,.842-.644,1.226-1.029,2.46-2.46,3.364-5.893,2.72-9.071ZM6.343,7.657C4.271,5.585,3.584,2.651,4.264,0h1.028c-.706,2.383-.121,5.072,1.757,6.95,.071,.071,.147,.132,.22,.198l-.383,1c-.186-.155-.369-.317-.544-.491Zm-2.121,2.122C1.567,7.124,.56,3.44,1.191,0h1.017c-.644,3.179,.26,6.611,2.72,9.071,.381,.381,.791,.713,1.214,1.02l-.37,.967c-.545-.375-1.067-.796-1.55-1.28Zm3.849-4.722c-.682-.874-1.071-1.93-1.071-3.056,0-.701,.151-1.376,.424-2h1.129c-.351,.603-.553,1.284-.553,2,0,.683,.187,1.332,.508,1.915l-.437,1.141Z"/>
</svg>
