<svg id="Layer_1" viewBox="0 0 24 24" xmlns="http://www.w3.org/2000/svg" data-name="Layer 1"><path d="m14.5 12h1v-3h3.593l-3.102-3.588c-.267-.266-.622-.413-1-.413h-.002c-.379 0-.734.148-1 .416l-3.075 3.584h3.587v3zm.208-5.89c.076-.071.176-.111.283-.111.112 0 .216.042.269.094l1.648 1.907h-3.82zm.292-6.11c-2.685 0-4.284 1.217-5.695 2.29-1.206.917-2.247 1.71-3.805 1.71h-1.5v-4h-3v4c0 1.654 1.346 3 3 3 2.131 0 3 .869 3 3v4c0 2.131-.869 3-3 3-1.654 0-3 1.346-3 3v4h3v-4h1c1.463 0 2.348.688 3.468 1.559 1.472 1.145 3.14 2.441 6.532 2.441 2.126 0 4.119-.747 5.612-2.104 1.54-1.399 2.388-3.315 2.388-5.396v-9c0-4.206-3.515-7.5-8-7.5zm-11 6c-1.103 0-2-.897-2-2v-3h1v3c0 .551.449 1 1 1h1.5c1.895 0 3.174-.973 4.411-1.914 1.348-1.025 2.741-2.086 5.089-2.086 3.925 0 7 2.855 7 6.5v6.21c-.621.347-2.468 1.29-4.252 1.29-1.108 0-1.988-.234-2.92-.483-.953-.254-1.939-.517-3.178-.517-1.466 0-2.822.365-3.693.664.02-.215.043-.428.043-.664v-4c0-2.691-1.309-4-4-4zm15.94 15.156c-1.309 1.188-3.063 1.844-4.94 1.844-3.049 0-4.507-1.134-5.918-2.23-1.17-.91-2.276-1.77-4.082-1.77h-1c-.551 0-1 .448-1 1v3h-1v-3c0-1.103.897-2 2-2 1.992 0 3.221-.721 3.729-2.184.653-.262 2.23-.816 3.921-.816 1.108 0 1.988.234 2.92.483.953.254 1.939.517 3.178.517 1.672 0 3.322-.692 4.252-1.16v1.66c0 1.795-.731 3.449-2.06 4.656z"/></svg>