<?xml version="1.0" encoding="UTF-8"?>
<svg xmlns="http://www.w3.org/2000/svg" id="Layer_1" data-name="Layer 1" viewBox="0 0 24 24">
  <path d="M24,9.512c0,2.92-1.396,5.583-3.831,7.305-1.418,1.002-2.483,2.271-3.081,3.67-.496,1.162-1.364,2.12-2.509,2.77-.855,.486-1.835,.739-2.809,.739-.403,0-.805-.043-1.196-.131-1.473-.332-2.554-1.132-3.304-2.117,.235-.244,.464-.492,.677-.749,.623,.883,1.559,1.601,2.847,1.891,1.095,.248,2.296,.064,3.291-.501,.953-.542,1.674-1.334,2.083-2.293,.671-1.57,1.854-2.985,3.423-4.094,2.198-1.555,3.409-3.859,3.409-6.489,0-2.417-1.034-4.728-2.838-6.34-1.828-1.634-4.189-2.384-6.649-2.104-2.001,.225-3.958,1.409-5.372,3.034-.209-.264-.437-.518-.67-.769C9.033,1.581,11.171,.325,13.401,.074c2.743-.311,5.383,.527,7.427,2.353,2.016,1.802,3.172,4.384,3.172,7.085Zm-12,5.488v1c1.654,0,3-1.346,3-3,0-.801-.312-1.555-.879-2.122-.566-.566-1.319-.878-2.12-.878h-1.19c.061,.332,.108,.665,.144,1h1.046c.534,0,1.036,.208,1.413,.585,.378,.378,.586,.88,.586,1.415,0,1.103-.897,2-2,2Zm8-5v-.488c0-3.033-2.468-5.5-5.5-5.5-2.02,0-3.784,1.098-4.74,2.724,.195,.417,.367,.842,.517,1.274,.622-1.741,2.271-2.998,4.223-2.998,2.481,0,4.5,2.019,4.5,4.5v.488h1ZM1.438,8.602l-.707,.707c1.721,1.721,1.721,4.52,0,6.241l.707,.707c2.11-2.11,2.11-5.544,0-7.655Zm2.109-2.109l-.707,.707c2.883,2.883,2.883,7.575,0,10.458l.707,.707c3.273-3.273,3.273-8.599,0-11.873Zm2.115-2.115l-.707,.707c4.049,4.049,4.049,10.638,0,14.688l.707,.707c4.439-4.439,4.439-11.663,0-16.102Z"/>
</svg>
