<svg id="Layer_1" viewBox="0 0 24 24" xmlns="http://www.w3.org/2000/svg" data-name="Layer 1"><path d="m24 11.5v12.5h-24v-12.5c0-1.379 1.122-2.5 2.5-2.5h9.001l.025-9 1 .002-.025 8.999h2.087l.839 1h-12.927c-.827 0-1.5.673-1.5 1.5v11.5h22v-11.501c0-.162-.032-.315-.08-.461l.805-.656c.17.338.275.714.275 1.117zm-5.108-5.992-2.715-2.293.646-.764 2.177 1.839v-4.29h.803l3.632 3.001-2.99 2.509 2.992 2.527-3.636 2.963h-.801v-4.278l-2.179 1.828-.643-.766 2.713-2.276zm1.108-.93 1.873-1.571-1.873-1.547zm0 4.97 1.871-1.524-1.871-1.58zm-13 3.452h-3v1h3zm5 0h-3v1h3zm8 0h-6v1h6zm0 3h-6v1h6zm-11 1h3v-1h-3zm-2-1h-3v1h3zm-3 4h2v-1h-2zm4 0h8v-1h-8zm12 0v-1h-2v1z"/></svg>