<svg id="Layer_1" viewBox="0 0 24 24" xmlns="http://www.w3.org/2000/svg" data-name="Layer 1"><path d="m2.869 5.958c-.237.654-.369 1.338-.369 2.042 0 3.309 2.691 6 6 6s6-2.691 6-6c0-.564-.086-1.12-.241-1.659l.642-2.294c.174-.518.119-1.01-.159-1.422-.271-.403-.704-.649-1.168-.675l-4.574-.464v-1.486h-1v1.385l-3.668-.372c-.693-.044-1.38.273-1.837.847-.46.576-.609 1.314-.394 2.064l.768 2.033zm5.631 7.042c-2.757 0-5-2.243-5-5 0-.336.038-.676.104-1h9.785c.065.326.111.665.111 1 0 2.757-2.243 5-5 5zm-5.224-10.516c.251-.314.631-.504.975-.474l9.245.937c.173.01.321.094.418.237.101.149.113.328.033.57l-.632 2.256h-9.358l-.907-2.398c-.112-.396-.03-.806.226-1.127zm13.724 17.516c0 .552-.448 1-1 1s-1-.448-1-1 .448-1 1-1 1 .448 1 1zm0-4c0 .552-.448 1-1 1s-1-.448-1-1 .448-1 1-1 1 .448 1 1zm4 0c0 .552-.448 1-1 1s-1-.448-1-1 .448-1 1-1 1 .448 1 1zm-3-4c-3.309 0-6 2.691-6 6s2.687 6 6 6c.291 0 .7-.045 1-.074v-3.384c0-.826.627-1.502 1.437-1.54.611-.04 1.218.346 1.456.942.132.33.438.537.8.54.389.014.68-.196.805-.495.291-.694.494-1.422.494-2.205 0-3.237-2.729-5.784-5.992-5.784zm4.692 7.3c-.46-.837-1.382-1.374-2.312-1.296-1.335.062-2.381 1.177-2.381 2.538v2.458c-2.757 0-5-2.243-5-5s2.243-5 5-5c2.719 0 4.911 2.114 4.993 4.774-.026.52-.127 1.031-.301 1.525zm-12.429-3.3c-.084.326-.15.66-.195 1h-5.568c-1.93 0-3.5 1.57-3.5 3.5v3.5h-1v-3.5c0-2.481 2.019-4.5 4.5-4.5z"/></svg>