<?xml version="1.0" encoding="UTF-8"?>
<svg xmlns="http://www.w3.org/2000/svg" id="Layer_1" data-name="Layer 1" viewBox="0 0 24 24">
  <path d="M21.09,11.005l-7.629-.005-4.46,4.663v4.21l3.701,4.127h8.339l2.98-5.349-2.93-7.646Zm-.638,11.995h-7.305l-3.147-3.51v-3.427l3.887-4.063,6.515,.005,2.517,6.568-2.467,4.427ZM11,4.04L5.222-.022,0,3.241v6.703l7.07,2.571,3.93-3.275V4.04Zm-1,4.731l-3.128,2.607L1,9.243V3.796L5.19,1.177l4.81,3.383v4.212Zm-3-2.742l-1.788-1.257,.575-.818,2.212,1.556v2.49h-1v-1.971Zm13.634,2.971l3.366-3.33L21.989,0h-5.55l-3.277,4.096,3.719,4.904h3.753ZM16.919,1h4.364l1.562,4.406-2.623,2.594h-2.845l-2.948-3.889,2.49-3.111ZM0,16.713v3.38l3.36,1.644,2.768-3.321-2.334-3.38-3.793,1.678Zm3.094,3.779l-2.094-1.024v-2.104l2.44-1.078,1.432,2.073-1.778,2.134Zm13.906,.508h-2.916l-2.132-2.378,.744-.668,1.834,2.046h2.469v1Z"/>
</svg>
