<svg id="Layer_1" viewBox="0 0 24 24" xmlns="http://www.w3.org/2000/svg" data-name="Layer 1"><path d="m10.357 18.797 2.119 1.179c-.158.009-.315.024-.476.024-4.411 0-8-3.589-8-8v-4c0-4.411 3.589-8 8-8s8 3.589 8 8v2.5h-6v-1h5v-1.5c0-.34-.033-.672-.08-1h-4.92v-1h4.705c-.863-2.888-3.541-5-6.705-5s-5.842 2.112-6.705 5h4.705v1h-4.92c-.047.328-.08.66-.08 1v1.5h5v1h-5v1.5c0 .341.039.672.086 1h4.914v1h-4.686c.711 2.365 2.625 4.212 5.043 4.797zm-9.357-5.797h-1c0 6.065 4.892 11 10.905 11h.804l.32-1h-1.124c-5.461 0-9.905-4.486-9.905-10zm23 4.416-3.3 1.91 1.327 4.031-.753.52-3.26-2.521-3.272 2.531-.725-.54 1.305-4.077-3.322-1.848v-.923h4.35l1.178-4.5h.971l1.176 4.5h4.326v.916zm-2.141.084h-2.957l-.89-3.404-.892 3.404h-2.926l2.328 1.296-1.041 3.255 2.532-1.958 2.529 1.955-1.047-3.181 2.362-1.367z"/></svg>