<svg id="Layer_1" viewBox="0 0 24 24" xmlns="http://www.w3.org/2000/svg" data-name="Layer 1"><path d="m21 12c1.103 0 2-.897 2-2s-.897-2-2-2-2 .897-2 2 .897 2 2 2zm0-3c.552 0 1 .449 1 1s-.448 1-1 1-1-.449-1-1 .448-1 1-1zm-13 1c-2.206 0-4 1.794-4 4s1.794 4 4 4 4-1.794 4-4-1.794-4-4-4zm0 7c-1.654 0-3-1.346-3-3s1.346-3 3-3 3 1.346 3 3-1.346 3-3 3zm4.575-17h-9.15c-1.098 0-2.081.728-2.391 1.771-.472 1.583-1.034 4.122-1.034 7.229.084 6.51 1.935 14.279 2.104 15h11.792c.166-.72 2.021-8.491 2.104-15 0-3.104-.562-5.644-1.033-7.229-.311-1.043-1.294-1.771-2.392-1.771zm-10.583 2.056c.186-.622.775-1.056 1.434-1.056h9.149c.659 0 1.249.435 1.433 1.056.228.765.477 1.762.669 2.944h-13.354c.192-1.182.441-2.18.669-2.944zm11.109 20.944h-10.202c-.384-1.723-1.899-8.846-1.899-14 0-1.078.072-2.082.183-3h13.634c.111.918.183 1.922.183 3 0 5.154-1.516 12.277-1.899 14zm8.228-5.89c.111-.269.171-.56.171-.86 0-1.241-1.01-2.25-2.25-2.25s-2.25 1.009-2.25 2.25c0 .754.386 1.43.973 1.84-.6.628-.973 1.475-.973 2.41 0 1.93 1.57 3.5 3.5 3.5s3.5-1.57 3.5-3.5c0-1.643-1.142-3.015-2.671-3.39zm-2.079-2.11c.689 0 1.25.561 1.25 1.25 0 .29-.113.558-.295.78-.479.041-.927.175-1.332.391-.505-.165-.873-.625-.873-1.17 0-.689.561-1.25 1.25-1.25zm1.25 8c-1.379 0-2.5-1.122-2.5-2.5s1.121-2.5 2.5-2.5 2.5 1.122 2.5 2.5-1.121 2.5-2.5 2.5z"/></svg>