<svg id="Layer_1" viewBox="0 0 24 24" xmlns="http://www.w3.org/2000/svg" data-name="Layer 1"><path d="m10 20v1h-6v-1zm14 .763c0 1.785-1.458 3.237-3.25 3.237h-5.5c-1.792 0-3.25-1.452-3.25-3.237 0-2.853 2.198-5.744 4.686-6.541-.777-.614-1.686-1.574-1.686-2.722v-.5h6v.5c0 1.147-.909 2.108-1.686 2.722 2.488.797 4.686 3.688 4.686 6.541zm-6-6.839c.598-.362 1.587-1.106 1.901-1.924h-3.803c.314.818 1.304 1.562 1.901 1.924zm-.5 9.076v-1h-.432c-.909 0-1.568-.623-1.568-1.481h1c0 .458.474.481.568.481h1.863c.313 0 .568-.273.568-.608 0-.272-.172-.514-.418-.586l-2.436-.647c-.681-.202-1.146-.837-1.146-1.549 0-.887.703-1.608 1.568-1.608h.432v-.957c-2.269.364-4.5 3.11-4.5 5.719 0 1.234 1.01 2.237 2.25 2.237h2.25zm5.5-2.237c0-2.609-2.231-5.355-4.5-5.719v.957h.432c.895 0 1.568.645 1.568 1.5h-1c0-.369-.307-.5-.568-.5h-1.863c-.313 0-.568.273-.568.608 0 .272.172.514.418.586l2.436.647c.681.202 1.146.837 1.146 1.549 0 .887-.703 1.608-1.568 1.608h-.432v1h2.25c1.24 0 2.25-1.003 2.25-2.237zm-11-5.552c.296-.369.635-.72 1-1.058v-1.204h-.025c-.059-.61-.328-1.185-.782-1.603l-.484-.446 2.797-2.518c.594-.544 1.587-.496 2.112.116.134.149.219.323.282.502h1.1v-6.5c0-.827.673-1.5 1.5-1.5s1.5.673 1.5 1.5v6.5h1v-6.5c0-1.378-1.121-2.5-2.5-2.5s-2.5 1.122-2.5 2.5v4.997c-.918-.707-2.308-.658-3.167.144l-2.864 2.578-2.807-2.583c-.844-.795-2.25-.846-3.162-.139v-4.997c0-1.378-1.121-2.5-2.5-2.5s-2.5 1.122-2.5 2.5v11.231c0 .618.229 1.214.645 1.676l3.197 3.593h6.334c.07-.33.161-.663.278-1h-6.159l-2.908-3.263c-.25-.277-.387-.635-.387-1.006v-11.231c0-.827.673-1.5 1.5-1.5s1.5.673 1.5 1.5v7h.01c.003.574.198 1.153.597 1.627l3.075 3.179.719-.695-3.052-3.153c-.476-.566-.462-1.409.032-1.96.52-.61 1.524-.659 2.107-.12l4.026 3.704c.308.283.484.686.484 1.104v2.025zm-8 6.789v1h6.523c-.152-.318-.273-.651-.359-1z"/></svg>