<svg id="Layer_1" viewBox="0 0 24 24" xmlns="http://www.w3.org/2000/svg" data-name="Layer 1"><path d="m16.968 7.423c-.038.374-.114.737-.216 1.09l5.921 4.487h-19.435c-.344 0-.673.072-.979.193.724-1.534 1.744-3.031 3.061-4.453-.124-.375-.213-.765-.264-1.166-3.281 3.343-5.056 7.126-5.056 10.926 0 1.609.435 2.997.799 3.877.408.986 1.366 1.623 2.439 1.623h10.721c.094-1.078.915-2.013 2.041-2 1.126-.013 1.947.922 2.041 2h5.959v-11.249l-7.032-5.329zm6.032 15.577h-4.171c-.417-1.18-1.548-2-2.829-2s-2.411.82-2.829 2h-9.933c-.668 0-1.263-.395-1.516-1.006-.33-.796-.723-2.049-.723-3.494s.393-2.698.723-3.494c.253-.611.848-1.006 1.516-1.006h19.762zm-12-12c2.168 0 4-1.926 4-4.205 0-1.727-1.118-2.795-2.153-2.795-.546 0-.995.127-1.351.275.041-.631.216-1.582.851-2.288.589-.655 1.481-.987 2.653-.987v-1c-1.471 0-2.615.446-3.402 1.325-.849.948-1.062 2.167-1.104 2.95-.359-.148-.812-.275-1.359-.275-1.027 0-2.135 1.068-2.135 2.795 0 2.279 1.832 4.205 4 4.205zm-1.865-6c1.353.125 1.37.431 1.867.793.499-.371.512-.676 1.845-.793.39 0 1.153.542 1.153 1.795 0 1.708-1.402 3.205-3 3.205s-3-1.498-3-3.205c0-1.253.751-1.795 1.135-1.795zm-1.635 16c1.378 0 2.5-1.122 2.5-2.5s-1.122-2.5-2.5-2.5-2.5 1.122-2.5 2.5 1.122 2.5 2.5 2.5zm0-4c.827 0 1.5.673 1.5 1.5s-.673 1.5-1.5 1.5-1.5-.673-1.5-1.5.673-1.5 1.5-1.5zm9.5 2c1.103 0 2-.897 2-2s-.897-2-2-2-2 .897-2 2 .897 2 2 2zm0-3c.551 0 1 .449 1 1s-.449 1-1 1-1-.449-1-1 .449-1 1-1z"/></svg>