<?xml version="1.0" encoding="UTF-8"?>
<svg xmlns="http://www.w3.org/2000/svg" id="Layer_1" data-name="Layer 1" viewBox="0 0 24 24">
  <path d="M20.5,0H4.5c-1.379,0-2.5,1.121-2.5,2.5V21.5c0,1.379,1.121,2.5,2.5,2.5H22V1.5c0-.827-.673-1.5-1.5-1.5ZM4.5,1H20.5c.275,0,.5,.225,.5,.5V19H4.5c-.565,0-1.081,.195-1.5,.512V2.5c0-.827,.673-1.5,1.5-1.5Zm0,22c-.827,0-1.5-.673-1.5-1.5s.673-1.5,1.5-1.5H21v3H4.5Zm1.984-12h2.625l.472,2h1.027l-1.38-5.853c-.156-.672-.754-1.147-1.443-1.147-.692-.022-1.32,.51-1.455,1.196l-1.33,5.804h1.026l.458-2Zm.82-3.578c.085-.553,.835-.549,.95-.046l.619,2.624h-2.16l.591-2.578Zm11.696,5.578h-4.5v-1.157l3.39-4.843h-3.39v-1h4.5v1.157l-3.39,4.843h3.39v1Zm-5.5-3h-2v-1h2v1Z"/>
</svg>
