<svg id="Layer_1" viewBox="0 0 24 24" xmlns="http://www.w3.org/2000/svg" data-name="Layer 1"><path d="m22 15v-1.5c0-1.93-1.57-3.5-3.5-3.5s-3.5 1.57-3.5 3.5v1.5h-2v6.5c0 1.379 1.122 2.5 2.5 2.5h6c1.378 0 2.5-1.121 2.5-2.5v-6.5zm-6-1.5c0-1.379 1.122-2.5 2.5-2.5s2.5 1.121 2.5 2.5v1.5h-5zm7 8c0 .827-.673 1.5-1.5 1.5h-6c-.827 0-1.5-.673-1.5-1.5v-5.5h9zm-4-1h-1v-2h1zm-5.705-19.024c-.455-.388-1.036-.547-1.635-.448-.946.154-1.66 1.06-1.66 2.106v4.006l-8.214 4.574c-.486.266-.786.771-.786 1.319v2.155l9-3.039v6.351l-2.329 1.542c-.42.278-.671.745-.671 1.25v1.23l4-1.341v.318c0 .244.025.482.062.716l-5.062 1.698v-2.621c0-.841.418-1.62 1.12-2.084l1.88-1.245v-4.421l-9 3.039v-3.548c0-.915.5-1.756 1.303-2.194l7.697-4.287v-3.418c0-1.531 1.075-2.862 2.5-3.093.881-.147 1.771.102 2.443.673s1.057 1.404 1.057 2.286v3.552l2.713 1.511c-.48.069-.941.195-1.373.38l-2.341-1.303v-4.14c0-.588-.257-1.144-.705-1.524z"/></svg>