<svg id="Layer_1" viewBox="0 0 24 24" xmlns="http://www.w3.org/2000/svg" data-name="Layer 1"><path d="m24 9.512c0 2.921-1.396 5.584-3.831 7.306-1.418 1.002-2.483 2.271-3.081 3.67-.497 1.162-1.364 2.12-2.509 2.77-.855.486-1.836.739-2.81.739-3.508.077-5.924-3.342-5.77-5.999l1 .006c-.011 1.939 1.171 4.295 3.794 4.887 1.096.244 2.295.062 3.291-.502.953-.541 1.674-1.334 2.083-2.293.671-1.569 1.854-2.985 3.423-4.094 2.198-1.555 3.409-3.859 3.409-6.489 0-2.417-1.034-4.728-2.838-6.339-1.826-1.633-4.18-2.384-6.649-2.104-2.72.306-5.364 2.379-6.665 4.932h-1.106c1.351-3.067 4.409-5.563 7.66-5.928 2.752-.309 5.386.527 7.428 2.353 2.015 1.802 3.171 4.384 3.171 7.085zm-4 .488v-.488c0-3.033-2.468-5.5-5.5-5.5s-5.5 2.467-5.5 5.5v1.488h2c1.103 0 2 .897 2 2s-.897 2-2 2v1c1.654 0 3-1.346 3-3s-1.346-3-3-3h-1v-.488c0-2.481 2.019-4.5 4.5-4.5s4.5 2.019 4.5 4.5v.488zm-13.744 5.449.707-.707-2.742-2.742 2.742-2.742-.707-.707-2.742 2.742-2.743-2.743-.707.707 2.742 2.742-2.742 2.743.707.707 2.742-2.742 2.742 2.742z"/></svg>