<svg id="Layer_1" viewBox="0 0 24 24" xmlns="http://www.w3.org/2000/svg" data-name="Layer 1"><path d="m20.508 10h-1.508v-4h-17v3h1v-2h15v10.5c0 1.379-1.121 2.5-2.5 2.5h-2.5v1h2.5c1.93 0 3.5-1.57 3.5-3.5v-1.5h1.508c1.897 0 3.5-1.537 3.5-3.357 0-1.655-1.309-2.643-3.5-2.643zm0 5h-1.508v-4h1.508c.934 0 2.5.213 2.5 1.643 0 1.256-1.168 2.357-2.5 2.357zm-9.5-11h-1v-4h1zm4 0h-1v-4h1zm-8 0h-1v-4h1zm-7 19h20.992v1h-20.992zm2.644-5.904c-.809 1.626-.61 2.143-.646 2.899.751-.037 1.279.16 2.899-.646.58 1.77 1.077 2.01 1.596 2.62.517-.608 1.017-.852 1.596-2.62 1.624.806 2.146.608 2.899.646-.036-.753.162-1.276-.646-2.899 1.77-.58 2.01-1.077 2.62-1.596-.608-.517-.852-1.017-2.62-1.596.809-1.625.61-2.144.646-2.899-.76.033-1.289-.16-2.899.646-.58-1.77-1.077-2.01-1.596-2.62-.517.608-1.017.852-1.596 2.62-1.606-.804-2.13-.612-2.899-.646.036.752-.162 1.276.646 2.899-1.77.58-2.01 1.077-2.62 1.596.608.517.852 1.017 2.62 1.596zm.909-2.319 1.12-.03-.771-.813c-.558-.588-.773-1.365-.857-1.88.516.083 1.292.3 1.88.857l.813.771.03-1.12c.021-.81.416-1.542.724-1.993.308.451.702 1.183.724 1.993l.03 1.12.813-.771c.588-.557 1.364-.773 1.88-.857-.084.515-.3 1.292-.857 1.88l-.771.813 1.12.03c.811.021 1.543.417 1.994.725-.449.308-1.179.701-1.994.723l-1.12.03.771.813c.558.588.773 1.364.857 1.88-.516-.084-1.292-.3-1.88-.857l-.813-.771-.03 1.12c-.021.811-.417 1.543-.725 1.994-.308-.449-.701-1.179-.723-1.994l-.03-1.12-.813.771c-.588.558-1.364.773-1.88.857.084-.516.3-1.292.857-1.88l.771-.813-1.12-.03c-.811-.021-1.543-.417-1.994-.725.449-.308 1.179-.701 1.994-.723zm2.485 1.178-1.046-.454 1.05-.449.45-1.051.456 1.044 1.044.456-1.051.45-.449 1.05z"/></svg>