<?xml version="1.0" encoding="UTF-8"?>
<svg xmlns="http://www.w3.org/2000/svg" id="Layer_1" data-name="Layer 1" viewBox="0 0 24 24">
  <path d="M2,12.25c0-1.645,.849-3.146,2.241-4.013-.16-.571-.241-1.153-.241-1.737C4,2.916,6.916,0,10.5,0c2.661,0,5.046,1.628,6.029,4.083,3.14,.498,5.471,3.204,5.471,6.417,0,2.77-1.745,5.135-4.191,6.069l.586-1.401c1.561-.972,2.606-2.698,2.606-4.668,0-2.807-2.102-5.156-4.889-5.464l-.314-.035-.104-.299c-.767-2.215-2.854-3.703-5.193-3.703-3.033,0-5.5,2.467-5.5,5.5,0,.608,.104,1.217,.311,1.809l.144,.413-.39,.198c-1.274,.647-2.065,1.923-2.065,3.331,0,1.371,.748,2.561,1.85,3.215l-.386,.923c-1.461-.811-2.464-2.351-2.464-4.138Zm12.961,5.943l2.5-5.978-.923-.386-2.5,5.977,.923,.387Zm-3.961,0l2.5-5.978-.923-.386-2.5,5.977,.923,.387Zm-4.039,0l2.5-5.978-.923-.386-2.5,5.977,.923,.387Zm16.646,4.596c-.351,.14-.724,.211-1.107,.211-1.654,0-3-1.346-3-3h-1c0,1.654-1.346,3-3,3s-3-1.346-3-3h-1c0,1.654-1.346,3-3,3s-3-1.346-3-3h-1c0,1.654-1.346,3-3,3-.383,0-.756-.071-1.107-.211l-.37,.93c.47,.187,.966,.281,1.477,.281,1.516,0,2.822-.857,3.5-2.104,.678,1.246,1.984,2.104,3.5,2.104s2.822-.857,3.5-2.104c.678,1.246,1.984,2.104,3.5,2.104s2.822-.857,3.5-2.104c.678,1.246,1.984,2.104,3.5,2.104,.511,0,1.007-.095,1.477-.281l-.37-.93Z"/>
</svg>
