<svg id="Layer_1" viewBox="0 0 24 24" xmlns="http://www.w3.org/2000/svg" data-name="Layer 1"><path d="m1.096 10.165c-.667-.596-1.096-1.452-1.096-2.415 0-1.315.804-2.49 2-2.989v-.011c0-2.619 2.131-4.75 4.75-4.75 2.227 0 4.117 1.525 4.612 3.67 1.547.482 2.638 1.937 2.638 3.58 0 1.461-.848 2.716-2.07 3.335.06-.385.071-.776-.016-1.159.656-.503 1.087-1.286 1.087-2.175.01-1.427-1.114-2.588-2.508-2.758l-.054-.338c-.293-1.827-1.845-3.153-3.688-3.153-2.068 0-3.75 1.682-3.75 3.75.008.109.06.611.068.729l-.402.109c-.981.265-1.666 1.154-1.666 2.162 0 .486.158.933.421 1.301-.051.172-.322.948-.325 1.114zm21.763.548c-1.066-2.561-2.086-4.997-3.153-6.326-1.99-2.649-4.957-4.193-8.158-4.365.332.339.632.71.888 1.116 2.548.382 4.872 1.711 6.483 3.862.981 1.213 2.022 3.703 3.018 6.097.354.853.709 1.705 1.064 2.508v.395h-2.217l-.953 4.792c-.139.7-.758 1.208-1.472 1.208h-3.358v3h-11.001v-3.35c0-.807-.279-1.588-.786-2.199-1.148-1.386-1.868-3.094-2.119-4.926-.386-.175-.738-.403-1.068-.662.156 2.313.983 4.495 2.417 6.226.358.432.556.986.556 1.561v4.35h13v-3h2.358c1.189 0 2.221-.847 2.452-2.013l.793-3.987h2.396v-1.5s-.775-1.908-1.141-2.787zm-17.98 4.287.655-3h-1.421c-.351-.001-.672-.167-.885-.457-.217-.295-.284-.677-.178-1.021l1.45-4.523h3.604l-.926 3h1.716c.407.001.779.233.97.593.191.359.169.793-.056 1.131l-3.44 4.276h-1.487zm1.897-4-.568 2.602 2.773-3.445c.035-.063-.01-.157-.092-.157h-3.066l.925-3h-1.52l-1.225 3.823c-.014.044-.01.177.128.177z"/></svg>