<svg id="Layer_1" viewBox="0 0 24 24" xmlns="http://www.w3.org/2000/svg" data-name="Layer 1"><path d="m18.237 1h5.763v-1h-5.763c-.594 0-1.17.212-1.622.597l-2.502 2.132c-.589-.451-1.316-.729-2.113-.729-.812 0-1.552.29-2.146.756l-2.461-2.142c-.455-.396-1.038-.614-1.641-.614h-5.752v1h5.751c.362 0 .711.131.985.368l2.42 2.106c-.409.573-.657 1.269-.657 2.026 0 .162.026.318.048.474-2.569.79-3.338 1.534-3.817 1.882l1.951 10.144h-3.681v1h3.874l.577 3h3.049v.5c0 .827.673 1.5 1.5 1.5s1.5-.673 1.5-1.5v-.5h3.049l.577-3h3.874v-1h-3.682l1.951-10.144c-.475-.346-1.251-1.094-3.817-1.882.022-.157.048-.312.048-.474 0-.771-.258-1.478-.682-2.057l2.446-2.085c.271-.231.616-.358.973-.358zm-3.737 4.5c0 1.379-1.122 2.5-2.5 2.5s-2.5-1.121-2.5-2.5 1.122-2.5 2.5-2.5 2.5 1.121 2.5 2.5zm-2 17c0 .275-.224.5-.5.5s-.5-.225-.5-.5v-8c0-.275.224-.5.5-.5s.5.225.5.5zm5.669-14.221-2.446 12.721h-2.223v-6.5c0-.827-.673-1.5-1.5-1.5s-1.5.673-1.5 1.5v6.5h-2.223l-2.446-12.721c.444-.298 1.489-.922 2.983-1.347.549 1.216 1.767 2.067 3.186 2.067s2.636-.852 3.186-2.067c1.495.425 2.539 1.049 2.983 1.347z"/></svg>