<?xml version="1.0" encoding="UTF-8"?>
<svg xmlns="http://www.w3.org/2000/svg" id="Layer_1" data-name="Layer 1" viewBox="0 0 24 24">
  <path d="M8.489,20.147l.707,.707-2.758,2.758c-.494,.515-1.382,.515-1.876,0l-2.757-2.758,.707-.707,2.489,2.489v-7.636h1v7.636l2.489-2.488Zm10.511-7.647v3c0,1.379-1.121,2.5-2.5,2.5s-2.5-1.121-2.5-2.5v-3c0-1.379,1.121-2.5,2.5-2.5s2.5,1.121,2.5,2.5Zm-1,0c0-.827-.673-1.5-1.5-1.5s-1.5,.673-1.5,1.5v3c0,.827,.673,1.5,1.5,1.5s1.5-.673,1.5-1.5v-3Zm-7.5-1.5c.827,0,1.5,.673,1.5,1.5h1c0-1.379-1.122-2.5-2.5-2.5s-2.5,1.121-2.5,2.5v3c0,1.379,1.122,2.5,2.5,2.5s2.5-1.121,2.5-2.5h-1c0,.827-.673,1.5-1.5,1.5s-1.5-.673-1.5-1.5v-3c0-.827,.673-1.5,1.5-1.5Zm13.5,6c0-.804-.532-2-2-2s-2,1.196-2,2l1,.004c.004-.235,.087-1.004,1-1.004s.996,.769,1,1c0,.742-.787,1.245-1.548,1.731-.747,.478-1.452,.928-1.452,1.769v.5h4v-1h-2.639c.196-.149,.437-.303,.629-.426,.896-.572,2.01-1.284,2.01-2.574ZM1,14.5c-.016-1.732,1.012-3.261,2.553-4.059-.341-.861-.562-1.783-.553-2.691,0-3.722,3.028-6.75,6.75-6.75,3.061-.01,5.716,2.059,6.527,5,3.635-.109,6.733,2.856,6.723,6.5,0,.204-.035,.401-.054,.602,.361,.079,.682,.213,.981,.372,.043-.32,.073-.644,.073-.973,0-3.933-3.107-7.216-6.997-7.478C15.87,2.004,12.999,0,9.75,0,5.477,0,2,3.477,2,7.75c0,.763,.116,1.523,.345,2.267-1.476,1.032-2.345,2.681-2.345,4.483,0,1.475,.597,2.799,1.549,3.781l.706-.705c-.772-.8-1.255-1.876-1.255-3.076Z"/>
</svg>
