<?xml version="1.0" encoding="UTF-8"?>
<svg xmlns="http://www.w3.org/2000/svg" id="Layer_1" data-name="Layer 1" viewBox="0 0 24 24">
  <path d="m24,17c0,3.86-3.141,7-7,7v-1c3.309,0,6-2.691,6-6h1Zm-7,3v1c2.206,0,4-1.794,4-4h-1c0,1.654-1.346,3-3,3Zm3.413-5.536l-5.948,5.948s-1.318-.898-2.518-1.798l-1.092,1.093-.354-.354c-3.264-3.269-4.458-4.591-7.26-8.343-1.654-2.216-1.615-5.097.005-7.056L.044.751.751.044l3.204,3.204c1.922-1.581,4.727-1.618,7.022-.004,3.113,2.19,5.01,3.94,8.343,7.28l.354.353-1.064,1.065c.902,1.202,1.803,2.522,1.803,2.522Zm-9.558,3.828l7.404-7.415c-3.074-3.069-4.917-4.746-7.858-6.815-.97-.683-2.048-1.021-3.08-1.021-1.144,0-2.229.416-3.053,1.239-1.592,1.595-1.687,4.173-.226,6.131,2.661,3.563,3.853,4.906,6.812,7.881Zm8.263-3.948c-.252-.36-.693-.979-1.222-1.687l-5.235,5.242c.708.528,1.325.967,1.684,1.218l4.773-4.773Zm-7.118-4.344c0,1.103-.897,2-2,2s-2-.897-2-2,.897-2,2-2,2,.897,2,2Zm-1,0c0-.551-.448-1-1-1s-1,.449-1,1,.448,1,1,1,1-.449,1-1Z"/>
</svg>
