<?xml version="1.0" encoding="UTF-8"?>
<svg xmlns="http://www.w3.org/2000/svg" id="Layer_1" data-name="Layer 1" viewBox="0 0 24 24">
  <path d="m17.252,7.462l3.739-3.746c.297.176.64.283,1.01.283,1.103,0,2-.897,2-2s-.897-2-2-2-2,.897-2,2c0,.37.108.713.284,1.01l-3.735,3.742-3.376-3.409-.711.704,3.38,3.413-.875.876-1.024-1.025-4.579,4.579,1.026,1.026-.82.826-4.807-4.848,1.157-1.157-.707-.707-3,3,.707.707,1.136-1.136,2.96,2.985-5.276,5.241c-.475.472-.737,1.1-.738,1.769,0,.67.259,1.299.732,1.773l.129.129-1.862,1.789v.711h.703l1.866-1.793.061.061c.486.487,1.126.73,1.767.73s1.276-.241,1.763-.725l5.269-5.235,4.094,4.129c.509.51,1.187.791,1.907.791s1.397-.281,1.907-.791l3.873-3.873c.51-.509.79-1.187.79-1.907s-.28-1.398-.788-1.906l-5.96-6.019Zm4.748-6.462c.552,0,1,.449,1,1s-.448,1-1,1-1-.449-1-1,.448-1,1-1Zm-8.058,7.726l1.344,1.344-3.164,3.165-1.345-1.344,3.165-3.165Zm-2.846,4.898l1.026,1.026,4.578-4.579-1.027-1.027.871-.873,3.29,3.323-.856.856-.992-.992-4.579,4.579.992.992-.84.84-3.287-3.315.823-.829Zm3.726,2.312l3.165-3.165,1.344,1.344-3.164,3.165-1.345-1.344Zm-9.368,5.628c-.587.582-1.536.579-2.117-.003l-.897-.897c-.284-.284-.44-.662-.439-1.064,0-.401.158-.778.443-1.062l5.274-5.241,3.006,3.031-5.27,5.235Zm17.049-4.977l-3.873,3.873c-.642.642-1.763.639-2.398.001l-1.967-1.984.843-.843,1.06,1.059,4.578-4.579-1.059-1.059.852-.853,1.964,1.984c.32.321.497.747.497,1.2s-.177.879-.497,1.2Z"/>
</svg>
