<svg id="Layer_1" viewBox="0 0 24 24" xmlns="http://www.w3.org/2000/svg" data-name="Layer 1"><path d="m24 9c0-2.206-1.794-4-4-4h-.775c-.741-1.096-1.95-1.856-3.361-1.978-.442-1.749-2.035-3.022-3.864-3.022s-3.417 1.27-3.862 3.015c-1.404.112-2.621.878-3.367 1.985h-.771c-2.206 0-4 1.794-4 4 0 1.287.631 2.517 1.643 3.27-.422.699-.643 1.481-.643 2.291 0 1.508.742 2.877 2 3.717v2.561c.028 3.162 3.277 3.162 4.5 3.162.88 0 1.568-.077 2.151-.231.894.227 1.803.231 2.349.231s1.454-.004 2.349-.231c.583.153 1.271.231 2.151.231 1.223 0 4.472 0 4.5-3.167v-2.556c1.258-.84 2-2.209 2-3.717 0-.81-.221-1.592-.643-2.291 1.012-.753 1.643-1.982 1.643-3.27zm-16.5 14c-2.473 0-3.486-.629-3.5-2.167v-3.12c-1.212-.614-2.011-1.804-2-3.152-.028-.966.471-1.865 1.102-2.594-1.193-.505-2.121-1.612-2.102-2.967 0-1.654 1.346-3 3-3h.271c-.168.471-.271.972-.271 1.5 0 1.373.621 2.646 1.683 3.498-.448.764-.683 1.62-.683 2.502 0 1.579.743 3.055 2 3.998v3.006c.01 1.187.438 1.965 1.046 2.482-.174.008-.353.014-.546.014zm5-.018v-11.982h-1v11.982c-2.449-.088-3.485-.821-3.5-2.482v-3.526c-1.225-.734-2.007-2.042-2-3.474-.022-1.017.44-1.976 1.079-2.767-1.218-.644-2.102-1.832-2.079-3.233 0-1.93 1.57-3.5 3.45-3.503l.533.008c.071-1.628 1.359-3.018 3.017-3.005 1.704-.018 2.867 1.391 3.066 3h.434c1.93 0 3.5 1.57 3.5 3.5.023 1.401-.862 2.589-2.079 3.233.639.791 1.101 1.749 1.079 2.767.007 1.431-.775 2.739-2 3.474v3.522c-.015 1.665-1.051 2.399-3.5 2.486zm8.759-10.55c.485.627.741 1.363.741 2.128.011 1.348-.788 2.538-2 3.152v3.115c-.014 1.543-1.027 2.172-3.5 2.172-.193 0-.372-.006-.547-.014.608-.518 1.037-1.297 1.047-2.486v-3.002c1.257-.943 2-2.419 2-3.998 0-.882-.234-1.738-.683-2.502 1.062-.852 1.683-2.125 1.683-3.498 0-.528-.103-1.029-.271-1.5h.271c1.654 0 3 1.346 3 3 0 1.112-.622 2.167-1.584 2.688l-.518.279.36.466z"/></svg>