<svg id="Layer_1" viewBox="0 0 24 24" xmlns="http://www.w3.org/2000/svg" data-name="Layer 1"><path d="m2 13.5c0 1.93 1.57 3.5 3.5 3.5s3.5-1.57 3.5-3.5-1.57-3.5-3.5-3.5-3.5 1.57-3.5 3.5zm6 0c0 1.378-1.122 2.5-2.5 2.5s-2.5-1.122-2.5-2.5 1.122-2.5 2.5-2.5 2.5 1.122 2.5 2.5zm-7.681-8.195c-.424-.424-.424-1.115 0-1.54l3.584-3.583.707.707-3.111 3.111h21.002l-3.111-3.111.707-.707 3.584 3.583c.424.424.424 1.115 0 1.54l-3.584 3.584-.707-.707 3.182-3.182h-21.144l3.182 3.182-.707.707zm10.681 16.195v2.5h-1v-2.5c0-.827-.673-1.5-1.5-1.5h-6c-.827 0-1.5.673-1.5 1.5v2.5h-1v-2.5c0-1.378 1.122-2.5 2.5-2.5h6c1.378 0 2.5 1.122 2.5 2.5zm13 0v2.5h-1v-2.5c0-.827-.673-1.5-1.5-1.5h-6c-.827 0-1.5.673-1.5 1.5v2.5h-1v-2.5c0-1.378 1.122-2.5 2.5-2.5h6c1.378 0 2.5 1.122 2.5 2.5zm-8-8c0 1.378 1.122 2.5 2.5 2.5.854 0 1.608-.431 2.059-1.086l.308 1.148c-.624.577-1.452.938-2.367.938 0 0-.001 0-.002 0-1.374 0-2.554-.805-3.126-1.961l-.544 2.029c-.42.082-.809.246-1.161.464l1.159-4.292c.279-1.846 1.87-3.216 3.674-3.24 1.814.002 3.393 1.394 3.674 3.24l1.159 4.292c-.352-.218-.741-.382-1.161-.464l-.987-3.677c-.207-1.361-1.362-2.389-2.686-2.39-1.339.009-2.508 1.108-2.5 2.5z"/></svg>