<svg id="Layer_1" viewBox="0 0 24 24" xmlns="http://www.w3.org/2000/svg" data-name="Layer 1"><path d="m24 13v11h-1v-11c0-6.729-5.49-12-12.5-12-4.328 0-6.5 1.923-6.5 3 0 .551.449 1 1 1s1-.449 1-1h1v1c0 .551.449 1 1 1s1-.449 1-1h1v1c0 .551.449 1 1 1s1-.449 1-1v-.585c-.979-1.054-2.256-1.829-3.696-2.186.603-.134 1.318-.228 2.188-.228 2.719 1.474 4.485 4.31 4.508 7.5 0 .763-.109 1.499-.301 2.202 1.43 1.733 2.301 3.936 2.301 6.298v5h-1v-5c0-4.879-4.122-9-9-9-3.939 0-6 1.953-6 3 0 .552.449 1 1 1s1-.448 1-1h1v1c0 .552.449 1 1 1s1-.448 1-1h1v1c0 .552.449 1 1 1s1-.448 1-1v-.582c-.761-1.126-2.018-1.881-3.276-2.321.581-.104 1.481-.102 2.126-.097 2.086 1.257 3.172 3.467 3.151 6 0 3.364-2.636 6-6 6h-5.001v-1h5c2.804 0 5-2.196 5-5 0-.716-.088-1.391-.269-2.017-.345.604-.987 1.017-1.731 1.017-.871 0-1.614-.56-1.888-1.339-.318.214-.701.339-1.112.339-.871 0-1.614-.56-1.888-1.339-.318.214-.701.339-1.112.339-1.103 0-2-.897-2-2 0-1.892 2.875-4 7-4 2.631 0 5.059 1.085 6.866 2.815.079-.428.134-.865.134-1.315 0-1.428-.407-2.76-1.103-3.896-.258.806-1.006 1.396-1.897 1.396-.871 0-1.614-.56-1.888-1.338-.318.213-.701.338-1.112.338-.871 0-1.614-.56-1.888-1.338-.318.213-.701.338-1.112.338-1.103 0-2-.897-2-2 0-1.925 2.868-4.001 7.5-4.001 7.57 0 13.5 5.71 13.5 13z"/></svg>