<?xml version="1.0" encoding="UTF-8"?>
<svg xmlns="http://www.w3.org/2000/svg" id="Layer_1" data-name="Layer 1" viewBox="0 0 24 24">
  <path d="m13,5V0h-3v1h-1V0h-4.75C1.906,0,0,1.906,0,4.25v.75h4.982l-.5,14h5.037l-.519-14.508v-.492h1v1h3Zm-7.481,13l.464-13h2.035l.464,13h-2.963Zm2.481-15v1H1.01c.128-1.676,1.532-3,3.24-3h3.75v1h3v-1h1v3h-1v-1h-3Zm14.543,11.311l-3.57-1.64c.511-2.952,1.027-6.709,1.027-7.171,0-1.379-1.121-2.5-2.5-2.5s-2.5,1.121-2.5,2.5c0,.462.517,4.219,1.027,7.171l-3.569,1.64c-.886.406-1.458,1.298-1.458,2.271v7.418h3.722l.778-2.076.778,2.076h7.722v-7.418c0-.974-.572-1.865-1.457-2.271Zm-9.668.908l4.271-1.961s-1.146-7.406-1.146-7.758c0-.827.673-1.5,1.5-1.5s1.5.673,1.5,1.5c0,.352-1.146,7.758-1.146,7.758l4.271,1.961c.344.158.596.445.74.781h-10.732c.144-.337.397-.623.741-.781Zm4.097,7.781l-1.472-3.924-1.472,3.924h-2.028v-6h11v6h-6.028Z"/>
</svg>
