<svg id="Layer_1" viewBox="0 0 24 24" xmlns="http://www.w3.org/2000/svg" data-name="Layer 1"><path d="m16.5 5c1.378 0 2.5-1.121 2.5-2.5s-1.122-2.5-2.5-2.5-2.5 1.121-2.5 2.5 1.122 2.5 2.5 2.5zm0-4c.827 0 1.5.673 1.5 1.5s-.673 1.5-1.5 1.5-1.5-.673-1.5-1.5.673-1.5 1.5-1.5zm7.5 6v-1h-8.533v.003c-1.363.018-2.467 1.129-2.467 2.497v4.913c-1.225-2.04-3.452-3.413-6-3.413-3.86 0-7 3.141-7 7s3.14 7 7 7 7-3.141 7-7c0-.181-.014-.358-.027-.535.424.33.95.535 1.527.535h7.5v7h1v-8h-6v-9zm-17 16c-3.309 0-6-2.691-6-6 0-1.244.381-2.401 1.032-3.361.313 4.455 3.88 8.017 8.336 8.322-.961.654-2.121 1.038-3.369 1.038zm4.469-2.01v-.011c-.16.01-.321.015-.482.015-4.404 0-7.987-3.583-7.987-7.987 0-.164.015-.326.025-.488.841-.747 1.891-1.259 3.052-1.439-.031.25-.047.503-.047.756 0 3.399 2.757 6.165 6.146 6.165.248 0 .496-.02.741-.049-.185 1.157-.7 2.202-1.448 3.039zm.707-3.99c-2.837 0-5.146-2.317-5.146-5.165 0-.279.03-.556.075-.83 3.232.056 5.847 2.677 5.891 5.912-.271.043-.544.083-.82.083zm4.824-1h-1.5c-.827 0-1.5-.673-1.5-1.5v-6c0-.827.673-1.5 1.5-1.5h1.5z"/></svg>