<svg id="Layer_1" viewBox="0 0 24 24" xmlns="http://www.w3.org/2000/svg" data-name="Layer 1"><path d="m12 8c-1.103 0-2 .897-2 2s.897 2 2 2 2-.897 2-2-.897-2-2-2zm0 3c-.551 0-1-.448-1-1s.449-1 1-1 1 .448 1 1-.449 1-1 1zm-4.95 3.95-.707.707c-3.119-3.119-3.119-8.195 0-11.314l.707.707c-2.729 2.729-2.729 7.171 0 9.9zm10.607-10.607c3.119 3.119 3.119 8.195 0 11.314l-.707-.707c2.729-2.729 2.729-7.171 0-9.9zm-8.485 2.829c-.755.755-1.171 1.76-1.171 2.828s.416 2.073 1.171 2.828l-.707.707c-.944-.944-1.464-2.199-1.464-3.535s.52-2.591 1.464-3.535zm7.829 2.828c0 1.336-.52 2.591-1.464 3.535l-.707-.707c.755-.755 1.171-1.76 1.171-2.828s-.416-2.073-1.171-2.828l.707-.707c.944.944 1.464 2.199 1.464 3.535zm4.499-10h-19c-1.378 0-2.5 1.121-2.5 2.5v17.5h6.779l4.224 3.62c.275.245.629.38.998.38s.723-.135.991-.374l4.216-3.626h6.793v-17.5c0-1.379-1.122-2.5-2.5-2.5zm1.5 19h-6.164l-4.504 3.874c-.182.162-.474.169-.671-.007l-4.512-3.867h-6.149v-16.5c0-.827.673-1.5 1.5-1.5h19c.827 0 1.5.673 1.5 1.5z"/></svg>