<svg id="Layer_1" viewBox="0 0 24 24" xmlns="http://www.w3.org/2000/svg" data-name="Layer 1"><path d="m11.5 5c1.378 0 2.5-1.122 2.5-2.5s-1.122-2.5-2.5-2.5-2.5 1.122-2.5 2.5 1.122 2.5 2.5 2.5zm0-4c.827 0 1.5.673 1.5 1.5s-.673 1.5-1.5 1.5-1.5-.673-1.5-1.5.673-1.5 1.5-1.5zm11.872 4.971-.104-.994-9.769 1.023h-3.979l-4.521-1.836v-4.164h-1v4.836l5 2.032v7.499l-2.346 4.079-5.351 2.116.368.93 5.675-2.244 2.443-4.247h3.211v3.977l-3.874 4.358.747.664 4.126-4.642v-12.408l9.372-.979zm-13.372 8.029v-7l3-.002v7.003h-3zm11-10c1.103 0 2-.897 2-2s-.897-2-2-2-2 .897-2 2 .897 2 2 2zm0-3c.551 0 1 .449 1 1s-.449 1-1 1-1-.449-1-1 .449-1 1-1z"/></svg>