<svg id="Layer_1" viewBox="0 0 24 24" xmlns="http://www.w3.org/2000/svg" data-name="Layer 1"><path d="m12.178 23 1.023 1h-13.201v-21.5c0-1.379 1.122-2.5 2.5-2.5h11c1.379 0 2.5 1.121 2.5 2.5v17.245l-1-.977v-16.268c0-.827-.673-1.5-1.5-1.5h-11c-.827 0-1.5.673-1.5 1.5v20.5zm-3.178-5h1.842l.978-1h-2.82zm14.321-1.356-6.295 6.21c-.194.193-.513.194-.711-.004l-3.793-3.707-.699.715 3.789 3.703c.293.293.677.439 1.062.439.383 0 .767-.146 1.058-.437l6.269-6.207-.679-.713zm-16.321-3.644h-3v1h3zm5 0h-3v1h3zm-8 5h3v-1h-3zm3-13h-3v1h3zm5 0h-3v1h3zm-5 4h-3v1h3zm5 0h-3v1h3z"/></svg>