<?xml version="1.0" encoding="UTF-8"?>
<svg xmlns="http://www.w3.org/2000/svg" id="Layer_1" data-name="Layer 1" viewBox="0 0 24 24">
  <path d="M21.5,2H12.118L8.118,0H2.5C1.121,0,0,1.122,0,2.5V22H11.079c-.186-.321-.352-.653-.492-1H1V7H23v4.76c.361,.29,.694,.613,1,.96V4.5c0-1.378-1.121-2.5-2.5-2.5ZM1,6V2.5c0-.827,.673-1.5,1.5-1.5H7.882l4,2h9.618c.827,0,1.5,.673,1.5,1.5v1.5H1Zm17,10c-1.103,0-2,.897-2,2s.897,2,2,2,2-.897,2-2-.897-2-2-2Zm0,3c-.552,0-1-.448-1-1s.448-1,1-1,1,.448,1,1-.448,1-1,1Zm4.412-5.334l-1.516,.892c-.408-.34-.882-.606-1.396-.786v-1.771h-3v1.771c-.515,.18-.988,.446-1.396,.786l-1.516-.892-1.521,2.587,1.526,.896c-.125,.6-.125,1.101,0,1.701l-1.526,.896,1.521,2.587,1.516-.892c.408,.34,.882,.606,1.396,.786v1.771h3v-1.771c.515-.18,.988-.446,1.396-.786l1.516,.892,1.521-2.587-1.526-.896c.125-.6,.125-1.101,0-1.701l1.526-.896-1.521-2.587Zm-1.169,3.007c.328,.919,.328,1.735,0,2.654l1.32,.775-.507,.862-1.305-.768c-.576,.664-1.37,1.104-2.252,1.274v1.528h-1v-1.528c-.883-.17-1.676-.61-2.252-1.274l-1.305,.768-.507-.862,1.32-.775c-.328-.919-.328-1.735,0-2.654l-1.32-.775,.507-.862,1.305,.768c.576-.664,1.37-1.104,2.252-1.274v-1.528h1v1.528c.883,.17,1.676,.61,2.252,1.274l1.305-.768,.507,.862-1.32,.775Z"/>
</svg>
