<svg id="Layer_1" viewBox="0 0 24 24" xmlns="http://www.w3.org/2000/svg" data-name="Layer 1"><path d="m20.439 4.549.701.713-3.456 3.399c-.217.217-.51.339-.822.339s-.604-.122-.824-.342l-1.851-1.793.695-.718 1.856 1.799c.097.097.158.087.241.006l3.459-3.402zm-7.439 9.153v8.532l-4-2.4v-6.034l-8-9.001v-2.311c0-.827.673-1.5 1.499-1.5l8.537.011c.307-.36.642-.696 1.005-1h-9.541c-1.379.001-2.5 1.111-2.5 2.49v2.69l8 9v6.221l6 3.6v-9.76c-.347-.157-.68-.338-1-.538zm11-7.202c0 3.584-2.916 6.5-6.5 6.5s-6.5-2.916-6.5-6.5 2.916-6.5 6.5-6.5c3.731 0 6.5 2.916 6.5 6.5zm-1 0c0-3.033-2.468-5.5-5.5-5.5s-5.5 2.467-5.5 5.5 2.468 5.5 5.5 5.5 5.5-2.467 5.5-5.5z"/></svg>