<svg id="Layer_1" viewBox="0 0 24 24" xmlns="http://www.w3.org/2000/svg" data-name="Layer 1"><path d="m20.321 4.019-2.069-1.213 1.412 1.938c.937 1.287 1.386 2.719 1.336 4.256-.168 5.1-4.622 7.667-8.5 9.159v-.933c.261-.536 2.111-2.253 3.481-2.6-.035-.027-.745-.573-.749-.585 1.716-1.099 2.767-2.975 2.767-5.042s-1.052-3.943-2.767-5.042c-.014 0 .741-.563.765-.581-2.051-.603-3.587-2.599-3.988-3.316-.416.694-1.96 2.66-3.975 3.326.037.029.725.557.733.573-1.716 1.099-2.767 2.975-2.767 5.042s1.052 3.943 2.767 5.042c.007.005-.721.548-.749.569 1.35.379 3.194 2.088 3.481 2.621v.927c-3.878-1.492-8.332-4.059-8.5-9.159-.05-1.537.399-2.969 1.336-4.256l1.412-1.938-2.069 1.213c-2.371 1.389-3.678 3.514-3.678 5.98 0 2.824 1.264 4.679 2.38 6.316.642.942.869 2.061 1.104 3.219l.132.652 4.607-2.413c.764.409 1.543.768 2.311 1.081-.44.144-.864.28-1.25.401-.749.229-1.566.576-2.086 1.137 0 0-.198.219-.198.606 0 .552.448 1 1 1s1-.448 1-1c0-.195-.07-.366-.167-.52.304-.128.601-.222.752-.27.576-.181 1.233-.395 1.915-.628v2.571c-.293.174-.5.481-.5.847 0 .552.448 1 1 1s1-.448 1-1c0-.366-.206-.673-.5-.847v-2.566c.686.234 1.337.441 1.916.624.15.047.447.142.75.269-.096.154-.167.325-.167.52 0 .552.448 1 1 1s1-.448 1-1c-.01-.312-.131-.514-.343-.741-.479-.482-1.271-.791-1.942-1.003-.389-.123-.818-.259-1.263-.405.776-.315 1.561-.658 2.333-1.072l4.009 2.1.605.232.132-.652c.219-1.082.446-2.201 1.089-3.144 1.115-1.636 2.379-3.491 2.379-6.315 0-2.466-1.307-4.591-3.679-5.981zm-3.321 4.981c0 1.761-.917 3.355-2.405 4.261-.506-.772-1.095-2.116-1.095-4.261s.59-3.489 1.095-4.261c1.488.906 2.405 2.5 2.405 4.261zm-10 0c0-1.761.917-3.355 2.405-4.261.506.772 1.095 2.116 1.095 4.261s-.59 3.489-1.095 4.261c-1.488-.906-2.405-2.5-2.405-4.261zm2.831 5.371c.652-.776 1.669-2.454 1.669-5.371s-1.017-4.595-1.669-5.371c.957-.573 1.721-1.364 2.163-1.881.435.524 1.195 1.324 2.168 1.89-.652.78-1.662 2.456-1.662 5.362s1.009 4.583 1.662 5.362c-.973.566-1.733 1.366-2.168 1.89-.441-.517-1.206-1.309-2.163-1.881zm-5.501 4.315c-.209-.971-.494-2.01-1.124-2.934-1.034-1.517-2.206-3.236-2.206-5.751 0-1.398.476-2.642 1.393-3.677-.292.863-.423 1.769-.392 2.71.128 3.906 2.433 6.431 5.198 8.149l-2.87 1.503zm16.464-2.933c-.621.91-.906 1.932-1.123 2.933l-2.86-1.498c2.763-1.718 5.061-4.251 5.188-8.154.031-.941-.1-1.847-.392-2.71.917 1.035 1.393 2.279 1.393 3.677 0 2.516-1.172 4.235-2.207 5.753z"/></svg>