<svg id="Layer_1" viewBox="0 0 24 24" xmlns="http://www.w3.org/2000/svg" data-name="Layer 1"><path d="m14.002 14.953.996.094c-.085.915-.081 1.815-.321 2.73-.699 2.644-2.26 4.223-4.177 4.223-2.561.043-3.575-1.951-6-2-1.652 0-3.5 1.711-3.5 4h-1c0-2.663 2.103-5 4.5-5 2.561-.043 3.575 1.951 6 2 2.125 0 2.994-2.662 3.21-3.479.212-.801.212-1.714.292-2.568zm8.998 5.547c0 1.379-1.122 2.5-2.5 2.5s-2.5-1.121-2.5-2.5c0-1.984 1.496-3.694 2.138-4.338 1.15-1.15 1.15-3.093 0-4.243-.754-.754-1.784-1.072-2.75-.849-.546.125-1.062.418-1.493.849l.707.707c.301-.302.641-.497 1.009-.581.641-.145 1.303.065 1.819.581.753.754.753 2.075 0 2.829-.731.731-2.431 2.687-2.431 5.045 0 1.93 1.57 3.5 3.5 3.5s3.5-1.57 3.5-3.5h-1zm-10.753-15.172 2.121-2.121 5.629 5.629.707-.707-5.629-5.629 1.061-1.061c.566-.566 1.555-.566 2.121 0l4.568 4.568.707-.707-4.568-4.568c-.943-.945-2.592-.945-3.535 0l-15.381 15.38.707.707 5.127-5.127 5.756 5.756c.159-.377.172-.762.225-1.189l-5.274-5.274 2.121-2.121 4.043 4.043c.142-.303.312-.607.505-.909l-3.84-3.84 2.122-2.122 3.788 3.788c.291-.19.597-.361.926-.488l-4.006-4.006z"/></svg>