<svg id="Layer_1" viewBox="0 0 24 24" xmlns="http://www.w3.org/2000/svg" data-name="Layer 1"><path d="m2.5 2c-1.379 0-2.5 1.121-2.5 2.5v17.5h17v-15.207l-4.793-4.793zm9.5 1.207 3.793 3.793h-3.793zm-9.5-.207h8.5v5h5v5.79l-1.502-1.486-2.992 2.989-2.995-2.992-2.994 2.991-2.991-2.991-1.525 1.51v-9.311c0-.827.673-1.5 1.5-1.5zm-1.5 18v-5.782l1.521-1.507 2.995 2.995 2.994-2.991 2.995 2.992 2.996-2.993 1.498 1.483v5.803zm20.5-18c-1.379 0-2.5 1.121-2.5 2.5v12.707l2.5 2.5 2.5-2.5v-12.707c0-1.379-1.121-2.5-2.5-2.5zm1.5 14.793-1.5 1.5-1.5-1.5v-12.293c0-.827.673-1.5 1.5-1.5s1.5.673 1.5 1.5z"/></svg>