<?xml version="1.0" encoding="UTF-8"?>
<svg xmlns="http://www.w3.org/2000/svg" id="Layer_1" data-name="Layer 1" viewBox="0 0 24 24">
  <path d="M24,19.5c0,2.481-2.019,4.5-4.5,4.5h-7.5v-1h7.5c1.93,0,3.5-1.57,3.5-3.5s-1.57-3.5-3.5-3.5H4c-2.206,0-4-1.794-4-4s1.794-4,4-4h7.276c.126,.354,.279,.693,.484,1H4c-1.654,0-3,1.346-3,3s1.346,3,3,3h15.5c2.481,0,4.5,2.019,4.5,4.5ZM6,24h4v-1H6v1Zm-6,0H4v-1H0v1ZM13,6.5c0-1.379,1.122-2.5,2.5-2.5,.21,0,.411,.034,.606,.083l-.012-.021,.271-.148-1.148-1.914h-1.217V1h1.783l1.46,2.435,1.897-1.035-.641-1.282V0h3.5V1h-2.441l1.521,3.042c.137-.023,.276-.042,.42-.042,1.378,0,2.5,1.121,2.5,2.5s-1.122,2.5-2.5,2.5-2.5-1.121-2.5-2.5c0-.878,.457-1.648,1.144-2.095l-.556-1.112-2.447,1.335c.522,.458,.859,1.123,.859,1.871,0,1.379-1.122,2.5-2.5,2.5s-2.5-1.121-2.5-2.5Zm8.5-1.5c-.827,0-1.5,.673-1.5,1.5s.673,1.5,1.5,1.5,1.5-.673,1.5-1.5-.673-1.5-1.5-1.5Zm-7.5,1.5c0,.827,.673,1.5,1.5,1.5s1.5-.673,1.5-1.5-.673-1.5-1.5-1.5-1.5,.673-1.5,1.5Z"/>
</svg>
