<?xml version="1.0" encoding="UTF-8"?>
<svg xmlns="http://www.w3.org/2000/svg" id="Layer_1" data-name="Layer 1" viewBox="0 0 24 24">
  <path d="M24,8.5v4.5h-1v-4.293l-5.268,5.268c-.466,.466-.732,1.109-.732,1.768v8.258h-1V15.742c0-.921,.374-1.823,1.025-2.475l5.268-5.268h-4.293v-1h4.5c.827,0,1.5,.673,1.5,1.5ZM1.707,8H6v-1H1.5c-.827,0-1.5,.673-1.5,1.5v4.5H1v-4.293l5.268,5.268c.465,.465,.732,1.109,.732,1.768v8.258h1V15.742c0-.922-.374-1.823-1.025-2.475L1.707,8ZM16.305,3.701L13.185,.537c-.612-.684-1.803-.673-2.395-.011l-3.062,3.219,.725,.689,3.048-3.204V24h1V1.266l3.092,3.137,.713-.701Z"/>
</svg>
