<svg id="Layer_1" viewBox="0 0 24 24" xmlns="http://www.w3.org/2000/svg" data-name="Layer 1"><path d="m17.5 13c3.584 0 6.5-2.916 6.5-6.5s-2.916-6.5-6.5-6.5-6.5 2.916-6.5 6.5 2.916 6.5 6.5 6.5zm0-12c3.032 0 5.5 2.467 5.5 5.5s-2.468 5.5-5.5 5.5-5.5-2.467-5.5-5.5 2.468-5.5 5.5-5.5zm-2.697 7.49 1.99-1.99-1.99-1.99.707-.707 1.99 1.99 1.99-1.99.707.707-1.99 1.99 1.99 1.99-.707.707-1.99-1.99-1.99 1.99zm8.197 14.51h-22v-11.275c0-.252.051-.498.125-.737l7.693 7.694c.85.85 1.979 1.318 3.182 1.318s2.332-.468 3.182-1.318l3.823-3.823c-.504.088-1.024.148-1.552.138l-2.977 2.978c-.66.661-1.539 1.025-2.475 1.025s-1.814-.364-2.475-1.025l-5.525-5.526v-9.949c0-.827.673-1.5 1.5-1.5h5.526c.306-.36.641-.695 1.003-1h-6.528c-1.379 0-2.5 1.122-2.5 2.5v4.828l-1.946 1.893c-.67.654-1.054 1.566-1.054 2.503v12.275h24v-12.028c-.305.362-.64.696-1 1.003v10.026zm-20-14.276v2.726l-1.368-1.368c-.007-.029 1.307-1.299 1.368-1.358z"/></svg>