<?xml version="1.0" encoding="UTF-8"?>
<svg xmlns="http://www.w3.org/2000/svg" id="Layer_1" data-name="Layer 1" viewBox="0 0 24 24">
  <path d="M3.5,7c1.379,0,2.5-1.121,2.5-2.5s-1.121-2.5-2.5-2.5S1,3.121,1,4.5s1.121,2.5,2.5,2.5Zm0-4c.827,0,1.5,.673,1.5,1.5s-.673,1.5-1.5,1.5-1.5-.673-1.5-1.5,.673-1.5,1.5-1.5ZM24,12.218v1.305l-15.128,10.477h-1.88L24,12.218Zm-15,7.958l1-.693v-3.483H6v-7h2.707l2.303-2.303c.109,3.485,2.971,6.29,6.483,6.29,3.58,0,6.493-2.913,6.493-6.493S21.073,0,17.493,0c-3.12,0-5.732,2.213-6.352,5.152l-2.848,2.848H3.5c-1.379,0-2.5,1.121-2.5,2.5v6.5h.011l.022,3.177L.074,24H1.111l.889-3.562v-3.438h7v3.176ZM17.493,1c3.029,0,5.493,2.464,5.493,5.493s-2.464,5.493-5.493,5.493-5.493-2.464-5.493-5.493S14.464,1,17.493,1ZM5,16H2v-5.5c0-.827,.673-1.5,1.5-1.5h1.5v7Z"/>
</svg>
