<svg id="Layer_1" viewBox="0 0 24 24" xmlns="http://www.w3.org/2000/svg" data-name="Layer 1"><path d="m14 16h4v1h-3v2.5h3v1h-3v2.5h3v1h-4zm-5 8h1v-3.5h3v-1h-3v-2.5h3v-1h-4zm15-2.25c0 1.241-1.01 2.25-2.25 2.25h-2.75v-8h2.25c1.24 0 2.25 1.009 2.25 2.25 0 .602-.237 1.149-.623 1.553.671.39 1.123 1.117 1.123 1.947zm-4-2.25h1.25c.689 0 1.25-.561 1.25-1.25s-.561-1.25-1.25-1.25h-1.25zm3 2.25c0-.689-.561-1.25-1.25-1.25h-1.75v2.5h1.75c.689 0 1.25-.561 1.25-1.25zm1-17.25v10.409c-.304-.242-.641-.444-1-.602v-5.307h-22v14h6v1h-7v-19.5c0-1.378 1.122-2.5 2.5-2.5h3.5v-2h1v2h10v-2h1v2h3.5c1.379 0 2.5 1.122 2.5 2.5zm-1 3.5v-3.5c0-.827-.673-1.5-1.5-1.5h-19c-.827 0-1.5.673-1.5 1.5v3.5z"/></svg>