<svg id="Layer_1" viewBox="0 0 24 24" xmlns="http://www.w3.org/2000/svg" data-name="Layer 1"><path d="m24 21c0 1.654-1.346 3-3 3h-7.762c.206-.307.367-.644.487-1h7.274c1.103 0 2-.897 2-2s-.897-2-2-2h-7v-.304c.024-.154.062-.392.108-.696h4.892c1.653 0 2-1.088 2-2 0-1.396-1.109-2.581-2.02-3.184-.156 1.229-1.208 2.184-2.48 2.184h-1.946c.046-.32.093-.655.141-1h1.805c.827 0 1.5-.673 1.5-1.5v-1.222l.676.253c1.341.504 3.324 2.272 3.324 4.468 0 .839-.247 1.524-.677 2.033 1.501.164 2.677 1.424 2.677 2.967zm-12-2.461v2.961c0 1.379-1.122 2.5-2.5 2.5h-5c-1.378 0-2.5-1.121-2.5-2.5v-2.961c-.135-.847-2-12.646-2-18.039v-.5h14v.5c0 5.393-1.865 17.192-2 18.039zm-10.995-17.539c.099 5.018 1.588 14.85 1.922 17h8.145c.334-2.15 1.824-11.982 1.922-17zm9.995 18h-8v2.5c0 .827.673 1.5 1.5 1.5h5c.827 0 1.5-.673 1.5-1.5z"/></svg>