<svg id="Layer_1" viewBox="0 0 24 24" xmlns="http://www.w3.org/2000/svg" data-name="Layer 1"><path d="m4 20v-4h1v4zm4 0v-9h-1v9zm3 0v-7h-1v7zm-10 3h13v1h-14v-21.5c0-1.378 1.121-2.5 2.5-2.5h10.207l7.293 7.293v3.707h-1v-3h-7v-7h-9.5c-.827 0-1.5.673-1.5 1.5zm12-16h5.293l-5.293-5.293zm11 7.75v7.583c0 1.151-2.009 1.667-4 1.667s-4-.515-4-1.667v-7.583c0-1.202 2.073-1.75 4-1.75s4 .548 4 1.75zm-7 5.058c.105.201 1.129.692 3 .692 1.881 0 2.908-.496 3.003-.695v-1.322c-.771.347-1.884.517-3.003.517s-2.23-.169-3-.516zm6.002-2.502v-1.361c-.783.372-1.909.555-3.002.555s-2.218-.183-3-.554v1.362c.105.201 1.129.692 3 .692s2.902-.493 3.002-.694zm-6-2.556c.088.215 1.103.75 2.998.75 1.922 0 2.938-.55 3.001-.759-.062-.191-1.079-.741-3.001-.741-1.896 0-2.91.535-2.998.75zm6.003 7.553v-1.321c-.771.348-1.884.518-3.005.518s-2.23-.169-3-.516v1.349c.086.167 1.114.667 3 .667s2.914-.499 3.005-.697z"/></svg>