<svg id="Layer_1" viewBox="0 0 24 24" xmlns="http://www.w3.org/2000/svg" data-name="Layer 1"><path d="m17.5 5.892v-1.235c2.728 1.803 4.544 4.931 4.495 8.439-.31-.042-.644-.068-.997-.082 0-.005.001-.009.001-.014 0-2.891-1.375-5.46-3.5-7.108zm-14.499 7.122s0-.009 0-.014c0-2.891 1.375-5.46 3.5-7.108v-1.235c-2.729 1.804-4.545 4.931-4.496 8.439.31-.042.644-.068.996-.082zm6.435 2.986h-1.049l1.888-6h.878l1.847 6h-1.046l-.308-1h-1.896l-.315 1zm.629-2h1.274l-.63-2.045zm5.435-12.5v6c0 1.036-1.758 1.5-3.5 1.5s-3.5-.464-3.5-1.5v-6c0-1.036 1.758-1.5 3.5-1.5s3.5.464 3.5 1.5zm-5.955 0c.235.185 1.073.5 2.455.5s2.22-.315 2.455-.5c-.235-.185-1.073-.5-2.455-.5s-2.22.315-2.455.5zm-.045 2.952c.13.171.986.548 2.5.548 1.531 0 2.391-.386 2.506-.554l-.004-1.854c-.667.274-1.583.407-2.502.407s-1.833-.133-2.5-.406zm5.013 2.988-.004-1.85c-.668.276-1.586.41-2.509.41s-1.833-.133-2.5-.406v1.906c.087.105.952.5 2.5.5s2.413-.395 2.513-.56zm-7.513 9.06v6c0 1.036-1.758 1.5-3.5 1.5s-3.5-.464-3.5-1.5v-6c0-1.036 1.758-1.5 3.5-1.5s3.5.464 3.5 1.5zm-5.955 0c.235.185 1.073.5 2.455.5s2.22-.315 2.455-.5c-.235-.185-1.073-.5-2.455-.5s-2.22.315-2.455.5zm-.045 2.952c.13.171.986.548 2.5.548 1.531 0 2.391-.386 2.506-.554l-.004-1.854c-.667.274-1.583.407-2.502.407s-1.833-.133-2.5-.406v1.859zm5.013 2.988-.004-1.85c-.668.276-1.586.41-2.509.41s-1.833-.133-2.5-.406v1.906c.087.105.952.5 2.5.5s2.413-.395 2.513-.56zm17.987-5.94v6c0 1.036-1.758 1.5-3.5 1.5s-3.5-.464-3.5-1.5v-6c0-1.036 1.758-1.5 3.5-1.5s3.5.464 3.5 1.5zm-5.955 0c.235.185 1.073.5 2.455.5s2.22-.315 2.455-.5c-.235-.185-1.073-.5-2.455-.5s-2.22.315-2.455.5zm-.045 2.952c.13.171.986.548 2.5.548 1.531 0 2.391-.386 2.506-.554l-.004-1.854c-.667.274-1.583.407-2.502.407s-1.833-.133-2.5-.406zm5.013 2.988-.004-1.85c-.668.276-1.586.41-2.509.41s-1.833-.133-2.5-.406v1.906c.087.105.952.5 2.5.5s2.413-.395 2.513-.56zm-9.013-6.44h1v-6h-1zm-5 5.475v1.064c.948.299 1.955.461 3 .461s2.052-.163 3-.461v-1.064c-.94.334-1.947.525-3 .525s-2.06-.191-3-.525z"/></svg>