<svg id="Layer_1" viewBox="0 0 24 24" xmlns="http://www.w3.org/2000/svg" data-name="Layer 1"><path d="m24 6.5v13.231c0 .618-.229 1.214-.645 1.676l-2.307 2.593h-1.343l2.908-3.263c.25-.277.387-.635.387-1.006v-13.231c0-.827-.673-1.5-1.5-1.5s-1.5.673-1.5 1.5v9h-.007c0 .57-.19 1.14-.577 1.601l-3.098 3.205-.719-.695 3.074-3.179c.46-.553.429-1.395-.055-1.934-.522-.613-1.529-.66-2.112-.116l-3.859 3.55c.221.379.353.808.353 1.253v4.814h-1v-4.814c0-.418-.177-.82-.485-1.104l-4.025-3.704c-.581-.539-1.589-.491-2.108.12-.494.551-.507 1.394-.032 1.96l3.051 3.152-.719.695-3.074-3.179c-.399-.474-.595-1.053-.598-1.627h-.01v-8.998c0-.827-.673-1.5-1.5-1.5s-1.5.673-1.5 1.5v13.231c0 .371.137.729.387 1.006l2.908 3.263h-1.343l-2.307-2.593c-.416-.462-.645-1.058-.645-1.676v-13.231c0-1.378 1.122-2.5 2.5-2.5s2.5 1.122 2.5 2.5v6.997c.391-.294.86-.466 1.359-.493.672-.039 1.306.188 1.803.634l3.838 3.531 3.833-3.527c.501-.449 1.134-.678 1.807-.638.499.027.968.199 1.359.493v-6.997c0-1.378 1.122-2.5 2.5-2.5s2.5 1.122 2.5 2.5zm-17.933 1.248 1.527-.897c-.064-.299-.094-.576-.094-.85s.03-.551.094-.85l-1.527-.897 1.521-2.586 1.516.892c.408-.34.881-.606 1.396-.786v-1.774h3v1.771c.515.18.988.446 1.396.786l1.516-.892 1.521 2.586-1.527.897c.064.299.094.576.094.85s-.03.551-.094.85l1.527.897-1.521 2.586-1.516-.892c-.408.34-.881.606-1.396.786v1.771h-3v-1.771c-.515-.18-.988-.446-1.396-.786l-1.516.892-1.521-2.586zm1.369.355.507.862 1.306-.768c.574.663 1.368 1.105 2.251 1.274v1.529h1v-1.529c.883-.169 1.677-.611 2.251-1.274l1.306.768.507-.862-1.32-.776c.126-.418.27-.949.257-1.327.013-.377-.131-.91-.257-1.327l1.32-.776-.507-.862-1.306.768c-.574-.663-1.369-1.106-2.251-1.274v-1.529h-1v1.529c-.883.168-1.677.61-2.251 1.274l-1.306-.768-.507.862 1.32.776c-.126.418-.27.949-.257 1.327-.013.377.131.91.257 1.327zm6.417-.957-1.354-1.354v-1.793h-1v2.207l1.646 1.646.707-.707z"/></svg>