<svg id="Layer_1" viewBox="0 0 24 24" xmlns="http://www.w3.org/2000/svg" data-name="Layer 1"><path d="m6.961 8.074-.846-.533 3.298-5.231c.509-.832 1.416-1.338 2.409-1.31.905 0 1.75.472 2.252 1.262l4.782 7.213c.101-.574.568-3.247.573-3.269l.979.201c-.007.04-.669 3.817-.684 3.866-.156.584-.784.927-1.355.766l-3.694-1.006.264-.965 2.986.813-4.69-7.075c-.327-.517-.868-.831-1.446-.807-.639 0-1.205.312-1.526.837l-3.302 5.236zm16.581 8.65-3-4.597-.838.547 3.001 4.599c.35.532.383 1.213.088 1.774-.309.584-.904.947-1.565.947l-6.798.005 2.406-2.183-.672-.74-2.836 2.573c-.451.41-.485 1.11-.08 1.557.033.037 2.855 2.621 2.887 2.651l.699-.714c-.018-.018-1.935-1.773-2.341-2.144l6.745-.005c1.022 0 1.957-.567 2.44-1.481.464-.884.412-1.953-.136-2.789zm-22.337 2.344c-.3-.544-.28-1.211.052-1.74l3.78-6.07.453 3.311.99-.136-.52-3.795c-.083-.604-.638-1.021-1.238-.945-.049.006-3.771.873-3.817.883l.188.982c.025-.005 2.506-.584 3.015-.702l-3.7 5.942c-.523.835-.554 1.89-.08 2.751.489.896 1.418 1.452 2.431 1.452h8.241v-1.001h-8.249c-.639 0-1.231-.356-1.546-.932zm8.093-1.067 1.036-3h-1.132s0 0-.002 0c-.383 0-.734-.176-.963-.484s-.297-.695-.186-1.063l1.825-5.455h3.978l-1.132 3h1.148c.456 0 .874.252 1.093.657.206.384.188.827-.047 1.183l-4.364 5.159-1.255.002zm2.44-4.002-.614 1.777 2.97-3.506c.053-.104-.039-.27-.223-.27h-2.594l1.132-3h-1.812l-1.593 4.758c-.037.142.04.244.195.244l2.538-.003z"/></svg>