<?xml version="1.0" encoding="UTF-8"?>
<svg xmlns="http://www.w3.org/2000/svg" id="Layer_1" data-name="Layer 1" viewBox="0 0 24 24">
  <path d="M21.5,0H2.5C1.121,0,0,1.122,0,2.5V24H24V2.5c0-1.378-1.121-2.5-2.5-2.5Zm1.5,23H1V2.5c0-.827,.673-1.5,1.5-1.5H21.5c.827,0,1.5,.673,1.5,1.5V23ZM8.667,3.731c-1.287,0-2.334,1.047-2.334,2.333v2.871c0,1.287,1.047,2.333,2.334,2.333s2.333-1.047,2.333-2.333v-2.871c0-1.287-1.047-2.333-2.333-2.333Zm1.333,5.205c0,.735-.598,1.333-1.333,1.333s-1.334-.598-1.334-1.333v-2.871c0-.735,.599-1.333,1.334-1.333s1.333,.598,1.333,1.333v2.871Zm2,4.064h1v7h-1v-7Zm-4.214,0c-.941,0-1.51,.97-1.618,1.531l-1.168,5.469h1.029l.318-1.5h2.835l.301,1.5h1.035l-1.104-5.425c-.126-.647-.687-1.575-1.628-1.575Zm-1.226,4.5l.586-2.76c.044-.228,.317-.74,.64-.74,.331,0,.593,.491,.646,.765l.549,2.735h-2.421Zm12.44-2.25c0-1.241-1.01-2.25-2.25-2.25h-2.25v7h1v-2.5h1.25c.072,0,.14-.015,.211-.021l.917,2.521h1.064l-1.03-2.833c.65-.395,1.089-1.103,1.089-1.917Zm-2.25,1.25h-1.25v-2.5h1.25c.689,0,1.25,.561,1.25,1.25s-.561,1.25-1.25,1.25Zm-.722-5.692l-2.528-4.496v4.688h-1V3.938h.792l.163,.255,2.545,4.525V4h1v7.062h-.792l-.18-.255Z"/>
</svg>
