<svg id="Layer_1" viewBox="0 0 24 24" xmlns="http://www.w3.org/2000/svg" data-name="Layer 1"><path d="m18.699 14.231c-.391-.845-.699-1.513-.699-2.231 0-1.109.339-2.437.612-3.503.238-.947.406-1.544.387-2.147-.095-.179-.973-1.38-.999-3.349v-3.001h-1c0 .689-.157 1.366-.456 1.959-.614 1.224-2.793 3.041-4.544 3.041s-3.93-1.816-4.545-3.041c-.298-.593-.455-1.27-.455-1.959h-1v3c-.028 1.974-.902 3.166-1 3.35-.017.603.15 1.201.388 2.147.273 1.067.612 2.395.612 3.503 0 .718-.309 1.386-.699 2.231-.597 1.24-1.364 3.08-1.301 5.493l4.81 4.275h6.381l4.81-4.275c.063-2.414-.704-4.252-1.301-5.493zm-3.889 8.769h-5.619l-4.188-3.723c.041-2.104.659-3.441 1.207-4.626.267-.577.498-1.106.643-1.651h8.148v-1h-8.001c0-1.234-.356-2.63-.643-3.751-.163-.638-.318-1.244-.351-1.618.257-.437.967-1.796.992-3.535 1.03 1.362 3.111 2.904 5.001 2.904s3.971-1.542 5.001-2.904c.025 1.739.735 3.099.992 3.535-.032.374-.188.98-.351 1.618-.286 1.121-.643 2.517-.643 3.751 0 .938.366 1.732.791 2.651.548 1.185 1.166 2.522 1.207 4.626l-4.188 3.723z"/></svg>