<svg id="Layer_1" viewBox="0 0 24 24" xmlns="http://www.w3.org/2000/svg" data-name="Layer 1"><path d="m0 21.5c0 1.379 1.122 2.5 2.5 2.5h20.707l-23.207-23.207zm1-18.293 19.793 19.793h-18.293c-.827 0-1.5-.673-1.5-1.5zm7.025 2.768c-1.358-1.302-1.358-3.647 0-4.949 1.111-1.111 2.819-1.336 4.171-.584.565-.29 1.183-.442 1.804-.442 1.868 0 3.477 1.315 3.885 3.115 1.8.408 3.115 2.017 3.115 3.885 0 2.206-1.794 4-4 4v-1c1.654 0 3-1.346 3-3 0-1.492-1.122-2.764-2.61-2.958-.93-.154-1.879.189-2.532.859l-.715-.699c.714-.729 1.659-1.136 2.671-1.183-.41-1.183-1.528-2.018-2.814-2.018-.65-.013-1.282.246-1.831.617-1.01-.83-2.504-.832-3.437.116-.97.931-.97 2.604 0 3.535l10 10c.943.945 2.592.945 3.535 0 .97-.931.97-2.605 0-3.535l.707-.707c1.358 1.302 1.358 3.646 0 4.949-1.301 1.358-3.649 1.358-4.949 0z"/></svg>