<svg id="Layer_1" viewBox="0 0 24 24" xmlns="http://www.w3.org/2000/svg" data-name="Layer 1"><path d="m9 7h-1v-2.808c0-.657.535-1.192 1.192-1.192h2.808v1h-2.293l5.293 5.293v-2.293h1v2.808c0 .657-.535 1.192-1.192 1.192h-2.808v-1h2.293l-5.293-5.293zm-4 4.5v-9c0-1.379 1.122-2.5 2.5-2.5h9c1.378 0 2.5 1.121 2.5 2.5v9c0 1.379-1.122 2.5-2.5 2.5h-9c-1.378 0-2.5-1.121-2.5-2.5zm1 0c0 .827.673 1.5 1.5 1.5h9c.827 0 1.5-.673 1.5-1.5v-9c0-.827-.673-1.5-1.5-1.5h-9c-.827 0-1.5.673-1.5 1.5zm18 8.5v-15.5c0-1.379-1.122-2.5-2.5-2.5h-.5v1h.5c.827 0 1.5.673 1.5 1.5v14.5h-22v-14.5c0-.827.673-1.5 1.5-1.5h.5v-1l-.819.021c-1.228.157-2.181 1.209-2.181 2.479v15.5h11.5v3h-5.5v1h12v-1h-5.5v-3z"/></svg>