<?xml version="1.0" encoding="UTF-8"?>
<svg xmlns="http://www.w3.org/2000/svg" id="Layer_1" data-name="Layer 1" viewBox="0 0 24 24">
  <path d="M24,23v1H0v-1H24ZM.474,16.878l-.444,.896c.183,.091,4.569,2.225,11.97,2.226h.004c7.401,0,11.787-2.135,11.97-2.226l-.444-.896c-.043,.021-4.379,2.121-11.528,2.122-7.149,0-11.486-2.101-11.529-2.122Zm11.522-.878s0,0,.004,0c7.297-.002,11.79-5.228,11.978-5.451l-.765-.645c-.043,.051-4.377,5.094-11.215,5.095-6.822,0-11.177-5.045-11.22-5.096L.014,10.55c.188,.222,4.685,5.448,11.981,5.45Zm.004-5c.381,0,.763-.146,1.053-.436l3.301-3.3-.707-.707-3.147,3.146-.002-9.704h-1l.002,9.703-3.146-3.146-.707,.707,3.301,3.3c.29,.291,.671,.436,1.053,.436Z"/>
</svg>
