<svg id="Layer_1" viewBox="0 0 24 24" xmlns="http://www.w3.org/2000/svg" data-name="Layer 1"><path d="m24 5.5c0-1.378-1.121-2.5-2.5-2.5h-17.793l-2.953-2.954-.707.707 23.199 23.2.707-.707-2.246-2.247h2.293zm-10 7.793v-5.293h2.5c1.379 0 2.5 1.122 2.5 2.5v3c0 1.314-1.022 2.383-2.312 2.481zm9 6.707h-2.293l-3.173-3.174c1.424-.444 2.467-1.759 2.467-3.326v-3c0-1.93-1.57-3.5-3.5-3.5h-3.5v5.293l-3.544-3.544-.238-.772c-.187-.604-.665-.994-1.218-.994-.093 0-.183.017-.27.039l-3.022-3.023h16.793c.827 0 1.5.673 1.5 1.5v14.5zm-6.536 0 1 1h-17.464v-15.5c0-.553.186-1.059.491-1.474l.72.72c-.13.222-.211.478-.211.754v14.5zm-9.434-9.434-1.059 3.434h4.529l.847.883.653 2.117h-1.046l-.617-2h-4.674l-.617 2h-1.046l2.231-7.234.8.8z"/></svg>