<?xml version="1.0" encoding="UTF-8"?>
<svg xmlns="http://www.w3.org/2000/svg" id="Layer_1" data-name="Layer 1" viewBox="0 0 24 24">
  <path d="M23.18,12c-2.057,0-2.636-.636-3.905-2.028-1.26-1.196-2.162-2.946-4.274-2.972-1.25,0-2.468,.609-3,.915-.532-.306-1.75-.915-3-.915-2.099,.026-2.992,1.785-4.253,2.971-1.275,1.394-1.857,2.029-3.927,2.029H.043l.322,.707c1.242,2.729,3.296,4.293,5.635,4.293,3.522,0,5.258-1.803,6-2.937,.742,1.133,2.478,2.937,6,2.937,2.339,0,4.393-1.564,5.635-4.293l.322-.707h-.777Zm-5.18,4c-4.305,0-5.482-3.042-5.53-3.172l-.465-1.281-.475,1.281c-.048,.129-1.226,3.172-5.53,3.172-2.247,0-3.634-1.68-4.386-3.034,1.907-.175,2.68-1.019,3.871-2.32,1.007-.932,1.997-2.672,3.515-2.646,1.687,.1,2.577,.861,3.001,1.101,.42-.239,1.309-1.002,2.999-1.101,1.53-.03,2.529,1.704,3.536,2.646,1.185,1.3,1.954,2.144,3.85,2.32-.752,1.354-2.139,3.034-4.386,3.034Z"/>
</svg>
