<svg id="Layer_1" viewBox="0 0 24 24" xmlns="http://www.w3.org/2000/svg" data-name="Layer 1"><path d="m7 11c1.378 0 2.5-1.122 2.5-2.5s-1.122-2.5-2.5-2.5-2.5 1.122-2.5 2.5 1.122 2.5 2.5 2.5zm0-4c.827 0 1.5.673 1.5 1.5s-.673 1.5-1.5 1.5-1.5-.673-1.5-1.5.673-1.5 1.5-1.5zm3 9v-2c0-.551-.449-1-1-1h-4c-.551 0-1 .449-1 1v2h-1v-2c0-1.103.897-2 2-2h4c1.103 0 2 .897 2 2v2zm13.414-15.414c-.378-.378-.88-.586-1.413-.586l-6 .002c-1.103 0-2 .898-2 2.001l.002 7.858c0 .438.244.831.637 1.024.391.193.852.15 1.201-.118l2.302-1.767h5.858v-7c0-.534-.208-1.036-.586-1.414zm-.414 7.414h-5.198l-2.571 1.974c-.057.044-.113.033-.149.015s-.079-.055-.079-.127l-.002-7.858c0-.552.448-1 1-1.001l6-.002c.267 0 .518.104.706.292.188.189.293.44.293.707zm1 13.5v2.5h-1v-2.5c0-.827-.673-1.5-1.5-1.5h-5c-.827 0-1.5.673-1.5 1.5v2.5h-1v-2.5c0-1.378 1.121-2.5 2.5-2.5h5c1.379 0 2.5 1.122 2.5 2.5zm-5-4c1.654 0 3-1.346 3-3s-1.346-3-3-3-3 1.346-3 3 1.346 3 3 3zm0-5c1.103 0 2 .897 2 2s-.897 2-2 2-2-.897-2-2 .897-2 2-2zm-6.24 6.5c-.205.307-.359.646-.484 1h-.276v4h-6v-1h5v-3h-11v-16c0-1.103.897-2 2-2h10v1h-10c-.551 0-1 .449-1 1v15z"/></svg>