<svg id="Layer_1" viewBox="0 0 24 24" xmlns="http://www.w3.org/2000/svg" data-name="Layer 1"><path d="m24 4v-1h-4v-3h-1v1h-5c-1.654 0-3 1.346-3 3v1.5h-7.5c-1.93 0-3.5 1.57-3.5 3.5v11.5c0 1.93 1.57 3.5 3.5 3.5h2.5v-1h-2.5c-1.379 0-2.5-1.121-2.5-2.5v-11.5c0-1.379 1.121-2.5 2.5-2.5h7.5v1.5c0 1.654 1.346 3 3 3h5v1h1v-3h4v-1h-4v-4zm-10 6c-1.103 0-2-.897-2-2v-4c0-1.103.897-2 2-2h5v8zm7.5 4c-1.379 0-2.5 1.121-2.5 2.5v5c0 1.379 1.121 2.5 2.5 2.5s2.5-1.121 2.5-2.5v-5c0-1.379-1.121-2.5-2.5-2.5zm1.5 7.5c0 .827-.673 1.5-1.5 1.5s-1.5-.673-1.5-1.5v-5c0-.827.673-1.5 1.5-1.5s1.5.673 1.5 1.5zm-15-7.5h4v1h-3v3.5h2v1h-2v3.5h3v1h-4zm10 2.5v.5h-1v-.5c0-.827-.673-1.5-1.5-1.5s-1.5.673-1.5 1.5v5c0 .827.673 1.5 1.5 1.5s1.5-.673 1.5-1.5v-.5h1v.5c0 1.379-1.121 2.5-2.5 2.5s-2.5-1.121-2.5-2.5v-5c0-1.379 1.121-2.5 2.5-2.5s2.5 1.121 2.5 2.5z"/></svg>