<?xml version="1.0" encoding="UTF-8"?>
<svg xmlns="http://www.w3.org/2000/svg" id="Layer_1" data-name="Layer 1" viewBox="0 0 24 24">
  <path d="M14.5,13c-1.378,0-2.5,1.121-2.5,2.5v3c0,1.379,1.122,2.5,2.5,2.5s2.5-1.121,2.5-2.5v-3c0-1.379-1.122-2.5-2.5-2.5Zm1.5,5.5c0,.827-.673,1.5-1.5,1.5s-1.5-.673-1.5-1.5v-3c0-.827,.673-1.5,1.5-1.5s1.5,.673,1.5,1.5v3Zm-9-3v3c0,.827,.673,1.5,1.5,1.5s1.5-.673,1.5-1.5h1c0,1.379-1.122,2.5-2.5,2.5s-2.5-1.121-2.5-2.5v-3c0-1.379,1.122-2.5,2.5-2.5s2.5,1.121,2.5,2.5h-1c0-.827-.673-1.5-1.5-1.5s-1.5,.673-1.5,1.5Zm12.991,7.074c-.193,.123-.433,.276-.629,.426h2.638v1h-4v-.5c0-.841,.706-1.291,1.452-1.769,.761-.486,1.548-.989,1.548-1.731-.004-.231-.087-1-1-1s-.996,.769-1,1.004l-1-.004c0-.804,.533-2,2-2s2,1.196,2,2c0,1.29-1.114,2.002-2.009,2.574Zm3.984-10.074c0,1.676-.583,3.261-1.531,4.539-.24-.224-.509-.42-.814-.579,.828-1.113,1.345-2.493,1.345-3.96,.01-3.644-3.088-6.609-6.724-6.5-.81-2.942-3.466-5.01-6.526-5-3.722,0-6.75,3.028-6.75,6.75-.009,.908,.212,1.831,.553,2.691-1.541,.798-2.569,2.326-2.553,4.059,0,1.86,1.148,3.433,2.762,4.116,.01,.397,.082,.776,.189,1.142C1.648,19.085-.026,16.992-.026,14.5c0-1.803,.87-3.451,2.345-4.483-.229-.743-.345-1.504-.345-2.267C1.974,3.477,5.451,0,9.724,0c3.249,0,6.12,2.004,7.252,5.022,3.89,.262,6.998,3.545,6.998,7.478Z"/>
</svg>
