<svg id="Layer_1" viewBox="0 0 24 24" xmlns="http://www.w3.org/2000/svg" data-name="Layer 1"><path d="m17.5 11c-3.584 0-6.5 2.916-6.5 6.5s2.916 6.5 6.5 6.5 6.5-2.916 6.5-6.5-2.916-6.5-6.5-6.5zm0 12c-3.032 0-5.5-2.468-5.5-5.5s2.468-5.5 5.5-5.5 5.5 2.468 5.5 5.5-2.468 5.5-5.5 5.5zm3.038-3.83c0 1.009-.8 1.83-1.782 1.83h-.756v1h-1v-1h-.718c-.982 0-1.782-.821-1.782-1.83v-.17h1v.17c0 .458.351.83.782.83h2.474c.432 0 .782-.372.782-.83 0-.371-.235-.7-.571-.8l-3.095-.775c-.778-.23-1.308-.954-1.308-1.765 0-1.009.8-1.83 1.782-1.83h.653v-1h1v1h.718c.982 0 1.782.821 1.782 1.83v.195h-1v-.195c0-.458-.351-.83-.782-.83h-2.371c-.432 0-.782.372-.782.83 0 .371.235.7.571.8l3.095.775c.778.23 1.308.954 1.308 1.765zm-13.038 2.83c-3.83 0-6.5-1.317-6.5-2.5v-2.202c1.273 1.035 3.654 1.702 6.5 1.702.56 0 1.101-.026 1.62-.075-.055-.326-.092-.658-.109-.996-.479.046-.984.071-1.511.071-3.83 0-6.5-1.317-6.5-2.5v-2.202c1.273 1.035 3.654 1.702 6.5 1.702.664 0 1.302-.036 1.907-.105.118-.368.261-.725.426-1.069-.712.111-1.495.174-2.333.174-3.83 0-6.5-1.317-6.5-2.5v-2.209c1.272 1.037 3.649 1.709 6.5 1.709s5.228-.671 6.5-1.709c.569-.478.984-1.053 1-1.791v-4c0-1.995-3.224-3.5-7.5-3.5s-7.5 1.505-7.5 3.5v16c0 1.995 3.225 3.5 7.5 3.5 1.182 0 2.283-.115 3.258-.324-.221-.287-.424-.589-.608-.904-.794.144-1.685.228-2.651.228zm0-21c3.831 0 6.5 1.317 6.5 2.5s-2.669 2.5-6.5 2.5-6.5-1.317-6.5-2.5 2.669-2.5 6.5-2.5zm-6.5 4.291c1.272 1.037 3.649 1.709 6.5 1.709s5.228-.671 6.5-1.709v2.209c0 1.183-2.669 2.5-6.5 2.5s-6.5-1.317-6.5-2.5z"/></svg>