<?xml version="1.0" encoding="UTF-8"?>
<svg xmlns="http://www.w3.org/2000/svg" id="Layer_1" data-name="Layer 1" viewBox="0 0 24 24">
  <path d="M24.059,17.941l-2.506-2.507c-.581-.579-1.525-.58-2.105,0l-2.506,2.506,.707,.707,2.352-2.352v5.204c0,.827-.673,1.5-1.5,1.5h-4.5v1h4.5c1.378,0,2.5-1.122,2.5-2.5v-5.204l2.352,2.352,.707-.707ZM3.5,9c.381,0,.763-.145,1.053-.436l2.506-2.506-.707-.707-2.352,2.352V2.5c0-.827,.673-1.5,1.5-1.5h4.5V0H5.5c-1.378,0-2.5,1.122-2.5,2.5V7.703L.648,5.351-.059,6.058l2.506,2.506c.29,.291,.671,.436,1.053,.436Zm6,2H2.5c-1.378,0-2.5,1.122-2.5,2.5v8.916c0,.586,.321,1.123,.838,1.4,.236,.126,.494,.188,.75,.188,.307,0,.612-.089,.876-.265l2.654-1.739h6.881V13.5c0-1.378-1.122-2.5-2.5-2.5Zm1.5,10H4.82l-2.907,1.904c-.183,.122-.409,.133-.603,.029s-.311-.298-.311-.518V13.5c0-.827,.673-1.5,1.5-1.5h7c.827,0,1.5,.673,1.5,1.5v7.5Zm10.532-8.264c.266,.177,.573,.267,.88,.267,.257,0,.514-.062,.75-.188,.517-.277,.838-.813,.838-1.4V2.5c0-1.378-1.122-2.5-2.5-2.5h-7c-1.378,0-2.5,1.122-2.5,2.5V11h6.881l2.651,1.736ZM13,2.5c0-.827,.673-1.5,1.5-1.5h7c.827,0,1.5,.673,1.5,1.5V11.416c0,.22-.116,.414-.311,.518-.195,.104-.421,.093-.606-.032l-2.903-1.902h-6.18V2.5Z"/>
</svg>
