<?xml version="1.0" encoding="UTF-8"?>
<svg xmlns="http://www.w3.org/2000/svg" id="Layer_1" data-name="Layer 1" viewBox="0 0 24 24">
  <path d="M22.741,5.03c-1.025,.042-6.242,.354-8.27,2.381-1.791,1.816-2.037,4.788-.233,6.724-.788,.974-1.238,2.164-1.238,3.436v1.929c0,1.93-1.57,3.5-3.5,3.5s-3.5-1.57-3.5-3.5v-7.5h1c1.654,0,3-1.346,3-3V5h1v-1h-3V0h-1V4h-3V0h-1V4H0v1H1v4c0,1.654,1.346,3,3,3h1v7.5c0,2.481,2.019,4.5,4.5,4.5s4.5-2.019,4.5-4.5v-1.929c0-1.009,.346-1.956,.955-2.74,1.91,1.738,4.842,1.461,6.636-.303,2.478-2.964,2.264-7.413,2.425-9.549l-1.274,.052ZM2,9V5h7v4c0,1.103-.897,2-2,2h-3c-1.103,0-2-.897-2-2Zm20.971-2.782c-.071,2.121-.592,6.108-2.086,7.602-1.412,1.38-3.736,1.659-5.261,.264l3.729-3.73-.707-.707-3.73,3.73c-1.394-1.523-1.117-3.851,.263-5.259,1.534-1.506,5.59-2.017,7.799-2.096l-.008,.196Z"/>
</svg>
