<?xml version="1.0" encoding="UTF-8"?>
<svg xmlns="http://www.w3.org/2000/svg" id="Layer_1" data-name="Layer 1" viewBox="0 0 24 24">
  <path d="M21.5,1H2.5C1.122,1,0,2.121,0,3.5V23H24V3.5c0-1.379-1.122-2.5-2.5-2.5ZM2.5,2H21.5c.827,0,1.5,.673,1.5,1.5v4.5H1V3.5c0-.827,.673-1.5,1.5-1.5ZM1,22V9H23v13H1ZM3,5c0-.552,.448-1,1-1s1,.448,1,1-.448,1-1,1-1-.448-1-1Zm3,0c0-.552,.448-1,1-1s1,.448,1,1-.448,1-1,1-1-.448-1-1Zm3,0c0-.552,.448-1,1-1s1,.448,1,1-.448,1-1,1-1-.448-1-1Zm5.196,12.068c0,1.269-1.082,1.932-2.151,1.932-1.121,0-2.17-.904-2.286-1.007l.664-.748c.238,.21,.994,.755,1.623,.755,.428,0,1.151-.196,1.151-.932,0-.501-.516-.776-1.366-1.171-.857-.398-1.924-.894-1.924-2.049,0-1.201,1.03-1.849,2-1.849,.889,0,1.926,.786,2.042,.876l-.613,.79c-.333-.258-1.015-.666-1.429-.666-.346,0-1,.178-1,.849,0,.482,.508,.753,1.346,1.142,.866,.402,1.944,.902,1.944,2.078Zm5.714,0c0,1.269-1.082,1.932-2.151,1.932-1.121,0-2.17-.904-2.286-1.007l.664-.748c.238,.21,.994,.755,1.623,.755,.428,0,1.151-.196,1.151-.932,0-.501-.516-.776-1.365-1.171-.857-.398-1.924-.894-1.924-2.049,0-1.201,1.03-1.849,2-1.849,.889,0,1.926,.786,2.042,.876l-.613,.79c-.333-.258-1.015-.666-1.429-.666-.346,0-1,.178-1,.849,0,.482,.508,.753,1.345,1.142,.866,.402,1.944,.902,1.944,2.078Zm-14.884-2.818v2.5c0,.689,.561,1.25,1.25,1.25,.601,0,1.08-.434,1.199-1h1.025c-.126,1.122-1.07,2-2.225,2-1.241,0-2.25-1.01-2.25-2.25v-2.5c0-1.24,1.009-2.25,2.25-2.25,1.155,0,2.099,.878,2.225,2h-1.025c-.119-.566-.599-1-1.199-1-.689,0-1.25,.561-1.25,1.25Z"/>
</svg>
