<svg id="Layer_1" viewBox="0 0 24 24" xmlns="http://www.w3.org/2000/svg" data-name="Layer 1"><path d="m8.998 12c3.308 0 5.999-2.691 5.999-5.999s-2.691-5.998-5.999-5.998-5.999 2.69-5.999 5.998 2.691 5.999 5.999 5.999zm0-10.998c2.756 0 4.999 2.243 4.999 4.999s-2.243 4.999-4.999 4.999-4.999-2.243-4.999-4.999 2.243-4.999 4.999-4.999zm8.675 4.58-.707-.707 2.407-2.408c.619-.619 1.626-.619 2.245 0l2.382 2.382-.707.707-2.298-2.298v5.742h-1v-5.742l-2.323 2.323zm-2.56 8.73c-.071.31-.116.629-.116.961 0 .027.005.054.006.081-.458-.22-.964-.354-1.505-.354h-8.999c-1.929 0-3.499 1.57-3.499 3.499v5.499h-1v-5.499c0-2.481 2.018-4.499 4.499-4.499h8.998c.571 0 1.113.118 1.616.313zm8.882.961v.227h-1v-.227c0-.702-.543-1.273-1.21-1.273h-2.58c-.667 0-1.21.571-1.21 1.273 0 .567.363 1.071.882 1.225l3.519 1.043c.941.279 1.598 1.177 1.598 2.184 0 1.254-.991 2.273-2.209 2.273h-.79v2h-1v-2h-.79c-1.218 0-2.209-1.019-2.209-2.273v-.227h1v.227c0 .702.543 1.273 1.21 1.273h2.58c.667 0 1.21-.571 1.21-1.273 0-.567-.363-1.071-.882-1.225l-3.519-1.043c-.941-.279-1.598-1.177-1.598-2.184 0-1.254.991-2.273 2.209-2.273h.751v-2h1v2h.828c1.218 0 2.209 1.019 2.209 2.273z"/></svg>