<svg id="Layer_1" viewBox="0 0 24 24" xmlns="http://www.w3.org/2000/svg" data-name="Layer 1"><path d="m7.5 12c.834 0 1.593-.152 2.27-.434.69.277 1.441.434 2.23.434s1.539-.157 2.229-.434c.678.283 1.437.434 2.271.434 2.96-.347 3.212-2.076 3.809-3h-.809c-.826 0-1.384-.661-1.741-1.333.154-.53.241-1.088.241-1.667 0-3.309-2.691-6-6-6s-6 2.691-6 6c0 .6.091 1.178.255 1.725-.368.651-.932 1.275-1.755 1.275h-.809c.594.92.852 2.656 3.809 3zm11.159-2.146c-.412.501-1.139 1.146-2.159 1.146-.368 0-.713-.04-1.043-.104.771-.546 1.409-1.268 1.852-2.109.391.51.842.883 1.35 1.067zm-1.659-3.854c0 3-2.436 5-5 5-2.795 0-5-2.385-5-5h1.5c2.723 0 5.095-1.769 5.938-4.338 1.521.859 2.562 2.471 2.562 4.338zm-5-5c.534 0 1.04.106 1.523.262-.683 2.21-2.702 3.738-5.023 3.738h-1.399c.465-2.279 2.484-4 4.899-4zm-5.294 7.817c.443.828 1.075 1.539 1.837 2.079-.33.064-.675.104-1.043.104-1.017 0-1.744-.642-2.156-1.143.51-.179.965-.543 1.361-1.04zm14.294 9.683v5.5h-1v-5.5c0-1.93-1.57-3.5-3.5-3.5h-9c-1.93 0-3.5 1.57-3.5 3.5v5.5h-1v-5.5c0-2.481 2.019-4.5 4.5-4.5h9c2.481 0 4.5 2.019 4.5 4.5z"/></svg>