<svg id="Layer_1" viewBox="0 0 24 24" xmlns="http://www.w3.org/2000/svg" data-name="Layer 1"><path d="m12 15c1.103 0 2-.897 2-2 0-.929-.64-1.705-1.5-1.929v-6.071h-1v6.071c-.86.224-1.5 1-1.5 1.929 0 1.103.897 2 2 2zm0-3c.551 0 1 .449 1 1s-.449 1-1 1-1-.448-1-1 .449-1 1-1zm7.5 11h2.754l-5.254-9.008-5.254 9.008h2.754v1h-4.496l6.996-11.992 6.996 11.992h-4.496zm-2-2h-1v-4h1zm.5 2c0 .552-.448 1-1 1s-1-.448-1-1 .448-1 1-1 1 .448 1 1zm-9.378-.6-.511.876c-4.149-1.576-7.111-5.582-7.111-10.277 0-3.062 1.26-5.833 3.285-7.829l-1.662-1.81-1.256 1.256-.707-.707 3.25-3.249.707.707-1.286 1.286 1.696 1.847c1.778-1.461 4.024-2.364 6.473-2.475v-2.025h1v2.025c2.449.111 4.695 1.013 6.473 2.475l1.696-1.847-1.224-1.224.707-.707 3.188 3.188-.707.707-1.256-1.256-1.662 1.81c2.025 1.996 3.285 4.767 3.285 7.829 0 1.416-.278 2.765-.767 4.009l-.659-1.13c.275-.912.427-1.878.427-2.879 0-5.514-4.486-10-10-10s-10.001 4.486-10.001 10c0 4.327 2.768 8.01 6.622 9.4z"/></svg>