<svg id="Layer_1" viewBox="0 0 24 24" xmlns="http://www.w3.org/2000/svg" data-name="Layer 1"><path d="m6 24h4v-4h-4zm1-3h2v2h-2zm7 3h4v-4h-4zm1-3h2v2h-2zm5-1v4h4v-4zm3 3h-2v-2h2zm-23 1h4v-4h-4zm1-3h2v2h-2zm12.735-18.51.696.717-2.014 1.957c-.224.224-.52.336-.817.336s-.599-.114-.827-.341l-1.118-1.061.688-.726 1.126 1.069c.075.074.181.074.245.009l2.02-1.961zm-9.962 12.669-1.118-1.061.688-.726 1.126 1.069c.075.073.181.074.245.009l2.02-1.961.696.717-2.014 1.957c-.224.224-.52.336-.817.336s-.599-.114-.827-.341zm5.227-.659h6v3.5h8v-8h-8v3.5h-2.5v-5.5h3.5v-8h-8v8h3.5v5.5h-2.5v-3.5h-8v8h8zm7-3.5h6v6h-6zm-7-10h6v6h-6zm-1 16h-6v-6h6zm13.354-4.646-1.646 1.646 1.646 1.646-.707.707-1.646-1.646-1.646 1.646-.707-.707 1.646-1.646-1.646-1.646.707-.707 1.646 1.646 1.646-1.646z"/></svg>