<?xml version="1.0" encoding="UTF-8"?>
<svg xmlns="http://www.w3.org/2000/svg" id="Layer_1" data-name="Layer 1" viewBox="0 0 24 24">
  <path d="M9,10h2v1h-2v-1Zm2-4h-2v1h2v-1Zm-2,9h2v-1h-2v1ZM21.5,5h-2.5V2.5c0-1.378-1.121-2.5-2.5-2.5H7.5c-1.379,0-2.5,1.122-2.5,2.5v3.431l1,1.02V2.5c0-.827,.673-1.5,1.5-1.5h9c.827,0,1.5,.673,1.5,1.5v3.5h3.5c.827,0,1.5,.673,1.5,1.5v15.5H6v-4.951l-1,1.048v4.903H24V7.5c0-1.378-1.121-2.5-2.5-2.5Zm-13.5,7.5c0-.372-.145-.72-.399-.974l-2.739-2.872-.723,.69,2.532,2.655H0v1H6.671l-2.532,2.655,.723,.69,2.731-2.863c.263-.262,.407-.611,.407-.982Zm1,6.5h2v-1h-2v1Zm4,0h2v-1h-2v1Zm5-4h2v-1h-2v1Zm2-5h-2v1h2v-1Zm-2,9h2v-1h-2v1Zm-5-4h2v-1h-2v1Zm2-9h-2v1h2v-1Zm-2,5h2v-1h-2v1Z"/>
</svg>
