<svg id="Layer_1" viewBox="0 0 24 24" xmlns="http://www.w3.org/2000/svg" data-name="Layer 1"><path d="m10.5 5c1.378 0 2.5-1.122 2.5-2.5s-1.122-2.5-2.5-2.5-2.5 1.122-2.5 2.5 1.122 2.5 2.5 2.5zm0-4c.827 0 1.5.673 1.5 1.5s-.673 1.5-1.5 1.5-1.5-.673-1.5-1.5.673-1.5 1.5-1.5zm7.5 12c2.206 0 4-1.794 4-4s-1.794-4-4-4-4 1.794-4 4 1.794 4 4 4zm0-7c1.654 0 3 1.346 3 3s-1.346 3-3 3-3-1.346-3-3 1.346-3 3-3zm5.977 17.719c-.47.187-.967.281-1.477.281-1.504 0-2.817-.834-3.5-2.065-.683 1.23-1.996 2.065-3.5 2.065s-2.817-.834-3.5-2.065c-.683 1.23-1.996 2.065-3.5 2.065s-2.817-.834-3.5-2.065c-.683 1.23-1.996 2.065-3.5 2.065-.509 0-1.006-.095-1.477-.281l.369-.93c.353.14.725.211 1.107.211 1.654 0 3-1.346 3-3h1c0 1.654 1.346 3 3 3s3-1.346 3-3h1c0 1.654 1.346 3 3 3s3-1.346 3-3h1c0 1.654 1.346 3 3 3 .383 0 .756-.071 1.107-.211l.369.93zm-19.784-5.719 4.388-6.227-2.514-1.725s-.002-.003-.004-.004c-.665-.467-1.062-1.231-1.062-2.044v-8h1v8c0 .488.238.947.637 1.227s12.783 8.773 12.783 8.773h-1.767l-8.248-5.661-3.989 5.661h-1.223z"/></svg>