<?xml version="1.0" encoding="UTF-8"?>
<svg xmlns="http://www.w3.org/2000/svg" id="Layer_1" data-name="Layer 1" viewBox="0 0 24 24">
  <path d="M12.5,5c1.378,0,2.5-1.122,2.5-2.5s-1.122-2.5-2.5-2.5-2.5,1.122-2.5,2.5,1.122,2.5,2.5,2.5Zm0-4c.827,0,1.5,.673,1.5,1.5s-.673,1.5-1.5,1.5-1.5-.673-1.5-1.5,.673-1.5,1.5-1.5Zm7.224,12.553c-1.854-.927-4.023-3.297-5.318-5.046-.794-1.17-1.808-2.606-3.406-2.507-1.132,0-2.13,.439-2.966,1.306-3.482,3.745-3.016,13.032-3.016,13.694h1.982v3h1v-3h3v3h1v-3h2c.003-1.432-.013-2.903-.031-4.301-.034-2.763-.064-5.369,.101-6.988,1.347,1.708,3.202,3.628,4.93,4.59v9.699h1V13.691l-.276-.138Zm-6.625-4.188c-.2,1.661-.167,4.296-.129,7.346,.013,1.073,.027,2.182,.03,3.289H5.992c-.014-1.949,.116-9.258,2.762-12,.649-.673,1.384-1,2.247-1,.589,0,1.149,.249,1.548,.679l.296,.399c.217,.387,.309,.838,.255,1.287Z"/>
</svg>
