<?xml version="1.0" encoding="UTF-8"?>
<svg xmlns="http://www.w3.org/2000/svg" id="Layer_1" data-name="Layer 1" viewBox="0 0 24 24">
  <path d="m2.989,24c.037,0-.037.002,0,0h0Zm21.006-14.27c-.08,2.665-1.192,5.2-3.132,7.139-2.003,2.004-4.617,3.116-7.36,3.131-1.653.021-3.086-.297-4.283-.884-.447-.219-.976-.11-1.288.265l-2.998,3.707c-.459.549-1.236.882-1.944.913-.668,0-1.314-.267-1.789-.741l-.475-.45C.226,22.31-.028,21.663.002,20.98c.035-.786.441-1.542,1.144-2.128l3.501-2.769c.359-.301.465-.83.245-1.279-.552-1.125-.853-2.401-.892-3.79-.019-.692.023-1.372.126-2.03C1.819,8.794,0,6.856,0,4.5,0,2.019,2.019,0,4.5,0c1.605,0,3.016.844,3.813,2.112,4.01-2.997,9.559-2.782,12.958.617,1.838,1.838,2.806,4.324,2.725,7Zm-15.995-5.23c0-1.93-1.57-3.5-3.5-3.5s-3.5,1.57-3.5,3.5,1.57,3.5,3.5,3.5,3.5-1.57,3.5-3.5Zm7.875,14.174L5.96,8.757c-.262.09-.534.156-.815.197-.115.654-.165,1.336-.145,2.032.035,1.245.301,2.382.79,3.378.422.863.212,1.889-.512,2.494l-3.502,2.769c-.474.396-.753.896-.775,1.397-.018.399.132.778.422,1.068l.475.45c.317.316.732.479,1.159.456.434-.019.826-.213,1.104-.547l2.998-3.707c.615-.735,1.641-.95,2.501-.527,1.06.52,2.389.81,3.837.782.81-.004,1.608-.116,2.378-.326Zm4.688-15.237C17.473.344,12.38.206,8.755,3.034c.159.46.245.953.245,1.466,0,1.594-.833,2.997-2.087,3.797l10.018,10.019c1.183-.481,2.278-1.208,3.225-2.154,1.758-1.758,2.767-4.053,2.84-6.462.072-2.398-.792-4.622-2.433-6.263Z"/>
</svg>
