<svg id="Layer_1" viewBox="0 0 24 24" xmlns="http://www.w3.org/2000/svg" data-name="Layer 1"><path d="m9.924 2.133c-.075-.016-1.815-.364-3.171.131-.686.25-1.353.784-1.997 1.3-.601.481-1.222.979-1.772 1.166-1.091.333-2.131.254-2.983.269v.667l3.138 8.246c.493.043 1.46.295 3.133-.242.742-.271 1.491-.813 2.215-1.338 1.031-.945 2.863-1.654 3.889-1.189l4.034 11.144.939-.341-7.151-19.757zm-.246 8.251c-.583.273-1.19.713-1.777 1.138-.669.484-1.36.985-1.973 1.208-.781.286-1.642.282-2.073.258l-2.693-6.994c.614-.018 1.455-.082 2.144-.317.717-.244 1.407-.797 2.075-1.332.582-.466 1.184-.947 1.716-1.142.81-.295 1.866-.202 2.356-.135l2.525 6.978c-.624-.077-1.458-.058-2.301.338zm14.322-5.386v.761l-3.139 8.152c-.497.043-1.458.294-3.133-.242-.523-.191-1.048-.518-1.566-.877l-.598-1.652c.791.55 1.726 1.306 2.508 1.59.787.289 1.644.286 2.072.258l2.694-6.996c-.638-.018-1.465-.084-2.145-.316-.717-.244-1.407-.797-2.075-1.332-.582-.466-1.184-.947-1.716-1.142-.813-.297-1.867-.204-2.356-.135l-.952 2.631-.532-1.469.739-2.041c.454-.064 1.783-.451 3.445.075.686.25 1.353.784 1.997 1.3 1.308 1.373 3.245 1.527 4.756 1.434zm-14.496 9.065c.052-.038 1.077-.776 1.403-.938l-3.317 9.162-.939-.341 2.853-7.882z"/></svg>