<svg id="Layer_1" viewBox="0 0 24 24" xmlns="http://www.w3.org/2000/svg" data-name="Layer 1"><path d="m12 3c-6.758 0-12 4.331-12 8.061.01.962.603 2.714 2.653 2.902l.821 4.946c.201 1.211 1.238 2.09 2.466 2.09h12.119c1.228 0 2.265-.879 2.466-2.09l.821-4.947c2.072-.191 2.653-1.981 2.653-2.963 0-3.601-5.537-8-12-8zm7.54 15.746c-.121.727-.743 1.254-1.479 1.254h-12.12c-.737 0-1.359-.527-1.48-1.254l-.755-4.546c.679.458 1.441.806 2.268.787.768.005 1.538-.229 2.162-.705.493-.375 1.236-.375 1.728 0 1.233.94 3.04.94 4.272 0 .493-.375 1.236-.375 1.728 0 .617.47 1.355.718 2.136.718.859.024 1.605-.338 2.294-.8l-.755 4.546zm1.46-5.746c-.536 0-1.058.173-1.47.487-.881.671-2.178.671-3.06 0-.426-.324-.948-.486-1.47-.486s-1.044.162-1.47.486c-.881.671-2.178.671-3.06 0-.852-.647-2.087-.648-2.94 0-.881.671-2.178.671-3.06 0-.412-.313-.934-.486-1.47-.486-1.906 0-1.996-1.752-2-1.944 0-3.196 4.907-7.056 11-7.056 6.276 0 11 4.247 11 7 0 .082-.023 2-2 2zm-13.489-2.51c.679.679 1.785.679 2.464 0 .74-.908.859-2.56 1.016-3.481-.918.156-2.576.277-3.48 1.017-.676.649-.676 1.816 0 2.464zm.707-1.757c.166-.166.85-.372 1.568-.519-.146.718-.352 1.402-.518 1.569-.29.289-.761.29-1.05 0-.288-.276-.288-.774 0-1.05zm5.445-1.637-.666-.098c.161.921.287 2.586 1.028 3.492.649.677 1.816.676 2.464 0 .679-.679.679-1.785 0-2.464-.559-.559-2.305-.853-2.827-.929zm2.12 2.687c-.28.28-.77.281-1.05 0-.167-.166-.374-.853-.524-1.574.721.15 1.408.357 1.574.523.289.29.29.761 0 1.05z"/></svg>