<svg id="Layer_1" viewBox="0 0 24 24" xmlns="http://www.w3.org/2000/svg" data-name="Layer 1"><path d="m19 4v-4h-.747l-3.253 3.295v3.998l-3.354 3.354.707.707 3.354-3.354h3.998l3.295-3.291v-.709zm.295 3h-3.295v-3.295l2-2.025v3.32h3.326zm-.331 12.506 2.536 4.494h-1.146l-2.196-3.89c-1.758 1.192-3.878 1.89-6.157 1.89s-4.399-.698-6.157-1.89l-2.196 3.89h-1.146l2.536-4.494c-2.464-2.019-4.038-5.081-4.038-8.506 0-6.065 4.935-11 11-11 1.047 0 2.057.156 3.017.431l-.812.822c-.711-.161-1.447-.253-2.205-.253-5.514 0-10 4.486-10 10s4.486 10 10 10 10-4.486 10-10c0-.758-.092-1.494-.253-2.204l.823-.81c.274.959.43 1.968.43 3.014 0 3.425-1.574 6.487-4.036 8.506zm-8.378-9.92c-.378.378-.586.88-.586 1.414s.208 1.036.586 1.414c.756.756 2.072.756 2.828 0 .162-.162.848-.816 1.577-1.509.112 1.642-1.353 3.131-2.991 3.095-1.612.033-3.033-1.388-3-3-.044-1.647 1.449-3.063 3.078-2.964-.606.638-1.195 1.254-1.492 1.55zm2.414-4.496c-.326-.055-.659-.09-1-.09-3.309 0-6 2.691-6 6s2.691 6 6 6 6-2.691 6-6c0-.341-.035-.674-.09-1h1.01c.047.328.08.66.08 1 0 3.86-3.14 7-7 7s-7-3.14-7-7 3.14-7 7-7c.34 0 .672.033 1 .08z"/></svg>