<svg id="Layer_1" viewBox="0 0 24 24" xmlns="http://www.w3.org/2000/svg" data-name="Layer 1"><path d="m15.5 16c-.936 0-1.442.837-1.546 1.416l-1.211 6.583h1.017s.368-1.999.368-1.999h2.736l.363 2h1.016s-1.188-6.538-1.188-6.538c-.12-.668-.62-1.462-1.555-1.462zm-1.188 5 .626-3.403c.002-.011.133-.597.562-.597.444 0 .559.573.571.638l.611 3.362zm-3.05-4 .508 7h-1.003l-.493-6.794-2.005 4.41-2.005-4.41-.493 6.794h-1.003l.508-7c.043-.705.472-1 .988-1 .342 0 .66.242.841.64l1.164 2.56 1.164-2.56c.181-.398.499-.64.841-.64.516 0 .945.295.988 1zm10.238-15h-3.5v-2h-1v2h-10v-2h-1v2h-3.5c-1.378 0-2.5 1.122-2.5 2.5v19.5h2.838l.074-1h-1.912v-14h22v5h1v-9.5c0-1.378-1.122-2.5-2.5-2.5zm-20.5 6v-3.5c0-.827.673-1.5 1.5-1.5h19c.827 0 1.5.673 1.5 1.5v3.5zm23 8.055-2.5 4.954v2.991h-1v-3l-2.5-5h1.113l1.887 3.729 1.887-3.673h1.113z"/></svg>