<?xml version="1.0" encoding="UTF-8"?>
<svg xmlns="http://www.w3.org/2000/svg" id="Layer_1" data-name="Layer 1" viewBox="0 0 24 24">
  <path d="M23,4.5V21H7.651l-4.09,2.722c-.507,.338-1.156,.367-1.691,.081-.537-.287-.87-.845-.87-1.453V4.5c0-1.379,1.122-2.5,2.5-2.5h1.86c-.17,.321-.316,.655-.438,1h-1.422c-.827,0-1.5,.673-1.5,1.5V22.35c-.019,.502,.601,.834,1.007,.54l4.341-2.89h14.651V4.5c0-.827-.673-1.5-1.5-1.5h-1.428c-.122-.345-.276-.677-.448-1h1.876c1.378,0,2.5,1.121,2.5,2.5Zm-16.398-.069C7.005,2.302,8.695,.572,10.807,.126c1.665-.351,3.36,.05,4.655,1.1,1.295,1.051,2.038,2.608,2.038,4.274,0,1.964-1.07,3.788-2.792,4.763-.437,.246-.708,.75-.708,1.314v2.423h-4v-2.402c0-.575-.276-1.09-.72-1.343-2.074-1.179-3.125-3.465-2.678-5.824Zm6.471,6.569h-2.148c.044,.194,.075,.392,.075,.598v1.402h2v-1.423c0-.199,.031-.39,.073-.577Zm-3.298-1.614c.267,.152,.479,.371,.664,.614h1.061v-3.071c-.86-.224-1.5-1-1.5-1.929h1c0,.552,.449,1,1,1s1-.448,1-1h1c0,.929-.64,1.705-1.5,1.929v3.071h1.055c.184-.241,.396-.458,.662-.608,1.408-.797,2.284-2.288,2.284-3.892,0-1.363-.608-2.638-1.668-3.497-1.06-.859-2.452-1.184-3.818-.898-1.722,.363-3.101,1.775-3.43,3.512-.366,1.934,.493,3.806,2.19,4.77Z"/>
</svg>
