<svg id="Layer_1" viewBox="0 0 24 24" xmlns="http://www.w3.org/2000/svg" data-name="Layer 1"><path d="m24 10.556c-.518-.427-1.224-1.443-3.463-1.59-.471 0-1.052.073-1.657.181.49-.347.941-.701 1.268-1.029 1.479-1.697 1.263-2.909 1.33-3.583-.615-.11-.584-.147-1.822-.238-.09-1.247-.128-1.214-.236-1.834-.671.067-1.881-.149-3.569 1.34-.33.332-.686.79-1.035 1.289.101-.586.168-1.149.168-1.609-.149-2.255-1.15-2.953-1.581-3.482-.514.361-.517.311-1.456 1.128-.94-.818-.942-.766-1.456-1.128-.429.525-1.434 1.23-1.581 3.482 0 .471.07 1.048.176 1.652-.341-.486-.688-.931-1.011-1.256-1.691-1.49-2.894-1.271-3.569-1.34-.108.618-.147.588-.236 1.834-1.239.091-1.206.128-1.822.238.066.67-.148 1.889 1.33 3.583.334.336.797.698 1.301 1.053-.588-.103-1.154-.173-1.616-.173-2.242.148-2.941 1.161-3.463 1.59.35.501.293.489 1.06 1.391-.767.902-.709.889-1.06 1.391.518.427 1.224 1.443 3.463 1.59.473 0 1.052-.073 1.657-.181-.49.347-.941.701-1.267 1.029-1.479 1.697-1.263 2.909-1.33 3.583.615.11.584.147 1.822.238.09 1.247.128 1.214.236 1.834.671-.067 1.881.149 3.569-1.34.33-.332.686-.79 1.035-1.289-.101.586-.168 1.149-.168 1.609.149 2.255 1.15 2.953 1.581 3.482.514-.361.517-.311 1.456-1.128.94.818.942.766 1.456 1.128.429-.525 1.434-1.23 1.581-3.482 0-.471-.07-1.048-.176-1.652.341.486.688.931 1.011 1.256 1.691 1.49 2.894 1.271 3.569 1.34.108-.618.147-.588.236-1.834 1.239-.091 1.206-.128 1.822-.238-.066-.67.148-1.889-1.33-3.583-.334-.336-.797-.698-1.301-1.053.588.103 1.154.173 1.616.173 2.242-.148 2.941-1.161 3.463-1.59-.35-.501-.293-.489-1.06-1.391.767-.902.709-.889 1.06-1.391zm-7.441-6.048c.652-.656 1.513-.898 2.024-.986.058.387.098 1.207.099 1.748.539.002 1.353.041 1.74.101-.086.512-.324 1.379-.984 2.043-.834.839-2.626 1.908-3.634 2.477l-1.237.578c-.24-.4-.562-.745-.955-.996l.469-1.279c.572-1.026 1.641-2.844 2.478-3.685zm-2.559 7.493c0 1.102-.897 2-2 2s-2-.897-2-2 .897-2 2-2 2 .897 2 2zm-3.352-10.659c.314.234.918.785 1.298 1.165.381-.381.983-.93 1.298-1.165.3.427.739 1.211.739 2.14 0 .873-.304 2.462-.822 4.32l-.47 1.278c-.46-.109-.971-.104-1.427.011l-.509-1.211c-.538-1.916-.846-3.518-.846-4.398 0-.93.439-1.714.739-2.14zm-6.162 6.147c-.655-.658-.895-1.529-.983-2.044.387-.058 1.202-.098 1.739-.1.001-.541.042-1.36.099-1.748.511.088 1.371.33 2.024.986.833.838 1.892 2.636 2.458 3.65l.527 1.262c-.396.262-.726.614-.961 1.027l-1.216-.526c-1.015-.571-2.843-1.657-3.687-2.508zm-1.024 6.545c-.924 0-1.704-.443-2.127-.745.223-.3.735-.872 1.087-1.235-.352-.363-.863-.934-1.087-1.235.423-.302 1.203-.745 2.127-.745.862 0 2.428.303 4.298.831l1.287.559c-.031.174-.048.353-.048.536 0 .207.021.408.061.603l-1.231.58c-.898.256-3.121.851-4.368.851zm3.978 5.459c-.652.656-1.513.898-2.024.986-.058-.387-.098-1.207-.099-1.748-.539-.002-1.353-.041-1.74-.101.086-.512.324-1.379.984-2.043.836-.842 2.64-1.916 3.645-2.484l1.227-.573c.24.4.563.74.955.991l-.471 1.285c-.572 1.026-1.641 2.844-2.478 3.685zm5.911 3.166c-.314-.234-.918-.785-1.298-1.165-.381.381-.983.93-1.298 1.165-.3-.427-.739-1.211-.739-2.14 0-.873.304-2.462.822-4.32l.472-1.286c.222.053.451.087.689.087.254 0 .496-.041.732-.101l.513 1.221c.538 1.916.846 3.518.846 4.398 0 .93-.439 1.714-.739 2.14zm6.162-6.147c.655.658.895 1.529.983 2.044-.387.058-1.202.098-1.739.1-.001.541-.042 1.36-.099 1.748-.511-.088-1.371-.33-2.024-.986-.833-.838-1.892-2.636-2.458-3.65l-.529-1.264c.395-.261.715-.617.95-1.03l1.228.532c1.015.571 2.843 1.657 3.687 2.508zm2.386-4.222c.324.345.585.662.764.893-.423.302-1.203.745-2.127.745-.862 0-2.428-.303-4.298-.831l-1.293-.562c.031-.174.054-.351.054-.533 0-.206-.038-.401-.077-.596l1.246-.588c1.902-.541 3.494-.851 4.368-.851.924 0 1.704.443 2.127.745-.223.3-.735.872-1.087 1.235l.322.343z"/></svg>