<svg id="Layer_1" viewBox="0 0 24 24" xmlns="http://www.w3.org/2000/svg" data-name="Layer 1"><path d="m9.5 16c-1.378 0-2.5 1.121-2.5 2.5v3c0 1.379 1.122 2.5 2.5 2.5s2.5-1.121 2.5-2.5v-3c0-1.379-1.122-2.5-2.5-2.5zm1.5 5.5c0 .827-.673 1.5-1.5 1.5s-1.5-.673-1.5-1.5v-3c0-.827.673-1.5 1.5-1.5s1.5.673 1.5 1.5zm3-3v3c0 .827.673 1.5 1.5 1.5.651 0 1.201-.419 1.408-1h1.042c-.232 1.14-1.242 2-2.449 2-1.378 0-2.5-1.121-2.5-2.5v-3c0-1.379 1.122-2.5 2.5-2.5s2.5 1.121 2.5 2.5h-1c0-.827-.673-1.5-1.5-1.5s-1.5.673-1.5 1.5zm5-2.5h5v1h-1.999l.016 6.999-1 .002-.016-7.001h-2.001zm2.5-14h-3.5v-2h-1v2h-10v-2h-1v2h-3.5c-1.378 0-2.5 1.121-2.5 2.5v19.5h5.88c-.197-.309-.351-.645-.463-1h-4.417v-14h22v5h1v-9.5c0-1.379-1.122-2.5-2.5-2.5zm-20.5 6v-3.5c0-.827.673-1.5 1.5-1.5h19c.827 0 1.5.673 1.5 1.5v3.5z"/></svg>