<svg id="Layer_1" viewBox="0 0 24 24" xmlns="http://www.w3.org/2000/svg" data-name="Layer 1"><path d="m21.385 8.035c-.711-4.61-4.674-8.036-9.385-8.036s-8.667 3.42-9.382 8.024c-1.475.188-2.618 1.451-2.618 2.976 0 1.654 1.346 3 3 3h.6c.763 1.833 2.387 3.705 4.4 4.861v5.139h1v-4.647c.952.405 1.965.648 3 .648s2.048-.243 3-.648v4.647h1v-5.139c2.013-1.155 3.638-3.028 4.4-4.861h.6c1.654 0 3-1.346 3-3 0-1.506-1.115-2.756-2.615-2.964zm-1.213 1.964h-.227c-.226-1.019-.961-1.88-1.938-2.22-.731-.254-1.315-.731-1.663-1.344.836-.295 1.879-.864 2.543-1.91.833 1.155 1.392 2.527 1.558 4.035 0 0-.159 1.15-.273 1.439zm-15.059-5.474c.664 1.046 1.707 1.615 2.542 1.91-.347.613-.932 1.09-1.663 1.344-.976.339-1.712 1.2-1.938 2.22h-.227c-.107-.27-.272-1.439-.272-1.439.166-1.507.724-2.88 1.557-4.034zm15.887 8.474h-1.293c-.928 2.913-4.136 5.976-7.707 6.001-3.571-.026-6.778-3.088-7.708-6.001h-1.292c-1.103 0-2-.897-2-2 0-.936.649-1.718 1.547-1.932.221 1.206.437 1.479.644 1.932h1.766c-.039-.961.427-1.972 1.363-2.275 1.413-.474 2.318-1.599 2.664-2.952-1.103-.283-2.41-.608-3.192-2.084 1.556-1.663 3.77-2.688 6.208-2.688s4.651 1.025 6.207 2.688c-.782 1.477-2.087 1.801-3.192 2.085.347 1.353 1.25 2.478 2.664 2.952.937.304 1.403 1.314 1.363 2.275h1.766c.207-.45.428-.733.646-1.943.883.207 1.545.997 1.545 1.943 0 1.103-.897 2-2 2zm-12-1c-.552 0-1-.448-1-1s.448-1 1-1 1 .448 1 1-.448 1-1 1zm7-1c0 .552-.448 1-1 1s-1-.448-1-1 .448-1 1-1 1 .448 1 1zm-6.999 3.999h5.998c-.49 1.174-1.648 2-2.999 2s-2.509-.826-2.999-2z"/></svg>