<svg id="Layer_1" viewBox="0 0 24 24" xmlns="http://www.w3.org/2000/svg" data-name="Layer 1"><path d="m19.719 4.401c-2.084-2.782-5.261-4.386-8.717-4.401l-.004 1c3.14.014 6.026 1.472 7.932 4.016.548.677 1.111 1.754 1.674 2.984h-4.604v3h5.896c.366.881.736 1.773 1.104 2.605v.395h-2.217l-.953 4.792c-.14.7-.759 1.208-1.472 1.208h-3.358v3h-3v-15h-3v-6h-4.051c-.232-1.14-1.242-2-2.449-2-1.379 0-2.5 1.121-2.5 2.5s1.121 2.5 2.5 2.5c1.208 0 2.217-.86 2.449-2h3.051v6h3v14h-5v-5.707l-3-3v-2.344c1.14-.232 2-1.242 2-2.449 0-1.379-1.121-2.5-2.5-2.5s-2.5 1.121-2.5 2.5c0 1.208.86 2.217 2 2.449v2.758l3 3v6.293h11v-3h2.358c1.188 0 2.22-.847 2.452-2.013l.793-3.987h2.396v-1.5s-2.841-7.348-4.281-9.099zm-2.719 5.599v-1h4.05c.143.329.285.662.427 1h-4.478zm-14.5-6c-.827 0-1.5-.673-1.5-1.5s.673-1.5 1.5-1.5 1.5.673 1.5 1.5-.673 1.5-1.5 1.5zm-1.5 5.5c0-.827.673-1.5 1.5-1.5s1.5.673 1.5 1.5-.673 1.5-1.5 1.5-1.5-.673-1.5-1.5z"/></svg>