<svg id="Layer_1" viewBox="0 0 24 24" xmlns="http://www.w3.org/2000/svg" data-name="Layer 1"><path d="m23.921 19.056c-1.085-6.029-3.364-12.489-3.387-12.554l-.002-.005c-1.414-3.854-5.475-6.444-10.106-6.444-5.725 0-10.382 4.657-10.382 10.382 0 2.146 1.051 8.896 1.096 9.182l.06.382.385.038c4.44.444 10.605 1.278 18.934 3.802l.357.108 3.081-4.695-.035-.196zm-3.472 3.718c-7.994-2.394-13.99-3.24-18.38-3.691-.226-1.482-1.025-6.861-1.025-8.647 0-5.174 4.209-9.383 9.382-9.383 4.213 0 7.896 2.325 9.167 5.786.006.016.035.099.074.214h-9.672c-2.206 0-4 1.794-4 4 0 1.787 1.185 3.285 2.804 3.797l.036.012 13.799 4.583zm-7.454-11.721c0 1.654-1.346 3-3 3s-3-1.346-3-3 1.346-3 3-3 3 1.346 3 3zm-1.454 3.688c1.44-.606 2.454-2.03 2.454-3.688 0-1.201-.542-2.266-1.382-3h7.389c.662 2.013 1.97 6.232 2.783 10.389l-11.245-3.701z"/></svg>