<svg id="Layer_1" viewBox="0 0 24 24" xmlns="http://www.w3.org/2000/svg" data-name="Layer 1"><path d="m2.12 2.827 2.009 2.008-.689.689c-.582.558-.582 1.563 0 2.122l5.354 5.354h3.5l1.354 1.354.707-.707-1.354-1.354v-3.5l-5.355-5.354c-.584-.585-1.537-.585-2.121 0l-.69.689-2.009-2.008 1.406-1.406-.706-.707-3.526 3.5.733.707 1.386-1.386zm4.112 1.319c.195-.195.512-.195.707 0l.604.604-1.396 1.396.707.707 1.396-1.396 1.062 1.062-1.396 1.396.707.707 1.396-1.396 1.024 1.024-1.396 1.396.707.707 1.396-1.396.25.25v2.793h-2.793l-5.061-5.061c-.194-.186-.194-.521 0-.707zm17.768 9.354v1.5h-2.396l-.793 3.987c-.232 1.166-1.264 2.013-2.452 2.013h-2.358v3h-13.001v-4.35c0-.574-.197-1.129-.556-1.561-1.598-1.929-2.444-4.395-2.444-7.074.003-.606.043-1.222.139-1.832.088-.559.217-1.103.383-1.629l.83.83c-.081.315-.172.626-.224.954-.088.56-.134 1.126-.137 1.682-.014 2.399.776 4.682 2.224 6.429.507.611.786 1.393.786 2.199v3.35h11v-3h3.358c.713 0 1.332-.508 1.472-1.208l.953-4.792h2.217v-.395c-.354-.802-.708-1.653-1.062-2.504-.997-2.396-2.027-4.873-3.009-6.086-1.897-2.532-4.771-3.99-7.895-4.015-.876.003-1.798.079-2.654.345l-.823-.823c1.115-.362 2.33-.51 3.485-.52 3.438.027 6.601 1.631 8.676 4.4 1.061 1.312 2.072 3.743 3.143 6.317.365.878 1.139 2.782 1.139 2.782z"/></svg>