<?xml version="1.0" encoding="UTF-8"?>
<svg xmlns="http://www.w3.org/2000/svg" id="Layer_1" data-name="Layer 1" viewBox="0 0 24 24">
  <path d="M24,8.895v.259c-.084,.15-1.168,2.051-3.019,3.854-.206-.273-.439-.521-.696-.747,.995-.967,1.733-1.916,2.2-2.576-1.137,.266-3.646,.807-6.485,1.121v-1.012c1.834-.209,3.538-.51,4.787-.765-1.248-.259-2.949-.565-4.787-.776v-1.008c2.895,.326,5.453,.89,6.554,1.153-2.06-3.46-4.539-6.047-6.19-7.126-.664-.432-1.552-.337-2.113,.226l-2.251,2.25-2.25-2.25c-.564-.564-1.453-.658-2.114-.226-1.55,1.012-4.065,3.63-6.185,7.108,1.103-.261,3.652-.819,6.549-1.14v1.012c-1.841,.21-3.551,.515-4.802,.77,1.251,.255,2.961,.559,4.802,.77v1.012c-2.833-.314-5.337-.855-6.478-1.123,.807,1.144,2.435,3.156,4.782,4.609-.122,.334-.206,.685-.255,1.044C2.27,13.132,.122,9.384,0,9.165v-.262C2.294,4.846,5.314,1.594,7.089,.436c1.056-.689,2.473-.541,3.368,.355l1.543,1.543,1.544-1.543c.894-.895,2.312-1.046,3.367-.356,1.892,1.235,4.859,4.408,7.089,8.459Zm-1.537,9.67c.792,.792,.792,2.079,0,2.871l-1.246,1.246c-.837,.838-1.997,1.318-3.183,1.318H8v-8c0-1.279,.82-2.41,2-2.828V7c0-1.103,.897-2,2-2s2,.897,2,2v6h3c1.654,0,3,1.346,3,3v2.252c.777-.445,1.811-.341,2.463,.312Zm-.707,.707c-.381-.381-1.076-.381-1.457,0l-1.289,1.289c-.279,.279-.666,.439-1.061,.439h-3.949v-5h3v2.729c0,.281,.119,.551,.327,.74s.5,.279,.767,.256c.519-.051,.906-.488,.906-1.018v-2.708c0-1.103-.897-2-2-2h-4V7c0-.551-.449-1-1-1s-1,.449-1,1v6.959l-.4,.082c-.927,.188-1.6,1.013-1.6,1.959v7h9.034c.923,0,1.824-.374,2.476-1.025l1.246-1.246c.401-.401,.401-1.056,0-1.457Zm-5.756-.542v-1.729h-1v3h1.455c-.292-.356-.455-.806-.455-1.271Z"/>
</svg>
