<svg id="Layer_1" viewBox="0 0 24 24" xmlns="http://www.w3.org/2000/svg" data-name="Layer 1"><path d="m19.937 3.832-1.096-3.832h-1.658l-1.097 3.832h-4.086v1.6l2.857 1.649-1.324 3.622 1.28.951 3.198-2.538 3.193 2.561 1.333-.917-1.434-3.636 2.896-1.699v-1.592h-4.063zm-.077 2.861 1.455 3.693-.065.045-3.234-2.595-3.222 2.556-.065-.048 1.357-3.71-3.086-1.78 3.84-.022 1.097-3.832h.15l1.096 3.832h3.817zm3.14 6.307h1v11h-24v-17.5c0-1.378 1.121-2.5 2.5-2.5h7.5v1h-7.5c-.534 0-1 .282-1.266.703l8.272 8.272c1.366 1.366 3.586 1.364 4.95 0l.93-.975h1.383l-1.606 1.682c-.877.877-2.029 1.315-3.182 1.315s-2.306-.438-3.183-1.315l-7.798-7.799v16.117h22z"/></svg>