<svg id="Layer_1" viewBox="0 0 24 24" xmlns="http://www.w3.org/2000/svg" data-name="Layer 1"><path d="m3 19v-5h1v5zm4 0v-9h-1v9zm13 .293 3.605 3.605-.707.707-3.605-3.605c-.77.616-1.733 1-2.793 1-2.481 0-4.5-2.019-4.5-4.5s2.019-4.5 4.5-4.5 4.5 2.019 4.5 4.5c0 1.06-.384 2.023-1 2.793zm0-2.793c0-1.93-1.57-3.5-3.5-3.5s-3.5 1.57-3.5 3.5 1.57 3.5 3.5 3.5 3.5-1.57 3.5-3.5zm4-14v17.965l-1-1v-11.465h-22v13h10.821c.367.382.781.717 1.231 1h-13.052v-19.5c0-1.378 1.122-2.5 2.5-2.5h19c1.379 0 2.5 1.122 2.5 2.5zm-1 4.5v-4.5c0-.827-.673-1.5-1.5-1.5h-19c-.827 0-1.5.673-1.5 1.5v4.5zm-19-4c-.552 0-1 .448-1 1s.448 1 1 1 1-.448 1-1-.448-1-1-1zm3 0c-.552 0-1 .448-1 1s.448 1 1 1 1-.448 1-1-.448-1-1-1zm3 0c-.552 0-1 .448-1 1s.448 1 1 1 1-.448 1-1-.448-1-1-1zm0 16v-7h-1v7z"/></svg>