<svg id="Layer_1" viewBox="0 0 24 24" xmlns="http://www.w3.org/2000/svg" data-name="Layer 1"><path d="m17 0h-10c-2.757 0-5 2.243-5 5v6h1v-6c0-2.206 1.794-4 4-4h10c2.206 0 4 1.794 4 4v9.5c0 .827-.673 1.5-1.5 1.5h-5.778c.172-.295.278-.634.278-1 0-1.103-.897-2-2-2s-2 .897-2 2 .897 2 2 2h7.5c1.379 0 2.5-1.122 2.5-2.5v-9.5c0-2.757-2.243-5-5-5zm-6 15c0-.551.448-1 1-1s1 .449 1 1-.448 1-1 1-1-.449-1-1zm-3.5-6.5c0 1.103.897 2 2 2s2-.897 2-2-.897-2-2-2-2 .897-2 2zm3 0c0 .551-.448 1-1 1s-1-.449-1-1 .448-1 1-1 1 .449 1 1zm4-2c-1.103 0-2 .897-2 2s.897 2 2 2 2-.897 2-2-.897-2-2-2zm0 3c-.552 0-1-.449-1-1s.448-1 1-1 1 .449 1 1-.448 1-1 1zm6.5 12v2.5h-1v-2.5c0-1.378-1.121-2.5-2.5-2.5h-11c-1.379 0-2.5 1.122-2.5 2.5v2.5h-1v-2.5c0-1.93 1.57-3.5 3.5-3.5h11c1.93 0 3.5 1.57 3.5 3.5zm-5.141-7.5c-.093-.357-.239-.69-.419-1h2.561v-8c0-.551-.448-1-1-1h-10.001c-.552 0-1 .449-1 1v8h2.561c-.181.31-.327.643-.419 1h-3.141v-9c0-1.103.897-2 2-2h10c1.103 0 2 .897 2 2v9h-3.141z"/></svg>