<svg id="Layer_1" viewBox="0 0 24 24" xmlns="http://www.w3.org/2000/svg" data-name="Layer 1"><path d="m19 13.931c.341-.043.674-.109 1-.193v.449c0 1.276-.526 2.562-1.607 3.933-2.783 3.455-7.589 5.51-8.393 5.881-1.166-.536-9.867-4.334-9.958-9.814v-12.597c.661-.192 4.452-1.546 9.956-1.59s.001 0 .002 0c.893 0 1.761.046 2.59.118-.315.29-.608.602-.873.939-.561-.035-1.135-.057-1.718-.057-4.135.003-7.839.992-8.958 1.321v11.866c.002 3.738 5.743 7.269 8.956 8.72.997-.461 5.355-2.548 7.61-5.406.937-1.188 1.392-2.271 1.393-3.313v-.256zm-14.487-1.306-.268-1.042c1.841 1.06 4.255 1.417 5.779 1.417 1.053 0 2.171-.044 3.423-.426.538.373 1.125.677 1.747.91-.89 2.161-2.839 3.516-5.183 3.516h-.022c-2.643 0-4.791-1.716-5.476-4.375zm1.345.776c.786 1.608 2.318 2.6 4.131 2.6h.022c1.812 0 3.345-.991 4.131-2.6-1.547.547-2.891.615-4.143.6-1.259-.029-2.596-.053-4.142-.6zm14.142-7.4c0 1.103-.897 2-2 2s-2-.897-2-2 .897-2 2-2 2 .897 2 2zm-1 0c0-.551-.449-1-1-1s-1 .449-1 1 .449 1 1 1 1-.449 1-1zm-1-6c-3.309 0-6 2.691-6 6 0 2.416 1.438 4.497 3.5 5.447v-1.143c-1.487-.867-2.5-2.462-2.5-4.304 0-2.757 2.243-5 5-5s5 2.243 5 5c0 1.842-1.013 3.437-2.5 4.304v1.143c2.062-.95 3.5-3.032 3.5-5.447 0-3.309-2.691-6-6-6zm-9.009 8.404.116.595h-5.213c.153-1.578 1.106-3 2.606-3 1.249 0 2.203.923 2.49 2.405zm-1.157-.405c-.269-.642-.736-1-1.334-1h-.001c-.598 0-1.064.357-1.332 1zm10.667 1h-1v4h1z"/></svg>