<svg id="Layer_1" viewBox="0 0 24 24" xmlns="http://www.w3.org/2000/svg" data-name="Layer 1"><path d="m19 6c-.552 0-1-.448-1-1s.448-1 1-1 1 .448 1 1-.448 1-1 1zm-14-2c-.552 0-1 .448-1 1s.448 1 1 1 1-.448 1-1-.448-1-1-1zm0 6c-.552 0-1 .448-1 1s.448 1 1 1 1-.448 1-1-.448-1-1-1zm16.5-10h-19c-1.378 0-2.5 1.122-2.5 2.5v13.5h11v-1h-10v-12.5c0-.827.673-1.5 1.5-1.5h19c.827 0 1.5.673 1.5 1.5v8.5h1v-8.5c0-1.378-1.122-2.5-2.5-2.5zm-9.5 12c-2.206 0-4-1.794-4-4s1.794-4 4-4 4 1.794 4 4-1.794 4-4 4zm3-4c0-1.654-1.346-3-3-3s-3 1.346-3 3 1.346 3 3 3 3-1.346 3-3zm4 16h2v-2h-2zm3-3h2v-2h-2zm-3 0h2v-2h-2zm-6-8h5v5h-5zm1 4h3v-3h-3zm-1 2h5v5h-5zm1 4h3v-3h-3zm5-10h5v5h-5zm1 4h3v-3h-3zm-5-1h1v-1h-1zm6 0h1v-1h-1zm-6 6h1v-1h-1z"/></svg>