<?xml version="1.0" encoding="UTF-8"?>
<svg xmlns="http://www.w3.org/2000/svg" id="Layer_1" data-name="Layer 1" viewBox="0 0 24 24">
  <path d="M18,8v-2h-2v-1h2V3h1v2h2v1h-2v2h-1Zm.5,3h-5.5V5.5c0-3.033,2.467-5.5,5.5-5.5s5.5,2.467,5.5,5.5-2.467,5.5-5.5,5.5Zm-4.5-1h4.5c2.481,0,4.5-2.019,4.5-4.5s-2.019-4.5-4.5-4.5-4.5,2.019-4.5,4.5v4.5Zm3.528,3.837l5.679,5.679-2.879,2.879c-1.032,1.035-2.432,1.605-3.941,1.605C9.189,24,0,14.812,0,7.613,0,6.104,.57,4.705,1.605,3.672L4.484,.793l5.679,5.679-3.373,3.373c1.49,3.511,3.964,5.988,7.361,7.369l3.376-3.377Zm4.265,5.679l-4.265-4.265-3.13,3.131-.303-.116c-3.921-1.496-6.733-4.307-8.357-8.352l-.123-.307,3.135-3.135L4.484,2.207l-2.172,2.172c-.846,.844-1.312,1.993-1.312,3.234,0,6.615,8.771,15.387,15.386,15.387,1.242,0,2.39-.466,3.233-1.312l2.173-2.173Z"/>
</svg>
