<svg id="Layer_1" viewBox="0 0 24 24" xmlns="http://www.w3.org/2000/svg" data-name="Layer 1"><path d="m5.5 12c-1.654 0-3 1.346-3 3s1.346 3 3 3 3-1.346 3-3-1.346-3-3-3zm0 5c-1.103 0-2-.897-2-2s.897-2 2-2 2 .897 2 2-.897 2-2 2zm13 1c1.654 0 3-1.346 3-3s-1.346-3-3-3-3 1.346-3 3 1.346 3 3 3zm0-5c1.103 0 2 .897 2 2s-.897 2-2 2-2-.897-2-2 .897-2 2-2zm-10.942-2.252c.264.169.558.254.854.254.847.011 1.611-.73 1.588-1.59l.002-7.413c-.001-1.103-.898-1.999-2.001-1.999h-6.001c-1.103 0-2 .898-2 2.001v7h5.327l2.23 1.748zm-6.558-8.748c0-.552.448-1 1-1h6.001c.552 0 1 .447 1 .999l-.002 7.413c.029.427-.531.739-.863.521l-2.463-1.934h-4.673zm21-2h-6.001c-1.103 0-2 .896-2 1.999l.002 7.413c-.022.854.73 1.596 1.576 1.587.305 0 .615-.092.904-.278l2.191-1.721h5.327v-7c0-1.103-.897-2-2-2zm1 8h-4.673l-2.424 1.906c-.368.253-.919-.045-.902-.494l-.002-7.413c0-.552.448-1 1-1h6.001c.552 0 1 .449 1 1.001zm-12 14v2h-1v-2c0-1.103-.897-2-2-2h-5c-1.103 0-2 .897-2 2v2h-1v-2c0-1.654 1.346-3 3-3h5c1.654 0 3 1.346 3 3zm13 0v2h-1v-2c0-1.103-.897-2-2-2h-5c-1.103 0-2 .897-2 2v2h-1v-2c0-1.654 1.346-3 3-3h5c1.654 0 3 1.346 3 3z"/></svg>