<?xml version="1.0" encoding="UTF-8"?>
<svg xmlns="http://www.w3.org/2000/svg" id="Layer_1" data-name="Layer 1" viewBox="0 0 24 24">
  <path d="M9,14c.552,0,1,.448,1,1s-.448,1-1,1-1-.448-1-1,.448-1,1-1Zm5,1c0,.552,.448,1,1,1s1-.448,1-1-.448-1-1-1-1,.448-1,1Zm8-2.828v-4.172h-2.78l-.428,1h2.208v3.96l.4,.081c.927,.188,1.6,1.012,1.6,1.959,.018,1.296-1.235,2.214-2.499,1.959-1.28,3.624-4.657,6.051-8.501,6.041-3.845,.01-7.22-2.417-8.501-6.041-1.252,.266-2.512-.647-2.499-1.959-.013-1.127,.922-1.946,2-2.04v-3.96h2.209l-.429-1H2v4.172c-1.18,.417-2,1.548-2,2.828,0,1.601,1.259,2.912,2.839,2.996,1.593,3.659,5.15,6.004,9.161,6.004s7.567-2.345,9.161-6.004c1.579-.084,2.839-1.396,2.839-2.996,0-1.28-.82-2.411-2-2.828Zm-13.33-.172l-1.734-4.047L12,.075l5.064,7.878-1.734,4.047h-6.66Zm-.606-3.953l1.266,2.953h5.34l1.266-2.953-3.436-5.344v5.297h-1V2.703l-3.436,5.344Z"/>
</svg>
