<?xml version="1.0" encoding="UTF-8"?>
<svg xmlns="http://www.w3.org/2000/svg" id="Layer_1" data-name="Layer 1" viewBox="0 0 24 24">
  <path d="M2,10H1V3.688L8.5,.021l7.5,3.667v6.312h-1V4.312L8.5,1.134,2,4.312v5.688Zm11,0V6h1v-1h-3v1h1v4h1Zm-3-4v-1h-2.5v5h1v-2h1.5v-1h-1.5v-1h1.5Zm-6.098-1h-.902v5h1v-2.817l1.71,2.817h.79V5h-1v2.789l-1.598-2.789ZM23.363,13.182l-9.639,10.818H2.5c-1.378,0-2.5-1.122-2.5-2.5v-7c0-1.378,1.122-2.5,2.5-2.5H13.358c1.208,0,2.229,.814,2.542,1.922l3.732-4.102c.888-1.019,2.564-1.089,3.548-.166,1.012,.923,1.094,2.505,.182,3.527Zm-.856-2.788c-.593-.556-1.6-.513-2.135,.1l-4.495,4.94c-.301,.945-1.124,1.678-2.146,1.824l-5.667,.738-.129-.991,5.661-.737c.797-.114,1.404-.813,1.404-1.625,0-.905-.737-1.642-1.642-1.642H2.5c-.827,0-1.5,.673-1.5,1.5v7c0,.827,.673,1.5,1.5,1.5H13.276l9.34-10.483c.549-.615,.5-1.567-.109-2.123Z"/>
</svg>
