<?xml version="1.0" encoding="UTF-8"?>
<svg xmlns="http://www.w3.org/2000/svg" id="Layer_1" data-name="Layer 1" viewBox="0 0 24 24">
  <path d="M18.5,9c1.379,0,2.5-1.122,2.5-2.5s-1.121-2.5-2.5-2.5-2.5,1.122-2.5,2.5,1.121,2.5,2.5,2.5Zm0-4c.827,0,1.5,.673,1.5,1.5s-.673,1.5-1.5,1.5-1.5-.673-1.5-1.5,.673-1.5,1.5-1.5Zm2.5,18V12c0-1.103-.897-2-2-2h-6.872l-5.04-2.762c-.894-.595-1.941-1.23-3.07-1.237h0s-.005,0-.008,0c-.004,0-.007,0-.01,0v.002c-1.421,.009-2.608,1.076-2.764,2.488L.131,18H3v6h1v-6h3.812l-1.166-9.866,5.226,2.866h4.128v7h-4v6h1v-5h7v5h4v-1h-3ZM1.254,17l.976-8.397c.101-.91,.864-1.596,1.778-1.602,.518,.002,1.037,.205,1.555,.482l1.125,9.517H1.254Zm15.746,1v-7h2c.552,0,1,.449,1,1v6h-3ZM4.5,5c1.378,0,2.5-1.122,2.5-2.5S5.878,0,4.5,0,2,1.122,2,2.5s1.122,2.5,2.5,2.5Zm0-4c.827,0,1.5,.673,1.5,1.5s-.673,1.5-1.5,1.5-1.5-.673-1.5-1.5,.673-1.5,1.5-1.5Z"/>
</svg>
