<svg id="Layer_1" viewBox="0 0 24 24" xmlns="http://www.w3.org/2000/svg" data-name="Layer 1"><path d="m12.5 20.071v-1.071h-1v1.071c-.86.224-1.5 1-1.5 1.929 0 1.103.897 2 2 2s2-.897 2-2c0-.929-.64-1.705-1.5-1.929zm-.5 2.929c-.551 0-1-.449-1-1s.449-1 1-1 1 .449 1 1-.449 1-1 1zm-.5-19.071v1.071h1v-1.071c.86-.224 1.5-1 1.5-1.929 0-1.103-.897-2-2-2s-2 .897-2 2c0 .929.64 1.705 1.5 1.929zm.5-2.929c.551 0 1 .449 1 1s-.449 1-1 1-1-.449-1-1 .449-1 1-1zm0 9c-1.103 0-2 .897-2 2s.897 2 2 2 2-.897 2-2-.897-2-2-2zm0 3c-.551 0-1-.449-1-1s.449-1 1-1 1 .449 1 1-.449 1-1 1zm5.933.748-1.527-.897c.064-.299.094-.576.094-.85s-.03-.551-.094-.85l1.527-.897-1.521-2.586-1.516.892c-.408-.34-.881-.606-1.396-.786v-1.771h-3v1.771c-.515.18-.988.446-1.396.786l-1.516-.892-1.521 2.586 1.527.897c-.064.299-.094.576-.094.85s.03.551.094.85l-1.527.897 1.521 2.586 1.516-.892c.408.34.881.606 1.396.786v1.771h3v-1.771c.515-.18.988-.446 1.396-.786l1.516.892zm-3.182.449c-.574.663-1.368 1.105-2.251 1.274v1.529h-1v-1.529c-.883-.169-1.677-.611-2.251-1.274l-1.306.768-.507-.862 1.32-.776c-.126-.418-.27-.949-.257-1.327-.013-.377.131-.91.257-1.327l-1.32-.776.507-.862 1.306.768c.574-.663 1.369-1.106 2.251-1.274v-1.529h1v1.529c.883.168 1.677.61 2.251 1.274l1.306-.768.507.862-1.32.776c.126.418.27.949.257 1.327.013.377-.131.91-.257 1.327l1.32.776-.507.862zm2.249-11.697h3.071c.224.86 1 1.5 1.929 1.5 1.103 0 2-.897 2-2s-.897-2-2-2c-.929 0-1.705.64-1.929 1.5h-4.071v3.579c.351.203.686.429 1 .681zm5-1.5c.551 0 1 .449 1 1s-.449 1-1 1-1-.449-1-1 .449-1 1-1zm-20 3c.929 0 1.705-.64 1.929-1.5h3.071v3.26c.314-.252.649-.478 1-.681v-3.579h-4.071c-.224-.86-1-1.5-1.929-1.5-1.103 0-2 .897-2 2s.897 2 2 2zm0-3c.551 0 1 .449 1 1s-.449 1-1 1-1-.449-1-1 .449-1 1-1zm20 19c-.929 0-1.705.64-1.929 1.5h-3.071v-3.26c-.314.252-.649.478-1 .681v3.579h4.071c.224.86 1 1.5 1.929 1.5 1.103 0 2-.897 2-2s-.897-2-2-2zm0 3c-.551 0-1-.449-1-1s.449-1 1-1 1 .449 1 1-.449 1-1 1zm-15-1.5h-3.071c-.224-.86-1-1.5-1.929-1.5-1.103 0-2 .897-2 2s.897 2 2 2c.929 0 1.705-.64 1.929-1.5h4.071v-3.579c-.351-.203-.686-.429-1-.681zm-5 1.5c-.551 0-1-.449-1-1s.449-1 1-1 1 .449 1 1-.449 1-1 1z"/></svg>