<?xml version="1.0" encoding="UTF-8"?>
<svg xmlns="http://www.w3.org/2000/svg" id="Layer_1" data-name="Layer 1" viewBox="0 0 24 24">
  <path d="M23.44,15c-6.454,0-9.558,3.587-10.94,6.069v-5.12c1.219-.235,2.143-1.306,2.143-2.593,0-.188-.033-.529-.243-1.375,.65,.581,.937,.769,1.104,.856,1.243,.691,2.933,.166,3.571-1.103,.755-1.422,.052-3.236-1.502-3.735,1.554-.499,2.257-2.314,1.502-3.735-.638-1.269-2.328-1.794-3.571-1.104-.167,.088-.453,.276-1.104,.858,.21-.847,.243-1.188,.243-1.376,0-1.458-1.186-2.643-2.643-2.643s-2.643,1.186-2.643,2.643c0,.188,.033,.529,.242,1.375-.65-.581-.936-.769-1.103-.857-1.242-.69-2.934-.167-3.571,1.103-.755,1.421-.052,3.236,1.502,3.735-1.554,.499-2.257,2.314-1.501,3.735,.637,1.269,2.329,1.794,3.571,1.103,.167-.088,.453-.276,1.103-.855-.209,.845-.242,1.186-.242,1.374,0,1.286,.924,2.358,2.143,2.593v5.112c-1.379-2.482-4.477-6.061-10.923-6.061H.006l.075,.565c.947,7.162,9.227,8.435,11.919,8.435,2.5,0,10.988-1.27,11.936-8.435l.075-.565h-.57ZM1.168,16.011c7.081,.26,9.495,5.163,10.145,6.961-2.211-.148-8.96-1.083-10.145-6.961Zm17.022-4.742c-.424,.801-1.419,1.107-2.22,.686-.163-.086-.634-.425-1.973-1.717,.496-.444,.833-1.053,.949-1.737h.552c1.424,.309,1.87,.476,2.007,.548,.801,.423,1.108,1.419,.686,2.22Zm-2.22-7.223c.772-.43,1.824-.103,2.22,.686,.423,.801,.115,1.797-.686,2.22-.137,.072-.583,.239-2.003,.548h-.556c-.116-.683-.452-1.292-.948-1.736,1.338-1.293,1.809-1.632,1.972-1.719Zm-3.97-3.045c.906,0,1.643,.737,1.643,1.643,0,.184-.08,.758-.599,2.544-.651-.243-1.439-.243-2.091,0-.517-1.786-.597-2.36-.597-2.545,0-.906,.737-1.643,1.643-1.643Zm-6.19,3.731c.396-.789,1.447-1.116,2.22-.686,.163,.086,.634,.425,1.972,1.719-.496,.443-.832,1.052-.948,1.736h-.556c-1.42-.309-1.865-.476-2.003-.548-.801-.423-1.108-1.419-.686-2.22Zm2.22,7.223c-.802,.421-1.797,.115-2.22-.686-.423-.801-.115-1.797,.686-2.22,.137-.072,.583-.24,2.007-.548h.552c.116,.684,.452,1.293,.949,1.737-1.338,1.292-1.81,1.631-1.973,1.718Zm1.97-3.955c0-1.103,.897-2,2-2s2,.897,2,2-.897,2-2,2-2-.897-2-2Zm.357,5.357c0-.184,.08-.758,.597-2.545,.651,.243,1.438,.243,2.09,0,.519,1.786,.599,2.36,.599,2.544,0,.906-.737,1.643-1.643,1.643s-1.643-.737-1.643-1.643Zm2.332,9.615c.654-1.799,3.079-6.702,10.16-6.961-1.186,5.878-7.946,6.813-10.16,6.961Z"/>
</svg>
