<svg id="Layer_1" viewBox="0 0 24 24" xmlns="http://www.w3.org/2000/svg" data-name="Layer 1"><path d="m20.439 15.549.701.713-3.456 3.399c-.217.218-.51.339-.822.339s-.604-.121-.825-.343l-1.85-1.793.695-.719 1.856 1.8c.1.1.158.089.24.007l3.46-3.403zm-18.652-4.368 7.213-4.042v-4.005c0-1.047.714-1.952 1.66-2.106.599-.099 1.18.061 1.635.448.448.381.705.937.705 1.524v4.136l3.384 1.94c.366-.048.738-.075 1.116-.075.282 0 .56.014.835.041l-4.335-2.486v-3.556c0-.882-.386-1.715-1.057-2.286-.672-.571-1.564-.82-2.443-.673-1.425.231-2.5 1.562-2.5 3.093v3.419l-6.697 3.753c-.804.438-1.303 1.279-1.303 2.194v3.532l8-2.506v4.437l-1.88 1.245c-.701.464-1.12 1.243-1.12 2.084v2.621l5.363-1.798c-.184-.284-.353-.58-.503-.886l-3.861 1.294v-1.23c0-.505.251-.972.671-1.25l2.329-1.542v-6.335l-7.999 2.505v-2.171c0-.549.3-1.054.787-1.319zm22.213 6.319c0 3.584-2.916 6.5-6.5 6.5s-6.5-2.916-6.5-6.5 2.916-6.5 6.5-6.5 6.5 2.916 6.5 6.5zm-1 0c0-3.032-2.468-5.5-5.5-5.5s-5.5 2.468-5.5 5.5 2.468 5.5 5.5 5.5 5.5-2.468 5.5-5.5z"/></svg>