<?xml version="1.0" encoding="UTF-8"?>
<svg xmlns="http://www.w3.org/2000/svg" id="Layer_1" data-name="Layer 1" viewBox="0 0 24 24">
  <path d="M12,14c-2.757,0-5,2.243-5,5s2.243,5,5,5,5-2.243,5-5-2.243-5-5-5Zm-4,5c0-.922,.326-1.762,.853-2.44l5.587,5.586c-.677,.527-1.517,.853-2.44,.853-2.206,0-4-1.794-4-4Zm7.147,2.44l-5.587-5.586c.677-.527,1.517-.853,2.44-.853,2.206,0,4,1.794,4,4,0,.922-.326,1.762-.853,2.44Zm8.853-7.44c0,2.757-2.243,5-5,5,0-.34-.033-.673-.08-1h.08c2.206,0,4-1.794,4-4s-1.794-4-4-4h-1v5.408c-.283-.472-.617-.911-1-1.302v-5.106h2c.342,0,.677,.035,1,.101v-.101c0-4.411-3.589-8-8-8S4,4.589,4,9v.101c.323-.066,.658-.101,1-.101h2v5.106c-.383,.391-.717,.83-1,1.302v-5.408h-1c-2.206,0-4,1.794-4,4s1.794,4,4,4h.08c-.047,.327-.08,.66-.08,1-2.757,0-5-2.243-5-5,0-2.045,1.237-3.802,3-4.576v-.424C3,4.037,7.038,0,12,0s9,4.037,9,9v.424c1.763,.774,3,2.531,3,4.576Z"/>
</svg>
