<svg id="Layer_1" viewBox="0 0 24 24" xmlns="http://www.w3.org/2000/svg" data-name="Layer 1"><path d="m12.297 7.098-.297-.219c-.403.36-3.894 2.682-4 6.122 0 2.034 1.532 3.7 3.5 3.949v2.051h1v-2.051c1.968-.249 3.5-1.915 3.5-3.949 0-3.133-3.552-5.791-3.703-5.902zm.203 8.852v-2.949h-1v2.949c-1.416-.24-2.5-1.466-2.5-2.949 0-2.151 2.189-4.181 3-4.86.811.679 3 2.709 3 4.86 0 1.483-1.084 2.71-2.5 2.949zm5-13.95h-1.5v-2h-8v2h-1.5c-1.378 0-2.5 1.122-2.5 2.5v19.5h16v-19.5c0-1.378-1.121-2.5-2.5-2.5zm1.5 21h-14v-18.5c0-.827.673-1.5 1.5-1.5h2.5v-2h6v2h2.5c.827 0 1.5.673 1.5 1.5z"/></svg>