<svg id="Layer_1" viewBox="0 0 24 24" xmlns="http://www.w3.org/2000/svg" data-name="Layer 1"><path d="m24 19v-15.5c0-1.378-1.122-2.5-2.5-2.5h-19c-1.378 0-2.5 1.122-2.5 2.5v15.5h11.5v3h-5.5v1h12v-1h-5.5v-3zm-9-1h-6v-.5c0-.827.673-1.5 1.5-1.5h3c.827 0 1.5.673 1.5 1.5zm-14-14.5c0-.827.673-1.5 1.5-1.5h19c.827 0 1.5.673 1.5 1.5v14.5h-7v-.5c0-1.378-1.122-2.5-2.5-2.5h-3c-1.378 0-2.5 1.122-2.5 2.5v.5h-7zm11 6.5c-1.103 0-2 .897-2 2s.897 2 2 2 2-.897 2-2-.897-2-2-2zm0 3c-.551 0-1-.449-1-1s.449-1 1-1 1 .449 1 1-.449 1-1 1zm0-7c.827 0 1.5-.673 1.5-1.5s-.673-1.5-1.5-1.5-1.5.673-1.5 1.5.673 1.5 1.5 1.5zm0-2c.276 0 .5.224.5.5s-.224.5-.5.5-.5-.224-.5-.5.224-.5.5-.5zm7 2c.827 0 1.5-.673 1.5-1.5s-.673-1.5-1.5-1.5-1.5.673-1.5 1.5.673 1.5 1.5 1.5zm0-2c.276 0 .5.224.5.5s-.224.5-.5.5-.5-.224-.5-.5.224-.5.5-.5zm-14 2c.827 0 1.5-.673 1.5-1.5s-.673-1.5-1.5-1.5-1.5.673-1.5 1.5.673 1.5 1.5 1.5zm0-2c.276 0 .5.224.5.5s-.224.5-.5.5-.5-.224-.5-.5.224-.5.5-.5zm5 6h-1v-1c0-1.103.897-2 2-2h2c1.103 0 2 .897 2 2v1h-1v-1c0-.551-.449-1-1-1h-2c-.551 0-1 .449-1 1zm-3-1c0-.551-.449-1-1-1h-2c-.551 0-1 .449-1 1v1h-1v-1c0-1.103.897-2 2-2h2c1.103 0 2 .897 2 2v1h-1zm10 1h-1v-1c0-1.103.897-2 2-2h2c1.103 0 2 .897 2 2v1h-1v-1c0-.551-.449-1-1-1h-2c-.551 0-1 .449-1 1z"/></svg>