<svg id="Layer_1" viewBox="0 0 24 24" xmlns="http://www.w3.org/2000/svg" data-name="Layer 1"><path d="m15 17h-14v-16h11v-1h-12v21.5c0 1.378 1.122 2.5 2.5 2.5h11c1.379 0 2.5-1.122 2.5-2.5v-9.5h-1zm-1.5 6h-11c-.827 0-1.5-.673-1.5-1.5v-3.5h14v3.5c0 .827-.673 1.5-1.5 1.5zm-7.5-3h4v1h-4zm1-11.5h2v2h-2zm13 1.5h-1c0-2.757-2.243-5-5-5v-1c3.309 0 6 2.691 6 6zm-4 0h-1c0-.551-.448-1-1-1v-1c1.103 0 2 .897 2 2zm8 0h-1c0-4.962-4.037-9-9-9v-1c5.514 0 10 4.486 10 10zm-14.973-4.646c-.583-.457-1.472-.458-2.055 0l-2.333 1.825c-.407.318-.64.797-.64 1.313v4.507h8.001v-4.507c0-.516-.233-.995-.64-1.313zm1.973 6.646h-6v-3.507c0-.207.093-.398.256-.525l2.333-1.826c.237-.186.584-.186.822 0l2.333 1.826c.163.127.256.318.256.525z"/></svg>