<svg id="Layer_1" viewBox="0 0 24 24" xmlns="http://www.w3.org/2000/svg" data-name="Layer 1"><path d="m24 17c-.29 0-.624-.049-.985-.142l-.861 7.142h-5.154v-1h4.268l.78-6.473c-2.25-.94-5.027-3.25-5.927-6.527h-5.955l.362 3h-1.007l-.482-4h14.924l-.582 4.829c-.272-.106-.597-.265-.951-.471l.405-3.358h-5.676c1.217 3.9 5.312 6 6.842 6v1zm-24 3h7v4h-7zm1 3h5v-2h-5zm7-3h7v4h-7zm1 3h5v-2h-5zm2-4h-7v-4h7zm-1-3h-5v2h5zm-7.766 2c-.144-1.623-.249-3.506-.249-5.572 0-5.681.787-9.765 1.036-10.916 1.035-.133 4.271-.512 7.479-.512s6.42.379 7.45.512c.16.738.54 2.688.792 5.488h1.007c-.39-4.139-.819-5.665-.986-6.385-.498-.065-3.945-.592-8.264-.615-4.321.023-7.79.55-8.292.615-.15.686-1.194 4.563-1.222 11.812 0 2.06.103 3.941.246 5.572h1.003z"/></svg>