<svg id="Layer_1" viewBox="0 0 24 24" xmlns="http://www.w3.org/2000/svg" data-name="Layer 1"><path d="m19.767 11.767c-.705-.583-1.237-1.05-1.793-1.625-.976.954-1.504 2.381-1.713 3.387-.274 1.076-.397 1.347-.799 1.347-.533-.125-.469-2.103-.465-2.731-1.5 1.524-2.922 2.929-2.997 5.856 0 3.308 2.69 5.999 5.998 6 3.309.002 6.002-2.691 6.002-6 0-2.688-2.348-4.653-4.233-6.233zm-.706 10.793c-1.42 1.369-3.49-.703-2.122-2.122 0 0 1.061-1.061 1.061-1.061l1.061 1.061c.582.559.582 1.563 0 2.122zm1.269-.163c.361-.899.134-1.987-.562-2.666 0 0-1.768-1.768-1.768-1.768l-1.769 1.768c-.719.719-.903 1.771-.56 2.666-2.916-1.43-3.419-5.46-1.523-7.826.197.724.605 1.303 1.313 1.303 1.232 0 1.505-1.067 1.769-2.1.176-.688.37-1.454.831-2.154 1.921 1.733 4.909 3.672 4.938 6.378 0 1.911-1.091 3.556-2.671 4.397zm3.671-9.395v.038l-8.573-6.719c-.547-.429-1.309-.429-1.855 0l-7 5.502c-.363.286-.572.716-.572 1.179v9.998h5.765c.29.361.614.694.961 1h-7.727v-10.998c0-.772.348-1.489.955-1.965l7-5.502c.908-.715 2.182-.715 3.09 0l7 5.502c.607.477.955 1.193.955 1.965zm-22.183 3.821c-1.381 1.795-.949 4.945 1.182 6.044v1.133c-3.67-1.571-3.764-6.375-1.222-8.708 0 0 .854-.881.854-.881-.005.588-.061 2.08.364 2.366l.003 1c-.567 0-.993-.412-1.182-.953zm-.818-8.823c0 1.674.835 3.151 2.102 4.059-.08.364-.11.75-.102 1.129-1.79-1.039-3-2.973-3-5.188.058-3.612 3.834-5.573 6.026-7.858.999.96 1.453 2.359 1.495 3.138.102.72.116.72.479.72.538-.125.467-2.106.462-2.734.989.996 1.736 1.764 2.53 3.268l-.797.627c-.276-.54-.59-1.037-.886-1.449-.198.717-.605 1.289-1.309 1.289-1.246 0-1.369-.876-1.469-1.581-.072-.514-.159-1.133-.593-1.798-1.921 1.734-4.909 3.671-4.938 6.379zm17.381-3.173-.787-.618c.795-1.113 1.653-2.465 3.214-3.157 1.11 2.564 3.367 5.191 3.173 8.178l-1.016-.799c-.209-2.097-1.629-4.12-2.591-5.963-.923.678-1.354 1.543-1.993 2.359z"/></svg>