<?xml version="1.0" encoding="UTF-8"?>
<svg xmlns="http://www.w3.org/2000/svg" id="Layer_1" data-name="Layer 1" viewBox="0 0 24 24">
  <path d="M19.48,13.17c-.83-.754-1.905-1.17-3.027-1.17H7.646l-4.784-3.044,2.201-2.647c.132,.399,.495,.692,.938,.692h1.424c.774,1.763,2.531,3,4.576,3s3.802-1.237,4.576-3h1.424c.551,0,1-.448,1-1v-2c0-.552-.449-1-1-1h-1.424c-.774-1.763-2.531-3-4.576-3s-3.802,1.237-4.576,3h-1.424c-.551,0-1,.448-1,1v.82L.874,9.782l5.126,6.394v4.824h1v-5.176L2.165,9.794l5.19,3.206h9.099c.873,0,1.708,.323,2.354,.91l4.192,3.811v.029l-6-2.5v5.75h1v-4.25l5,2.084v5.166h1v-6.721l-4.52-4.109Zm-2.48-9.17h1v2h-1v-2ZM12,1c2.206,0,4,1.794,4,4s-1.794,4-4,4-4-1.794-4-4S9.794,1,12,1Zm-5.999,3h.999v2h-1v-2ZM0,23H21v1H0v-1Z"/>
</svg>
