<?xml version="1.0" encoding="UTF-8"?>
<svg xmlns="http://www.w3.org/2000/svg" id="Layer_1" data-name="Layer 1" viewBox="0 0 24 24">
  <path d="M7.806,21.378c.159,.341,.327,.667,.504,.975-.818,1.043-1.774,1.647-2.809,1.647-3.084,0-5.5-5.271-5.5-12S2.416,0,5.5,0c1.035,0,1.991,.604,2.809,1.647-.177,.308-.345,.634-.504,.975-.68-1.019-1.469-1.622-2.306-1.622C3.061,1,1,6.038,1,12s2.061,11,4.5,11c.837,0,1.626-.603,2.306-1.622Zm8.24-.378h1.12c-.967,1.869-2.243,3-3.666,3-1.876,0-3.501-1.957-4.489-5H4.201c-.122-.301-.241-.638-.355-1h4.873c-.456-1.757-.719-3.797-.719-6H3c0-.342,.007-.675,.021-1h1.979V6h-1.158c.113-.362,.23-.699,.351-1h4.818C9.999,1.957,11.624,0,13.5,0c1.764,0,3.306,1.729,4.306,4.463-.423-.205-.856-.39-1.301-.554-.804-1.792-1.861-2.909-3.005-2.909-2.439,0-4.5,5.038-4.5,11s2.061,11,4.5,11c.937,0,1.816-.747,2.546-2ZM8.022,11c.066-1.821,.31-3.513,.697-5h-2.719v5h2.022Zm15.978,6.5v1.5H12.201c-.122-.301-.241-.638-.355-1h11.154v-.5c0-1.991-.51-3.865-1.404-5.5H11c0-.342,.007-.675,.021-1h1.979V6.126c-.384-.05-.77-.093-1.165-.105,.111-.357,.226-.689,.344-.987,6.576,.356,11.821,5.802,11.821,12.466Zm-3.023-6.5c-1.62-2.354-4.101-4.05-6.977-4.69v4.69h6.977Z"/>
</svg>
