<svg id="Layer_1" viewBox="0 0 24 24" xmlns="http://www.w3.org/2000/svg" data-name="Layer 1"><path d="m17.675 4.539 2.297 2.297-.708.708-2.297-2.297zm-1.329-1.329-2.842-2.841-.708.708 2.842 2.842.708-.708zm5.756 2.189-1.784-1.784-.708.708 1.784 1.784zm-3.113-3.112-2.273-2.274-.708.708 2.274 2.274.708-.708zm-.686 6.577-2.976-2.977-.708.708 2.976 2.977zm-4.353-4.353-2.833-2.834-.708.708 2.833 2.834zm-5.92 8.735-2.274-2.274-.708.708 2.274 2.274zm6.577-.686-2.976-2.977-.708.708 2.976 2.977zm-4.352-4.353-2.833-2.833-.708.708 2.833 2.833zm6.201 2.505-2.977-2.977-.708.708 2.977 2.977zm-4.353-4.353-2.834-2.833-.708.708 2.834 2.833zm8.108 8.783c-2.404 2.39-5.303 3.807-8.439 3.843-1.372 0-2.631-.322-3.717-.933l-5.496 5.496c-.585.585-1.538.585-2.123 0-.583-.558-.582-1.564 0-2.123l5.426-5.427c-.345-.562-.621-1.212-.752-1.943l2.145 2.163c1.144 1.155 2.709 1.766 4.525 1.766.887.003 1.803-.153 2.665-.422l-1.137-1.137.708-.708 1.471 1.472c.524-.22 1.039-.486 1.541-.791l-1.705-1.706.708-.708 1.848 1.849c.432-.313.848-.659 1.248-1.031l-1.957-1.958.708-.708 1.956 1.956c.374-.403.722-.819 1.032-1.249l-1.847-1.847.708-.708 1.701 1.702c.298-.494.558-.998.774-1.506l-1.476-1.476.708-.708 1.147 1.147c.867-2.781.491-5.561-1.28-7.348l-1.972-1.99c1.081.192 2.006.62 2.656 1.276 3.271 3.299 2.475 9.47-1.774 13.757zm-13.006 2.345c-.258-.208-.524-.419-.737-.679l-5.324 5.324c-.194.186-.194.521 0 .707.195.195.512.195.708 0l5.353-5.353zm5.35-3.233-2.297-2.297-.708.708 2.297 2.297zm-3.929 1.054 1.784 1.784.708-.708-1.784-1.784zm.329-4.706-2.842-2.842-.708.708 2.842 2.842z"/></svg>