<?xml version="1.0" encoding="UTF-8"?>
<svg xmlns="http://www.w3.org/2000/svg" id="Layer_1" data-name="Layer 1" viewBox="0 0 24 24">
  <path d="m21.096,5.022c-.888,0-1.7.669-2.189,1.172.4-.789.931-1.535,1.595-2.234.099.013.352.042.687.042.649,0,1.577-.112,2.139-.675.882-.882.657-2.66.628-2.859l-.053-.371-.371-.053c-.199-.028-1.978-.253-2.859.628-.631.631-.693,1.713-.669,2.355-.385.384-.725.789-1.038,1.206-.062-.549-.228-1.151-.638-1.561-.881-.882-2.659-.656-2.859-.628l-.371.053-.053.371c-.028.2-.253,1.978.628,2.859.562.562,1.576.673,2.225.673-.505,1.078-.797,2.228-.869,3.424l-2.094-.819c-.125-1.068-.611-1.904-1.418-2.309-1.382-.691-3.073-.131-3.763,1.246l-.987,1.898c-2.838-.522-4.916-2.298-4.937-2.317l-.725-.635-.102.958c-.005.042-.085.864,0,2.116-1.297-.939-2.106-1.869-2.122-1.887l-.88-1.032v1.356c0,5.272,1.417,8.8,3.419,11H0v1.15c0,1.99,1.077,2.816,1.655,3.26l.744.572,3.49-3.045c1.358.728,2.808,1.062,4.192,1.062,1.314,0,2.549-.512,3.478-1.442.929-.929,1.439-2.165,1.438-3.479l-.005-5.764,2.034-.763c.124,2.49,1.023,4.395,1.133,4.617l.896-.445c-.043-.086-1.053-2.147-1.053-4.725,0-.94.15-1.837.436-2.692l.01.014c.13.174,1.313,1.7,2.65,1.7s2.52-1.526,2.65-1.7l.225-.3-.225-.3c-.13-.174-1.313-1.7-2.65-1.7Zm.283-3.643c.341-.34,1.1-.391,1.618-.376.017.514-.036,1.277-.376,1.618-.341.34-1.104.389-1.618.376-.017-.514.036-1.277.376-1.618Zm-13.097,8.993l-.577,1.11c-1.345-.108-2.587-.616-3.636-1.225-.081-.704-.107-1.318-.107-1.779.874.601,2.412,1.486,4.32,1.895Zm-5.924,12.318c-.503-.386-1.461-.844-1.359-2.69h3.486c.168.136.336.27.509.39l-2.636,2.3Zm10.492-2.839c-.74.741-1.724,1.148-2.771,1.148-4.001,0-8.644-3.107-9.051-11.749,1.299,1.2,3.867,3.146,6.955,3.249l.315.011,2.346-4.513c.447-.891,1.534-1.252,2.424-.806.8.402.92,1.379.92,1.926l.007,7.963c0,1.046-.406,2.031-1.146,2.771Zm3.529-15.231c-.34-.34-.394-1.104-.376-1.618.516-.016,1.277.036,1.618.376.34.34.394,1.104.376,1.618-.521.011-1.277-.036-1.618-.376Zm4.717,3.401c-.552,0-1.211-.583-1.596-1,.384-.417,1.041-1,1.596-1,.552,0,1.211.583,1.596,1-.384.417-1.041,1-1.596,1Z"/>
</svg>
