<svg id="Layer_1" viewBox="0 0 24 24" xmlns="http://www.w3.org/2000/svg" data-name="Layer 1"><path d="m12 12c3.309 0 6-2.691 6-6s-2.691-6-6-6-6 2.691-6 6 2.691 6 6 6zm0-11c.534 0 1.04.106 1.523.262-.683 2.21-2.702 3.738-5.023 3.738h-1.399c.465-2.279 2.484-4 4.899-4zm-3.5 5c2.724 0 5.095-1.769 5.939-4.338 1.521.859 2.561 2.471 2.561 4.338 0 2.757-2.243 5-5 5s-5-2.243-5-5zm8 8h-9c-2.481 0-4.5 2.019-4.5 4.5v5.5h1v-5.5c0-1.93 1.57-3.5 3.5-3.5h.5v3.064c-.871.216-1.521.999-1.521 1.936 0 1.103.897 2 2 2s2-.897 2-2c0-.921-.63-1.691-1.479-1.922v-3.078h6v3.551c-1.14.232-2 1.242-2 2.449v3h1v-3c0-.827.673-1.5 1.5-1.5s1.5.673 1.5 1.5v3h1v-3c0-1.208-.86-2.217-2-2.449v-3.551h.5c1.93 0 3.5 1.57 3.5 3.5v5.5h1v-5.5c0-2.481-2.019-4.5-4.5-4.5zm-7.021 6c0 .552-.448 1-1 1s-1-.448-1-1 .448-1 1-1 1 .448 1 1z"/></svg>