<svg id="Layer_1" viewBox="0 0 24 24" xmlns="http://www.w3.org/2000/svg" data-name="Layer 1"><path d="m21.5 6h-1.5v-3h1c1.654 0 3-1.346 3-3h-1c0 1.103-.897 2-2 2h-20v-2h-1v24h1v-21h6v3h-1.5c-1.379 0-2.5 1.122-2.5 2.5v15.5h21v-15.5c0-1.378-1.121-2.5-2.5-2.5zm-13.5-3h11v3h-11zm15 20h-19v-14.5c0-.827.673-1.5 1.5-1.5h16c.827 0 1.5.673 1.5 1.5zm-4-5.5c0-2.864-2.201-5.221-5-5.475v-1.025h-1v1.025c-2.799.254-5 2.611-5 5.475v.5h-1v1h13v-1h-1zm-10 0c0-2.481 2.019-4.5 4.5-4.5s4.5 2.019 4.5 4.5v.5h-9z"/></svg>