<?xml version="1.0" encoding="UTF-8"?>
<svg xmlns="http://www.w3.org/2000/svg" id="Layer_1" data-name="Layer 1" viewBox="0 0 24 24">
  <path d="M11.489,14h1v4h-1v-4Zm-3.021-5.45c-.955-.954-1.479-2.213-1.479-3.55s.521-2.592,1.465-3.536c.943-.944,2.199-1.464,3.535-1.464s2.592,.52,3.535,1.464c.944,.944,1.465,2.2,1.465,3.536s-.521,2.592-1.465,3.536l-3.535,3.459-3.521-3.445Zm-.479-3.55c0,1.069,.42,2.077,1.183,2.839l2.817,2.756,2.832-2.771c.752-.751,1.168-1.756,1.168-2.825s-.416-2.073-1.172-2.829c-.755-.755-1.76-1.171-2.828-1.171s-2.073,.416-2.828,1.171c-.756,.755-1.172,1.76-1.172,2.829Zm2,0c0-1.103,.897-2,2-2s2,.897,2,2-.897,2-2,2-2-.897-2-2Zm1,0c0,.551,.448,1,1,1s1-.449,1-1-.448-1-1-1-1,.449-1,1Zm10.156,3.067c-.197-1.123-1.122-1.947-2.238-2.047-.049,.334-.114,.663-.209,.983,.723,.007,1.337,.524,1.463,1.237l2.597,14.76H12.489v-3h-1v3H1.241L3.823,8.242s0,0,0,0c.126-.713,.738-1.229,1.459-1.238-.096-.32-.162-.65-.211-.983-1.114,.103-2.036,.927-2.233,2.048h0S.051,24,.051,24H23.949l-2.804-15.933Z"/>
</svg>
