<?xml version="1.0" encoding="UTF-8"?>
<svg xmlns="http://www.w3.org/2000/svg" id="Layer_1" data-name="Layer 1" viewBox="0 0 24 24">
  <path d="M23.069,1.603c-.592-.494-1.365-.7-2.124-.561l-6.459,1.175c-1.074,.195-1.965,.849-2.486,1.736-.521-.888-1.412-1.541-2.485-1.736L3.055,1.042C1.515,.721-.037,2.023,0,3.592V20.735l11.91,2.166,.09,.016,12-2.182V3.592c0-.771-.34-1.496-.931-1.989Zm-.069,18.299l-10.5,1.909v-4.81h-1v4.81l-10.5-1.909V3.592c-.025-.962,.934-1.763,1.875-1.565l6.461,1.175c1.254,.228,2.164,1.318,2.164,2.594v1.205h1v-1.205c0-1.275,.91-2.366,2.165-2.594l6.46-1.175c.941-.198,1.9,.603,1.875,1.565V19.901ZM7.5,8c-.692-.022-1.32,.51-1.455,1.196l-1.33,5.804h1.026l.458-2h2.625l.472,2h1.027l-1.38-5.853c-.156-.672-.754-1.147-1.443-1.147Zm-1.071,4l.591-2.578c.085-.553,.835-.549,.95-.046l.619,2.624h-2.16Zm7.571-4h4.5v1.157l-3.39,4.843h3.39v1h-4.5v-1.157l3.39-4.843h-3.39v-1Zm-3,3h2v1h-2v-1Z"/>
</svg>
