<svg id="Layer_1" viewBox="0 0 24 24" xmlns="http://www.w3.org/2000/svg" data-name="Layer 1"><path d="m12 4c1.103 0 2-.897 2-2s-.897-2-2-2-2 .897-2 2 .897 2 2 2zm0-3c.551 0 1 .448 1 1s-.449 1-1 1-1-.448-1-1 .449-1 1-1zm-2 13c0 .899-.753 1.354-1.455 1.48-1.618.278-3.545.861-3.545 2.062 0 1.596 3.606 2.457 7 2.457s7-.861 7-2.457c0-1.187-1.884-1.769-3.483-2.051-.733-.102-1.517-.546-1.517-1.492 0-.569.332-1.048.751-1.654.557-.805 1.249-1.806 1.249-3.346 0-2.206-1.794-4-4-4s-4 1.794-4 4c-.094 2.357 1.717 3.205 2 5zm2-8c1.654 0 3 1.346 3 3 .057 2.21-1.905 2.974-2 5 0 1.289.957 2.286 2.361 2.479 2.013.356 2.639.904 2.639 1.063 0 .374-2.063 1.457-6 1.457s-6-1.083-6-1.457c0-.163.644-.721 2.718-1.077 1.386-.249 2.282-1.217 2.282-2.466-.095-2.027-2.057-2.79-2-5 0-1.654 1.346-3 3-3zm12 11.5c0 3.584-5.383 6.5-12 6.5s-12-2.916-12-6.5c0-2.524 2.675-4.711 6.565-5.788.149.341.316.646.484.924-3.524.94-6.049 2.812-6.049 4.863 0 2.93 5.14 5.5 11 5.5s11-2.57 11-5.5c0-2.052-2.525-3.924-6.049-4.863.168-.278.334-.583.484-.924 3.89 1.076 6.565 3.264 6.565 5.788z"/></svg>