<svg id="Layer_1" viewBox="0 0 24 24" xmlns="http://www.w3.org/2000/svg" data-name="Layer 1"><path d="m24 12c0-.858-.242-1.671-.7-2.352-.399-.594-.399-1.488 0-2.082.458-.681.7-1.495.7-2.353-.003-.919-.43-1.638-.805-2.316-.383-.689-.106-1.841.032-2.227l.242-.669h-6.232c-.852 0-1.62.48-2.006 1.253-.362.725-.297 1.533.197 2.191.374.484.572 1.095.572 1.768 0 .658-.184 1.279-.53 1.794-.624.927-.624 2.271 0 3.198.347.515.53 1.136.53 1.794s-.184 1.278-.53 1.794c-.623.927-.623 2.271 0 3.198.342.508.53 1.148.53 1.804 0 .666-.198 1.273-.594 1.787-.473.629-.538 1.437-.177 2.161.387.774 1.155 1.255 2.007 1.256l6.216-.002-.233-.666c-.134-.38-.398-1.523-.027-2.243.365-.706.802-1.379.809-2.303 0-.858-.242-1.672-.7-2.352-.398-.594-.398-1.489 0-2.082.458-.681.7-1.495.7-2.353zm-7.876 10.298c-.091-.182-.265-.654.095-1.133.511-.66.781-1.479.781-2.369 0-.852-.249-1.691-.7-2.362-.399-.593-.399-1.488 0-2.081.458-.681.7-1.495.7-2.353s-.242-1.671-.7-2.353c-.399-.593-.399-1.488 0-2.081.458-.681.7-1.495.7-2.353 0-.896-.271-1.718-.794-2.396-.347-.461-.173-.934-.081-1.116.169-.339.55-.701 1.111-.701h1.871c-.13.639-.214 1.612.213 2.383.333.598.682 1.188.68 1.831 0 .658-.184 1.279-.53 1.794-.623.926-.623 2.271 0 3.198.347.515.53 1.136.53 1.794s-.184 1.278-.53 1.795c-.622.926-.622 2.271 0 3.197.347.516.53 1.136.53 1.794.004.635-.39 1.252-.697 1.844-.404.782-.324 1.741-.201 2.37h-1.865c-.562 0-.942-.363-1.112-.702zm6.346-12.092c.347.515.53 1.136.53 1.794s-.184 1.278-.53 1.795c-.622.926-.622 2.271 0 3.197.347.516.53 1.136.53 1.794.004.635-.39 1.252-.697 1.844-.403.782-.324 1.74-.201 2.369h-1.977c-.123-.512-.227-1.341.066-1.91.365-.706.802-1.379.809-2.303 0-.858-.242-1.672-.7-2.352-.398-.594-.398-1.489 0-2.082.458-.681.7-1.495.7-2.353s-.242-1.671-.7-2.352c-.399-.594-.399-1.488 0-2.082.458-.681.7-1.495.7-2.353-.003-.919-.43-1.638-.805-2.316-.304-.547-.192-1.382-.064-1.897h1.976c-.13.638-.214 1.612.213 2.383.333.598.682 1.188.68 1.831 0 .658-.184 1.279-.53 1.794-.623.926-.623 2.271 0 3.198zm-13.47 5.794c.552 0 1 .448 1 1s-.448 1-1 1-1-.448-1-1 .448-1 1-1zm3 2c.552 0 1 .448 1 1s-.448 1-1 1-1-.448-1-1 .448-1 1-1zm-3.5-13c-2.481 0-4.5 2.019-4.5 4.5s2.019 4.5 4.5 4.5 4.5-2.019 4.5-4.5-2.019-4.5-4.5-4.5zm0 8c-1.93 0-3.5-1.57-3.5-3.5s1.57-3.5 3.5-3.5 3.5 1.57 3.5 3.5-1.57 3.5-3.5 3.5zm4.59 9.617c.067.322.173.639.32.947-.753.277-1.562.436-2.41.436-3.3 0-6.143-2.306-6.836-5.513-2.611-1.931-4.164-4.996-4.164-8.237 0-5.652 4.598-10.25 10.25-10.25 1.094 0 2.146.176 3.135.495-.142.31-.252.628-.314.949-.89-.286-1.837-.443-2.821-.443-5.101-.001-9.25 4.148-9.25 9.249-.003 3.053 1.535 5.933 4.069 7.657.45 2.919 2.972 5.098 5.931 5.093.736 0 1.438-.14 2.09-.383z"/></svg>