<svg id="Layer_1" viewBox="0 0 24 24" xmlns="http://www.w3.org/2000/svg" data-name="Layer 1"><path d="m24 19.5c0 2.481-2.019 4.5-4.5 4.5h-.257c.212-.315.377-.656.501-1.012 1.816-.126 3.256-1.64 3.256-3.488.016-2.202-1.985-3.742-4.109-3.5-.488-1.744-2.063-3.011-3.891-3-2.206 0-4 1.794-4 4-.005.282.056.719.084 1-1.571-.199-3.102.864-3.084 2.5 0 1.379 1.121 2.5 2.5 2.5h.76c.124.352.287.688.497 1h-1.257c-1.93 0-3.5-1.57-3.5-3.5 0-1.761 1.306-3.222 3-3.465v-.035c0-2.757 2.243-5 5-5 1.996 0 3.795 1.192 4.584 3.001 2.443.045 4.416 2.046 4.416 4.499zm-16.945-3.265c.267-.217.554-.407.86-.572-1.206-1.018-1.924-2.578-1.915-4.163 0-3.033 2.468-5.5 5.5-5.5 1.958 0 3.783 1.054 4.765 2.75.272.469.462.978.584 1.504.379.104.743.245 1.096.409-.09-.694-.296-1.367-.601-1.996l4.339-2.526-.504-.864-4.337 2.524c-.456-.657-1.024-1.217-1.672-1.66l2.52-4.334-.865-.503-2.522 4.336c-.717-.344-1.497-.557-2.305-.62v-5.02h-1v5.025c-.82.063-1.596.279-2.303.619l-2.521-4.339-.865.503 2.52 4.333c-.652.448-1.217 1.012-1.668 1.662l-4.341-2.526-.504.864 4.342 2.527c-.348.715-.569 1.5-.633 2.331h-5.025v1h5.02c.062.815.277 1.604.632 2.334l-4.335 2.523.504.865 4.341-2.526c.265.38.563.728.894 1.039zm10.209 3.493c.477.477.736 1.104.736 1.771s-.26 1.295-.732 1.768-1.1.732-1.768.732-1.295-.26-1.768-.732-.732-1.1-.732-1.768.26-1.295.732-1.768l1.768-1.729zm-.703.711-1.061-1.038-1.064 1.042c-.581.581-.581 1.532.004 2.117.566.566 1.555.566 2.121 0 .585-.585.585-1.536 0-2.121z"/></svg>