<svg id="Layer_1" viewBox="0 0 24 24" xmlns="http://www.w3.org/2000/svg" data-name="Layer 1"><path d="m19.75 0c-1.673 0-3.108.98-3.801 2.387-.76-1.413-2.235-2.387-3.949-2.387s-3.189.974-3.949 2.387c-.693-1.407-2.128-2.387-3.801-2.387-2.344 0-4.25 1.907-4.25 4.25v19.75h1c0-1.654 1.458-3 3.25-3s3.25 1.346 3.25 3h1c0-1.768 1.845-3 3.5-3s3.5 1.232 3.5 3h1c0-1.654 1.458-3 3.25-3s3.25 1.346 3.25 3h1v-19.75c0-2.343-1.906-4.25-4.25-4.25zm-4.25 14.706c-.825-1.032-2.079-1.706-3.5-1.706s-2.675.675-3.5 1.706v-4.206c0-1.93 1.57-3.5 3.5-3.5s3.5 1.57 3.5 3.5zm-3.5-13.706c1.93 0 3.5 1.57 3.5 3.5v3.206c-.825-1.032-2.079-1.706-3.5-1.706s-2.675.675-3.5 1.706v-3.206c0-1.93 1.57-3.5 3.5-3.5zm-11 3.25c0-1.792 1.458-3.25 3.25-3.25s3.25 1.458 3.25 3.25v3.294c-.78-.935-1.939-1.544-3.25-1.544s-2.47.609-3.25 1.544zm0 6c0-1.792 1.458-3.25 3.25-3.25s3.25 1.458 3.25 3.25v4.294c-.78-.935-1.939-1.544-3.25-1.544s-2.47.609-3.25 1.544zm3.25 9.75c-1.311 0-2.47.573-3.25 1.454v-4.204c0-1.792 1.458-3.25 3.25-3.25s3.25 1.458 3.25 3.25v4.204c-.78-.88-1.939-1.454-3.25-1.454zm7.75 0c-1.283 0-2.62.561-3.5 1.512v-4.012c0-1.93 1.57-3.5 3.5-3.5s3.5 1.57 3.5 3.5v4.012c-.88-.952-2.217-1.512-3.5-1.512zm11 1.454c-.78-.88-1.939-1.454-3.25-1.454s-2.47.573-3.25 1.454v-4.204c0-1.792 1.458-3.25 3.25-3.25s3.25 1.458 3.25 3.25zm0-6.909c-.78-.935-1.939-1.544-3.25-1.544s-2.47.609-3.25 1.544v-4.294c0-1.792 1.458-3.25 3.25-3.25s3.25 1.458 3.25 3.25zm-3.25-8.544c-1.311 0-2.47.609-3.25 1.544v-3.294c0-1.792 1.458-3.25 3.25-3.25s3.25 1.458 3.25 3.25v3.294c-.78-.935-1.939-1.544-3.25-1.544z"/></svg>