<?xml version="1.0" encoding="UTF-8"?>
<svg xmlns="http://www.w3.org/2000/svg" id="Layer_1" data-name="Layer 1" viewBox="0 0 24 24">
  <path d="M12,3C6.024,3,0,4.083,0,4.083v15.834s6.024,1.083,12,1.083,12-1.083,12-1.083V4.083s-6.024-1.083-12-1.083Zm11,16.077c-1.381,.227-6.045,.923-11,.923s-9.619-.696-11-.923V4.923c1.381-.227,6.045-.923,11-.923s9.619,.696,11,.923v14.154ZM7.898,8h1.038l-1.308,6.425c-.126,.647-.687,1.575-1.628,1.575s-1.51-.97-1.618-1.531l-1.381-6.469h1.031l1.329,6.26c.044,.228,.317,.74,.64,.74,.331,0,.593-.491,.646-.765l1.252-6.235Zm2.102,8h1v-3h1.5c1.378,0,2.5-1.121,2.5-2.5s-1.122-2.5-2.5-2.5h-2.5v8Zm1-7h1.5c.827,0,1.5,.673,1.5,1.5s-.673,1.5-1.5,1.5h-1.5v-3Zm6,7h-1V8h.792l3.208,5.665v-5.665h1v8h-.792l-3.208-5.63v5.63Z"/>
</svg>
