<svg id="Layer_1" viewBox="0 0 24 24" xmlns="http://www.w3.org/2000/svg" data-name="Layer 1"><path d="m12 20c-5.529 0-8.664-3.659-10.104-6h1.19c1.451 2.138 4.26 5 8.913 5s7.463-2.861 8.913-5h1.19c-1.44 2.341-4.574 6-10.103 6zm-11-17.5c0-.827.673-1.5 1.5-1.5h4.5v-1h-4.5c-1.378 0-2.5 1.122-2.5 2.5v4.5h1zm20.5-2.5h-4.5v1h4.5c.827 0 1.5.673 1.5 1.5v4.5h1v-4.5c0-1.378-1.122-2.5-2.5-2.5zm-20.5 21.5v-4.5h-1v4.5c0 1.379 1.122 2.5 2.5 2.5h4.5v-1h-4.5c-.827 0-1.5-.673-1.5-1.5zm22 0c0 .827-.673 1.5-1.5 1.5h-4.5v1h4.5c1.378 0 2.5-1.121 2.5-2.5v-4.5h-1zm-.333-10.5h1.333v1h-24v-1h1.333c1.004-1.963 4.213-7 10.667-7s9.662 5.037 10.667 7zm-20.199 0h5.675c.452-1.734 2.029-3 3.857-3s3.405 1.266 3.857 3h5.675c-1.146-2.032-4.084-6-9.532-6s-8.386 3.968-9.532 6zm9.532-2c-1.283 0-2.408.828-2.825 2h5.65c-.417-1.172-1.542-2-2.825-2zm3.444 5h-1.224c-.549.609-1.337 1-2.22 1s-1.67-.391-2.22-1h-1.224c.694 1.19 1.97 2 3.444 2s2.75-.81 3.444-2z"/></svg>