<?xml version="1.0" encoding="UTF-8"?>
<svg xmlns="http://www.w3.org/2000/svg" id="Layer_1" data-name="Layer 1" viewBox="0 0 24 24">
  <path d="m20.938,15.958c-.154-.64-.584-1.16-1.179-1.428-1.21-.545-2.856-1.149-5.293-1.403,2.121-1.539,3.534-4.797,3.534-7.126,0-3.309-2.691-6-6-6s-6,2.691-6,6c0,2.329,1.413,5.587,3.534,7.126-2.437.255-4.083.858-5.293,1.403-.596.269-1.025.789-1.18,1.429-.158.654-.009,1.331.411,1.857l.397.496c1.232,1.538,2.31,2.89,3.248,4.688h-2.117v1h14v-1h-2.119c.938-1.797,2.015-3.148,3.247-4.685l.399-.499c.42-.526.569-1.204.411-1.858ZM7,6c0-2.757,2.243-5,5-5s5,2.243,5,5-2.24,7-5,7-5-4.236-5-7Zm12.746,11.192l-.398.497c-1.311,1.636-2.549,3.187-3.587,5.311h-7.523c-1.038-2.125-2.277-3.677-3.589-5.313,0,0-.431-.552-.45-.581,1.584,1.052,4.788,2.895,7.801,2.895,1.224,0,2.477-.308,3.644-.74.384-.558.777-1.087,1.172-1.596-1.454.712-3.189,1.336-4.816,1.336-3.138,0-6.676-2.312-7.813-3.118.114-.187.261-.349.464-.441,1.491-.671,3.673-1.441,7.35-1.441s5.858.77,7.35,1.441c.311.14.536.414.617.751.085.353.005.717-.221,1Z"/>
</svg>
