<?xml version="1.0" encoding="UTF-8"?>
<svg xmlns="http://www.w3.org/2000/svg" id="Layer_1" data-name="Layer 1" viewBox="0 0 24 24">
  <path d="m18,8v3.054c.753.126,2.216.567,3.4,2.146l-.801.6c-.905-1.206-1.981-1.597-2.6-1.729v3.429c0,1.355-.419,2.639-1.143,3.71-.086-.455-.206-.917-.367-1.378.325-.718.509-1.509.509-2.332V7h4.397c.884,0,1.603-.719,1.603-1.603,0-2.077-1.54-4.031-3.583-4.324-2.335-.339-4.693.513-6.301,2.272-2.98,3.259-5.741,7.545-7.385,11.464-.318.758-1.056,1.192-1.961,1.192-.197,0-.402-.021-.612-.063-.619-.124-1.251-.455-1.79-.964.96,3.136,3.717,5.564,7.06,5.911.4.042,1.437.08,3.083.114.881.021,1.72-.18,2.48-.558v-.087c-.143-1.368-.93-4.85-5.259-5.411.146-.308.302-.621.471-.944,4.252.717,5.623,4.103,5.797,6.354v2.646h2v1h-3v-2.456c-.749.3-1.556.457-2.377.457-.044,0-.464-.008-.623-.012v1.011h2v1h-3v-2.037c-.832-.025-1.389-.053-1.676-.083C3.657,21.396,0,17.299,0,12.553v-4.553h1v3.587c0,2.002,1.183,3.136,2.355,3.371.522.106,1.217.028,1.454-.535,1.686-4.02,4.515-8.412,7.569-11.752C14.21.667,16.894-.296,19.56.083c2.531.363,4.44,2.743,4.44,5.314,0,1.435-1.168,2.603-2.603,2.603h-3.397Z"/>
</svg>
