<?xml version="1.0" encoding="UTF-8"?>
<svg xmlns="http://www.w3.org/2000/svg" id="Layer_1" data-name="Layer 1" viewBox="0 0 24 24">
  <path d="M18,7.259c1.892,1.511,3,3.78,3,6.241v2.5h1v-2.5c0-3.026-1.495-5.79-4-7.468V3.5c0-1.93-1.57-3.5-3.5-3.5h-5c-1.93,0-3.5,1.57-3.5,3.5v2.532c-2.505,1.677-4,4.441-4,7.468v10.5h1V13.5c0-2.46,1.108-4.729,3-6.241v6.241c0,2.481,2.019,4.5,4.5,4.5h3c2.481,0,4.5-2.019,4.5-4.5V7.259Zm-7.5,9.741c-.601,0-1.159-.166-1.654-.435,.758-.98,1.924-1.565,3.154-1.565s2.396,.585,3.154,1.565c-.495,.268-1.053,.435-1.654,.435h-3Zm6.5-3.5c0,.969-.396,1.846-1.035,2.481-.945-1.24-2.414-1.981-3.965-1.981s-3.02,.741-3.965,1.981c-.638-.634-1.035-1.512-1.035-2.481V3.5c0-1.378,1.121-2.5,2.5-2.5h5c1.379,0,2.5,1.122,2.5,2.5V13.5ZM2.5,5l-.833-1.667-1.667-.833,1.667-.833,.833-1.667,.833,1.667,1.667,.833-1.667,.833-.833,1.667Zm19.373,14.627l-1.123-2.246-1.123,2.246-2.245,1.123,2.245,1.123,1.123,2.246,1.123-2.246,2.245-1.123-2.245-1.123Zm-.746,1.5l-.377,.754-.377-.754-.755-.377,.755-.377,.377-.754,.377,.754,.755,.377-.755,.377Z"/>
</svg>
