<svg id="Layer_1" viewBox="0 0 24 24" xmlns="http://www.w3.org/2000/svg" data-name="Layer 1"><path d="m22 8v-4.21c0-1.04-.626-1.956-1.595-2.332-1.035-.402-2.492-.849-4.329-1.141.318.351.591.742.81 1.166 1.401.286 2.475.641 3.157.906.581.226.956.775.956 1.4v1.21h-3.595c-.064.346-.16.68-.285 1h3.881v7h-8.5v-2h-1v2h-8.5v-6.999h3.881c-.125-.32-.222-.654-.285-1h-3.596v-1.21c0-.625.375-1.174.957-1.4.682-.265 1.756-.621 3.157-.906.219-.425.493-.815.81-1.166-1.836.292-3.294.739-4.329 1.141-.968.376-1.594 1.292-1.594 2.332v4.21h-2.001v4c0 1.103.897 2 2 2v7h2v3h4v-3h8v3h4v-3h2v-7c1.103 0 2-.897 2-2v-4h-2zm-21 4v-3h1v4c-.551 0-1-.449-1-1zm6 11h-2v-2h2zm12 0h-2v-2h2zm2-3h-18v-6h3v1.5c0 .276.224.5.5.5s.5-.224.5-.5v-1.5h10v1.5c0 .276.224.5.5.5s.5-.224.5-.5v-1.5h3zm2-8c0 .551-.448 1-1 1v-4h1zm-13.387-6h1.421l-.655 3h1.487l3.414-4.24.026-.036c.227-.339.248-.775.056-1.137-.191-.36-.562-.585-.971-.587h-1.663l1.155-3h-3.637l-1.697 4.523c-.105.344-.039.725.178 1.021.213.289.535.455.885.457zm1.326-5h1.488l-1.154 3h3.117c.083 0 .14.092.093.157l-2.773 3.444.568-2.601h-2.677c-.134 0-.116-.119-.103-.154l1.443-3.846z"/></svg>