<svg id="Layer_1" viewBox="0 0 24 24" xmlns="http://www.w3.org/2000/svg" data-name="Layer 1"><path d="m18.989 13c-.3.583-.656 1.154-1.076 1.692-1.638 2.103-3.793 3.308-5.913 3.308-4.309 0-8-4.845-8-8.811 0-1.026.437-4.428 6.058-5.083.302-.035.617-.062.942-.08v-1c-.365.019-.719.046-1.058.086-2.983.348-4.84 1.492-5.876 2.888h-1.065v-6h-3.001v6.5c0 1.379 1.122 2.5 2.5 2.5h.509c-.115 4.029 3.264 8.84 7.491 9.816v5.184h3v-5.183c1.912-.429 3.751-1.648 5.202-3.51 0 0 0-.002.001-.003.566-.726 1.035-1.505 1.401-2.305h-1.115zm-16.489-5c-.827 0-1.5-.673-1.5-1.5v-5.5h1v5c0 .552.449 1 1 1h.477c-.148.329-.26.664-.337 1zm10 15h-1v-4.034c.167.013.332.034.5.034.167 0 .333-.022.5-.034zm8.793-19.586.564-.564c.196.094.412.15.643.15.827 0 1.5-.673 1.5-1.5s-.673-1.5-1.5-1.5-1.5.673-1.5 1.5c0 .231.057.447.15.643l-.564.564c-.457-.342-.996-.571-1.586-.656v-2.051h-1v2.051c-.59.086-1.129.314-1.586.656l-.564-.564c.094-.196.15-.412.15-.643 0-.827-.673-1.5-1.5-1.5s-1.5.673-1.5 1.5.673 1.5 1.5 1.5c.231 0 .447-.057.643-.15l.564.564c-.342.457-.571.996-.656 1.586h-2.051v1h2.051c.086.59.314 1.129.656 1.586l-.564.564c-.196-.094-.412-.15-.643-.15-.827 0-1.5.673-1.5 1.5s.673 1.5 1.5 1.5 1.5-.673 1.5-1.5c0-.231-.057-.447-.15-.643l.564-.564c.457.342.996.571 1.586.656v2.051h1v-2.051c.59-.086 1.129-.314 1.586-.656l.564.564c-.094.196-.15.412-.15.643 0 .827.673 1.5 1.5 1.5s1.5-.673 1.5-1.5-.673-1.5-1.5-1.5c-.231 0-.447.057-.643.15l-.564-.564c.342-.457.571-.996.656-1.586h2.051v-1h-2.051c-.086-.59-.314-1.129-.656-1.586zm1.207-2.414c.276 0 .5.225.5.5s-.224.5-.5.5-.5-.225-.5-.5.224-.5.5-.5zm-8.5.5c0-.275.224-.5.5-.5s.5.225.5.5-.224.5-.5.5-.5-.225-.5-.5zm.5 8.5c-.276 0-.5-.225-.5-.5s.224-.5.5-.5.5.225.5.5-.224.5-.5.5zm4-2c-1.378 0-2.5-1.121-2.5-2.5s1.122-2.5 2.5-2.5 2.5 1.121 2.5 2.5-1.122 2.5-2.5 2.5zm4.5 1.5c0 .275-.224.5-.5.5s-.5-.225-.5-.5.224-.5.5-.5.5.225.5.5z"/></svg>