<svg id="Layer_1" viewBox="0 0 24 24" xmlns="http://www.w3.org/2000/svg" data-name="Layer 1"><path d="m23 7.5v-2h-3v2h-1v3.5c0 1.207.86 2.217 2 2.449v8.051c0 .827-.673 1.5-1.5 1.5h-3.5v-20.5c0-1.378-1.121-2.5-2.5-2.5h-11c-1.379 0-2.5 1.122-2.5 2.5v21.5h19.5c1.379 0 2.5-1.122 2.5-2.5v-8.051c1.14-.232 2-1.242 2-2.449v-3.5zm-8 15.5h-14v-20.5c0-.827.673-1.5 1.5-1.5h11c.827 0 1.5.673 1.5 1.5zm6-16.5h1v1h-1zm2 4.5c0 .827-.673 1.5-1.5 1.5s-1.5-.673-1.5-1.5v-2.5h3zm-16.999 9h3.999v1h-3.999zm4.835-9.329c.229.428.21.938-.051 1.332l-2.348 4.239-.875-.484 2.368-4.273c.124-.231.074-.484-.191-.484h-3.474c-.419 0-.796-.185-1.034-.506-.229-.308-.295-.701-.181-1.078l2.51-4.654.879.477-2.44 4.505c-.081.148.027.258.183.257h3.557c.461 0 .871.251 1.097.671z"/></svg>