<svg id="Layer_1" viewBox="0 0 24 24" xmlns="http://www.w3.org/2000/svg" data-name="Layer 1"><path d="m24 15h-1v-1c0-5.506-4.07-10.067-9.358-10.864.224-.323.358-.714.358-1.136 0-1.103-.897-2-2-2s-2 .897-2 2c0 .422.133.813.358 1.136-5.288.797-9.358 5.358-9.358 10.864v1h-1v1h4.348c-1.082.755-1.892 1.885-2.21 3.254 0 .002-1.286 4.746-1.286 4.746h1.036l1.217-4.497c.468-2.062 2.272-3.503 4.388-3.503h6.008c.905 0 1.642.737 1.642 1.642 0 .812-.606 1.511-1.41 1.625l-5.161.737.142.99 5.161-.737c.526-.075.996-.288 1.373-.624l.01-.01 3.729-3.247c.305-.266.694-.397 1.097-.368.403.028.771.211 1.035.516.541.622.479 1.573-.137 2.12l.002.002s-.007.003-.01.006l-5.759 5.347h1.47s4.972-4.615 4.974-4.62c.971-.875 1.091-2.352.308-3.38h2.035v-1zm-13-13c0-.551.449-1 1-1s1 .449 1 1-.449 1-1 1-1-.449-1-1zm-9 13v-1c0-5.514 4.486-10 10-10s10 4.486 10 10v1zm14.131 2.537c-.023-.582-.236-1.111-.578-1.537h2.343z"/></svg>