<?xml version="1.0" encoding="UTF-8"?>
<svg xmlns="http://www.w3.org/2000/svg" id="Layer_1" data-name="Layer 1" viewBox="0 0 24 24">
  <path d="M2.522,6.537L.091,4.105l.707-.707,2.432,2.431c.219,.22,.602,.22,.822,0L9.859,.021l.707,.707L4.759,6.537c-.589,.614-1.649,.614-2.236,0Zm14.186-.707l-1.259-1.259-.707,.707,1.259,1.259c.589,.614,1.649,.614,2.236,0L24.046,.729,23.339,.021l-5.809,5.808c-.219,.22-.602,.22-.822,0Zm-6.711,0l-1.26-1.259-.707,.707,1.26,1.259c.588,.614,1.648,.614,2.236,0L17.334,.729,16.627,.021l-5.808,5.808c-.221,.221-.604,.22-.822,0Zm9.003,7.469l5.001,5.201-5.288,5.5H2.5c-1.379,0-2.5-1.122-2.5-2.5v-6c0-1.378,1.121-2.5,2.5-2.5h1.5v-4h1v4h6v-4h1v4h6v-4h1v4.299Zm-13.123,.701l4.327,4.5-4.327,4.5h5.39l4.327-4.5-4.327-4.5H5.877Zm-3.377,9h1.989l4.327-4.5-4.327-4.5h-1.989c-.827,0-1.5,.673-1.5,1.5v6c0,.827,.673,1.5,1.5,1.5Zm20.114-4.5l-4.327-4.5h-5.633l4.327,4.5-4.327,4.5h5.633l4.327-4.5Z"/>
</svg>
