<?xml version="1.0" encoding="UTF-8"?>
<svg xmlns="http://www.w3.org/2000/svg" id="Layer_1" data-name="Layer 1" viewBox="0 0 24 24">
  <path d="M21,17c0-2.206-1.794-4-4-4-.628,0-1.216,.159-1.745,.418-.133-.306-.285-.601-.45-.888,.666-.329,1.404-.53,2.196-.53,2.757,0,5,2.243,5,5s-2.243,5-5,5c-.791,0-1.53-.202-2.196-.53,.165-.287,.317-.582,.45-.888,.53,.259,1.117,.418,1.745,.418,2.206,0,4-1.794,4-4Zm-1-6.325v-2.675h-6v2.675c-.139,.066-.264,.15-.397,.224,.231,.249,.447,.511,.648,.786,.146-.076,.287-.159,.441-.224l.308-.128v-2.333h4v2.333l.308,.128c2.243,.936,3.692,3.11,3.692,5.539,0,3.309-2.691,6-6,6-.994,0-1.929-.247-2.755-.676-.202,.274-.419,.537-.65,.786,1.009,.565,2.169,.89,3.405,.89,3.859,0,7-3.141,7-7,0-2.722-1.559-5.168-4-6.325Zm-6,6.325c0,3.859-3.14,7-7,7S0,20.859,0,17c0-2.722,1.559-5.168,4-6.325v-2.675h6v2.675c2.441,1.157,4,3.603,4,6.325Zm-1,0c0-2.429-1.449-4.603-3.692-5.539l-.308-.128v-2.333H5v2.333l-.308,.128c-2.243,.936-3.692,3.11-3.692,5.539,0,3.309,2.691,6,6,6s6-2.691,6-6Zm-1,0c0,2.757-2.243,5-5,5s-5-2.243-5-5,2.243-5,5-5,5,2.243,5,5Zm-1,0c0-2.206-1.794-4-4-4s-4,1.794-4,4,1.794,4,4,4,4-1.794,4-4ZM15.961,2.98l.81-.619c-.489-.642-1.092-1.17-1.791-1.57l-.509,.887c.581,.333,1.085,.773,1.489,1.302Zm1.039,3.02h1c0-.809-.162-1.58-.453-2.284l-.927,.382c.242,.587,.379,1.228,.379,1.903ZM12,1c.395,0,.774,.057,1.143,.143l.23-.979c-.442-.104-.9-.164-1.373-.164s-.932,.06-1.373,.164l.23,.979c.368-.086,.748-.143,1.143-.143Zm-2.472,.678l-.509-.887c-.698,.4-1.301,.929-1.791,1.57l.81,.619c.404-.529,.908-.969,1.489-1.302Zm-2.149,2.419l-.927-.382c-.29,.704-.453,1.475-.453,2.284h1c0-.674,.137-1.316,.379-1.903Z"/>
</svg>
