<?xml version="1.0" encoding="UTF-8"?>
<svg xmlns="http://www.w3.org/2000/svg" id="Layer_1" data-name="Layer 1" viewBox="0 0 24 24">
  <path d="M11.98,23.973l-.626-.313c-2.194-1.097-9.354-5.191-9.354-11.8V5.135c0-1.079,.687-2.032,1.708-2.372h0L12,.014l8.287,2.748c1.025,.34,1.713,1.293,1.713,2.373v6.726c0,7.499-7.172,10.967-9.37,11.852l-.65,.261ZM4.023,3.712c-.612,.203-1.023,.775-1.023,1.422v6.725c0,6.036,6.736,9.874,8.801,10.906l.224,.112,.232-.093c2.051-.825,8.743-4.053,8.743-10.924V5.134c0-.647-.413-1.22-1.028-1.424L12,1.067,4.023,3.712Z"/>
</svg>
