<svg id="Layer_1" viewBox="0 0 24 24" xmlns="http://www.w3.org/2000/svg" data-name="Layer 1"><path d="m10 21.162c.339-.183.674-.385 1-.62v3.458h-1zm5.677-21.162h-3.354c-2.062 0-3.947.758-5.402 2.004.525-.014 1.042.041 1.539.11 1.123-.701 2.445-1.114 3.863-1.114h3.354c.584 0 1.151.068 1.696.198-.351.789-1.286 2.699-2.873 4.625.192.288.364.592.522.906 1.876-2.194 2.955-4.42 3.311-5.232 2.729 1.066 4.667 3.724 4.667 6.825v2.667c-2.745-.112-5.259-1.153-7.499-3.092.167.5.293 1.024.375 1.569.285.208.574.402.867.585-.425.115-.743.487-.743.948 0 .552.448 1 1 1s1-.448 1-1c0-.104-.03-.198-.059-.292 1.876.932 3.936 1.35 6.059 1.292v-3.677c0-4.589-3.733-8.322-8.323-8.322zm-1.677 20c-.68 0-1.35-.104-2-.291-.286.266-.579.517-.883.743.925.343 1.893.548 2.883.548 1.03 0 2.04-.215 3-.582v3.582h1v-4.032c2.563-1.317 4.628-3.698 5.458-5.968h-1.08c-1.247 2.954-4.682 6-8.377 6zm-9.5-8c-.827 0-1.5-.673-1.5-1.5s.673-1.5 1.5-1.5 1.5.673 1.5 1.5-.673 1.5-1.5 1.5zm0-1c.275 0 .5-.225.5-.5s-.225-.5-.5-.5-.5.225-.5.5.225.5.5.5zm6.5-.5c0 .827-.673 1.5-1.5 1.5s-1.5-.673-1.5-1.5.673-1.5 1.5-1.5 1.5.673 1.5 1.5zm-1 0c0-.275-.225-.5-.5-.5s-.5.225-.5.5.225.5.5.5.5-.225.5-.5zm-6 2.5h6v.5c0 .983-1.287 2.499-2.997 2.499s-3.003-1.516-3.003-2.499zm4.794 1h-3.587c.31.458.948.999 1.796.999s1.482-.541 1.791-.999zm-1.794 6c-3.271 0-7-4.794-7-9 0-4.121 2.879-7 7-7s7 2.879 7 7c0 4.206-3.729 9-7 9zm6-9c0-3.589-2.411-6-6-6s-6 2.411-6 6c0 3.663 3.252 8 6 8s6-4.337 6-8z"/></svg>