<svg id="Layer_1" viewBox="0 0 24 24" xmlns="http://www.w3.org/2000/svg" data-name="Layer 1"><path d="m14.5 18h-.5l-.5-1h-3l-.5 1h-.5c-.826 0-1.499.673-1.499 1.5v4.5s7.999 0 7.999 0v-4.5c0-.827-.674-1.5-1.5-1.5zm-5.5 5v-3.5c0-.275.225-.5.5-.5h1.117l.5-1h1.766l.5 1h1.117c.275 0 .499.225.499.5v3.5s-5.999 0-5.999 0zm12-4.5v5.5h-1v-5.5c0-1.93-1.57-3.5-3.5-3.5h-9c-1.93 0-3.5 1.57-3.5 3.5v5.5h-1v-5.5c0-2.481 2.019-4.5 4.5-4.5h9c2.481 0 4.5 2.019 4.5 4.5zm-8 2.5c0 .552-.448 1-1 1s-1-.448-1-1 .448-1 1-1 1 .448 1 1zm-7-15c0 3.309 2.691 6 6 6s6-2.691 6-6c0-.333-.039-.667-.097-1h2.097v-1h-2.109l-.526-2.106c-.279-1.115-1.276-1.894-2.426-1.894h-5.877c-1.149 0-2.146.778-2.426 1.894l-.526 2.106h-2.109v1h2.097c-.058.333-.097.667-.097 1zm11 0c0 2.757-2.243 5-5 5s-5-2.243-5-5c0-.332.047-.666.116-1h9.767c.069.334.116.668.116 1zm-9.394-3.864c.167-.669.766-1.136 1.455-1.136h5.877c.689 0 1.288.467 1.455 1.136l.466 1.864h-9.718l.466-1.864z"/></svg>