<svg id="Layer_1" viewBox="0 0 24 24" xmlns="http://www.w3.org/2000/svg" data-name="Layer 1"><path d="m9 13c-.552 0-1-.448-1-1s.448-1 1-1 1 .448 1 1-.448 1-1 1zm6-2c-.552 0-1 .448-1 1s.448 1 1 1 1-.448 1-1-.448-1-1-1zm9 0c0 1.654-1.346 3-3 3h-.6c-.43 1.033-1.138 2.077-2.031 3h.13c1.379 0 2.5 1.122 2.5 2.5v4.5h-1v-4.5c0-.827-.673-1.5-1.5-1.5h-1.235c-1.507 1.188-3.349 2.001-5.265 2.001s-3.758-.813-5.265-2.001h-1.235c-.827 0-1.5.673-1.5 1.5v4.5h-1v-4.5c0-1.378 1.121-2.5 2.5-2.5h.13c-.893-.923-1.601-1.967-2.031-3h-.6c-1.654 0-3-1.346-3-3 0-1.524 1.143-2.787 2.617-2.976.718-4.604 4.678-8.024 9.385-8.024s8.674 3.426 9.385 8.036c1.5.208 2.615 1.458 2.615 2.964zm-1 0c0-1.103-.897-2-2-2l-.459.012c-.412-4.473-3.973-8.03-8.541-8.012-1.654 0-3 1.346-3 3s1.346 3 3 3 3-1.346 3-3h1c0 2.206-1.794 4-4 4s-4-1.794-4-4c0-.891.303-1.707.798-2.373-2.964 1.183-5.084 4.053-5.293 7.39-.016 0-.455-.012-.471-.011-1.143 0-2.034.895-2.034 1.994s.897 2 2 2h1.293c.928 2.913 4.135 5.976 7.707 6.001 3.572-.026 6.778-3.088 7.707-6.001h1.293c1.103 0 2-.897 2-2zm-11 6c1.352 0 2.509-.826 2.999-2h-5.998c.49 1.174 1.648 2 2.999 2z"/></svg>