<svg id="Layer_1" viewBox="0 0 24 24" xmlns="http://www.w3.org/2000/svg" data-name="Layer 1"><path d="m9.896 23h-8.896v-20.5c0-.827.673-1.5 1.5-1.5h9.5v7h7v1.15c.331-.054.665-.076 1-.074v-1.783l-7.293-7.293h-10.207c-1.378 0-2.5 1.122-2.5 2.5v21.5h10.608c-.268-.312-.511-.649-.712-1zm3.104-21.293 5.293 5.293h-5.293zm-9 9.293h11.567l-.999 1h-10.568zm6.609 5h-6.609v-1h7.567c-.162.166-.839.818-.958 1zm12.22 1.88-1.415 1.414c-.755.756-1.76 1.172-2.829 1.172s-2.072-.416-2.827-1.171c-.246-.246-.438-.521-.607-.807.1-.091.635-.668.754-.704.142.289.32.565.56.805 1.134 1.134 3.11 1.133 4.243 0l1.415-1.414c1.169-1.17 1.169-3.072 0-4.242-1.121-1.121-2.909-1.156-4.086-.127-.408-.11-.826-.175-1.245-.197l.382-.382c1.56-1.56 4.097-1.56 5.657 0s0 0 0 0c1.56 1.56 1.56 4.097 0 5.657zm-5.814 4.371c.408.11.826.175 1.245.197l-.382.382c-1.56 1.56-4.097 1.56-5.657 0-1.56-1.56-1.56-4.097 0-5.657l1.415-1.414c1.51-1.511 4.144-1.512 5.656 0 .246.246.438.521.607.808-.1.091-.635.668-.754.704-.142-.289-.32-.565-.56-.805-1.134-1.134-3.109-1.134-4.243 0l-1.415 1.414c-.566.566-.878 1.32-.878 2.121s.312 1.555.878 2.121c1.121 1.121 2.909 1.156 4.086.128z"/></svg>