<svg id="Layer_1" viewBox="0 0 24 24" xmlns="http://www.w3.org/2000/svg" data-name="Layer 1"><path d="m24 5.5v15.5h-24v-5.555c.31.181.646.322 1 .418v4.137h22v-14.5c0-.827-.673-1.5-1.5-1.5h-19c-.827 0-1.5.673-1.5 1.5v2.641c-.356.092-.69.233-1 .413v-3.055c0-1.378 1.122-2.5 2.5-2.5h19c1.378 0 2.5 1.122 2.5 2.5zm-22 8.5c-1.103 0-2-.897-2-2s.897-2 2-2 2 .897 2 2-.897 2-2 2zm0-1c.551 0 1-.449 1-1s-.449-1-1-1-1 .449-1 1 .449 1 1 1zm6.744-.345 1.018 3.345h-1.046l-.922-3.03c-.098.012-.194.03-.295.03h-1.5v3h-1v-8h2.5c1.378 0 2.5 1.122 2.5 2.5 0 .923-.509 1.722-1.256 2.155zm.256-2.155c0-.827-.673-1.5-1.5-1.5h-1.5v3h1.5c.827 0 1.5-.673 1.5-1.5zm6-1.5v-1h-4v8h4v-1h-3v-2.5h3v-1h-3v-2.5zm3.5 0c.827 0 1.5.673 1.5 1.5h1c0-1.378-1.122-2.5-2.5-2.5s-2.5 1.122-2.5 2.5v3c0 1.379 1.122 2.5 2.5 2.5s2.5-1.121 2.5-2.5h-1c0 .827-.673 1.5-1.5 1.5s-1.5-.673-1.5-1.5v-3c0-.827.673-1.5 1.5-1.5z"/></svg>