<?xml version="1.0" encoding="UTF-8"?>
<svg xmlns="http://www.w3.org/2000/svg" id="Layer_1" data-name="Layer 1" viewBox="0 0 24 24">
  <path d="M18,3.051V0h-1V3H6.995L6.961-.005l-1,.011,.034,3.046c-1.137,.234-1.995,1.243-1.995,2.449v13c0,1.208,.86,2.217,2,2.449v3.051h1v-3h10v3h1v-3.051c1.14-.232,2-1.242,2-2.449V5.5c0-1.207-.86-2.217-2-2.449Zm1,15.449c0,.827-.673,1.5-1.5,1.5H6.5c-.827,0-1.5-.673-1.5-1.5V5.5c0-.827,.673-1.5,1.5-1.5h11c.827,0,1.5,.673,1.5,1.5v13Zm-5.25-9.5c-.784,0-1.382,.333-1.771,.769-.361-.435-.933-.769-1.729-.769-1.24,0-2.25,1.088-2.25,2.425,.124,2.473,3.381,4.52,4,4.978,.615-.454,3.879-2.509,4-4.978,0-1.337-1.01-2.425-2.25-2.425Zm-1.75,6.188c-1.04-.76-3-2.46-3-3.764,0-.786,.561-1.425,1.25-1.425,.992,0,1.207,.802,1.207,1h1c0-.221,.31-1,1.293-1,.689,0,1.25,.639,1.25,1.425,0,1.304-1.96,3.004-3,3.764Z"/>
</svg>
