<svg id="Layer_1" viewBox="0 0 24 24" xmlns="http://www.w3.org/2000/svg" data-name="Layer 1"><path d="m21.757 16h1.132c-.362.746-.804 1.45-1.333 2.089-.359.433-.556.988-.556 1.562v4.349h-13v-3h-2.358c-1.189 0-2.221-.846-2.452-2.012l-.793-3.988h-2.397l.043-1.703c1.239-2.763 2.795-7.139 4.25-8.911 2.072-2.767 5.249-4.371 8.705-4.386v.008c.015-.001.028-.008.042-.008.647 0 1.3.072 1.949.184l-.847.88c-.391-.041-.778-.063-1.141-.064-3.139.014-6.026 1.472-7.92 4-1.381 1.711-2.901 5.969-4.082 8.605v.395h2.218l.953 4.792c.139.7.758 1.208 1.472 1.208h3.358v3h11v-3.349c0-.807.279-1.588.786-2.2.373-.45.69-.94.971-1.451zm.889-8.354-2.146 2.146-2.146-2.146-.707.707 2.146 2.146-2.146 2.146.707.707 2.146-2.146 2.146 2.146.707-.707-2.146-2.146 2.146-2.146zm-9.146 3.353c-.552 0-1 .448-1 1s.448 1 1 1 1-.448 1-1-.448-1-1-1zm-2.5-4.5h1c0-.827.673-1.5 1.5-1.5s1.5.673 1.5 1.5c0 .541-.292 1.042-.764 1.307-.763.431-1.236 1.271-1.236 2.193h1c0-.562.279-1.068.728-1.322.785-.442 1.272-1.277 1.272-2.178 0-1.378-1.122-2.5-2.5-2.5s-2.5 1.122-2.5 2.5zm8.85-1.863 3.847-3.904-.698-.714-4.015 4.103-2.51-2.595-.693.721 2.344 2.389c.474.483 1.251.483 1.725.002z"/></svg>