<?xml version="1.0" encoding="UTF-8"?>
<svg xmlns="http://www.w3.org/2000/svg" id="Layer_1" data-name="Layer 1" viewBox="0 0 24 24">
  <path d="M8,9h8v2h1V5h-1v-1.5c0-.827-.673-1.5-1.5-1.5h-5c-.827,0-1.5,.673-1.5,1.5v1.5h-1v6h1v-2Zm7-1v-1.5c0-.275,.225-.5,.5-.5h.5v2h-1ZM9.5,3h5c.275,0,.5,.225,.5,.5v1.592c-.581,.207-1,.757-1,1.408v1.5h-4v-1.5c0-.651-.419-1.201-1-1.408v-1.592c0-.275,.224-.5,.5-.5Zm-1,3c.276,0,.5,.225,.5,.5v1.5h-1v-2h.5Zm-6-1c1.378,0,2.5-1.121,2.5-2.5S3.878,0,2.5,0,0,1.121,0,2.5s1.122,2.5,2.5,2.5ZM2.5,1c.827,0,1.5,.673,1.5,1.5s-.673,1.5-1.5,1.5-1.5-.673-1.5-1.5,.673-1.5,1.5-1.5ZM6.822,12h3.178v1h-3.823L3.802,7.751c-.247-.45-.752-.751-1.302-.751-.827,0-1.5,.673-1.5,1.5v7.5h3v-3c.135,.3,1,2.224,1,2.224v1.776H3v7h-1v-7H0V8.5c0-1.379,1.122-2.5,2.5-2.5,.916,0,1.757,.5,2.197,1.306l2.125,4.694Zm14.678-7c1.379,0,2.5-1.121,2.5-2.5s-1.121-2.5-2.5-2.5-2.5,1.121-2.5,2.5,1.121,2.5,2.5,2.5Zm0-4c.827,0,1.5,.673,1.5,1.5s-.673,1.5-1.5,1.5-1.5-.673-1.5-1.5,.673-1.5,1.5-1.5Zm2.5,7.5v8.5h-2v7h-1v-7h-2v-1.776s.865-1.924,1-2.224v3h3v-7.5c0-.827-.673-1.5-1.5-1.5-.55,0-1.056,.301-1.318,.784l-2.359,5.216h-3.822v-1h3.178l2.109-4.661c.455-.839,1.297-1.339,2.213-1.339,1.379,0,2.5,1.121,2.5,2.5Z"/>
</svg>
