<svg id="Layer_1" viewBox="0 0 24 24" xmlns="http://www.w3.org/2000/svg" data-name="Layer 1"><path d="m7 5h2v2h-2zm6 5h-10v-5.652c0-.619.28-1.193.768-1.575l3-2.348c.699-.549 1.765-.549 2.465 0l3 2.348c.488.381.768.956.768 1.575v5.652zm-1-5.652c0-.31-.14-.597-.384-.787l-3-2.348c-.355-.278-.877-.278-1.232 0l-3 2.348c-.244.191-.384.478-.384.788v4.652h8zm11.362 8.835-9.638 10.817h-11.224c-1.378 0-2.5-1.121-2.5-2.5v-7c0-1.379 1.122-2.5 2.5-2.5h10.857c1.208 0 2.229.814 2.543 1.923l3.732-4.102c.888-1.019 2.566-1.09 3.548-.166 1.013.923 1.094 2.506.182 3.528zm-.855-2.789c-.588-.561-1.6-.512-2.134.1l-4.496 4.941c-.301.945-1.124 1.678-2.146 1.823l-5.667.738-.129-.992 5.661-.737c.798-.113 1.403-.812 1.403-1.624 0-.905-.737-1.643-1.643-1.643h-10.856c-.827 0-1.5.673-1.5 1.5v7c0 .827.673 1.5 1.5 1.5h10.775l9.341-10.483c.549-.615.5-1.567-.109-2.123z"/></svg>