<?xml version="1.0" encoding="UTF-8"?>
<svg xmlns="http://www.w3.org/2000/svg" id="Layer_1" data-name="Layer 1" viewBox="0 0 24 24">
  <path d="M24,4h-1V2h-2V1h-1v1H2v.5c0,.827-.673,1.5-1.5,1.5H0v5H.5c1.763,.017,2.908,.767,2.411,2.493L.022,20.853l-.022,1.147H6.57l2.446-8h3.452c1.558,0,2.905-1.002,3.353-2.495l.752-2.505h4.737l1-2h1.691v-3ZM5.83,21H1.023L3.87,11.778c.371-1.457,.031-2.155-.506-2.778h6.136l-3.669,12ZM14.862,11.218c-.319,1.066-1.282,1.782-2.395,1.782h-3.146l.612-2h1.822c.667,0,1.245-.43,1.437-1.069l.279-.931h2.056l-.666,2.218Zm-4.623-1.218l.306-1h1.883l-.193,.644c-.064,.213-.256,.356-.479,.356h-1.517Zm10.452-2H1v-3.05c.978-.199,1.75-.972,1.95-1.95H22v2H4v1H21.691l-1,2Z"/>
</svg>
