<svg id="Layer_1" viewBox="0 0 24 24" xmlns="http://www.w3.org/2000/svg" data-name="Layer 1"><path d="m19 22h2v2h-2zm3-1h2v-2h-2zm-3 0h2v-2h-2zm-6-8h5v5h-5zm1 4h3v-3h-3zm-1 2h5v5h-5zm1 4h3v-3h-3zm10-10v5h-5v-5zm-1 1h-3v3h3zm-8 2h1v-1h-1zm7-1h-1v1h1zm-7 7h1v-1h-1zm.5-22h-4v.5c0 1.378-1.121 2.5-2.5 2.5s-2.5-1.122-2.5-2.5v-.5h-4c-1.379 0-2.5 1.122-2.5 2.5v19c0 1.378 1.121 2.5 2.5 2.5h8.5v-1h-8.5c-.827 0-1.5-.673-1.5-1.5v-1.5h2v-1h-2v-16.5c0-.827.673-1.5 1.5-1.5h3.035c.244 1.694 1.705 3 3.465 3s3.221-1.306 3.465-3h3.035c.827 0 1.5.673 1.5 1.5v8.5h1v-8.5c0-1.378-1.121-2.5-2.5-2.5zm-10.5 20h2v-1h-2zm4 0h2v-1h-2z"/></svg>