<?xml version="1.0" encoding="UTF-8"?>
<svg xmlns="http://www.w3.org/2000/svg" id="Layer_1" data-name="Layer 1" viewBox="0 0 24 24">
  <path d="M13.557,11.275c.578-.898,.591-2.437,.024-3.856l-.158-.395-4.546,1.01,.286,.573c.539,1.079,1.116,2.141,1.809,2.781-3.014,1.416-5.972,6.476-5.972,9.276,0,.899,.271,1.625,.805,2.158,1.195,1.192,3.479,1.185,5.692,1.178,.468-.002,1.037,0,1.504,0,2.049,0,4.087-.077,5.193-1.179,.534-.533,.805-1.259,.805-2.158,0-2.41-2.759-8.09-5.443-9.39Zm-3.209-2.543l2.445-.543c.339,1.104,.229,2.103-.087,2.57-.164,.242-.318,.242-.368,.242-.707,0-1.48-1.295-1.989-2.269Zm7.141,13.383c-.901,.899-2.974,.893-4.983,.887-.251,0-.759,0-1.011,0-2.007,.005-4.082,.013-4.983-.887-.344-.343-.511-.817-.511-1.45,0-2.719,3.709-8.665,6.5-8.665,1.991,0,5.5,5.98,5.5,8.665,0,.633-.167,1.107-.511,1.45ZM6.146,3.354c-.729-.729-1.146-1.737-1.146-2.768V0h1V.586c0,.767,.311,1.518,.854,2.061,.729,.729,1.146,1.737,1.146,2.768v.586h-1v-.586c0-.767-.311-1.518-.854-2.061Zm10,0c-.729-.729-1.146-1.737-1.146-2.768V0h1V.586c0,.767,.311,1.518,.854,2.061,.729,.729,1.146,1.737,1.146,2.768v.586h-1v-.586c0-.767-.311-1.518-.854-2.061Zm-5.003-.546c-.737-.751-1.144-1.748-1.144-2.807h1c0,.795,.304,1.543,.857,2.106,.716,.728,1.143,1.81,1.143,2.894h-1c0-.815-.328-1.655-.856-2.193Zm8.841,9.551c.668-.562,1.174-1.353,1.343-1.782l.19-.483-3.223-1.129-.536-.12-.13,.536c-.192,.79-.514,2.112,.076,3.336l.137,.283h.66c2.568,0,4.5,4.55,4.5,7.5,0,1.124-.524,1.786-1.7,2.147-.227,.07-.481,.116-.737,.161-.174,.4-.407,.763-.684,1.096,.609-.057,1.195-.142,1.714-.301,1.597-.49,2.407-1.534,2.407-3.103,0-2.848-1.553-6.921-4.016-8.142Zm-1.484-.358h-.009c-.203-.631-.124-1.315,0-1.907l1.654,.579c-.4,.603-1.115,1.328-1.644,1.328ZM2.7,22.647c-1.176-.361-1.7-1.023-1.7-2.147,0-2.95,1.932-7.5,4.5-7.5h.707l.146-.146c1.124-1.124,1.057-2.649,1.014-3.641l-.023-.552-3.928,.561,.092,.511c.165,.907,.503,1.704,1.029,2.416C1.774,13.012,0,17.457,0,20.5c0,1.569,.81,2.613,2.407,3.103,.52,.159,1.106,.244,1.714,.301-.276-.333-.51-.696-.684-1.096-.256-.045-.51-.092-.737-.161Zm3.687-12.839c.009,.696-.064,1.543-.607,2.192h-.068c-.53-.57-.894-1.209-1.103-1.939l1.777-.253Z"/>
</svg>
