<?xml version="1.0" encoding="UTF-8"?>
<svg xmlns="http://www.w3.org/2000/svg" id="Layer_1" data-name="Layer 1" viewBox="0 0 24 24">
  <path d="M1,2.493c0-.827,.673-1.5,1.5-1.5H12V7.993h7v3.007h1v-3.714L12.707-.007H2.5C1.121-.007,0,1.114,0,2.493V23.992l20,.008v-1l-19-.008V2.493Zm12-.793l5.293,5.293h-5.293V1.7Zm2,11.3v7h3v1h-4V13h1Zm-2.738,0l-2.206,4.008,2.206,3.992h-1.096l-1.654-3.005-1.654,3.005h-1.096l2.206-3.992-2.206-4.008h1.079l1.671,3.024,1.671-3.024h1.079Zm11.712,6.053c-.183,1.127-1.162,1.944-2.328,1.944-.878,0-1.947-.551-2.474-1.084l.711-.703c.414,.419,1.238,.787,1.763,.787,.673,0,1.237-.465,1.342-1.104,.037-.229,.076-1.007-.976-1.432-.111-.042-1.208-.458-1.7-.764-.671-.473-.977-1.162-.879-1.916,.104-.783,.627-1.421,1.365-1.665,.902-.298,1.822-.047,2.736,.746l-.654,.756c-.648-.562-1.211-.737-1.769-.553-.371,.123-.634,.447-.687,.846-.048,.368,.093,.696,.397,.927l.019,.01c.346,.216,1.225,.565,1.534,.682,1.395,.563,1.731,1.711,1.599,2.523Z"/>
</svg>
