<?xml version="1.0" encoding="UTF-8"?>
<svg xmlns="http://www.w3.org/2000/svg" id="Layer_1" data-name="Layer 1" viewBox="0 0 24 24">
  <path d="M11,5H2.5c-1.378,0-2.5,1.122-2.5,2.5v5c0,1.038,.637,1.929,1.539,2.307l3.635,8.193h1.998c1.642,.051,2.864-1.804,2.172-3.29l-1.963-4.71h3.619c3.738,0,5,1.009,5,4h1V1h-1c0,2.991-1.262,4-5,4ZM1,12.5V7.5c0-.827,.673-1.5,1.5-1.5h3.5V14H2.5c-.827,0-1.5-.673-1.5-1.5Zm7.424,7.6c.404,.86-.302,1.932-1.251,1.9h-1.347l-3.106-7h3.579l2.126,5.1Zm7.576-4.569c-.923-1.068-2.528-1.531-5-1.531H7V6h4c2.472,0,4.077-.462,5-1.531V15.531Zm5.511,.48l-.707-.707c2.924-2.924,2.924-7.682,0-10.606l.707-.707c3.314,3.314,3.314,8.707,0,12.021Zm-.511-6.01c0,1.469-.572,2.851-1.611,3.889l-.707-.707c.851-.85,1.318-1.98,1.318-3.182s-.468-2.332-1.318-3.182l.707-.707c1.039,1.039,1.611,2.42,1.611,3.889Z"/>
</svg>
