<?xml version="1.0" encoding="UTF-8"?>
<svg xmlns="http://www.w3.org/2000/svg" id="Layer_1" data-name="Layer 1" viewBox="0 0 24 24">
  <path d="m21.896,2.104c-1.355-1.356-3.159-2.104-5.077-2.104s-3.722.747-5.078,2.104L2.104,11.741c-1.356,1.356-2.104,3.16-2.104,5.078s.747,3.722,2.104,5.077c1.355,1.356,3.159,2.104,5.077,2.104s3.722-.747,5.078-2.104l9.638-9.638c1.356-1.356,2.104-3.16,2.104-5.078s-.747-3.722-2.104-5.077Zm-.707,9.448l-9.638,9.638c-1.168,1.168-2.72,1.811-4.371,1.811s-3.203-.643-4.37-1.811c-1.168-1.167-1.811-2.719-1.811-4.37s.643-3.203,1.811-4.371L12.448,2.811c1.168-1.168,2.72-1.811,4.371-1.811s3.203.643,4.37,1.811c1.168,1.167,1.811,2.719,1.811,4.37s-.643,3.203-1.811,4.371Zm-2.043-3.405l.707.707-3,3-.707-.707,1.146-1.146-3.293-3.293-1.146,1.146-.707-.707,3-3,.707.707-1.146,1.146,3.293,3.293,1.146-1.146Zm-8,8l.707.707-3,3-.707-.707,1.146-1.146-3.293-3.293-1.146,1.146-.707-.707,3-3,.707.707-1.146,1.146,3.293,3.293,1.146-1.146Z"/>
</svg>
