<svg id="Layer_1" viewBox="0 0 24 24" xmlns="http://www.w3.org/2000/svg" data-name="Layer 1"><path d="m4 1h14v2h1v-3h-16v21.5c0 1.379 1.121 2.5 2.5 2.5h11c1.379 0 2.5-1.121 2.5-2.5v-4.5h-15zm14 17v3.5c0 .827-.673 1.5-1.5 1.5h-11c-.827 0-1.5-.673-1.5-1.5v-3.5zm-5 3h-4v-1h4zm10-14v-4h-1.011c-.235 1.21-1.104 2.016-2.489 2h-3.5c-1.103 0-2 .897-2 2v2c0 .729.398 1.362.982 1.712l1.636 4.288h.906c1.119.035 1.952-1.232 1.473-2.246l-.677-1.754h1.181c1.385-.016 2.254.79 2.489 2h1.01v-4c.551 0 1-.449 1-1s-.449-1-1-1zm-4.932 6.125c.203.387-.108.888-.544.875h-.217l-1.146-3h1.086l.82 2.125zm3.932-2.203c-.614-.593-1.479-.922-2.499-.922h-3.5c-.552 0-1-.449-1-1v-2c0-.551.447-1 .999-1h3.5c1.021 0 1.886-.33 2.5-.923v5.846z"/></svg>