<svg id="Layer_1" viewBox="0 0 24 24" xmlns="http://www.w3.org/2000/svg" data-name="Layer 1"><path d="m23.99 7.081-.707-.707-5.594 5.594-5.657-5.657 5.594-5.594-.707-.707-5.594 5.594-4.243-4.242-.707.707 1.981 1.981-6.405 6.404c-1.294 1.293-1.987 3.013-1.95 4.843.035 1.729.727 3.353 1.949 4.574l.735.735-2.642 2.644.707.707 2.643-2.644.735.735c1.222 1.223 2.846 1.915 4.574 1.949 1.822.037 3.551-.654 4.844-1.949l6.405-6.404 1.981 1.981.707-.707-4.242-4.242 5.594-5.595zm-11.151 14.26c-1.1 1.1-2.56 1.698-4.117 1.656-1.468-.029-2.848-.617-3.887-1.656l-2.177-2.177c-1.039-1.038-1.627-2.419-1.656-3.887-.032-1.556.557-3.018 1.656-4.117l6.405-6.404 10.181 10.18-6.405 6.404zm-4.708-7.845c-.086.013-.145.162-.065.265l2.167 2.168c.304.304.416.748.292 1.16s-.463.721-.884.807l-4.298.523-.121-.992 4.207-.511c.167-.028.188-.175.097-.28l-2.167-2.168c-.266-.266-.388-.632-.333-1.005.061-.412.341-.791.747-.916l4.819-.962.196.98s-4.571.917-4.657.93z"/></svg>