<?xml version="1.0" encoding="UTF-8"?>
<svg xmlns="http://www.w3.org/2000/svg" id="Layer_1" data-name="Layer 1" viewBox="0 0 24 24">
  <path d="M13.479,2.548c.01-1.479-.709-2.504-1.788-2.548-1.046-.007-1.704,.937-1.679,2.301,.03,1.303,.703,2.648,1.963,2.699,.978-.027,1.496-1.254,1.504-2.452Zm-1.497,1.452c-.574-.023-.95-.912-.97-1.722-.014-.588,.168-1.237,.599-1.275l.054-.003c.649,.04,.818,.985,.814,1.542-.006,.896-.348,1.453-.497,1.458Zm5.518-1.681c-.004-1.023,.489-1.661,1.099-1.678,.611-.017,1.108,.594,1.112,1.617s-.488,1.866-1.099,1.883c-.611,.017-1.109-.798-1.113-1.821Zm-3-.641C14.496,.656,14.989,.017,15.599,0c.611-.017,1.108,.594,1.112,1.617,.004,1.023-.488,1.866-1.099,1.883-.611,.017-1.109-.798-1.113-1.821Zm6,2.26c-.003-.877,.421-1.424,.946-1.438,.526-.015,.954,.509,.958,1.386,.004,.877-.42,1.599-.946,1.614-.526,.015-.955-.684-.958-1.561Zm3.5,1.985c.002,.584-.279,1.066-.628,1.076s-.634-.456-.636-1.041,.279-.949,.628-.959,.633,.339,.636,.924Zm-1,3.474c0,1.499-.465,2.827-.956,4.232-.514,1.467-1.044,2.983-1.044,4.782v2.229c0,1.852-1.57,3.358-3.5,3.358-1.362,0-2.562-.832-3.136-2h1.179c.466,.596,1.18,1,1.957,1,1.379,0,2.5-1.058,2.5-2.358v-2.229c0-1.969,.559-3.566,1.1-5.112,.463-1.323,.9-2.573,.9-3.902,0-2.017-1.23-2.398-3.5-2.398-.748,0-1.428-.284-2.085-.559-.545-.227-1.059-.441-1.513-.441-.878,0-1.902,.452-1.902,1.728,0,.854,.681,1.585,1.47,2.43,.672,.72,1.4,1.513,1.774,2.501-.413-.275-.893-.478-1.445-.578-.305-.424-.676-.828-1.061-1.241-.854-.916-1.738-1.863-1.738-3.112,0-1.874,1.505-2.728,2.902-2.728,.654,0,1.286,.264,1.897,.519,.593,.248,1.152,.481,1.7,.481,1.461,0,4.5,0,4.5,3.398Zm-14.5-.398c-1.379,0-2.5,1.121-2.5,2.5v3c0,1.379,1.121,2.5,2.5,2.5s2.5-1.121,2.5-2.5v-3c0-1.379-1.121-2.5-2.5-2.5Zm1.5,5.5c0,.827-.673,1.5-1.5,1.5s-1.5-.673-1.5-1.5v-3c0-.827,.673-1.5,1.5-1.5s1.5,.673,1.5,1.5v3ZM1,11.5v3c0,.827,.673,1.5,1.5,1.5s1.5-.673,1.5-1.5h1c0,1.379-1.121,2.5-2.5,2.5s-2.5-1.121-2.5-2.5v-3c0-1.379,1.121-2.5,2.5-2.5s2.5,1.121,2.5,2.5h-1c0-.827-.673-1.5-1.5-1.5s-1.5,.673-1.5,1.5Zm15,8.5h-4v-.5c0-.841,.705-1.291,1.452-1.769,.761-.486,1.548-.989,1.548-1.731-.004-.231-.087-1-1-1s-.996,.769-1,1.004l-1-.004c0-.804,.532-2,2-2s2,1.196,2,2c0,1.29-1.114,2.002-2.01,2.574-.192,.123-.433,.276-.629,.426h2.639v1Z"/>
</svg>
