<?xml version="1.0" encoding="UTF-8"?>
<svg xmlns="http://www.w3.org/2000/svg" id="Layer_1" data-name="Layer 1" viewBox="0 0 24 24">
  <path d="M16.129,4h6.493l-2.061-2.061,.707-.707,2.405,2.405c.476,.476,.476,1.25,0,1.727l-2.405,2.405-.707-.707,2.061-2.061h-6.041c-.152-.364-.304-.696-.452-1Zm5.139,12.232l-.707,.707,2.061,2.061h-6.041c-.152,.364-.304,.696-.452,1h6.493l-2.061,2.061,.707,.707,2.405-2.405c.476-.476,.476-1.25,0-1.727l-2.405-2.405ZM13.359,3.191c.108,.149,2.641,3.697,2.641,8.809-.078,5.409-2.483,8.555-2.801,9.03C4.551,20.582,.268,12.738,.031,12c.232-.735,4.523-8.584,13.167-9.03l.161,.221Zm.458,14.596c-2.744-.523-4.818-2.934-4.818-5.787s2.074-5.264,4.818-5.787c-.443-1.073-.892-1.854-1.118-2.21C5.679,4.558,1.866,10.738,1.158,12c.709,1.261,4.534,7.442,11.541,7.997,.226-.355,.676-1.137,1.118-2.21Zm1.066-7.526c-.976-.064-1.884,.729-1.884,1.739s.908,1.808,1.884,1.739c.068-.558,.116-1.133,.116-1.739s-.048-1.181-.116-1.739Zm-.153-1.009c-.147-.766-.344-1.459-.559-2.09-2.364,.365-4.172,2.41-4.172,4.838s1.808,4.474,4.172,4.838c.215-.631,.412-1.324,.559-2.09-1.508-.01-2.731-1.238-2.731-2.748s1.223-2.738,2.731-2.748Zm6.536-.52l-.707,.707,2.061,2.061h-4.622v1h4.622l-2.061,2.061,.707,.707,2.405-2.405c.476-.476,.476-1.25,0-1.727l-2.405-2.405Z"/>
</svg>
