<?xml version="1.0" encoding="UTF-8"?>
<svg xmlns="http://www.w3.org/2000/svg" id="Layer_1" data-name="Layer 1" viewBox="0 0 24 24">
  <path d="M21,18.5v5.5h-1v-5.5c0-1.93-1.57-3.5-3.5-3.5H7.5c-1.93,0-3.5,1.57-3.5,3.5v5.5h-1v-5.5c0-2.481,2.019-4.5,4.5-4.5h9c2.481,0,4.5,2.019,4.5,4.5Zm-5.249,.801c-.125,2.346-3.155,4.25-3.749,4.696-.595-.439-3.677-2.353-3.799-4.696,0-1.269,.959-2.301,2.137-2.301,.617,0,1.238,.227,1.655,.669,.408-.442,1.016-.669,1.619-.669,1.178,0,2.137,1.032,2.137,2.301Zm-1,0c0-.717-.51-1.301-1.137-1.301-.514,0-1.114,.262-1.114,1.002h-1v-.002c0-.791-.759-1-1.16-1-.627,0-1.137,.583-1.137,1.301,0,1.189,1.845,2.784,2.795,3.481,.968-.715,2.753-2.283,2.753-3.481ZM6,6C6,2.691,8.691,0,12,0s6,2.691,6,6-2.691,6-6,6-6-2.691-6-6Zm1,0c0,2.757,2.243,5,5,5s5-2.243,5-5S14.757,1,12,1,7,3.243,7,6Z"/>
</svg>
