<svg id="Layer_1" viewBox="0 0 24 24" xmlns="http://www.w3.org/2000/svg" data-name="Layer 1"><path d="m4.058 16.941-.707.707 2.352 2.352h-3.203c-.827 0-1.5-.673-1.5-1.5v-4.5h-1v4.5c0 1.378 1.122 2.5 2.5 2.5h3.203l-2.352 2.293.707.707 2.506-2.447c.581-.581.581-1.525 0-2.105l-2.506-2.506zm18.942 1.559c0 .827-.673 1.5-1.5 1.5h-3.203l2.352-2.352-.707-.707-2.506 2.506c-.581.581-.581 1.525 0 2.105l2.506 2.447.707-.707-2.352-2.293h3.203c1.378 0 2.5-1.122 2.5-2.5v-4.5h-1v4.5zm-11-6.5c-1.103 0-2 .897-2 2s.897 2 2 2 2-.897 2-2-.897-2-2-2zm0 3c-.551 0-1-.449-1-1s.449-1 1-1 1 .449 1 1-.449 1-1 1zm4.406-.15c.064-.299.094-.576.094-.85s-.03-.551-.094-.85l1.527-.897-1.521-2.586-1.516.892c-.408-.34-.881-.606-1.396-.786v-1.771h-3v1.771c-.515.18-.988.446-1.396.786l-1.516-.892-1.521 2.586 1.527.897c-.064.299-.094.576-.094.85s.03.551.094.85l-1.527.897 1.521 2.586 1.516-.892c.408.34.881.606 1.396.786v1.771h3v-1.771c.515-.18.988-.446 1.396-.786l1.516.892 1.521-2.586zm-.349 2.115-1.306-.768c-.574.663-1.368 1.105-2.251 1.274v1.529h-1v-1.529c-.883-.169-1.677-.611-2.251-1.274l-1.306.768-.507-.862 1.32-.776c-.126-.418-.27-.949-.257-1.327-.013-.377.131-.91.257-1.327l-1.32-.776.507-.862 1.306.768c.574-.663 1.369-1.106 2.251-1.274v-1.529h1v1.529c.883.168 1.677.61 2.251 1.274l1.306-.768.507.862-1.32.776c.126.418.27.949.257 1.327.013.377-.131.91-.257 1.327l1.32.776zm-15.057-4.965h-1v-1.5c0-1.378 1.122-2.5 2.5-2.5h4.221c-.348.306-.67.639-.96 1h-3.26c-.827 0-1.5.673-1.5 1.5v1.5zm4-6c1.654 0 3-1.346 3-3s-1.346-3-3-3-3 1.346-3 3 1.346 3 3 3zm0-5c1.103 0 2 .897 2 2s-.897 2-2 2-2-.897-2-2 .897-2 2-2zm19 9.5v1.5h-1v-1.5c0-.827-.673-1.5-1.5-1.5h-3.26c-.29-.361-.613-.694-.96-1h4.221c1.378 0 2.5 1.122 2.5 2.5zm-5-4.5c1.654 0 3-1.346 3-3s-1.346-3-3-3-3 1.346-3 3 1.346 3 3 3zm0-5c1.103 0 2 .897 2 2s-.897 2-2 2-2-.897-2-2 .897-2 2-2z"/></svg>