<?xml version="1.0" encoding="UTF-8"?>
<svg xmlns="http://www.w3.org/2000/svg" id="Layer_1" data-name="Layer 1" viewBox="0 0 24 24">
  <path d="M21.5,4h-2.5v-1.5c0-1.378-1.121-2.5-2.5-2.5H2.5C1.121,0,0,1.122,0,2.5v15.855c-.041,1.276,1.522,2.113,2.562,1.371l3.438-2.292v3.566h11.349l4.089,2.726c1.04,.742,2.604-.095,2.563-1.371V6.5c0-1.378-1.121-2.5-2.5-2.5ZM2.008,18.894c-.408,.292-1.026-.036-1.008-.539V2.5c0-.827,.673-1.5,1.5-1.5h14c.827,0,1.5,.673,1.5,1.5v13.5H6.349l-4.341,2.894Zm20.992,3.461c.019,.503-.602,.831-1.008,.539l-4.341-2.894H7v-3h12V5h2.5c.827,0,1.5,.673,1.5,1.5v15.855ZM9,7.25c0-1.241-1.01-2.25-2.25-2.25h-2.25v7h1v-2.5h1.25c1.24,0,2.25-1.009,2.25-2.25Zm-3.5-1.25h1.25c.689,0,1.25,.561,1.25,1.25s-.561,1.25-1.25,1.25h-1.25v-2.5Zm6.5,0h-2v-1h5v1h-2v6h-1V6Z"/>
</svg>
