<svg id="Layer_1" viewBox="0 0 24 24" xmlns="http://www.w3.org/2000/svg" data-name="Layer 1"><path d="m6 13h-4.5c-.827 0-1.5-.673-1.5-1.5v-4.5h1v4.293l10.293-10.293h-4.293v-1h4.5c.827 0 1.5.673 1.5 1.5v4.5h-1v-4.293l-10.293 10.293h4.293zm9 2.658.002-5.051c0-1.273-.896-2.379-2.084-2.573-.73-.115-1.476.085-2.035.562-.56.476-.881 1.17-.881 1.905v9.609l-1.826-1.454v.002c-1.009-.912-2.569-.854-3.5.143-.941 1.007-.894 2.588.106 3.524l1.783 1.684h1.44l-2.535-2.407c-.599-.562-.629-1.514-.064-2.118.562-.603 1.509-.635 2.115-.072.01.01 3.48 2.773 3.48 2.773v-11.685c0-.441.193-.857.529-1.143.341-.29.777-.409 1.227-.336.709.115 1.245.797 1.245 1.586l-.002 5.735 9.002 3.5v4.205h1v-4.889z"/></svg>