<?xml version="1.0" encoding="UTF-8"?>
<svg xmlns="http://www.w3.org/2000/svg" id="Layer_1" data-name="Layer 1" viewBox="0 0 24 24">
  <path d="m12.5,15h-1v-6h1v6Zm-3.5-6h-1v.646c0,.617-.37,1.164-.943,1.393l-2.485.994c-.955.382-1.572,1.293-1.572,2.321v.646h1v-.646c0-.617.37-1.164.943-1.393l2.485-.994c.955-.382,1.572-1.293,1.572-2.321v-.646Zm11,5.354v.646h1v-.646c0-1.028-.616-1.939-1.571-2.321l-2.486-.994c-.572-.229-.942-.776-.942-1.393v-.646h-1v.646c0,1.028.616,1.939,1.571,2.321l2.486.994c.572.229.942.776.942,1.393ZM1.5,18c0-1.103.897-2,2-2s2,.897,2,2-.897,2-2,2-2-.897-2-2Zm1,0c0,.551.449,1,1,1s1-.449,1-1-.449-1-1-1-1,.449-1,1Zm9.5-2c1.103,0,2,.897,2,2s-.897,2-2,2-2-.897-2-2,.897-2,2-2Zm-1,2c0,.551.449,1,1,1s1-.449,1-1-.449-1-1-1-1,.449-1,1Zm9.5-2c1.103,0,2,.897,2,2s-.897,2-2,2-2-.897-2-2,.897-2,2-2Zm0,1c-.552,0-1,.449-1,1s.448,1,1,1,1-.449,1-1-.448-1-1-1Zm-15.5,4h-3c-1.103,0-2,.897-2,2v1h1v-1c0-.551.449-1,1-1h3c.551,0,1,.449,1,1v1h1v-1c0-1.103-.897-2-2-2Zm17,0h-3c-1.103,0-2,.897-2,2v1h1v-1c0-.551.448-1,1-1h3c.552,0,1,.449,1,1v1h1v-1c0-1.103-.897-2-2-2Zm-8.5,0h-3c-1.103,0-2,.897-2,2v1h1v-1c0-.551.449-1,1-1h3c.552,0,1,.449,1,1v1h1v-1c0-1.103-.897-2-2-2Zm-4.5-14c0-.551.449-1,1-1h4c.552,0,1,.449,1,1v1h1v-1c0-1.103-.897-2-2-2h-4c-1.103,0-2,.897-2,2v1h1v-1Zm1-5c0-1.103.897-2,2-2s2,.897,2,2-.897,2-2,2-2-.897-2-2Zm1,0c0,.551.449,1,1,1s1-.449,1-1-.449-1-1-1-1,.449-1,1Z"/>
</svg>
