<svg id="Layer_1" viewBox="0 0 24 24" xmlns="http://www.w3.org/2000/svg" data-name="Layer 1"><path d="m21.981 7.962-3.417-.604-1.922-1.923-.604-3.416 2.02-2.02h-1.415l-1.681 1.681.63 3.553-2.273 3.207 2.396 2.397 3.035-2.432 3.57.632 1.681-1.68v-1.414l-2.019 2.019zm-6.192 1.536-1.166-1.167 1.451-2.048 1.658 1.658-1.943 1.558zm-1.789 6.502h-1v7h-2v-7.002c1.32-1.049 2-2.779 2-4.498v-1.5h-1v.5c0 .827-.673 1.5-1.5 1.5h-6.5c-1.654 0-3 1.346-3 3v8h-1v1h24v-1h-10zm-10 7h-2v-6h2zm3 0h-2v-6h2zm3 0h-2v-6c.75 0 1.415-.15 2-.406zm-2-7h-6v-1c0-1.103.897-2 2-2h6.5c.516 0 .995-.157 1.394-.425-.369 1.833-1.691 3.425-3.894 3.425z"/></svg>