<?xml version="1.0" encoding="UTF-8"?>
<svg xmlns="http://www.w3.org/2000/svg" id="Layer_1" data-name="Layer 1" viewBox="0 0 24 24">
  <path d="M23.607,22.789l.37,.93c-.47,.187-.966,.281-1.477,.281-1.516,0-2.822-.857-3.5-2.104-.678,1.246-1.984,2.104-3.5,2.104s-2.822-.857-3.5-2.104c-.678,1.246-1.984,2.104-3.5,2.104s-2.822-.857-3.5-2.104c-.678,1.246-1.984,2.104-3.5,2.104-.511,0-1.007-.095-1.477-.281l.37-.93c.351,.14,.724,.211,1.107,.211,1.654,0,3-1.346,3-3h1c0,1.654,1.346,3,3,3s3-1.346,3-3h1c0,1.654,1.346,3,3,3s3-1.346,3-3h1c0,1.654,1.346,3,3,3,.383,0,.756-.071,1.107-.211Zm.393-20.116v15.327h-6.065l.041-.538c.012-.155,.024-.307,.024-.462,0-3.309-2.691-6-6-6s-6,2.691-6,6c0,.155,.012,.307,.024,.459l.041,.538-6.065,.003V2.673C.607,2.426,5.835,.054,12,0c6.17,.055,11.387,2.424,12,2.673Zm-1,.661c-.494-.2-1.576-.612-3-1.036V6.492c1.305,.451,2.349,.905,3,1.208V3.334Zm-4,2.831V2.016c-1.195-.319-2.562-.615-4-.805V5.239c1.435,.216,2.796,.554,4,.926ZM12,1c-.67,0-1.339,.037-2,.098V5.111c.659-.069,1.328-.111,2-.111s1.341,.042,2,.111V1.098c-.661-.061-1.33-.098-2-.098Zm-3,4.239V1.211c-1.438,.19-2.805,.486-4,.805V6.165c1.204-.372,2.565-.711,4-.926ZM1,3.334V7.7c.651-.303,1.695-.757,3-1.208V2.298c-1.425,.424-2.506,.836-3,1.036Zm22,13.666V8.809c-1.18-.574-6.092-2.809-11-2.809S2.18,8.235,1,8.809v8.191H5c0-3.859,3.14-7,7-7s7,3.141,7,7h4Z"/>
</svg>
