<svg id="Layer_1" viewBox="0 0 24 24" xmlns="http://www.w3.org/2000/svg" data-name="Layer 1"><path d="m12.007 14.038c-1.653 0-2.998 1.346-2.998 3 0 .883.39 1.67.999 2.22v4.701l1.998-1.59 1.998 1.59v-4.701c.609-.549.999-1.337.999-2.22 0-1.654-1.345-3-2.998-3zm.999 7.849-.999-.795-.999.795v-2.033c.314.112.647.184.999.184s.685-.072.999-.184zm-.999-2.849c-1.102 0-1.998-.897-1.998-2s.896-2 1.998-2 1.998.897 1.998 2-.896 2-1.998 2zm6.994-5.098v-5.877l4.998-2.525-9.971-5.039c-1.215-.612-2.846-.612-4.059 0l-9.969 5.039 5.013 2.533v5.869c-3.184-.444-3.971-.609-4.996-.789v7.774c.972-.166 3.494-.66 7.827-1.13-.197-.298-.355-.621-.486-.958-2.66.286-5.217.702-6.342.894v-5.387c1.125.192 3.682.608 6.342.894.131-.338.289-.661.486-.958-.618-.064-1.233-.135-1.832-.21v-5.494l3.959 2c.607.307 1.318.46 2.028.46s1.423-.154 2.03-.461l3.973-2.007v5.502c-.599.075-1.214.147-1.832.21.197.298.355.621.486.958 2.66-.286 5.218-.702 6.342-.894v5.387c-1.125-.192-3.682-.608-6.342-.894-.131.338-.288.661-.486.958 3.605.371 7.188 1.014 7.238 1.023l.588.106v-7.774c-1.02.179-1.817.346-4.996.789zm-5.423-4.258c-.929.47-2.227.471-3.157 0l-8.204-4.144 8.203-4.145c.945-.477 2.215-.476 3.159 0l8.204 4.146-8.204 4.145z"/></svg>