<?xml version="1.0" encoding="UTF-8"?>
<svg xmlns="http://www.w3.org/2000/svg" id="Layer_1" data-name="Layer 1" viewBox="0 0 24 24">
  <path d="M21,14v-1c0-1.654-1.346-3-3-3s-3,1.346-3,3v1h-3v7.5c0,1.378,1.122,2.5,2.5,2.5h7c1.378,0,2.5-1.122,2.5-2.5v-7.5h-3Zm-5-1c0-1.103,.897-2,2-2s2,.897,2,2v1h-4v-1Zm7,8.5c0,.827-.673,1.5-1.5,1.5h-7c-.827,0-1.5-.673-1.5-1.5v-6.5h2v2h1v-2h4v2h1v-2h2v6.5ZM9,12c3.309,0,6-2.691,6-6S12.309,0,9,0,3,2.691,3,6s2.691,6,6,6Zm0-11c2.757,0,5,2.243,5,5s-2.243,5-5,5-5-2.243-5-5S6.243,1,9,1ZM4.5,14h5.5v1H4.5c-1.93,0-3.5,1.57-3.5,3.5v5.5H0v-5.5c0-2.481,2.019-4.5,4.5-4.5Z"/>
</svg>
