<?xml version="1.0" encoding="UTF-8"?>
<svg xmlns="http://www.w3.org/2000/svg" id="Layer_1" data-name="Layer 1" viewBox="0 0 24 24">
  <path d="M20.504,10h-1.508V6H1.996v6.135c.349,.056,.683,.127,1,.217V7s15,0,15,0v10.5c0,1.379-1.122,2.5-2.5,2.5h-2.636c-.256,.385-.528,.711-.791,.971-.011,.011-.023,.018-.034,.029h3.462c1.93,0,3.5-1.57,3.5-3.5v-1.5h1.508c1.897,0,3.5-1.537,3.5-3.357,0-1.654-1.308-2.643-3.5-2.643Zm0,5h-1.508v-4h1.508c.934,0,2.5,.214,2.5,1.643,0,1.256-1.168,2.357-2.5,2.357ZM11.004,4h-1V0h1V4Zm4,0h-1V0h1V4Zm-8,0h-1V0h1V4ZM.004,23H21.496v1H.004v-1Zm6.231-1.999c.267-.004,.211-.005,.477,0,.685,0,2.61-.127,3.951-1.452,.976-.966,1.42-2.338,1.32-4.077l-.027-.479-.479,.008c-2.965,.046-4.326,1.806-4.952,3.318-.661-1.861-2.238-4.259-6.004-4.318l-.479-.008-.027,.479c-.119,2.058,.405,3.678,1.555,4.815,1.582,1.564,3.858,1.714,4.667,1.714Zm4.761-4.973c-.016,1.198-.362,2.14-1.032,2.805-.896,.891-2.188,1.105-2.905,1.154,.192-1.127,.954-3.661,3.937-3.959Zm-5.056,3.963c-.843-.042-2.522-.276-3.674-1.42-.844-.838-1.27-2.029-1.27-3.548,3.856,.321,4.743,3.65,4.944,4.968Z"/>
</svg>
