<svg id="Layer_1" viewBox="0 0 24 24" xmlns="http://www.w3.org/2000/svg" data-name="Layer 1"><path d="m22 13h-1v6h-5.707l-1 1h-4.586l-1-1h-5.707v-12h12v-1h-13v13h-2v2.5c0 1.378 1.121 2.5 2.5 2.5h19c1.379 0 2.5-1.122 2.5-2.5v-2.5h-2zm1 8.5c0 .827-.673 1.5-1.5 1.5h-19c-.827 0-1.5-.673-1.5-1.5v-1.5h7.293l1 1h5.414l1-1h7.293zm0-17.5v-.605c0-.769-.626-1.395-1.395-1.395h-2.211c-.769 0-1.395.626-1.395 1.395 0 .685.49 1.263 1.165 1.375l2.834.473c1.159.193 2.001 1.186 2.001 2.362 0 1.321-1.074 2.395-2.395 2.395h-.605v1h-1v-1h-.605c-1.32 0-2.395-1.074-2.395-2.395v-.605h1v.605c0 .769.626 1.395 1.395 1.395h2.211c.769 0 1.395-.626 1.395-1.395 0-.685-.49-1.263-1.165-1.375l-2.834-.473c-1.159-.193-2.001-1.186-2.001-2.362 0-1.321 1.074-2.395 2.395-2.395h.605v-1h1v1h.605c1.32 0 2.395 1.074 2.395 2.395v.605z"/></svg>