<svg id="Layer_1" viewBox="0 0 24 24" xmlns="http://www.w3.org/2000/svg" data-name="Layer 1"><path d="m19.949 16h1c-.245 1.692-1.691 3-3.449 3-.984 0-1.868-.411-2.5-1.07v1.07h-1v-2.143c0-.473.385-.857.857-.857h2.143v1h-1.489c.456.604 1.174 1 1.989 1 1.208 0 2.217-.86 2.449-2zm.051-2.93c-.632-.658-1.516-1.07-2.5-1.07-1.758 0-3.204 1.308-3.449 3h1c.232-1.14 1.242-2 2.449-2 .814 0 1.532.396 1.989 1h-1.489v1h2.143c.473 0 .857-.385.857-.857v-2.143h-1zm-8.169 9.549c.29.291.586.559.882.805-1.236.366-2.668.576-4.212.576-4.767 0-8.5-1.977-8.5-4.5v-15c-.001-2.523 3.732-4.5 8.499-4.5s8.5 1.977 8.5 4.5-3.733 4.5-8.5 4.5c-3.287 0-6.081-.94-7.5-2.351v2.851c0 1.897 3.435 3.5 7.5 3.5.168 0 .334-.007.5-.012v.999c-.166.005-.331.013-.5.013-3.287 0-6.081-.94-7.5-2.351v2.851c0 1.897 3.435 3.5 7.5 3.5.231 0 .459-.007.685-.017.073.34.161.671.272.988-.314.018-.632.029-.957.029-3.287 0-6.081-.94-7.5-2.351v2.851c0 1.897 3.435 3.5 7.5 3.5 1.189 0 2.32-.14 3.331-.381zm-10.831-18.119c0 1.897 3.435 3.5 7.5 3.5s7.5-1.603 7.5-3.5-3.435-3.5-7.5-3.5-7.5 1.603-7.5 3.5zm23 7.69v4.109c0 4.685-4.299 6.78-5.616 7.312l-.961.383-.921-.458c-1.291-.645-5.502-3.072-5.502-7.236v-4.109c0-1.217.777-2.292 1.933-2.677l4.567-1.514 4.565 1.514c1.157.383 1.935 1.459 1.935 2.677zm-1 0c0-.786-.502-1.48-1.249-1.728l-4.251-1.409-4.252 1.409c-.747.248-1.248.942-1.248 1.728v4.109c0 3.591 3.787 5.762 4.948 6.342l.52.259.544-.218c1.169-.471 4.988-2.325 4.988-6.383z"/></svg>