<svg id="Layer_1" viewBox="0 0 24 24" xmlns="http://www.w3.org/2000/svg" data-name="Layer 1"><path d="m7 18.5c0-1.379-1.122-2.5-2.5-2.5h-2.5v8h1v-3h1.5c.175 0 .345-.019.509-.053l.945 3.053h1.046l-1.069-3.456c.644-.453 1.069-1.198 1.069-2.044zm-2.5 1.5h-1.5v-3h1.5c.827 0 1.5.673 1.5 1.5s-.673 1.5-1.5 1.5zm-2.5-15h1.5c.175 0 .345-.019.509-.053l.945 3.053h1.046l-1.069-3.456c.644-.453 1.069-1.198 1.069-2.044 0-1.379-1.122-2.5-2.5-2.5h-2.5v8h1zm0-4h1.5c.827 0 1.5.673 1.5 1.5s-.673 1.5-1.5 1.5h-1.5zm13 22h2.5v1h-3.5v-8h1zm4.5 0h2.5v1h-3.5v-8h1zm-9-7c-1.378 0-2.5 1.121-2.5 2.5v3c0 1.379 1.122 2.5 2.5 2.5s2.5-1.121 2.5-2.5v-3c0-1.379-1.122-2.5-2.5-2.5zm1.5 5.5c0 .827-.673 1.5-1.5 1.5s-1.5-.673-1.5-1.5v-3c0-.827.673-1.5 1.5-1.5s1.5.673 1.5 1.5zm0-16v-3c0-1.379-1.122-2.5-2.5-2.5s-2.5 1.121-2.5 2.5v3c0 1.379 1.122 2.5 2.5 2.5s2.5-1.121 2.5-2.5zm-4 0v-3c0-.827.673-1.5 1.5-1.5s1.5.673 1.5 1.5v3c0 .827-.673 1.5-1.5 1.5s-1.5-.673-1.5-1.5zm6-3v3c0 .827.673 1.5 1.5 1.5s1.5-.673 1.5-1.5h1c0 1.379-1.122 2.5-2.5 2.5s-2.5-1.121-2.5-2.5v-3c0-1.379 1.122-2.5 2.5-2.5s2.5 1.121 2.5 2.5h-1c0-.827-.673-1.5-1.5-1.5s-1.5.673-1.5 1.5zm8.344 1.218 1.25 4.282h-1.048l-1.167-4h-1.379v4h-1v-8h1v3h1.54l1.011-3h1.047zm-8.844 5.782c0-.827-.673-1.5-1.5-1.5s-1.5.673-1.5 1.5c0 .439.142.803.33 1.091-1.054.294-1.83 1.263-1.83 2.409 0 1.379 1.122 2.5 2.5 2.5h3.5v-1h-3.5c-.827 0-1.5-.673-1.5-1.5s.673-1.5 1.5-1.5h.304l1.595 1.5h1.299l-1.937-1.941c.349-.317.739-.828.739-1.559zm-1.5-.5c.276 0 .5.225.5.5 0 .424-.288.731-.5.901-.213-.17-.5-.478-.5-.901 0-.275.224-.5.5-.5z"/></svg>