<svg id="Layer_1" viewBox="0 0 24 24" xmlns="http://www.w3.org/2000/svg" data-name="Layer 1"><path d="m16 12c2.205 0 4 1.795 4 4s-1.795 4-4 4-4-1.795-4-4 1.795-4 4-4zm-8.617-5.017 1.353-.749c-.146-.385-.236-.798-.236-1.234s.09-.849.236-1.234l-1.353-.749.484-.875 1.357.75c.543-.714 1.348-1.208 2.276-1.342v-1.55h1v1.551c.927.134 1.733.628 2.276 1.342l1.357-.75.484.875-1.353.749c.146.385.236.798.236 1.234s-.09.849-.236 1.234l1.353.749-.484.875-1.357-.75c-.543.714-1.348 1.208-2.276 1.342v1.551h-1v-1.551c-.927-.134-1.733-.628-2.276-1.342l-1.357.75-.484-.875zm2.117-1.983c0 1.378 1.122 2.5 2.5 2.5s2.5-1.122 2.5-2.5-1.122-2.5-2.5-2.5-2.5 1.122-2.5 2.5zm8.669 3.307c-.167.311-.362.604-.572.884 3.091.726 5.403 3.499 5.403 6.809 0 3.859-3.14 7-7 7h-8c-3.86 0-7-3.141-7-7 0-3.31 2.311-6.083 5.403-6.809-.21-.281-.405-.573-.572-.884-3.359.949-5.831 4.035-5.831 7.693 0 4.411 3.589 8 8 8h8c4.411 0 8-3.589 8-8 0-3.659-2.472-6.744-5.831-7.693z"/></svg>