<svg id="Layer_1" viewBox="0 0 24 24" xmlns="http://www.w3.org/2000/svg" data-name="Layer 1"><path d="m10 20h4v1h-4z"/><path d="m12 12.023c.336 0 .673-.088.973-.264l3.027-1.776v-4.943l-3.027-1.776c-.6-.353-1.346-.353-1.945 0l-3.027 1.776v4.943l3.027 1.776c.3.176.636.264.973.264zm-.467-7.897c.288-.169.646-.169.934 0l2.341 1.374-2.341 1.374c-.288.168-.645.169-.934 0l-2.341-1.374zm-2.533 2.42 2.027 1.19c.3.176.637.264.973.264s.673-.088.973-.264l2.027-1.19v2.865l-2.533 1.486c-.288.169-.646.169-.934 0l-2.533-1.486v-2.864z"/><path d="m20 5.239v-5.239h-16v5.242l-4.025 2.502v.629l4.025 2.487v10.64c0 1.378 1.122 2.5 2.5 2.5h11c1.378 0 2.5-1.122 2.5-2.5v-10.637l3.975-2.455v-.714zm-16 4.446-2.644-1.633 2.644-1.634zm15 11.815c0 .827-.673 1.5-1.5 1.5h-11c-.827 0-1.5-.673-1.5-1.5v-3.5h14zm0-4.5h-14v-5.522l7.002 4.326 6.998-4.323zm0-6.694-6.998 4.322-7.002-4.326v-9.302h14zm1-.618v-3.274l2.65 1.637z"/></svg>