<svg id="Layer_1" viewBox="0 0 24 24" xmlns="http://www.w3.org/2000/svg" data-name="Layer 1"><path d="m21.5 18.003-1.768 1.729c-.472.473-.732 1.1-.732 1.768s.26 1.295.732 1.768 1.1.732 1.768.732 1.295-.26 1.768-.732.732-1.1.732-1.768-.26-1.295-.736-1.771zm1.061 4.558c-.566.566-1.555.566-2.121 0-.585-.585-.585-1.536-.004-2.117l1.064-1.042 1.061 1.038c.585.585.585 1.536 0 2.121zm-.87-13.561-1 2h-4.137l2.661-3.625-6.601-6.593s-1.098.84-1.854 1.402c-.126-.14-.274-.279-.409-.414-2.36-2.358-6.199-2.357-8.558 0-1.203 1.202-1.847 2.865-1.766 4.538l-.006 3.905 9.872 9.859 4.458-6.072h6.34l1 2h2.309v-7zm-20.665-2.715c-.068-1.417.469-2.804 1.474-3.807.985-.983 2.278-1.476 3.572-1.476s2.587.492 3.572 1.476c.091.091.226.221.308.306-1.508 1.117-8.206 6.064-8.931 6.601l.005-3.101zm21.974 8.715h-.691l-1-2h-7.464l-4.07 5.542-8.276-8.266c.69-.514 9.854-7.28 11.03-8.166l5.372 5.365-3.321 4.524h6.73l1-2h.691v5z"/></svg>