<?xml version="1.0" encoding="UTF-8"?>
<svg xmlns="http://www.w3.org/2000/svg" id="Layer_1" data-name="Layer 1" viewBox="0 0 24 24">
  <path d="m6,11c0,8.566-4.998,9-6,9v-1c.835,0,5-.386,5-8,0-.363.03-.729.09-1.083l.986.166c-.051.3-.076.608-.076.917Zm6.085-7c-1.961,0-3.837.84-5.148,2.304l.744.668c1.122-1.253,2.728-1.972,4.404-1.972,2.739,0,5.042,1.874,5.712,4.405l1.202,2.06c0-.195,0-.38,0-.55,0-3.812-3.103-6.915-6.915-6.915ZM2,11C2,5.486,6.486,1,12,1c2.182,0,4.256.693,5.999,2.005l.602-.799c-1.918-1.443-4.2-2.206-6.601-2.206C5.935,0,1,4.935,1,11v3h1v-3Zm19.718,5.126l.804,1.379c.475-2.786.478-5.166.478-6.505,0-1.679-.37-3.292-1.101-4.793l-.898.438c.663,1.364.999,2.829.999,4.355,0,1.106-.001,2.943-.282,5.126Zm-9.718-7.126c1.103,0,2,.897,2,2h1c0-1.654-1.346-3-3-3s-3,1.346-3,3c0,2.788,0,7.978-3.987,10.371l.514.857c4.474-2.685,4.474-8.242,4.474-11.229,0-1.103.897-2,2-2Zm7.5,15h4.495l-6.995-11.992-6.995,11.992h4.495v-1h-2.755l5.255-9.008,5.255,9.008h-2.755v1Zm-2-7h-1v4h1v-4Zm-.5,5c-.552,0-1,.448-1,1s.448,1,1,1,1-.448,1-1-.448-1-1-1Z"/>
</svg>
