<?xml version="1.0" encoding="UTF-8"?>
<svg xmlns="http://www.w3.org/2000/svg" id="Layer_1" data-name="Layer 1" viewBox="0 0 24 24">
  <path d="m15.5,13c-1.93,0-3.5,1.57-3.5,3.5,0,.947.386,1.8,1,2.431v5.069l2.5-1.875,2.5,1.875v-5.069c.614-.631,1-1.484,1-2.431,0-1.93-1.57-3.5-3.5-3.5Zm1.5,9l-1.5-1.125-1.5,1.125v-2.351c.456.219.961.351,1.5.351s1.044-.133,1.5-.351v2.351Zm-1.5-3c-1.379,0-2.5-1.122-2.5-2.5s1.121-2.5,2.5-2.5,2.5,1.122,2.5,2.5-1.121,2.5-2.5,2.5Zm8.5-14.5v17.5h-4v-1h3V4.5c0-.827-.673-1.5-1.5-1.5H2.5c-.827,0-1.5.673-1.5,1.5v16.5h10v1H0V4.5c0-1.378,1.121-2.5,2.5-2.5h19c1.379,0,2.5,1.122,2.5,2.5Zm-19,1.5h14v1H5v-1Zm0,4h14v1H5v-1Zm0,4h5.605c-.162.317-.294.651-.393,1h-5.212v-1Z"/>
</svg>
