<?xml version="1.0" encoding="UTF-8"?>
<svg xmlns="http://www.w3.org/2000/svg" id="Layer_1" data-name="Layer 1" viewBox="0 0 24 24">
  <path d="m23.561.434c-.365-.363-.884-.515-1.432-.392l-3.601,1.182L6.128,13.623c-2.193-1.295-4.307-1.629-5.128-1.629v1c.962,0,3.912.521,6.452,2.841l-4.952,4.952-1.646-1.646-.707.707,4,4,.707-.707-1.646-1.646,4.952-4.952c2.32,2.54,2.841,5.489,2.841,6.452h1c0-.822-.334-2.935-1.629-5.128l12.315-12.315,1.279-3.734c.111-.502-.04-1.019-.404-1.383Zm-.56,1.119l-1.107,3.375-12.079,12.08c-.37-.521-.799-1.038-1.295-1.535-.496-.496-1.013-.924-1.534-1.294L19.066,2.099l3.326-1.093c.169-.035.338.012.461.135s.172.291.148.412Z"/>
</svg>
