<?xml version="1.0" encoding="UTF-8"?>
<svg xmlns="http://www.w3.org/2000/svg" id="Layer_1" data-name="Layer 1" viewBox="0 0 24 24">
  <path d="M24,8.5v11.231c0,.618-.229,1.214-.645,1.676l-2.307,2.593h-1.343l2.908-3.263c.25-.277,.387-.635,.387-1.006V8.5c0-.827-.673-1.5-1.5-1.5s-1.5,.673-1.5,1.5v8h-.007c0,.57-.19,1.14-.577,1.601l-3.099,3.205-.719-.695,3.075-3.179c.225-.268,.333-.612,.326-.957v-.01c-.01-.346-.136-.692-.382-.967-.267-.298-.634-.475-1.032-.496-.391-.009-.782,.113-1.08,.38l-4.021,3.7c-.308,.283-.484,.686-.484,1.104v3.814h-1v-3.814c0-.445,.132-.874,.353-1.253l-3.863-3.554c-.293-.263-.678-.385-1.075-.376-.398,.021-.766,.198-1.032,.496-.494,.551-.508,1.394-.032,1.96l3.052,3.152-.719,.695-3.075-3.179c-.399-.474-.594-1.053-.597-1.627h-.01V8.5c0-.827-.673-1.5-1.5-1.5s-1.5,.673-1.5,1.5v11.231c0,.371,.137,.729,.387,1.006l2.908,3.263h-1.343l-2.307-2.593c-.416-.462-.645-1.058-.645-1.676V8.5c0-1.378,1.121-2.5,2.5-2.5s2.5,1.122,2.5,2.5v5.997c.391-.294,.86-.466,1.359-.493,.674-.042,1.306,.188,1.803,.634l3.838,3.531,3.833-3.527c.502-.45,1.145-.679,1.808-.638,.5,.027,.969,.199,1.359,.493v-5.997c0-1.378,1.121-2.5,2.5-2.5s2.5,1.122,2.5,2.5ZM6.002,6.982c0-.334,.065-.664,.196-.982-.131-.319-.196-.648-.196-.982,0-1.052,.629-1.995,1.572-2.418,.032-1.439,1.214-2.599,2.66-2.599,.661,0,1.291,.248,1.775,.682,.483-.434,1.113-.682,1.775-.682,1.446,0,2.626,1.16,2.659,2.599,.943,.423,1.573,1.366,1.573,2.419,0,.333-.066,.663-.197,.982,.131,.319,.197,.648,.197,.982,0,.802-.365,1.556-1.002,2.068l-.017,.012c-.033,1.625-1.365,2.938-2.999,2.938-.752,0-1.454-.277-1.997-.774-.547,.497-1.251,.774-2.003,.774-1.639,0-2.975-1.32-3-2.952-.634-.513-.998-1.265-.998-2.066ZM12.502,1.626V10.288c.379,.448,.913,.712,1.498,.712,1.103,0,2-.897,2-2l-.034-.414,.427-.319c.396-.318,.625-.788,.625-1.286,0-.253-.064-.506-.191-.753l-.118-.229,.118-.229c.127-.247,.191-.5,.191-.753,0-.587-.322-1.109-.812-1.404-.388,.808-1.24,1.386-2.206,1.386v-1c.762,0,1.431-.626,1.431-1.339h.015c0-.916-.745-1.661-1.66-1.661-.502,0-.969,.237-1.283,.626ZM7.311,6l-.118,.229c-.126,.246-.19,.499-.19,.753,0,.299,.091,.583,.243,.835,.46-1.067,1.521-1.817,2.755-1.817v1c-1.037,0-1.882,.796-1.981,1.808v.01s-.011,.103-.011,.103c-.009,1.182,.889,2.079,1.991,2.079,.585,0,1.119-.262,1.502-.708V1.609c-.315-.378-.774-.609-1.268-.609-.916,0-1.661,.745-1.661,1.661,0,.051,.009,.099,.015,.148l.062,.437-.417,.177c-.725,.196-1.23,.852-1.23,1.595,0,.254,.064,.508,.19,.753l.118,.229Z"/>
</svg>
