<svg id="Layer_1" viewBox="0 0 24 24" xmlns="http://www.w3.org/2000/svg" data-name="Layer 1"><path d="m20 6c-1.507 0-4 4.207-4 9 0 4.763 2.237 9 4 9s4-4.237 4-9c0-4.793-2.493-9-4-9zm-3 9c0-3.506 1.368-6.236 2.295-7.395-.345 1.437-.962 4.433-.962 7.455 0 3.15.671 6.214 1.004 7.544-.996-1.02-2.337-3.916-2.337-7.604zm2.333.061c0-2.206.353-4.441.667-5.996.314 1.554.667 3.79.667 5.996s-.353 4.41-.667 5.936c-.314-1.526-.667-3.73-.667-5.936zm1.33 7.544c.333-1.33 1.004-4.394 1.004-7.544 0-3.022-.617-6.018-.962-7.455.927 1.159 2.295 3.889 2.295 7.395 0 3.688-1.341 6.585-2.337 7.604zm-17.127-11.813c1.967 0 4.494-.547 6.859-1.755 4.454-2.273 7.191-6.565 6.483-7.953-.549-1.078-3.029-1.08-3.792-1.08-1.255 0-3.761.29-6.452 1.663-4.425 2.259-7.312 6.329-6.484 7.954.386.756 1.673 1.171 3.386 1.171zm6.404-2.646c-3.377 1.723-6.648 1.881-8.119 1.471 1.491-.338 4.418-1.132 7.509-2.71 2.899-1.479 5.155-3.246 6.372-4.293-.687 1.433-2.558 3.896-5.762 5.532zm-7.424.267c1.254-1.029 3.244-2.504 5.672-3.743 2.427-1.239 4.788-1.985 6.358-2.397-1.254 1.029-3.243 2.504-5.671 3.743s-4.789 1.985-6.359 2.397zm4.573-5.855c2.329-1.188 4.603-1.551 6.271-1.551.628 0 1.162.053 1.59.131-1.562.371-4.317 1.162-7.216 2.642-3.091 1.577-5.452 3.481-6.6 4.49.531-1.432 2.578-3.989 5.956-5.712zm5.88 8.455c-1.954-.15-5.516.977-8.297 3.372-3.66 3.151-5.461 7.672-4.313 9.025.305.402 1.067.607 1.725.589 1.929 0 5.105-1.147 7.807-3.473 3.684-3.171 5.294-7.867 4.313-9.024-.236-.278-.652-.443-1.235-.489zm-7.645 4.13c2.588-2.227 5.43-3.006 6.98-3.117-1.398.718-3.77 2.082-6.124 4.109-2.519 2.169-4.299 4.477-5.167 5.709.204-1.489 1.556-4.331 4.31-6.701zm6.887-1.932c-.951 1.259-2.477 3.082-4.455 4.783-1.974 1.699-3.995 2.932-5.377 3.682.951-1.259 2.477-3.082 4.453-4.783 1.974-1.699 3.996-2.932 5.378-3.682zm-2.973 6.557c-2.526 2.175-5.517 3.254-7.199 3.219 1.352-.678 3.872-2.085 6.37-4.235 2.349-2.022 4.054-4.163 4.978-5.443-.354 1.531-1.567 4.237-4.149 6.459z"/></svg>