<?xml version="1.0" encoding="UTF-8"?>
<svg xmlns="http://www.w3.org/2000/svg" id="Layer_1" data-name="Layer 1" viewBox="0 0 24 24">
  <path d="M24,4.12s-.671-1.68-1-2.12c-.012,.004-.988-.004-1,0-.041,.337,.023,1.662,0,2-.044,.628-.381,.956-1,1,0,0-1.347,2.076-1.875,2.636-.172,.182-.554,.364-.825,.364-.172,0-.3-.074-.3-.268v-2.732s-2.529-.706-4-1c-2.5-.5-7.5-1-9-1H2v1H1S0,7.344,0,9.263v1.256c0,2.038,1,4.481,2,5.981,.362-.241,.829-.509,1.34-.509,.053,0,.107,.003,.16,.009,1.577,.179,3.492,1.104,4,2,.254,.448,.5,1,.5,1,0,0,1.756,.051,2,.538,.5,1,2,2.462,2,2.462,0,0,1.4-3.566,2-4h2s0-1,1-1c.617,0,2,0,2,1,0,.656,.613,1.587,1,2l1.23,.004c.185-.718,.019-1.295-.276-1.847-.335-.625-.658-1.234-.915-1.89-.084-.216-.095-.512-.039-.767,.022-.099,.054-.191,.095-.27,.351-.669,.977-1.402,1.355-2.059,.21-.365,.55-.67,.55-1.17,0-1,.009-1.925,0-2.5-.007-.463,2-4.5,2-4.5v-.88Zm-1,.645c-2.01,4.059-2.004,4.507-2,4.75,.006,.367,0,2.485,0,2.485,0,.053-1.569,2.343-1.79,2.765-.082,.156-.145,.331-.186,.519-.082,.37-.078,.759,.007,1.104-.454-.237-1.107-.388-2.031-.388-.841,0-1.432,.432-1.743,1h-1.581l-.263,.19c-.439,.318-1.024,1.319-1.744,2.983-.329-.39-.627-.787-.775-1.082-.327-.655-1.087-1.019-2.26-1.085-.08-.16-.171-.335-.265-.499-.734-1.294-3.041-2.306-4.757-2.5-.092-.01-.183-.015-.273-.015-.352,0-.676,.074-.97,.184-.722-1.329-1.37-3.136-1.37-4.656v-1.256c0-1.242,.478-3.213,.759-4.263h1.241v-1h2c1.398,0,6.372,.494,8.804,.981,.938,.188,2.346,.555,3.196,.783v1.968c0,.723,.559,1.268,1.3,1.268,.529,0,1.182-.285,1.552-.678,.452-.479,1.311-1.751,1.751-2.418,.763-.223,1.257-.808,1.375-1.644,.007,.018,.015,.036,.022,.054v.451Z"/>
</svg>
