<svg id="Layer_1" viewBox="0 0 24 24" xmlns="http://www.w3.org/2000/svg" data-name="Layer 1"><path d="m4 0v21.5c0 1.378 1.122 2.5 2.5 2.5h11c1.378 0 2.5-1.122 2.5-2.5v-21.5zm15 1v16h-14v-16zm-1.5 22h-11c-.827 0-1.5-.673-1.5-1.5v-3.5h14v3.5c0 .827-.673 1.5-1.5 1.5zm-7.5-3h4v1h-4zm3-5c0 .552-.448 1-1 1s-1-.448-1-1 .448-1 1-1 1 .448 1 1zm2.536-3.536-.707.707c-1.56-1.56-4.098-1.56-5.657 0l-.707-.707c1.949-1.949 5.122-1.949 7.071 0zm-1.415 1.415-.707.707c-.756-.756-2.072-.756-2.828 0l-.707-.707c1.133-1.134 3.109-1.134 4.242 0zm-6.364-2.122-.707-.707c1.322-1.322 3.08-2.05 4.95-2.05s3.627.728 4.95 2.05l-.707.707c-2.34-2.339-6.146-2.339-8.485 0zm1.243-3.175c-.345.139-.677.308-1 .496v-2.597c0-.516.233-.995.64-1.313l2.333-1.825c.582-.457 1.471-.457 2.054 0l2.333 1.825c.407.318.64.797.64 1.313v2.597c-.323-.187-.655-.356-1-.496v-2.101c0-.207-.093-.398-.256-.525l-2.333-1.826c-.237-.186-.584-.186-.821 0l-2.334 1.826c-.163.127-.256.318-.256.525zm2-2.582h2v2h-2z"/></svg>