<?xml version="1.0" encoding="UTF-8"?>
<svg xmlns="http://www.w3.org/2000/svg" id="Layer_1" data-name="Layer 1" viewBox="0 0 24 24">
  <path d="M24,13v1H0v-1H24ZM5.5,24h3v-1h-2v-2.5h2v-1h-2v-2.5h2v-1h-3v8Zm6.25-8c-1.24,0-2.25,1.01-2.25,2.25v3.5c0,1.24,1.01,2.25,2.25,2.25s2.25-1.01,2.25-2.25v-1.75h-2.5v1h1.5v.75c0,.689-.561,1.25-1.25,1.25s-1.25-.561-1.25-1.25v-3.5c0-.689,.561-1.25,1.25-1.25s1.25,.561,1.25,1.25v.25h1v-.25c0-1.24-1.01-2.25-2.25-2.25Zm11.25,5l-2.21-5h-.79v8h1v-5l2.21,5h.79v-8h-1v5ZM3.248,1.916l-.226-.399c.652-.357,3.629-2.794,8.014-.582,1.805,.938,2.534,3.373,1.464,5.111-.171,.291-.367,.526-.57,.737,.224,.426,.412,.856,.561,1.287,.351-.891,.885-1.602,1.627-2.126-.386-1.231,.197-2.668,1.34-3.28,3.342-1.64,5.893,.164,6.601,.471-1.375,2.44-2.785,4.65-5.205,4.863-.876,0-1.712-.423-2.261-1.151-1.079,.825-1.594,2.162-1.594,4.152h-1c0-1.107-.26-2.366-.866-3.584-1.935,.896-2.345,.703-3.809,.123-2.195-1.237-2.999-3.674-4.077-5.623ZM15.235,6.053c.498,.89,1.63,1.209,2.517,.711,1.254-.701,2.254-2.054,2.933-3.21-.542-.226-1.508-.551-2.582-.551-.701,0-1.449,.138-2.155,.534-.878,.467-1.215,1.658-.712,2.516ZM4.354,1.857c.13,.25,.261,.515,.396,.789,.742,1.503,1.583,3.208,3.056,4.016,.421,.23,.932,.34,1.406,.337,.045,0,.724-.024,1.422-.446-.836-1.275-2.093-2.449-3.894-3.279l.418-.908c1.934,.892,3.305,2.145,4.233,3.515,.556-.645,.744-1.55,.513-2.375-.199-.725-.678-1.327-1.348-1.694-2.708-1.487-5.258-.451-6.202,.045Zm14.954,22.142h0s-1.013,0-1.013,0l-.335-2h-2.309l-.33,2h-1.013s1.08-6.538,1.08-6.538c.109-.668,.563-1.462,1.414-1.462s1.311,.837,1.405,1.416l1.101,6.583Zm-1.515-2.999l-.572-3.419c-.033-.206-.206-.581-.419-.581-.246,0-.394,.419-.427,.623l-.558,3.377h1.976Zm-15.254,1.624c-.055,.376-.203,.376-.283,.376-.198,0-.257-.207-.275-.329l-.97-6.671H0s.991,6.815,.991,6.815c.085,.58,.499,1.185,1.265,1.185s1.174-.563,1.272-1.231l.972-6.769-1.011,.006-.951,6.618Z"/>
</svg>
