<?xml version="1.0" encoding="UTF-8"?>
<svg xmlns="http://www.w3.org/2000/svg" id="Layer_1" data-name="Layer 1" viewBox="0 0 24 24">
  <path d="M20.212,2.754L12,.031,3.788,2.754c-1.069,.354-1.788,1.348-1.788,2.473l-.002,6.601c0,6.638,7.159,10.733,9.354,11.83l.627,.313,.649-.261c2.198-.885,9.37-4.354,9.37-11.852l.002-6.631c0-1.125-.719-2.119-1.788-2.473Zm.788,2.473l-.002,5.773H12.5V1.25l7.397,2.453c.66,.218,1.103,.831,1.103,1.523ZM4.103,3.703L11.5,1.25V11H2.998l.002-5.773c0-.693,.443-1.305,1.103-1.523Zm-1.093,8.297H11.5v10.609c-2.313-1.203-8.368-4.902-8.491-10.609Zm9.491,10.679V12h8.489c-.091,6.531-6.226,9.725-8.489,10.679Z"/>
</svg>
