<?xml version="1.0" encoding="UTF-8"?>
<svg xmlns="http://www.w3.org/2000/svg" id="Layer_1" data-name="Layer 1" viewBox="0 0 24 24">
  <path d="M24,17v1.251l-2.601,3.901c-.143,.214-.308,.406-.484,.587,.054-.269,.084-.549,.084-.839,0-.171-.024-.471-.075-.84l2.04-3.061h-2.862c-.147-.346-.318-.682-.511-1h4.407ZM5,5.5c0-1.378,1.122-2.5,2.5-2.5s2.5,1.122,2.5,2.5-1.122,2.5-2.5,2.5-2.5-1.122-2.5-2.5Zm1,0c0,.827,.673,1.5,1.5,1.5s1.5-.673,1.5-1.5-.673-1.5-1.5-1.5-1.5,.673-1.5,1.5Zm3.01,11.5c.011-.636,.037-1.254,.081-1.838l-.875-1.4c-.11,.974-.189,2.07-.208,3.238h-3c.04-2.383,.348-4.449,.613-5.793,.138-.699,.757-1.207,1.472-1.207h1.13l2.5,4h3.277v-1h-2.723l-2.5-4h-1.685c-1.191,0-2.223,.847-2.453,2.014-.273,1.388-.592,3.523-.631,5.986H0v1.251l2.601,3.901c.771,1.157,2.062,1.848,3.453,1.848h6.545c-.19-.307-.336-.641-.435-1H6.053c-1.055,0-2.035-.524-2.621-1.402l-2.398-3.598H12.896c.147-.346,.318-.682,.511-1h-4.397Zm7.99-10.133v10.267c1.332,.681,2,3.931,2,4.767,0,1.275-.981,2.1-2.5,2.1s-2.5-.824-2.5-2.1c0-.836,.668-4.086,2-4.767V6.867c-1.332-.681-2-3.93-2-4.766,0-1.276,.981-2.1,2.5-2.1s2.5,.824,2.5,2.1c0,.836-.668,4.085-2,4.766Zm-.5-.867c.519,0,1.5-2.551,1.5-3.9,0-.957-.939-1.1-1.5-1.1s-1.5,.143-1.5,1.1c0,1.349,.981,3.9,1.5,3.9Zm0,12c-.519,0-1.5,2.552-1.5,3.9,0,.957,.939,1.1,1.5,1.1s1.5-.143,1.5-1.1c0-1.349-.981-3.9-1.5-3.9Z"/>
</svg>
