<svg id="Layer_1" viewBox="0 0 24 24" xmlns="http://www.w3.org/2000/svg" data-name="Layer 1"><path d="m16.146 7h1.854v1h-3v-.5c0-1 .666-1.499 1.2-1.9.511-.383.8-.624.8-1.1 0-.276-.224-.5-.5-.5s-.5.224-.5.5h-1c0-.827.673-1.5 1.5-1.5s1.5.673 1.5 1.5c0 1-.666 1.499-1.2 1.9-.298.224-.521.398-.654.6zm1.382 6.837 5.679 5.679-2.879 2.879c-1.033 1.035-2.433 1.604-3.941 1.604-7.198.001-16.387-9.188-16.387-16.386 0-1.509.57-2.909 1.605-3.941l2.879-2.879 5.679 5.679-3.373 3.373c1.491 3.511 3.965 5.988 7.361 7.369l3.376-3.376zm4.265 5.679-4.265-4.265-3.13 3.13c-4.153-1.481-7.168-4.508-8.783-8.774l3.135-3.135-4.266-4.265-2.172 2.172c-.846.844-1.312 1.993-1.312 3.234 0 6.615 8.772 15.386 15.387 15.386 1.241 0 2.389-.466 3.233-1.312l2.172-2.172zm-3.293-8.501h-5.5v-5.501c-.001-3.033 2.466-5.5 5.5-5.5s5.5 2.467 5.5 5.5-2.467 5.5-5.5 5.5zm-4.5-1h4.5c2.481 0 4.5-2.019 4.5-4.5s-2.019-4.5-4.5-4.5-4.5 2.019-4.5 4.5zm5.501-3.015h1v1h1v-5h-1v3h-1v-3h-1v3c0 .551.449 1 1 1z"/></svg>