<?xml version="1.0" encoding="UTF-8"?>
<svg xmlns="http://www.w3.org/2000/svg" id="Layer_1" data-name="Layer 1" viewBox="0 0 24 24">
  <path d="M18,19h6v1h-6v-1ZM8,9c.552,0,1-.448,1-1s-.448-1-1-1-1,.448-1,1,.448,1,1,1Zm-4,0c.552,0,1-.448,1-1s-.448-1-1-1-1,.448-1,1,.448,1,1,1Zm9,8h3v5h-3v-2H0v-1H13v-2Zm1,4h1v-3h-1v3ZM0,9C0,5.691,2.691,3,6,3s6,2.691,6,6-2.691,6-6,6S0,12.309,0,9Zm1,0c0,2.757,2.243,5,5,5s5-2.243,5-5-2.243-5-5-5S1,6.243,1,9Zm19,0c.552,0,1-.448,1-1s-.448-1-1-1-1,.448-1,1,.448,1,1,1Zm-4,0c.552,0,1-.448,1-1s-.448-1-1-1-1,.448-1,1,.448,1,1,1Zm-4,0c0-3.309,2.691-6,6-6s6,2.691,6,6-2.691,6-6,6-6-2.691-6-6Zm1,0c0,2.757,2.243,5,5,5s5-2.243,5-5-2.243-5-5-5-5,2.243-5,5Zm2.232,1.854c.763,.763,1.766,1.145,2.768,1.145s2.005-.382,2.768-1.145l-.707-.707c-1.137,1.137-2.984,1.137-4.121,0l-.707,.707Zm-11.293,1c1.101-1.102,3.021-1.102,4.121,0l.707-.707c-1.478-1.479-4.058-1.479-5.535,0l.707,.707Z"/>
</svg>
