<svg id="Layer_1" viewBox="0 0 24 24" xmlns="http://www.w3.org/2000/svg" data-name="Layer 1"><path d="m20.497 6.868 1.123-2.246 2.246-1.123-2.246-1.123-1.123-2.246-1.123 2.246-2.246 1.123 2.246 1.123zm-.377-3.746.377-.754.377.754.754.377-.754.377-.377.754-.377-.754-.754-.377zm-9.739 8.859-2.246-1.123-1.123-2.246-1.123 2.246-2.246 1.123 2.246 1.123 1.123 2.246 1.123-2.246zm-3.368 1.132-.377-.754-.754-.377.754-.377.377-.754.377.754.754.377-.754.377zm16.987 1.887v9h-1v-9c0-.551-.449-1-1-1s-1 .449-1 1v5h-1v-7c0-.551-.449-1-1-1s-1 .449-1 1v7h-1v-8c0-.551-.449-1-1-1s-1 .449-1 1v8h-1v-6c0-.551-.449-1-1-1s-1 .449-1 1v7.299l-1.391-1.74c-.521-.516-1.381-.619-1.964-.2-.754.511-.848 1.66-.196 2.287l2.024 2.354h-1.317l-1.44-1.674c-1.058-1.01-.89-2.948.344-3.778.856-.617 2.051-.578 2.94.048v-4.596c0-1.103.897-2 2-2 .366 0 .705.106 1 .278v-.278c0-1.103.897-2 2-2 .872 0 1.607.564 1.88 1.344.32-.217.705-.344 1.12-.344 1.103 0 2 .897 2 2v.278c.295-.172.634-.278 1-.278 1.103 0 2 .897 2 2zm-18.757 7c.116.353.273.688.473 1h-5.716v-15.5c0-1.378 1.122-2.5 2.5-2.5h13c1.378 0 2.5 1.122 2.5 2.5v1.055c-.31-.181-.644-.321-1-.413v-.641c0-.827-.673-1.5-1.5-1.5h-13c-.827 0-1.5.673-1.5 1.5v14.5h4.243z"/></svg>