<svg id="Layer_1" viewBox="0 0 24 24" xmlns="http://www.w3.org/2000/svg" data-name="Layer 1"><path d="m22 17.921c.162.508 1 3.268 1 6.079h-1c-.024-3.105-.97-5.681-1-6v-11.228c-.386.143-.798.228-1.227.228h-6.773v-1h6.773c.984 0 1.872-.562 2.26-1.43.441-.987.967-2.581.967-4.57h1c0 2.166-.573 3.902-1.054 4.978-.217.486-.546.899-.946 1.227zm-11-10.921v-1h-6.708c-.954 0-1.831-.541-2.235-1.377-.482-.996-1.056-2.606-1.056-4.623h-1.001c0 2.206.628 3.969 1.156 5.059.204.422.496.788.844 1.088v11.774c-.162.508-1 3.268-1 6.079h1c0-2.88.965-5.812.975-5.842l.024-11.412c.406.161.842.254 1.293.254zm6 2h1v13c0 1.103-.897 2-2 2h-2.5c-.6 0-1.133-.271-1.5-.691-.367.42-.9.691-1.5.691h-2.5c-1.103 0-2-.897-2-2v-13h1v3c0 .551.449 1 1 1h2.5c.551 0 1-.449 1-1v-3h1v3c0 .551.449 1 1 1h2.5c.551 0 1-.449 1-1zm-10 8c0 .551.449 1 1 1h2.5c.551 0 1-.449 1-1v-3.278c-.295.172-.634.278-1 .278h-2.5c-.366 0-.705-.106-1-.278zm4.5 5v-3.278c-.295.172-.634.278-1 .278h-2.5c-.366 0-.705-.106-1-.278v3.278c0 .551.449 1 1 1h2.5c.551 0 1-.449 1-1zm5.5 0v-3.278c-.295.172-.634.278-1 .278h-2.5c-.366 0-.705-.106-1-.278v3.278c0 .551.449 1 1 1h2.5c.551 0 1-.449 1-1zm0-8.278c-.295.172-.634.278-1 .278h-2.5c-.366 0-.705-.106-1-.278v3.278c0 .551.449 1 1 1h2.5c.551 0 1-.449 1-1zm-12-9.722c.552 0 1-.448 1-1s-.448-1-1-1-1 .448-1 1 .448 1 1 1zm14 0c.552 0 1-.448 1-1s-.448-1-1-1-1 .448-1 1 .448 1 1 1z"/></svg>