<svg id="Layer_1" viewBox="0 0 24 24" xmlns="http://www.w3.org/2000/svg" data-name="Layer 1"><path d="m24 13.816v-.816h-8v1h6.574c-.288.481-.574 1.169-.574 2s.287 1.519.574 2h-19.574c-1.103 0-2-.897-2-2s.897-2 2-2h5v-1h-5c-1.654 0-3 1.346-3 3 0 1.044.537 1.962 1.348 2.5-.811.538-1.348 1.456-1.348 2.5 0 1.654 1.346 3 3 3h21v-.815c-.207-.243-.923-.764-1-2.185 0-1.061.846-1.833 1-2v-1c-.158-.172-1-.943-1-2 .08-1.426.789-1.94 1-2.184zm-1.426 9.184h-19.574c-1.103 0-2-.897-2-2s.897-2 2-2h19.574c-.288.481-.574 1.169-.574 2s.287 1.519.574 2zm-13.294-12.745c.444.252.72.767.72 1.343v2.402h4v-2.422c0-.564.271-1.068.708-1.315 1.722-.974 2.792-2.799 2.792-4.762 0-1.666-.743-3.224-2.038-4.274-1.295-1.052-2.99-1.453-4.655-1.101-2.112.446-3.802 2.176-4.205 4.305-.447 2.359.604 4.646 2.679 5.825zm3.72 1.322v1.422h-2v-1.402c0-.206-.031-.404-.075-.598h2.148c-.041.187-.073.379-.073.578zm-5.416-6.96c.33-1.737 1.708-3.149 3.43-3.513 1.367-.288 2.759.039 3.818.898 1.06.86 1.668 2.135 1.668 3.498 0 1.604-.875 3.095-2.284 3.892-.29.164-.521.403-.716.672v-.064h-1v-3.071c.86-.224 1.5-1 1.5-1.929h-1c0 .551-.449 1-1 1s-1-.449-1-1h-1c0 .929.64 1.705 1.5 1.929v3.071h-1v.072c-.197-.275-.431-.519-.726-.686-1.697-.965-2.557-2.837-2.19-4.769z"/></svg>