<?xml version="1.0" encoding="UTF-8"?>
<svg xmlns="http://www.w3.org/2000/svg" id="Layer_1" data-name="Layer 1" viewBox="0 0 24 24">
  <path d="M0,0V12.09l.364,.103c2.141,.607,3.636,2.583,3.636,4.807v7h3v-7c0-2.384,1.68-4.377,3.917-4.874,.334-.409,.707-.784,1.11-1.124-.009,0-.018-.001-.027-.001-3.309,0-6,2.691-6,6v6h-1v-6c0-2.541-1.627-4.813-4-5.653V5H23v6.026c.36,.306,.695,.641,1,1.003V0H0ZM10,1h4v3h-4V1Zm-1,3H5V1h4v3ZM15,1h4v3h-4V1ZM1,1h3v3H1V1Zm19,3V1h3v3h-3Zm-2.5,7c-3.584,0-6.5,2.916-6.5,6.5s2.916,6.5,6.5,6.5,6.5-2.916,6.5-6.5-2.916-6.5-6.5-6.5Zm0,12c-3.033,0-5.5-2.468-5.5-5.5s2.467-5.5,5.5-5.5,5.5,2.468,5.5,5.5-2.467,5.5-5.5,5.5Zm2.94-7.451l.701,.713-3.457,3.399c-.217,.218-.51,.339-.822,.339s-.604-.121-.825-.342l-1.851-1.794,.696-.719,1.856,1.8c.062,.062,.186,.062,.241,.006l3.46-3.402Z"/>
</svg>
