<svg id="Layer_1" viewBox="0 0 24 24" xmlns="http://www.w3.org/2000/svg" data-name="Layer 1"><path d="m19 11-1.333.667-.667 1.333-.667-1.333-1.334-.667 1.334-.667.667-1.333.667 1.333zm-9.384 0c1.211 0 2.683.236 3.657.393l.654.102.145-.989-.641-.1c-1.006-.162-2.524-.405-3.815-.405-1.189 0-1.988.142-2.805.891-.506.464-.832 1.215-.811 1.869.015.451.036 1.132.624 1.683l.684-.73c-.266-.248-.294-.551-.308-.984-.011-.308.156-.797.486-1.099.531-.487 1.009-.628 2.129-.628zm7.384 8c0 2.757-2.243 5-5 5s-5-2.243-5-5c0-.726.163-1.412.443-2.035l-.876-.876 2.414-2.414.844.844c.66-.322 1.392-.519 2.175-.519 2.757 0 5 2.243 5 5zm-1 0c0-2.206-1.794-4-4-4s-4 1.794-4 4 1.794 4 4 4 4-1.794 4-4zm8-16.5v19.5h-5.683c.153-.321.286-.654.389-1h4.294v-13h-22v13h4.294c.103.346.236.679.389 1h-5.683v-19.5c0-1.378 1.121-2.5 2.5-2.5h19c1.379 0 2.5 1.122 2.5 2.5zm-1 4.5v-4.5c0-.827-.673-1.5-1.5-1.5h-19c-.827 0-1.5.673-1.5 1.5v4.5zm-19-4c-.552 0-1 .448-1 1s.448 1 1 1 1-.448 1-1-.448-1-1-1zm3 0c-.552 0-1 .448-1 1s.448 1 1 1 1-.448 1-1-.448-1-1-1zm3 0c-.552 0-1 .448-1 1s.448 1 1 1 1-.448 1-1-.448-1-1-1z"/></svg>