<svg id="Layer_1" viewBox="0 0 24 24" xmlns="http://www.w3.org/2000/svg" data-name="Layer 1"><path d="m13.643 0h-3.286c-5.711 0-10.357 4.646-10.357 10.357v8.758c0 1.379.707 2.629 1.892 3.344 1.086.655 1.983 1.291 3.651 1.492 2.037.235 3.924-.711 4.851-2.251l.018.01c.199-.365.972-.709 1.591-.709.632 0 1.459.366 1.645.752.841 1.35 2.416 2.234 4.188 2.234 1.736.01 3.133-.798 4.271-1.527 1.185-.715 1.892-1.965 1.892-3.344v-8.758c.001-5.712-4.645-10.358-10.356-10.358zm-3.666 19.911c-.223 1.928-2.163 3.293-4.319 3.046-1.432-.168-2.242-.747-3.249-1.355-.882-.532-1.408-1.462-1.408-2.488v-.743c.531-.518 2.629-2.372 5.426-2.372 1.032 0 2.014.438 2.693 1.2.668.749.973 1.712.857 2.711zm3.091.285c-.36-.127-.733-.196-1.064-.196-.336 0-.712.067-1.072.192.111-.456.059-.937-.005-1.385.362.126.74.193 1.077.193.333 0 .708-.07 1.07-.198-.065.451-.115.935-.006 1.394zm9.932-1.081c0 1.026-.526 1.956-1.408 2.488-1.007.608-1.818 1.187-3.249 1.355-2.156.251-4.097-1.118-4.319-3.046-.115-1 .189-1.962.857-2.711.679-.762 1.661-1.2 2.693-1.2 2.785 0 4.893 1.855 5.426 2.373v.742zm0-2.074c-1.051-.838-2.984-2.041-5.426-2.041-1.317 0-2.571.559-3.44 1.534-.196.22-.36.458-.507.703-.186.386-.992.763-1.624.763-.619 0-1.394-.344-1.593-.709-.154-.266-.335-.52-.546-.757-.869-.975-2.123-1.534-3.44-1.534-2.442 0-4.375 1.202-5.426 2.041v-6.684c.002-5.16 4.199-9.357 9.359-9.357h3.286c5.16 0 9.357 4.197 9.357 9.357z"/></svg>