<svg id="Layer_1" viewBox="0 0 24 24" xmlns="http://www.w3.org/2000/svg" data-name="Layer 1"><path d="m11.293 8.343c-.391-.391-.391-1.024 0-1.414s1.024-.391 1.414 0 .391 1.024 0 1.414-1.024.391-1.414 0zm12.707 10.657v2.5c0 1.378-1.121 2.5-2.5 2.5h-19c-1.379 0-2.5-1.122-2.5-2.5v-2.5h2v-13h4.998c-.064.338-.124.672-.172 1h-3.826v12h5.707l1 1h4.586l1-1h5.707v-12h-3.83c-.049-.328-.109-.663-.174-1h5.004v13zm-1 1h-7.293l-1 1h-5.414l-1-1h-7.293v1.5c0 .827.673 1.5 1.5 1.5h19c.827 0 1.5-.673 1.5-1.5zm-15.914-7.085c-.048-.299-.08-.608-.086-.904-.026-1.323.588-2.732 1.691-3.892.226-2.133.844-4.358 1.89-7.138.224-.596.78-.981 1.417-.981.638 0 1.194.385 1.419.98 1.027 2.729 1.646 4.954 1.889 7.137 1.114 1.168 1.729 2.579 1.693 3.896-.007.283-.04.578-.085.862l-1.108 1.108-2.173-1.984h-1.134v2h-1v-2h-1.131l-2.171 2.027-1.112-1.112zm.914-.925c.003.15.014.302.03.455l.191.191 1.753-1.636h4.048l1.753 1.602.195-.195c.016-.141.025-.281.029-.42.044-1.131-.609-2.433-1.651-3.415-.215-2.251-.813-4.432-1.866-7.238-.116-.309-.399-.333-.483-.333s-.366.024-.482.333c-1.074 2.866-1.666 5.032-1.864 7.237-1.023.964-1.686 2.293-1.652 3.42z"/></svg>