<?xml version="1.0" encoding="UTF-8"?>
<svg xmlns="http://www.w3.org/2000/svg" id="Layer_1" data-name="Layer 1" viewBox="0 0 24 24">
  <path d="M13.226,4.104c-.348-.054-.703-.089-1.064-.096C13.204,1.686,15.366,0,17.75,0c3.446,0,6.25,2.804,6.25,6.25,0,2.899-1.796,5.899-4,8.49v-1.605c1.792-2.326,3-4.725,3-6.886,0-2.895-2.355-5.25-5.25-5.25-1.85,0-3.585,1.299-4.524,3.104ZM4,13.136c-1.792-2.326-3-4.725-3-6.886C1,3.355,3.355,1,6.25,1c1.85,0,3.585,1.299,4.524,3.104,.348-.054,.703-.089,1.064-.096C10.796,1.686,8.634,0,6.25,0,2.804,0,0,2.804,0,6.25c0,2.899,1.796,5.899,4,8.49v-1.605Zm6-.136c.552,0,1-.448,1-1s-.448-1-1-1-1,.448-1,1,.448,1,1,1Zm4,0c.552,0,1-.448,1-1s-.448-1-1-1-1,.448-1,1,.448,1,1,1Zm-2-7c3.309,0,6,2.691,6,6v4h-3v2h-6v-2h-3v-4c0-3.309,2.691-6,6-6Zm-5,6v3h3v2h4v-2h3v-3c0-2.757-2.243-5-5-5s-5,2.243-5,5Zm14.362,5.52l-9.362,2.691-9.362-2.691-.275,.961,7.829,2.25-7.829,2.25,.275,.961,9.362-2.691,9.362,2.691,.275-.961-7.829-2.25,7.829-2.25-.275-.961Z"/>
</svg>
