<?xml version="1.0" encoding="UTF-8"?>
<svg xmlns="http://www.w3.org/2000/svg" id="Layer_1" data-name="Layer 1" viewBox="0 0 24 24">
  <path d="M18,12c-3.309,0-6,2.691-6,6s2.691,6,6,6,6-2.691,6-6-2.691-6-6-6Zm5,6c0,1.198-.441,2.284-1.146,3.146l-7-7c.862-.706,1.948-1.147,3.147-1.147,2.757,0,5,2.243,5,5Zm-10,0c0-1.198,.441-2.284,1.146-3.146l7,7c-.862,.706-1.948,1.147-3.147,1.147-2.757,0-5-2.243-5-5Zm-1.222,5c.286,.359,.598,.696,.943,1H0V11.5c0-1.378,1.122-2.5,2.5-2.5h6.5c1.215,0,2-.785,2-2,0-2.206-1.794-4-4-4-2.058,0-3.779,1.528-4.003,3.555l-.049,.445H-.021l.041-.538C.296,2.838,3.362,0,7,0c3.86,0,7,3.14,7,7v4.079c-.355,.206-.685,.445-1,.703V7c0-3.309-2.691-6-6-6C4.064,1,1.563,3.156,1.083,6h.989c.468-2.31,2.512-4,4.928-4,2.757,0,5,2.243,5,5,0,1.767-1.233,3-3,3H2.5c-.827,0-1.5,.673-1.5,1.5v11.5H11.778Z"/>
</svg>
