<?xml version="1.0" encoding="UTF-8"?>
<svg xmlns="http://www.w3.org/2000/svg" id="Layer_1" data-name="Layer 1" viewBox="0 0 24 24">
  <path d="M17.428,23l2.315-17.199-1.92-.254,.545-4.266L9.382,.091l-.545,4.266-1.978-.262-2.541,18.906H0v1H24v-1h-6.572ZM10.247,1.214l7.002,.928-.418,3.274-1.09-.144,.16-1.218c.073-.547-.312-1.05-.86-1.123-.547-.073-1.05,.312-1.123,.86l-.16,1.218-.991-.131,.16-1.218c.073-.547-.312-1.05-.86-1.123-.547-.073-1.05,.312-1.123,.86l-.16,1.218-.955-.127,.418-3.274Zm4.446,15.684c-.547-.073-1.05,.312-1.123,.86l-.765,5.243h-1.01l.784-5.374c.073-.547-.312-1.05-.86-1.123-.547-.073-1.05,.312-1.123,.86l-.823,5.637h-1.01l.842-5.768c.073-.547-.312-1.05-.86-1.123-.547-.073-1.05,.312-1.123,.86l-.88,6.031h-1.414L7.717,5.216l10.9,1.444-2.199,16.339h-1.593l.727-4.98c.073-.547-.312-1.05-.86-1.123Zm-.964-8.018l-.263,1.983-1.983-.263,.263-1.983c.073-.547,.575-.932,1.123-.86,.548,.073,.933,.575,.86,1.123Zm-2.974-.394l-.263,1.983-1.983-.263,.263-1.983c.073-.547,.575-.932,1.123-.86,.548,.073,.933,.575,.86,1.123Zm2.397,4.847l-.263,1.983-1.983-.263,.263-1.983c.073-.547,.575-.932,1.123-.86,.547,.073,.932,.575,.86,1.123Zm-2.974-.394l-.263,1.983-1.983-.263,.263-1.983c.073-.547,.575-.932,1.123-.86,.547,.073,.932,.575,.86,1.123Zm6.262-1.682l-1.983-.263,.263-1.983c.073-.548,.575-.933,1.123-.86,.548,.073,.933,.575,.86,1.123l-.263,1.983Zm-.577,4.453l-1.983-.263,.263-1.983c.073-.548,.575-.933,1.123-.86,.547,.073,.932,.575,.86,1.123l-.263,1.983Z"/>
</svg>
