<?xml version="1.0" encoding="UTF-8"?>
<svg xmlns="http://www.w3.org/2000/svg" id="Layer_1" data-name="Layer 1" viewBox="0 0 24 24">
  <path d="M9.5,10v-3c0-1.103-.897-2-2-2h-2.5v7h2.5c1.103,0,2-.897,2-2Zm-3.5-4h1.5c.551,0,1,.449,1,1v3c0,.551-.449,1-1,1h-1.5V6Zm15.5-2h-2.5v-1.5c0-1.378-1.122-2.5-2.5-2.5H2.5C1.122,0,0,1.122,0,2.5v15.855c-.041,1.276,1.522,2.113,2.562,1.371l3.438-2.292v3.566h11.349l4.089,2.726c1.039,.742,2.603-.096,2.562-1.371V6.5c0-1.378-1.122-2.5-2.5-2.5ZM2.007,18.894c-.407,.295-1.026-.037-1.007-.539V2.5c0-.827,.673-1.5,1.5-1.5h14c.827,0,1.5,.673,1.5,1.5v13.5H6.349l-4.341,2.894Zm20.993,3.461c.018,.502-.599,.832-1.007,.539l-4.341-2.894H7v-3h12V5h2.5c.827,0,1.5,.673,1.5,1.5v15.855ZM14,12h-3.5V5h3.5v1h-2.5v2h2.5v1h-2.5v2h2.5v1Z"/>
</svg>
