<svg id="Layer_1" viewBox="0 0 24 24" xmlns="http://www.w3.org/2000/svg" data-name="Layer 1"><path d="m15 4c1.103 0 2-.897 2-2s-.897-2-2-2-2 .897-2 2 .897 2 2 2zm0-3c.551 0 1 .449 1 1s-.449 1-1 1-1-.449-1-1 .449-1 1-1zm8.977 22.719c-.471.187-.967.281-1.477.281-1.516 0-2.822-.858-3.5-2.104-.678 1.246-1.984 2.104-3.5 2.104s-2.822-.858-3.5-2.104c-.678 1.246-1.984 2.104-3.5 2.104s-2.822-.858-3.5-2.104c-.678 1.246-1.984 2.104-3.5 2.104-.509 0-1.006-.095-1.477-.281l.369-.93c.353.14.725.211 1.107.211 1.654 0 3-1.346 3-3h1c0 1.654 1.346 3 3 3s3-1.346 3-3h1c0 1.654 1.346 3 3 3s3-1.346 3-3h1c0 1.654 1.346 3 3 3 .382 0 .755-.071 1.107-.211l.369.93zm-21.82-11.087c.898-1.571 4.786-.076 8.055 1.555l.883-1.394-2.193-1.439c-.463-.305-.782-.793-.875-1.339-.092-.547.049-1.112.387-1.551l2.677-3.463h-3.135l-2.286 2.815-.776-.63 2.585-3.185h4.161l9.458 5.78-.521.854-5.388-3.293-2.114 2.849 2.513 1.63 1.412 5.951v1.698c-1.479-1.126-3.017-2.083-4.987-3.198l.474-.881.402.227c.798.455 1.889 1.104 3.01 1.844l-1.192-5.021-3.07-1.991 2.695-3.632-2.297-1.404-2.829 3.66c-.17.222-.239.498-.192.774.047.277.202.516.437.67l3.015 1.979-3.077 4.858-.845-.535 1.129-1.783c-4.537-2.247-6.441-2.271-6.647-1.91-.104.183.123.889 1.729 2.254 1.157.984 2.785 2.107 4.745 3.281v1.163c-2.238-1.313-4.094-2.578-5.393-3.682-1.791-1.522-2.429-2.671-1.95-3.511z"/></svg>