<svg id="Layer_1" viewBox="0 0 24 24" xmlns="http://www.w3.org/2000/svg" data-name="Layer 1"><path d="m18.797 1.333.504-.863c1.646.96 3.068 2.217 4.228 3.734l-.795.607c-1.08-1.414-2.404-2.584-3.937-3.479zm5.203 21.96-.707.707-23.293-23.293.707-.707 1.937 1.937c.642-.543 1.324-1.04 2.047-1.463l.505.863c-.65.379-1.262.826-1.841 1.31l1.774 1.774c1.815-1.455 4.047-2.294 6.371-2.4v-2.021h1v2.025c5.833.264 10.5 5.078 10.5 10.975 0 2.503-.863 4.926-2.422 6.871zm-18.159-18.159 5.659 5.659v-5.793h1v6.793l.707.707h4.793v1h-3.793l5.659 5.659c1.374-1.753 2.134-3.921 2.134-6.159 0-5.514-4.486-10-10-10-2.238 0-4.406.76-6.159 2.134zm6.159 17.866c-5.514 0-10-4.486-10-10 0-2.055.641-4.025 1.785-5.679l-.719-.719c-1.326 1.85-2.066 4.075-2.066 6.398 0 3.054 1.252 5.819 3.268 7.814l-2.138 2.35.739.674 2.139-2.351c1.902 1.57 4.338 2.514 6.991 2.514 2.323 0 4.549-.74 6.399-2.066l-.72-.72c-1.654 1.145-3.624 1.786-5.679 1.786z"/></svg>