<?xml version="1.0" encoding="UTF-8"?>
<svg xmlns="http://www.w3.org/2000/svg" id="Layer_1" data-name="Layer 1" viewBox="0 0 24 24">
  <path d="M20,23v-1c0-1.465,.228-6.61,3.155-11.313l.777-1.249-1.378,.517c-1.654,.62-2.85,1.515-3.772,2.548,.911-2.115,2.132-4.057,3.578-6.225l.882-1.322-1.48,.579c-2.94,1.15-4.993,3.088-6.43,5.254,1.139-3.019,2.737-5.352,4.4-7.769,.634-.916,1.425-2.099,2.053-3.042l-1.462,.557c-4.194,1.598-7.254,4.455-9.355,8.68-1.81-2.977-4.168-5.332-6.898-6.793l-1.758-.941,1.106,1.659c1.376,2.065,2.799,4.837,3.969,7.759-1.413-1.459-3.266-2.854-5.205-3.612l-1.479-.579,1.481,2.216c1.563,2.323,2.994,4.459,3.883,7.114-1.501-2.012-3.463-3.312-4.314-3.812L0,11.189l1.077,1.729c2.427,3.898,2.924,6.65,2.924,9.582v.5H0v1H24v-1h-4Zm-.887-20.847c-.069,.1-.138,.199-.206,.299-2.339,3.403-4.557,6.642-5.61,11.816-.477-1.423-1.06-2.764-1.733-4.013,1.731-3.763,4.208-6.433,7.55-8.102ZM7,23h-2v-.5c0-2.27-.266-4.823-1.98-8.18,1.725,1.393,3.854,3.762,3.96,6.941,.024,.488,.02,1.239,.02,1.739Zm3,0h-2c.003-.396-.031-2.232-.077-2.584-.367-4.961-2.31-8.171-4.467-11.394,2.181,1.29,4.083,3.258,5.006,4.84,.932,2.855,1.538,5.675,1.538,7.958v1.18Zm2-.5v.5h-1v-1.18c0-4.965-2.728-12.352-5.599-17.367,3.442,2.572,6.157,6.869,7.473,11.91-.821,3.007-.874,5.556-.874,6.137Zm4,.5h-3v-.5c0-.59,.059-3.321,.994-6.429h.001s.001-.007,.002-.011c.962-3.19,2.848-6.773,6.558-8.852-2.713,4.235-4.555,8.137-4.555,14.736v1.056Zm3,0h-2v-1.056c0-2.156,.198-3.997,.562-5.655l.005,.003c.844-1.78,1.917-3.555,3.951-4.745-2.322,4.511-2.519,9.064-2.519,10.453v1Z"/>
</svg>
