<?xml version="1.0" encoding="UTF-8"?>
<svg xmlns="http://www.w3.org/2000/svg" id="Layer_1" data-name="Layer 1" viewBox="0 0 24 24">
  <path d="M21.204,4.803c-.406-1.079-1.446-1.803-2.587-1.803h-.617v-1h-2v1H8v-1h-2v1h-.617c-1.142,0-2.182,.725-2.587,1.803C.475,10.973,0,17.768,0,19.25c0,1.517,1.233,2.75,2.75,2.75,2.571,0,5.379-5.577,6.128-8h6.243c.75,2.423,3.557,8,6.128,8,1.517,0,2.75-1.233,2.75-2.75,0-1.482-.475-8.277-2.796-14.447Zm.046,16.197c-1.882-.063-4.823-5.46-5.359-8h-7.781c-.535,2.539-3.478,7.938-5.359,8-.965,0-1.75-.785-1.75-1.75,0-1.356,.486-8.126,2.731-14.094,.264-.702,.913-1.156,1.652-1.156h13.233c.739,0,1.388,.454,1.652,1.156,2.246,5.968,2.731,12.738,2.731,14.094,0,.965-.785,1.75-1.75,1.75ZM7,7c-1.103,0-2,.897-2,2s.897,2,2,2,2-.897,2-2-.897-2-2-2Zm0,3c-.551,0-1-.449-1-1s.449-1,1-1,1,.449,1,1-.449,1-1,1Zm10-3c-1.103,0-2,.897-2,2s.897,2,2,2,2-.897,2-2-.897-2-2-2Zm0,3c-.551,0-1-.449-1-1s.449-1,1-1,1,.449,1,1-.449,1-1,1Z"/>
</svg>
