<?xml version="1.0" encoding="UTF-8"?>
<svg xmlns="http://www.w3.org/2000/svg" id="Layer_1" data-name="Layer 1" viewBox="0 0 24 24">
  <path d="m21,4c1.103,0,2-.897,2-2s-.897-2-2-2-2,.897-2,2,.897,2,2,2Zm0-3c.552,0,1,.448,1,1s-.448,1-1,1-1-.448-1-1,.448-1,1-1Zm0,11.5c1.103,0,2-.897,2-2s-.897-2-2-2-2,.897-2,2,.897,2,2,2Zm0-3c.552,0,1,.448,1,1s-.448,1-1,1-1-.448-1-1,.448-1,1-1Zm0,11.5c1.103,0,2-.897,2-2s-.897-2-2-2-2,.897-2,2,.897,2,2,2Zm0-3c.552,0,1,.448,1,1s-.448,1-1,1-1-.448-1-1,.448-1,1-1Zm3-11.5v.5h-1v-.5c0-.275-.225-.5-.5-.5h-3c-.275,0-.5.225-.5.5v.5h-1v-.5c0-.827.673-1.5,1.5-1.5h3c.827,0,1.5.673,1.5,1.5Zm0,17v.5h-1v-.5c0-.275-.225-.5-.5-.5h-3c-.275,0-.5.225-.5.5v.5h-1v-.5c0-.827.673-1.5,1.5-1.5h3c.827,0,1.5.673,1.5,1.5Zm0-8.5v.5h-1v-.5c0-.275-.225-.5-.5-.5h-3c-.275,0-.5.225-.5.5v.5h-1v-.5c0-.827.673-1.5,1.5-1.5h3c.827,0,1.5.673,1.5,1.5Zm-10-4.5v-6.5h-1c0,1.288-.415,3-4,3H2.5c-1.378,0-2.5,1.121-2.5,2.5v4.05c0,.774.168,1.556.485,2.26l3.691,8.19h1.147c.909,0,1.748-.455,2.243-1.218.496-.762.571-1.713.2-2.549l-1.929-4.233h3.163c3.585,0,4,1.712,4,3h1v-6.5c.551,0,1-.449,1-1s-.449-1-1-1Zm-7.146,10.144c.231.521.184,1.116-.126,1.594-.31.478-.835.763-1.404.763h-.5l-3.155-7h3.07l2.116,4.644Zm6.146-4.379c-.74-.745-1.979-1.265-4-1.265H1.24c-.158-.466-.24-.96-.24-1.45v-4.05c0-.827.673-1.5,1.5-1.5h6.5c2.021,0,3.26-.52,4-1.265v9.529Z"/>
</svg>
