<?xml version="1.0" encoding="UTF-8"?>
<svg xmlns="http://www.w3.org/2000/svg" id="Layer_1" data-name="Layer 1" viewBox="0 0 24 24">
  <path d="M21.5,7H4.929L21.197,.96l-.348-.938L1.593,7.172v.004c-.93,.364-1.593,1.265-1.593,2.324v14.5H24V9.5c0-1.379-1.122-2.5-2.5-2.5ZM2.5,8H21.5c.827,0,1.5,.673,1.5,1.5v.5H1v-.5c0-.827,.673-1.5,1.5-1.5Zm-1.5,15V11H23v12H1ZM6,13h4v1h-3v2.5h3v1h-3v3.5h-1V13Zm11.992,1l.508,7h-1.045l-.45-6.794-1.094,2.408-.91,2.003-.91-2.003-1.094-2.408-.53,6.794h-.965l.508-7c.043-.705,.472-1,.988-1,.342,0,.66,.242,.841,.64l1.164,2.56,1.164-2.56c.181-.398,.499-.64,.841-.64,.516,0,.945,.295,.988,1Z"/>
</svg>
