<svg id="Layer_1" viewBox="0 0 24 24" xmlns="http://www.w3.org/2000/svg" data-name="Layer 1"><path d="m24 12.349c0-.635-.131-1.25-.388-1.827l-3.127-7.037c-.401-.901-1.299-1.484-2.285-1.484h-7.2v1h3v7h-7v1h15.722c.18.429.278.881.278 1.349v5.651h-22v-5h-1v6h2v1c0 1.654 1.346 3 3 3s3-1.346 3-3v-1h8v1c0 1.654 1.346 3 3 3s3-1.346 3-3v-1h2v-6.651zm-17 7.651c0 1.103-.897 2-2 2s-2-.897-2-2v-1h4zm14 0c0 1.103-.897 2-2 2s-2-.897-2-2v-1h4zm-6-17h3.2c.592 0 1.131.35 1.371.891l2.715 6.109h-7.286zm-6 0h-9v-1h9zm-2 4h-7v-1h7zm-2 4h-5v-1h5z"/></svg>