<svg id="Layer_1" viewBox="0 0 24 24" xmlns="http://www.w3.org/2000/svg" data-name="Layer 1"><path d="m22.363 1.281-3.863-1.281-3.863 1.281c-.979.324-1.637 1.234-1.637 2.265v3.454c0 3.521 3.561 5.576 4.651 6.122l.784.392.811-.327c1.115-.448 4.754-2.22 4.754-6.187v-3.454c0-1.031-.658-1.941-1.637-2.265zm.637 5.719c0 3.34-3.159 4.87-4.128 5.259l-.394.159-.38-.19c-.961-.481-4.099-2.28-4.099-5.228v-3.454c0-.599.382-1.127.951-1.316l3.549-1.176 3.549 1.176c.569.188.951.717.951 1.316v3.454zm-13 1c0-1.103-.897-2-2-2s-2 .897-2 2 .897 2 2 2 2-.897 2-2zm-3 0c0-.551.448-1 1-1s1 .449 1 1-.448 1-1 1-1-.449-1-1zm4 7v-2c0-.551-.448-1-1-1h-4c-.552 0-1 .449-1 1v2h-1v-2c0-1.103.897-2 2-2h4c1.103 0 2 .897 2 2v2zm8-12.5h-1c-1.103 0-2 .897-2 2s.897 2 2 2v4h2v-1h-1v-3c1.103 0 2-.897 2-2s-.897-2-2-2zm0 3h-1c-.552 0-1-.449-1-1s.448-1 1-1h1c.552 0 1 .449 1 1s-.448 1-1 1zm5 6.768v6.732h-11.5v4h5.5v1h-12v-1h5.5v-4h-11.5v-16.5c0-1.378 1.121-2.5 2.5-2.5h10.274c-.376.279-.693.62-.955 1h-9.319c-.827 0-1.5.673-1.5 1.5v15.5h22v-4.767c.341-.284.679-.603 1-.965z"/></svg>