<?xml version="1.0" encoding="UTF-8"?>
<svg xmlns="http://www.w3.org/2000/svg" id="Layer_1" data-name="Layer 1" viewBox="0 0 24 24">
  <path d="m9.5,11h-3c-1.378,0-2.5,1.121-2.5,2.5v5.013c-.419-.317-.935-.513-1.5-.513-1.378,0-2.5,1.121-2.5,2.5s1.122,2.5,2.5,2.5,2.5-1.121,2.5-2.5v-7c0-.827.673-1.5,1.5-1.5h3c.827,0,1.5.673,1.5,1.5v5.013c-.419-.317-.935-.513-1.5-.513-1.378,0-2.5,1.121-2.5,2.5s1.122,2.5,2.5,2.5,2.5-1.121,2.5-2.5v-7c0-1.379-1.122-2.5-2.5-2.5Zm-7,11c-.827,0-1.5-.673-1.5-1.5s.673-1.5,1.5-1.5,1.5.673,1.5,1.5-.673,1.5-1.5,1.5Zm7,0c-.827,0-1.5-.673-1.5-1.5s.673-1.5,1.5-1.5,1.5.673,1.5,1.5-.673,1.5-1.5,1.5Zm13.781,1.988l-6.577-6.577c-.81.732-1.723,1.317-2.704,1.746v-1.096c.781-.388,1.509-.888,2.158-1.498,1.833-1.721,2.842-4.052,2.842-6.563,0-4.963-4.038-9-9-9S1,5.037,1,10c0,1.479.365,2.872,1,4.104v1.87c-1.25-1.669-2-3.733-2-5.974C0,4.486,4.486,0,10,0s10,4.486,10,10c0,2.477-.94,4.873-2.591,6.702l6.579,6.579-.707.707Z"/>
</svg>
