<svg id="Layer_1" viewBox="0 0 24 24" xmlns="http://www.w3.org/2000/svg" data-name="Layer 1"><path d="m23 16.5v-.862c0-2.637-1.88-4.91-4.471-5.403l-4.259-.811c-1.085-.207-1.896-1.083-2.016-2.17l-.454-5.106c-.099-.688-.482-1.308-1.054-1.703-.571-.396-1.289-.535-1.983-.379l-7.763 2.049v14.385c0 1.02.616 1.897 1.494 2.285-.606.549-.994 1.334-.994 2.215 0 1.654 1.346 3 3 3 1.044 0 1.962-.537 2.5-1.348.538.811 1.456 1.348 2.5 1.348s1.962-.537 2.5-1.348c.538.811 1.456 1.348 2.5 1.348s1.962-.537 2.5-1.348c.538.811 1.456 1.348 2.5 1.348 1.654 0 3-1.346 3-3 0-.88-.388-1.666-.994-2.215.878-.388 1.494-1.265 1.494-2.285zm-18.5 6.5c-1.103 0-2-.897-2-2s.897-2 2-2 2 .897 2 2-.897 2-2 2zm5 0c-1.103 0-2-.897-2-2s.897-2 2-2 2 .897 2 2-.897 2-2 2zm5 0c-1.103 0-2-.897-2-2s.897-2 2-2 2 .897 2 2-.897 2-2 2zm5 0c-1.103 0-2-.897-2-2s.897-2 2-2 2 .897 2 2-.897 2-2 2zm2.5-6.5c0 .827-.673 1.5-1.5 1.5h-17c-.827 0-1.5-.673-1.5-1.5v-13.615l7-1.849c.41-.093.83-.011 1.179.23.348.241.572.604.629.996l.332 3.738h-3.14v1h3.229l.031.352c.049.447.188.862.386 1.241l-2.752 1.672.52.854 2.817-1.712c.407.418.922.729 1.504.903l-1.667 2.836.861.507 1.832-3.118 3.579.682c2.12.404 3.658 2.263 3.658 4.421v.862z"/></svg>