<svg id="Layer_1" viewBox="0 0 24 24" xmlns="http://www.w3.org/2000/svg" data-name="Layer 1"><path d="m23 9.5c0-1.379-1.121-2.5-2.5-2.5h-7.262l.268-3h2.813c1.797-.102 2.286-.691 2.745-.996l-.19-.763c-.33-1.319-1.51-2.241-2.87-2.241h-.455c-1.467 0-2.755 1.09-2.92 2.579l-.395 4.421h-4.448l-.369-3.445c-.17-1.47-1.463-2.558-2.917-2.555h-.455c-1.36 0-2.54.922-2.87 2.241l-.19.763c.456.304.951.896 2.745.996h2.837l.214 2h-3.781v14.5c0 1.379 1.121 2.5 2.5 2.5h10c1.294 0 2.349-.992 2.475-2.253 2.695-2.304 5.025-7.944 5.025-12.247zm-9.378-6.807c.03-.219.073-.386.135-.524.312-.71 1.016-1.169 1.792-1.169h.455c.936-.003 1.737.663 1.923 1.577-.319.174-.899.423-1.607.423h-2.725zm-9.893 1.307c-.708 0-1.288-.249-1.607-.423.186-.914.987-1.58 1.923-1.577h.455c.776 0 1.48.459 1.793 1.17.099.2.145.577.166.83zm16.771 4c.827 0 1.5.673 1.5 1.5 0 3.916-1.976 8.536-4 10.82v-12.32zm-16.5 4h5v7h-5zm13 9.5c0 .827-.673 1.5-1.5 1.5h-10c-.827 0-1.5-.673-1.5-1.5v-1.5h6v-9h-6v-3h13z"/></svg>