<?xml version="1.0" encoding="UTF-8"?>
<svg xmlns="http://www.w3.org/2000/svg" id="Layer_1" data-name="Layer 1" viewBox="0 0 24 24">
  <path d="m22.213,3.663L11.14.101c-1.325-.385-2.714.377-3.099,1.696l-.661,2.203H2.5c-1.379,0-2.5,1.122-2.5,2.5v17.5h16v-1.221l2.311.872,5.59-16.893c.385-1.324-.378-2.714-1.688-3.096Zm-7.213,19.337H1V6.5c0-.827.673-1.5,1.5-1.5h11c.827,0,1.5.673,1.5,1.5v16.5Zm7.945-16.538l-5.256,15.886-1.689-.638V6.5c0-1.378-1.121-2.5-2.5-2.5h-5.077l.576-1.919c.233-.794,1.069-1.251,1.848-1.024l11.073,3.562c.793.231,1.251,1.066,1.025,1.843Zm-13.195,4.538c-.707,0-1.338.392-1.75.875-.412-.483-1.043-.875-1.75-.875-1.24,0-2.25,1.009-2.25,2.25,0,2.244,3.342,4.537,3.723,4.791l.277.185.277-.185c.381-.254,3.723-2.547,3.723-4.791,0-1.241-1.01-2.25-2.25-2.25Zm-1.75,6.016c-1.039-.752-3-2.444-3-3.766,0-.689.561-1.25,1.25-1.25.707,0,1.246.791,1.25,1h1c.004-.209.543-1,1.25-1,.689,0,1.25.561,1.25,1.25,0,1.322-1.961,3.014-3,3.766Z"/>
</svg>
