<?xml version="1.0" encoding="UTF-8"?>
<svg xmlns="http://www.w3.org/2000/svg" id="Layer_1" data-name="Layer 1" viewBox="0 0 24 24">
  <path d="M1,2.5c0-.827,.673-1.5,1.5-1.5H12v7h7v3.007h1v-3.714L12.707,0H2.5C1.122,0,0,1.122,0,2.5V24l20,.007v-1l-19-.007V2.5Zm12-.793l5.293,5.293h-5.293V1.707Zm11,18.3v1h-4V13.007h1v7h3Zm-12.015-1.108c.037-.228,.076-1.006-.976-1.432-.112-.042-1.208-.457-1.699-.763-.662-.467-.976-1.174-.88-1.917,.104-.784,.627-1.421,1.366-1.665,.901-.295,1.821-.045,2.736,.747l-.655,.756c-.647-.562-1.21-.735-1.768-.553-.371,.123-.635,.446-.688,.845-.049,.379,.103,.716,.428,.948,.334,.205,1.213,.554,1.523,.67,1.394,.564,1.731,1.711,1.6,2.523-.184,1.127-1.164,1.944-2.33,1.944-.879,0-1.948-.551-2.473-1.084l.712-.702c.413,.419,1.236,.787,1.761,.787,.673,0,1.238-.465,1.342-1.105Zm7.015-3.399c0-1.378-1.121-2.5-2.5-2.5s-2.5,1.122-2.5,2.5v3c0,1.378,1.121,2.5,2.5,2.5,.509,0,.981-.154,1.377-.416l.77,.77,.707-.707-.77-.77c.262-.395,.416-.868,.416-1.377v-3Zm-1.646,3.146l-.707,.707,.496,.496c-.196,.094-.412,.15-.643,.15-.827,0-1.5-.673-1.5-1.5v-3c0-.827,.673-1.5,1.5-1.5s1.5,.673,1.5,1.5v3c0,.231-.057,.447-.15,.643l-.496-.496Z"/>
</svg>
