<svg id="Layer_1" viewBox="0 0 24 24" xmlns="http://www.w3.org/2000/svg" data-name="Layer 1"><path d="m22 15v-1.5c0-1.93-1.57-3.5-3.5-3.5s-3.5 1.57-3.5 3.5v1.5h-2v6.5c0 1.378 1.121 2.5 2.5 2.5h6c1.379 0 2.5-1.122 2.5-2.5v-6.5zm-6-1.5c0-1.378 1.121-2.5 2.5-2.5s2.5 1.122 2.5 2.5v1.5h-5zm7 8c0 .827-.673 1.5-1.5 1.5h-6c-.827 0-1.5-.673-1.5-1.5v-5.5h9zm-4-1h-1v-2h1zm-7-17.5c-4.007 0-7.773 1.561-10.606 4.394l-.707-.707c3.021-3.022 7.039-4.687 11.313-4.687s8.292 1.665 11.313 4.687l-.707.707c-2.833-2.833-6.6-4.394-10.606-4.394zm2.053 7.273c-.662-.175-1.349-.273-2.053-.273-2.137 0-4.146.832-5.657 2.343l-.707-.707c1.7-1.7 3.96-2.636 6.364-2.636.964 0 1.901.157 2.792.447-.273.25-.521.527-.739.827zm-3.053 6.005v3.444c-.595-.347-1-.985-1-1.722s.405-1.375 1-1.722z"/></svg>