<svg id="Layer_1" viewBox="0 0 24 24" xmlns="http://www.w3.org/2000/svg" data-name="Layer 1"><path d="m9.5 7c1.378 0 2.5-1.122 2.5-2.5s-1.122-2.5-2.5-2.5-2.5 1.122-2.5 2.5 1.122 2.5 2.5 2.5zm0-4c.827 0 1.5.673 1.5 1.5s-.673 1.5-1.5 1.5-1.5-.673-1.5-1.5.673-1.5 1.5-1.5zm.471 5.854c-.461-.527-1.208-.854-1.948-.854h-.359c-1.019 0-1.927.609-2.323 1.58l-1.153 3.384c-.461 1.125-.051 2.412.997 3.073l4.839 2.754v5.209h1v-5.791l-3.429-1.951 2.085-6.113 2.091 2.855h3.23v-1h-2.723l-2.306-3.146zm-4.273 6.325c-.616-.389-.862-1.162-.575-1.865l1.154-3.384c.231-.565.776-.931 1.387-.931h.359c.322 0 .648.104.901.263l-2.215 6.492zm18.302-8.907v-6.272h-6.272l-1.14 6.966c-.389.577-.587 1.085-.587 1.534 0 1.335 1.557 1.553 2.931 1.745.922.129 2.069.29 2.069.755 0 .374-.52 1-4 1v1c1.496 0 5 0 5-2 0-1.335-1.557-1.553-2.931-1.745-.922-.129-2.069-.29-2.069-.755 0-.173.085-.54.555-1.173l6.445-1.055zm-5.423-5.272h4.423v4.422l-5.289.866.866-5.288zm-14.14 16.913.889.506-.656 1.581h-4.67v-1h3.989z"/></svg>