<?xml version="1.0" encoding="UTF-8"?>
<svg xmlns="http://www.w3.org/2000/svg" id="Layer_1" data-name="Layer 1" viewBox="0 0 24 24">
  <path d="M23,20h1v.974c0,1.664-1.354,3.02-3.017,3.021h-.007c-.794,0-1.54-.309-2.103-.87-.563-.562-.874-1.311-.874-2.107,0-1.112,.434-2.158,1.22-2.944l2.442-2.442c1.776-1.776,1.792-4.683,.033-6.478L14.712,1.91,16.639-.012l.707,.708-1.231,1.228,2.63,2.728,1.204-1.204,.707,.707-1.216,1.216,2.522,2.616,1.333-1.334,.707,.707-1.369,1.37c1.892,2.195,1.816,5.53-.263,7.608l-2.442,2.442c-.598,.598-.927,1.393-.927,2.237,0,.529,.206,1.026,.581,1.4,.373,.372,.869,.577,1.396,.577h.005c1.113-.002,2.019-.908,2.019-2.021v-.974Zm-2.08-9.421L13.569,2.981l-.719,.695,7.351,7.598,.719-.695Zm-2.825,2.688c-.93,.97-2.604,.97-3.535,0l-1.558-1.562L.738,23.97,.031,23.263,12.296,10.997l-1.564-1.568c-.969-.929-.969-2.606,0-3.535l.414-.414-2.806-2.895c-.723-.75-1.891-.788-2.659-.088-.453,.413-.679,.941-.668,1.493l-.014,1.017-1-.014,.014-1c-.017-.822,.329-1.628,.948-2.192,1.219-1.11,2.998-1.051,4.098,.089l10.047,10.366-1.012,1.011Zm-5.092-2.976l1.424-1.424-2.585-2.667-.403,.403c-.582,.558-.582,1.563,0,2.121l1.563,1.568Zm4.699,1.955l-2.579-2.661-1.414,1.414,1.558,1.562c.567,.567,1.556,.567,2.121,0l.314-.314Z"/>
</svg>
