<svg id="Layer_1" viewBox="0 0 24 24" xmlns="http://www.w3.org/2000/svg" data-name="Layer 1"><path d="m12 5c1.378 0 2.5-1.121 2.5-2.5s-1.122-2.5-2.5-2.5-2.5 1.121-2.5 2.5 1.122 2.5 2.5 2.5zm0-4c.827 0 1.5.673 1.5 1.5s-.673 1.5-1.5 1.5-1.5-.673-1.5-1.5.673-1.5 1.5-1.5zm11 7.5c0-1.379-1.122-2.5-2.5-2.5h-3c-.821 0-1.544.403-2 1.015-.456-.613-1.179-1.015-2-1.015h-3c-.821 0-1.544.403-2 1.015-.456-.613-1.179-1.015-2-1.015h-3c-1.378 0-2.5 1.121-2.5 2.5v8.5h2v7h1v-7h2v7h1v-7h3v7h1v-7h2v7h1v-7h3v7h1v-7h2v7h1v-7h2zm-15 7.5h-6v-7.5c0-.827.673-1.5 1.5-1.5h3c.827 0 1.5.673 1.5 1.5zm7 0h-6v-7.5c0-.827.673-1.5 1.5-1.5h3c.827 0 1.5.673 1.5 1.5zm7 0h-6v-7.5c0-.827.673-1.5 1.5-1.5h3c.827 0 1.5.673 1.5 1.5zm-3-11c1.378 0 2.5-1.121 2.5-2.5s-1.122-2.5-2.5-2.5-2.5 1.121-2.5 2.5 1.122 2.5 2.5 2.5zm0-4c.827 0 1.5.673 1.5 1.5s-.673 1.5-1.5 1.5-1.5-.673-1.5-1.5.673-1.5 1.5-1.5zm-14 4c1.378 0 2.5-1.121 2.5-2.5s-1.122-2.5-2.5-2.5-2.5 1.121-2.5 2.5 1.122 2.5 2.5 2.5zm0-4c.827 0 1.5.673 1.5 1.5s-.673 1.5-1.5 1.5-1.5-.673-1.5-1.5.673-1.5 1.5-1.5z"/></svg>