<?xml version="1.0" encoding="UTF-8"?>
<svg xmlns="http://www.w3.org/2000/svg" id="Layer_1" data-name="Layer 1" viewBox="0 0 24 24">
  <path d="M11.5,5c1.379,0,2.5-1.122,2.5-2.5s-1.121-2.5-2.5-2.5-2.5,1.122-2.5,2.5,1.121,2.5,2.5,2.5Zm0-4c.827,0,1.5,.673,1.5,1.5s-.673,1.5-1.5,1.5-1.5-.673-1.5-1.5,.673-1.5,1.5-1.5ZM22,0h-4c-1.103,0-2,.897-2,2V11h-2.077l-2.281-3.79c-.449-.747-1.271-1.21-2.142-1.21H3.649L1.513,10.396l.898,.438,1.863-3.834h3.134l-2.244,5.463c-.461,1.125-.05,2.412,.967,3.055l4.869,3.25v5.232h1v-5.768l-3.019-2.015,2.841-6.769,1.536,2.551h3.642V2c0-.551,.448-1,1-1h4c.552,0,1,.449,1,1V23h-6V15h-1v9h8V2c0-1.103-.897-2-2-2ZM8.132,15.651l-1.456-.972c-.616-.389-.863-1.162-.586-1.836l2.4-5.843h1.01c.522,0,1.016,.278,1.285,.727l.394,.655-3.047,7.27Zm-3.112,1.53l.02,.014-1.206,2.805H0v-1H3.165l1.069-2.476c.236,.243,.491,.471,.786,.657Z"/>
</svg>
