<?xml version="1.0" encoding="UTF-8"?>
<svg xmlns="http://www.w3.org/2000/svg" id="Layer_1" data-name="Layer 1" viewBox="0 0 24 24">
  <path d="M24,8v-1h-4V3.688L12.5,.021,5,3.688v3.312H2.5c-1.378,0-2.5,1.122-2.5,2.5v12c0,1.378,1.122,2.5,2.5,2.5H24V11h-4v-3h4Zm-21.5,0h2.5v3H2.5c-.827,0-1.5-.673-1.5-1.5s.673-1.5,1.5-1.5Zm20.5,4v11H2.5c-.827,0-1.5-.673-1.5-1.5V11.499c.418,.314,.938,.501,1.5,.501H23Zm-17-1V4.312L12.5,1.134l6.5,3.178v6.688H6Zm13,6.5c0-.552,.448-1,1-1s1,.448,1,1-.448,1-1,1-1-.448-1-1ZM15,5h3v1h-1v4h-1V6h-1v-1Zm-3.5,0h2.5v1h-1.5v1h1.5v1h-1.5v2h-1V5Zm-2,0h1v5h-.79l-1.71-2.817v2.817h-1V5h.902l1.598,2.789v-2.789Z"/>
</svg>
