<?xml version="1.0" encoding="UTF-8"?>
<svg xmlns="http://www.w3.org/2000/svg" id="Layer_1" data-name="Layer 1" viewBox="0 0 24 24">
  <path d="m23.94,7.45l-.797-3.795c-.485-2.322-1.995-3.654-4.143-3.654-2.134,0-3.644,1.331-4.142,3.651-.274,1.277-.598,2.829-.801,3.802-.079.38.016.771.261,1.072.245.302.609.475.999.475h1.457c.128,1.119,1.069,1.994,2.221,1.994s2.094-.875,2.221-1.994h1.465c.39,0,.754-.173.999-.476.245-.302.339-.694.259-1.074Zm-4.945,2.544c-.598,0-1.075-.432-1.196-.994h2.392c-.121.562-.598.994-1.196.994Zm3.909-2.1c-.032.04-.104.106-.222.106h-7.365c-.119,0-.191-.066-.223-.105-.032-.04-.082-.122-.058-.237.203-.972.527-2.521.8-3.796.28-1.305,1.057-2.861,3.165-2.861,2.122,0,2.892,1.555,3.164,2.859l.797,3.797c.024.116-.025.199-.058.238Zm-8.752,9.319c-3.396-1.381-5.871-3.857-7.361-7.369l3.373-3.373L4.484.793,1.605,3.672C.57,4.705,0,6.104,0,7.613,0,14.811,9.189,24,16.387,24c1.509,0,2.909-.57,3.941-1.604l2.879-2.879-5.679-5.679-3.376,3.376Zm5.469,4.475c-.844.845-1.992,1.311-3.233,1.311C9.772,23,1,14.228,1,7.613c0-1.241.466-2.39,1.312-3.234l2.172-2.172,4.265,4.265-3.135,3.135.123.307c1.625,4.046,4.437,6.856,8.357,8.353l.303.115,3.13-3.13,4.265,4.265-2.173,2.173Z"/>
</svg>
