<?xml version="1.0" encoding="UTF-8"?>
<svg xmlns="http://www.w3.org/2000/svg" id="Layer_1" data-name="Layer 1" viewBox="0 0 24 24">
  <path d="M23.108,13.743c.578,.752,.892,1.665,.892,2.617,0,1.703-1.031,3.262-2.589,3.944-1.013,2.318-3.021,3.695-5.411,3.695v-1c2.106,.015,3.878-1.35,4.648-3.471,1.396-.444,2.359-1.704,2.352-3.169,.023-1.037-.526-1.966-1.279-2.657,.844-.643,1.34-1.656,1.333-2.744,.036-1.29-.827-2.35-2.181-3.026v-1.384c-.004-1.752-1.81-2.33-3.271-2.225,.19-1.64-.956-3.33-2.553-3.324-1.169,.039-2.454,.659-2.55,2v5h-1V3c0-1.179-1.289-2-2.446-2-1.594-.02-2.74,1.677-2.549,3.324-2.28-.308-3.698,1.396-3.271,3.608-1.353,.677-2.216,1.736-2.18,3.026-.01,1.038,.479,2.103,1.334,2.743-.754,.691-1.304,1.621-1.281,2.658-.008,1.465,.956,2.725,2.352,3.169,.544,1.375,1.674,3.43,4.541,3.471v1c-2.361,0-4.284-1.344-5.304-3.695-1.557-.683-2.589-2.241-2.589-3.944,0-.954,.315-1.869,.896-2.622C.368,12.889,.054,11.946,.054,10.959c0-1.498,.733-2.71,2.18-3.604v-.806c0-1.731,1.361-3.022,3.299-3.203,.227-1.856,1.747-3.346,3.521-3.346,1.133,0,2.306,.567,2.949,1.489,.665-.947,1.931-1.454,3.055-1.489,1.771,.015,3.288,1.503,3.516,3.346,1.938,.18,3.3,1.472,3.3,3.203v.806c1.447,.895,2.181,2.105,2.181,3.604,0,1.005-.326,1.964-.945,2.784Zm-5.608,1.757c0,1.964-1.069,3.788-2.792,4.763-.437,.246-.708,.75-.708,1.314v2.423h-4v-2.402c0-.575-.276-1.09-.72-1.343-2.074-1.179-3.125-3.465-2.678-5.824,.403-2.129,2.093-3.858,4.205-4.305,1.664-.351,3.359,.05,4.655,1.1,1.295,1.051,2.038,2.608,2.038,4.274Zm-4.5,6.077c0-.198,.031-.39,.073-.577h-2.148c.044,.194,.075,.392,.075,.598v1.402h2v-1.423Zm3.5-6.077c0-1.363-.608-2.638-1.668-3.497s-2.451-1.186-3.818-.898c-1.722,.363-3.101,1.775-3.43,3.512-.366,1.934,.493,3.806,2.19,4.77,.294,.168,.529,.412,.726,.687v-.072h1v-3.071c-.86-.224-1.5-1-1.5-1.929h1c0,.552,.449,1,1,1s1-.448,1-1h1c0,.929-.64,1.705-1.5,1.929v3.071h1v.063c.195-.269,.426-.508,.716-.671,1.409-.797,2.284-2.288,2.284-3.892Z"/>
</svg>
