<svg id="Layer_1" viewBox="0 0 24 24" xmlns="http://www.w3.org/2000/svg" data-name="Layer 1"><path d="m4.5 5c1.378 0 2.5-1.122 2.5-2.5s-1.122-2.5-2.5-2.5-2.5 1.122-2.5 2.5 1.122 2.5 2.5 2.5zm0-4c.827 0 1.5.673 1.5 1.5s-.673 1.5-1.5 1.5-1.5-.673-1.5-1.5.673-1.5 1.5-1.5zm1.5 8h1v15h-1v-7h-3v7h-1v-7h-2v-8.5c0-1.378 1.122-2.5 2.5-2.5h12.5v1h-12.5c-.827 0-1.5.673-1.5 1.5v7.5h5zm18 6v-12.5c0-1.378-1.121-2.5-2.5-2.5h-13.26c.206.308.37.644.494 1h12.766c.827 0 1.5.673 1.5 1.5v11.5h-14v1h5v2.071c-.86.224-1.5 1-1.5 1.929 0 1.103.897 2 2 2s2-.897 2-2c0-.929-.64-1.705-1.5-1.929v-2.071zm-8.5 4c0 .551-.448 1-1 1s-1-.449-1-1 .448-1 1-1 1 .449 1 1z"/></svg>