<svg id="Layer_1" viewBox="0 0 24 24" xmlns="http://www.w3.org/2000/svg" data-name="Layer 1"><path d="m11 1.99c0-.552 1-1.667 1-1.667s1 1.114 1 1.667-.448 1-1 1-1-.448-1-1zm3.538 1c.552 0 1-.448 1-1s-1-1.667-1-1.667-1 1.114-1 1.667.448 1 1 1zm2.462 0c.552 0 1-.448 1-1s-1-1.667-1-1.667-1 1.114-1 1.667.448 1 1 1zm2.5 0c.552 0 1-.448 1-1s-1-1.667-1-1.667-1 1.114-1 1.667.448 1 1 1zm-16.5-1c0-.552-1-1.667-1-1.667s-1 1.114-1 1.667.448 1 1 1 1-.448 1-1zm4 1c.552 0 1-.448 1-1s-1-1.666-1-1.666-1 1.114-1 1.667.448 1 1 1zm-2.5 0c.552 0 1-.448 1-1s-1-1.666-1-1.666-1 1.114-1 1.667.448 1 1 1zm5 0c.552 0 1-.448 1-1s-1-1.667-1-1.667-1 1.114-1 1.667.448 1 1 1zm12.5-2.666s-1 1.114-1 1.667.448 1 1 1 1-.448 1-1-1-1.667-1-1.667zm-.5 5.676c0 5.069-3.993 9.211-8.997 9.475v-1.5c4.175-.262 7.495-3.732 7.495-7.97l.005-1.002-1-.005-.005 1.005c0 3.688-2.871 6.712-6.494 6.972v-1.509c2.796-.256 4.993-2.611 4.993-5.469l.006-.993-1-.006-.006.996c0 2.307-1.753 4.192-3.993 4.447v-1.5c1.414-.242 2.496-1.467 2.496-2.946l.006-.991-1-.007-.006.994c0 .927-.637 1.702-1.495 1.927v-2.918s-.999 0-.999 0v2.921c-.864-.222-1.506-.999-1.506-1.927l.006-.991-1-.007-.006.994c0 1.485 1.087 2.712 2.505 2.95v1.5c-2.245-.25-4.002-2.137-4.002-4.445l.006-.993-1-.006-.006.996c0 2.864 2.202 5.221 5.001 5.472v1.509c-3.627-.256-6.501-3.281-6.501-6.969l.006-1.002-1-.006-.006 1.005c0 4.242 3.322 7.714 7.5 7.972v1.5c-5.007-.261-9.003-4.404-9.003-9.472l.006-1-1-.006-.006 1.003c0 5.622 4.445 10.212 10.002 10.475l-.002 6.525h-5.5v1h12v-1h-5.5l.002-6.525c5.556-.265 9.998-4.854 9.998-10.472l.006-1-1-.006-.006 1.003z"/></svg>