<svg id="Layer_1" viewBox="0 0 24 24" xmlns="http://www.w3.org/2000/svg" data-name="Layer 1"><path d="m19 20.5h-1v-2h1zm3-5.5h2v6.5c0 1.378-1.121 2.5-2.5 2.5h-6c-1.379 0-2.5-1.122-2.5-2.5v-6.5h2v-1.5c0-1.93 1.57-3.5 3.5-3.5s3.5 1.57 3.5 3.5zm-6 0h5v-1.5c0-1.378-1.121-2.5-2.5-2.5s-2.5 1.122-2.5 2.5zm7 1h-9v5.5c0 .827.673 1.5 1.5 1.5h6c.827 0 1.5-.673 1.5-1.5zm-11.982 5.676c.034.851.293 1.645.737 2.312-6.503-.132-11.755-5.454-11.755-11.988 0-6.617 5.383-12 12-12s12 5.383 12 12c0 .285-.023.564-.043.844-.122-1.024-.526-1.961-1.131-2.733-.128-.732-.335-1.436-.599-2.111h-14.496c-.439 1.247-.731 2.593-.731 4s.289 2.755.726 4h3.274v1h-2.886c.846 1.957 2.012 3.59 2.904 4.676zm4.871-14.676c-1.223-2.834-3.12-4.987-3.888-5.789-.761.797-2.649 2.95-3.878 5.789h7.767zm-2.648-5.922c1.015 1.144 2.657 3.254 3.727 5.922h4.805c-1.643-3.205-4.802-5.5-8.533-5.922zm-11.027 5.922h4.815c1.067-2.669 2.712-4.781 3.731-5.925-3.734.421-6.901 2.719-8.546 5.925zm-1.214 5c0 1.411.267 2.76.753 4h4.911c-.403-1.246-.664-2.589-.664-4s.265-2.752.669-4h-4.905c-.487 1.242-.764 2.588-.764 4zm9.76 10.925c-1.02-1.144-2.672-3.258-3.738-5.925h-4.813c1.645 3.205 4.817 5.504 8.551 5.925z"/></svg>