<svg id="Layer_1" viewBox="0 0 24 24" xmlns="http://www.w3.org/2000/svg" data-name="Layer 1"><path d="m21.681 10-.571-7.139c-.088-1.096-.892-2.019-1.955-2.243-1.337-.282-3.663-.618-7.155-.618s-5.822.337-7.16.619c-1.061.225-1.864 1.144-1.954 2.234l-.595 7.146h-2.291v2c0 1.103.897 2 2 2v10h4v-3h12v3h4v-4l-.002-6h.002c1.103 0 2-.897 2-2v-2h-2.319zm-17.799-7.063c.055-.654.533-1.205 1.165-1.339 1.291-.272 3.545-.598 6.953-.598s5.659.324 6.948.597c.634.134 1.113.687 1.166 1.345l.806 10.059h-17.877zm-2.882 9.063v-1h1.208l-.166 2h-.042c-.552 0-1-.448-1-1zm4 11h-2v-2h2zm16 0h-2v-2h2zm0-3h-18l-.002-6h3.002v2h1v-2h10v2h1v-2h3zm2-8c0 .552-.448 1-1 1h-.079l-.16-2h1.239z"/></svg>