<?xml version="1.0" encoding="UTF-8"?>
<svg xmlns="http://www.w3.org/2000/svg" id="Layer_1" data-name="Layer 1" viewBox="0 0 24 24">
  <path d="M1,23V2.5c0-.827,.673-1.5,1.5-1.5H12v7h7v1.773l1,1v-3.48L12.707,0H2.5C1.122,0,0,1.122,0,2.5V24H14.59l-1-1H1ZM13,1.707l5.293,5.293h-5.293V1.707Zm10.262,22.262l.707-.707-5.432-5.432,2.139-2.139,.89,.89,.707-.707-5.574-5.574-.707,.707,.891,.891-5.076,5.076-.89-.89-.707,.707,5.574,5.574,.707-.707-.891-.891,2.23-2.23,5.432,5.432Zm-10.748-6.288l5.076-5.076,2.379,2.379-5.077,5.076-2.379-2.379Z"/>
</svg>
