<?xml version="1.0" encoding="UTF-8"?>
<svg xmlns="http://www.w3.org/2000/svg" id="Layer_1" data-name="Layer 1" viewBox="0 0 24 24">
  <path d="m12,10c-1.794,0-3.485.219-5,.614v-3.369l6.458-3.262L8.171.16c-.468-.234-1.014-.209-1.459.065-.445.275-.711.752-.711,1.276v9.407c-3.612,1.193-6,3.45-6,6.091,0,3.925,5.271,7,12,7s12-3.075,12-7-5.271-7-12-7ZM7,1.501c0-.252.166-.381.237-.425.052-.033.169-.09.29-.09.043,0,4.016,2.844,4.016,2.844l-4.542,2.295V1.501Zm5,21.499c-6.065,0-11-2.691-11-6,0-2.102,1.992-3.954,5-5.026v5.026h1v-5.344c1.501-.42,3.201-.656,5-.656,6.065,0,11,2.691,11,6s-4.935,6-11,6Zm3-8c-1.103,0-2,.897-2,2s.897,2,2,2,2-.897,2-2-.897-2-2-2Zm0,3c-.551,0-1-.449-1-1s.449-1,1-1,1,.449,1,1-.449,1-1,1Z"/>
</svg>
