<svg id="Layer_1" viewBox="0 0 24 24" xmlns="http://www.w3.org/2000/svg" data-name="Layer 1"><path d="m24 13.188v-12.35l-6.646 1.892c-3.262-1.299-7.296-2.73-10.354-2.73-3.86 0-7 3.14-7 6.999 0 3.068 1.988 5.676 4.741 6.618l3.49 8.534c.589 1.501 2.447 2.266 3.923 1.615 1.526-.636 2.251-2.396 1.615-3.923l-2.73-6.527c1.965-.562 4.103-1.403 6.318-2.293l6.644 2.164zm-1-1.378-5-1.628v-6.596l5-1.424zm-22-4.811c0-3.308 2.691-5.999 6-5.999 2.893 0 6.82 1.396 10 2.663v6.426c-3.769 1.514-7.316 2.909-10 2.909-3.309 0-6-2.691-6-5.999zm11.846 13.229c.424 1.018-.06 2.191-1.077 2.615-1.019.425-2.192-.06-2.614-1.074l-3.214-7.86c.346.053.698.089 1.059.089.942 0 1.974-.166 3.061-.427z"/></svg>