<svg id="Layer_1" viewBox="0 0 24 24" xmlns="http://www.w3.org/2000/svg" data-name="Layer 1"><path d="m8 13.5c0 1.299 1 2.358 2.268 2.477-.084.32-.149.646-.193.981-1.728-.212-3.076-1.673-3.076-3.457 0-1.93 1.57-3.5 3.5-3.5 1.182 0 2.224.593 2.858 1.492-.272.194-.529.406-.774.632-.448-.676-1.214-1.124-2.084-1.124-1.378 0-2.5 1.121-2.5 2.5zm15-1.5v2.731c-1.068-1.639-2.901-2.731-5-2.731-3.309 0-6 2.691-6 6h1c0-2.757 2.243-5 5-5 1.628 0 3.067.79 3.978 2h-1.978v1h3c.552 0 1-.448 1-1v-3zm-5 11c-1.627 0-3.059-.791-3.969-2h1.969v-1h-3c-.551 0-1 .448-1 1v3h1v-2.705c1.074 1.626 2.91 2.705 5 2.705 3.309 0 6-2.691 6-6h-1c0 2.757-2.243 5-5 5zm-17-3h9v1h-10v-18.5c0-1.379 1.122-2.5 2.5-2.5h13.707l4.793 4.793v5.794c-.323-.131-.658-.237-1-.325v-5.055l-4-4v5.793h-11v-6h-2.5c-.827 0-1.5.673-1.5 1.5zm14-14v-5h-9v5z"/></svg>