<svg id="Layer_1" viewBox="0 0 24 24" xmlns="http://www.w3.org/2000/svg" data-name="Layer 1"><path d="m24 14.5c0-1.244-.915-2.27-2.107-2.46.677-.639 1.107-1.538 1.107-2.54v-4c0-3.033-2.468-5.5-5.5-5.5h-11c-3.032 0-5.5 2.467-5.5 5.5v4c0 1.002.429 1.901 1.107 2.54-1.191.19-2.107 1.216-2.107 2.46 0 .751.367 1.593 1 2.125v3.875c0 1.93 1.57 3.5 3.5 3.5h15c1.93 0 3.5-1.57 3.5-3.5v-4h-.015c.613-.456 1.015-1.179 1.015-2zm-22-5v-4c0-2.481 2.019-4.5 4.5-4.5h11c2.481 0 4.5 2.019 4.5 4.5v4c0 1.378-1.121 2.5-2.5 2.5h-15c-1.379 0-2.5-1.122-2.5-2.5zm20 11c0 1.378-1.121 2.5-2.5 2.5h-15c-1.379 0-2.5-1.122-2.5-2.5v-3.387c2.717.348 3.466 1.001 4.842 2.219.51.443 1.136.665 1.763.665s1.26-.224 1.774-.67c.605-.526 1.283-.975 2.016-1.334.599-.293 1.335-.188 1.901.293 1.04.889 2.578.905 3.583.034.729-.594 1.615-1.334 2.621-1.32h1c.171 0 .338-.018.5-.051zm-.5-4.5h-1c-1.248-.029-2.374.804-3.277 1.565-.632.548-1.609.532-2.306-.064-.845-.716-2.008-.876-2.963-.406-.811.397-1.561.894-2.231 1.477-.646.562-1.583.564-2.225.005-1.448-1.258-2.281-2.056-5.304-2.44-.715-.117-1.194-.941-1.194-1.637 0-.827.673-1.5 1.5-1.5h19c.827 0 1.5.673 1.5 1.5s-.673 1.5-1.5 1.5zm-6.5-12c0-.552.448-1 1-1s1 .448 1 1-.448 1-1 1-1-.448-1-1zm-3 3c0-.552.448-1 1-1s1 .448 1 1-.448 1-1 1-1-.448-1-1z"/></svg>