<?xml version="1.0" encoding="UTF-8"?>
<svg xmlns="http://www.w3.org/2000/svg" id="Layer_1" data-name="Layer 1" viewBox="0 0 24 24">
  <path d="M8.5,5c1.379,0,2.5-1.122,2.5-2.5s-1.121-2.5-2.5-2.5-2.5,1.122-2.5,2.5,1.121,2.5,2.5,2.5Zm0-4c.827,0,1.5,.673,1.5,1.5s-.673,1.5-1.5,1.5-1.5-.673-1.5-1.5,.673-1.5,1.5-1.5Zm2.406,6.782c-.319-1.066-1.282-1.782-2.395-1.782h-3.149L1.176,8.487,.098,13.212l.975,.223,.982-4.307,3.412-2.026-1.387,5.744c-.261,1.078,.23,2.213,1.195,2.761l4.726,2.685v5.709h1v-6.291l-2.794-1.587,1.954-7.347,.922,3.076,4.193,2.097,.447-.895-3.807-1.903-1.011-3.368Zm-5.138,6.956c-.579-.329-.874-1.01-.717-1.657l1.469-6.08h1.991c.387,0,.733,.156,1.002,.402l-2.164,8.233-1.581-.898Zm17.804-2.168l-2.719,2.718-.707-.707,2.581-2.58h-6.727v-1h6.656l-2.509-2.509,.707-.707,2.719,2.719c.569,.57,.569,1.497,0,2.066ZM4.286,17.346l.598,.34-1.447,6.314h-1.217l1.658-6.933c.133,.097,.263,.196,.408,.279Zm12.714-9.346h-1v-3h1v3Zm0-5h-1V0h1V3Zm-1,13h1v3h-1v-3Zm0,5h1v3h-1v-3Z"/>
</svg>
