<?xml version="1.0" encoding="UTF-8"?>
<svg xmlns="http://www.w3.org/2000/svg" id="Layer_1" data-name="Layer 1" viewBox="0 0 24 24">
  <path d="M17,5.355v1.182c1.447,.971,2.591,2.353,3.28,3.972l-6.722,1.331c-1.067,.213-2.161,.214-3.238-.001l-6.641-1.242c.685-1.658,1.848-3.07,3.321-4.059v-1.182c-2.984,1.732-5,4.953-5,8.645,0,5.514,4.486,10,10,10s10-4.486,10-10c0-3.692-2.016-6.913-5-8.645ZM3.02,14.4l4.24,.857c.811,.162,1.501,.672,1.895,1.399l.51,.943c.219,.404,.334,.861,.334,1.32v3.848c-3.875-.884-6.799-4.273-6.98-8.368Zm7.98,8.541v-4.021c0-.625-.157-1.246-.455-1.796l-.511-.943c-.536-.989-1.475-1.683-2.577-1.903l-4.418-.894c.043-.63,.144-1.243,.311-1.83l6.78,1.268c1.191,.239,2.435,.238,3.623,0l6.866-1.359c.187,.628,.3,1.285,.344,1.963l-4.42,.852c-1.103,.221-2.042,.915-2.578,1.903l-.511,.944c-.297,.55-.455,1.171-.455,1.796v4.021c-.329,.037-.662,.059-1,.059s-.671-.022-1-.059Zm3-.173v-3.848c0-.459,.116-.916,.334-1.32l.511-.943c.394-.727,1.084-1.237,1.892-1.398l4.241-.817c-.199,4.077-3.115,7.446-6.978,8.327ZM8.711,4.192l-.726-.688L10.807,.527c.594-.663,1.785-.672,2.396,.01l2.86,2.906-.713,.701-2.834-2.88-.016,7.737-1-.002,.016-7.767-2.805,2.96Z"/>
</svg>
