<svg id="Layer_1" viewBox="0 0 24 24" xmlns="http://www.w3.org/2000/svg" data-name="Layer 1"><path d="m21.5 2h-3.5v-2h-1v2h-10v-2h-1v2h-3.5c-1.379 0-2.5 1.122-2.5 2.5v19.5h24v-19.5c0-1.378-1.121-2.5-2.5-2.5zm-19 1h19c.827 0 1.5.673 1.5 1.5v2.5h-22v-2.5c0-.827.673-1.5 1.5-1.5zm6 12v-7h7v7zm7 1v7h-7v-7zm-8-1h-6.5v-7h6.5zm9-7h6.5v7h-6.5zm-15.5 8h6.5v7h-6.5zm15.5 7v-7h6.5v7zm-3.793-11.5 1.646 1.646-.707.707-1.646-1.646-1.646 1.646-.707-.707 1.646-1.646-1.646-1.646.707-.707 1.646 1.646 1.646-1.646.707.707zm8.96 6.325.699.715-2.375 2.326c-.206.206-.479.31-.752.31s-.55-.104-.759-.313l-1.347-1.298.693-.721 1.354 1.305c.034.033.079.033.107.007l2.379-2.33zm-14.801.715-2.374 2.326c-.206.206-.479.31-.752.31s-.55-.104-.759-.313l-1.347-1.298.693-.721 1.354 1.305c.034.033.079.033.107.007l2.378-2.33.699.715z"/></svg>