<svg id="Layer_1" viewBox="0 0 24 24" xmlns="http://www.w3.org/2000/svg" data-name="Layer 1"><path d="m20 12c-2.206 0-4 1.794-4 4 0 1.255.593 2.363 1.5 3.097v4.903l2.5-1.875 2.5 1.875v-4.903c.907-.734 1.5-1.842 1.5-3.097 0-2.206-1.794-4-4-4zm1.5 10-1.5-1.125-1.5 1.125v-2.298c.464.189.969.298 1.5.298s1.036-.109 1.5-.298zm-1.5-3c-1.654 0-3-1.346-3-3s1.346-3 3-3 3 1.346 3 3-1.346 3-3 3zm1.5-19h-19c-1.378 0-2.5 1.122-2.5 2.5v19.5h15.5v-1h-14.5v-13h22v2.809c.359.208.693.452 1 .728v-9.037c0-1.378-1.122-2.5-2.5-2.5zm-20.5 7v-4.5c0-.827.673-1.5 1.5-1.5h19c.827 0 1.5.673 1.5 1.5v4.5zm4-3c0 .552-.448 1-1 1s-1-.448-1-1 .448-1 1-1 1 .448 1 1zm3 0c0 .552-.448 1-1 1s-1-.448-1-1 .448-1 1-1 1 .448 1 1zm3.5 0c0 .552-.448 1-1 1s-1-.448-1-1 .448-1 1-1 1 .448 1 1zm-4.5 11c1.378 0 2.5-1.122 2.5-2.5s-1.122-2.5-2.5-2.5-2.5 1.122-2.5 2.5 1.122 2.5 2.5 2.5zm0-4c.827 0 1.5.673 1.5 1.5s-.673 1.5-1.5 1.5-1.5-.673-1.5-1.5.673-1.5 1.5-1.5zm3 8v-1c0-.551-.449-1-1-1h-4c-.551 0-1 .449-1 1v1h-1v-1c0-1.103.897-2 2-2h4c1.103 0 2 .897 2 2v1z"/></svg>