<svg id="Layer_1" viewBox="0 0 24 24" xmlns="http://www.w3.org/2000/svg" data-name="Layer 1"><path d="m1 2.5c0 .827.673 1.5 1.5 1.5h21.5v16h-10.262c.084-.326.151-.659.193-1h9.069v-14h-20.5c-.565 0-1.081-.195-1.5-.513v7.273c-.361.29-.694.613-1 .96v-10.22c0-1.379 1.122-2.5 2.5-2.5h21.5v1h-21.5c-.827 0-1.5.673-1.5 1.5zm20 9.5c0-.552-.448-1-1-1s-1 .448-1 1 .448 1 1 1 1-.448 1-1zm-10 2.731c-1.068-1.639-2.901-2.731-5-2.731-3.309 0-6 2.691-6 6h1c0-2.757 2.243-5 5-5 1.628 0 3.067.79 3.978 2h-1.978v1h3c.551 0 1-.448 1-1v-3h-1zm-5 8.269c-1.627 0-3.059-.791-3.969-2h1.969v-1h-3c-.551 0-1 .448-1 1v3h1v-2.705c1.074 1.626 2.91 2.705 5 2.705 3.309 0 6-2.691 6-6h-1c0 2.757-2.243 5-5 5z"/></svg>