<svg id="Layer_1" viewBox="0 0 24 24" xmlns="http://www.w3.org/2000/svg" data-name="Layer 1"><path d="m0 16.5v5c0 1.379 1.122 2.5 2.5 2.5s2.5-1.121 2.5-2.5v-4.5h2v-3h-4.5c-1.378 0-2.5 1.121-2.5 2.5zm6-.5h-2v5.5c0 .827-.673 1.5-1.5 1.5s-1.5-.673-1.5-1.5v-5c0-.827.673-1.5 1.5-1.5h3.5zm9.677-16h-3.353c-4.59 0-8.324 3.733-8.324 8.323v3.677c2.207.072 4.354-.435 6.06-1.298-.03.096-.06.193-.06.298 0 .552.448 1 1 1s1-.448 1-1c0-.469-.33-.845-.766-.953 1.032-.643 1.95-1.393 2.751-2.187.877.872 1.803 1.592 2.766 2.19-.428.113-.75.486-.75.95 0 .552.448 1 1 1s1-.448 1-1c0-.103-.03-.196-.058-.29 1.877.928 3.936 1.348 6.058 1.29v-3.677c-.001-4.59-3.734-8.323-8.324-8.323zm-10.677 10.989v-2.666c0-4.038 3.286-7.323 7.324-7.323h3.353c.584 0 1.151.068 1.696.198-.802 1.804-4.663 9.471-12.373 9.791zm18 .001c-3.087-.126-5.884-1.42-8.325-3.854 2.099-2.32 3.28-4.776 3.658-5.639 2.729 1.066 4.667 3.724 4.667 6.825v2.667zm-.623 3.01h1.08c-.829 2.27-2.895 4.651-5.458 5.968v4.032h-1v-3.582c-.96.368-1.97.582-3 .582s-2.041-.218-3-.588v3.588h-1v-4.037c-.342-.176-.677-.368-1-.579v-1.2c1.456 1.087 3.196 1.816 5 1.816 3.695 0 7.13-3.046 8.377-6z"/></svg>