<?xml version="1.0" encoding="UTF-8"?>
<svg xmlns="http://www.w3.org/2000/svg" id="Layer_1" data-name="Layer 1" viewBox="0 0 24 24">
  <path d="M23.821,11.18c-.877-1.918-4.32-8.18-11.821-8.18S1.055,9.265,.178,11.186c-.236,.519-.234,1.114,.003,1.635,.875,1.918,4.313,8.18,11.819,8.18s10.945-6.265,11.823-8.186c.235-.519,.235-1.115-.002-1.636Zm-.908,1.221c-.814,1.783-4.009,7.6-10.913,7.6S1.903,14.188,1.091,12.405c-.118-.257-.119-.55-.003-.805,.814-1.783,4.008-7.601,10.912-7.601s10.098,5.813,10.911,7.595c.117,.257,.118,.552,.002,.806ZM12,6c-3.309,0-6,2.691-6,6s2.691,6,6,6,6-2.691,6-6-2.691-6-6-6Zm0,11c-1.839,0-3.432-1.009-4.3-2.493l1.8-1.8,1.5,1.5,3-3v2.293h1v-3c0-.551-.448-1-1-1h-3v1h2.293l-2.293,2.293-1.5-1.5-2.236,2.236c-.157-.485-.264-.992-.264-1.529,0-2.757,2.243-5,5-5s5,2.243,5,5-2.243,5-5,5Z"/>
</svg>
