<?xml version="1.0" encoding="UTF-8"?>
<svg xmlns="http://www.w3.org/2000/svg" id="Layer_1" data-name="Layer 1" viewBox="0 0 24 24">
  <path d="M17.5,11c-3.584,0-6.5,2.916-6.5,6.5s2.916,6.5,6.5,6.5,6.5-2.916,6.5-6.5-2.916-6.5-6.5-6.5Zm0,12c-3.033,0-5.5-2.468-5.5-5.5s2.467-5.5,5.5-5.5,5.5,2.468,5.5,5.5-2.467,5.5-5.5,5.5Zm2.94-7.451l.701,.713-3.457,3.399c-.217,.218-.51,.339-.822,.339s-.604-.121-.825-.342l-1.851-1.794,.696-.719,1.856,1.8c.061,.062,.186,.062,.241,.006l3.46-3.402ZM11.085,4h0c3.151,0,5.812,2.123,6.642,5.011-.076-.002-.151-.011-.227-.011-.281,0-.558,.015-.832,.042-.788-2.341-2.98-4.042-5.583-4.042-1.676,0-3.282,.719-4.404,1.972l-.745-.667c1.312-1.465,3.189-2.304,5.149-2.305,0,0,0,0,0,0h0Zm-6.085,7c0,8.351-3.827,9-5,9v-1c.938,0,4-.577,4-8,0-.365,.03-.729,.09-1.083l.986,.167c-.051,.299-.077,.607-.077,.917ZM1,14H0v-3C0,4.935,4.935,0,11,0c2.4,0,4.683,.763,6.601,2.206l-.602,.799c-1.744-1.312-3.818-2.005-6-2.005C5.486,1,1,5.486,1,11v3Zm10-5c-1.103,0-2,.897-2,2,0,6.026-1.596,10.04-4.743,11.929l-.515-.857c2.825-1.695,4.257-5.42,4.257-11.071,0-1.654,1.346-3,3-3,1.254,0,2.327,.774,2.775,1.869-.306,.15-.603,.314-.887,.498-.267-.792-1.007-1.367-1.888-1.367Zm9-2.355l.899-.438c.624,1.283,.968,2.65,1.06,4.067-.336-.208-.684-.396-1.048-.556-.136-1.066-.436-2.096-.911-3.073Z"/>
</svg>
