<?xml version="1.0" encoding="UTF-8"?>
<svg xmlns="http://www.w3.org/2000/svg" id="Layer_1" data-name="Layer 1" viewBox="0 0 24 24">
  <path d="m10,15H2c-1.103,0-2,.897-2,2v7h12v-7c0-1.103-.897-2-2-2Zm-8,1h8c.178,0,.336.059.48.141l-3.42,3.42c-.565.567-1.554.567-2.121,0l-3.42-3.42c.145-.082.303-.141.48-.141Zm9,7H1v-5.965l3.232,3.232c.472.472,1.1.732,1.768.732s1.296-.26,1.768-.732l3.232-3.232v5.965ZM24,6v12h-10v-1h9V6c0-2.761-2.239-5-5-5h-8.69c1.62,1.076,2.69,2.914,2.69,5v7h-1v-7c0-2.761-2.239-5-5-5S1,3.239,1,6v7H0v-7.188C0,2.602,2.602,0,5.812,0h12.188c3.314,0,6,2.686,6,6Zm-5,5v-3h-5v-1h6v4h-1Zm-11-4v1h-4v-1h4Z"/>
</svg>
