<svg id="Layer_1" viewBox="0 0 24 24" xmlns="http://www.w3.org/2000/svg" data-name="Layer 1"><path d="m24 21.5v2.5h-1v-2.5c0-4.136-3.364-7.5-7.5-7.5h-4.858c-.905 0-1.642.736-1.642 1.642.004.519.248 1.017.66 1.302l-.003.005c.216.164.471.279.753.32l5.654.736-.129.992-5.661-.737c-.427-.061-.814-.232-1.148-.469l-5.825-3.57c-.686-.44-1.666-.202-2.077.498-.431.703-.212 1.631.486 2.068l7.594 4.768c1.517.951 3.262 1.453 5.048 1.453.061 0 1.586-.007 1.646-.007l.004 1c-.068 0-1.581.007-1.649.007-1.975 0-3.902-.555-5.579-1.605l-7.594-4.769c-1.16-.727-1.524-2.269-.809-3.438.683-1.166 2.316-1.561 3.454-.829l4.203 2.576c-.012-.1-.028-.199-.028-.301 0-1.457 1.185-2.642 2.642-2.642h4.858c4.687 0 8.5 3.813 8.5 8.5zm0-19v8.5h-24v-8.5c0-1.379 1.121-2.5 2.5-2.5h19c1.379 0 2.5 1.121 2.5 2.5zm-14.908-1.5c.207.581.757 1 1.408 1h3c.651 0 1.201-.419 1.408-1zm13.908 5h-7.051c-.232 1.14-1.242 2-2.449 2h-3c-1.208 0-2.217-.86-2.449-2h-7.051v4h22zm-12.5 1h3c.651 0 1.201-.419 1.408-1h-5.816c.207.581.757 1 1.408 1zm12.5-4.5c0-.827-.673-1.5-1.5-1.5h-5.551c-.232 1.14-1.242 2-2.449 2h-3c-1.208 0-2.217-.86-2.449-2h-5.551c-.827 0-1.5.673-1.5 1.5v2.5h22z"/></svg>