<?xml version="1.0" encoding="UTF-8"?>
<svg xmlns="http://www.w3.org/2000/svg" id="Layer_1" data-name="Layer 1" viewBox="0 0 24 24">
  <path d="M9.025,18c.02,.339,.057,.673,.115,1h-2.489l-4.09,2.721c-.507,.338-1.155,.369-1.691,.082-.537-.287-.871-.844-.871-1.453V2.5C0,1.122,1.122,0,2.5,0H19.5c1.378,0,2.5,1.122,2.5,2.5v7.798c-.32-.2-.653-.381-1-.538V2.5c0-.827-.673-1.5-1.5-1.5H2.5c-.827,0-1.5,.673-1.5,1.5V20.35c-.018,.502,.599,.834,1.007,.539l4.341-2.889h2.677Zm14.975-.5c0,3.584-2.916,6.5-6.5,6.5s-6.5-2.916-6.5-6.5,2.916-6.5,6.5-6.5,6.5,2.916,6.5,6.5Zm-1,0c0-3.033-2.467-5.5-5.5-5.5s-5.5,2.467-5.5,5.5,2.467,5.5,5.5,5.5,5.5-2.467,5.5-5.5Zm-5-.5h3v1h-3v3.587l-3.584-3.075c-.55-.524-.551-1.477-.003-2.003l3.588-3.102v3.593Zm-1-1.407l-1.907,1.648c-.124,.123-.126,.419,.017,.552l1.89,1.62v-3.82Z"/>
</svg>
