<?xml version="1.0" encoding="UTF-8"?>
<svg xmlns="http://www.w3.org/2000/svg" id="Layer_1" data-name="Layer 1" viewBox="0 0 24 24">
  <path d="m11.988,0C5.372,0-.012,5.383-.012,12s5.383,12,12,12,12-5.383,12-12S18.605,0,11.988,0Zm11,12c0,.93-.117,1.834-.335,2.698l-2.874-.879c.136-.585.209-1.193.209-1.819s-.072-1.234-.209-1.819l2.873-.88c.219.864.336,1.768.336,2.699Zm-11,7c-3.86,0-7-3.141-7-7s3.14-7,7-7,7,3.141,7,7-3.141,7-7,7ZM.988,12c0-.911.112-1.796.322-2.643l2.884.834c-.135.581-.206,1.187-.206,1.809,0,.626.072,1.234.209,1.819l-2.873.88c-.219-.864-.335-1.768-.335-2.699Zm21.374-3.657l-2.872.88c-.81-2.182-2.547-3.918-4.73-4.727l.862-2.878c3.139,1.102,5.631,3.589,6.74,6.725ZM14.666,1.33l-.862,2.878c-.583-.136-1.191-.208-1.816-.208s-1.234.072-1.818.208l-.873-2.875c.862-.217,1.763-.334,2.691-.334.923,0,1.82.115,2.677.33Zm-6.326.293l.873,2.874c-2.185.811-3.922,2.55-4.731,4.736l-2.887-.835c1.097-3.157,3.594-5.664,6.745-6.775ZM1.614,15.657l2.872-.88c.809,2.18,2.543,3.914,4.722,4.724l-.895,2.866c-3.12-1.109-5.595-3.589-6.698-6.711Zm7.655,7.003l.896-2.869c.586.137,1.196.21,1.823.21s1.237-.073,1.823-.21l.895,2.87c-.87.222-1.78.34-2.718.34s-1.849-.118-2.72-.341Zm6.394-.291l-.894-2.867c2.179-.81,3.913-2.545,4.722-4.724l2.872.878c-1.104,3.123-3.58,5.603-6.7,6.713Zm-7.299-10.368l3.625,4.833,3.625-4.833-3.625-4.833-3.625,4.833Zm3.625,3.167l-2.375-3.167,2.375-3.167,2.375,3.167-2.375,3.167Z"/>
</svg>
