<?xml version="1.0" encoding="UTF-8"?>
<svg xmlns="http://www.w3.org/2000/svg" id="Layer_1" data-name="Layer 1" viewBox="0 0 24 24">
  <path d="M18.5,11c1.469,0,2.851-.572,3.889-1.611,1.039-1.039,1.611-2.42,1.611-3.889s-.572-2.851-1.611-3.889c-1.038-1.039-2.42-1.611-3.889-1.611s-2.851,.572-3.889,1.611c-1.039,1.039-1.611,2.42-1.611,3.889s.572,2.851,1.611,3.889c1.038,1.039,2.42,1.611,3.889,1.611ZM15.318,2.318c.85-.85,1.979-1.318,3.182-1.318s2.332,.468,3.182,1.318c.851,.85,1.318,1.98,1.318,3.182s-.468,2.332-1.318,3.182c-.85,.85-1.979,1.318-3.182,1.318s-2.332-.468-3.182-1.318c-.851-.85-1.318-1.98-1.318-3.182s.468-2.332,1.318-3.182Zm7.682,9.172c.36-.271,.694-.573,1-.903v13.413H0V6.5c0-1.378,1.121-2.5,2.5-2.5H11v1H2.5c-.534,0-1,.282-1.266,.703L9.506,13.975c1.365,1.365,3.585,1.366,4.95,0h0s1.411-1.459,1.411-1.459c.35,.131,.709,.244,1.082,.322l-1.786,1.845h0c-.877,.877-2.029,1.316-3.182,1.316s-2.305-.439-3.182-1.316L1,6.883V23H23V11.49Zm-5-5.49h-2v-1h2V3h1v2h2v1h-2v2h-1v-2Z"/>
</svg>
