<svg id="Layer_1" viewBox="0 0 24 24" xmlns="http://www.w3.org/2000/svg" data-name="Layer 1"><path d="m20 5.5c0-1.379-1.122-2.5-2.5-2.5h-11c-1.378 0-2.5 1.121-2.5 2.5v5.5h-4v1h24v-1h-4zm-6.278 5.5c-.347-.595-.985-1-1.722-1s-1.375.405-1.722 1h-2.136c.447-1.721 2-3 3.858-3s3.411 1.279 3.858 3zm3.177 0c-.465-2.279-2.484-4-4.899-4s-4.434 1.721-4.899 4h-2.101v-5.5c0-.827.673-1.5 1.5-1.5h11c.827 0 1.5.673 1.5 1.5v5.5zm-11.899 3v4.5c0 .827.673 1.5 1.5 1.5h11c.827 0 1.5-.673 1.5-1.5v-4.5h1v4.5c0 1.379-1.122 2.5-2.5 2.5h-11c-1.378 0-2.5-1.121-2.5-2.5v-4.5zm-4-7h-1v-4.5c0-1.379 1.122-2.5 2.5-2.5h4.5v1h-4.5c-.827 0-1.5.673-1.5 1.5zm23-4.5v4.5h-1v-4.5c0-.827-.673-1.5-1.5-1.5h-4.5v-1h4.5c1.378 0 2.5 1.121 2.5 2.5zm-1 14.5h1v4.5c0 1.379-1.122 2.5-2.5 2.5h-4.5v-1h4.5c.827 0 1.5-.673 1.5-1.5zm-20.5 6h4.5v1h-4.5c-1.378 0-2.5-1.121-2.5-2.5v-4.5h1v4.5c0 .827.673 1.5 1.5 1.5zm9.5-6c-2.045 0-3.802-1.237-4.576-3h1.133c.694 1.19 1.97 2 3.444 2s2.75-.81 3.444-2h1.133c-.774 1.763-2.531 3-4.576 3z"/></svg>