<?xml version="1.0" encoding="UTF-8"?>
<svg xmlns="http://www.w3.org/2000/svg" id="Layer_1" data-name="Layer 1" viewBox="0 0 24 24">
  <path d="M14.707,0H4.5c-1.379,0-2.5,1.122-2.5,2.5V24H22V7.293L14.707,0Zm.293,1.707l5.293,5.293h-5.293V1.707ZM3,23V2.5c0-.827,.673-1.5,1.5-1.5H14v7h7v15H3Zm14.983-10h1.029l-1.252,6h-1.25l-1.511-6h1.093l1.01,4.256,.88-4.256Zm-9.997,4h1v.015c0,1.094-.902,1.985-2.012,1.985-1.086,0-1.967-.881-1.967-1.967l-.008-2.066c0-1.086,.881-1.967,1.967-1.967,1.109,0,2.012,.891,2.012,1.985v.015h-1.001c-.002-.56-.454-1-1.011-1-.533,0-.967,.434-.967,.967l.008,2.063c0,.537,.434,.97,.967,.97,.558,0,1.012-.442,1.012-.985v-.015Zm6.014,.307c0,1.111-.943,1.693-1.876,1.693-.965,0-1.862-.772-1.961-.86l.663-.749c.192,.169,.801,.608,1.298,.608,.036,0,.876-.008,.876-.693,0-.368-.411-.586-1.09-.9-.735-.342-1.651-.767-1.651-1.783,0-1.055,.901-1.624,1.75-1.624,.769,0,1.653,.671,1.752,.747l-.613,.79c-.288-.223-.833-.537-1.139-.537-.26,0-.75,.13-.75,.624,0,.352,.405,.565,1.073,.875,.743,.345,1.668,.775,1.668,1.808Z"/>
</svg>
