<?xml version="1.0" encoding="UTF-8"?>
<svg xmlns="http://www.w3.org/2000/svg" id="Layer_1" data-name="Layer 1" viewBox="0 0 24 24">
  <path d="m14.151,17.214c-3.397-1.381-5.871-3.858-7.361-7.37l3.373-3.372L4.484.793,1.605,3.672C.57,4.705,0,6.105,0,7.613,0,14.812,9.189,24,16.387,24c1.509,0,2.909-.57,3.941-1.605l2.879-2.879-5.679-5.679-3.376,3.377Zm5.469,4.475c-.844.846-1.992,1.312-3.233,1.312C9.772,23,1,14.229,1,7.613c0-1.241.466-2.39,1.312-3.234l2.172-2.172,4.265,4.265-3.135,3.135.123.307c1.625,4.046,4.437,6.856,8.357,8.353l.303.116,3.13-3.131,4.265,4.265-2.173,2.173Zm1.037-17.688l-.896-3.272h-1.502l-.897,3.272h-3.361v1.453l2.317,1.336-1.081,2.955,1.158.861,2.615-2.075,2.609,2.093,1.205-.832-1.171-2.968,2.347-1.378v-1.445h-3.343Zm-.249,2.394l1.141,2.892-2.537-2.034-2.535,2.012,1.068-2.919-2.33-1.344h2.907l.886-3.23.885,3.23h2.889l-2.375,1.394Z"/>
</svg>
