<?xml version="1.0" encoding="UTF-8"?>
<svg xmlns="http://www.w3.org/2000/svg" id="Layer_1" data-name="Layer 1" viewBox="0 0 24 24">
  <path d="M20.879,13.55c-1.167-.35-2.205-.565-3.119-.755-1.964-.408-3.401-.706-4.76-2.004V2.5c.057-1.616-1.549-2.795-3.062-2.442l-4.053,1.942H0V24H8v-3.517l3,1.091v2.426h1v-2.083c.329,.051,.663,.083,.997,.083h2.003v2h1v-2h3v2h1v-2h3v2h1v-5.5c0-2.046-1.077-4.404-3.121-4.95ZM6,3v3.5c0,.276-.224,.5-.5,.5H1V3H6Zm1,20H1v-3H6c.395,.015,.7-.004,1,.119v2.881Zm5.997-2c-.303,0-.606-.025-.815-.052l-5.112-1.859c-.352-.059-.711-.089-1.069-.089H1V8H5.5c.827,0,1.5-.673,1.5-1.5V2.53l3.208-1.507c.92-.108,1.751,.344,1.792,1.477v7.923l-2.749,1.579,.498,.867,2.491-1.43c.712,.697,1.438,1.151,2.21,1.478l-1.499,2.624,.868,.496,1.585-2.774c.672,.202,1.382,.351,2.153,.511,.896,.186,1.91,.396,3.05,.737,1.554,.415,2.393,2.365,2.393,3.988v2.5H12.997Z"/>
</svg>
