<svg id="Layer_1" viewBox="0 0 24 24" xmlns="http://www.w3.org/2000/svg" data-name="Layer 1"><path d="m24 2.789c0-1.59-1.199-2.789-2.789-2.789-2.183 0-4.391.194-7.067 1.937l-1.644-1.644-3.707 3.707 1.384 1.384c-1.414 1.466-2.749 2.989-4.005 4.581l-1.172-1.172-3.707 3.707 1.773 1.773c-1.042 1.579-2.04 3.24-2.968 4.949l4.679 4.679c1.71-.927 3.369-1.926 4.949-2.968l1.774 1.774 3.707-3.707-1.172-1.172c1.592-1.256 3.115-2.59 4.581-4.005l1.384 1.384 3.707-3.707-1.644-1.644c1.743-2.676 1.937-4.884 1.937-7.067zm-13.793 1.211 2.293-2.293.81.81c-.764.571-1.607 1.299-2.439 2.147zm-7.5 8.5 2.293-2.293.555.555c-.661.867-1.303 1.753-1.923 2.663l-.924-.924zm2.247 10.163-3.617-3.617c2.888-5.199 6.267-9.703 10.322-13.759 3.965-3.964 6.672-4.287 9.552-4.287 1.037 0 1.789.752 1.789 1.789 0 2.88-.322 5.587-4.287 9.552-4.055 4.055-8.56 7.434-13.759 10.322zm8.839-3.663-2.293 2.293-.924-.924c.909-.62 1.796-1.262 2.663-1.923l.555.555zm8.5-7.5-2.293 2.293-.664-.664c.848-.832 1.576-1.675 2.147-2.439z"/></svg>