<svg id="Layer_1" viewBox="0 0 24 24" xmlns="http://www.w3.org/2000/svg" data-name="Layer 1"><path d="m9 16v-2c0-.551-.448-1-1-1h-3c-.552 0-1 .449-1 1v2h-1v-2c0-1.103.897-2 2-2h3c1.103 0 2 .897 2 2v2zm-2.5-5c-1.379 0-2.5-1.122-2.5-2.5s1.121-2.5 2.5-2.5 2.5 1.122 2.5 2.5-1.121 2.5-2.5 2.5zm0-1c.827 0 1.5-.673 1.5-1.5s-.673-1.5-1.5-1.5-1.5.673-1.5 1.5.673 1.5 1.5 1.5zm17.5-5v6.5c0 1.378-1.121 2.5-2.5 2.5h-6c-1.379 0-2.5-1.122-2.5-2.5v-6.5h2v-1.5c0-1.93 1.57-3.5 3.5-3.5s3.5 1.57 3.5 3.5v1.5zm-8 0h5v-1.5c0-1.378-1.121-2.5-2.5-2.5s-2.5 1.122-2.5 2.5zm7 1h-9v5.5c0 .827.673 1.5 1.5 1.5h6c.827 0 1.5-.673 1.5-1.5zm-4 2.5h-1v2h1zm4 10.5h-22v-14.5c0-.827.673-1.5 1.5-1.5h10.525c.031-.344.096-.677.188-1h-10.713c-1.379 0-2.5 1.122-2.5 2.5v15.5h11.5v3h-5.5v1h12v-1h-5.5v-3h11.5v-4.762c-.307.206-.647.359-1 .485v3.276z"/></svg>