<svg id="Layer_1" viewBox="0 0 24 24" xmlns="http://www.w3.org/2000/svg" data-name="Layer 1"><path d="m23 16h1v8h-.79l-3.21-5.617v5.617h-1v-8h.79l3.21 5.617zm-6 5.5c0 .827-.673 1.5-1.5 1.5s-1.5-.673-1.5-1.5v-5.5h-1v5.5c0 1.379 1.122 2.5 2.5 2.5s2.5-1.121 2.5-2.5v-5.5h-1zm-6 0c0 .827-.673 1.5-1.5 1.5s-1.5-.673-1.5-1.5v-.5h-1v.5c0 1.379 1.122 2.5 2.5 2.5s2.5-1.121 2.5-2.5v-5.5h-1zm13-17v9.5h-1v-5h-22v14h4.616c.112.355.267.691.463 1h-6.079v-19.5c0-1.378 1.122-2.5 2.5-2.5h3.5v-2h1v2h10v-2h1v2h3.5c1.378 0 2.5 1.122 2.5 2.5zm-1 3.5v-3.5c0-.827-.673-1.5-1.5-1.5h-19c-.827 0-1.5.673-1.5 1.5v3.5z"/></svg>