<svg id="Layer_1" viewBox="0 0 24 24" xmlns="http://www.w3.org/2000/svg" data-name="Layer 1"><path d="m11.5 3h1v2h-1zm0 6h1v-2h-1zm0 4h1v-2h-1zm0 4h1v-2h-1zm-5.299-11-2.352 2.428.719.695 1.432-1.478v6.355h1v-8zm11.859 5.81c1.087-.718 2.439-1.612 2.439-3.31 0-1.378-1.122-2.5-2.5-2.5s-2.5 1.122-2.5 2.5h1c0-.827.673-1.5 1.5-1.5s1.5.673 1.5 1.5c0 1.16-.967 1.799-1.991 2.475-.988.653-2.009 1.328-2.009 2.525v.5h5v-1h-3.854c.253-.423.803-.787 1.414-1.19zm-5.561 7.19v3h5.5v1h-11.999v-1h5.5v-3h-11.5v-15.5c0-1.378 1.122-2.5 2.5-2.5h19c1.378 0 2.5 1.122 2.5 2.5v15.5h-11.5zm-11.5-1h22.001v-14.5c0-.827-.673-1.5-1.5-1.5h-19c-.827 0-1.5.673-1.5 1.5v14.5z"/></svg>