<?xml version="1.0" encoding="UTF-8"?>
<svg xmlns="http://www.w3.org/2000/svg" id="Layer_1" data-name="Layer 1" viewBox="0 0 24 24">
  <path d="m23.239.762c-.55-.552-1.31-.82-2.084-.749-2.334.229-8.233,1.229-12.584,5.58C4.22,9.942,1.996,14.276.008,19.368l4.604,4.604c5.131-2.002,9.481-4.229,13.795-8.543,4.35-4.349,5.352-10.25,5.581-12.585.075-.772-.197-1.532-.749-2.083Zm-.247,1.985c-.218,2.229-1.171,7.855-5.292,11.976-4.105,4.105-7.978,6.16-12.844,8.08l-1.476-1.476,13.097-13.096-.707-.707L2.673,20.62l-1.496-1.496c1.907-4.828,3.96-8.684,8.101-12.824C13.4,2.178,19.025,1.226,21.253,1.009c.474-.055.94.121,1.279.46s.507.805.46,1.278Z"/>
</svg>
