<svg id="Layer_1" viewBox="0 0 24 24" xmlns="http://www.w3.org/2000/svg" data-name="Layer 1"><path d="m23 11v-2c0-1.103-.897-2-2-2h-1.379c.912-2.402 1.379-3.935 1.379-4.541 0-1.379-1.098-2.459-2.5-2.459s-2.5 1.081-2.5 2.459c0 .605.468 2.139 1.379 4.541h-1.379c-1.103 0-2 .897-2 2v2h-1v1h11v-1zm-6-8.541c0-.818.659-1.459 1.5-1.459s1.5.641 1.5 1.459c0 .486-.539 2.172-1.448 4.541h-.104c-.91-2.369-1.448-4.055-1.448-4.541zm-2 6.541c0-.551.449-1 1-1h5c.551 0 1 .449 1 1v2h-7zm5 5h-1v4h-9v3c0 1.103-.897 2-2 2s-2-.897-2-2v-18c0-.771-.301-1.468-.78-2h9.039c.121-.355.271-.694.473-1h-11.732c-1.654 0-3 1.346-3 3v3h5v15c0 1.654 1.346 3 3 3h13c1.654 0 3-1.346 3-3v-3h-4zm-15-9h-4v-2c0-1.103.897-2 2-2s2 .897 2 2zm18 16c0 1.103-.897 2-2 2h-10.766c.476-.531.766-1.232.766-2v-2h12z"/></svg>