<svg id="Layer_1" viewBox="0 0 24 24" xmlns="http://www.w3.org/2000/svg" data-name="Layer 1"><path d="m15.5 3.039h-8c-.827 0-1.5-.673-1.5-1.5v-1.5h-1v1.5c0 1.378 1.122 2.5 2.5 2.5h1.5v9.999c0 2.408-3.082 3.788-3.597 4.002h-.903c-1.378 0-2.5 1.121-2.5 2.5v3.498h1v-3.498c0-.827.673-1.5 1.5-1.5h.863c2.469 1.469 5.051 2.969 10.139 2.998 1.714.01 3.339-.659 4.57-1.883 1.244-1.236 1.929-2.875 1.929-4.615v-6.001c0-3.584-2.916-6.5-6.5-6.5zm0 1c3.033 0 5.5 2.467 5.5 5.5v2.103c-.602-.295-1.52-.603-2.773-.603-1.176 0-1.941.269-2.682.528-.691.243-1.345.472-2.351.472-1.54 0-2.725-.539-3.195-.79v-7.21h5.5zm3.867 15.408c-1.041 1.035-2.413 1.6-3.859 1.592-4.351-.024-6.693-1.141-8.935-2.445 1.269-.673 3.428-2.168 3.428-4.555v-1.679c.696.309 1.814.68 3.195.68 1.176 0 1.941-.269 2.682-.529.691-.243 1.345-.472 2.351-.472 1.519 0 2.429.51 2.773.747v2.754c0 1.472-.58 2.859-1.633 3.906zm-16.822-6.81c.334.099.688.035.945-.16l1.1-.741 1.553 2.935.857-.444v-6.208c-.024-.399-.264-.75-.626-.918-.361-.169-.785-.123-1.116.126l-1.013.813-.798-2.355-3.058 2.298 1.439 3.981c.12.328.381.573.717.672zm-.964-4.298 1.362-1.024.814 2.4s2.131-1.655 2.163-1.682.081-.007.081.053v4.177l-1.047-1.978s-1.879 1.259-2.021 1.363-.164-.025-.164-.025z"/></svg>