<?xml version="1.0" encoding="UTF-8"?>
<svg xmlns="http://www.w3.org/2000/svg" id="Layer_1" data-name="Layer 1" viewBox="0 0 24 24">
  <path d="M1.67,9.27c-.524,.652-.035,1.707,.801,1.729h5.774s.433-.833,.433-.833l-2.586-1.552,.742-1.102c.445-.558,.177-1.459-.5-1.684l-3.979-1.438L.057,7.446l2.378,.806-.765,1.018Zm.016-2.328l1.022-1.359,3.342,1.245-1.376,2.101,1.784,1.071H2.5c-.063-.005-.079-.069-.031-.129l1.595-2.122-2.378-.806Zm17.835,1.788c.798-1.081,.515-2.732-.599-3.484l-.817-.577c-.64-.452-1.396-.692-2.104-.669h-3.262l-3.149,4.543,.822,.569,2.851-4.113h2.753c.008,0,.016,.002,.024,.001l-3.796,5.477c-.795,1.126-.526,2.689,.602,3.486l6.156,4.297v5.739h1v-6.261l-4.535-3.165,4.055-5.844Zm-6.103,4.415c-.675-.477-.836-1.415-.356-2.095l4.029-5.812c.151,.07,.299,.149,.437,.247l.817,.577c.669,.454,.839,1.442,.356,2.094l-4.056,5.845-1.227-.856ZM21.5,0c-1.379,0-2.5,1.122-2.5,2.5s1.121,2.5,2.5,2.5,2.5-1.122,2.5-2.5-1.121-2.5-2.5-2.5Zm0,4c-.827,0-1.5-.673-1.5-1.5s.673-1.5,1.5-1.5,1.5,.673,1.5,1.5-.673,1.5-1.5,1.5ZM6.092,15.386l2.586-1.553-.433-.833H2.471c-.836,.023-1.325,1.078-.801,1.73l.765,1.017L.057,16.554l2.298,3.058,3.981-1.439c.665-.214,.939-1.126,.514-1.662l-.758-1.124Zm-.098,1.847l-3.284,1.188-1.024-1.362,2.378-.807-1.661-2.279c.911,.006,4.055,.028,4.055,.028l-1.784,1.071,1.346,1.997c.037,.053,.052,.132-.025,.164Zm6.006-1.419l1,.698v2.382l-4.109,5.137-.781-.625,3.891-4.863v-2.729Z"/>
</svg>
