<?xml version="1.0" encoding="UTF-8"?>
<svg xmlns="http://www.w3.org/2000/svg" id="Layer_1" data-name="Layer 1" viewBox="0 0 24 24">
  <path d="m0,.5c0,5.399,1.869,17.216,2,18.042v2.958c0,1.378,1.121,2.5,2.5,2.5h4c1.379,0,2.5-1.122,2.5-2.5v-2.958c.131-.826,2-12.643,2-18.042v-.5H0v.5Zm10,21c0,.827-.673,1.5-1.5,1.5h-4c-.827,0-1.5-.673-1.5-1.5v-2.5h7v2.5ZM11.995,1c-.099,5.018-1.589,14.85-1.923,17H2.928c-.334-2.15-1.824-11.982-1.923-17h10.99Zm8.98,8c-.059.648-.233,1.261-.498,1.825l2.616,1.523-.504.864-2.616-1.523c-.359.502-.799.94-1.302,1.297l1.519,2.611-.865.503-1.52-2.613c-.558.259-1.164.429-1.804.487v3.025h-1v-3.042c-.436-.041-.862-.116-1.263-.253.046-.331.092-.673.139-1.02.505.197,1.05.315,1.624.315,2.481,0,4.5-2.019,4.5-4.5s-2.019-4.5-4.5-4.5c-.228,0-.446.034-.665.067.027-.355.05-.696.071-1.034.031-.003.063-.002.094-.005V0h1v3.025c.647.059,1.259.232,1.822.496l1.522-2.617.865.503-1.523,2.618c.498.356.934.792,1.29,1.29l2.608-1.518.504.864-2.608,1.518c.263.562.436,1.174.495,1.82h3.025v1h-3.025Z"/>
</svg>
