<?xml version="1.0" encoding="UTF-8"?>
<svg xmlns="http://www.w3.org/2000/svg" id="Layer_1" data-name="Layer 1" viewBox="0 0 24 24">
  <path d="M5.577,8.063l-.895-.443c.454-.914,1.115-1.704,1.924-2.312l.599,.799c-.684,.515-1.244,1.183-1.628,1.956Zm4.923-3.063h.997c-.189-.32-.316-.658-.396-1h-.601c-.831,0-1.623,.162-2.354,.448l.362,.931c.618-.241,1.289-.379,1.992-.379Zm-5.5,5.5c0-.35,.036-.691,.099-1.022l-.982-.186c-.074,.392-.117,.795-.117,1.208v1.5h1v-1.5ZM24,4.5v1.5h-2.758l-1.761,2.231c-.235,.447-.777,.769-1.368,.769h-1.889l1.359-3h-2.667l-1.747-2.085c-.229-.4-.228-.878,.004-1.277,.403-.695,1.444-.831,2.012-.263l.751,.625h1.66l-1.376-3h1.875c.59,0,1.132,.322,1.414,.84l1.73,2.16h1.01c1.03,0,1.75,.617,1.75,1.5Zm-1,0c0-.369-.387-.5-.75-.5h-1.491l-2.079-2.609c-.155-.269-.36-.391-.584-.391h-.317l1.376,3h-3.58l-1.063-.888c-.254-.245-.438-.037-.474,.027-.022,.038-.065,.135-.016,.248l1.359,1.613h3.752l-1.359,3h.338c.224,0,.429-.122,.536-.318l2.108-2.682h2.242v-.5Zm-2.5,15.5h-3c-.821,0-1.544,.403-2,1.015-.456-.613-1.179-1.015-2-1.015h-3c-.821,0-1.544,.403-2,1.015-.456-.613-1.179-1.015-2-1.015H3.5c-1.378,0-2.5,1.122-2.5,2.5v1.5h1v-1.5c0-.827,.673-1.5,1.5-1.5h3c.827,0,1.5,.673,1.5,1.5v1.5h1v-1.5c0-.827,.673-1.5,1.5-1.5h3c.827,0,1.5,.673,1.5,1.5v1.5h1v-1.5c0-.827,.673-1.5,1.5-1.5h3c.827,0,1.5,.673,1.5,1.5v1.5h1v-1.5c0-1.378-1.122-2.5-2.5-2.5ZM2.5,16.5c0-1.378,1.122-2.5,2.5-2.5s2.5,1.122,2.5,2.5-1.122,2.5-2.5,2.5-2.5-1.122-2.5-2.5Zm1,0c0,.827,.673,1.5,1.5,1.5s1.5-.673,1.5-1.5-.673-1.5-1.5-1.5-1.5,.673-1.5,1.5Zm8.5-2.5c1.378,0,2.5,1.122,2.5,2.5s-1.122,2.5-2.5,2.5-2.5-1.122-2.5-2.5,1.122-2.5,2.5-2.5Zm-1.5,2.5c0,.827,.673,1.5,1.5,1.5s1.5-.673,1.5-1.5-.673-1.5-1.5-1.5-1.5,.673-1.5,1.5Zm8.5,2.5c-1.378,0-2.5-1.122-2.5-2.5s1.122-2.5,2.5-2.5,2.5,1.122,2.5,2.5-1.122,2.5-2.5,2.5Zm0-1c.827,0,1.5-.673,1.5-1.5s-.673-1.5-1.5-1.5-1.5,.673-1.5,1.5,.673,1.5,1.5,1.5Z"/>
</svg>
