<svg id="Layer_1" viewBox="0 0 24 24" xmlns="http://www.w3.org/2000/svg" data-name="Layer 1"><path d="m4.5 18c1.654 0 3-1.346 3-3s-1.346-3-3-3-3 1.346-3 3 1.346 3 3 3zm0-5c1.103 0 2 .897 2 2s-.897 2-2 2-2-.897-2-2 .897-2 2-2zm12 2c0 1.654 1.346 3 3 3s3-1.346 3-3-1.346-3-3-3-3 1.346-3 3zm3-2c1.103 0 2 .897 2 2s-.897 2-2 2-2-.897-2-2 .897-2 2-2zm4.5 8.5v2.5h-1v-2.5c0-.827-.673-1.5-1.5-1.5h-4c-.827 0-1.5.673-1.5 1.5v2.5h-1v-1.5c0-.827-.673-1.5-1.5-1.5h-3c-.827 0-1.5.673-1.5 1.5v1.5h-1v-2.5c0-.827-.673-1.5-1.5-1.5h-4c-.827 0-1.5.673-1.5 1.5v2.5h-1v-2.5c0-1.378 1.121-2.5 2.5-2.5h4c1.077 0 1.989.688 2.34 1.645.443-.396 1.021-.645 1.66-.645h3c.64 0 1.218.248 1.66.645.351-.957 1.263-1.645 2.34-1.645h4c1.379 0 2.5 1.122 2.5 2.5zm-14.5-5c0 1.378 1.121 2.5 2.5 2.5s2.5-1.122 2.5-2.5-1.121-2.5-2.5-2.5-2.5 1.122-2.5 2.5zm4 0c0 .827-.673 1.5-1.5 1.5s-1.5-.673-1.5-1.5.673-1.5 1.5-1.5 1.5.673 1.5 1.5zm-6-7.5c1.103 0 2-.897 2-2 0-.095 0-.337-1.293-4h3.293v8h-3.5v1h8v-1h-3.5v-8h3.307l-1.307 4c0 1.103.897 2 2 2s2-.897 2-2c0-.1-1.647-5-1.647-5h-4.353v-2h-1v2h-4.36l-1.64 5c0 1.103.897 2 2 2zm10-2h-1.973l.985-2.957c.479 1.374.951 2.766.987 2.957zm-9.987-2.957c.479 1.374.951 2.766.987 2.957h-1.973l.985-2.957z"/></svg>