<?xml version="1.0" encoding="UTF-8"?>
<svg xmlns="http://www.w3.org/2000/svg" id="Layer_1" data-name="Layer 1" viewBox="0 0 24 24">
  <path d="M17.5,16.5c-1.379,0-2.5,1.122-2.5,2.5s1.121,2.5,2.5,2.5,2.5-1.122,2.5-2.5-1.121-2.5-2.5-2.5Zm0,4c-.827,0-1.5-.673-1.5-1.5s.673-1.5,1.5-1.5,1.5,.673,1.5,1.5-.673,1.5-1.5,1.5Zm4.5-6.5h-1.232l-1.33-2h-3.875l-1.33,2h-1.232c-1.103,0-2,.897-2,2v8h13v-8c0-1.103-.897-2-2-2Zm-5.902-1h2.805l.665,1h-4.135l.665-1Zm6.902,10H12v-7c0-.551,.449-1,1-1h9c.552,0,1,.449,1,1v7Zm-1.5-21H12.118L8.118,0H2.5C1.122,0,0,1.122,0,2.5V22H9v-1H1V7H23v5.142c.356,.093,.69,.233,1,.414V4.5c0-1.378-1.121-2.5-2.5-2.5ZM1,6V2.5c0-.827,.673-1.5,1.5-1.5H7.882l4,2h9.618c.827,0,1.5,.673,1.5,1.5v1.5H1Z"/>
</svg>
