<svg id="Layer_1" viewBox="0 0 24 24" xmlns="http://www.w3.org/2000/svg" data-name="Layer 1"><path d="m15 17h-14v-16h10.76c.29-.361.613-.694.96-1h-12.72v21.5c0 1.379 1.121 2.5 2.5 2.5h11c1.379 0 2.5-1.121 2.5-2.5v-7.762c-.342-.088-.677-.194-1-.325zm-1.5 6h-11c-.827 0-1.5-.673-1.5-1.5v-3.5h14v3.5c0 .827-.673 1.5-1.5 1.5zm-7.5-3h4v1h-4zm12-20c-3.309 0-6 2.691-6 6s2.691 6 6 6 6-2.691 6-6-2.691-6-6-6zm0 11c-2.757 0-5-2.243-5-5s2.243-5 5-5 5 2.243 5 5-2.243 5-5 5zm-11.887 3c.59 0 1.132-.321 1.368-.77l1.761-2.23h2.758v-1.5c0-.883-.72-1.5-1.75-1.5h-1.01l-1.729-2.16c-.282-.518-.824-.84-1.415-.84h-1.83l1.184 3h-.352l-.911-.624c-.562-.566-1.611-.431-2.013.262-.231.398-.233.876.048 1.352l1.695 2.011h1.519l-1.167 3h1.845zm-1.732-4-1.343-1.581c-.072-.126-.023-.237 0-.279.037-.062.15-.327.508 0l1.239.861h2.132l-1.184-3h.361c.225 0 .43.122.585.391l2.078 2.609h1.491c.362 0 .75.132.75.5v.5h-2.242l-2.107 2.681c-.107.197-.313.319-.537.319h-.382l1.167-3h-2.518zm16.223-5.896-1.896 1.896 1.896 1.896-.707.707-1.896-1.896-1.896 1.896-.707-.707 1.896-1.896-1.896-1.896.707-.707 1.896 1.896 1.896-1.896z"/></svg>