<svg id="Layer_1" viewBox="0 0 24 24" xmlns="http://www.w3.org/2000/svg" data-name="Layer 1"><path d="m7 6h-1v-2h1zm5-2h-1v2h1zm11.437 17.037-3.637 2.963h-.801v-4.277l-2.179 1.827-.643-.766 2.713-2.276-2.714-2.293.645-.764 2.178 1.839v-4.29h.803l3.633 3.001-2.99 2.509zm-3.437-3.459 1.873-1.571-1.873-1.547zm0 4.97 1.871-1.524-1.871-1.58zm-4.5-13.548h-13c-.827 0-1.5.673-1.5 1.5v4.5c0 4.411 3.589 8 8 8 1.896 0 3.629-.674 5-1.781v1.24c-1.432.966-3.146 1.541-5 1.541-4.963 0-9-4.037-9-9v-4.5c0-1.208.86-2.217 2-2.449v-8.051h14v8.051c1.14.232 2 1.242 2 2.449v.5h-1v-.5c0-.827-.673-1.5-1.5-1.5zm-12.5-8v7h12v-7z"/></svg>