<svg id="Layer_1" viewBox="0 0 24 24" xmlns="http://www.w3.org/2000/svg" data-name="Layer 1"><path d="m23.966 15.001c.084-1.295.014-2.573-.222-3.74-1.153-.228-2.385-.301-3.659-.228-.247.659-.623 1.412-.91 1.881l-.658-1.702c-1.092.194-2.128.483-3.104.873.102.584.504 2.268.529 4.272-.01.96-.16 1.798-.435 2.428l-3.008 3.008v-8.18c.41-.998 1.175-1.909 1.756-2.502 1.707-1.68 3.668-2.908 4.149-3.25-.537-1.258-1.251-2.485-2.103-3.654l-2.111.939c.153-.641.491-1.643.884-2.436-.954-1.034-1.987-1.935-3.075-2.665-1.087.728-2.119 1.63-3.075 2.664.392.793.73 1.795.883 2.437l-2.111-.938c-.853 1.169-1.566 2.397-2.102 3.654.476.336 2.447 1.573 4.15 3.249.581.593 1.346 1.505 1.755 2.502v8.18l-3.01-3.01c-.272-.627-.423-1.465-.433-2.427.027-2.013.426-3.676.53-4.271-.969-.387-2.018-.68-3.103-.873l-.659 1.702c-.287-.468-.664-1.223-.912-1.881-1.266-.072-2.515.002-3.658.228-.233 1.165-.303 2.444-.22 3.74.641.244 1.376.605 1.836.884l-1.656.634c.197 1.058.486 2.083.871 3.029.584-.104 2.28-.485 4.293-.526.912.01 1.707.147 2.324.388l3.797 3.797v.793h1v-.793l3.797-3.797c.618-.242 1.413-.379 2.325-.389 2.005.055 3.706.419 4.293.526.385-.952.677-1.977.87-3.03l-1.654-.633c.46-.279 1.196-.64 1.836-.884zm-22.238 3.404c-.137-.401-.256-.818-.358-1.258l2.63-1.006-.732-.543c-.042-.031-.972-.716-2.262-1.279-.021-.763.02-1.509.118-2.19.659-.094 1.377-.132 2.111-.119.571 1.305 1.273 2.251 1.305 2.294l.541.723 1.032-2.666c.466.104.906.228 1.33.37-.137.764-.399 2.393-.385 3.637.006.516.051 1.188.207 1.86-.677-.154-1.354-.2-1.874-.206-1.273-.002-2.897.247-3.662.384zm5.129-10.899c.333-.686.73-1.373 1.187-2.051l3.084 1.372c-.228-1.28-.096-1.527-1.013-3.914.611-.62 1.243-1.171 1.885-1.644.643.474 1.275 1.024 1.885 1.644-.919 2.389-.783 2.632-1.013 3.913l3.083-1.371c.456.678.854 1.364 1.188 2.051-.746.517-2.485 1.764-3.602 2.905-.478.487-1.073 1.173-1.541 1.964-.468-.79-1.063-1.476-1.541-1.964-1.117-1.142-2.856-2.389-3.602-2.905zm13.875 8.093-.732.543 2.63 1.005c-.102.435-.221.856-.358 1.259-.746-.133-2.325-.384-3.566-.384h-.096c-.52.006-1.196.052-1.873.206.155-.673.201-1.345.206-1.859.014-1.245-.248-2.874-.385-3.638.425-.143.864-.266 1.33-.37l1.031 2.666.541-.723c.031-.043.735-.989 1.306-2.294.734-.016 1.453.025 2.112.119.098.683.138 1.429.117 2.19-1.291.563-2.221 1.248-2.263 1.279z"/></svg>