<svg id="Layer_1" viewBox="0 0 24 24" xmlns="http://www.w3.org/2000/svg" data-name="Layer 1"><path d="m24 2.5v3.483c-1.607.074-2.979 1.333-2.995 2.965-.312-.155-.634-.292-.965-.411.194-1.62 1.372-2.985 2.96-3.396v-2.642c0-.827-.673-1.5-1.5-1.5h-18.996c-.827 0-1.5.673-1.5 1.5 0 .002-.006 1.652-.006 2.641 1.741.448 3.006 2.036 3.006 3.859s-1.265 3.412-3.005 3.859c0 .69 0 1.727.002 2.645.001.825.674 1.496 1.5 1.496h5.503c0 .338.022.671.059 1h-5.563c-1.375.001-2.497-1.118-2.5-2.493l.004-3.489c1.627-.072 3.012-1.359 2.999-3.017.013-1.657-1.376-2.945-3.004-3.017l.005-3.485c.001-1.377 1.122-2.498 2.5-2.498h18.996c1.378 0 2.499 1.121 2.499 2.5zm0 14.5c0 3.859-3.139 7-6.999 7s-6.999-3.141-6.999-7 3.139-7 6.999-7 6.999 3.188 6.999 7zm-3.974-.5h2.949c-.11-1.321-.649-2.519-1.478-3.459-.856.97-1.366 2.169-1.471 3.459zm-3.025-5.5c-1.431 0-2.746.505-3.778 1.345 1.036 1.159 1.645 2.602 1.754 4.155h4.049c.108-1.552.717-2.996 1.754-4.155-1.032-.84-2.347-1.345-3.778-1.345zm-5.973 5.5h2.949c-.105-1.29-.615-2.489-1.471-3.459-.829.94-1.368 2.138-1.478 3.459zm1.478 4.459c.856-.97 1.366-2.169 1.471-3.459h-2.949c.11 1.321.649 2.519 1.478 3.459zm4.495 2.041c1.431 0 2.746-.505 3.778-1.345-1.036-1.159-1.645-2.602-1.754-4.155h-4.049c-.108 1.552-.717 2.996-1.754 4.155 1.032.84 2.347 1.345 3.778 1.345zm5.974-5.5h-2.949c.105 1.29.615 2.489 1.471 3.459.829-.94 1.368-2.138 1.478-3.459z"/></svg>