<?xml version="1.0" encoding="UTF-8"?>
<svg xmlns="http://www.w3.org/2000/svg" id="Layer_1" data-name="Layer 1" viewBox="0 0 24 24">
  <path d="M12,12c3.309,0,6-2.691,6-6S15.309,0,12,0,6,2.691,6,6s2.691,6,6,6Zm0-11c2.757,0,5,2.243,5,5s-2.243,5-5,5-5-2.243-5-5S9.243,1,12,1Zm4,11c2.206,0,4,1.794,4,4s-1.794,4-4,4-4-1.794-4-4,1.794-4,4-4Zm-4-2.5c1.059,.05,2.02-.604,2.826-1.232-1.129-.269-2.376-.946-2.326-2.268-.05-1.322,1.198-1.999,2.326-2.268-.807-.629-1.766-1.281-2.826-1.232-1.93,0-3.5,1.57-3.5,3.5s1.57,3.5,3.5,3.5Zm0-6c.229,0,.455,.032,.673,.094-.726,.571-1.173,1.45-1.173,2.406s.447,1.834,1.173,2.406c-.218,.062-.444,.094-.673,.094-1.378,0-2.5-1.122-2.5-2.5s1.122-2.5,2.5-2.5Zm12,12.5c0,4.411-3.589,8-8,8H8C3.635,24,.081,20.485,.007,16.137c0-.012-.007-.022-.007-.034,0-.014,.003-.028,.003-.042,0-.02-.003-.04-.003-.061H.008c.041-3.128,1.893-5.806,4.549-7.083,.122,.311,.256,.615,.414,.905-2.329,1.127-3.951,3.487-3.968,6.239,.033,3.832,3.158,6.939,6.997,6.939h8c3.859,0,7-3.14,7-7,0-2.754-1.61-5.121-3.929-6.262,.155-.292,.287-.597,.405-.909,2.668,1.298,4.524,4.01,4.524,7.171Z"/>
</svg>
