<svg id="Layer_1" viewBox="0 0 24 24" xmlns="http://www.w3.org/2000/svg" data-name="Layer 1"><path d="m20 19v5h-1v-5c0-2.206-1.794-4-4-4h-6c-2.206 0-4 1.794-4 4v5h-1v-5c0-2.757 2.243-5 5-5h6c2.757 0 5 2.243 5 5zm-14-13c0-3.309 2.691-6 6-6s6 2.691 6 6c0 2.288-1.32 4.38-3.368 5.383-.187.393-.213.382-.382.616h-4.499c-.169-.234-.195-.223-.382-.616-2.048-1.003-3.368-3.096-3.368-5.383zm3.023 4.001c-.014-.157-.023-.324-.023-.501 0-.693.122-1.223.256-1.602-.818-.197-1.584-.674-2.202-1.17.194 1.311.913 2.485 1.969 3.274zm4.977-.501c0-.741-.173-1.243-.292-1.501h-3.416c-.119.257-.292.759-.292 1.501s.173 1.241.292 1.499h3.416c.119-.258.292-.759.292-1.499zm2.946-2.773c-.618.496-1.384.973-2.202 1.17.134.38.256.91.256 1.602 0 .178-.008.344-.023.501 1.056-.789 1.775-1.963 1.969-3.274zm-9.886-1.323c.62.599 1.819 1.594 2.94 1.594h4c1.12 0 2.32-.996 2.94-1.594-.298-2.474-2.387-4.405-4.94-4.405s-4.641 1.931-4.94 4.405z"/></svg>