<svg id="Layer_1" viewBox="0 0 24 24" xmlns="http://www.w3.org/2000/svg" data-name="Layer 1"><path d="m8.5 6c1.378 0 2.5-1.121 2.5-2.5s-1.122-2.5-2.5-2.5-2.5 1.121-2.5 2.5 1.122 2.5 2.5 2.5zm0-4c.827 0 1.5.673 1.5 1.5s-.673 1.5-1.5 1.5-1.5-.673-1.5-1.5.673-1.5 1.5-1.5zm7.812-1.535c-.265-.438-.844-.587-1.291-.334l-2.19 1.256.497.867 2.12-1.287 4.48 8.033h-5.354l-6.469-1.943c-.671-.127-1.312.051-1.711.48-.361.389-.483.924-.335 1.472l1.811 6.599-4.663 8.392h1.203l4.429-8h3.083c.048.286.077.574.077.864v7.136h1v-7.136c0-.624-.093-1.242-.276-1.838l-1.878-6.104 3.51 1.056 6.644.021v-1.13zm-4.642 14.535h-2.927l-1.72-6.254c-.057-.212-.021-.395.104-.528.164-.177.458-.239.74-.191l1.827.549 1.977 6.424z"/></svg>