<svg id="Layer_1" viewBox="0 0 24 24" xmlns="http://www.w3.org/2000/svg" data-name="Layer 1"><path d="m20.445 5.51 2.99-2.509-3.632-3.001h-.803v4.29l-2.177-1.839-.646.764 2.715 2.293-2.713 2.276.643.766 2.179-1.828v4.278h.801l3.636-2.963-2.992-2.527zm-.445-4.05 1.873 1.547-1.873 1.571zm0 4.983 1.871 1.58-1.871 1.524zm-5 4.557h-6.5v-7h3c.98 0 1.864.407 2.5 1.058v-1.297c-.716-.48-1.575-.762-2.5-.762h-3v-2.999h-1v3h-3c-2.481 0-4.5 2.019-4.5 4.5v8.5c0 4.411 3.589 8 8 8s8-3.589 8-8v-5.318l-1-1.191zm-14-3.5c0-1.93 1.57-3.5 3.5-3.5h3v7h-6.5zm14 8.5c0 3.859-3.14 7-7 7s-7-3.141-7-7v-4h14z"/></svg>