<svg id="Layer_1" viewBox="0 0 24 24" xmlns="http://www.w3.org/2000/svg" data-name="Layer 1"><path d="m12 0c-6.617 0-12 5.383-12 12s5.383 12 12 12 12-5.383 12-12-5.383-12-12-12zm-11 12c0-2.853 1.101-5.447 2.889-7.404l15.515 15.515c-1.957 1.788-4.551 2.889-7.404 2.889-6.065 0-11-4.935-11-11zm12.5-4c.143 0 .274.059.371.165s.141.243.126.39l-.31 3.445h-.98l-4-4zm3.207 8h1.293v.5c0 .226-.054.445-.149.644zm1.293-1h-2.293l-2-2h2.793c.827 0 1.5.673 1.5 1.5zm2.111 4.404-1.533-1.533c.267-.405.422-.877.422-1.371v-2c0-1.378-1.122-2.5-2.5-2.5h-1.808l.301-3.351c.042-.421-.097-.842-.381-1.156s-.689-.493-1.112-.493h-2.309l.25-2h2.559v-1h-3.441l-.375 3h-2.477l-3.111-3.111c1.957-1.788 4.551-2.889 7.404-2.889 6.065 0 11 4.935 11 11 0 2.853-1.101 5.447-2.889 7.404zm-4.647-.404h-9.526s-.929-10.423-.93-10.457l1.092 1.092.752 8.364h3.661c-.317-.419-.513-.935-.513-1.5v-2c0-.287.059-.559.148-.816l.852.852v1.964c0 .827.673 1.5 1.5 1.5h1.964l1 1z"/></svg>