<svg id="Layer_1" viewBox="0 0 24 24" xmlns="http://www.w3.org/2000/svg" data-name="Layer 1"><path d="m24 23.293-6.591-6.591c1.608-1.775 2.596-4.121 2.596-6.699 0-5.516-4.488-10.003-10.003-10.003s-10.002 4.487-10.002 10.002 4.487 10.002 10.002 10.002c2.578 0 4.923-.989 6.699-2.596l6.591 6.591.707-.707zm-13.998-4.288c-4.964 0-9.002-4.038-9.002-9.002s4.039-9.003 9.002-9.003 9.002 4.038 9.002 9.002-4.038 9.002-9.002 9.002zm3.859-12.154c.196.094.412.15.643.15.827 0 1.5-.673 1.5-1.5s-.673-1.5-1.5-1.5-1.5.673-1.5 1.5c0 .231.057.447.15.643l-.711.711c-.552-.429-1.213-.711-1.94-.803v-2.051h-1v2.051c-.727.092-1.389.374-1.94.803l-.711-.71c.094-.196.15-.412.15-.643 0-.827-.673-1.5-1.5-1.5s-1.5.673-1.5 1.5.673 1.5 1.5 1.5c.231 0 .447-.057.642-.15l.711.711c-.429.552-.711 1.213-.803 1.94h-2.051v1h2.051c.092.727.374 1.388.803 1.94l-.711.711c-.196-.093-.412-.15-.642-.15-.827 0-1.5.673-1.5 1.5s.673 1.5 1.5 1.5 1.5-.673 1.5-1.5c0-.231-.057-.447-.15-.643l.711-.71c.552.429 1.213.711 1.94.803v2.051h1v-2.051c.727-.092 1.388-.374 1.94-.803l.711.711c-.094.196-.15.412-.15.643 0 .827.673 1.5 1.5 1.5s1.5-.673 1.5-1.5-.673-1.5-1.5-1.5c-.231 0-.447.057-.643.15l-.711-.711c.429-.552.711-1.213.803-1.94h2.051v-1h-2.051c-.092-.727-.374-1.389-.803-1.94l.711-.711zm.643-1.85c.275 0 .5.225.5.5s-.225.5-.5.5-.5-.225-.5-.5.225-.5.5-.5zm-1.501 5.001c0 1.655-1.346 3.001-3.001 3.001s-3.001-1.346-3.001-3.001 1.346-3.001 3.001-3.001 3.001 1.346 3.001 3.001zm-7.502-4.001c-.276 0-.5-.225-.5-.5s.224-.5.5-.5.5.225.5.5-.224.5-.5.5zm0 9.003c-.276 0-.5-.225-.5-.5s.224-.5.5-.5.5.225.5.5-.224.5-.5.5zm9.003-1.001c.275 0 .5.225.5.5s-.225.5-.5.5-.5-.225-.5-.5.225-.5.5-.5z"/></svg>