<?xml version="1.0" encoding="UTF-8"?>
<svg xmlns="http://www.w3.org/2000/svg" id="Layer_1" data-name="Layer 1" viewBox="0 0 24 24">
  <path d="M5,3h-1V0H12.558c-.181,.31-.322,.644-.415,1H5V3Zm14,8h1v10.5c0,1.379-1.122,2.5-2.5,2.5H6.5c-1.378,0-2.5-1.121-2.5-2.5v-5.5h1v1h14v-6Zm0,10.5v-3.5H5v3.5c0,.827,.673,1.5,1.5,1.5h11c.827,0,1.5-.673,1.5-1.5Zm-9-.5h4v-1h-4v1Zm-4.129-7H0V7C0,5.895,.895,5,2,5h0l6,.002c1.1,0,2,.901,1.999,2.001l-.002,7.772c.002,.876-.98,1.371-1.672,.915l-2.454-1.69ZM1,13H6.182l2.71,1.866c.017-.003,.105-.009,.105-.092l.002-7.772c.012-.532-.467-1.012-1-1l-6-.002c-.552,0-1.001,.449-1.001,1v6ZM24,2v7h-5.872l-2.454,1.69c-.692,.456-1.674-.039-1.672-.915l-.002-7.772c0-1.1,.899-2,1.999-2.001l6-.002h0c1.104,0,2,.895,2,2Zm-1,0c0-.551-.449-1-1-1l-6,.002c-.533-.011-1.011,.468-1,1l.002,7.772c0,.083,.088,.088,.089,.088l2.726-1.862h5.183V2Z"/>
</svg>
