<?xml version="1.0" encoding="UTF-8"?>
<svg xmlns="http://www.w3.org/2000/svg" id="Layer_1" data-name="Layer 1" viewBox="0 0 24 24">
  <path d="M19.399,14.04c-.817-3.223-1.923-7.012-2.294-8.268,.491-.206,1.346-.546,2.056-.734,.429-.116,.883-.021,1.243,.256,.378,.291,.596,.73,.596,1.206h1c0-.788-.359-1.517-.986-1.999-.609-.467-1.378-.624-2.11-.43-1.139,.303-3.009,1.142-3.009,1.142,0,0,.53,1.772,1.047,3.588l-5.268,4.098-3.674-4.898h3v-1H5v1h1.75l4.134,5.512-2.429,1.889c-.899-.863-2.113-1.401-3.455-1.401-2.757,0-5,2.243-5,5s2.243,5,5,5,5-2.243,5-5c0-1.055-.333-2.031-.893-2.839l8.128-6.322c.375,1.335,.781,2.824,1.138,4.224-2.459,.312-4.374,2.394-4.374,4.937,0,2.757,2.243,5,5,5s5-2.243,5-5c0-2.62-2.033-4.752-4.601-4.96ZM5,23c-2.206,0-4-1.794-4-4s1.794-4,4-4,4,1.794,4,4-1.794,4-4,4Zm14,0c-2.206,0-4-1.794-4-4s1.794-4,4-4,4,1.794,4,4-1.794,4-4,4ZM10,5H1v-1H10v1Zm2-3H3V1H12v1ZM3,8H0v-1H3v1Z"/>
</svg>
