<svg id="Layer_1" viewBox="0 0 24 24" xmlns="http://www.w3.org/2000/svg" data-name="Layer 1"><path d="m21.5 2h-3.5v-2h-1v2h-10v-2h-1v2h-3.5c-1.379 0-2.5 1.122-2.5 2.5v19.5h6v-1h-5v-14h22v5.372c.359.158.696.36 1 .602v-10.474c0-1.378-1.121-2.5-2.5-2.5zm-20.5 6v-3.5c0-.827.673-1.5 1.5-1.5h19c.827 0 1.5.673 1.5 1.5v3.5zm20.5 8h-2.5v8h1v-3h1.5c1.379 0 2.5-1.121 2.5-2.5s-1.121-2.5-2.5-2.5zm0 4h-1.5v-3h1.5c.827 0 1.5.673 1.5 1.5s-.673 1.5-1.5 1.5zm-7.5-4h4v1h-3v2.5h3v1h-3v2.5h3v1h-4zm-1.054 6.056c-.183 1.127-1.162 1.944-2.329 1.944-.878 0-1.946-.551-2.473-1.084l.711-.703c.414.419 1.237.787 1.762.787.674 0 1.238-.465 1.343-1.104.037-.229.076-1.007-.976-1.432-.111-.042-1.208-.457-1.699-.763-.672-.474-.978-1.163-.88-1.917.104-.783.627-1.421 1.365-1.665.903-.299 1.822-.046 2.736.746l-.654.756c-.647-.562-1.211-.738-1.769-.553-.371.123-.634.447-.687.846-.05.38.103.717.427.948.335.204 1.214.554 1.523.67 1.395.563 1.731 1.711 1.599 2.523z"/></svg>