<svg id="Layer_1" viewBox="0 0 24 24" xmlns="http://www.w3.org/2000/svg" data-name="Layer 1"><path d="m19.295 4.153h2.057v.424l-1.568.908.631 1.916-.36.249-1.551-1.199-1.558 1.204-.343-.258.62-1.939-1.578-.879v-.427h2.068l.56-2.153h.462l.559 2.153zm3.705 18.847h-22v-16.117l7.799 7.799c.85.851 1.98 1.318 3.182 1.318s2.332-.468 3.182-1.318 2.56-2.682 2.56-2.682h-1.384l-1.883 1.975c-1.322 1.322-3.627 1.322-4.95 0l-8.272-8.272c.266-.421.732-.703 1.266-.703h9v-1h-9c-1.378 0-2.5 1.121-2.5 2.5v17.5h24v-12h-1zm1-21v8h-6.872l-2.439 1.681c-.34.218-.778.231-1.13.039-.348-.189-.556-.543-.556-.945l-.002-8.774c0-1.105.895-2 2-2h7c1.105 0 2 .895 2 2zm-1 0c0-.552-.448-1-1-1h-7c-.552 0-1 .448-1 1l.002 8.774.135.071 2.68-1.845h6.183z"/></svg>