<?xml version="1.0" encoding="UTF-8"?>
<svg xmlns="http://www.w3.org/2000/svg" id="Layer_1" data-name="Layer 1" viewBox="0 0 24 24">
  <path d="M9,0V10.418l.264-.238c.229-.203,.479-.366,.736-.513V1h13V15H14.614c.655-1.089,.453-2.523-.545-3.371-.996-.846-2.484-.832-3.467,.038l-4.438,4,.67,.743,4.434-3.997c.607-.538,1.532-.547,2.153-.022,.689,.586,.773,1.625,.157,2.353l-4.579,6.6v2.656h1v-2.344l.076-.11c.415,.289,.91,.453,1.424,.453h10c1.379,0,2.5-1.122,2.5-2.5V0H9Zm14,19.5c0,.827-.673,1.5-1.5,1.5H11.5c-.309,0-.606-.099-.856-.273l3.278-4.727h9.078v3.5Zm-8-.5v-1h3v1h-3ZM7,7.646L1,13.218v10.782H0V12.782L7,6.282v1.364Z"/>
</svg>
