<?xml version="1.0" encoding="UTF-8"?>
<svg xmlns="http://www.w3.org/2000/svg" id="Layer_1" data-name="Layer 1" viewBox="0 0 24 24">
  <path d="M24,2.5V13H14v-1h9V2.5c0-.827-.673-1.5-1.5-1.5H2.5c-.827,0-1.5,.673-1.5,1.5V12H5v1H0V2.5C0,1.121,1.121,0,2.5,0H21.5c1.379,0,2.5,1.121,2.5,2.5ZM12,12.568c0-1.274-.896-2.38-2.084-2.572-1.48-.278-2.951,.962-2.916,2.466v7.601l-1.826-1.454v.002c-1.009-.912-2.569-.854-3.5,.143-.941,1.007-.894,2.588,.106,3.524l1.783,1.684h1.44l-2.535-2.407c-.599-.562-.629-1.514-.064-2.118,.562-.603,1.509-.635,2.115-.072,.01,.01,3.479,2.773,3.479,2.773V12.462c-.017-.904,.857-1.651,1.756-1.479,.709,.115,1.244,.797,1.244,1.586v5.24l8,3v3.191h1v-3.885l-8-3v-4.547Zm6.646-3.422c-.669,0-1.469-.577-1.72-.799l-.664,.748c.121,.107,1.216,1.051,2.384,1.051,1.11,0,2.234-.688,2.234-2.003,0-1.219-1.124-1.74-2.027-2.16-.889-.412-1.428-.7-1.428-1.221,0-.726,.703-.917,1.075-.917,.44,0,1.163,.433,1.515,.705l.613-.79c-.12-.094-1.203-.915-2.128-.915-1.006,0-2.075,.672-2.075,1.917,0,1.197,1.112,1.713,2.007,2.128,.901,.418,1.448,.712,1.448,1.253,0,.792-.776,1.003-1.234,1.003ZM10,3h-1v5h1V3Zm-4,7V4h2v-1H3v1h2v6h1Zm6-1.24c-.307-.205-.646-.359-1-.484V3h2.25c1.24,0,2.25,1.01,2.25,2.25s-1.01,2.25-2.25,2.25h-1.25v1.26Zm0-2.26h1.25c.689,0,1.25-.561,1.25-1.25s-.561-1.25-1.25-1.25h-1.25v2.5Z"/>
</svg>
