<svg id="Layer_1" viewBox="0 0 24 24" xmlns="http://www.w3.org/2000/svg" data-name="Layer 1"><path d="m18.823 11.228c-.508-.305-1.139-.305-1.646 0l-5.177 3.106v6.449l5.176 3.105c.507.305 1.141.307 1.647 0l5.177-3.105v-6.449zm-1.133.857c.192-.115.429-.114.619 0l4.219 2.532-4.528 2.717-4.528-2.717 4.219-2.532zm-4.69 8.131v-4.717l4.5 2.7v4.717zm5.5 2.7v-4.716l4.5-2.7v4.717l-4.5 2.7zm-6.938-.063 1.232.739c-.904.263-1.844.407-2.795.407-5.513.001-9.999-4.484-9.999-9.998.043-4.989 6.228-10.77 9.942-13.863 3.11 2.308 6.311 5.668 8.341 8.88-.378-.03-.758-.002-1.128.088-1.92-2.96-4.947-5.83-7.152-7.715-2.99 2.546-9.002 8.201-9.002 12.61 0 4.962 4.037 8.999 8.999 8.999.526 0 1.048-.056 1.562-.147z"/></svg>