<?xml version="1.0" encoding="UTF-8"?>
<svg xmlns="http://www.w3.org/2000/svg" id="Layer_1" data-name="Layer 1" viewBox="0 0 24 24">
  <path d="m23.966,9.916c.119-.734-.085-1.476-.562-2.035s-1.17-.881-1.905-.881h-8.791l-4.199-4.268c-.943-.944-2.592-.944-3.535,0L0,7.707v14.293h12.91l2-10h6.483c1.273,0,2.379-.896,2.573-2.084Zm-9.876,1.084l-2,10H1v-12.879L5.682,3.439c.566-.566,1.558-.563,2.118-.003l3.506,3.563h-4.307v1h14.5c.44,0,.857.193,1.143.529.29.341.409.776.336,1.227-.115.709-.797,1.245-1.586,1.245h-7.303Zm8.88,5.05l-2.471-2.417-2.482,2.429c-.656.656-1.018,1.532-1.018,2.466s.364,1.814,1.025,2.474c.633.634,1.535.998,2.475.998s1.841-.363,2.475-.997c.661-.661,1.025-1.54,1.025-2.475s-.364-1.813-1.029-2.478Zm-.703,4.246c-.896.896-2.641.896-3.536,0-.472-.471-.732-1.099-.732-1.767s.257-1.292.721-1.755l1.779-1.741,1.768,1.729c.472.472.732,1.1.732,1.767s-.26,1.295-.732,1.768Z"/>
</svg>
