<?xml version="1.0" encoding="UTF-8"?>
<svg xmlns="http://www.w3.org/2000/svg" id="Layer_1" data-name="Layer 1" viewBox="0 0 24 24">
  <path d="M6,15c-1.654,0-3,1.346-3,3v3c0,1.654,1.346,3,3,3s3-1.346,3-3v-3c0-1.654-1.346-3-3-3Zm2,6c0,1.103-.897,2-2,2s-2-.897-2-2v-3c0-1.103,.897-2,2-2s2,.897,2,2v3Zm10-6c-1.654,0-3,1.346-3,3v3c0,1.654,1.346,3,3,3s3-1.346,3-3v-3c0-1.654-1.346-3-3-3Zm2,6c0,1.103-.897,2-2,2s-2-.897-2-2v-3c0-1.103,.897-2,2-2s2,.897,2,2v3Zm4-8.5c0,1.488-.459,2.904-1.225,4.097-.119-.402-.281-.782-.491-1.135,.453-.9,.716-1.91,.716-2.962,.01-3.645-3.088-6.608-6.724-6.5-.811-2.941-3.466-5.01-6.526-5-3.722,0-6.75,3.028-6.75,6.75-.009,.908,.212,1.831,.553,2.691-1.541,.798-2.569,2.325-2.553,4.059,0,.604,.131,1.174,.349,1.7-.179,.462-.281,.957-.316,1.473-.642-.898-1.033-1.987-1.033-3.173,0-1.803,.869-3.451,2.345-4.484-.229-.743-.345-1.503-.345-2.266C2,3.477,5.477,0,9.75,0c3.249,0,6.12,2.004,7.252,5.023,3.89,.261,6.998,3.544,6.998,7.477Zm-11,2.5v9h-1v-7.345l-1.139,1.19-.723-.691,2.061-2.154h.801Z"/>
</svg>
