<?xml version="1.0" encoding="UTF-8"?>
<svg xmlns="http://www.w3.org/2000/svg" id="Layer_1" data-name="Layer 1" viewBox="0 0 24 24">
  <path d="M18,20.5v3.5h-1v-3.5c0-.827-.673-1.5-1.5-1.5h-7c-.827,0-1.5,.673-1.5,1.5v3.5h-1v-3.5c0-1.379,1.122-2.5,2.5-2.5h7c1.378,0,2.5,1.121,2.5,2.5Zm-6-10.5c-1.93,0-3.5,1.57-3.5,3.5s1.57,3.5,3.5,3.5,3.5-1.57,3.5-3.5-1.57-3.5-3.5-3.5Zm0,6c-1.378,0-2.5-1.121-2.5-2.5s1.122-2.5,2.5-2.5,2.5,1.121,2.5,2.5-1.122,2.5-2.5,2.5Zm-2.84-8.736l.618,.502,2.221-1.44,2.222,1.44,.625-.48-.707-2.365,1.861-1.5v-.795h-2.683l-.92-2.626h-.794l-.92,2.626h-2.683v.795l1.861,1.5-.7,2.343Zm.687-3.638h1.544l.608-1.735,.608,1.735h1.544l-1.164,.938,.449,1.502-1.438-.933-1.438,.933,.449-1.502-1.164-.938Zm-3.626,7.14l.625-.48-.707-2.365,1.861-1.5v-.795h-2.683l-.92-2.626h-.794l-.92,2.626H0v.795l1.861,1.5-.703,2.352,.621,.493,2.221-1.44,2.222,1.44ZM1.848,6.626h1.544l.608-1.735,.608,1.735h1.544l-1.164,.938,.449,1.502-1.438-.933-1.438,.933,.449-1.502-1.164-.938Zm22.152-1h-2.683l-.92-2.626h-.794l-.92,2.626h-2.683v.795l1.861,1.5-.7,2.341,.618,.505,2.221-1.44,2.222,1.44,.625-.48-.707-2.365,1.861-1.5v-.795Zm-3.011,1.938l.449,1.502-1.438-.933-1.438,.933,.449-1.502-1.164-.938h1.544l.608-1.735,.608,1.735h1.544l-1.164,.938Z"/>
</svg>
