<svg id="Layer_1" viewBox="0 0 24 24" xmlns="http://www.w3.org/2000/svg" data-name="Layer 1"><path d="m23 3.5v4c0 .827-.673 1.5-1.5 1.5h-4v-1h3.974c-1.57-3.514-5.436-6-9.474-6v-1c4.12 0 8.081 2.371 10 5.819v-3.319zm-16.293-3.5 3.293 3.293v7.707h-9v-9.5c0-.827.673-1.5 1.5-1.5zm.293 3h1.293l-1.293-1.293zm2 7v-6h-3v-3h-3.5c-.275 0-.5.225-.5.5v8.5zm1 4.75v7.583c0 1.151-2.009 1.667-4 1.667s-4-.516-4-1.667v-7.583c0-1.202 2.073-1.75 4-1.75s4 .548 4 1.75zm-6.998 0c.088.216 1.103.75 2.998.75 1.922 0 2.938-.55 3.001-.759-.062-.191-1.079-.741-3.001-.741-1.896 0-2.91.534-2.998.75zm-.002 5.058c.105.201 1.129.692 3 .692 1.881 0 2.908-.496 3.003-.695v-1.322c-.771.347-1.884.517-3.003.517s-2.23-.169-3-.516zm6.002-2.502v-1.361c-.783.372-1.909.555-3.002.555s-2.218-.183-3-.554v1.362c.105.201 1.129.692 3 .692s2.902-.493 3.002-.694zm.003 4.996v-1.321c-.771.348-1.884.518-3.005.518s-2.23-.169-3-.516v1.349c.086.168 1.114.667 3 .667s2.914-.499 3.005-.697zm12.995-7.553v7.583c0 1.151-2.009 1.667-4 1.667s-4-.516-4-1.667v-7.583c0-1.202 2.073-1.75 4-1.75s4 .548 4 1.75zm-6.998 0c.088.216 1.103.75 2.998.75 1.922 0 2.938-.55 3.001-.759-.062-.191-1.079-.741-3.001-.741-1.896 0-2.91.534-2.998.75zm-.002 5.058c.105.201 1.129.692 3 .692 1.881 0 2.908-.496 3.003-.695v-1.322c-.771.347-1.884.517-3.003.517s-2.23-.169-3-.516zm6.002-2.502v-1.361c-.783.372-1.909.555-3.002.555s-2.218-.183-3-.554v1.362c.105.201 1.129.692 3 .692s2.902-.493 3.002-.694zm.003 4.996v-1.321c-.771.348-1.884.518-3.005.518s-2.23-.169-3-.516v1.349c.086.168 1.114.667 3 .667s2.914-.499 3.005-.697z"/></svg>