<svg id="Layer_1" viewBox="0 0 24 24" xmlns="http://www.w3.org/2000/svg" data-name="Layer 1"><path d="m21.5 0h-19c-1.378 0-2.5 1.122-2.5 2.5v21.5h11.76c-.205-.307-.359-.646-.484-1h-4.276v-5h4v-1h-4v-4.5h6.095c.064-.346.16-.68.285-1h-.881v-4.5h4.5v1.212c.323-.091.656-.156 1-.187v-1.025h5v3.344c.628.894 1 1.981 1 3.156v-11c0-1.378-1.122-2.5-2.5-2.5zm-10 1v5h-4.5v-5zm-9 0h3.5v5h-5v-3.5c0-.827.673-1.5 1.5-1.5zm3.5 6v4.5h-5v-4.5zm0 16h-5v-5h5zm0-6h-5v-4.5h5zm5.5-5.5h-4.5v-4.5h4.5zm1-10.5h4.5v5h-4.5zm5.5 5v-5h3.5c.827 0 1.5.673 1.5 1.5v3.5zm1 14.5h-1v-2h1zm3-7c0-1.93-1.57-3.5-3.5-3.5s-3.5 1.57-3.5 3.5v1.5h-2v6.5c0 1.378 1.122 2.5 2.5 2.5h6c1.378 0 2.5-1.122 2.5-2.5v-6.5h-2zm-6 0c0-1.378 1.122-2.5 2.5-2.5s2.5 1.122 2.5 2.5v1.5h-5zm7 8c0 .827-.673 1.5-1.5 1.5h-6c-.827 0-1.5-.673-1.5-1.5v-5.5h9z"/></svg>