<?xml version="1.0" encoding="UTF-8"?>
<svg xmlns="http://www.w3.org/2000/svg" id="Layer_1" data-name="Layer 1" viewBox="0 0 24 24">
  <path d="M5.347,17.946l.707,.707L.753,23.953l-.707-.707,5.3-5.3ZM23.953,.753l-.707-.707-5.3,5.3,.707,.707L23.953,.753Zm-6.007,17.9l5.3,5.3,.707-.707-5.3-5.3-.707,.707ZM.046,.753L5.347,6.054l.707-.707L.753,.046,.046,.753Zm9.454,1.747c0-1.378,1.122-2.5,2.5-2.5s2.5,1.122,2.5,2.5-1.121,2.5-2.5,2.5-2.5-1.122-2.5-2.5Zm1,0c0,.827,.673,1.5,1.5,1.5s1.5-.673,1.5-1.5-.673-1.5-1.5-1.5-1.5,.673-1.5,1.5Zm6,6v8.5h-2v7h-1v-7h-3v7h-1v-7h-2V8.5c0-1.378,1.122-2.5,2.5-2.5h4c1.379,0,2.5,1.122,2.5,2.5Zm-1,0c0-.827-.673-1.5-1.5-1.5h-4c-.827,0-1.5,.673-1.5,1.5v7.5h7v-7.5Z"/>
</svg>
