<svg id="Layer_1" viewBox="0 0 24 24" xmlns="http://www.w3.org/2000/svg" data-name="Layer 1"><path d="m23.297 11.666-2.412-2.412v7.719h-.994v-7.719l-2.438 2.438-.703-.703 2.491-2.491c.633-.633 1.661-.633 2.294 0l2.466 2.466-.703.703zm-11.363.309v2.014h1.544c1.104 0 1.937.788 1.937 1.832 0 .812-1.181 8.113-1.181 8.113h-6.932l-2.907-.994h-4.395v-7.956h4.235l1.954-2.459c.68-.684 1.726-.686 2.37-.042l1.506 1.506h.874v-2.014c-3.058-.254-5.47-2.819-5.47-5.942.001-3.29 2.677-5.967 5.968-5.967s5.967 2.677 5.967 5.967c0 3.123-2.412 5.688-5.47 5.942zm1.544 3.008h-3.825l-1.798-1.798c-.253-.253-.67-.255-.926 0l-2.215 2.792h-3.72v5.967l3.638.025 2.907.969h5.848c.439-2.722 1.033-6.592 1.033-7.119 0-.575-.489-.837-.942-.837zm-2.041-3.977c2.742 0 4.972-2.231 4.972-4.972s-2.231-4.973-4.972-4.973-4.972 2.231-4.972 4.972 2.231 4.972 4.972 4.972zm.497-.995v-.994h.429c.86 0 1.56-.718 1.56-1.6 0-.708-.463-1.34-1.14-1.54l-2.423-.645c-.244-.072-.415-.312-.415-.583 0-.334.253-.605.565-.605h1.853c.26 0 .565.13.565.497h.994c0-.851-.67-1.492-1.56-1.492h-.429v-.994h-.994v.994h-.429c-.86 0-1.56.718-1.56 1.6 0 .708.463 1.34 1.14 1.54l2.423.645c.244.072.415.312.415.583 0 .334-.253.605-.565.605h-1.853c-.094 0-.565-.023-.565-.478h-.994c0 .853.656 1.472 1.56 1.472h.429v.994h.994z"/></svg>