<?xml version="1.0" encoding="UTF-8"?>
<svg xmlns="http://www.w3.org/2000/svg" id="Layer_1" data-name="Layer 1" viewBox="0 0 24 24">
  <path d="m1,23V2.5c0-.827.673-1.5,1.5-1.5h9.5v7h7v.587c.347.14.679.306,1,.492v-1.786L12.707,0H2.5C1.122,0,0,1.121,0,2.5v21.5h14.5l-2.37-1H1ZM13,1.707l5.293,5.293h-5.293V1.707Zm7.198,14.071c-.322-.651-1.578-2.778-4.198-2.778s-3.875,2.127-4.198,2.778l-.109.222.109.222c.323.651,1.578,2.778,4.198,2.778s3.876-2.127,4.198-2.778l.109-.222-.109-.222Zm-4.198,2.222c-1.792,0-2.768-1.262-3.185-2,.417-.738,1.393-2,3.185-2s2.768,1.262,3.185,2c-.417.738-1.393,2-3.185,2Zm1-2c0,.552-.448,1-1,1s-1-.447-1-1,.448-1,1-1,1,.448,1,1Zm6.945,7.238l-3.368-3.368c.886-1.046,1.423-2.396,1.423-3.87,0-3.309-2.691-6-6-6s-6,2.691-6,6,2.691,6,6,6c1.475,0,2.825-.537,3.87-1.423l3.368,3.368.707-.707Zm-7.945-2.238c-2.757,0-5-2.243-5-5s2.243-5,5-5,5,2.243,5,5-2.243,5-5,5Z"/>
</svg>
