<svg id="Layer_1" viewBox="0 0 24 24" xmlns="http://www.w3.org/2000/svg" data-name="Layer 1"><path d="m9.757 16.036c-.194.195-.194.512 0 .708.196.195.514.194.708 0l2.264-2.299 5.074 4.556h6.197v1h-5.703l-5.125 4h-2.344l-5.125-4h-5.703v-1h6.047l5.125 4h1.656l4.244-3.312-4.301-3.862-1.597 1.622c-.586.586-1.539.589-2.125.002-.584-.585-.584-1.537 0-2.121l2.097-2.073-.809-.737c-.366-.334-.842-.518-1.338-.518-.693.006-2.12.613-2.882 1h-6.117v-1h5.884c.47-.228 2.131-1 3.093-1 .769 0 1.483.276 2.035.779l.84.765.765-.741c.546-.515 1.273-.803 2.038-.803.952 0 2.943.793 3.445 1h5.9v1l-6.193-.039c-.886-.372-2.525-.961-3.152-.961-.509 0-.993.192-1.362.54l-3.535 3.496zm10.243-11.536v3.221l-2.135-2.135-.707.707 2.259 2.26c.299.298.69.447 1.083.447s.784-.149 1.083-.447l2.282-2.283-.707-.707-2.158 2.158v-3.22c0-1.378-1.121-2.5-2.5-2.5h-2.5v1h2.5c.827 0 1.5.673 1.5 1.5zm-10 2.5c0-.551.448-1 1-1h2c.552 0 1 .449 1 1v1h1v-1c0-1.103-.897-2-2-2h-2c-1.103 0-2 .897-2 2v1h1zm-6.5 1.999c.392 0 .784-.149 1.083-.447l2.259-2.259-.707-.707-2.135 2.135v-3.22c0-.827.673-1.5 1.5-1.5h2.5v-1h-2.5c-1.379 0-2.5 1.122-2.5 2.5v3.221l-2.158-2.16-.707.707 2.282 2.283c.299.298.69.447 1.083.447zm6.5-6.999c0-1.103.897-2 2-2s2 .897 2 2-.897 2-2 2-2-.897-2-2zm1 0c0 .551.448 1 1 1s1-.449 1-1-.448-1-1-1-1 .449-1 1z"/></svg>