<svg id="Layer_1" viewBox="0 0 24 24" xmlns="http://www.w3.org/2000/svg" data-name="Layer 1"><path d="m20.533 15.168c0 1.008-.799 1.829-1.781 1.829h-.755v.999h-.999v-.999h-.717c-.982 0-1.781-.821-1.781-1.829v-.17h.999v.17c0 .458.35.83.782.83h2.472c.431 0 .782-.372.782-.83 0-.371-.235-.7-.571-.799l-3.093-.775c-.778-.23-1.307-.953-1.307-1.764 0-1.008.799-1.829 1.781-1.829h.653v-.999h.999v.999h.717c.982 0 1.781.821 1.781 1.829v.195h-.999v-.195c0-.458-.35-.83-.782-.83h-2.37c-.431 0-.782.372-.782.83 0 .371.235.7.571.799l3.093.775c.778.23 1.307.953 1.307 1.764zm1.46-8.866v-1.415c-1.395-.398-2.476-1.481-2.87-2.881h-14.246c-.392 1.397-1.473 2.479-2.87 2.87v10.249c1.397.392 2.479 1.473 2.87 2.87h5.423c-.2-.32-.381-.653-.538-.999h-4.193c-.503-1.15-1.413-2.06-2.563-2.563v-8.864c1.15-.503 2.06-1.413 2.563-2.563h12.863c.502 1.148 1.42 2.038 2.563 2.545v.213c.347.157.679.337.999.538zm1.999 7.197c0 2.292-1.2 4.303-2.998 5.459v5.05l-3.498-2.998-3.498 2.998v-5.05c-1.798-1.156-2.998-3.167-2.998-5.459 0-3.582 2.914-6.496 6.496-6.496s6.496 2.914 6.496 6.496zm-6.827 6.479c-.764-.039-1.495-.203-2.167-.484v2.342l2.167-1.857zm2.83-.484c-.672.281-1.403.446-2.167.484l2.167 1.857v-2.342zm2.998-5.995c0-3.03-2.466-5.496-5.496-5.496s-5.496 2.466-5.496 5.496 2.466 5.496 5.496 5.496 5.496-2.466 5.496-5.496zm-1.499-13.491h-18.988c-1.378 0-2.498 1.12-2.498 2.498v17.489h12.02c-.361-.305-.696-.639-1.002-.999h-10.019v-16.49c0-.827.672-1.499 1.499-1.499h18.988c.827 0 1.499.672 1.499 1.499v4.536c.359.302.697.629.999.988v-5.524c0-1.378-1.12-2.498-2.498-2.498zm-10.468 7.995h-5.022v.999h4.295c.22-.351.46-.686.727-.999zm-1.649 2.998h-3.373v.999h3.138c.061-.34.135-.675.235-.999z"/></svg>