<?xml version="1.0" encoding="UTF-8"?>
<svg xmlns="http://www.w3.org/2000/svg" id="Layer_1" data-name="Layer 1" viewBox="0 0 24 24">
  <path d="M18.687,12.692c-.629-1.043-1.778-1.692-2.997-1.692H0v1H7v12h10V12.385c.333,.206,.625,.48,.832,.823l4.855,8.05,.855-.516-4.855-8.05Zm-10.687,8.308v-1.146l6.239-7.854h1.375l-6.941,9h-.673Zm4.908-9l-4.908,6.231v-6.231h4.908Zm3.092,11H8v-1h8v1Zm0-2h-6.057l6.057-7.878v7.878ZM8,3.088v2.412c0,2.206,1.794,4,4,4s4-1.794,4-4V3.5l.468-1.415c.214-.707-.387-1.564-1.154-1.572L9.298,.001c-1.082-.074-1.971,1.003-1.664,2.086l.366,1Zm7,2.412c0,1.654-1.346,3-3,3s-3-1.346-3-3v-1.5h6v1.5ZM8.714,1.243c.133-.166,.304-.257,.514-.245l6.031,.513c.137-.023,.252,.199,.261,.258l-.453,1.23h-6.066l-.41-1.202c-.048-.198-.004-.395,.124-.555Z"/>
</svg>
