<svg id="Layer_1" viewBox="0 0 24 24" xmlns="http://www.w3.org/2000/svg" data-name="Layer 1"><path d="m23 4.5v-.227c0-.702-.543-1.273-1.21-1.273h-2.58c-.667 0-1.21.571-1.21 1.273 0 .567.363 1.071.883 1.226l3.519 1.043c.941.279 1.599 1.178 1.599 2.185 0 1.254-.991 2.273-2.21 2.273h-.79v2h-1v-2h-.79c-1.219 0-2.21-1.02-2.21-2.273v-.227h1v.227c0 .702.543 1.273 1.21 1.273h2.58c.667 0 1.21-.571 1.21-1.273 0-.567-.363-1.071-.883-1.226l-3.519-1.043c-.941-.279-1.599-1.178-1.599-2.185 0-1.254.991-2.273 2.21-2.273h.752v-2h1v2h.828c1.219 0 2.21 1.02 2.21 2.273v.227zm-2 16.5h1v3h-20v-3h1v-7.5h-1v-3h1v-7.5h-1v-3h16v.201c-.544.167-1.037.439-1.464.799h-13.536v1h12.659c-.192.308-.336.646-.446 1h-11.213v7.5h3.255c-.103.328-.171.661-.205 1h-4.05v1h4.051c.034.339.102.672.205 1h-3.255v7.5h16v-6h1v6zm0 1h-18v1h18zm-9-14.196 2.117 2.071c1.174 1.174 1.174 3.076.004 4.246-.566.566-1.32.879-2.121.879s-1.555-.312-2.121-.879c-1.17-1.17-1.17-3.072 0-4.242zm1.414 2.782-1.414-1.384-1.418 1.388c-.775.775-.775 2.045.004 2.824.756.756 2.072.756 2.828 0 .779-.779.779-2.049 0-2.828z"/></svg>