<svg id="Layer_1" viewBox="0 0 24 24" xmlns="http://www.w3.org/2000/svg" data-name="Layer 1"><path d="m17.85 24c-.107 0-.215-.004-.324-.014-1.051-.087-2.025-.592-2.742-1.423-.544-.583-.826-1.322-1.079-2.247-.218-.8-.958-2.311-2.197-2.311-1.529 0-2.381 1.706-2.826 3.138-.335 1.375-1.395 2.413-2.827 2.748-1.433.335-2.895-.136-3.813-1.228-.823-.914-1.121-2.233-.786-3.518.323-1.233 1.199-2.202 2.345-2.589.989-.335 1.951-.75 2.293-1.516.311-.694.038-1.753-.583-2.266-.458-.379-1.099-.473-1.778-.572-.247-.036-.491-.072-.726-.121-.926-.192-1.724-.747-2.246-1.562-.511-.802-.681-1.757-.477-2.688.418-1.922 2.346-3.141 4.303-2.712.798.174 1.412.766 1.856 1.262.176.195.333.422.49.65.257.374.555.872 1.046.948 1.557.241 1.251-2.053 1.134-2.909-.062-.447-.119-.87-.119-1.267 0-1.182.405-2.175 1.171-2.872.751-.682 1.804-1.014 2.889-.913 1.096.053 2.101.643 2.736 1.616.689 1.057.834 2.385.386 3.551-.239.621-.509 1.323-.443 1.96.052.504.486.867.986.831.667-.05 1.164-.598 1.655-.991.536-.429 1.158-.771 1.839-.901.959-.183 2.002.1 2.797.756 1.15.95 1.446 2.551.976 3.929-.384 1.127-1.322 1.829-2.461 2.095-.489.114-.994.155-1.517.155-.837-.042-1.512.325-1.729.917-.186.51.039 1.074.602 1.51.24.186 1.77 1.441 2.169 1.943.673.748 1.023 1.814.942 2.902s-.585 2.09-1.383 2.749c-.722.623-1.623.96-2.56.96zm-6.341-6.994c1.84 0 2.853 1.915 3.162 3.047.213.783.441 1.396.858 1.844.557.646 1.292 1.028 2.08 1.094.784.07 1.547-.189 2.156-.715.597-.493.97-1.241 1.031-2.059s-.197-1.613-.708-2.183c-.303-.38-1.638-1.505-2.018-1.798-.912-.704-1.268-1.718-.93-2.644.368-1.007 1.425-1.634 2.699-1.574 2.192-.003 3.17-.845 3.17-2.731 0-.626-.305-1.237-.837-1.677-.567-.468-1.304-.672-1.971-.544-.499.096-.995.354-1.61.839l-.238.192c-.468.384-.998.818-1.759.876-1.043.062-1.948-.681-2.056-1.727-.09-.874.24-1.731.504-2.421.333-.867.225-1.857-.29-2.646-.458-.702-1.176-1.126-1.97-1.165-.827-.071-1.602.162-2.145.657-.552.502-.844 1.239-.844 2.132 0 .328.053.718.11 1.131.186 1.353.357 3.2-1.154 3.877-1.233.552-2.178-.252-2.84-1.214-.132-.192-.262-.384-.41-.549-.345-.384-.807-.84-1.326-.953-1.437-.307-2.806.543-3.113 1.949-.147.671-.024 1.358.346 1.937.375.587.946.985 1.607 1.123.215.045.44.077.667.11.749.109 1.597.233 2.271.791.966.798 1.351 2.343.858 3.444-.568 1.27-2.134 1.8-2.886 2.055-.838.283-1.457.974-1.698 1.895-.246.943-.027 1.942.573 2.607.687.816 1.767 1.155 2.831.911 1.057-.248 1.839-1.011 2.091-2.042.996-3.204 2.609-3.87 3.79-3.87z"/></svg>