<?xml version="1.0" encoding="UTF-8"?>
<svg xmlns="http://www.w3.org/2000/svg" id="Layer_1" data-name="Layer 1" viewBox="0 0 24 24">
  <path d="m3.5,16c-1.103,0-2,.897-2,2s.897,2,2,2,2-.897,2-2-.897-2-2-2Zm0,3c-.552,0-1-.448-1-1s.448-1,1-1,1,.448,1,1-.448,1-1,1Zm0-15c1.103,0,2-.897,2-2S4.603,0,3.5,0,1.5.897,1.5,2s.897,2,2,2Zm0-3c.552,0,1,.448,1,1s-.448,1-1,1-1-.448-1-1,.448-1,1-1Zm17,3c1.103,0,2-.897,2-2s-.897-2-2-2-2,.897-2,2,.897,2,2,2Zm0-3c.552,0,1,.448,1,1s-.448,1-1,1-1-.448-1-1,.448-1,1-1Zm0,19c1.103,0,2-.897,2-2s-.897-2-2-2-2,.897-2,2,.897,2,2,2Zm0-3c.552,0,1,.448,1,1s-.448,1-1,1-1-.448-1-1,.448-1,1-1Zm-2.5-7h-5.114l.465-2.616c.041-.24.024-.384.004-.476-.095-.353-.319-.631-.632-.784-.315-.154-.682-.161-1.021-.02-.207.084-.403.289-.549.571l-1.756,3.324h-2.397v8h9.8l1.209-6.495-.009-1.505Zm-10,1h1v6h-1v-6Zm7.97,6h-5.97v-6h0l2.039-3.861c.038-.074.071-.113.066-.119.067-.023.129-.021.176.002.064.031.093.096.094.078,0,0,.002.037-.011.112l-.673,3.788h5.318l.007.416-1.048,5.584ZM1,8H0v-1c0-1.103.897-2,2-2h3c1.103,0,2,.897,2,2v1h-1v-1c0-.552-.448-1-1-1h-3c-.552,0-1,.448-1,1v1Zm23-1v1h-1v-1c0-.552-.448-1-1-1h-3c-.552,0-1,.448-1,1v1h-1v-1c0-1.103.897-2,2-2h3c1.103,0,2,.897,2,2ZM7,23v1h-1v-1c0-.552-.448-1-1-1h-3c-.552,0-1,.448-1,1v1H0v-1c0-1.103.897-2,2-2h3c1.103,0,2,.897,2,2Zm17,0v1h-1v-1c0-.552-.448-1-1-1h-3c-.552,0-1,.448-1,1v1h-1v-1c0-1.103.897-2,2-2h3c1.103,0,2,.897,2,2Z"/>
</svg>
