<?xml version="1.0" encoding="UTF-8"?>
<svg xmlns="http://www.w3.org/2000/svg" id="Layer_1" data-name="Layer 1" viewBox="0 0 24 24">
  <path d="M21.5,2H12.118L8.118,0H2.5C1.122,0,0,1.122,0,2.5V22H11c0-.347,.058-.679,.141-1H1V7H23v4.056c.349,.051,.684,.15,1,.3V4.5c0-1.378-1.122-2.5-2.5-2.5ZM1,6V2.5c0-.827,.673-1.5,1.5-1.5H7.882l4,2h9.618c.827,0,1.5,.673,1.5,1.5v1.5H1Zm21.288,7.015l-5,.715c-.734,.104-1.288,.743-1.288,1.485v5.063c-.295-.172-.634-.278-1-.278-1.103,0-2,.897-2,2s.897,2,2,2,2-.897,2-2v-6.785c0-.247,.185-.46,.429-.495l5-.715c.147-.023,.287,.021,.398,.117,.111,.097,.172,.23,.172,.378v4.778c-.295-.172-.634-.278-1-.278-1.103,0-2,.897-2,2s.897,2,2,2,2-.897,2-2v-6.5c0-.435-.188-.848-.517-1.133s-.766-.411-1.195-.353Zm-7.288,9.985c-.551,0-1-.448-1-1s.449-1,1-1,1,.448,1,1-.449,1-1,1Zm7-1c-.551,0-1-.448-1-1s.449-1,1-1,1,.448,1,1-.449,1-1,1Z"/>
</svg>
