<svg id="Layer_1" viewBox="0 0 24 24" xmlns="http://www.w3.org/2000/svg" data-name="Layer 1"><path d="m19 7.236v-1.236h-2v-3h-1v3h-.002c.349.606.604 1.277.773 2 2.126.234 3.224 1.837 3.229 5 0 3.018-1.042 4.704-3 4.95v-7.95c0 1.522-.349 2.865-1 3.997v3.993c-1.286-.002-2.781-.402-4-.99v1.077c.586.295 1.258.516 2 .67v1.252h1.463l-.534 4h3.143l-.534-4h1.463v-1.248c3.204-.659 5-2.669 5-5.752s-1.791-5.105-5-5.764zm-2.929 15.764.429-3 .429 3h-.857zm3.667-5.477c.724-.888 1.262-2.291 1.262-4.523s-.538-3.635-1.261-4.523c1.738.59 3.261 1.863 3.261 4.523s-1.524 3.933-3.262 4.523zm-4.738-7.523c0-3.086-1.791-5.105-5-5.764v-1.236h-2v-3h-1v3h-2v1.236c-3.209.659-5 2.678-5 5.764s1.791 5.105 5 5.764v1.236h1.462l-.533 4h3.143l-.533-4h1.462v-1.236c3.209-.659 5-2.678 5-5.764zm-14 0c0-2.66 1.523-3.932 3.261-4.523-.723.888-1.261 2.291-1.261 4.523s.538 3.635 1.261 4.523c-1.738-.59-3.261-1.863-3.261-4.523zm6 4.95c-1.958-.246-3-1.932-3-4.95s1.042-4.704 3-4.95zm.071 5.05.426-3.004.431 3.004zm.929-5.05v-9.9c1.958.246 3 1.932 3 4.95s-1.042 4.704-3 4.95zm2.739-.427c.723-.888 1.261-2.291 1.261-4.523s-.538-3.635-1.261-4.523c1.738.59 3.261 1.863 3.261 4.523s-1.523 3.933-3.261 4.523z"/></svg>