<svg id="Layer_1" viewBox="0 0 24 24" xmlns="http://www.w3.org/2000/svg" data-name="Layer 1"><path d="m0 3v8.705c.131.096 8.478 8.669 8.633 8.718.047.023 1.179.577 3.367.577s3.319-.553 3.367-.577l8.633-8.718v-8.705zm1 1h5v7.858c-1.379-.875-3.065-1.358-5-1.358zm.211 7.509c4.562.09 7.474 3.065 7.76 7.871zm8.775 8.293c-.08-3.09-1.153-5.579-2.986-7.2v-8.602h10v8.602c-1.833 1.621-2.906 4.11-2.986 7.2-.482.104-1.151.198-2.014.198s-1.532-.094-2.014-.198zm5.043-.423c.287-4.805 3.198-7.78 7.76-7.87zm7.971-8.879c-1.935 0-3.621.484-5 1.358v-7.858h5z"/></svg>