<?xml version="1.0" encoding="UTF-8"?>
<svg xmlns="http://www.w3.org/2000/svg" id="Layer_1" data-name="Layer 1" viewBox="0 0 24 24">
  <path d="M12,7c1.378,0,2.5-1.122,2.5-2.5s-1.122-2.5-2.5-2.5-2.5,1.122-2.5,2.5,1.122,2.5,2.5,2.5Zm0-4c.827,0,1.5,.673,1.5,1.5s-.673,1.5-1.5,1.5-1.5-.673-1.5-1.5,.673-1.5,1.5-1.5Zm1.5,5h-3c-1.378,0-2.5,1.122-2.5,2.5v7.5h2v6h1v-6h2v6h1v-6h2v-7.5c0-1.378-1.122-2.5-2.5-2.5Zm1.5,9h-6v-6.5c0-.827,.673-1.5,1.5-1.5h3c.827,0,1.5,.673,1.5,1.5v6.5Zm5-12c1.378,0,2.5-1.122,2.5-2.5s-1.122-2.5-2.5-2.5-2.5,1.122-2.5,2.5,1.122,2.5,2.5,2.5Zm0-4c.827,0,1.5,.673,1.5,1.5s-.673,1.5-1.5,1.5-1.5-.673-1.5-1.5,.673-1.5,1.5-1.5Zm4,15h-2v6h-1v-6h-2v6h-1v-7h5v-6.5c0-.827-.673-1.5-1.5-1.5h-3c-.604,0-1.122,.361-1.36,.876-.206-.285-.449-.538-.715-.768,.449-.668,1.212-1.108,2.075-1.108h3c1.378,0,2.5,1.122,2.5,2.5v7.5ZM4,5c1.378,0,2.5-1.122,2.5-2.5S5.378,0,4,0,1.5,1.122,1.5,2.5s1.122,2.5,2.5,2.5Zm0-4c.827,0,1.5,.673,1.5,1.5s-.673,1.5-1.5,1.5-1.5-.673-1.5-1.5,.673-1.5,1.5-1.5Zm3.575,6.108c-.266,.23-.509,.482-.715,.768-.238-.516-.756-.876-1.36-.876H2.5c-.827,0-1.5,.673-1.5,1.5v6.5H6v7h-1v-6H3v6h-1v-6H0v-7.5c0-1.378,1.122-2.5,2.5-2.5h3c.864,0,1.626,.441,2.075,1.108Z"/>
</svg>
