<svg id="Layer_1" viewBox="0 0 24 24" xmlns="http://www.w3.org/2000/svg" data-name="Layer 1"><path d="m24 16h-1.563l-.65-4.833c-.166-1.235-1.231-2.167-2.478-2.167h-14.619c-1.246 0-2.312.932-2.478 2.167l-.65 4.833h-1.562v1h1.563l.65 4.833c.166 1.235 1.231 2.167 2.478 2.167h14.619c1.246 0 2.312-.932 2.478-2.167l.65-4.833h1.563v-1zm-20.797-4.7c.101-.741.739-1.3 1.487-1.3h14.619c.748 0 1.387.559 1.487 1.3l.632 4.7h-18.857zm10.656 5.7-.25 1h-3.219l-.25-1zm6.938 4.7c-.101.741-.739 1.3-1.487 1.3h-14.62c-.748 0-1.387-.559-1.487-1.3l-.632-4.7h6.538l.5 2h4.781l.5-2h6.538l-.632 4.7zm-13.297-14.7c1.758 0 3.204-1.308 3.449-3h11.051v-1h-11.051c-.245-1.692-1.691-3-3.449-3-1.883 0-5.5 1.478-5.5 3.5s3.617 3.5 5.5 3.5zm0-6c1.379 0 2.5 1.122 2.5 2.5s-1.121 2.5-2.5 2.5c-1.573 0-4.5-1.285-4.5-2.5s2.927-2.5 4.5-2.5z"/></svg>