<svg id="Layer_1" viewBox="0 0 24 24" xmlns="http://www.w3.org/2000/svg" data-name="Layer 1"><path d="m10.134 17h5.932v1h-7v-.5c0-1.719 1.483-2.802 2.917-3.849 1.516-1.107 3.083-2.251 3.083-4.151 0-1.378-1.121-2.5-2.5-2.5s-2.5 1.122-2.5 2.5v.5h-1v-.5c0-1.93 1.57-3.5 3.5-3.5s3.5 1.57 3.5 3.5c0 2.407-1.855 3.763-3.493 4.958-1.152.841-2.17 1.584-2.438 2.542zm-1.068-11h-1.115l-3.344 6.919-3.423-6.919h-1.119l4 8.055v3.945h1v-3.761l4-8.239zm14.87 0h-1.072l-2.139 5.5h-2.158v-5.5h-1v12h1v-5.5h2.158l2.139 5.5h1.072l-2.333-6z"/></svg>