<svg id="Layer_1" viewBox="0 0 24 24" xmlns="http://www.w3.org/2000/svg" data-name="Layer 1"><path d="m15 8c0-.552.448-1 1-1s1 .448 1 1-.448 1-1 1-1-.448-1-1zm-10.333 4.188c-.427-.978-.667-2.055-.667-3.188 0-4.411 3.589-8 8-8s8 3.589 8 8c0 1.167-.257 2.274-.709 3.275l1.246-.445c.296-.891.463-1.841.463-2.83 0-4.963-4.038-9-9-9s-9 4.037-9 9c0 .958.154 1.88.432 2.747l1.234.441zm9.333-8.188c-.552 0-1 .448-1 1s.448 1 1 1 1-.448 1-1-.448-1-1-1zm10 19v1h-24v-1h3.916c-.489-3.18-1.188-5.678-2.933-8.035l-.978-1.32 1.547.552c3.03 1.08 4.964 4.74 5.309 7.798.04.353.066.677.094 1.006h1.101c-.432-2.744-1.115-5.085-2.817-7.384l-.978-1.321 1.548.553c1.738.62 3.106 2.07 4.014 3.707 1.083-2.191 2.777-3.858 4.65-4.526l1.421-.507-.837 1.255c-2.01 3.016-2.878 5.302-2.96 8.223h.948c.026-.299.049-.591.086-.913.306-2.719 2.233-6.181 5.202-7.239l1.548-.553-.978 1.321c-1.703 2.299-2.385 4.639-2.817 7.384h.96c.028-.329.054-.653.094-1.007.345-3.057 2.279-6.717 5.309-7.797l1.547-.552-.978 1.32c-1.745 2.357-2.445 4.855-2.933 8.035h3.916zm-18.049 0c-.026-.294-.048-.58-.084-.894-.23-2.047-1.293-4.483-2.946-5.938 1.087 2.049 1.622 4.275 2.008 6.831h1.022zm4.141 0c-.023-.263-.043-.519-.075-.8-.208-1.85-1.269-4.049-2.846-5.4 1.114 2.076 1.591 4.182 1.899 6.2zm1.004 0c.082-2.84.905-5.024 2.101-7.124-1.085.842-2.161 2.364-2.818 3.849.322.801.547 1.609.632 2.363.036.321.06.614.085.912zm3.974 0c.309-2.018.785-4.124 1.899-6.199-1.577 1.351-2.637 3.55-2.845 5.398-.032.282-.052.537-.075.801zm4 0c.386-2.556.921-4.782 2.008-6.831-1.652 1.454-2.715 3.891-2.946 5.937-.036.315-.058.601-.084.895h1.022zm-8.07-15c0 .552.448 1 1 1s1-.448 1-1-.448-1-1-1-1 .448-1 1z"/></svg>