<svg id="Layer_1" viewBox="0 0 24 24" xmlns="http://www.w3.org/2000/svg" data-name="Layer 1"><path d="m22.5 4c.827 0 1.5-.673 1.5-1.5s-.673-1.5-1.5-1.5-1.5.673-1.5 1.5.673 1.5 1.5 1.5zm0-2c.275 0 .5.224.5.5s-.225.5-.5.5-.5-.224-.5-.5.225-.5.5-.5zm1.5 13v9h-1v-9c0-.551-.448-1-1-1s-1 .449-1 1v5h-1v-7c0-.551-.448-1-1-1s-1 .449-1 1v7h-1v-8c0-.551-.448-1-1-1s-1 .449-1 1v8h-1v-6c0-.551-.448-1-1-1s-1 .449-1 1v7.299l-1.391-1.74c-.521-.516-1.382-.619-1.965-.2-.754.511-.847 1.661-.195 2.287l2.024 2.354h-1.317l-1.44-1.674c-1.058-1.01-.89-2.948.344-3.778.854-.618 2.05-.58 2.939.048v-4.596c0-1.103.897-2 2-2 .366 0 .705.106 1 .278v-.278c0-1.103.897-2 2-2 .872 0 1.607.564 1.88 1.344.32-.217.705-.344 1.12-.344 1.103 0 2 .897 2 2v.278c.295-.172.634-.278 1-.278 1.103 0 2 .897 2 2zm-19-2c0 1.575.615 3.005 1.61 4.077-.256.216-.488.456-.691.724-1.186-1.255-1.92-2.942-1.92-4.801 0-3.86 3.141-7 7-7v1c-3.309 0-6 2.691-6 6zm-4 0c0-5.514 4.486-10 10-10 4.176 0 7.758 2.576 9.253 6.22.485.161.925.409 1.308.731-.509-1.758-1.446-3.334-2.689-4.613.7-.561 1.128-1.414 1.128-2.338 0-1.654-1.346-3-3-3-.903 0-1.705.409-2.255 1.043-.341-.618-.991-1.043-1.745-1.043-1.103 0-2 .897-2 2-1.618 0-3.15.36-4.535.99-.469-.608-1.186-.99-1.965-.99-1.379 0-2.5 1.122-2.5 2.5 0 .171.02.341.054.506-1.119-.048-2.057.878-2.054 1.994 0 .678.353 1.286.9 1.651-.577 1.335-.9 2.804-.9 4.349 0 4.04 2.195 7.568 5.45 9.481-.215-.461-.358-.952-.406-1.468-2.448-1.825-4.044-4.732-4.044-8.013zm16-12c1.103 0 2 .897 2 2 0 .668-.344 1.267-.882 1.635-.915-.781-1.958-1.413-3.095-1.863.115-.995.952-1.773 1.977-1.773zm-4 0c.552 0 1 .449 1 1 0 .139-.036.272-.091.398-.614-.169-1.249-.289-1.901-.349-.052-.564.431-1.052.992-1.049zm-8.5 2c.405 0 .788.166 1.067.448-.865.494-1.661 1.096-2.359 1.797-.13-.225-.208-.479-.208-.745 0-.827.673-1.5 1.5-1.5zm-2.5 3c.157 0 .304.042.439.109-.411.51-.781 1.054-1.097 1.633-.209-.186-.342-.45-.342-.741 0-.551.448-1 1-1z"/></svg>