<svg id="Layer_1" viewBox="0 0 24 24" xmlns="http://www.w3.org/2000/svg" data-name="Layer 1"><path d="m5.5 9c.421 0 .801-.176 1.074-.456.96 2.039 3.028 3.456 5.426 3.456s4.467-1.418 5.426-3.456c.273.281.653.456 1.074.456.827 0 1.5-.673 1.5-1.5v-3c0-.827-.673-1.5-1.5-1.5-.421 0-.801.176-1.074.456-.96-2.039-3.028-3.456-5.426-3.456s-4.467 1.418-5.426 3.456c-.273-.281-.653-.456-1.074-.456-.827 0-1.5.673-1.5 1.5v3c0 .827.673 1.5 1.5 1.5zm6.5 2c-2.757 0-5-2.243-5-5 0-.342.035-.677.101-1h2.899c.817 0 1.543-.394 2-1.002.457.608 1.184 1.002 2 1.002h2.899c.066.323.101.658.101 1 0 2.757-2.243 5-5 5zm6-6.5c0-.275.225-.5.5-.5s.5.225.5.5v3c0 .275-.225.5-.5.5s-.5-.225-.5-.5zm-6-3.5c2.045 0 3.802 1.237 4.576 3h-2.576c-.827 0-1.5-.673-1.5-1.5h-1c0 .827-.673 1.5-1.5 1.5h-2.576c.774-1.763 2.531-3 4.576-3zm-7 3.5c0-.275.224-.5.5-.5s.5.225.5.5v3c0 .275-.224.5-.5.5s-.5-.225-.5-.5zm16 14v5.5h-1v-5.5c0-1.93-1.57-3.5-3.5-3.5h-9c-1.93 0-3.5 1.57-3.5 3.5v5.5h-1v-5.5c0-2.481 2.019-4.5 4.5-4.5h9c2.481 0 4.5 2.019 4.5 4.5z"/></svg>