<svg id="Layer_1" viewBox="0 0 24 24" xmlns="http://www.w3.org/2000/svg" data-name="Layer 1"><path d="m9.167 20-.753-2.585c.372-.373.586-.88.586-1.415 0-1.103-.897-2-2-2s-2 .897-2 2c0 .535.214 1.042.586 1.415l-.753 2.585h4.333zm-2.167-5c.551 0 1 .448 1 1 .021.477-.36.812-.739 1.032l.573 1.968h-1.667l.573-1.968c-.38-.22-.76-.555-.739-1.032 0-.552.449-1 1-1zm12 8c0 .552-.448 1-1 1s-1-.448-1-1 .448-1 1-1 1 .448 1 1zm1.829-2.828-.707.707c-1.17-1.17-3.073-1.17-4.243 0l-.707-.707c1.56-1.561 4.098-1.561 5.657 0zm2.828-2.829-.707.707c-2.729-2.729-7.17-2.729-9.899 0l-.707-.707c3.119-3.119 8.194-3.119 11.313 0zm-10.657 5.657h-12v-20.5c0-.827.673-1.5 1.5-1.5h9c.827 0 1.5.673 1.5 1.5v1.649c-2.17.402-4.351.786-6.01.851h-.99v3h.691c1.412-.002 3.883 0 6.309-.334v6.686c.325-.189.659-.359 1-.508v-6.338c1.241-.229 2.581-.379 4.196-.451.435 1.148 1.554 1.944 2.804 1.944 1.654 0 3-1.346 3-3s-1.346-3-3-3c-1.813 0-4.329.465-7 .963v-1.463c0-1.378-1.122-2.5-2.5-2.5h-9c-1.378.001-2.5 1.123-2.5 2.501v21.5h13s.947.015 1 0v-2.171l-1-1zm8-19c1.103 0 2 .897 2 2s-.897 2-2 2c-1.111.014-1.927-.913-2.04-1.975-1.827.054-3.647.215-5.052.483-2.494.464-5.261.491-6.909.492v-1c1.974-.072 4.647-.582 7.12-1.042 2.646-.493 5.144-.958 6.88-.958z"/></svg>