<?xml version="1.0" encoding="UTF-8"?>
<svg xmlns="http://www.w3.org/2000/svg" id="Layer_1" data-name="Layer 1" viewBox="0 0 24 24">
  <path d="M11.798,10.814l.279,.188c.466-.334,5.858-3.846,6-7.478,0-1.944-1.458-3.525-3.25-3.525-1.156,0-2.174,.659-2.75,1.648-.576-.989-1.594-1.648-2.75-1.648-1.792,0-3.25,1.581-3.25,3.525,0,3.395,5.487,7.132,5.721,7.29ZM9.327,1c1.241,0,2.25,1.133,2.25,2.525h1c0-1.392,1.01-2.525,2.25-2.525s2.25,1.133,2.25,2.525c0,2.239-3.38,5.111-5,6.266-1.621-1.155-5-4.027-5-6.266,0-1.392,1.009-2.525,2.25-2.525Zm14.673,16h-1v-4h-3v-2h-4v6H8v-6H4v2H1v4H0v1H1v4h3v2h4v-6h8v6h4v-2h3v-4h1v-1ZM2,21v-7h2v7H2Zm5,2h-2V12h2v11Zm12,0h-2V12h2v11Zm3-2h-2v-7h2v7Z"/>
</svg>
