<svg id="Layer_1" viewBox="0 0 24 24" xmlns="http://www.w3.org/2000/svg" data-name="Layer 1"><path d="m15.237 11h1.527c.662 0 1.2-.538 1.2-1.2v-1.8h-1v1.8c0 .11-.09.2-.2.2h-1.803c-.496-1.198-1.665-1.999-2.96-2-1.278 0-2.433.784-2.953 2h-1.81c-.11 0-.2-.09-.2-.2v-1.8h-1v1.8c0 .662.539 1.2 1.2 1.2h1.524l-.503 2h-2.258v1h2.007c-.086.296-.136.605-.132.922 0 .377.066.734.16 1.078h-.834c-.662 0-1.2.538-1.2 1.2v1.8h1v-1.8c0-.11.09-.2.2-.2h1.255c.711 1.199 2.011 1.999 3.546 2 1.532-.001 2.831-.8 3.543-2h1.256c.11 0 .2.09.2.2v1.8h1v-1.8c0-.662-.539-1.2-1.2-1.2h-.836c.094-.347.161-.706.161-1.086.005-.306-.047-.624-.132-.914h2.007v-1h-2.259l-.504-2zm-3.236 7c-1.751-.002-3.124-1.354-3.126-3.072.002-.144.006-.282.028-.396l1.021-4.068c.321-.875 1.155-1.463 2.076-1.464.921 0 1.756.589 2.061 1.414l1.033 4.105c.025.134.029.268.031.4-.002 1.726-1.375 3.078-3.124 3.08zm9.499-15h-9.382l-4-2h-5.618c-1.378 0-2.5 1.121-2.5 2.5v19.5h24v-17.5c0-1.379-1.122-2.5-2.5-2.5zm1.5 19h-22v-18.5c0-.827.673-1.5 1.5-1.5h5.382l4 2h9.618c.827 0 1.5.673 1.5 1.5z"/></svg>