<svg id="Layer_1" viewBox="0 0 24 24" xmlns="http://www.w3.org/2000/svg" data-name="Layer 1"><path d="m18 7c.552 0 1 .448 1 1s-.448 1-1 1-1-.448-1-1 .448-1 1-1zm2.828-1.828c-1.51-1.512-4.146-1.512-5.656 0l.707.707c1.133-1.133 3.109-1.133 4.242 0zm2.122-2.122.707-.707c-3.119-3.119-8.195-3.119-11.314 0l.707.707c2.73-2.729 7.17-2.729 9.9 0zm1.05 5.45v12.5h-5v3h-14v-3h-5v-12.5c0-1.379 1.121-2.5 2.5-2.5h2.5v-6h7.018c-.404.302-.799.631-1.161 1h-4.857v5h7.172l1 1h-11.672c-.827 0-1.5.673-1.5 1.5v11.5h4v-6h14v6h4v-11.5c0-.725-.517-1.331-1.202-1.47l.777-.777c.84.404 1.425 1.255 1.425 2.247zm-6 6.5h-12v8h12z"/></svg>