<svg id="Layer_1" viewBox="0 0 24 24" xmlns="http://www.w3.org/2000/svg" data-name="Layer 1"><path d="m7 16v7.995l-1 .005v-7.995zm-6 8h1v-5h-1zm10-10.996v10.996l1-.004v-10.996zm-5.495-11.004h-1.005v-2h-1v2h-1.005c-1.376 0-2.495 1.119-2.495 2.495 0 1.108.744 2.095 1.81 2.399l4.105 1.173c.639.182 1.085.773 1.085 1.438 0 .824-.671 1.495-1.495 1.495h-3.01c-.824 0-1.495-.671-1.495-1.495v-.505h-1v.505c0 1.376 1.119 2.495 2.495 2.495h1.005v2h1v-2h1.005c1.376 0 2.495-1.119 2.495-2.495 0-1.108-.744-2.095-1.81-2.399l-4.105-1.173c-.639-.182-1.085-.773-1.085-1.438 0-.824.671-1.495 1.495-1.495h3.01c.824 0 1.495.671 1.495 1.495v.505h1v-.505c0-1.376-1.119-2.495-2.495-2.495zm14.495 4c0 1.103-.897 2-2 2s-2-.897-2-2 .897-2 2-2 2 .897 2 2zm-1 0c0-.551-.448-1-1-1s-1 .449-1 1 .448 1 1 1 1-.449 1-1zm-1.5 7h1v-4h-1zm.5-13c-3.309 0-6 2.691-6 6 0 2.416 1.438 4.497 3.5 5.447v-1.143c-1.487-.867-2.5-2.462-2.5-4.304 0-2.757 2.243-5 5-5s5 2.243 5 5c0 1.842-1.013 3.437-2.5 4.304v1.143c2.062-.95 3.5-3.032 3.5-5.447 0-3.309-2.691-6-6-6zm-2 24h1v-9h-1zm5 0h1v-11.079c-.321.186-.653.352-1 .492z"/></svg>