<svg id="Layer_1" viewBox="0 0 24 24" xmlns="http://www.w3.org/2000/svg" data-name="Layer 1"><path d="m18.597 14.46 2.222 2.221-.707.707-2.112-2.11v5.223h-1v-5.247l-2.124 2.124-.707-.707 2.21-2.21c.611-.611 1.605-.611 2.217 0zm5.403 3.04c0 3.584-2.916 6.5-6.5 6.5s-6.5-2.916-6.5-6.5 2.916-6.5 6.5-6.5 6.5 2.916 6.5 6.5zm-1 0c0-3.032-2.467-5.5-5.5-5.5s-5.5 2.468-5.5 5.5 2.467 5.5 5.5 5.5 5.5-2.468 5.5-5.5zm-13.24 3.5c.157.347.338.68.538 1h-2.798c-1.378 0-2.5-1.121-2.5-2.5 0-.547.182-1.049.481-1.461l-3.481-9.353c0-1.552.007-3.396 1.601-4.686h-1.101c-1.378 0-2.5-1.121-2.5-2.5v-1.5h1v1.5c0 .827.673 1.5 1.5 1.5h16c.827 0 1.5-.673 1.5-1.5v-1.5h1v1.5c0 1.379-1.122 2.5-2.5 2.5h-1.101c1.594 1.29 1.601 3.133 1.601 4.686-.007.109-.087.334-.131.435-.338-.055-.681-.089-1.031-.103l.161-.423c0-.2-.001-.398-.005-.594h-1.495c-1.442 0-2.683.878-3.218 2.127-.435.249-.847.531-1.229.851.263-2.233 2.145-3.978 4.447-3.978h1.425c-.17-1.259-.74-2.349-2.631-3h-9.591c-1.89.651-2.458 1.742-2.627 3h1.425c2.481 0 4.5 2.019 4.5 4.5v6c0 .169.016.334.025.5h-1.525c-.827 0-1.5.673-1.5 1.5s.673 1.5 1.5 1.5h2.26zm-6.76-12.405 3.283 8.735c.362-.204.773-.33 1.217-.33h.5v-5.5c0-.346-.066-.674-.16-.99-.176.288-.478.49-.84.49-.552 0-1-.448-1-1 0-.536.424-.965.953-.991-.632-.623-1.498-1.009-2.453-1.009h-1.495c-.004.197-.005.395-.005.595z"/></svg>