<svg id="Layer_1" viewBox="0 0 24 24" xmlns="http://www.w3.org/2000/svg" data-name="Layer 1"><path d="m12.5 4h-1v-4h1zm4.5-4h-1v4h1zm-9 0h-1v4h1zm16 18c0 3.309-2.691 6-6 6s0 0-.001 0c-3.308-.001-5.998-2.692-5.998-6 .075-2.93 1.497-4.33 2.997-5.856-.004.628-.068 2.608.465 2.731.402 0 .524-.271.799-1.347.208-1.004.738-2.434 1.713-3.387.555.575 1.088 1.042 1.793 1.625 1.886 1.58 4.233 3.545 4.233 6.233zm-4.5 3.5c0-.401-.156-.778-.439-1.062l-1.061-1.061-1.062 1.061c-.584.584-.584 1.537 0 2.123.587.585 1.537.583 2.122 0 .283-.283.439-.66.439-1.061zm3.5-3.5c0-2.221-2.148-4.02-3.875-5.466-.377-.315-.739-.619-1.063-.912-.461.7-.655 1.465-.831 2.154-.264 1.032-.536 2.1-1.769 2.1-.708 0-1.116-.579-1.313-1.303-.616.86-1.148 2.014-1.148 3.428 0 1.912 1.091 3.556 2.671 4.397-.343-.895-.159-1.947.56-2.666l1.769-1.768 1.768 1.768c.696.679.923 1.767.562 2.666 1.58-.841 2.671-2.486 2.671-4.397zm1-12v.5c0 2.102-.449 3.874-1.111 5.354-.256-.247-.514-.483-.771-.709.479-1.18.817-2.548.874-4.144h-21.983c.246 6.687 5.37 9.612 6.111 10h2.953c-.046.326-.073.656-.073.987v.013h-2.942l-.597 1.194c.902.378 1.538 1.269 1.538 2.306 0 1.378-1.121 2.5-2.5 2.5s-2.5-1.122-2.5-2.5c0-1.357 1.088-2.46 2.438-2.494l.708-1.417c-1.69-1.048-6.145-4.439-6.145-11.09v-.5zm-18.5 14c-.827 0-1.5.673-1.5 1.5s.673 1.5 1.5 1.5 1.5-.673 1.5-1.5-.673-1.5-1.5-1.5z"/></svg>