<svg id="Layer_1" viewBox="0 0 24 24" xmlns="http://www.w3.org/2000/svg" data-name="Layer 1"><path d="m21 18.756v5.244h-1v-5.244c0-1.997-1.566-3.635-3.535-3.75l-4.452 5.08-4.477-5.08c-1.97.114-3.536 1.752-3.536 3.75v5.244h-1v-5.244c0-2.623 2.134-4.756 4.756-4.756h.226l4.029 4.571 4.007-4.571h.227c2.622 0 4.756 2.133 4.756 4.756zm-16.091-6.118c-.427.2-.83.443-1.203.724.954-4.064 2.013-8.56 2.092-8.811.854-2.722 3.347-4.551 6.202-4.551s5.348 1.829 6.202 4.55c.079.251 1.138 4.747 2.092 8.811-.373-.281-.775-.524-1.203-.724-1.074-4.561-1.81-7.68-1.843-7.788-.416-1.324-1.298-2.384-2.425-3.058-.928 2.993-3.642 5.113-6.808 5.206h-.914c.464 2.281 2.484 4.003 4.899 4.003 1.716 0 3.233-.869 4.134-2.191.09.381.187.794.292 1.238-1.098 1.2-2.675 1.953-4.426 1.953-2.846 0-5.23-1.993-5.843-4.656-.317 1.343-.745 3.157-1.248 5.294zm1.843-7.788c-.011.038-.11.448-.276 1.15l1.523-.002c2.776-.081 5.161-1.98 5.918-4.644-.602-.223-1.245-.353-1.917-.353-2.416 0-4.525 1.547-5.248 3.85z"/></svg>