<svg id="Layer_1" viewBox="0 0 24 24" xmlns="http://www.w3.org/2000/svg" data-name="Layer 1"><path d="m17.779 12 1.218 1h-4.996v-1h3.779zm-3.779 7h6v-1h-6zm6-4h-6v1h6zm4-9c0-1.103-.897-2-2-2v1c.551 0 1 .449 1 1s-.449 1-1 1v1c1.103 0 2-.897 2-2zm-16 13v-3h3v-1h-3v-10h-1v10h-3v1h3v3zm15 4h-22v-20.5c0-.827.673-1.5 1.5-1.5h14.061l1.218-1h-15.279c-1.378 0-2.5 1.122-2.5 2.5v21.5h24v-14.556c-.311.181-.646.322-1 .419v13.138zm-2-11-3.724-3h-1.776c-.827 0-1.5-.673-1.5-1.5v-3c0-.827.673-1.5 1.5-1.5h1.776l3.724-3zm-1-9.885-2.366 1.885h-2.134c-.276 0-.5.224-.5.5v3c0 .276.224.5.5.5h2.134l2.366 1.885z"/></svg>