<svg id="Layer_1" viewBox="0 0 24 24" xmlns="http://www.w3.org/2000/svg" data-name="Layer 1"><path d="m19 22h2v2h-2zm3-1h2v-2h-2zm-3 0h2v-2h-2zm-6-8h5v5h-5zm1 4h3v-3h-3zm-1 2h5v5h-5zm1 4h3v-3h-3zm10-10v5h-5v-5zm-1 1h-3v3h3zm-8 2h1v-1h-1zm7-1h-1v1h1zm-7 7h1v-1h-1zm4-11h1v-9.5c0-.827-.673-1.5-1.5-1.5h-16c-1.379 0-2.5 1.122-2.5 2.5v19c0 1.378 1.121 2.5 2.5 2.5h8.5v-1h-8.5c-.827 0-1.5-.673-1.5-1.5s.673-1.5 1.5-1.5h8.5v-1h-8.5c-.565 0-1.081.195-1.5.513v-17.013c0-.827.673-1.5 1.5-1.5h16c.275 0 .5.224.5.5zm-8.5-8v1.025c2.799.254 5 2.611 5 5.475v.5h1v1h-13v-1h1v-.5c0-2.864 2.201-5.221 5-5.475v-1.025zm-.5 2c-2.481 0-4.5 2.019-4.5 4.5v.5h9v-.5c0-2.481-2.019-4.5-4.5-4.5z"/></svg>