<svg id="Layer_1" viewBox="0 0 24 24" xmlns="http://www.w3.org/2000/svg" data-name="Layer 1"><path d="m8 13c2.757 0 5-2.243 5-5s-2.243-5-5-5-5 2.243-5 5 2.243 5 5 5zm0-9c2.206 0 4 1.794 4 4s-1.794 4-4 4-4-1.794-4-4 1.794-4 4-4zm10 8c0-1.103-.897-2-2-2s-2 .897-2 2 .897 2 2 2c.546 0 1.04-.221 1.401-.576l5.841 3.505.515-.857-5.848-3.509c.053-.18.09-.366.09-.563zm-2 1c-.551 0-1-.449-1-1s.449-1 1-1 1 .449 1 1-.449 1-1 1zm-4.5 2h-7c-2.481 0-4.5 2.019-4.5 4.5v4.5h1v-4.5c0-1.93 1.57-3.5 3.5-3.5h.578l1.883 2.608-1.269 5.392h1.027l1.28-5.442 1.281 5.442h1.027l-1.268-5.392 1.884-2.608h.577c1.93 0 3.5 1.57 3.5 3.5v4.5h1v-4.5c0-2.481-2.019-4.5-4.5-4.5zm-3.5 3.338-1.689-2.338h3.378zm13.536-13.051c-.786-1.729-1.859-3.298-3.17-4.639l.659-.648c1.425 1.425 2.573 3.057 3.411 4.871zm.157 13.044.861.517c-.836 1.898-2.012 3.641-3.521 5.152l-.708-.698c1.45-1.453 2.578-3.14 3.368-4.971zm2.307-6.331c0 .61-.044 1.216-.109 1.819l-.942-.565c.032-.414.051-.832.051-1.254 0-1.616-.244-3.173-.683-4.646l.953-.289c.484 1.599.729 3.345.729 4.935z"/></svg>