<svg id="Layer_1" viewBox="0 0 24 24" xmlns="http://www.w3.org/2000/svg" data-name="Layer 1"><path d="m21 18.5v5.5h-1v-5.5c0-1.93-1.57-3.5-3.5-3.5h-9c-1.93 0-3.5 1.57-3.5 3.5v5.5h-1v-5.5c0-2.481 2.019-4.5 4.5-4.5h9c2.481 0 4.5 2.019 4.5 4.5zm-14.91-13.5h-2.09v-1h2.35c.826-2.327 3.043-4 5.65-4 3.309 0 6 2.691 6 6s-2.691 6-6 6-6-2.691-6-6c0-.341.035-.674.09-1zm1.333-1h9.152c-.774-1.763-2.531-3-4.576-3s-3.802 1.237-4.576 3zm-.424 2c0 2.757 2.243 5 5 5s5-2.243 5-5c0-.342-.035-.677-.101-1h-9.797c-.066.323-.101.658-.101 1zm11 12.5v5.5h-11.999v-5.5c0-.827.673-1.5 1.5-1.5h9c.827 0 1.5.673 1.5 1.5zm-1 2.5h-2.699c-.342.623-.95 1-1.718 1-.293-.002-.875-.002-1.164 0-.771 0-1.379-.377-1.721-1h-2.699v2h10v-2zm0-1v-1.5c0-.275-.224-.5-.5-.5h-2.172c-.34.633-.969 1-1.744 1-.293-.002-.875-.002-1.164 0-.778 0-1.408-.367-1.748-1h-2.172c-.276 0-.5.225-.5.5v1.5z"/></svg>