<svg id="Layer_1" viewBox="0 0 24 24" xmlns="http://www.w3.org/2000/svg" data-name="Layer 1"><path d="m23.267.733c-.472-.473-1.101-.733-1.769-.733-1.378 0-2.499 1.121-2.499 2.499v3.691l-3.632-2.705c-.533-.398-1.188-.564-1.846-.466-.657.097-1.237.443-1.633.977-.496.667-.601 1.502-.366 2.241-.749.002-1.45.394-1.894.989-.486.654-.594 1.469-.377 2.197-.782-.022-1.53.368-1.993.993-.33.443-.481.961-.482 1.476l-2.812-2.096c-.997-.743-2.385-.686-3.229.133-1.081.999-.965 2.875.232 3.725l13.949 10.384 9.069-11.541.013-9.996c0-.668-.259-1.296-.73-1.769zm-10.575 3.859c.464-.651 1.445-.796 2.079-.305l1.591 1.186c.657.49.794 1.425.306 2.083-.417.583-1.262.771-1.886.421-.029-.024-1.805-1.34-1.87-1.38-.578-.506-.686-1.378-.22-2.005zm-2.26 3.23c.428-.597 1.299-.783 1.924-.386.016.013 1.776 1.316 1.847 1.359.564.508.666 1.37.204 1.99-.463.652-1.447.795-2.078.305l-1.591-1.186s0 0-.001 0c-.657-.49-.794-1.424-.305-2.082zm-2.37 3.19c.464-.651 1.444-.796 2.078-.305l1.592 1.187c.657.49.794 1.424.305 2.083-.462.651-1.449.795-2.078.305l-1.694-1.28c-.563-.508-.664-1.369-.203-1.989zm14.923 1.139-8.253 10.503-13.168-9.802c-.708-.505-.779-1.614-.133-2.206.496-.481 1.328-.503 1.936-.049l5.994 4.484c1.06.823 2.704.579 3.479-.511.484-.651.592-1.462.38-2.187.781 0 1.528-.374 1.99-1.003.495-.665.6-1.497.368-2.234.749-.017 1.448-.396 1.893-.996.334-.449.484-.975.481-1.496l2.049 1.526v-5.681c0-.826.672-1.499 1.499-1.499.806-.017 1.517.694 1.499 1.501l-.013 9.65z"/></svg>