<svg id="Layer_1" viewBox="0 0 24 24" xmlns="http://www.w3.org/2000/svg" data-name="Layer 1"><path d="m21.5 6h-3.199c.154.323.281.656.385 1h2.815c.534 0 1 .282 1.266.703l-8.273 8.272c-.662.662-1.54 1.025-2.479 1.025h-.017c-.98-.008-1.826-.359-2.492-1.025l-8.272-8.272c.266-.421.732-.703 1.266-.703h12.962c.408.707.601 1.539.52 2.395-.191 2.137-2.248 3.744-4.481 3.605-.276 0-.5.224-.5.5s.224.5.5.5c2.747.144 5.236-1.868 5.477-4.51.205-2.146-.975-4.178-2.935-5.056-.951-.426-1.542-1.279-1.542-2.226v-2.208h-1v2.209c0 1.347.817 2.549 2.133 3.138.375.168.711.391 1.008.653h-6.641v-.5l-1-1v1.5h-4.501c-1.378 0-2.5 1.121-2.5 2.5v15.5h24v-15.5c0-1.379-1.122-2.5-2.5-2.5zm-20.5 17v-14.117l7.799 7.799c.851.851 1.98 1.318 3.177 1.318h.044c1.202 0 2.331-.468 3.182-1.318l7.799-7.799v14.117z"/></svg>