<?xml version="1.0" encoding="UTF-8"?>
<svg xmlns="http://www.w3.org/2000/svg" id="Layer_1" data-name="Layer 1" viewBox="0 0 24 24">
  <path d="M6,10.5c0,2.481,2.019,4.5,4.5,4.5s4.5-2.019,4.5-4.5-2.019-4.5-4.5-4.5-4.5,2.019-4.5,4.5Zm8,0c0,1.93-1.57,3.5-3.5,3.5s-3.5-1.57-3.5-3.5,1.57-3.5,3.5-3.5,3.5,1.57,3.5,3.5Zm-3.5-1c.552,0,1,.448,1,1s-.448,1-1,1-1-.448-1-1,.448-1,1-1Zm12,3.5c-.197,0-.385,.04-.558,.11-.173-.638-.751-1.11-1.442-1.11-.197,0-.385,.04-.558,.11-.173-.638-.751-1.11-1.442-1.11s-1.269,.473-1.442,1.11c-.173-.07-.36-.11-.558-.11-.827,0-1.5,.673-1.5,1.5v4.782l-.298-.298c-.113-.113-.529-.483-1.139-.484h-.001c-.401,0-.779,.167-1.095,.482-.606,.606-.618,1.618-.022,2.214l2.875,2.808c.658,.643,1.526,.996,2.445,.996h2.736c1.93,0,3.5-1.57,3.5-3.5v-6c0-.827-.673-1.5-1.5-1.5Zm.5,7.5c0,1.379-1.122,2.5-2.5,2.5h-2.736c-.656,0-1.277-.253-1.747-.711l-2.87-2.804c-.095-.095-.148-.234-.147-.382,.002-.157,.063-.304,.173-.414,.127-.127,.254-.189,.388-.189h0c.167,0,.341,.099,.433,.19l2.006,2.006v-7.196c0-.275,.224-.5,.5-.5s.5,.225,.5,.5v4.5h1v-5.5c0-.275,.224-.5,.5-.5s.5,.225,.5,.5v5.5h1v-4.5c0-.275,.224-.5,.5-.5s.5,.225,.5,.5v4.5h1v-3.5c0-.275,.224-.5,.5-.5s.5,.225,.5,.5v6Zm-12.876-.519c.09,.354,.227,.698,.428,1.016-.017,0-.034,.003-.052,.003C4.71,21,0,16.29,0,10.5S4.71,0,10.5,0c5.631,0,10.227,4.458,10.476,10.029-.303-.303-.663-.547-1.06-.724C19.326,4.63,15.333,1,10.5,1,5.262,1,1,5.262,1,10.5c0,5.111,4.061,9.281,9.124,9.481Z"/>
</svg>
