<?xml version="1.0" encoding="UTF-8"?>
<svg xmlns="http://www.w3.org/2000/svg" id="Layer_1" data-name="Layer 1" viewBox="0 0 24 24">
  <path d="M23.439,15c-6.454,0-9.558,3.587-10.939,6.069v-6.095c3.075-.255,5.5-2.835,5.5-5.975,.138-4.404,.893-5.821,1.274-7.048-1.061,.092-.79-.04-2.628,.439,.247-1.837,.257-1.407,.694-2.391-1.306,.074-2.211-.251-5.34,1.284C8.882-.245,7.966,.07,6.679,.004c.413,.981,.43,.557,.675,2.387-1.839-.479-1.567-.347-2.628-.439,.38,1.219,1.138,2.651,1.274,7.048,0,3.14,2.425,5.719,5.5,5.975v6.086C10.241,18.491,6.317,14.672,.006,15c.432,7.33,8.88,9.122,11.994,9,3.114,.123,11.579-1.668,12.01-9h-.57ZM1.168,16.011c7.081,.26,9.495,5.163,10.145,6.961-2.21-.148-8.96-1.083-10.145-6.961ZM17.828,3.122c-.318,1.121-.828,3.316-.828,5.878,0,1.173-.406,2.252-1.084,3.106-.542-2.665-1.773-4.927-3.225-6.556,.72-.678,1.482-1.192,2.226-1.496,1.302-.534,2.29-.8,2.911-.932Zm-1.987-2.063c-.09,.388-.177,.94-.222,1.661-.336,.118-.69,.248-1.08,.408-.859,.352-1.731,.937-2.543,1.704-.485-.458-.984-.837-1.483-1.15,2.027-2.182,4.51-2.539,5.329-2.623Zm-4.837,.852c-.41,.298-.924,.724-1.385,1.264-.428-.211-.84-.312-1.238-.456-.045-.72-.133-1.273-.222-1.661,.662,.087,1.723,.32,2.845,.852Zm-4.004,7.089c0-2.562-.51-4.757-.828-5.878,.621,.132,1.609,.398,2.911,.932,2.478,1.015,5.276,4.379,5.969,8.904-.845,.653-1.903,1.042-3.052,1.042-2.757,0-5-2.243-5-5Zm5.688,13.972c.654-1.799,3.079-6.702,10.159-6.961-1.185,5.878-7.944,6.813-10.159,6.961Z"/>
</svg>
