<svg id="Layer_1" viewBox="0 0 24 24" xmlns="http://www.w3.org/2000/svg" data-name="Layer 1"><path d="m22.861 10.718c-1.07-2.574-2.082-5.005-3.143-6.317-2.606-3.479-6.893-5.065-11.186-4.14-4.393.947-7.688 4.449-8.393 8.924-.514 3.27.326 6.515 2.306 8.904.358.433.556.988.556 1.562v4.349h5v-10.5c0-1.897 1.495-3.466 3.332-3.499 1.309-.026 2.604.221 3.824.726l2.98 1.235 4.176.038c.229.547.458 1.086.688 1.605v.395h-9.501c-1.93 0-3.5 1.57-3.5 3.5v6.5h6v-3h2.358c1.188 0 2.22-.846 2.452-2.012l.793-3.988h2.396v-1.5s-.773-1.904-1.139-2.782zm-4.434.282-2.889-1.197c-1.348-.558-2.772-.826-4.225-.802-2.379.042-4.314 2.06-4.314 4.499v9.5h-3v-3.349c0-.807-.279-1.588-.786-2.2-1.795-2.168-2.556-5.125-2.086-8.111.64-4.063 3.629-7.243 7.616-8.101 3.913-.841 7.806.601 10.187 3.776.968 1.197 1.982 3.621 2.966 5.985h-3.468zm1.402 7.792c-.14.7-.759 1.208-1.472 1.208h-3.358v3h-4v-5.5c0-1.378 1.121-2.5 2.5-2.5h7.084z"/></svg>