<?xml version="1.0" encoding="UTF-8"?>
<svg xmlns="http://www.w3.org/2000/svg" id="Layer_1" data-name="Layer 1" viewBox="0 0 24 24">
  <path d="m22.672,7.739c1.767-1.768,1.767-4.644,0-6.411s-4.643-1.768-6.411,0l-1.934,1.933c-1.646,1.647-1.738,4.244-.318,6.022l-1.595,1.595.707.707,1.595-1.595c.824.658,1.814,1.008,2.816,1.008,1.161,0,2.322-.442,3.206-1.326l1.934-1.933Zm-7.248,1.543l2.156-2.157-.707-.707-2.156,2.157c-1.035-1.383-.938-3.351.318-4.608l1.934-1.933c.689-.688,1.594-1.033,2.499-1.033s1.81.345,2.499,1.033c1.377,1.378,1.377,3.619,0,4.997l-1.934,1.933c-1.257,1.256-3.224,1.353-4.608.318Zm-9.778-2.929l-3-3,.707-.707,3,3-.707.707Zm3.354-2.354h-1V0h1v4Zm-5,5H0v-1h4v1Zm14.354,8.646l3,3-.707.707-3-3,.707-.707Zm-3.354,2.354h1v4h-1v-4Zm9-5v1h-4v-1h4Zm-13.123-2.584l-1.594,1.594c-1.778-1.421-4.375-1.329-6.022.318l-1.934,1.933c-1.767,1.768-1.767,4.644,0,6.411.884.884,2.044,1.326,3.206,1.326s2.322-.442,3.206-1.326l1.934-1.933c1.646-1.647,1.738-4.244.318-6.022l1.594-1.594-.707-.707Zm-1.912,7.616l-1.934,1.933c-1.378,1.377-3.619,1.377-4.997,0-1.377-1.378-1.377-3.619,0-4.997l1.934-1.933c.689-.688,1.594-1.033,2.499-1.033.746,0,1.484.248,2.109.715l-2.156,2.157.707.707,2.156-2.157c1.035,1.383.938,3.351-.318,4.608Z"/>
</svg>
