<?xml version="1.0" encoding="UTF-8"?>
<svg xmlns="http://www.w3.org/2000/svg" id="Layer_1" data-name="Layer 1" viewBox="0 0 24 24">
  <path d="M21.794,6.342c-1.26-1.112-1.707-1.736-1.794-3.537V0h-.5c-.548,0-1.708,.489-2.176,1.607-2.899,.465-4.824,2.795-4.824,5.893v.771c-1.016,.858-2.486,1.729-3.5,1.729-1.318,0-2.435,.586-3.155,1.511-3.254,.058-4.845,1.848-4.845,5.489h1c0-2.857,.995-4.219,3.264-4.452-.165,.448-.264,.932-.264,1.452,0,1.808,1.732,3.867,2.396,4.59l-.989,1.979,2.025,2.431H4v1H20v-1h-7.765l-2.086-2.503c-.243,.215-.499,.426-.781,.626l1.565,1.878h-1.198l-1.809-2.171c2.465-1.326,3.595-3.56,3.934-4.371,1.016-.148,4.215-.77,5.631-2.836l3.254,.723-.661,2.026-.837,.494,.508,.861,1.163-.686,1.177-3.604-4.094-2.704v-2.662l4.122,1.166,.387-1.449c.2-.708-.164-.957-.716-1.444Zm-.376,1.655l-3.418-.997h-1v4.269l2.78,1.837-2.784-.618-.181,.327c-1.243,2.244-5.325,2.684-5.366,2.688l-.322,.032-.102,.307c-.009,.026-.804,2.328-3.035,3.793l.617-1.234-.255-.255c-.655-.654-2.354-2.675-2.354-4.146,0-1.71,1.29-3,3-3,1.431,0,3.396-1.295,4.5-2.275v-1.225c0-2.225,1.314-4.615,4.251-4.941l.34-.038,.088-.33c.139-.521,.507-.833,.821-1.006v1.669c.103,2.12,.713,2.986,2.132,4.238,0,0,.358,.313,.425,.385-.003,.014-.138,.52-.138,.52Z"/>
</svg>
