<?xml version="1.0" encoding="UTF-8"?>
<svg xmlns="http://www.w3.org/2000/svg" id="Layer_1" data-name="Layer 1" viewBox="0 0 24 24">
  <path d="M7,6.5v2.849c1.019-1.447,2.702-2.349,4.5-2.349,3.032,0,5.5,2.467,5.5,5.5v.5h-1v-.5c0-2.481-2.019-4.5-4.5-4.5-1.53,0-2.914,.754-3.742,2h2.742v1h-3.5c-.551,0-1-.449-1-1v-3.5h1Zm10.003-1.477C15.87,2.004,12.999,0,9.75,0,5.477,0,2,3.477,2,7.75c0,.763,.116,1.523,.345,2.266-1.476,1.033-2.345,2.681-2.345,4.484,0,2.512,1.695,4.632,4,5.287v-1.063c-1.742-.621-3-2.271-3-4.224-.016-1.733,1.012-3.261,2.553-4.059-.341-.861-.562-1.783-.553-2.691,0-3.722,3.028-6.75,6.75-6.75,3.061-.01,5.715,2.059,6.527,5,3.635-.108,6.733,2.855,6.723,6.5,0,2.29-1.237,4.388-3,5.545v1.151c2.32-1.249,4-3.843,4-6.696,0-3.933-3.107-7.216-6.997-7.477Zm.997,11.477v7.5H6V15.5c0-.827,.673-1.5,1.5-1.5h2.921l1.714,1h4.365c.827,0,1.5,.673,1.5,1.5Zm-1,2.5H7v4h10v-4Zm0-2.5c0-.276-.225-.5-.5-.5h-4.635l-1.714-1h-2.65c-.276,0-.5,.224-.5,.5v2.5h10v-1.5Z"/>
</svg>
