<svg id="Layer_1" viewBox="0 0 24 24" xmlns="http://www.w3.org/2000/svg" data-name="Layer 1"><path d="m9 12.279c-1.028 1.005-1.866 2.301-2.32 3.666-.655.521-1.142 1.204-1.415 1.978.208-2.754 1.664-5.399 3.941-7.126-.156.462-.224.979-.205 1.482zm-3.854 6.056c-.098.358-.163.732-.125 1.105-3.006-1.849-5.021-5.16-5.021-8.94 0-5.79 4.71-10.5 10.5-10.5 2.064 0 3.986.607 5.611 1.64-.152.295-.292.602-.412.928-.834-.548-1.758-.971-2.747-1.236.856 1.058 1.568 2.188 2.134 3.365l-.409 1.597c-.723-1.884-1.828-3.669-3.302-5.25-.289-.027-.58-.044-.875-.044-1.434 0-2.79.329-4.011.901 2.287 1.598 3.828 4.042 4.317 6.761-.341.225-.633.508-.891.823-.141-1.32-.535-2.589-1.186-3.72-3.426 2.313-5.68 5.341-6.703 9.007.726 1.435 1.803 2.66 3.12 3.564zm-3.714-5.002c1.216-3.381 3.481-6.2 6.745-8.401-.714-.986-1.618-1.835-2.677-2.494-2.696 1.678-4.5 4.66-4.5 8.062 0 .986.152 1.938.432 2.833zm20.9-.983c-.467-.074-.934.02-1.332.25v-.599c0-1.001-.686-1.813-1.668-1.973-.512-.081-1.026.043-1.448.328-.27-.786-1.008-1.355-1.884-1.355s-1.607.564-1.88 1.344c-.32-.217-.705-.344-1.12-.344-1.103 0-2 .897-2 2v5.612c-.863-.731-2.115-.819-2.995-.186-1.192.816-1.341 2.641-.308 3.64l2.803 2.934h1.4l-3.488-3.634s-.003-.002-.004-.003c-.606-.582-.519-1.65.182-2.125.541-.39 1.341-.292 1.86.226l1.55 1.55v-8.014c0-.551.449-1 1-1s1 .449 1 1v5h1v-6c0-.551.449-1 1-1s1 .449 1 1v6h1v-5c-.012-.602.576-1.106 1.171-.986.496.081.829.477.829.986v5h1v-2.677c-.012-.602.575-1.103 1.171-.986.473.077.829.535.829 1.066v9.597h1v-9.597c0-1.016-.717-1.898-1.668-2.054zm-4.325-7.786-.917.37.245-.958c.656-2.564 2.32-3.976 4.686-3.976 1.091 0 1.979.888 1.979 1.979s-.888 1.979-1.979 1.979c-1.666 0-3.016.204-4.014.607zm.6-1.242c.957-.243 2.101-.365 3.415-.365.54 0 .979-.439.979-.979s-.439-.979-.979-.979c-1.911 0-2.902 1.121-3.415 2.322zm4.843 3.489c.728.697.728 1.956 0 2.653-.718.718-1.934.718-2.652 0-1.094-1.093-2.113-1.845-3.03-2.235l-.91-.386.851-.504c2.134-1.263 4.173-1.096 5.742.473zm-.45 1.326c0-.234-.091-.454-.256-.619-1.222-1.221-2.568-1.163-3.672-.738.773.47 1.588 1.131 2.434 1.976.324.324.914.324 1.238 0 .166-.166.257-.385.257-.619z"/></svg>