<?xml version="1.0" encoding="UTF-8"?>
<svg xmlns="http://www.w3.org/2000/svg" id="Layer_1" data-name="Layer 1" viewBox="0 0 24 24">
  <path d="M23,15v-.505c0-.824-.671-1.495-1.495-1.495h-3.01c-.824,0-1.495,.671-1.495,1.495,0,.664,.446,1.255,1.084,1.438l4.106,1.174c1.065,.304,1.81,1.29,1.81,2.398,0,1.376-1.119,2.495-2.495,2.495h-1.005v2h-1v-2h-1.005c-1.376,0-2.495-1.119-2.495-2.495v-.505h1v.505c0,.824,.671,1.495,1.495,1.495h3.01c.824,0,1.495-.671,1.495-1.495,0-.664-.446-1.255-1.084-1.438l-4.106-1.174c-1.065-.304-1.81-1.29-1.81-2.398,0-1.376,1.119-2.495,2.495-2.495h1.005v-2h1v2h1.005c1.376,0,2.495,1.119,2.495,2.495v.505h-1Zm-7.81,7.526c.26,.285,.55,.539,.875,.75-1.272,.46-2.637,.724-4.066,.724C5.383,24,0,18.617,0,12S5.383,0,12,0c6.185,0,11.289,4.704,11.93,10.722-.333-.215-.701-.374-1.086-.495-.126-.773-.342-1.516-.621-2.227H7.732c-.439,1.247-.732,2.593-.732,4s.292,2.754,.73,4h6.27v1h-5.879c1.358,3.139,3.522,5.436,4.077,5.993,1.039-.019,2.043-.179,2.992-.466Zm.699-15.526c-1.223-2.834-3.12-4.987-3.888-5.789-.761,.797-2.649,2.95-3.878,5.789h7.767ZM13.241,1.078c1.015,1.144,2.657,3.254,3.727,5.922h4.803c-1.642-3.204-4.801-5.5-8.53-5.922ZM2.214,7H7.029c1.067-2.669,2.712-4.781,3.731-5.925C7.026,1.496,3.859,3.794,2.214,7Zm-1.214,5c0,1.412,.277,2.758,.764,4H6.669c-.403-1.248-.669-2.589-.669-4s.265-2.752,.669-4H1.764c-.487,1.242-.764,2.588-.764,4Zm9.76,10.925c-1.019-1.144-2.664-3.256-3.732-5.925H2.214c1.645,3.206,4.812,5.504,8.546,5.925Z"/>
</svg>
