<?xml version="1.0" encoding="UTF-8"?>
<svg xmlns="http://www.w3.org/2000/svg" id="Layer_1" data-name="Layer 1" viewBox="0 0 24 24">
  <path d="m12,15c-.552,0-1-.448-1-1,0-.75,1.019-1.635,1.019-1.635,0,0,.981.885.981,1.635,0,.552-.448,1-1,1Zm5,5v4H7v-4c0-1.103.897-2,2-2h2.5v-2h1v2h2.5c1.103,0,2,.897,2,2Zm-1,0c0-.552-.449-1-1-1h-6c-.551,0-1,.448-1,1v3h8v-3Zm8-15.5v19.5h-5v-1h4v-14H1v14h4v1H0V4.5c0-1.379,1.122-2.5,2.5-2.5h3.5V0h1v2h10V0h1v2h3.5c1.378,0,2.5,1.121,2.5,2.5Zm-1,3.5v-3.5c0-.827-.673-1.5-1.5-1.5H2.5c-.827,0-1.5.673-1.5,1.5v3.5h22Z"/>
</svg>
