<svg id="Layer_1" viewBox="0 0 24 24" xmlns="http://www.w3.org/2000/svg" data-name="Layer 1"><path d="m22.457 3.75 1.474-1.474-2.12-2.122-1.474 1.474-1.266-1.266-6.07 6.07v1.414l6.069-6.069 3.22 3.22-8.793 8.793-1.683-1.682c-.255.226-.538.418-.851.563l2.534 2.533 7.428-7.428c.692 1.298 1.075 2.741 1.075 4.224 0 4.962-4.037 9-9 9-3.023 0-5.802-1.519-7.464-4h5.464v-1h-11v1h4.357c1.025 1.77 2.54 3.144 4.324 4h-3.681v3h16v-3h-3.67c3.349-1.618 5.67-5.038 5.67-9 0-1.75-.472-3.453-1.337-4.962l2.041-2.041zm-.647-2.181.707.708-.767.767-.707-.707.767-.767zm-1.811 20.432v1h-13.999v-1h14zm-17.856-13.851c-.196-.094-.412-.15-.643-.15-.827 0-1.5.673-1.5 1.5s.673 1.5 1.5 1.5 1.5-.673 1.5-1.5c0-.231-.057-.447-.15-.643l.564-.564c.457.342.996.571 1.586.656v2.051h1v-2.051c.59-.086 1.129-.314 1.586-.656l.564.564c-.094.196-.15.412-.15.643 0 .827.673 1.5 1.5 1.5s1.5-.673 1.5-1.5-.673-1.5-1.5-1.5c-.231 0-.447.057-.643.15l-.564-.564c.342-.457.571-.996.656-1.586h2.051v-1h-2.051c-.086-.59-.314-1.129-.656-1.586l.564-.564c.196.094.412.15.643.15.827 0 1.5-.673 1.5-1.5s-.673-1.5-1.5-1.5-1.5.673-1.5 1.5c0 .231.057.447.15.643l-.564.564c-.457-.342-.996-.571-1.586-.656v-2.051h-1v2.051c-.59.086-1.129.314-1.586.656l-.564-.564c.094-.196.15-.412.15-.643 0-.827-.673-1.5-1.5-1.5s-1.5.673-1.5 1.5.673 1.5 1.5 1.5c.231 0 .447-.057.643-.15l.564.564c-.342.457-.571.996-.656 1.586h-2.051v1h2.051c.086.59.314 1.129.656 1.586zm-.643 1.85c-.275 0-.5-.224-.5-.5s.225-.5.5-.5.5.224.5.5-.225.5-.5.5zm8.5-.5c0 .276-.225.5-.5.5s-.5-.224-.5-.5.225-.5.5-.5.5.224.5.5zm-.5-8.5c.275 0 .5.224.5.5s-.225.5-.5.5-.5-.224-.5-.5.225-.5.5-.5zm-4 2c1.379 0 2.5 1.122 2.5 2.5s-1.121 2.5-2.5 2.5-2.5-1.122-2.5-2.5 1.121-2.5 2.5-2.5zm-4.5-1.5c0-.276.225-.5.5-.5s.5.224.5.5-.225.5-.5.5-.5-.224-.5-.5z"/></svg>