<svg id="Layer_1" viewBox="0 0 24 24" xmlns="http://www.w3.org/2000/svg" data-name="Layer 1"><path d="m21.5 3h-19c-1.378 0-2.5 1.121-2.5 2.5v15.5h24v-15.5c0-1.379-1.121-2.5-2.5-2.5zm1.5 17h-22v-14.5c0-.827.673-1.5 1.5-1.5h19c.827 0 1.5.673 1.5 1.5zm-16-12h4v1h-3v2.5h3v1h-3v2.5h3v1h-4zm9.993 6.057c-.183 1.127-1.162 1.945-2.329 1.945-.878 0-1.947-.552-2.473-1.086l.712-.701c.414.419 1.237.787 1.761.787.674 0 1.238-.465 1.343-1.105.036-.228.075-1.006-.976-1.431-.112-.042-1.208-.459-1.699-.764-.663-.466-.977-1.173-.88-1.916.104-.785.627-1.423 1.365-1.665.898-.298 1.822-.047 2.736.746l-.654.756c-.648-.562-1.211-.737-1.769-.553-.371.122-.634.446-.688.847-.049.379.103.715.428.946.334.204 1.214.554 1.523.671 1.393.563 1.73 1.71 1.599 2.522z"/></svg>