<?xml version="1.0" encoding="UTF-8"?>
<svg xmlns="http://www.w3.org/2000/svg" id="Layer_1" data-name="Layer 1" viewBox="0 0 24 24">
  <path d="M.348,4.344c-.461-.443-.461-1.249,.005-1.692L2.938,.006l.715,.699L1.41,3h3.09c1.379,0,2.5,1.121,2.5,2.5v3.5h-1v-3.5c0-.827-.673-1.5-1.5-1.5H1.41l2.243,2.295-.715,.699L.348,4.344Zm9.652,1.156c0-.827,.673-1.5,1.5-1.5h3.09l-2.242,2.295,.715,.699,2.586-2.646c.464-.443,.466-1.25,.004-1.691L13.062,.006l-.715,.699,2.243,2.295h-3.09c-1.379,0-2.5,1.121-2.5,2.5v3.5h1v-3.5Zm13.362,7.683l-9.638,10.817H2.5c-1.379,0-2.5-1.121-2.5-2.5v-7c0-1.379,1.121-2.5,2.5-2.5H13.357c1.208,0,2.229,.814,2.543,1.923l3.732-4.103c.89-1.017,2.562-1.094,3.548-.166,1.013,.923,1.094,2.506,.182,3.528Zm-.855-2.789c-.589-.558-1.6-.512-2.134,.101l-4.496,4.94c-.301,.945-1.124,1.678-2.146,1.823l-5.667,.738-.129-.992,5.661-.737c.798-.113,1.403-.812,1.403-1.624,0-.905-.737-1.643-1.643-1.643H2.5c-.827,0-1.5,.673-1.5,1.5v7c0,.827,.673,1.5,1.5,1.5H13.275l9.341-10.483c.549-.615,.5-1.567-.109-2.123Z"/>
</svg>
