<svg id="Layer_1" viewBox="0 0 24 24" xmlns="http://www.w3.org/2000/svg" data-name="Layer 1"><path d="m16.386 5c1.379 0 2.5-1.122 2.5-2.5s-1.121-2.5-2.5-2.5-2.5 1.122-2.5 2.5 1.121 2.5 2.5 2.5zm0-4c.827 0 1.5.673 1.5 1.5s-.673 1.5-1.5 1.5-1.5-.673-1.5-1.5.673-1.5 1.5-1.5zm3.835 9-2.86-3.142c-.474-.545-1.16-.858-1.885-.858h-7.868l-2.646 4.235.848.53 2.354-3.765h3.96l-2.964 6.48c-.25.555-.202 1.192.128 1.703s.891.816 1.5.816h7.213v5h1v-6h-5.21l3.189-7.076 2.8 3.076h4.221v-1h-3.779zm-7.528 5h-1.905c-.271 0-.513-.131-.66-.359s-.168-.501-.057-.747l3.154-6.894h2.252c.261 0 .506.085.73.212l-3.513 7.788zm-2.501 3h1.118l-1.5 3h-6.81v-1h6.191l1-2zm-9.192 2c-.552 0-1-.448-1-1s.448-1 1-1 1 .448 1 1-.448 1-1 1zm0 2c-.552 0-1-.448-1-1s.448-1 1-1 1 .448 1 1-.448 1-1 1zm0 2c-.552 0-1-.448-1-1s.448-1 1-1 1 .448 1 1-.448 1-1 1zm17-1c0 .552-.448 1-1 1s-1-.448-1-1 .448-1 1-1 1 .448 1 1zm2 0c0 .552-.448 1-1 1s-1-.448-1-1 .448-1 1-1 1 .448 1 1zm2 0c0 .552-.448 1-1 1s-1-.448-1-1 .448-1 1-1 1 .448 1 1z"/></svg>