<svg id="Layer_1" viewBox="0 0 24 24" xmlns="http://www.w3.org/2000/svg" data-name="Layer 1"><path d="m24.001 23.294-6.597-6.597c1.607-1.775 2.596-4.12 2.596-6.697 0-5.514-4.486-10-10-10s-10 4.486-10 10 4.486 10 10 10c2.577 0 4.922-.989 6.697-2.596l6.597 6.597zm-23.001-13.294c0-4.962 4.038-9 9-9s9 4.038 9 9-4.038 9-9 9-9-4.037-9-9zm13-2v-4h-1.01c-.236 1.209-1.104 2.017-2.49 2h-3.5c-1.103 0-2 .897-2 2v2c0 .73.398 1.363.983 1.712l1.635 4.288h.906c1.12.034 1.951-1.232 1.473-2.245l-.678-1.755h1.181c1.386-.016 2.254.791 2.49 2h1.009v-4c.551 0 1-.449 1-1s-.449-1-1-1zm-4.931 6.125c.201.386-.107.888-.544.875h-.218l-1.144-3h1.085zm3.931-2.203c-.615-.593-1.479-.922-2.499-.922h-3.5c-.551 0-1-.449-1-1v-2c0-.551.448-1 .999-1h3.5c1.021 0 1.885-.33 2.5-.923v5.846z"/></svg>