<svg id="Layer_1" viewBox="0 0 24 24" xmlns="http://www.w3.org/2000/svg" data-name="Layer 1"><path d="m3 4c0-.552.448-1 1-1s1 .448 1 1-.448 1-1 1-1-.448-1-1zm4 1c.552 0 1-.448 1-1s-.448-1-1-1-1 .448-1 1 .448 1 1 1zm3 0c.552 0 1-.448 1-1s-.448-1-1-1-1 .448-1 1 .448 1 1 1zm-2 13c0 1.103-.897 2-2 2s-2-.897-2-2 .897-2 2-2 2 .897 2 2zm-1 0c0-.552-.448-1-1-1s-1 .448-1 1 .448 1 1 1 1-.448 1-1zm4.937-1.732-1.528.894c.062.295.092.568.092.839s-.029.544-.092.839l1.528.894-1.513 2.59-1.521-.888c-.41.344-.886.612-1.403.794v1.771h-3v-1.771c-.518-.182-.993-.45-1.403-.794l-1.521.888-1.513-2.592 1.528-.894c-.062-.295-.092-.568-.092-.839s.029-.544.092-.839l-1.528-.894 1.513-2.59 1.521.888c.41-.344.886-.612 1.403-.794v-1.771h3v1.771c.518.182.993.45 1.403.794l1.521-.888 1.513 2.59zm-1.367-.359-.505-.863-1.309.765c-.576-.668-1.372-1.111-2.256-1.281v-1.528h-1v1.528c-.884.17-1.68.613-2.256 1.281l-1.309-.765-.505.863 1.322.773c-.322.914-.322 1.723 0 2.637l-1.322.773.505.863 1.309-.765c.576.668 1.372 1.111 2.256 1.281v1.528h1v-1.528c.884-.17 1.68-.613 2.256-1.281l1.309.765.505-.863-1.322-.773c.323-.915.322-1.723 0-2.637zm-9.57-4.149c-.361.29-.694.613-1 .96v-10.22c0-1.378 1.121-2.5 2.5-2.5h19c1.379 0 2.5 1.122 2.5 2.5v9.827l-1-.342v-3.985h-22zm0-9.26v4.5h22v-4.5c0-.827-.673-1.5-1.5-1.5h-19c-.827 0-1.5.673-1.5 1.5zm18.514 13.717 4.476 4.476-2.4 2.4-4.429-4.429-1.677 4.455-4.492-13.127 13.128 4.491-4.605 1.734zm-1.803-.389 3.451-1.301-8.563-2.929 2.93 8.564 1.243-3.301 4.817 4.817.986-.986z"/></svg>