<svg id="Layer_1" viewBox="0 0 24 24" xmlns="http://www.w3.org/2000/svg" data-name="Layer 1"><path d="m20 16.092c.037-1.779-.989-3.339-2.482-4.092 1.493-.753 2.518-2.313 2.482-4.092.581-.207 1-.757 1-1.408s-.419-1.201-1-1.408v-.592c0-2.481-2.019-4.5-4.5-4.5h-7c-2.481 0-4.5 2.019-4.5 4.5v.592c-.581.207-1 .757-1 1.408s.419 1.201 1 1.408c-.037 1.779.989 3.339 2.482 4.092-1.493.753-2.518 2.313-2.482 4.092-.581.207-1 .757-1 1.408s.419 1.201 1 1.408v.592c0 2.481 2.019 4.5 4.5 4.5h7c2.481 0 4.5-2.019 4.5-4.5v-.592c.581-.207 1-.757 1-1.408s-.419-1.201-1-1.408zm-11.5-15.092h7c1.93 0 3.5 1.57 3.5 3.5v.5h-14v-.5c0-1.93 1.57-3.5 3.5-3.5zm-4 5h15c.275 0 .5.225.5.5s-.225.5-.5.5h-15c-.275 0-.5-.225-.5-.5s.225-.5.5-.5zm.5 2h14c0 1.93-1.57 3.5-3.5 3.5h-7c-1.93 0-3.5-1.57-3.5-3.5zm3.5 4.5h7c1.93 0 3.5 1.57 3.5 3.5h-14c0-1.93 1.57-3.5 3.5-3.5zm7 10.5h-7c-1.93 0-3.5-1.57-3.5-3.5v-.5h14v.5c0 1.93-1.57 3.5-3.5 3.5zm4-5h-15c-.275 0-.5-.225-.5-.5s.225-.5.5-.5h15c.275 0 .5.225.5.5s-.225.5-.5.5z"/></svg>