<?xml version="1.0" encoding="UTF-8"?>
<svg xmlns="http://www.w3.org/2000/svg" id="Layer_1" data-name="Layer 1" viewBox="0 0 24 24">
  <path d="m21.488,0h-4.207l-5.293,5.293v5.327c-3.388,2.541-8.706,6.551-9.268,7.113-.854.854-.959,2.176-.318,3.146l-2.403,2.403.707.707,2.402-2.402c.405.269.881.414,1.379.414.668,0,1.296-.26,1.768-.732.562-.562,4.572-5.879,7.113-9.268h5.327l5.293-5.293V2.5C23.988,1.121,22.867,0,21.488,0ZM5.549,20.561c-.566.566-1.555.566-2.121,0-.585-.585-.585-1.536,0-2.121.477-.478,5.421-4.214,9.08-6.958-2.745,3.658-6.481,8.602-6.958,9.079ZM22.988,6.293l-4.707,4.707h-4.164c.607-.81,1.059-1.416,1.25-1.672l4.974-4.974-.707-.707-4.976,4.976c-.257.192-.862.643-1.67,1.248v-4.164l4.707-4.707h3.793c.827,0,1.5.673,1.5,1.5v3.793Z"/>
</svg>
