<svg id="Layer_1" viewBox="0 0 24 24" xmlns="http://www.w3.org/2000/svg" data-name="Layer 1"><path d="m19 11.363 1-1v13.636h-20v-21.499c0-1.378 1.121-2.5 2.5-2.5h15.137l-1 1h-14.137c-.827 0-1.5.673-1.5 1.5v20.5h18zm5-8.863c0 .668-.26 1.296-.732 1.768l-8.733 8.732h-3.535v-3.536l8.732-8.732c.975-.976 2.561-.974 3.535 0 .473.472.732 1.1.732 1.768zm-1 0c0-.401-.156-.777-.439-1.061-.584-.585-1.537-.585-2.121 0l-8.44 8.439v2.122h2.121l8.44-8.439c.283-.283.439-.66.439-1.061zm-14.351 2.144-3.365 3.308c-.056.056-.18.055-.241-.006l-1.778-1.721-.695.719 1.772 1.716c.221.22.514.341.825.341s.604-.122.821-.339l3.362-3.305zm0 5-3.366 3.308c-.04.04-.085.048-.116.048-.026 0-.075-.006-.124-.055l-1.778-1.721-.695.719 1.772 1.715c.221.221.514.342.825.342.312 0 .604-.122.82-.339l3.362-3.305-.701-.713zm7.351 7.356h-6v1h6zm-10.833 1c-.026 0-.075-.006-.124-.055l-1.778-1.722-.695.719 1.772 1.716c.221.221.514.342.825.342.312 0 .604-.122.82-.339l3.362-3.305-.701-.713-3.366 3.309c-.04.04-.085.048-.116.048z"/></svg>