<svg id="Layer_1" viewBox="0 0 24 24" xmlns="http://www.w3.org/2000/svg" data-name="Layer 1"><path d="m11.2 7.399-1.2-.899v-1.5h-7v1.5l-1.2.899c-1.127.847-1.8 2.192-1.8 3.601v13h13v-13c0-1.408-.673-2.754-1.8-3.601zm.8 10.601h-6v-4h6zm0-5h-7v6h7v4h-11v-12c0-1.096.523-2.143 1.4-2.8l1.6-1.2v-1h5v1l1.6 1.2c.876.657 1.4 1.704 1.4 2.8zm7.5 6.203-1.414 1.383c-.378.378-.586.88-.586 1.414-.022 1.075.925 2.022 2 2 1.075.022 2.022-.925 2-2 0-.534-.208-1.036-.59-1.418zm.707 3.504c-.378.377-1.036.377-1.414 0-.189-.189-.293-.44-.293-.707s.104-.518.289-.703l.711-.695.707.691c.189.189.293.44.293.707s-.104.518-.293.707zm3.793-15.707c-1.383 0-2-.617-2-2v-2.5c0-1.379-1.122-2.5-2.5-2.5s-2.5 1.121-2.5 2.5v2.5c0 1.383-.617 2-2 2v1h2v5.5c0 1.208.86 2.217 2 2.449v2.05h1v-2.051c1.14-.232 2-1.242 2-2.449v-5.5h2v-1zm-6-2v-2.5c0-.827.673-1.5 1.5-1.5s1.5.673 1.5 1.5v2.5c0 .833.198 1.505.577 2h-4.154c.379-.495.577-1.167.577-2zm3 8.5c0 .827-.673 1.5-1.5 1.5s-1.5-.673-1.5-1.5v-5.5h3z"/></svg>