<svg id="Layer_1" viewBox="0 0 24 24" xmlns="http://www.w3.org/2000/svg" data-name="Layer 1"><path d="m7 8c.552 0 1 .448 1 1s-.448 1-1 1-1-.448-1-1 .448-1 1-1zm7 0c-.552 0-1 .448-1 1s.448 1 1 1 1-.448 1-1-.448-1-1-1zm4 11.723v-5.223h-1v5.247l-2.124-2.124-.707.707 2.21 2.21c.306.306.707.459 1.109.459s.803-.153 1.108-.459l2.222-2.221-.707-.707-2.112 2.11zm6-2.223c0 3.584-2.916 6.5-6.5 6.5s-6.5-2.916-6.5-6.5 2.916-6.5 6.5-6.5 6.5 2.916 6.5 6.5zm-1 0c0-3.032-2.467-5.5-5.5-5.5s-5.5 2.468-5.5 5.5 2.467 5.5 5.5 5.5 5.5-2.468 5.5-5.5zm-22-3.971v-3.896l1.558-2.618c-.355-.42-1.41-1.159-1.558-3.016 0-1.683 1.245-3 2.833-3 1.374.025 2.181.961 2.673 1.907l.408-.174c2.275-.973 4.896-.973 7.171 0l.408.174c.492-.946 1.299-1.883 2.673-1.907 1.589 0 2.833 1.317 2.833 3-.151 1.861-1.201 2.592-1.559 3.017l1.377 2.312c.408.115.802.26 1.182.432v-.402l-1.31-2.198c.452-.535 1.31-1.738 1.31-3.16 0-2.243-1.684-4-3.833-4-1.191 0-2.337.625-3.08 1.655-2.294-.869-4.88-.869-7.174 0-.743-1.03-1.889-1.655-3.08-1.655-2.148 0-3.832 1.757-3.832 4 0 1.422.857 2.625 1.31 3.16l-1.31 2.198v4.282c.115.449 1.762 4.429 10.262 8.299-.278-.453-.515-.932-.705-1.435-6.414-3.132-8.283-6.428-8.557-6.975zm7.5-.579c0 .389.393 1.052 1.121 1.369.339-.84.807-1.612 1.381-2.294-.157-.016-.323-.026-.502-.026-1.289 0-2 .425-2 .95z"/></svg>