<?xml version="1.0" encoding="UTF-8"?>
<svg xmlns="http://www.w3.org/2000/svg" id="Layer_1" data-name="Layer 1" viewBox="0 0 24 24">
  <path d="M18.476,9.198c-1.208-.549-2.778,.081-3.264,1.298l-3.013,6.028c-.061,.143-.105,.291-.138,.439l-3.328-3.963h-.797l-3.936,7h1.142l3.282-5.813,4.218,4.973c.453,.525,1.164,.848,1.859,.841,.963,.013,1.934-.618,2.289-1.498l3.013-6.028c.55-1.227-.079-2.778-1.326-3.277Zm.418,2.858l-3.013,6.028c-.298,.748-1.232,1.125-1.966,.795-.736-.284-1.122-1.232-.809-1.938l3.013-6.028c.299-.749,1.23-1.127,1.966-.796,.736,.284,1.122,1.232,.809,1.938Zm-5.394-3.057c1.378,0,2.5-1.122,2.5-2.5s-1.122-2.5-2.5-2.5-2.5,1.122-2.5,2.5,1.122,2.5,2.5,2.5Zm0-4c.827,0,1.5,.673,1.5,1.5s-.673,1.5-1.5,1.5-1.5-.673-1.5-1.5,.673-1.5,1.5-1.5ZM21.5,0H2.5C1.122,0,0,1.122,0,2.5V24H24V2.5c0-1.378-1.122-2.5-2.5-2.5Zm1.5,23H1V2.5c0-.827,.673-1.5,1.5-1.5H21.5c.827,0,1.5,.673,1.5,1.5V23Z"/>
</svg>
