<?xml version="1.0" encoding="UTF-8"?>
<svg xmlns="http://www.w3.org/2000/svg" id="Layer_1" data-name="Layer 1" viewBox="0 0 24 24">
  <path d="M24,14c-.527,0-2.314,.262-4.245,1.305l-3.314-3.309,6.263-6.258,1.259-3.846c.261-1.093-.783-2.135-1.903-1.841l-3.797,1.246-6.263,6.258L5.737,1.297,1.892,.037C.795-.222-.24,.82,.05,1.94l1.246,3.797,6.262,6.257-3.313,3.31c-1.93-1.043-3.717-1.305-4.244-1.305v1c.531,0,2.779,.369,4.898,1.895L.457,21.336c-.608,.608-.608,1.599,0,2.207,.609,.609,1.599,.608,2.207,0l4.441-4.441c1.731,2.4,1.895,4.87,1.895,4.898h1c0-.528-.264-2.32-1.313-4.256l3.311-3.309,3.314,3.309c-1.049,1.936-1.313,3.728-1.313,4.256h1c0-.028,.164-2.498,1.895-4.898l4.441,4.441c.609,.608,1.599,.608,2.207,0,.608-.608,.608-1.599,0-2.207l-4.441-4.441c2.119-1.526,4.367-1.895,4.898-1.895v-1ZM2.172,5.198L1.014,1.677c-.106-.356,.283-.752,.615-.677l3.57,1.172,6.094,6.09-3.028,3.026L2.172,5.198Zm-.215,17.638c-.219,.219-.574,.219-.793,0s-.219-.574,0-.793l4.544-4.544c.277,.242,.55,.518,.792,.794L1.957,22.836Zm6.198-3.973c-.727-1.133-1.895-2.3-3.028-3.026L18.801,2.172l3.522-1.158c.357-.104,.75,.282,.676,.614l-1.171,3.57-13.673,13.664Zm7.689,0l-3.139-3.134,3.028-3.026,3.139,3.134c-1.134,.726-2.3,1.894-3.028,3.026Zm6.991,3.181c.219,.219,.219,.574,0,.793s-.574,.219-.793,0l-4.519-4.519c.241-.277,.515-.552,.792-.794l4.521,4.521Z"/>
</svg>
