<svg id="Layer_1" viewBox="0 0 24 24" xmlns="http://www.w3.org/2000/svg" data-name="Layer 1"><path d="m8.149 13.978c-.087.328-.149.667-.149 1.022 0 2.206 1.794 4 4 4s4-1.794 4-4c0-.319-.047-.626-.118-.924.134-.105.272-.202.394-.324l.417-.417c.187.524.307 1.079.307 1.665 0 2.757-2.243 5-5 5s-5-2.243-5-5c0-.643.132-1.252.354-1.817zm15.715.389c-.292-.648-.938-1.938-1.991-3.295-.391-.504-.851-1.028-1.376-1.54l-.708.708c.494.481.927.973 1.293 1.446.991 1.277 1.596 2.486 1.869 3.093.064.142.063.305 0 .446-.822 1.824-4.04 7.776-10.952 7.776s-10.129-5.952-10.951-7.776c-.064-.143-.064-.305 0-.447.555-1.233 2.699-5.385 6.989-7.053h.002c.913-.355 1.878-.578 2.881-.672l1.051-1.051c-1.505.003-2.95.268-4.294.79 0 0-.001.001-.002.002-4.519 1.755-6.778 5.881-7.539 7.573-.181.402-.181.865 0 1.268.884 1.963 4.353 8.365 11.864 8.365s10.98-6.403 11.864-8.367c.181-.402.181-.863 0-1.267zm-6.817-10.613-1.4-1.4.707-.707c.749.749 2.053.748 2.801 0l.917-.917c.814-.814 2.094-.947 2.978-.312.546.393.89.999.943 1.662s-.186 1.312-.655 1.782l-.984.984c-.374.374-.58.871-.58 1.4s.206 1.026.58 1.4l-.707.707-1.4-1.4-5.384 5.384c-.441.441-1.021.661-1.6.661-.419 0-.837-.119-1.204-.35l-1.205 1.205-.707-.707 1.205-1.205c-.55-.874-.449-2.043.311-2.803zm2.492 2.492-1.785-1.785-5.384 5.384c-.492.492-.492 1.293 0 1.785s1.293.492 1.785 0zm-1.647-3.061 2.897 2.897c.04-.734.333-1.42.857-1.944l.984-.984c.262-.262.396-.625.365-.994-.03-.375-.219-.706-.53-.931-.492-.354-1.217-.265-1.687.207l-.917.917c-.529.529-1.244.8-1.969.831z"/></svg>