<svg id="Layer_1" viewBox="0 0 24 24" xmlns="http://www.w3.org/2000/svg" data-name="Layer 1"><path d="m14.753 19.631.094 1.502c-1.558 1.754-3.823 2.866-6.347 2.866-4.687.001-8.5-3.812-8.5-8.499s3.813-8.5 8.5-8.5c2.144 0 4.099.804 5.596 2.118l.094 1.509c-1.377-1.605-3.415-2.628-5.69-2.628-4.136 0-7.5 3.364-7.5 7.5s3.364 7.5 7.5 7.5c2.61 0 4.91-1.341 6.253-3.369zm7.241-12.027-1.025 16.396h-3.939l-1.025-16.395-1.873-5.007c.948-1.291 3.01-2.575 4.867-2.598 1.884.021 3.903 1.279 4.867 2.59l-1.873 5.014zm-4.712 4.396h3.436l.25-4h-3.936zm-2.01-9.209 1.574 4.209h4.307l1.574-4.217c-.836-.896-2.438-1.783-3.728-1.783s-2.889.891-3.728 1.791zm4.758 20.209.625-10h-3.311l.625 10zm-10.53-11.618 1.039 2.079 2.079 1.039-2.079 1.039-1.039 2.079-1.039-2.079-2.079-1.039 2.079-1.039zm.294 2.824-.294-.588-.294.588-.588.294.588.294.294.588.294-.588.588-.294zm-7.44-9.56-2.292-1.146 2.292-1.146 1.146-2.292 1.146 2.292 2.292 1.146-2.292 1.146-1.146 2.292zm-.056-1.146.801.401.401.801.401-.801.801-.401-.801-.401-.401-.801-.401.801z"/></svg>