<svg id="Layer_1" viewBox="0 0 24 24" xmlns="http://www.w3.org/2000/svg" data-name="Layer 1"><path d="m9 12c3.309 0 6-2.691 6-6s-2.691-6-6-6-6 2.691-6 6 2.691 6 6 6zm0-11c2.757 0 5 2.243 5 5s-2.243 5-5 5-5-2.243-5-5 2.243-5 5-5zm7.965 21.251c.408.11.826.175 1.245.197l-.382.382c-1.56 1.56-4.097 1.56-5.657 0 0 0 0-.002-.002-.003-.755-.755-1.17-1.758-1.17-2.826s.416-2.073 1.172-2.828l1.414-1.414c.756-.756 1.76-1.172 2.828-1.172s2.071.415 2.825 1.169c.248.244.441.523.61.81 0 0-.705.671-.754.704-.142-.289-.32-.565-.56-.805-1.132-1.133-3.108-1.134-4.242 0l-1.414 1.414c-.566.567-.879 1.32-.879 2.121s.312 1.555.879 2.122c1.121 1.121 2.909 1.156 4.086.128zm5.813-4.371-1.414 1.414c-.78.78-1.805 1.17-2.828 1.17s-2.048-.39-2.828-1.169c-.246-.245-.439-.522-.608-.808 0 0 .705-.671.754-.704.142.289.32.565.56.805 1.171 1.171 3.074 1.169 4.243 0l1.414-1.414c1.169-1.17 1.169-3.072 0-4.242-1.121-1.121-2.909-1.156-4.086-.127-.408-.11-.826-.175-1.245-.197l.382-.382c1.56-1.56 4.097-1.56 5.657 0 1.56 1.56 1.56 4.097 0 5.657zm-11.261-2.88h-7.017c-1.93 0-3.5 1.57-3.5 3.5v5.5h-1v-5.5c0-2.481 2.019-4.5 4.5-4.5h8.021c-.025.025-1.004 1-1.004 1z"/></svg>