<svg id="Layer_1" viewBox="0 0 24 24" xmlns="http://www.w3.org/2000/svg" data-name="Layer 1"><path d="m22 8v-1.5c0-1.378-1.122-2.5-2.5-2.5h-19.5v16h19.5c1.378 0 2.5-1.122 2.5-2.5v-1.5h2v-8zm1 7h-2v2.5c0 .827-.673 1.5-1.5 1.5h-18.5v-14h18.5c.827 0 1.5.673 1.5 1.5v2.5h2zm-9.75-7c-.962 0-1.765.415-2.25 1.09-.485-.675-1.288-1.09-2.25-1.09-1.517 0-2.75 1.314-2.75 2.93.127 3.021 4.593 5.963 5 6.279.403-.312 4.877-3.261 5-6.279 0-1.616-1.233-2.93-2.75-2.93zm-2.25 7.984c-1.336-.988-4-3.316-4-5.054 0-1.064.785-1.93 1.75-1.93 1.03 0 1.75.703 1.75 1.709v.655h1v-.655c0-1.006.72-1.709 1.75-1.709.965 0 1.75.866 1.75 1.93 0 1.735-2.664 4.065-4 5.054z"/></svg>