<?xml version="1.0" encoding="UTF-8"?>
<svg xmlns="http://www.w3.org/2000/svg" id="Layer_1" data-name="Layer 1" viewBox="0 0 24 24">
  <path d="M16.749,14.025c1.234-2.354,2.251-4.924,2.251-7.025,0-3.86-3.14-7-7-7S5,3.14,5,7c0,2.101,1.017,4.671,2.251,7.025-2.364,.132-4.251,2.079-4.251,4.475v5.5h1v-5.5c0-1.93,1.57-3.5,3.5-3.5h.279c.097,.193,.319,.561,.319,.561,1.471,2.529,2.99,4.569,3.402,5.109v3.33h1v-3.33c.412-.54,1.931-2.58,3.402-5.109,0,0,.224-.391,.319-.561h.279c1.93,0,3.5,1.57,3.5,3.5v5.5h1v-5.5c0-2.396-1.887-4.343-4.251-4.475Zm-8.749-4.034c-.031-1.767,.386-3.14,1.204-3.973,.664-.676,1.605-1.019,2.796-1.019s2.132,.343,2.796,1.019c.818,.833,1.234,2.206,1.204,3.973-.027,1.54-.352,3.209-.981,5.088-1.185,2.031-2.41,3.757-3.019,4.587-.61-.83-1.835-2.556-3.019-4.587-.629-1.88-.954-3.549-.981-5.088ZM12,1c3.309,0,6,2.691,6,6,0,1.296-.443,2.822-1.093,4.367,.053-.462,.086-.915,.093-1.358,.036-2.07-.466-3.648-1.49-4.691-.859-.875-2.041-1.318-3.51-1.318s-2.65,.443-3.51,1.318c-1.024,1.042-1.526,2.621-1.49,4.691,.008,.443,.041,.896,.093,1.358-.651-1.545-1.093-3.071-1.093-4.367,0-3.309,2.691-6,6-6Zm1.429,14h-2.856c-.193-.326-.384-.66-.573-1h4c-.187,.337-.378,.67-.571,1Z"/>
</svg>
