<svg id="Layer_1" viewBox="0 0 24 24" xmlns="http://www.w3.org/2000/svg" data-name="Layer 1"><path d="m14 19h1v5h-6v-3.514c-.954-.337-1.838-.834-2.638-1.481l-2.998 1.851-3.151-5.106 2.998-1.85c-.14-.64-.211-1.277-.211-1.899s.071-1.259.211-1.899l-2.998-1.852 3.151-5.105 2.998 1.851c.8-.647 1.685-1.144 2.638-1.481v-3.515h6v5h-1v-4h-4v3.244c-1.321.356-2.528 1.035-3.541 1.986l-2.769-1.709-2.101 3.404 2.769 1.709c-.218.774-.364 1.601-.358 2.366-.007.765.14 1.593.358 2.366l-2.769 1.709 2.101 3.404 2.769-1.709c1.013.951 2.22 1.63 3.541 1.986v3.244h4zm6-17c0-1.103.897-2 2-2s2 .897 2 2c0 .929-.64 1.705-1.5 1.929v4.071h-8.5v-1h7.5v-3.071c-.86-.224-1.5-1-1.5-1.929zm1 0c0 .551.448 1 1 1s1-.449 1-1-.448-1-1-1-1 .449-1 1zm3 20c0 1.103-.897 2-2 2s-2-.897-2-2c0-.929.64-1.705 1.5-1.929v-3.071h-7.5v-1h8.5v4.071c.86.224 1.5 1 1.5 1.929zm-1 0c0-.551-.448-1-1-1s-1 .449-1 1 .448 1 1 1 1-.449 1-1zm1-10c0 1.103-.897 2-2 2-.929 0-1.705-.64-1.929-1.5h-6.071v-1h6.071c.224-.86 1-1.5 1.929-1.5 1.103 0 2 .897 2 2zm-1 0c0-.551-.448-1-1-1s-1 .449-1 1 .448 1 1 1 1-.449 1-1zm-11-3v-1c-2.206 0-4 1.794-4 4s1.794 4 4 4v-1c-1.654 0-3-1.346-3-3s1.346-3 3-3z"/></svg>