<svg id="Layer_1" viewBox="0 0 24 24" xmlns="http://www.w3.org/2000/svg" data-name="Layer 1"><path d="m21.5 0h-8c-1.379 0-2.5 1.122-2.5 2.5v9.5h-2.232l-3.258-4.887c-.465-.697-1.242-1.113-2.08-1.113h-.93c-1.379 0-2.5 1.122-2.5 2.5v5.868c0 .874.465 1.695 1.214 2.144l3.786 2.272v5.217h1v-5.783l-4.272-2.564c-.448-.27-.728-.762-.728-1.286v-5.868c0-.827.673-1.5 1.5-1.5h.93c.201 0 .391.05.57.124v7.561l1 .6v-7.134l3.232 4.849h3.768v-10.5c0-.827.673-1.5 1.5-1.5h.499c.039 2.02.642 9.358 7.151 12.649-1.051 1.131-3.15 3.893-3.15 7.851v.5h5v2h1v-21.5c0-1.378-1.121-2.5-2.5-2.5zm-6.502 1h6.502c.827 0 1.5.673 1.5 1.5v10.5h-.881c-6.506-2.907-7.085-10.096-7.121-12zm4.015 20c.194-3.903 2.604-6.444 3.183-7h.804v7zm-15.513-16c1.379 0 2.5-1.122 2.5-2.5s-1.121-2.5-2.5-2.5-2.5 1.122-2.5 2.5 1.121 2.5 2.5 2.5zm0-4c.827 0 1.5.673 1.5 1.5s-.673 1.5-1.5 1.5-1.5-.673-1.5-1.5.673-1.5 1.5-1.5zm7.5 14h1v9h-1zm-10.815 3.226.815.489v5.285h-1v-5.902c.062.042.12.089.185.128z"/></svg>