<svg id="Layer_1" viewBox="0 0 24 24" xmlns="http://www.w3.org/2000/svg" data-name="Layer 1"><path d="m12.5 23h7.5v1h-16v-1h7.5v-8h1zm11.5-9v.5c0 2.481-2.019 4.5-4.5 4.5s-4.5-2.019-4.5-4.5l.039-.694 3.708-8.806h-1.208v-.727c0-.094-.021-.181-.027-.273h2.321l4.168 10zm-7.958 0h6.915l-3.457-8.211zm6.922 1h-6.929c.243 1.694 1.704 3 3.464 3s3.221-1.306 3.464-3zm-12.215-4h.79v2h1v-2h.79c1.219 0 2.21-1.02 2.21-2.273 0-1.008-.657-1.906-1.598-2.185l-3.52-1.043c-.52-.154-.882-.658-.882-1.226 0-.702.543-1.273 1.21-1.273h2.58c.667 0 1.21.571 1.21 1.273v.227h1v-.227c0-1.253-.991-2.273-2.21-2.273h-.829v-2h-1v2h-.751c-1.219 0-2.21 1.02-2.21 2.273 0 1.008.657 1.906 1.598 2.185l3.52 1.043c.52.154.882.658.882 1.226 0 .702-.543 1.273-1.21 1.273h-2.58c-.667 0-1.21-.571-1.21-1.273v-.227h-1v.227c0 1.253.991 2.273 2.21 2.273zm-6.249 8c-2.407 0-4.384-1.904-4.5-4.282.003-.047 0-.703 0-.703l4.168-10.015h2.398c-.006.092-.027.18-.027.273 0 .247.028.489.069.727h-1.358l3.75 9v.5c0 2.481-2.019 4.5-4.5 4.5zm-3.463-4.987 6.921-.011-3.458-8.213zm3.463 3.987c1.76 0 3.221-1.306 3.464-3h-6.928c.243 1.694 1.704 3 3.464 3z"/></svg>