<?xml version="1.0" encoding="UTF-8"?>
<svg xmlns="http://www.w3.org/2000/svg" id="Layer_1" data-name="Layer 1" viewBox="0 0 24 24">
  <path d="M15,5h-1v1H2v.5c0,.827-.673,1.5-1.5,1.5H0v5H.5c.786-.023,1.404,.814,1.151,1.559L.022,19.853l-.022,1.147H5.821l1.518-5h1.585c1.113,0,2.075-.716,2.395-1.782l.366-1.218h4.176l1.114-3.342,.025-3.658h-2v-1ZM5.08,20H1.023l1.584-5.147c.195-.634,.1-1.302-.26-1.853H7.204l-2.125,7Zm5.281-6.069c-.191,.639-.769,1.069-1.437,1.069h-1.282l.607-2h2.391l-.279,.931Zm5.64-4.931H3.5v1H15.806l-.667,2H1v-3.05c.978-.199,1.75-.972,1.95-1.95h13.05v2Zm8,.5l-3,1.5,3,3-3-.5,1,4-4-4v-1.465l2.154,2.205-.494-1.977,1.426,.238-1.775-1.775,2.452-1.226-2.452-1.226,1.775-1.775-1.426,.238,.494-1.977-2.154,1.996v-1.256L22,1.5l-1,4,3-.5-3,3,3,1.5Z"/>
</svg>
